<svg width="24" height="13" viewBox="0 0 24 13" fill="none" xmlns="http://www.w3.org/2000/svg">
<path d="M23.12 4.21263L19.25 0.302634C19.157 0.208906 19.0464 0.134511 18.9246 0.0837426C18.8027 0.0329739 18.672 0.00683594 18.54 0.00683594C18.408 0.00683594 18.2773 0.0329739 18.1554 0.0837426C18.0336 0.134511 17.923 0.208906 17.83 0.302634C17.6437 0.489997 17.5392 0.743448 17.5392 1.00763C17.5392 1.27182 17.6437 1.52527 17.83 1.71263L21.39 5.30263H1C0.734784 5.30263 0.48043 5.40799 0.292893 5.59553C0.105357 5.78306 0 6.03742 0 6.30263H0C0 6.56785 0.105357 6.8222 0.292893 7.00974C0.48043 7.19728 0.734784 7.30263 1 7.30263H21.45L17.83 10.9126C17.7363 11.0056 17.6619 11.1162 17.6111 11.2381C17.5603 11.3599 17.5342 11.4906 17.5342 11.6226C17.5342 11.7546 17.5603 11.8854 17.6111 12.0072C17.6619 12.1291 17.7363 12.2397 17.83 12.3326C17.923 12.4264 18.0336 12.5008 18.1554 12.5515C18.2773 12.6023 18.408 12.6284 18.54 12.6284C18.672 12.6284 18.8027 12.6023 18.9246 12.5515C19.0464 12.5008 19.157 12.4264 19.25 12.3326L23.12 8.45263C23.6818 7.89013 23.9974 7.12764 23.9974 6.33263C23.9974 5.53763 23.6818 4.77514 23.12 4.21263Z" fill="white"/>
</svg>
