<?xml version="1.0" encoding="utf-8"?>
<!-- Generator: Adobe Illustrator 16.0.0, SVG Export Plug-In . SVG Version: 6.00 Build 0)  -->
<!DOCTYPE svg PUBLIC "-//W3C//DTD SVG 1.1//EN" "http://www.w3.org/Graphics/SVG/1.1/DTD/svg11.dtd">
<svg version="1.1" id="Layer_1" xmlns="http://www.w3.org/2000/svg" xmlns:xlink="http://www.w3.org/1999/xlink" x="0px" y="0px"
	 width="24px" height="24px" viewBox="0 0 24 24" enable-background="new 0 0 24 24" xml:space="preserve">
<g transform="translate(0.000000,512.000000) scale(0.100000,-0.100000)">
	<path fill="#0C4072" d="M182.588,5106.884c-4.424-2.627-9.58-7.871-12.246-12.49c-2.09-3.555-4.619-10.254-4.619-12.246
		c0-0.928-0.977-0.977-51.421-1.074l-51.475-0.146l-4.082-2.041c-7.388-3.643-10.889-7.92-20.073-24.541l-4.277-7.686H24.287
		c-12.881,0-15.264-0.576-19.395-4.756c-3.11-3.164-4.375-6.328-4.81-11.914c-0.342-4.814,0.142-5.195,6.411-5.195
		c2.725,0,5.396-0.146,5.981-0.293c1.021-0.293,1.021-0.391-0.825-2.822c-2.627-3.496-4.277-7.246-4.814-11.182
		c-0.435-2.91-0.098-6.172,2.627-27.51c2.09-16.328,3.306-24.688,3.887-25.713c1.265-2.48,4.521-5.293,7.095-6.221l2.383-0.879
		v-8.066c0-7.578,0.049-8.164,1.118-9.717c0.581-0.879,1.846-2.139,2.72-2.725c1.606-1.064,2.046-1.113,11.475-1.113
		s9.863,0.049,11.47,1.113c0.874,0.586,2.139,1.846,2.72,2.725c1.069,1.553,1.118,2.139,1.118,9.814v8.213h60.562h60.513
		l-2.139-3.008c-5.205-7.344-7.197-13.613-7.197-22.754c0-6.025,1.113-10.977,3.691-16.328c5.01-10.449,17.793-20.215,21.289-16.328
		c0.732,0.771,0.83,2.236,0.83,10.4v9.473l5.635,3.75c3.311,2.236,5.928,3.643,6.367,3.496c0.391-0.146,3.115-1.943,6.025-3.984
		l5.303-3.74v-9.336c0-10.498,0.146-10.938,3.496-10.938c2.48,0,8.066,3.838,12.344,8.408c6.133,6.563,9.336,14.297,9.775,23.477
		c0.723,14.434-5.732,26.738-18.037,34.219l-4.18,2.578V5000v40.195l4.18,2.578c12.305,7.49,18.76,19.785,18.037,34.219
		c-0.293,6.221-1.416,10.303-4.326,15.986c-3.74,7.148-13.516,15.898-17.891,15.898c-3.252,0-3.398-0.488-3.398-11.279v-9.473
		l-5.645-3.74c-3.301-2.236-5.928-3.652-6.367-3.506c-0.381,0.146-3.105,1.943-6.025,3.984l-5.293,3.74v9.336
		c0,8.408-0.098,9.434-0.879,10.107C188.613,5109.414,186.182,5109.072,182.588,5106.884z M225.117,5095.263
		c5.635-6.514,7.92-12.979,7.578-21.387c-0.146-3.887-0.488-5.928-1.455-8.643c-2.725-7.637-8.457-14.053-15.703-17.549
		c-2.188-1.123-4.18-2.334-4.326-2.773c-0.391-1.016-0.391-88.799,0-89.824c0.146-0.439,2.188-1.699,4.521-2.822
		c5.645-2.764,11.182-8.164,13.76-13.506c2.666-5.498,3.447-9.043,3.203-15.068c-0.244-5.781-1.357-9.678-4.082-14.189
		c-1.797-2.92-5.83-7.686-6.563-7.686c-0.244,0-0.439,2.773-0.439,6.221c0,4.766-0.195,6.465-0.723,7.246
		c-0.439,0.586-4.326,3.594-8.75,6.66c-6.221,4.375-8.359,5.635-9.58,5.635c-2.041,0-17.783-10.303-18.125-11.855
		c-0.146-0.586-0.293-4.082-0.391-7.832l-0.098-6.797l-2.92,2.959c-5.732,5.83-8.496,12.637-8.496,20.801
		c0,5.352,0.869,8.994,3.252,13.906c2.48,5.049,8.066,10.645,13.76,13.604l4.131,2.188V5000v45.449l-3.848,2.041
		c-4.902,2.627-7.773,4.863-10.547,8.213c-6.465,7.725-8.652,18.76-5.586,28.193c0.684,2.139,2.139,5.244,3.203,6.895
		c2.041,3.213,5.693,7.393,6.367,7.393c0.244,0,0.439-2.773,0.439-6.221c0-4.766,0.195-6.465,0.732-7.246
		c0.439-0.576,4.326-3.594,8.75-6.66c6.27-4.414,8.311-5.635,9.57-5.635c1.221,0,3.457,1.221,9.385,5.156
		c4.277,2.813,8.066,5.488,8.408,5.928c0.391,0.537,0.586,2.969,0.586,7.969C221.133,5099.785,221.182,5099.833,225.117,5095.263z
		 M164.502,5073.779c0.195-0.137,0.537-1.797,0.732-3.643c1.602-12.148,8.945-22.646,20.361-28.916l1.514-0.83v-5.879v-5.83h-2.822
		h-2.822l-0.82,3.398c-2.285,8.701-9.629,15.166-18.906,16.572c-11.426,1.797-22.656-5.488-25.518-16.572l-0.83-3.398H84.214
		c-28.14,0-51.182,0.146-51.182,0.293c0,0.283,13.755,24.883,17.939,31.982c4.18,7.236,10.156,12.1,15.845,12.92
		C69.829,5074.316,164.062,5074.267,164.502,5073.779z M164.502,5040.39c3.984-1.748,7.832-6.221,9.189-10.596l0.342-1.113h-15.605
		h-15.596l0.332,1.113c1.221,4.033,4.863,8.457,8.408,10.254C155.273,5041.992,160.615,5042.089,164.502,5040.39z M30.02,5038.984
		c-0.049-0.195-1.021-1.943-2.09-3.838l-1.943-3.555h-9.087c-7.002,0-9.141,0.146-9.141,0.635c0,0.293,0.439,1.504,0.972,2.676
		c0.781,1.699,1.411,2.285,3.501,3.252c2.383,1.123,3.11,1.221,10.254,1.221C26.714,5039.375,30.117,5039.228,30.02,5038.984z
		 M187.109,5012.197v-9.668l-1.123-0.293c-1.943-0.488-5.732-4.229-6.953-6.855c-3.057-6.514-0.137-14.482,6.416-17.646l1.66-0.771
		v-8.604v-8.652l-2.139-1.26l-2.09-1.221l-79.761,0.098l-79.756,0.146l-1.362,1.025c-0.728,0.527-1.606,1.553-1.943,2.188
		c-0.684,1.455-6.079,43.398-6.079,47.197c0.049,3.008,1.216,6.27,3.306,8.984c1.46,1.895,5.01,4.082,7.437,4.57
		c0.972,0.195,37.915,0.342,82.095,0.391l80.293,0.049V5012.197z M46.646,4943.671c0-5.547-0.146-6.953-0.781-7.539
		c-1.118-1.113-14.336-1.113-15.454,0c-0.635,0.586-0.776,1.992-0.776,7.539v6.748h8.506h8.506V4943.671z"/>
	<path fill="#0C4072" d="M79.355,5006.269c-3.062-1.162-7.144-4.707-8.506-7.432c-1.46-2.871-4.277-11.426-4.277-13.027
		c0-0.732,0.435-1.807,0.972-2.334c0.972-0.977,1.602-0.977,47.632-0.977c46.025,0,46.66,0,47.627,0.977
		c1.406,1.406,1.221,3.105-1.162,9.717c-2.676,7.344-4.473,9.678-9.482,12.305l-3.496,1.797l-33.389-0.049
		C83.096,5007.246,81.782,5007.197,79.355,5006.269z M148.516,4999.179c2.627-1.416,4.277-3.408,5.488-6.709
		c0.586-1.514,1.025-2.822,1.025-2.92c0-0.146-17.939-0.244-39.854-0.244c-25.225,0-39.854,0.195-39.854,0.488
		c0,0.244,0.435,1.65,1.021,3.105c1.211,3.311,4.424,6.377,7.388,7.051c1.216,0.244,14.629,0.439,32.417,0.391
		C146.475,5000.244,146.523,5000.244,148.516,4999.179z"/>
	<path fill="#0C4072" d="M35.366,5002.773c-2.432-0.684-3.062-1.074-5.635-3.447c-4.814-4.434-5.298-12.793-1.021-17.939
		c2.329-2.822,5.298-4.326,9.185-4.619c5.781-0.391,10.205,1.943,12.832,6.66C56.362,4993.828,46.743,5005.927,35.366,5002.773z
		 M41.587,4995.146c1.997-0.977,3.599-3.213,3.599-5.059c0-1.709-1.46-4.18-3.013-5.156c-2.48-1.504-4.912-1.26-7.002,0.635
		c-3.252,2.959-2.573,7.773,1.313,9.717C38.623,4996.308,39.111,4996.308,41.587,4995.146z"/>
	<path fill="#0C4072" d="M58.311,4976.669c-0.537-0.537-0.972-1.602-0.972-2.432c0-0.82,0.435-1.895,0.972-2.432
		c0.972-0.967,1.602-0.967,58.228-0.967c56.812,0,57.3,0,58.179,0.967c0.479,0.537,0.869,1.65,0.869,2.432s-0.391,1.895-0.869,2.432
		c-0.879,0.977-1.367,0.977-58.179,0.977C59.912,4977.646,59.282,4977.646,58.311,4976.669z"/>
</g>
</svg>
