<svg width="426" height="344" viewBox="0 0 426 344" fill="none" xmlns="http://www.w3.org/2000/svg">
<path d="M461.443 302.153H0V302.384H461.443V302.153Z" fill="#EBEBEB"/>
<path d="M415.207 317.002H384.641V317.233H415.207V317.002Z" fill="#EBEBEB"/>
<path d="M305.678 319.512H297.658V319.743H305.678V319.512Z" fill="#EBEBEB"/>
<path d="M383.718 308.438H366.008V308.668H383.718V308.438Z" fill="#EBEBEB"/>
<path d="M88.2735 309.988H48.4141V310.219H88.2735V309.988Z" fill="#EBEBEB"/>
<path d="M102.339 309.988H96.4971V310.219H102.339V309.988Z" fill="#EBEBEB"/>
<path d="M207.788 313.883H121.332V314.114H207.788V313.883Z" fill="#EBEBEB"/>
<path d="M218.724 260.992H40.5241C39.1281 260.99 37.7901 260.433 36.8039 259.445C35.8176 258.457 35.2637 257.118 35.2637 255.722V5.22353C35.2758 3.83554 35.8351 2.50838 36.8201 1.53035C37.805 0.552309 39.1361 0.00237771 40.5241 0H218.724C220.122 0 221.462 0.555197 222.45 1.54345C223.439 2.53171 223.994 3.87207 223.994 5.26968V255.722C223.994 257.12 223.439 258.46 222.45 259.449C221.462 260.437 220.122 260.992 218.724 260.992ZM40.5241 0.184578C39.1893 0.187023 37.91 0.718988 36.967 1.66371C36.024 2.60843 35.4944 3.88872 35.4944 5.22353V255.722C35.4944 257.057 36.024 258.338 36.967 259.282C37.91 260.227 39.1893 260.759 40.5241 260.761H218.724C220.06 260.759 221.34 260.227 222.285 259.283C223.229 258.338 223.761 257.058 223.763 255.722V5.22353C223.761 3.88787 223.229 2.60761 222.285 1.66315C221.34 0.718689 220.06 0.187017 218.724 0.184578H40.5241Z" fill="#EBEBEB"/>
<path d="M418.353 260.992H240.144C238.747 260.99 237.408 260.434 236.42 259.446C235.432 258.458 234.876 257.119 234.874 255.722V5.22353C234.889 3.8347 235.45 2.50755 236.436 1.52977C237.423 0.551986 238.755 0.00235178 240.144 0H418.353C419.739 0.00480316 421.068 0.555807 422.051 1.53359C423.034 2.51136 423.592 3.83713 423.604 5.22353V255.722C423.604 257.117 423.052 258.454 422.067 259.442C421.083 260.43 419.747 260.987 418.353 260.992ZM240.144 0.184578C238.808 0.187017 237.528 0.718689 236.583 1.66315C235.639 2.60761 235.107 3.88787 235.105 5.22353V255.722C235.107 257.058 235.639 258.338 236.583 259.283C237.528 260.227 238.808 260.759 240.144 260.761H418.353C419.689 260.759 420.969 260.227 421.913 259.283C422.858 258.338 423.39 257.058 423.392 255.722V5.22353C423.39 3.88787 422.858 2.60761 421.913 1.66315C420.969 0.718689 419.689 0.187017 418.353 0.184578H240.144Z" fill="#EBEBEB"/>
<path d="M102.801 302.153L102.801 171.574H60.9294L60.9294 302.153H102.801Z" fill="#F0F0F0"/>
<path d="M100.502 213.288V174.85H63.2266V213.288H100.502Z" fill="#E6E6E6"/>
<path d="M100.502 255.178V216.74H63.2266V255.178H100.502Z" fill="#E6E6E6"/>
<path d="M100.493 297.068V258.63H63.2178V297.068H100.493Z" fill="#E6E6E6"/>
<path d="M100.502 213.288V174.85H85.8373V213.288H100.502Z" fill="#E0E0E0"/>
<path d="M100.502 255.178V216.74H85.8373V255.178H100.502Z" fill="#E0E0E0"/>
<path d="M94.9096 197.931H84.7578V213.288H94.9096V197.931Z" fill="#F0F0F0"/>
<path d="M80.4576 213.288H84.749V197.931H80.4576V213.288Z" fill="#E0E0E0"/>
<path d="M82.6078 201.927H69.5674V213.288H82.6078V201.927Z" fill="#F0F0F0"/>
<path d="M64.0578 213.288H69.5674V201.927H64.0578V213.288Z" fill="#E0E0E0"/>
<path d="M100.493 297.059V258.62H85.8285V297.059H100.493Z" fill="#E0E0E0"/>
<path d="M60.9287 302.153L60.9287 171.574H49.5587L49.5587 302.153H60.9287Z" fill="#F5F5F5"/>
<path d="M96.3311 274.531H68.6445V297.068H96.3311V274.531Z" fill="#F0F0F0"/>
<path d="M63.2272 297.058H68.6445V274.521H63.2272V297.058Z" fill="#E0E0E0"/>
<path d="M91.4674 237.292H66.8633V255.178H91.4674V237.292Z" fill="#FAFAFA"/>
<path d="M63.2359 255.178H66.8721V237.292H63.2359V255.178Z" fill="#F0F0F0"/>
<path d="M411.985 302.153V171.574H370.114V302.153H411.985Z" fill="#F0F0F0"/>
<path d="M409.679 213.288V174.85H372.403V213.288H409.679Z" fill="#E6E6E6"/>
<path d="M409.679 255.178V216.74H372.403V255.178H409.679Z" fill="#E6E6E6"/>
<path d="M409.679 297.068V258.63H372.403V297.068H409.679Z" fill="#E6E6E6"/>
<path d="M409.679 213.288V174.85H395.014V213.288H409.679Z" fill="#E0E0E0"/>
<path d="M409.679 255.178V216.74H395.014V255.178H409.679Z" fill="#E0E0E0"/>
<path d="M388.452 244.011H378.3V255.169H388.452V244.011Z" fill="#F0F0F0"/>
<path d="M374.008 255.178H378.3V244.02H374.008V255.178Z" fill="#E0E0E0"/>
<path d="M397.644 232.853H387.492V244.011H397.644V232.853Z" fill="#F0F0F0"/>
<path d="M383.201 244.02H387.492V232.863H383.201V244.02Z" fill="#E0E0E0"/>
<path d="M404.861 244.011H394.709V255.169H404.861V244.011Z" fill="#F0F0F0"/>
<path d="M390.418 255.178H394.709V244.02H390.418V255.178Z" fill="#E0E0E0"/>
<path d="M409.679 297.068V258.63H395.014V297.068H409.679Z" fill="#E0E0E0"/>
<path d="M370.114 302.153V171.574H358.744V302.153H370.114Z" fill="#F5F5F5"/>
<path d="M399.784 266.548H376.888V297.068H399.784V266.548Z" fill="#F0F0F0"/>
<path d="M372.412 297.058H376.888V266.539H372.412V297.058Z" fill="#E0E0E0"/>
<path d="M407.149 189.062H376.888V213.288H407.149V189.062Z" fill="#FAFAFA"/>
<path d="M372.412 213.288H376.888V189.062H372.412V213.288Z" fill="#F0F0F0"/>
<path d="M334.344 24.5303H120.649V164.892H334.344V24.5303Z" fill="#E6E6E6"/>
<path d="M337.232 24.5303H123.538V164.892H337.232V24.5303Z" fill="#F5F5F5"/>
<path d="M332.055 159.078V30.3445L128.706 30.3445V159.078H332.055Z" fill="white"/>
<path d="M332.055 159.078V30.3445H329.877V159.078H332.055Z" fill="#E6E6E6"/>
<path d="M335.091 118.748H125.679V126.555H335.091V118.748Z" fill="#F5F5F5"/>
<path d="M342.88 14.9047H115.01C114.905 14.9035 114.801 14.9231 114.703 14.9625C114.606 15.0018 114.517 15.0601 114.443 15.1339C114.368 15.2077 114.309 15.2956 114.268 15.3925C114.228 15.4894 114.207 15.5934 114.207 15.6984C114.209 15.9097 114.295 16.1116 114.445 16.2602C114.596 16.4088 114.799 16.4921 115.01 16.4921H342.88C343.09 16.4897 343.29 16.4053 343.438 16.257C343.587 16.1086 343.671 15.9082 343.673 15.6984C343.673 15.4879 343.59 15.286 343.441 15.1372C343.292 14.9883 343.09 14.9047 342.88 14.9047Z" fill="#E6E6E6"/>
<path d="M345.668 15.6891C345.668 16.0834 345.551 16.4688 345.332 16.7966C345.113 17.1244 344.801 17.3799 344.437 17.5308C344.073 17.6817 343.672 17.7212 343.285 17.6442C342.898 17.5673 342.543 17.3775 342.265 17.0987C341.986 16.8199 341.796 16.4647 341.719 16.078C341.642 15.6913 341.682 15.2905 341.832 14.9263C341.983 14.562 342.239 14.2507 342.567 14.0316C342.894 13.8126 343.28 13.6957 343.674 13.6957C343.936 13.6957 344.195 13.7472 344.437 13.8474C344.679 13.9476 344.899 14.0944 345.084 14.2795C345.269 14.4647 345.416 14.6844 345.516 14.9263C345.616 15.1681 345.668 15.4273 345.668 15.6891Z" fill="#E6E6E6"/>
<path d="M121.729 20.165C121.444 20.1625 121.17 20.048 120.968 19.846C120.766 19.6441 120.652 19.3708 120.649 19.0852V16.7687C120.649 16.4824 120.763 16.2077 120.966 16.0052C121.168 15.8027 121.443 15.689 121.729 15.689C122.013 15.689 122.285 15.8018 122.486 16.0025C122.687 16.2033 122.8 16.4756 122.8 16.7595V19.076C122.801 19.2178 122.774 19.3584 122.721 19.4899C122.668 19.6213 122.589 19.7411 122.49 19.8422C122.391 19.9433 122.272 20.0239 122.142 20.0792C122.011 20.1346 121.871 20.1638 121.729 20.165Z" fill="#E6E6E6"/>
<path d="M330.855 20.165C330.57 20.1625 330.298 20.0477 330.097 19.8455C329.897 19.6432 329.784 19.37 329.784 19.0852V16.7687C329.783 16.6274 329.81 16.4872 329.863 16.3562C329.916 16.2253 329.995 16.1062 330.095 16.0058C330.194 15.9054 330.312 15.8257 330.443 15.7713C330.573 15.717 330.713 15.689 330.855 15.689C331.14 15.689 331.413 15.8014 331.615 16.002C331.817 16.2025 331.932 16.4747 331.935 16.7595V19.076C331.935 19.3632 331.821 19.6388 331.619 19.8428C331.417 20.0467 331.142 20.1625 330.855 20.165Z" fill="#E6E6E6"/>
<path opacity="0.4" d="M342.622 15.6982H125.679V153.614H342.622V15.6982Z" fill="#E0E0E0"/>
<path d="M136.532 15.6891C136.532 16.0838 136.415 16.4696 136.195 16.7976C135.976 17.1256 135.664 17.3811 135.299 17.5317C134.934 17.6823 134.533 17.7212 134.146 17.6436C133.759 17.5659 133.404 17.3751 133.126 17.0954C132.847 16.8157 132.658 16.4596 132.582 16.0723C132.506 15.6851 132.547 15.284 132.699 14.9199C132.852 14.5558 133.109 14.2451 133.438 14.0272C133.767 13.8092 134.153 13.6939 134.548 13.6957C135.075 13.6981 135.579 13.9092 135.951 14.2828C136.323 14.6564 136.532 15.162 136.532 15.6891Z" fill="#E6E6E6"/>
<path d="M150.403 227.491L346.341 227.491V219.444L150.403 219.444V227.491Z" fill="#F0F0F0"/>
<path d="M150.403 219.444H127.201V227.491H150.403V219.444Z" fill="#E6E6E6"/>
<path d="M343.12 227.491H130.782V232.161H343.12V227.491Z" fill="#E0E0E0"/>
<path d="M340.84 231.137V302.153H343.119V231.137H340.84Z" fill="#E0E0E0"/>
<path d="M150.403 231.137V302.153H152.683V231.137H150.403Z" fill="#E0E0E0"/>
<path d="M130.782 231.137V302.153H133.053V231.137H130.782Z" fill="#E0E0E0"/>
<path d="M321.229 231.137V302.153H323.508V231.137H321.229Z" fill="#E0E0E0"/>
<path d="M276.727 145.613L284.599 159.659C284.359 189.985 287.054 191.739 287.082 196.953H278.776C277.992 171.555 273.082 173.715 276.727 145.613Z" fill="#E0E0E0"/>
<path d="M282.8 182.39C280.032 153.144 233.961 157.823 229.587 171.565C225.212 185.306 284.406 199.214 282.8 182.39Z" fill="#E0E0E0"/>
<path d="M279.321 170.522C285.402 148.945 257.688 144.875 245.312 151.141C238.021 158.441 275.823 182.934 279.321 170.522Z" fill="#E0E0E0"/>
<path d="M271.689 156.891C285.957 152.276 276.719 137.289 268.2 133.449C261.177 132.508 263.484 159.595 271.689 156.891Z" fill="#E0E0E0"/>
<path d="M287.368 171.121C271.226 158.902 290.801 147.173 303.786 147.228C313.365 149.674 296.652 178.117 287.368 171.121Z" fill="#E0E0E0"/>
<path d="M284.471 158.829C262.958 153.402 275.823 138.073 288.273 134.381C298.628 133.634 296.838 161.957 284.471 158.829Z" fill="#E0E0E0"/>
<path d="M280.557 184.162C276.543 157.777 319.845 159.041 323.352 169.507C326.859 179.972 282.819 199.344 280.557 184.162Z" fill="#E0E0E0"/>
<path d="M278.25 219.444C262.561 219.444 249.355 218.752 246.143 203.884C245.365 199.939 244.244 196.07 242.793 192.32L242.544 191.72H313.948L313.698 192.32C312.247 196.069 311.129 199.939 310.358 203.884C307.137 218.724 293.921 219.444 278.25 219.444Z" fill="#FAFAFA"/>
<path d="M318.572 193.077H237.92L235.613 186.349H320.879L318.572 193.077Z" fill="#F0F0F0"/>
<path d="M230.722 343.83C329.547 343.83 409.66 339.153 409.66 333.383C409.66 327.614 329.547 322.936 230.722 322.936C131.897 322.936 51.7832 327.614 51.7832 333.383C51.7832 339.153 131.897 343.83 230.722 343.83Z" fill="#F5F5F5"/>
<path d="M351.158 325.788L343.756 325.677L343.729 308.493L351.121 308.604L351.158 325.788Z" fill="#FFB573"/>
<path d="M388.738 325.816H381.327L379.131 308.659H386.542L388.738 325.816Z" fill="#FFB573"/>
<path d="M380.551 324.957H389.586C389.731 324.957 389.872 325.008 389.983 325.101C390.094 325.193 390.17 325.322 390.196 325.465L391.377 332.054C391.402 332.217 391.392 332.384 391.346 332.543C391.301 332.701 391.221 332.848 391.113 332.973C391.005 333.098 390.871 333.197 390.721 333.265C390.57 333.333 390.407 333.367 390.242 333.365C387.335 333.319 385.221 333.143 381.557 333.143C379.305 333.143 372.513 333.383 369.403 333.383C366.293 333.383 366.016 330.31 367.299 330.024C373.058 328.778 377.45 327.061 379.296 325.409C379.644 325.107 380.091 324.946 380.551 324.957Z" fill="#263238"/>
<path d="M343.396 324.856L351.481 324.985C351.626 324.984 351.766 325.036 351.875 325.131C351.983 325.226 352.054 325.358 352.072 325.502L353.087 332.1C353.109 332.264 353.096 332.431 353.049 332.589C353.001 332.747 352.919 332.893 352.81 333.017C352.7 333.14 352.565 333.239 352.414 333.305C352.262 333.372 352.098 333.405 351.933 333.402C349.017 333.309 344.818 333.069 341.154 333.014C336.872 332.949 336.392 333.125 331.371 333.014C328.335 332.968 327.68 329.885 328.99 329.627C334.869 328.446 336.373 328.381 341.578 325.373C342.128 325.041 342.755 324.863 343.396 324.856Z" fill="#263238"/>
<path d="M346.682 105.329C344.694 110.672 342.43 115.909 339.899 121.018C338.635 123.565 337.306 126.103 335.848 128.595C334.401 131.14 332.818 133.605 331.104 135.978L329.71 137.824C328.853 138.917 327.782 139.824 326.563 140.491C325.292 141.178 323.874 141.552 322.429 141.58C321.246 141.617 320.064 141.461 318.931 141.118C317.165 140.583 315.493 139.777 313.975 138.728C312.68 137.834 311.447 136.854 310.284 135.793C306.012 131.795 302.288 127.248 299.209 122.273L303.602 118.849C305.494 120.695 307.487 122.541 309.499 124.276C311.441 125.996 313.484 127.599 315.618 129.075C316.591 129.761 317.612 130.378 318.673 130.921C319.496 131.355 320.379 131.666 321.294 131.843C321.49 131.9 321.698 131.9 321.894 131.843C321.958 131.797 321.829 131.788 321.718 131.843C321.607 131.899 321.58 131.843 321.644 131.77L322.613 130.228C325.305 125.701 327.724 121.016 329.858 116.201C332.082 111.337 334.223 106.27 336.207 101.379L346.682 105.329Z" fill="#FFB573"/>
<path d="M349.45 100.493C351.896 107.138 339.068 126.546 339.068 126.546L324.302 118.369C326.577 112.317 329.498 106.528 333.014 101.102C338.357 93.3406 346.783 93.2114 349.45 100.493Z" fill="#2A8BE9"/>
<path opacity="0.5" d="M349.45 100.493C351.896 107.138 339.068 126.546 339.068 126.546L324.302 118.369C326.577 112.317 329.498 106.528 333.014 101.102C338.357 93.3406 346.783 93.2114 349.45 100.493Z" fill="white"/>
<path opacity="0.2" d="M341.264 107.775C338.44 109.205 332.035 116.237 330.106 121.572L339.068 126.546C342.129 121.83 344.837 116.895 347.171 111.78C345.159 109.823 342.759 107.055 341.264 107.775Z" fill="#2A8BE9"/>
<path d="M304.081 118.969L299.578 114.89L295.323 122.171C295.323 122.171 299.652 127.247 304.441 124.783L305.087 122.937C305.33 122.251 305.364 121.507 305.185 120.801C305.006 120.095 304.622 119.457 304.081 118.969Z" fill="#FFB573"/>
<path d="M292.305 111.826L291.06 118.904L295.323 122.171L299.578 114.89L292.305 111.826Z" fill="#FFB573"/>
<path opacity="0.2" d="M343.729 308.493L343.747 317.353L351.139 317.473L351.13 308.613L343.729 308.493Z" fill="black"/>
<path opacity="0.2" d="M386.542 308.668H379.131L380.275 317.51H387.677L386.542 308.668Z" fill="black"/>
<path d="M382.213 95.334C376.085 123.943 379.638 153.633 379.315 159.715L339.695 159.364C331.768 117.631 340.71 95.334 340.71 95.334C340.71 95.334 343.211 94.6787 346.635 94.0973C347.706 93.9127 348.869 93.7374 350.078 93.599C350.742 93.5159 351.425 93.4513 352.117 93.3867C357.73 93.1185 363.353 93.1709 368.96 93.5436C370.021 93.599 371.101 93.6912 372.144 93.7928C373.187 93.8943 374.073 94.005 374.968 94.125C379.047 94.6603 382.213 95.334 382.213 95.334Z" fill="#2A8BE9"/>
<path opacity="0.5" d="M382.213 95.334C376.085 123.943 379.638 153.633 379.315 159.715L339.695 159.364C331.768 117.631 340.71 95.334 340.71 95.334C340.71 95.334 343.211 94.6787 346.635 94.0973C347.706 93.9127 348.869 93.7374 350.078 93.599C350.742 93.5159 351.425 93.4513 352.117 93.3867C357.73 93.1185 363.353 93.1709 368.96 93.5436C370.021 93.599 371.101 93.6912 372.144 93.7928C373.187 93.8943 374.073 94.005 374.968 94.125C379.047 94.6603 382.213 95.334 382.213 95.334Z" fill="white"/>
<path opacity="0.2" d="M374.59 107.978C374.055 110.746 375.679 123.085 378.716 125.955C378.835 121.959 379.085 117.788 379.491 113.506L374.59 107.978Z" fill="black"/>
<path d="M367.456 74.5599C366.349 79.968 365.195 89.8891 368.96 93.5437C365.989 96.4416 362.103 99.7916 355.671 99.9578C349.238 100.124 350.392 95.7125 352.118 93.3868C358.172 92.0025 358.061 87.5173 357.046 83.2997L367.456 74.5599Z" fill="#FFB573"/>
<path d="M367.862 91.4672C367.862 91.4672 365.905 96.5984 355.412 99.9577C357.105 100.752 358.481 102.095 359.316 103.769C359.316 103.769 371.581 100.65 370.649 92.8884C369.788 92.2918 368.85 91.8137 367.862 91.4672Z" fill="white"/>
<path d="M351.408 103.363C352.33 101.823 353.74 100.635 355.413 99.9853C354.232 98.9055 352.321 95.537 353.161 92.916C352.33 92.8938 351.5 92.9933 350.697 93.2113C350.697 93.2113 346.313 97.4012 351.408 103.363Z" fill="white"/>
<path d="M355.117 105.929C355.034 106.667 354.656 107.221 354.259 107.175C353.862 107.128 353.613 106.51 353.687 105.772C353.761 105.033 354.157 104.489 354.545 104.526C354.933 104.563 355.2 105.209 355.117 105.929Z" fill="white"/>
<path d="M354.388 113.515C354.388 114.253 354.037 114.844 353.64 114.835C353.243 114.825 352.93 114.226 352.948 113.487C352.966 112.749 353.299 112.158 353.696 112.167C354.092 112.177 354.388 112.786 354.388 113.515Z" fill="white"/>
<path opacity="0.2" d="M363.211 78.1223L357.046 83.2905C357.298 84.2737 357.461 85.2775 357.535 86.2899C359.851 85.9761 363.072 83.4658 363.312 81.0479C363.456 80.0746 363.421 79.0834 363.211 78.1223Z" fill="black"/>
<path d="M356.511 62.2208C355.29 63.4819 354.384 65.0137 353.868 66.6913C353.351 68.3689 353.239 70.1448 353.539 71.8742C351.832 73.3508 348.74 73.0831 348.74 73.0831L347.762 72.1049C347.295 71.6335 346.936 71.0672 346.708 70.4445C346.481 69.8218 346.39 69.1574 346.442 68.4964C346.617 66.3368 347.107 63.0606 348.472 60.9841C350.697 57.671 356.511 62.2208 356.511 62.2208Z" fill="#263238"/>
<path d="M368.176 66.4478C367.66 73.8309 367.733 78.1038 363.996 81.8323C358.366 87.4527 349.34 84.0103 347.651 76.6641C346.138 70.0563 347.236 59.1293 354.444 56.3606C356.027 55.7237 357.746 55.5015 359.439 55.7151C361.132 55.9287 362.743 56.571 364.118 57.5812C365.494 58.5914 366.588 59.936 367.298 61.4877C368.008 63.0393 368.311 64.7466 368.176 66.4478Z" fill="#FFB573"/>
<path d="M362.048 61.9626C363.273 64.706 363.396 67.8158 362.389 70.647C362.281 70.933 362.231 71.2382 362.244 71.544C362.256 71.8498 362.331 72.1499 362.463 72.426C362.595 72.7021 362.782 72.9486 363.012 73.1504C363.242 73.3522 363.51 73.5052 363.801 73.6002C364.439 73.7901 365.102 73.8804 365.767 73.8678L369.302 73.1941C369.302 73.1941 370.788 67.9337 369.819 64.0852C368.85 60.2368 362.048 61.9626 362.048 61.9626Z" fill="#263238"/>
<path d="M362.02 62.9314C356.6 63.4219 351.137 63.1392 345.796 62.0916C345.796 62.0916 347.531 56.5543 351.426 54.7085C355.32 52.8627 363.552 52.9827 366.09 54.0533C368.628 55.1238 371.941 58.3908 370.705 66.3646C368.074 69.2163 362.02 62.9314 362.02 62.9314Z" fill="#263238"/>
<path d="M371.803 65.1833C371.803 65.1833 351.14 62.184 342.576 60.6797C342.446 60.6559 342.329 60.5875 342.245 60.4863C342.16 60.3851 342.114 60.2576 342.114 60.1259C342.114 59.9942 342.16 59.8667 342.245 59.7655C342.329 59.6644 342.446 59.5959 342.576 59.5722C346.158 59.231 349.771 59.3925 353.309 60.0521L371.803 65.1833Z" fill="#2A8BE9"/>
<path d="M345.943 59.5816C346.313 57.7358 349.506 48.2024 362.906 51.1003C375.319 53.7766 371.803 65.1835 371.803 65.1835L345.943 59.5816Z" fill="#2A8BE9"/>
<path d="M354.342 51.3863L358.827 50.0574L364.235 50.5004V51.4325L360.802 52.2262L354.342 51.3863Z" fill="#2A8BE9"/>
<path opacity="0.2" d="M355.016 60.5412C354.97 60.5424 354.925 60.5345 354.882 60.5179C354.84 60.5013 354.801 60.4763 354.768 60.4445C354.736 60.4127 354.71 60.3746 354.692 60.3326C354.674 60.2905 354.665 60.2453 354.665 60.1997C354.665 60.1259 354.767 52.7059 363.552 50.7309C363.599 50.7165 363.648 50.712 363.696 50.7175C363.744 50.723 363.791 50.7386 363.833 50.7631C363.875 50.7876 363.912 50.8206 363.94 50.86C363.969 50.8994 363.989 50.9443 363.999 50.9918C364.009 51.0393 364.01 51.0885 364 51.1361C363.99 51.1838 363.971 51.2289 363.942 51.2686C363.914 51.3083 363.878 51.3417 363.837 51.3667C363.795 51.3917 363.748 51.4078 363.7 51.4138C355.477 53.2596 355.394 59.9136 355.394 60.1997C355.394 60.2478 355.385 60.2955 355.365 60.3395C355.346 60.3835 355.317 60.423 355.281 60.4552C355.246 60.4875 355.204 60.5118 355.158 60.5266C355.112 60.5414 355.064 60.5464 355.016 60.5412Z" fill="black"/>
<path d="M371.314 73.8861C370.372 75.4789 368.84 76.6362 367.05 77.107C364.678 77.7069 363.552 75.5658 364.281 73.3601C364.918 71.3667 366.93 68.6534 369.293 69.041C371.655 69.4286 372.44 71.9204 371.314 73.8861Z" fill="#FFB573"/>
<path d="M341.467 315.627L354.009 315.821C354.009 315.821 357.406 266.197 357.027 243.116C356.916 236.093 357.682 226.208 358.873 215.595C360.34 202.223 361.116 196.879 363.044 179.972C364.42 167.919 365.813 159.668 365.813 159.668L339.769 159.438C339.769 159.438 336.438 219.887 337.121 242.497C337.776 265.911 341.467 315.627 341.467 315.627Z" fill="#263238"/>
<path opacity="0.2" d="M357.655 175.985C353.76 187.89 355.44 215.078 358.089 222.591C358.31 220.302 358.559 217.976 358.818 215.577C360.285 202.195 361.07 196.851 362.999 179.953C362.999 179.612 363.072 179.289 363.109 178.966C361.48 177.66 359.634 176.651 357.655 175.985Z" fill="black"/>
<path d="M353.751 159.493C353.751 159.493 362.592 221.705 365.748 243.18C369.2 266.695 376.823 315.793 376.823 315.793H390.38C390.38 315.793 387.833 269.52 384.908 246.53C381.585 220.339 379.287 159.724 379.287 159.724L353.751 159.493Z" fill="#263238"/>
<path d="M375.218 316.088H391.193V311.317L373.335 311.013L375.218 316.088Z" fill="#2A8BE9"/>
<path d="M339.558 315.867L354.471 316.098L355.154 311.271L338.515 310.754L339.558 315.867Z" fill="#2A8BE9"/>
<path d="M357.027 68.3581C357.027 68.958 356.704 69.4379 356.308 69.4379C355.911 69.4379 355.606 68.9487 355.615 68.3489C355.625 67.749 355.938 67.2691 356.335 67.2783C356.732 67.2876 357.037 67.7675 357.027 68.3581Z" fill="#263238"/>
<path d="M350.272 68.2934C350.272 68.8932 349.949 69.3731 349.562 69.3639C349.174 69.3547 348.86 68.8748 348.86 68.2841C348.86 67.6935 349.183 67.2043 349.58 67.2043C349.977 67.2043 350.282 67.7027 350.272 68.2934Z" fill="#263238"/>
<path d="M352.22 68.9302C351.489 70.7482 350.511 72.4564 349.312 74.006C349.718 74.3016 350.184 74.5051 350.676 74.6024C351.169 74.6996 351.677 74.6882 352.164 74.569L352.22 68.9302Z" fill="#ED893E"/>
<path d="M354.877 76.3503C355.544 76.277 356.188 76.0681 356.77 75.7364C357.353 75.4046 357.861 74.9571 358.264 74.4214C358.281 74.3838 358.284 74.3413 358.273 74.3016C358.262 74.2618 358.237 74.2273 358.203 74.2041C358.169 74.1809 358.127 74.1706 358.086 74.1749C358.045 74.1792 358.007 74.1979 357.978 74.2276C357.521 74.8162 356.932 75.2896 356.259 75.6101C355.586 75.9306 354.847 76.0892 354.102 76.0734C354.056 76.0734 354.011 76.0919 353.978 76.1248C353.945 76.1577 353.927 76.2022 353.927 76.2487C353.927 76.2953 353.945 76.3399 353.978 76.3727C354.011 76.4056 354.056 76.4241 354.102 76.4241C354.362 76.4138 354.62 76.3892 354.877 76.3503Z" fill="#263238"/>
<path d="M359.132 66.1984C359.192 66.1892 359.248 66.1671 359.298 66.1338C359.373 66.0786 359.422 65.9962 359.436 65.9045C359.45 65.8129 359.427 65.7194 359.372 65.6447C359.049 65.1893 358.621 64.8177 358.125 64.5608C357.629 64.304 357.079 64.1693 356.52 64.1681C356.475 64.1704 356.43 64.1819 356.389 64.2018C356.348 64.2218 356.311 64.2498 356.281 64.2843C356.251 64.3187 356.228 64.3588 356.213 64.4023C356.199 64.4458 356.194 64.4916 356.197 64.5372C356.2 64.5833 356.211 64.6285 356.231 64.6701C356.251 64.7118 356.279 64.7491 356.313 64.78C356.347 64.8108 356.387 64.8346 356.431 64.85C356.474 64.8654 356.521 64.872 356.567 64.8695C357.008 64.8747 357.442 64.9854 357.832 65.1925C358.223 65.3996 358.557 65.6971 358.809 66.06C358.844 66.1118 358.893 66.1524 358.95 66.177C359.008 66.2016 359.071 66.209 359.132 66.1984Z" fill="#263238"/>
<path d="M347.383 65.9493C347.441 65.9431 347.496 65.923 347.544 65.8909C347.593 65.8588 347.632 65.8155 347.66 65.7647C347.843 65.3633 348.12 65.0114 348.467 64.7385C348.813 64.4656 349.22 64.2795 349.654 64.1958C349.747 64.1848 349.831 64.1373 349.889 64.0637C349.947 63.9901 349.974 63.8966 349.963 63.8036C349.952 63.7106 349.904 63.6257 349.831 63.5677C349.757 63.5098 349.664 63.4834 349.571 63.4944C349.021 63.5918 348.503 63.8205 348.061 64.1612C347.62 64.5019 347.267 64.9444 347.033 65.4509C347.011 65.4919 346.997 65.5368 346.993 65.5831C346.989 65.6294 346.995 65.676 347.01 65.72C347.024 65.7641 347.048 65.8047 347.079 65.8393C347.11 65.874 347.147 65.902 347.189 65.9216C347.25 65.9485 347.317 65.9581 347.383 65.9493Z" fill="#263238"/>
<path d="M378.051 326.258C378.708 326.24 379.36 326.15 379.998 325.991C380.032 325.98 380.063 325.961 380.087 325.935C380.111 325.91 380.128 325.878 380.136 325.843C380.141 325.81 380.137 325.776 380.124 325.745C380.111 325.714 380.09 325.688 380.063 325.668C379.804 325.502 377.469 324.034 376.639 324.45C376.546 324.497 376.468 324.569 376.411 324.656C376.355 324.743 376.322 324.844 376.316 324.948C376.287 325.117 376.302 325.29 376.359 325.451C376.415 325.612 376.511 325.757 376.639 325.871C377.051 326.157 377.55 326.294 378.051 326.258ZM379.5 325.742C378.226 325.991 377.266 325.945 376.869 325.603C376.784 325.525 376.72 325.426 376.685 325.316C376.649 325.206 376.643 325.089 376.666 324.976C376.663 324.932 376.673 324.889 376.695 324.852C376.716 324.814 376.748 324.783 376.786 324.763C377.22 324.542 378.549 325.179 379.5 325.779V325.742Z" fill="#2A8BE9"/>
<path d="M379.952 325.991C379.985 326 380.02 326 380.053 325.991C380.079 325.974 380.1 325.951 380.115 325.923C380.129 325.896 380.137 325.865 380.136 325.834C380.136 325.742 380.044 323.601 379.213 322.899C379.113 322.811 378.996 322.746 378.868 322.708C378.741 322.67 378.607 322.659 378.475 322.678C378.343 322.68 378.216 322.725 378.112 322.807C378.009 322.889 377.935 323.002 377.903 323.13C377.709 323.961 379.121 325.585 379.869 326L379.952 325.991ZM378.586 323.01C378.659 323.009 378.732 323.022 378.8 323.049C378.868 323.076 378.93 323.116 378.983 323.167C379.478 323.838 379.749 324.649 379.758 325.483C379.02 324.902 378.134 323.638 378.244 323.195C378.244 323.148 378.244 323.038 378.512 323.01H378.586Z" fill="#2A8BE9"/>
<path d="M342.603 325.834C342.634 325.822 342.661 325.802 342.682 325.776C342.703 325.75 342.717 325.719 342.723 325.686C342.731 325.652 342.727 325.616 342.712 325.584C342.697 325.553 342.672 325.527 342.64 325.511C342.317 325.326 339.447 323.776 338.515 324.256C338.428 324.303 338.353 324.371 338.297 324.452C338.24 324.534 338.205 324.628 338.192 324.727C338.164 324.881 338.175 325.039 338.221 325.188C338.268 325.338 338.349 325.474 338.459 325.585C339.225 326.314 341.366 326.056 342.575 325.834H342.603ZM338.727 324.542C339.299 324.357 340.868 324.994 342.012 325.576C340.351 325.825 339.142 325.733 338.718 325.326C338.641 325.255 338.584 325.164 338.554 325.064C338.523 324.963 338.519 324.857 338.542 324.754C338.543 324.715 338.554 324.677 338.575 324.644C338.596 324.612 338.627 324.586 338.662 324.57L338.727 324.542Z" fill="#2A8BE9"/>
<path d="M342.603 325.834C342.628 325.816 342.648 325.792 342.662 325.765C342.677 325.738 342.685 325.708 342.686 325.677C342.686 325.594 342.621 323.591 341.763 322.807C341.64 322.693 341.494 322.606 341.335 322.552C341.176 322.498 341.007 322.478 340.84 322.493C340.36 322.493 340.203 322.77 340.157 322.973C339.963 323.804 341.625 325.437 342.492 325.852C342.53 325.857 342.568 325.85 342.603 325.834ZM340.656 322.844H340.831C340.958 322.833 341.086 322.849 341.207 322.89C341.327 322.932 341.438 322.998 341.532 323.084C342.043 323.743 342.331 324.548 342.354 325.382C341.477 324.819 340.36 323.536 340.508 323.038C340.489 323.01 340.545 322.89 340.656 322.844Z" fill="#2A8BE9"/>
<path d="M371.729 91.6333C371.263 91.5727 370.789 91.6249 370.348 91.7855C369.906 91.9461 369.509 92.2104 369.191 92.5562C366.644 95.3248 360.571 103.788 359.316 123.537C358.315 138.453 359.689 153.434 363.386 167.919L379.167 163.434C379.674 163.292 380.113 162.975 380.405 162.538C380.698 162.102 380.825 161.575 380.764 161.053C380.339 157.361 379.426 148.474 379.167 138.534C378.992 131.539 379.518 125.236 379.49 122.375C377.755 118.978 374.636 113.432 375.799 107.387C377.054 100.641 380.764 99.7178 383.293 98.4811C383.62 98.3101 383.894 98.0514 384.083 97.7338C384.272 97.4163 384.369 97.0524 384.364 96.6828C384.358 96.3133 384.25 95.9526 384.051 95.6411C383.852 95.3296 383.57 95.0795 383.237 94.9188C379.584 93.264 375.706 92.1569 371.729 91.6333Z" fill="#2A8BE9"/>
<path d="M349.515 167.891L338.699 164.495C338.293 164.367 337.933 164.125 337.661 163.798C337.39 163.47 337.218 163.072 337.167 162.649C336.244 155.506 332.386 122.716 337.37 98.3705C337.535 97.5486 337.911 96.7839 338.461 96.1512C339.011 95.5186 339.717 95.0399 340.508 94.762C343.621 93.7051 346.844 93.0024 350.115 92.667C350.21 92.6568 350.307 92.6703 350.396 92.7065C350.485 92.7428 350.564 92.8005 350.625 92.8745C350.686 92.9486 350.728 93.0367 350.747 93.1309C350.766 93.2252 350.761 93.3226 350.733 93.4146C348.684 100.936 345.27 142.124 349.515 167.891Z" fill="#2A8BE9"/>
<path d="M335.331 142.789C335.525 146.241 335.774 149.424 336.023 152.221C339.945 152.664 343.96 152.968 347.947 153.144C347.762 150.089 347.633 146.96 347.569 143.813C343.434 143.61 339.318 143.278 335.331 142.789Z" fill="white"/>
<path d="M347.669 126.509C343.285 126.325 338.976 125.983 334.878 125.457C334.878 128.65 334.878 131.788 334.979 134.806C339.049 135.304 343.285 135.627 347.503 135.803C347.512 132.656 347.577 129.536 347.669 126.509Z" fill="white"/>
<path d="M379.306 143.213C373.538 143.776 366.681 144.136 359.464 144.136C359.722 147.523 360.073 150.643 360.47 153.421C367.53 153.421 374.202 153.005 379.924 152.442C379.712 149.627 379.49 146.49 379.306 143.213Z" fill="white"/>
<path d="M379.408 125.512C373.271 126.149 366.294 126.583 359.151 126.675C359.021 129.896 359.003 133.006 359.067 135.969C366.128 135.876 372.994 135.461 379.14 134.843C379.149 131.243 379.306 127.986 379.408 125.512Z" fill="white"/>
<path d="M408.377 173.502L366.45 180.498C366.18 180.548 365.903 180.541 365.637 180.476C365.371 180.411 365.121 180.29 364.905 180.122C364.689 179.954 364.51 179.741 364.382 179.499C364.254 179.257 364.179 178.99 364.161 178.717L362.158 152.728C362.124 152.146 362.304 151.571 362.665 151.112C363.025 150.653 363.541 150.341 364.115 150.237L406.069 143.241C406.339 143.189 406.617 143.196 406.883 143.26C407.15 143.324 407.401 143.445 407.617 143.613C407.834 143.782 408.012 143.995 408.14 144.238C408.268 144.481 408.342 144.748 408.358 145.022L410.361 171.011C410.394 171.597 410.21 172.176 409.844 172.635C409.478 173.095 408.956 173.404 408.377 173.502Z" fill="#2A8BE9"/>
<path opacity="0.4" d="M408.377 173.502L367.42 180.332C367.15 180.384 366.872 180.377 366.605 180.313C366.339 180.249 366.088 180.128 365.872 179.96C365.655 179.791 365.477 179.578 365.349 179.335C365.221 179.092 365.147 178.825 365.131 178.551L363.128 152.562C363.094 151.98 363.274 151.405 363.634 150.946C363.995 150.487 364.511 150.175 365.085 150.07L406.042 143.241C406.312 143.189 406.59 143.196 406.856 143.26C407.123 143.324 407.374 143.445 407.59 143.613C407.807 143.782 407.985 143.995 408.113 144.238C408.241 144.481 408.315 144.748 408.331 145.022L410.334 171.011C410.368 171.593 410.188 172.168 409.828 172.627C409.467 173.086 408.951 173.398 408.377 173.502Z" fill="black"/>
<path d="M383.921 100.041C386.256 105.356 388.323 110.645 390.196 116.108C391.119 118.821 392.042 121.572 392.864 124.34C393.279 125.734 393.676 127.109 394.054 128.549L394.34 129.601L394.635 130.819C394.848 131.65 394.968 132.48 395.115 133.301C395.831 139.547 395.276 145.873 393.482 151.898C392.685 154.767 391.711 157.584 390.566 160.333C389.984 161.699 389.375 163.037 388.72 164.366C388.065 165.695 387.418 166.968 386.625 168.325L381.595 165.935C382.398 163.434 383.21 160.739 383.81 158.109C384.41 155.478 384.991 152.802 385.388 150.172C385.777 147.584 385.987 144.972 386.016 142.355C386.068 139.9 385.836 137.447 385.324 135.046C385.167 134.492 385.065 133.911 384.871 133.385L384.604 132.554L384.262 131.631C383.81 130.339 383.339 129.056 382.832 127.764C381.909 125.171 380.829 122.587 379.814 119.993L373.575 104.489L383.921 100.041Z" fill="#FFB573"/>
<path d="M382.203 95.334C388.857 97.8258 393.149 116.92 393.149 116.92L378.429 127.072C378.429 127.072 373.907 115.767 371.415 106.953C368.729 97.3644 374.156 92.3808 382.203 95.334Z" fill="#2A8BE9"/>
<path opacity="0.5" d="M382.203 95.334C388.857 97.8258 393.149 116.92 393.149 116.92L378.429 127.072C378.429 127.072 373.907 115.767 371.415 106.953C368.729 97.3644 374.156 92.3808 382.203 95.334Z" fill="white"/>
<path d="M380.995 167.098L379.712 172.773L388.581 172.515C388.581 172.515 389.291 165.658 385.812 164.578L383.044 165.104C382.546 165.203 382.087 165.443 381.723 165.797C381.36 166.151 381.107 166.603 380.995 167.098Z" fill="#FFB573"/>
<path d="M382.49 179.861L387.824 178.772C388.137 178.708 388.417 178.532 388.61 178.278C388.804 178.023 388.898 177.707 388.876 177.388L388.581 172.515L379.712 172.773L380.93 178.818C380.999 179.163 381.202 179.466 381.494 179.662C381.787 179.857 382.145 179.929 382.49 179.861Z" fill="#FFB573"/>
<path d="M304.995 55.3732H145.677C145.228 55.3742 144.783 55.4652 144.369 55.6408C143.955 55.8164 143.581 56.073 143.268 56.3955C142.955 56.718 142.709 57.0999 142.546 57.5187C142.383 57.9375 142.305 58.3847 142.318 58.834L148.778 278.25C148.804 279.126 149.171 279.957 149.8 280.567C150.429 281.177 151.27 281.518 152.146 281.517H311.418C311.869 281.517 312.316 281.427 312.731 281.251C313.146 281.076 313.522 280.819 313.837 280.495C314.151 280.171 314.397 279.788 314.56 279.367C314.723 278.947 314.8 278.498 314.787 278.047L308.326 58.6402C308.303 57.7701 307.942 56.9433 307.32 56.3338C306.699 55.7244 305.865 55.38 304.995 55.3732Z" fill="#2A8BE9"/>
<path opacity="0.2" d="M304.995 55.3732H145.677C145.228 55.3742 144.783 55.4652 144.369 55.6408C143.955 55.8164 143.581 56.073 143.268 56.3955C142.955 56.718 142.709 57.0999 142.546 57.5187C142.383 57.9375 142.305 58.3847 142.318 58.834L148.778 278.25C148.804 279.126 149.171 279.957 149.8 280.567C150.429 281.177 151.27 281.518 152.146 281.517H311.418C311.869 281.517 312.316 281.427 312.731 281.251C313.146 281.076 313.522 280.819 313.837 280.495C314.151 280.171 314.397 279.788 314.56 279.367C314.723 278.947 314.8 278.498 314.787 278.047L308.326 58.6402C308.303 57.7701 307.942 56.9433 307.32 56.3338C306.699 55.7244 305.865 55.38 304.995 55.3732Z" fill="black"/>
<path d="M180.664 52.1707H165.713V53.0935H180.664V52.1707Z" fill="#2A8BE9"/>
<path d="M160.378 52.1707H156.585V53.0935H160.378V52.1707Z" fill="#2A8BE9"/>
<path d="M306.527 55.3732H147.218C146.768 55.373 146.322 55.4631 145.908 55.6381C145.493 55.8131 145.117 56.0696 144.803 56.3922C144.489 56.7148 144.243 57.0972 144.079 57.5166C143.916 57.936 143.838 58.3839 143.85 58.834L150.31 278.25C150.339 279.125 150.706 279.955 151.334 280.564C151.963 281.174 152.803 281.515 153.679 281.517H312.96C313.41 281.516 313.855 281.425 314.27 281.249C314.684 281.073 315.059 280.815 315.372 280.492C315.685 280.168 315.93 279.785 316.093 279.365C316.256 278.945 316.332 278.497 316.319 278.047L309.859 58.6402C309.832 57.7709 309.471 56.9453 308.85 56.3364C308.229 55.7275 307.397 55.3823 306.527 55.3732Z" fill="#2A8BE9"/>
<path opacity="0.2" d="M150.679 67.2876L156.659 271.642C156.69 272.522 157.06 273.356 157.691 273.97C158.322 274.584 159.166 274.93 160.046 274.937H304.312C304.74 274.939 305.164 274.854 305.558 274.687C305.952 274.521 306.309 274.276 306.606 273.968C306.904 273.661 307.136 273.296 307.289 272.896C307.442 272.496 307.512 272.07 307.496 271.642L301.516 67.2876C301.485 66.4086 301.115 65.5756 300.483 64.9632C299.852 64.3508 299.008 64.0064 298.129 64.0021H153.863C153.435 63.9993 153.012 64.0832 152.618 64.2486C152.223 64.414 151.867 64.6576 151.569 64.9646C151.272 65.2717 151.039 65.6358 150.886 66.035C150.733 66.4343 150.663 66.8604 150.679 67.2876Z" fill="black"/>
<path d="M151.675 66.2908L157.655 270.645C157.686 271.525 158.056 272.357 158.688 272.97C159.319 273.582 160.163 273.927 161.042 273.931H305.308C305.736 273.934 306.159 273.85 306.553 273.684C306.948 273.519 307.304 273.275 307.602 272.968C307.899 272.661 308.132 272.297 308.285 271.898C308.438 271.499 308.508 271.073 308.492 270.645L302.512 66.2908C302.481 65.4118 302.111 64.5788 301.479 63.9664C300.848 63.3539 300.004 63.0095 299.125 63.0053H154.859C154.432 63.0025 154.008 63.0864 153.614 63.2518C153.219 63.4172 152.863 63.6608 152.565 63.9678C152.268 64.2748 152.035 64.639 151.882 65.0382C151.729 65.4375 151.659 65.8636 151.675 66.2908Z" fill="white"/>
<path d="M196.03 132.111H168.306L167.494 104.378H195.218L196.03 132.111Z" fill="#F5F5F5"/>
<path d="M286.288 115.388H207.898L207.75 110.22H286.14L286.288 115.388Z" fill="#E0E0E0"/>
<path d="M269.556 126.269H208.221L208.064 121.101H269.409L269.556 126.269Z" fill="#E0E0E0"/>
<path d="M197.488 181.845H169.764L168.952 154.122H196.676L197.488 181.845Z" fill="#F5F5F5"/>
<path d="M238.16 165.132H209.357L209.209 159.955H238.003L238.16 165.132Z" fill="#E0E0E0"/>
<path d="M265.431 165.132H244.251L244.094 159.955H265.283L265.431 165.132Z" fill="#E0E0E0"/>
<path d="M278.268 176.013H209.67L209.522 170.835H278.121L278.268 176.013Z" fill="#E0E0E0"/>
<path d="M198.946 231.589H171.222L170.41 203.856H198.134L198.946 231.589Z" fill="#F5F5F5"/>
<path d="M289.37 220.57H210.98L211.128 225.747H289.518L289.37 220.57Z" fill="#E0E0E0"/>
<path d="M272.001 209.698H210.657L210.814 214.866H272.149L272.001 209.698Z" fill="#E0E0E0"/>
<path d="M183.543 124.903C183.426 125.068 183.27 125.201 183.088 125.289C182.906 125.378 182.705 125.42 182.503 125.411C182.301 125.401 182.105 125.342 181.932 125.237C181.759 125.132 181.615 124.986 181.513 124.811C179.667 121.858 176.271 119.163 174.296 117.825C174.039 117.654 173.856 117.394 173.783 117.095C173.709 116.795 173.751 116.479 173.899 116.21C173.982 116.067 174.093 115.944 174.226 115.847C174.359 115.751 174.511 115.683 174.671 115.648C174.832 115.613 174.998 115.612 175.159 115.645C175.32 115.679 175.473 115.745 175.607 115.84C177.793 117.308 179.798 119.031 181.578 120.972C181.689 121.109 181.83 121.219 181.99 121.295C182.149 121.371 182.324 121.41 182.501 121.41C182.677 121.41 182.852 121.371 183.011 121.295C183.171 121.219 183.312 121.109 183.424 120.972C187.566 116.057 192.292 111.665 197.498 107.894C197.757 107.704 198.082 107.625 198.4 107.673C198.718 107.722 199.004 107.894 199.196 108.153C199.293 108.277 199.365 108.42 199.407 108.573C199.449 108.725 199.461 108.884 199.441 109.041C199.421 109.198 199.371 109.35 199.292 109.487C199.214 109.625 199.109 109.745 198.983 109.842C191.896 115.204 186.857 120.141 183.59 124.903H183.543Z" fill="#2A8BE9"/>
<path d="M185.001 174.647C184.882 174.809 184.724 174.939 184.542 175.026C184.36 175.112 184.16 175.152 183.959 175.142C183.757 175.132 183.562 175.072 183.389 174.968C183.217 174.864 183.073 174.719 182.971 174.545C181.171 171.592 177.729 168.897 175.744 167.568C175.489 167.397 175.308 167.135 175.236 166.836C175.164 166.537 175.207 166.222 175.357 165.953C175.442 165.813 175.555 165.691 175.689 165.596C175.824 165.501 175.976 165.434 176.137 165.4C176.298 165.367 176.464 165.366 176.625 165.4C176.786 165.433 176.939 165.499 177.073 165.593C179.259 167.055 181.261 168.775 183.035 170.715C183.148 170.851 183.289 170.96 183.448 171.035C183.608 171.11 183.782 171.148 183.958 171.148C184.134 171.148 184.308 171.11 184.468 171.035C184.627 170.96 184.768 170.851 184.881 170.715C189.012 165.806 193.726 161.417 198.918 157.647C199.046 157.552 199.192 157.483 199.347 157.444C199.502 157.406 199.663 157.398 199.821 157.422C199.979 157.446 200.131 157.502 200.267 157.584C200.404 157.667 200.522 157.777 200.616 157.906C200.81 158.157 200.897 158.475 200.857 158.789C200.817 159.104 200.654 159.39 200.404 159.585C193.316 164.956 188.277 169.894 185.01 174.656L185.001 174.647Z" fill="#2A8BE9"/>
<path d="M186.422 224.492C186.303 224.654 186.145 224.784 185.964 224.871C185.782 224.957 185.581 224.997 185.38 224.987C185.179 224.977 184.983 224.917 184.811 224.813C184.638 224.709 184.495 224.564 184.392 224.39C182.546 221.437 179.15 218.742 177.175 217.413C176.92 217.242 176.738 216.981 176.665 216.683C176.591 216.384 176.632 216.069 176.778 215.798C176.861 215.656 176.972 215.533 177.105 215.436C177.238 215.339 177.39 215.271 177.55 215.237C177.711 215.202 177.877 215.201 178.038 215.234C178.199 215.267 178.352 215.334 178.486 215.429C180.67 216.896 182.674 218.615 184.457 220.551C184.569 220.687 184.71 220.796 184.87 220.871C185.029 220.946 185.203 220.984 185.38 220.984C185.556 220.984 185.73 220.946 185.889 220.871C186.049 220.796 186.19 220.687 186.302 220.551C190.428 215.639 195.139 211.251 200.33 207.483C200.458 207.388 200.604 207.319 200.759 207.28C200.914 207.242 201.075 207.234 201.233 207.258C201.391 207.282 201.543 207.338 201.679 207.42C201.816 207.503 201.934 207.613 202.028 207.742C202.127 207.865 202.199 208.007 202.242 208.159C202.285 208.311 202.297 208.47 202.277 208.626C202.257 208.783 202.206 208.934 202.127 209.07C202.048 209.207 201.942 209.326 201.816 209.421C194.738 214.792 189.689 219.73 186.422 224.492Z" fill="#2A8BE9"/>
<path d="M250.48 261.518C247.384 261.546 244.375 260.503 241.961 258.565C240.042 257.236 238.27 255.99 234.643 255.99C232.018 255.941 229.467 256.858 227.472 258.565C225.146 260.511 222.199 261.559 219.166 261.518C216.068 261.548 213.055 260.504 210.639 258.565C208.719 257.236 206.947 255.99 203.32 255.99C200.698 255.939 198.148 256.856 196.158 258.565C193.831 260.509 190.885 261.556 187.852 261.518C184.757 261.546 181.748 260.503 179.334 258.565C177.415 257.236 175.643 255.99 172.016 255.99L171.951 253.913C175.049 253.884 178.062 254.927 180.479 256.867C182.537 258.563 185.13 259.475 187.797 259.441C190.42 259.492 192.969 258.575 194.959 256.867C197.298 254.911 200.262 253.862 203.311 253.913C206.406 253.885 209.416 254.929 211.829 256.867C213.749 258.196 215.521 259.441 219.148 259.441C221.77 259.492 224.319 258.575 226.309 256.867C228.65 254.914 231.613 253.866 234.661 253.913C237.759 253.884 240.772 254.927 243.189 256.867C245.108 258.196 246.88 259.441 250.507 259.441L250.48 261.518Z" fill="#EBEBEB"/>
<path d="M264.213 61.7226H264.037C261.906 54.9578 256.793 50.4726 251.209 50.4726H239.839C238.959 50.4396 238.111 50.1342 237.412 49.5987C236.712 49.0631 236.197 48.3236 235.936 47.4825C234.413 43.1726 230.675 40.0994 226.384 40.0994C222.092 40.0994 218.521 43.1726 217.219 47.4825C217.002 48.319 216.52 49.0627 215.844 49.6018C215.169 50.1409 214.336 50.4464 213.473 50.4726H202.112C196.528 50.4726 191.646 54.9578 189.874 61.7226H189.708C189.384 61.7446 189.067 61.8313 188.777 61.9777C188.486 62.124 188.228 62.327 188.017 62.5747C187.806 62.8224 187.647 63.1098 187.55 63.42C187.452 63.7301 187.417 64.0567 187.447 64.3805C187.431 65.0455 187.671 65.6912 188.118 66.1842C188.564 66.6772 189.183 66.9797 189.847 67.0292H264.37C264.694 67.0083 265.011 66.9227 265.302 66.7775C265.593 66.6322 265.852 66.4302 266.063 66.1834C266.275 65.9366 266.435 65.6499 266.534 65.3403C266.633 65.0306 266.669 64.7043 266.64 64.3805C266.658 63.7095 266.415 63.0576 265.963 62.5619C265.51 62.0662 264.883 61.7653 264.213 61.7226Z" fill="#263238"/>
<path d="M179.704 84.5825L180.193 84.9055L180.655 85.1177L180.147 86.216C179.859 86.0803 179.581 85.9229 179.316 85.7453C179.119 85.6166 178.928 85.478 178.744 85.33C178.232 85.5381 177.682 85.6356 177.129 85.6161C176.292 85.6622 175.469 85.392 174.822 84.8593C174.478 84.5422 174.205 84.1547 174.024 83.7232C173.842 83.2917 173.756 82.8262 173.77 82.3583C173.707 81.9215 173.745 81.476 173.88 81.0559C174.016 80.6359 174.245 80.2523 174.551 79.9345C174.858 79.6167 175.232 79.373 175.647 79.2221C176.062 79.0711 176.506 79.0169 176.945 79.0636C177.389 79.0354 177.834 79.095 178.256 79.2391C178.677 79.3833 179.066 79.609 179.399 79.9034C179.946 80.5472 180.271 81.3499 180.326 82.1926C180.38 83.0353 180.162 83.8733 179.704 84.5825ZM178.181 83.5765C178.35 83.181 178.417 82.7494 178.375 82.3214C178.4 81.8344 178.26 81.3533 177.978 80.9555C177.853 80.8175 177.698 80.7088 177.526 80.637C177.354 80.5653 177.168 80.5322 176.981 80.5402C176.805 80.5345 176.63 80.5698 176.47 80.6435C176.31 80.7172 176.169 80.8272 176.059 80.9648C175.789 81.3451 175.674 81.8133 175.736 82.2753C175.701 82.792 175.841 83.3054 176.132 83.7334C176.254 83.871 176.405 83.9797 176.575 84.0515C176.744 84.1234 176.927 84.1566 177.111 84.1487C177.236 84.1633 177.363 84.1633 177.489 84.1487C177.255 83.9498 176.986 83.7965 176.695 83.6965L176.981 82.9951C177.121 83.0123 177.258 83.0496 177.388 83.1059C177.589 83.2172 177.783 83.3404 177.969 83.475L178.181 83.5765Z" fill="#263238"/>
<path d="M185.416 79.1649H187.345L187.456 82.9488C187.478 83.2971 187.441 83.6467 187.345 83.9824C187.247 84.3124 187.07 84.6134 186.828 84.8592C186.612 85.0896 186.347 85.2692 186.053 85.3852C185.614 85.5361 185.152 85.6079 184.687 85.5975C184.351 85.5969 184.015 85.5753 183.681 85.5329C183.361 85.501 183.049 85.4136 182.758 85.2744C182.498 85.1347 182.264 84.9504 182.066 84.7299C181.877 84.5167 181.729 84.2693 181.633 84.0009C181.509 83.6565 181.438 83.2957 181.42 82.9303L181.31 79.1465H183.266L183.377 83.0134C183.372 83.1629 183.397 83.312 183.451 83.4516C183.504 83.5912 183.586 83.7184 183.691 83.8255C183.798 83.9264 183.924 84.0046 184.062 84.0553C184.2 84.1061 184.347 84.1284 184.494 84.1208C184.638 84.1286 184.782 84.1063 184.917 84.0555C185.052 84.0046 185.175 83.9263 185.278 83.8255C185.448 83.6082 185.527 83.3339 185.499 83.0595L185.416 79.1649Z" fill="#263238"/>
<path d="M192.421 84.4625H190.197L189.92 85.5054H187.917L190.113 79.1652H192.245L194.82 85.5054H192.762L192.421 84.4625ZM191.959 83.0597L191.193 80.7802L190.575 83.0597H191.959Z" fill="#263238"/>
<path d="M195.254 79.1652H197.21L197.349 83.9457H200.413L200.459 85.5054H195.438L195.254 79.1652Z" fill="#263238"/>
<path d="M201.234 79.1652H203.2L203.385 85.5054H201.419L201.234 79.1652Z" fill="#263238"/>
<path d="M204.16 79.1652H210.113L210.159 80.7341H208.165L208.304 85.5054H206.347L206.2 80.7341H204.206L204.16 79.1652Z" fill="#263238"/>
<path d="M210.362 79.1652H212.54L213.878 81.3063L215.097 79.1652H217.256L214.903 82.8567L214.977 85.5054H213.011L212.937 82.8567L210.362 79.1652Z" fill="#263238"/>
<path d="M224.888 84.4625H222.664L222.387 85.5054H220.394L222.59 79.1652H224.722L227.288 85.5054H225.239L224.888 84.4625ZM224.445 83.0597L223.679 80.7802L223.051 83.0597H224.445Z" fill="#263238"/>
<path d="M227.51 83.4105L229.356 83.2905C229.383 83.539 229.472 83.7768 229.614 83.9826C229.725 84.1169 229.867 84.2223 230.028 84.2898C230.188 84.3573 230.363 84.3849 230.537 84.3703C230.769 84.3895 231 84.3202 231.183 84.1765C231.25 84.1197 231.304 84.049 231.34 83.9693C231.377 83.8896 231.396 83.8028 231.395 83.715C231.39 83.6292 231.366 83.5455 231.326 83.4692C231.287 83.3929 231.232 83.3257 231.164 83.272C230.855 83.0813 230.509 82.9586 230.149 82.9121C229.482 82.8011 228.85 82.5357 228.303 82.1369C227.996 81.8822 227.792 81.5238 227.731 81.1293C227.67 80.7349 227.755 80.3316 227.971 79.9958C228.168 79.6855 228.459 79.4462 228.802 79.3128C229.296 79.1249 229.824 79.0401 230.352 79.0637C230.999 79.0248 231.642 79.1824 232.198 79.5159C232.425 79.6841 232.614 79.8986 232.753 80.1451C232.891 80.3917 232.976 80.6647 233.001 80.9464L231.155 81.0571C231.124 80.8193 231.009 80.6002 230.832 80.4388C230.642 80.3024 230.411 80.2341 230.177 80.245C229.994 80.2307 229.811 80.2795 229.66 80.3834C229.608 80.4249 229.566 80.4784 229.539 80.5395C229.511 80.6006 229.499 80.6673 229.503 80.7341C229.505 80.7885 229.519 80.8419 229.544 80.89C229.57 80.938 229.606 80.9794 229.651 81.0109C229.853 81.1341 230.08 81.2128 230.315 81.2417C230.951 81.3562 231.57 81.5452 232.161 81.8046C232.498 81.9565 232.786 82.1995 232.992 82.506C233.164 82.7837 233.26 83.1022 233.269 83.4289C233.281 83.8232 233.175 84.2121 232.964 84.5456C232.747 84.8981 232.424 85.1728 232.041 85.3301C231.557 85.5224 231.039 85.6134 230.518 85.5977C229.713 85.6793 228.906 85.4554 228.257 84.9701C227.834 84.5533 227.569 84.0016 227.51 83.4105Z" fill="#263238"/>
<path d="M233.905 83.4104L235.751 83.2904C235.781 83.5398 235.873 83.7778 236.019 83.9826C236.125 84.1103 236.26 84.2117 236.412 84.279C236.564 84.3462 236.729 84.3774 236.895 84.3702C237.128 84.3894 237.358 84.3202 237.541 84.1764C237.608 84.1197 237.662 84.0489 237.699 83.9692C237.735 83.8895 237.754 83.8027 237.754 83.7149C237.748 83.6291 237.725 83.5454 237.685 83.4691C237.645 83.3928 237.59 83.3257 237.523 83.2719C237.214 83.0812 236.868 82.9585 236.508 82.912C235.84 82.8027 235.208 82.5371 234.662 82.1368C234.479 81.9907 234.331 81.8055 234.229 81.5947C234.126 81.3839 234.073 81.1528 234.071 80.9186C234.061 80.593 234.147 80.2716 234.321 79.9957C234.523 79.6868 234.817 79.4483 235.16 79.3128C235.655 79.1248 236.182 79.04 236.711 79.0636C237.357 79.0264 238 79.1839 238.557 79.5158C238.784 79.684 238.973 79.8985 239.111 80.145C239.25 80.3916 239.334 80.6647 239.36 80.9463L237.514 81.057C237.483 80.8169 237.365 80.5966 237.182 80.4387C236.992 80.2996 236.761 80.231 236.526 80.2449C236.346 80.232 236.167 80.2808 236.019 80.3833C235.967 80.4258 235.925 80.4793 235.896 80.5399C235.867 80.6006 235.852 80.6669 235.853 80.734C235.858 80.7885 235.875 80.8412 235.902 80.8888C235.929 80.9365 235.966 80.978 236.009 81.0109C236.212 81.1341 236.439 81.2127 236.674 81.2416C237.309 81.3561 237.929 81.5451 238.52 81.8045C238.855 81.9589 239.142 82.2013 239.35 82.5059C239.523 82.7836 239.618 83.1021 239.627 83.4288C239.639 83.8231 239.533 84.2121 239.323 84.5455C239.107 84.8989 238.783 85.1738 238.4 85.33C237.919 85.5223 237.404 85.6134 236.886 85.5976C236.08 85.6793 235.273 85.4553 234.625 84.97C234.212 84.5492 233.957 83.9979 233.905 83.4104Z" fill="#263238"/>
<path d="M244.638 79.1652H246.595L246.705 82.949C246.718 83.3057 246.668 83.6618 246.558 84.0011C246.46 84.3311 246.282 84.6321 246.041 84.8779C245.825 85.1083 245.56 85.2879 245.266 85.4039C244.826 85.554 244.364 85.6259 243.9 85.6162C243.564 85.6159 243.228 85.5943 242.894 85.5516C242.574 85.5197 242.261 85.4323 241.971 85.2932C241.71 85.1534 241.476 84.9691 241.279 84.7487C241.095 84.5222 240.957 84.262 240.873 83.9827C240.749 83.6383 240.678 83.2775 240.661 82.9121L240.55 79.1283H242.497L242.617 82.9952C242.607 83.2955 242.717 83.5876 242.922 83.8073C243.031 83.9076 243.159 83.9853 243.298 84.036C243.438 84.0867 243.586 84.1093 243.734 84.1027C243.878 84.1104 244.022 84.0881 244.157 84.0373C244.292 83.9864 244.415 83.9081 244.518 83.8073C244.617 83.6981 244.69 83.5692 244.735 83.4291C244.78 83.2891 244.794 83.1411 244.777 82.9952L244.638 79.1652Z" fill="#263238"/>
<path d="M248.099 85.5054L247.914 79.1652H251.181C251.651 79.1498 252.12 79.2026 252.575 79.3221C252.894 79.4275 253.172 79.631 253.368 79.9035C253.575 80.2054 253.688 80.562 253.691 80.9279C253.711 81.2485 253.641 81.5682 253.488 81.8508C253.346 82.1058 253.139 82.319 252.888 82.4691C252.676 82.5893 252.445 82.6735 252.205 82.7183C252.389 82.7682 252.563 82.846 252.722 82.9491C252.954 83.1664 253.159 83.4113 253.331 83.6781L254.337 85.5239H252.122L251.024 83.5858C250.931 83.4024 250.806 83.2368 250.655 83.0967C250.509 83.0024 250.34 82.9513 250.166 82.9491H249.991L250.074 85.5239L248.099 85.5054ZM249.944 81.7401H250.766C250.941 81.7275 251.114 81.6965 251.283 81.6478C251.407 81.6224 251.518 81.5537 251.596 81.454C251.67 81.3451 251.709 81.2163 251.707 81.0848C251.709 80.9955 251.691 80.9069 251.654 80.8255C251.617 80.7441 251.563 80.6719 251.495 80.6142C251.276 80.4807 251.02 80.4223 250.766 80.448H249.898L249.944 81.7401Z" fill="#263238"/>
<path d="M258.832 84.4625H256.608L256.331 85.5054H254.328L256.525 79.1652H258.656L261.231 85.5054H259.173L258.832 84.4625ZM258.407 83.0597L257.641 80.7802L257.023 83.0597H258.407Z" fill="#263238"/>
<path d="M261.675 79.1652H263.521L266.003 82.6721L265.902 79.1652H267.747L267.932 85.5054H266.086L263.613 82.0261L263.714 85.5054H261.869L261.675 79.1652Z" fill="#263238"/>
<path d="M273.368 82.912L275.103 83.4288C275.022 83.8636 274.849 84.276 274.595 84.6378C274.355 84.9562 274.037 85.2073 273.672 85.3669C273.231 85.548 272.756 85.6329 272.279 85.616C271.697 85.6368 271.118 85.5329 270.581 85.3115C270.123 85.0702 269.743 84.7057 269.482 84.2594C269.128 83.6754 268.943 83.0044 268.947 82.3213C268.906 81.8875 268.953 81.4499 269.084 81.0345C269.216 80.6191 269.43 80.2344 269.713 79.9034C270.025 79.6095 270.394 79.3832 270.797 79.2386C271.201 79.0941 271.63 79.0345 272.057 79.0635C272.725 79.0269 273.388 79.1943 273.958 79.5435C274.458 79.9164 274.829 80.4358 275.02 81.0293L273.303 81.4169C273.252 81.268 273.184 81.1256 273.1 80.9924C272.989 80.8488 272.847 80.7321 272.685 80.6509C272.519 80.566 272.336 80.5217 272.149 80.5217C271.949 80.5143 271.751 80.56 271.574 80.654C271.398 80.748 271.249 80.887 271.143 81.057C270.949 81.445 270.869 81.8803 270.913 82.3121C270.876 82.8181 271.002 83.3225 271.273 83.7518C271.386 83.8838 271.528 83.9881 271.688 84.0569C271.848 84.1257 272.022 84.1571 272.196 84.1486C272.351 84.1596 272.506 84.1364 272.651 84.0806C272.797 84.0247 272.928 83.9377 273.035 83.8256C273.226 83.5563 273.341 83.2408 273.368 82.912Z" fill="#263238"/>
<path d="M275.942 79.1652H281.194V80.5218H277.908V81.5277H280.954V82.8198H277.908V84.0749H281.295V85.5054H275.952L275.942 79.1652Z" fill="#263238"/>
<path d="M116.052 158.949C116.052 158.949 113.431 216.38 112.933 239.637C112.406 263.835 112.176 320.334 112.176 320.334H106.075C106.075 320.334 96.3298 273.377 99.2184 239.637C94.8532 213.731 91.9092 158.949 91.9092 158.949H116.052Z" fill="#FF8B7B"/>
<path d="M107.977 158.949C107.977 158.949 93.4324 219.093 87.489 241.584C81.2134 265.2 72.7782 318.58 72.7228 320.334H67.4439C67.4439 320.334 65.7827 258.666 74.144 237.698C74.144 211.424 85.071 158.949 85.071 158.949H107.977Z" fill="#FF8B7B"/>
<path d="M67.315 317.131C66.309 318.276 65.4692 324.201 67.0196 326.84C68.5701 329.48 67.0196 333.383 72.0955 333.383C77.1714 333.383 77.6328 332.276 76.3869 329.913C75.141 327.551 73.6183 323.112 73.6736 320.334C73.729 316.753 75.1041 314.907 67.315 317.131Z" fill="#263238"/>
<path d="M66.6869 323.305C66.5762 326.351 66.6408 331.325 66.6408 331.325H67.4437C67.4437 331.325 68.0436 325.88 68.5512 323.859L66.6869 323.305Z" fill="#263238"/>
<path d="M121.248 122.208C121.903 126.897 122.485 131.585 123.02 136.283C123.555 140.98 124.081 145.687 124.589 150.43C124.709 151.602 124.801 152.839 125.004 153.817C125.087 154.325 125.189 154.851 125.309 155.414C125.429 155.977 125.521 156.512 125.659 157.057C126.158 159.253 126.795 161.459 127.505 163.665C128.216 165.87 128.899 168.076 129.711 170.263C130.523 172.45 131.335 174.665 132.184 176.797L128.779 178.643C126.118 174.529 123.791 170.209 121.82 165.723C120.827 163.462 119.953 161.152 119.199 158.801C118.996 158.22 118.83 157.601 118.655 157.001C118.479 156.401 118.304 155.792 118.156 155.156C117.867 153.953 117.639 152.736 117.473 151.51C116.735 146.803 116.04 142.091 115.388 137.372C114.705 132.656 114.077 127.94 113.542 123.205L121.248 122.208Z" fill="#FF8B7B"/>
<path d="M119.91 115.361C121.848 118.988 122.854 133.302 124.478 143.13C124.53 143.478 124.461 143.832 124.281 144.134C124.1 144.435 123.821 144.664 123.49 144.782C121.325 145.644 119.321 146.867 117.565 148.4C117.368 148.569 117.129 148.684 116.873 148.732C116.617 148.781 116.353 148.762 116.107 148.677C115.861 148.592 115.641 148.444 115.47 148.248C115.298 148.053 115.181 147.815 115.129 147.56L110.515 126.232L112.517 122.19C113.012 120.489 113.96 118.954 115.261 117.751C116.562 116.547 118.166 115.721 119.9 115.361H119.91Z" fill="#263238"/>
<path d="M132.037 176.022L138.755 179.797L131.492 182.565C131.492 182.565 127.801 179.381 128.456 176.281L132.037 176.022Z" fill="#FF8B7B"/>
<path d="M141.219 185.722L135.018 187.669L131.492 182.519L138.755 179.797L141.219 185.722Z" fill="#FF8B7B"/>
<path d="M129.074 184.079L200.192 175.69L200.275 176.364L129.277 185.694L129.074 184.079Z" fill="#263238"/>
<path d="M120.593 118.019C120.713 123.556 120.371 139.171 116.486 163.074H84.102C84.628 150.43 86.2061 138.433 80.1797 112.592C84.3183 111.749 88.5134 111.213 92.7309 110.986C97.4164 110.654 102.12 110.654 106.805 110.986C109.832 111.263 113.062 111.752 115.535 112.177C116.924 112.415 118.187 113.128 119.109 114.193C120.031 115.258 120.556 116.61 120.593 118.019Z" fill="#263238"/>
<path opacity="0.2" d="M103.981 163.185C103.952 163.178 103.926 163.162 103.907 163.138C103.889 163.115 103.879 163.085 103.88 163.055C106.833 135.581 104.24 124.626 104.212 124.516C104.206 124.486 104.212 124.456 104.227 124.43C104.242 124.405 104.267 124.386 104.295 124.377C104.31 124.372 104.325 124.369 104.341 124.37C104.357 124.372 104.372 124.377 104.385 124.385C104.398 124.393 104.41 124.404 104.418 124.417C104.427 124.43 104.432 124.445 104.434 124.46C104.434 124.571 107.064 135.535 104.111 163.083C104.11 163.099 104.105 163.114 104.098 163.127C104.091 163.141 104.081 163.153 104.069 163.163C104.056 163.172 104.042 163.179 104.027 163.183C104.012 163.187 103.997 163.187 103.981 163.185Z" fill="white"/>
<path d="M106.804 110.959H92.7305C92.7305 110.959 97.5664 119.08 103.98 123.362C106.369 119.696 107.37 115.298 106.804 110.959Z" fill="#E0E0E0"/>
<path d="M98.8218 90.9597C101.987 96.3032 100.723 102.902 95.9977 105.726C91.2726 108.55 84.9231 106.446 81.7207 101.111C78.5183 95.7772 79.8196 89.1139 84.5447 86.3453C89.2699 83.5766 95.6563 85.607 98.8218 90.9597Z" fill="#263238"/>
<path d="M78.9436 96.8015C78.7708 93.8454 79.6831 90.928 81.5092 88.597C82.3358 87.4999 83.3936 86.5981 84.6076 85.9553C85.8216 85.3126 87.1621 84.9448 88.5342 84.8778C89.9062 84.8109 91.2761 85.0465 92.5469 85.5681C93.8177 86.0896 94.9583 86.8842 95.8878 87.8956C97.9386 90.0464 99.1332 92.8721 99.2471 95.8417H98.7856C98.6771 92.9831 97.5284 90.2624 95.5555 88.191C94.6722 87.2254 93.5867 86.4666 92.3765 85.9686C91.1662 85.4707 89.861 85.2459 88.5539 85.3102C87.2468 85.3745 85.97 85.7265 84.8145 86.3409C83.6591 86.9553 82.6533 87.817 81.8691 88.8647C80.0977 91.1072 79.208 93.9205 79.3681 96.7738L78.9436 96.8015Z" fill="#263238"/>
<path d="M115.229 99.4454C117.739 94.2617 115.78 88.1253 110.853 85.7394C105.927 83.3534 99.8976 85.6214 97.3872 90.8051C94.8768 95.9888 96.8358 102.125 101.763 104.511C106.689 106.897 112.718 104.629 115.229 99.4454Z" fill="#263238"/>
<path d="M94.1338 95.1218C95.0567 99.644 95.9057 107.941 92.7402 110.959C92.7402 110.959 95.1859 115.748 102.421 117.419C106.916 114.65 106.814 110.959 106.814 110.959C101.766 109.75 101.895 106.012 102.772 102.496L94.1338 95.1218Z" fill="#FF8B7B"/>
<path d="M99.4584 116.487L93.1551 109.057L90.9771 110.211L90.6172 120.953L95.287 114.825L99.4584 116.487Z" fill="white"/>
<path d="M103.731 116.487L105.78 109.805L108.355 110.959L111.179 120.003L106.971 114.826L103.731 116.487Z" fill="white"/>
<path opacity="0.2" d="M97.6499 98.1305L102.763 102.487C102.543 103.305 102.398 104.142 102.329 104.988C100.4 104.711 97.7145 102.588 97.5484 100.567C97.4272 99.7557 97.4617 98.9288 97.6499 98.1305Z" fill="black"/>
<path d="M89.3536 86.8159C91.1255 94.199 91.7254 97.3275 96.1552 100.484C102.828 105.227 111.475 101.407 111.937 93.6914C112.352 86.7236 109.38 75.8612 101.573 74.1908C99.8529 73.8143 98.0656 73.8837 96.3803 74.3924C94.695 74.901 93.1677 75.832 91.9435 77.097C90.7192 78.3619 89.8386 79.9188 89.3853 81.6198C88.9321 83.3208 88.9211 85.1094 89.3536 86.8159Z" fill="#FF8B7B"/>
<path d="M91.0328 90.2121C95.6472 87.4435 95.0381 79.1375 95.0381 79.1375C103.021 79.036 106.113 79.1375 108.54 79.479C110.967 79.8204 109.463 76.5719 105.91 73.9416C102.357 71.3114 92.7217 72.0959 89.7223 77.1256C86.0307 78.6022 82.5053 86.982 91.0328 90.2121Z" fill="#263238"/>
<path d="M84.7666 83.0597C84.7666 83.0597 110.746 77.5224 116.209 75.9443C116.209 72.6865 102.846 76.7195 102.846 76.7195L84.7666 83.0597Z" fill="#2A8BE9"/>
<path d="M110.192 75.7503C109.694 73.9046 105.864 64.6295 92.6574 68.4318C80.4937 71.9849 84.7667 83.0596 84.7667 83.0596L110.192 75.7503Z" fill="#2A8BE9"/>
<path d="M101.258 68.1368L96.6347 66.9832L91.3281 67.9245L91.3927 68.8566L94.872 69.4196L101.258 68.1368Z" fill="#2A8BE9"/>
<path opacity="0.4" d="M101.185 77.4394C101.068 77.4397 100.956 77.3962 100.871 77.3175C100.785 77.2388 100.733 77.1307 100.723 77.0148C100.723 76.7287 100.142 70.1762 91.9005 68.9119C91.7804 68.8914 91.6728 68.8252 91.6005 68.7271C91.5283 68.629 91.4968 68.5067 91.5129 68.3858C91.5354 68.2667 91.6022 68.1606 91.6998 68.0887C91.7973 68.0168 91.9185 67.9845 92.0389 67.9982C101.028 69.3826 101.637 76.8764 101.646 76.9502C101.65 77.0109 101.642 77.0716 101.622 77.129C101.602 77.1865 101.571 77.2394 101.531 77.2848C101.491 77.3303 101.442 77.3673 101.387 77.3938C101.332 77.4204 101.273 77.4358 101.212 77.4394H101.185Z" fill="black"/>
<path opacity="0.2" d="M113.108 232.696L97.6778 228.931C97.2533 225.655 96.8657 222.166 96.4873 218.576L113.468 221.548C113.33 225.535 113.21 229.309 113.108 232.696Z" fill="black"/>
<path opacity="0.2" d="M75.7864 214.968L93.4504 218.05C92.6475 221.271 91.863 224.381 91.1247 227.334L74.9004 223.338C75.1496 220.653 75.4449 217.801 75.7864 214.968Z" fill="black"/>
<path d="M102.375 86.899C102.477 87.5081 102.892 87.9418 103.298 87.868C103.704 87.7942 103.935 87.2497 103.824 86.6406C103.714 86.0314 103.307 85.6069 102.901 85.7177C102.495 85.8284 102.265 86.2899 102.375 86.899Z" fill="#263238"/>
<path d="M109.223 85.6899C109.325 86.2898 109.74 86.7236 110.146 86.659C110.552 86.5944 110.783 86.0406 110.672 85.4315C110.561 84.8224 110.155 84.3887 109.749 84.5087C109.343 84.6286 109.112 85.0808 109.223 85.6899Z" fill="#263238"/>
<path d="M109.573 84.5271L110.958 83.8534C110.958 83.8534 110.413 85.1177 109.573 84.5271Z" fill="#263238"/>
<path d="M107.599 87.0468C108.381 88.3347 109.338 89.5086 110.441 90.5353C110.171 90.8097 109.845 91.022 109.485 91.1575C109.125 91.293 108.739 91.3483 108.355 91.3197L107.599 87.0468Z" fill="#FF5652"/>
<path d="M104.728 94.1345C105.075 94.1346 105.421 94.1037 105.762 94.0422C105.785 94.0388 105.807 94.0309 105.827 94.0188C105.847 94.0067 105.865 93.9907 105.879 93.9718C105.892 93.9529 105.902 93.9314 105.907 93.9086C105.913 93.8858 105.913 93.8622 105.91 93.8392C105.901 93.7916 105.873 93.7496 105.834 93.7219C105.794 93.6943 105.745 93.6834 105.697 93.6915C104.947 93.8397 104.172 93.8101 103.434 93.6049C102.697 93.3998 102.018 93.0249 101.452 92.5102C101.42 92.4759 101.376 92.4557 101.329 92.454C101.283 92.4522 101.237 92.4692 101.203 92.501C101.169 92.5328 101.148 92.5769 101.147 92.6237C101.145 92.6704 101.162 92.7159 101.194 92.7502C102.145 93.6573 103.414 94.1544 104.728 94.1345Z" fill="#263238"/>
<path d="M88.3285 91.0151C88.613 91.6877 89.0278 92.2973 89.5489 92.8089C90.07 93.3205 90.6871 93.724 91.3648 93.9961C93.2105 94.7159 94.2811 93.1562 93.9581 91.3474C93.6628 89.7231 92.38 87.379 90.488 87.4251C90.0704 87.4355 89.6622 87.5512 89.3012 87.7613C88.9401 87.9714 88.6379 88.2693 88.4226 88.6272C88.2073 88.9852 88.0858 89.3917 88.0693 89.8091C88.0529 90.2265 88.142 90.6413 88.3285 91.0151Z" fill="#FF8B7B"/>
<path d="M99.357 84.1395C99.4058 84.1346 99.453 84.1198 99.4959 84.096C99.5387 84.0721 99.5762 84.0398 99.6062 84.001C99.8803 83.6397 100.235 83.3473 100.642 83.147C101.049 82.9468 101.497 82.8442 101.95 82.8474C101.998 82.8525 102.045 82.8482 102.091 82.8347C102.137 82.8212 102.179 82.7987 102.216 82.7687C102.253 82.7387 102.284 82.7016 102.306 82.6597C102.329 82.6177 102.343 82.5718 102.347 82.5244C102.355 82.4279 102.324 82.3322 102.262 82.258C102.2 82.1838 102.111 82.1369 102.015 82.1276C101.442 82.1134 100.873 82.2357 100.357 82.4845C99.8399 82.7332 99.3897 83.1011 99.0432 83.558C98.9852 83.6335 98.9587 83.7284 98.969 83.8229C98.9793 83.9175 99.0257 84.0044 99.0986 84.0656C99.1731 84.1203 99.2648 84.1464 99.357 84.1395Z" fill="#263238"/>
<path d="M110.497 81.8969C110.585 81.8677 110.658 81.8046 110.7 81.7216C110.722 81.6787 110.735 81.6318 110.739 81.5838C110.742 81.5357 110.736 81.4875 110.72 81.4419C110.705 81.3963 110.68 81.3542 110.648 81.3182C110.616 81.2823 110.577 81.2531 110.534 81.2324C110.025 80.9694 109.46 80.8322 108.887 80.8322C108.313 80.8322 107.748 80.9694 107.239 81.2324C107.157 81.2823 107.097 81.3623 107.073 81.4554C107.049 81.5484 107.062 81.6473 107.11 81.7308C107.134 81.7724 107.166 81.8088 107.204 81.838C107.242 81.8671 107.286 81.8883 107.332 81.9003C107.378 81.9123 107.427 81.915 107.474 81.908C107.522 81.9011 107.567 81.8848 107.608 81.86C108.012 81.6512 108.46 81.5423 108.914 81.5423C109.369 81.5423 109.816 81.6512 110.22 81.86C110.261 81.8865 110.306 81.9035 110.354 81.9099C110.402 81.9163 110.451 81.9119 110.497 81.8969Z" fill="#263238"/>
<path d="M102.727 85.7361L104.111 85.0624C104.111 85.0624 103.566 86.3267 102.727 85.7361Z" fill="#263238"/>
<path d="M116.486 163.074L115.157 227.335L73.7288 221.428C72.0676 187.826 77.8818 170.189 84.1021 163.074H116.486Z" fill="#263238"/>
<path opacity="0.2" d="M105.615 200.672L95.749 188.804V179.437L105.615 200.672Z" fill="black"/>
<path d="M84.2403 120.898C83.0036 124.59 81.8131 128.447 80.6872 132.222C79.5613 135.997 78.5645 139.845 77.7616 143.638C77.3832 145.484 77.0141 147.422 76.8387 149.258V149.609V149.775C76.8183 149.905 76.8409 150.038 76.9033 150.154C77.1742 150.729 77.5498 151.248 78.0108 151.686C79.2592 152.928 80.6429 154.027 82.1361 154.962C83.7235 155.977 85.4677 156.955 87.1474 157.832L85.9661 161.524C83.8559 161.12 81.7841 160.537 79.7735 159.779C77.625 158.999 75.5965 157.921 73.7471 156.577C72.6301 155.744 71.6707 154.719 70.9138 153.55C70.4406 152.795 70.1003 151.965 69.9079 151.095C69.804 150.613 69.7515 150.121 69.751 149.628V149.074V148.659C69.8156 147.57 69.9079 146.481 70.0371 145.428C70.1663 144.376 70.3232 143.324 70.4801 142.281C71.1771 138.186 72.0827 134.13 73.1933 130.127C73.7163 128.134 74.2916 126.155 74.9191 124.193C75.5375 122.227 76.1558 120.298 76.8849 118.305L84.2403 120.898Z" fill="#FF8B7B"/>
<path d="M108.217 146.434L103.233 142.752L91.8169 159.835L78.8135 175.745L83.8063 179.437L95.2132 162.345L108.217 146.434Z" fill="#FAFAFA"/>
<path d="M103.225 142.752C104.349 144.582 106.138 145.905 108.217 146.443C107.093 144.614 105.304 143.291 103.225 142.752Z" fill="#E6E6E6"/>
<path d="M78.8135 175.745C79.9379 177.575 81.7274 178.898 83.8063 179.437C82.6818 177.607 80.8924 176.284 78.8135 175.745Z" fill="#E6E6E6"/>
<path d="M86.2979 157.555L94.5208 158.1L89.1403 163.683C89.1403 163.683 84.4152 162.41 83.6953 159.327L86.2979 157.555Z" fill="#FF8B7B"/>
<path d="M97.1885 162.428L94.872 165.695C94.669 165.979 94.3687 166.178 94.0283 166.254C93.6879 166.331 93.3313 166.28 93.0263 166.11L87.9873 163.286L94.5398 158.109L97.0408 160.582C97.2803 160.822 97.4265 161.14 97.4536 161.478C97.4806 161.816 97.3867 162.153 97.1885 162.428Z" fill="#FF8B7B"/>
<path d="M86.8526 119.403C86.2712 115.831 83.604 113.727 80.1801 112.564C75.1412 116.21 72.6771 128.253 69.89 142.3C69.8175 142.707 69.8836 143.126 70.0777 143.491C70.2717 143.855 70.5826 144.144 70.9605 144.312C73.1662 145.234 75.0489 146.157 76.3133 146.748C76.5333 146.859 76.774 146.923 77.0201 146.937C77.2663 146.95 77.5125 146.912 77.7433 146.826C77.974 146.739 78.1843 146.605 78.3607 146.433C78.5371 146.261 78.6758 146.054 78.7681 145.825L87.7755 123.473L86.8526 119.403Z" fill="#263238"/>
<path d="M123.777 331.879C122.841 331.197 121.8 330.674 120.695 330.328C120.695 330.328 115.231 327.237 112.389 317.962L106.076 316.384C105.919 316.345 105.756 316.339 105.596 316.368C105.437 316.397 105.286 316.459 105.152 316.551C105.019 316.642 104.906 316.761 104.822 316.899C104.738 317.038 104.684 317.192 104.664 317.353C104.6 317.851 104.563 318.423 104.498 318.885C104.438 319.89 104.438 320.897 104.498 321.902C104.553 325.031 104.904 332.054 104.904 332.054H105.642C105.642 329.916 105.772 327.781 106.03 325.659C106.39 323.591 107.876 326.037 108.67 328.372C109.463 330.707 112.776 333.208 117.548 333.319C123.131 333.485 125.401 333.236 123.777 331.879Z" fill="#263238"/>
</svg>
