<?xml version="1.0" encoding="utf-8"?>
<!-- Generator: Adobe Illustrator 16.0.0, SVG Export Plug-In . SVG Version: 6.00 Build 0)  -->
<!DOCTYPE svg PUBLIC "-//W3C//DTD SVG 1.1//EN" "http://www.w3.org/Graphics/SVG/1.1/DTD/svg11.dtd">
<svg version="1.1" id="Layer_1" xmlns="http://www.w3.org/2000/svg" xmlns:xlink="http://www.w3.org/1999/xlink" x="0px" y="0px"
	 width="512px" height="512px" viewBox="0 0 512 512" enable-background="new 0 0 512 512" xml:space="preserve">
<g transform="translate(0.000000,512.000000) scale(0.100000,-0.100000)">
	<path fill="#0C4072" d="M381.299,5043.579c-43.052-41.548-39.551-73.589,15.522-133.164l45.552-52.065l-32.041-34.541
		c-64.575-68.589-72.085-115.64-27.529-161.201c33.042-33.042,88.608-23.027,142.173,25.532l49.565,43.052l42.051-43.052
		c72.09-73.589,164.702-51.064,164.702,39.551c0,26.533-12.515,50.562-44.053,81.099l-43.555,42.05l43.555,49.565
		c63.579,69.585,57.07,149.683-13.018,167.705c-36.543,8.511-73.589-6.509-123.154-53.564l-34.038-31.538l-52.065,45.552
		C454.888,5083.129,423.35,5087.133,381.299,5043.579z"/>
	<path fill="#0C4072" d="M3679.385,4972.49c-62.07-25.029-107.129-68.584-138.174-135.664
		c-116.143-251.816,190.244-480.097,400.498-299.873c139.18,118.145,113.145,335.415-47.061,420.522
		C3835.586,4988.012,3736.455,4995.522,3679.385,4972.49z M3808.545,4807.285c37.051-20.024,47.061-35.542,47.061-77.095
		c0-44.556-40.049-86.606-82.1-86.606c-78.096,0-111.143,103.13-50.068,151.187
		C3763.496,4825.308,3770.498,4826.309,3808.545,4807.285z"/>
	<path fill="#0C4072" d="M1839.604,4770.742c-58.569-24.028-72.085-105.63-25.532-150.186
		c60.078-55.571,148.687-16.523,148.687,66.079C1962.759,4750.215,1899.179,4793.618,1839.604,4770.742z"/>
	<path fill="#0C4072" d="M459.419,4236.733c-146.65-40.356-264.146-137.451-331.592-273.862L90,3885.186V2439.121v-1445
		l29.619-65.439c58.789-124.619,165.068-224.775,290.762-275.898c49.038-19.414,138.457-23.516,822.148-28.623l765.918-6.113
		l-60.801-214.58l-60.801-213.623l-476.24-6.123l-476.704-7.178l-25.063-30.645c-33.726-39.844-30.625-73.564,8.203-111.387
		l31.172-32.715h1663.72c1858.858,0,1721.934-8.125,1721.934,89.951c0,86.865,10.225,83.789-518.155,91.973l-473.154,6.123
		l-62.334,213.623c-33.721,118.506-62.334,215.586-62.334,218.682c0,1.006,313.721,2.012,697.988,2.012
		c598.848,0,708.223,3.096,768.467,20.43c140.01,41.914,251.386,136.982,320.927,277.988l34.727,71.543v1445v1446.064
		l-37.832,77.686c-68.447,138.97-199.237,243.73-347.44,278.97C4556.855,4261.255,534.526,4257.192,459.419,4236.733z
		 M4707.061,4027.769c38.828-24.551,77.656-63.384,102.178-102.217l38.837-63.848l4.092-1223.809l3.105-1222.749H2560H265.273
		v1205.889c0,1312.178-4.097,1244.722,71.001,1343.35c16.86,23.511,62.344,57.236,100.176,75.107l66.904,33.726l2069.956-2.554
		l2070.41-4.067L4707.061,4027.769z M4852.167,1132.119c-4.092-100.166-9.208-122.686-42.929-178.916
		c-24.521-38.828-63.35-77.656-102.178-102.178l-63.34-38.828H2560H476.279l-63.35,38.828
		c-38.828,24.521-77.656,63.35-102.72,102.178c-33.726,56.23-38.828,78.75-42.383,178.916l-5.63,114.395H2560h2297.275
		L4852.167,1132.119z M3032.138,602.725c52.139-179.834,111.377-394.482,111.377-404.697s-163.506-14.307-543.691-14.307h-543.135
		l39.37,132.822c20.415,72.627,49.038,171.709,63.35,220.752l26.064,86.865h419.458
		C2994.316,624.16,3024.961,623.155,3032.138,602.725z"/>
	<path fill="#0C4072" d="M3548.222,3891.826c-155.322-32.676-274.912-181.387-273.906-343.862
		c0-91.978,19.414-152.803,68.467-217.695l36.816-48.022h-186.016c-155.322,0-195.176-5.122-241.182-24.536
		c-162.441-75.107-164.541-312.69-1.016-398.042c24.521-12.769,85.85-18.379,217.656-18.379h181.934V2680.83v-160.957
		l-149.209-343.369c-124.678-285.107-149.209-354.58-149.209-407.734c0-108.34,77.656-195.205,186.025-207.451
		c73.564-8.184,136.914,13.242,181.855,60.283c21.504,20.41,73.623,124.678,118.574,227.871
		c67.451,158.408,83.77,187.031,95.059,167.617c6.113-14.316,41.846-97.07,78.672-186.035
		c37.813-87.861,76.641-173.721,87.871-191.064c34.727-53.135,114.463-85.84,195.225-79.736
		c113.389,10.205,184.942,80.762,195.147,194.219c5.117,65.371-4.092,89.893-151.221,431.24l-158.408,359.727l4.102,145.596
		l3.037,144.106l197.227,6.147c216.66,8.164,239.16,14.312,299.414,103.73c61.348,89.414,25.596,240.137-70.469,299.927
		c-45.01,28.115-69.531,30.669-248.36,37.3l-198.242,6.631l32.705,43.955c107.285,145.127,92.969,343.882-33.721,464.478
		C3786.299,3874.966,3655.508,3912.285,3548.222,3891.826z M3693.33,3704.829c49.043-20.454,95.059-77.676,98.076-124.18
		c8.184-83.276-0.996-107.808-50.059-156.87c-43.926-44.438-57.217-50.586-111.367-50.586c-79.746,0-129.795,31.172-163.516,101.172
		c-32.725,64.897-26.611,123.145,16.318,177.324C3533.906,3716.587,3615.674,3737.515,3693.33,3704.829z M4229.824,3085.015
		c20.42-20.444,19.414-29.653-5.098-54.175c-16.338-16.865-57.246-20.928-241.192-20.928c-189.043,0-225.85-3.589-246.27-22.002
		c-20.43-17.871-23.516-45.449-23.516-260.591v-238.091l141.006-327.041c182.939-420,174.795-391.387,149.219-415.908
		c-43.955-42.92-45.967-37.822-185.967,291.221c-65.43,153.311-127.773,288.213-138.994,300.508
		c-28.623,32.646-84.854,30.635-116.484-5.176c-14.307-16.328-76.65-151.23-139.004-301.436
		c-62.344-149.209-120.586-280.01-129.795-289.209c-18.398-19.414-54.141-9.209-64.355,18.389
		c-4.102,10.225,62.354,179.854,147.129,375.088l156.387,358.672v231.978c0,304.526,19.434,283.599-267.773,283.599
		c-209.463,0-264.688,9.17-264.688,42.896c0,46.519,21.494,48.037,622.354,48.037
		C4065.293,3100.845,4218.604,3096.777,4229.824,3085.015z"/>
	<path fill="#0C4072" d="M746.074,3616.924c-108.823-18.374-205.898-101.172-246.279-208.96
		c-26.064-68.501-16.865-178.872,20.425-256.533c66.44-130.801,361.758-391.392,446.074-391.392
		c42.925,0,180.376,94.517,294.306,203.35l80.762,76.655l102.173-98.618c110.376-108.838,155.859-124.648,202.344-74.092
		c11.758,13.291,48.037,112.92,79.209,221.753c31.172,108.862,58.247,198.286,60.796,200.84
		c2.554,2.549,21.973-31.172,42.935-73.599c20.42-44.448,49.038-86.86,63.35-97.588c18.403-12.793,68.989-17.896,181.387-17.896
		c187.026,0,214.102,11.758,214.102,90.957c0,75.107-31.172,90.444-174.736,90.444h-118.037l-76.65,156.885
		c-79.209,160.933-106.279,193.145-158.413,193.145c-54.146,0-75.107-42.422-146.113-290.259l-68.994-242.69l-55.693,54.658
		c-50.586,49.067-53.14,57.236-42.93,94.541c33.726,113.955-49.038,277.461-171.177,339.78
		c-77.656,38.848-188.032,43.97-263.135,12.798c-38.833-15.352-54.15-16.865-76.655-5.103
		C892.729,3619.478,809.424,3628.687,746.074,3616.924z M896.289,3413.066c44.478-34.771,89.419-33.726,153.305,5.61
		c28.618,17.866,62.339,32.178,75.107,32.178c46.489,0,110.376-41.387,130.796-84.297c38.828-80.234,35.278-84.312-102.178-84.312
		c-114.468,0-127.236-2.573-155.854-32.197c-65.903-64.893-24.521-137.446,84.311-149.204l67.451-6.621l-85.327-70
		c-101.172-81.763-101.172-81.763-220.752,24.517c-138.457,122.104-199.253,214.072-183.936,276.411
		c10.215,40.381,57.236,98.628,90.962,113.979C789.004,3455.986,856.455,3443.193,896.289,3413.066z"/>
	<path fill="#0C4072" d="M550.381,2543.379c-31.172-31.65-33.726-73.574-5.103-114.473c17.866-26.543,28.096-28.623,199.253-28.623
		c171.177,0,181.924,2.08,199.79,28.623c28.623,40.898,26.069,82.822-5.103,114.473c-23.511,23.003-42.93,25.562-194.688,25.562
		C593.306,2568.94,573.374,2566.382,550.381,2543.379z"/>
	<path fill="#0C4072" d="M1081.777,2543.379c-31.172-31.65-33.726-73.574-5.103-114.473l19.414-28.623H1670.4
		c539.595,0,575.869,2.08,595.283,23.516c28.623,32.715,27.075,97.07-1.543,123.672c-21.968,18.911-81.221,21.47-589.639,21.47
		C1124.702,2568.94,1106.294,2567.896,1081.777,2543.379z"/>
	<path fill="#0C4072" d="M557.031,2277.676c-40.376-38.828-41.924-84.854-3.091-120.586c27.612-26.553,44.478-28.623,192.134-28.623
		c152.764,0,164.521,0.996,190.591,29.619c38.828,41.934,36.279,91.982-5.103,124.697c-31.172,24.512-52.139,26.602-189.585,26.602
		C595.859,2309.385,586.66,2308.32,557.031,2277.676z"/>
	<path fill="#0C4072" d="M1090.981,2283.789c-43.945-34.736-46.494-87.871-5.112-126.699
		c29.634-28.623,33.726-28.623,587.085-28.623c619.805,0,614.702-0.996,614.702,82.764c0,23.516-7.661,53.145-17.876,67.441
		c-18.398,23.525-41.919,24.531-580.972,28.623C1132.363,2311.396,1124.702,2309.385,1090.981,2283.789z"/>
	<path fill="#0C4072" d="M550.381,2011.982c-31.172-31.719-33.726-74.648-5.103-114.482c17.866-27.617,28.096-28.613,199.253-28.613
		c171.177,0,181.924,0.996,199.79,28.613c28.623,39.834,26.069,82.764-5.103,114.482c-23.511,23.516-42.93,25.518-194.688,25.518
		C593.306,2037.5,573.374,2035.498,550.381,2011.982z"/>
	<path fill="#0C4072" d="M1081.777,2011.982c-31.172-31.719-33.726-74.648-5.103-114.482l19.414-28.613H1670.4
		c539.595,0,575.869,0.996,595.283,23.506c28.623,32.725,27.075,97.07-1.543,123.643c-21.968,19.463-81.221,21.465-589.639,21.465
		C1124.702,2037.5,1106.294,2036.504,1081.777,2011.982z"/>
	<path fill="#0C4072" d="M2535.483,1139.229c-18.413-8.193-43.931-34.727-57.241-58.242c-21.968-37.832-23.516-51.123-10.21-95.058
		c31.172-105.283,151.206-131.807,225.864-50.049c50.039,56.24,48.037,118.515-9.209,175.742
		C2636.66,1159.648,2590.625,1167.852,2535.483,1139.229z"/>
</g>
</svg>
