<svg width="771" height="569" viewBox="0 0 771 569" fill="none" xmlns="http://www.w3.org/2000/svg">
<path d="M693.239 530.139H642.205V530.524H693.239V530.139Z" fill="#EBEBEB"/>
<path d="M510.369 534.331H496.979V534.716H510.369V534.331Z" fill="#EBEBEB"/>
<path d="M640.665 515.84H611.096V516.225H640.665V515.84Z" fill="#EBEBEB"/>
<path d="M147.384 518.428H80.834V518.814H147.384V518.428Z" fill="#EBEBEB"/>
<path d="M170.869 518.428H161.115V518.814H170.869V518.428Z" fill="#EBEBEB"/>
<path d="M346.929 524.931H202.58V525.316H346.929V524.931Z" fill="#EBEBEB"/>
<path d="M367.345 436.623H69.8023C67.4688 436.623 65.2309 435.697 63.5809 434.046C61.9309 432.396 61.0039 430.159 61.0039 427.825V9.58537C61.0242 7.26526 61.9602 5.0471 63.608 3.41371C65.2558 1.78031 67.4821 0.863925 69.8023 0.864014H367.345C368.501 0.864014 369.645 1.09159 370.712 1.53375C371.78 1.97591 372.75 2.624 373.567 3.441C374.384 4.25801 375.032 5.22794 375.474 6.29541C375.916 7.36288 376.144 8.50699 376.144 9.66241V427.825C376.144 428.98 375.916 430.125 375.474 431.192C375.032 432.26 374.384 433.229 373.567 434.046C372.75 434.863 371.78 435.512 370.712 435.954C369.645 436.396 368.501 436.623 367.345 436.623ZM69.8023 1.17219C67.5722 1.17626 65.4347 2.06396 63.8578 3.64085C62.2809 5.21774 61.3932 7.3553 61.3891 9.58537V427.825C61.3932 430.055 62.2809 432.193 63.8578 433.77C65.4347 435.346 67.5722 436.234 69.8023 436.238H367.345C369.575 436.234 371.713 435.346 373.29 433.77C374.867 432.193 375.754 430.055 375.758 427.825V9.58537C375.754 7.3553 374.867 5.21774 373.29 3.64085C371.713 2.06396 369.575 1.17626 367.345 1.17219H69.8023Z" fill="#EBEBEB"/>
<path d="M700.636 436.623H403.093C400.76 436.623 398.522 435.697 396.872 434.046C395.222 432.396 394.295 430.159 394.295 427.825V9.58537C394.315 7.26526 395.251 5.0471 396.899 3.41371C398.547 1.78031 400.773 0.863925 403.093 0.864014H700.636C702.97 0.864014 705.208 1.79099 706.858 3.441C708.508 5.09102 709.435 7.32893 709.435 9.66241V427.825C709.435 430.159 708.508 432.396 706.858 434.046C705.208 435.697 702.97 436.623 700.636 436.623ZM403.093 1.17219C400.863 1.17626 398.726 2.06396 397.149 3.64085C395.572 5.21774 394.684 7.3553 394.68 9.58537V427.825C394.684 430.055 395.572 432.193 397.149 433.77C398.726 435.346 400.863 436.234 403.093 436.238H700.636C702.866 436.234 705.004 435.346 706.581 433.77C708.158 432.193 709.045 430.055 709.049 427.825V9.58537C709.045 7.3553 708.158 5.21774 706.581 3.64085C705.004 2.06396 702.866 1.17626 700.636 1.17219H403.093Z" fill="#EBEBEB"/>
<path d="M770.438 505.346H0V505.732H770.438V505.346Z" fill="#EBEBEB"/>
<path d="M455.606 496.317H581.156V379.334H455.606V496.317Z" fill="#E6E6E6"/>
<path d="M561.186 505.608H577.211V500.015H561.186V505.608Z" fill="#E0E0E0"/>
<path d="M200.683 495.192L455.621 495.192V379.334H200.683V495.192Z" fill="#E6E6E6"/>
<path d="M158.094 505.608H197.232L197.232 370.72H158.094V505.608Z" fill="#E6E6E6"/>
<path d="M332.659 489.784H443.186V388.564H332.659V489.784Z" fill="#F5F5F5"/>
<path d="M458.688 489.784H569.215V388.564H458.688V489.784Z" fill="#F5F5F5"/>
<path d="M205.43 489.784H315.957V388.564H205.43V489.784Z" fill="#F5F5F5"/>
<path d="M197.047 370.674V505.562H205.583V502.357H577.181V505.562H585.733V370.674H197.047ZM577.181 431.754H459.751V383.355H577.181V431.754ZM459.751 489.784V439.012H577.181V489.784H459.751ZM332.659 383.355H451.199V489.784H332.659V383.355ZM205.583 439.012H324.123V489.784H205.583V439.012ZM205.583 383.355H324.123V431.801H205.583V383.355Z" fill="#F0F0F0"/>
<path d="M504.698 401.938H523.188C523.661 401.94 524.129 401.849 524.567 401.669C525.004 401.49 525.402 401.226 525.737 400.892C526.072 400.559 526.338 400.162 526.519 399.726C526.7 399.289 526.794 398.821 526.794 398.348C526.794 397.875 526.7 397.407 526.519 396.971C526.338 396.534 526.072 396.138 525.737 395.804C525.402 395.47 525.004 395.206 524.567 395.027C524.129 394.847 523.661 394.756 523.188 394.758H504.698C503.745 394.758 502.832 395.136 502.159 395.809C501.486 396.483 501.107 397.396 501.107 398.348C501.107 399.3 501.486 400.213 502.159 400.887C502.832 401.56 503.745 401.938 504.698 401.938Z" fill="#E6E6E6"/>
<path d="M348.561 446.516V428.025C348.561 427.073 348.183 426.16 347.51 425.487C346.836 424.813 345.923 424.435 344.971 424.435C344.498 424.433 344.03 424.524 343.592 424.704C343.155 424.883 342.757 425.148 342.422 425.481C342.087 425.815 341.821 426.211 341.64 426.648C341.459 427.084 341.365 427.553 341.365 428.025V446.516C341.365 446.989 341.459 447.457 341.64 447.893C341.821 448.33 342.087 448.726 342.422 449.06C342.757 449.393 343.155 449.658 343.592 449.837C344.03 450.017 344.498 450.108 344.971 450.106C345.923 450.106 346.836 449.728 347.51 449.054C348.183 448.381 348.561 447.468 348.561 446.516Z" fill="#E6E6E6"/>
<path d="M504.698 453.881H523.188C523.661 453.883 524.129 453.792 524.567 453.612C525.004 453.433 525.402 453.169 525.737 452.835C526.072 452.501 526.338 452.105 526.519 451.668C526.7 451.232 526.794 450.764 526.794 450.291C526.794 449.335 526.414 448.418 525.738 447.741C525.062 447.065 524.144 446.685 523.188 446.685H504.698C504.225 446.685 503.757 446.779 503.32 446.96C502.884 447.141 502.487 447.407 502.154 447.742C501.82 448.077 501.556 448.475 501.376 448.912C501.197 449.35 501.105 449.818 501.107 450.291C501.107 451.243 501.486 452.156 502.159 452.83C502.832 453.503 503.746 453.881 504.698 453.881Z" fill="#E6E6E6"/>
<path d="M251.455 401.938H269.946C270.898 401.938 271.811 401.56 272.485 400.887C273.158 400.213 273.536 399.3 273.536 398.348C273.536 397.396 273.158 396.483 272.485 395.809C271.811 395.136 270.898 394.758 269.946 394.758H251.455C250.503 394.758 249.59 395.136 248.917 395.809C248.243 396.483 247.865 397.396 247.865 398.348C247.865 399.3 248.243 400.213 248.917 400.887C249.59 401.56 250.503 401.938 251.455 401.938Z" fill="#E6E6E6"/>
<path d="M251.456 453.881H269.946C270.898 453.881 271.811 453.503 272.485 452.83C273.158 452.156 273.536 451.243 273.536 450.291C273.538 449.818 273.447 449.35 273.267 448.912C273.088 448.475 272.824 448.077 272.49 447.742C272.157 447.407 271.76 447.141 271.324 446.96C270.887 446.779 270.419 446.685 269.946 446.685H251.456C250.983 446.685 250.515 446.779 250.078 446.96C249.641 447.141 249.245 447.407 248.911 447.742C248.578 448.077 248.314 448.475 248.134 448.912C247.955 449.35 247.863 449.818 247.865 450.291C247.865 451.243 248.244 452.156 248.917 452.83C249.59 453.503 250.503 453.881 251.456 453.881Z" fill="#E6E6E6"/>
<path d="M109.31 502.943H145.859L145.859 161.269H109.31L109.31 502.943Z" fill="#E0E0E0"/>
<path d="M80.834 158.28V505.932H109.294V158.28H80.834Z" fill="#E6E6E6"/>
<path d="M144.488 158.28V505.932H172.964V158.28H144.488Z" fill="#E6E6E6"/>
<path d="M105.889 158.28V505.932H177.786V158.28H105.889ZM171.037 164.274V226.602H112.715V164.274H171.037ZM112.715 363.278V300.934H171.037V363.278H112.715ZM170.96 369.272V431.616H112.715V369.272H170.96ZM112.715 294.94V232.612H171.037V294.94H112.715ZM112.715 499.876V437.61H171.037V499.938L112.715 499.876Z" fill="#F5F5F5"/>
<path d="M141.437 178.804H132.947V227.172H141.437V178.804Z" fill="#EBEBEB"/>
<path d="M132.947 178.804H126.383V227.172H132.947V178.804Z" fill="#E6E6E6"/>
<path d="M154.564 179.96H141.436V227.188H154.564V179.96Z" fill="#E0E0E0"/>
<path d="M161.129 179.96H154.564V227.188H161.129V179.96Z" fill="#EBEBEB"/>
<path d="M121.99 179.96H113.238V227.188H121.99V179.96Z" fill="#EBEBEB"/>
<path d="M126.382 179.96H122.006V227.188H126.382V179.96Z" fill="#FAFAFA"/>
<path d="M132.945 294.925H141.436V246.557H132.945V294.925Z" fill="#E6E6E6"/>
<path d="M141.438 294.925H148.002V246.557H141.438V294.925Z" fill="#EBEBEB"/>
<path d="M119.819 294.909H132.947V247.681H119.819V294.909Z" fill="#EBEBEB"/>
<path d="M113.254 294.909H119.818V247.681H113.254V294.909Z" fill="#E0E0E0"/>
<path d="M152.392 294.909H161.145V247.681H152.392V294.909Z" fill="#EBEBEB"/>
<path d="M148.001 294.909H152.377V247.681H148.001V294.909Z" fill="#F0F0F0"/>
<path d="M132.945 363.848H141.436V315.48H132.945V363.848Z" fill="#E6E6E6"/>
<path d="M141.438 363.848H148.002V315.48H141.438V363.848Z" fill="#EBEBEB"/>
<path d="M119.819 363.848H132.947V316.62H119.819V363.848Z" fill="#EBEBEB"/>
<path d="M113.254 363.848H119.818V316.62H113.254V363.848Z" fill="#E0E0E0"/>
<path d="M152.392 363.848H161.145V316.62H152.392V363.848Z" fill="#EBEBEB"/>
<path d="M148.001 363.848H152.377V316.62H148.001V363.848Z" fill="#F0F0F0"/>
<path d="M141.437 384.419H132.947V432.787H141.437V384.419Z" fill="#EBEBEB"/>
<path d="M132.947 384.419H126.383V432.787H132.947V384.419Z" fill="#E6E6E6"/>
<path d="M154.564 384.419H141.436V431.646H154.564V384.419Z" fill="#E0E0E0"/>
<path d="M161.129 384.419H154.564V431.646H161.129V384.419Z" fill="#EBEBEB"/>
<path d="M121.99 384.419H113.238V431.646H121.99V384.419Z" fill="#EBEBEB"/>
<path d="M126.382 384.419H122.006V431.646H126.382V384.419Z" fill="#FAFAFA"/>
<path d="M132.945 501.71H141.436V453.342H132.945V501.71Z" fill="#E6E6E6"/>
<path d="M141.438 501.71H148.002V453.342H141.438V501.71Z" fill="#EBEBEB"/>
<path d="M119.819 500.57H132.947V453.342H119.819V500.57Z" fill="#EBEBEB"/>
<path d="M113.254 500.57H119.818V453.342H113.254V500.57Z" fill="#E0E0E0"/>
<path d="M152.392 500.57H161.145V453.342H152.392V500.57Z" fill="#FAFAFA"/>
<path d="M148.001 500.57H152.377V453.342H148.001V500.57Z" fill="#F0F0F0"/>
<path d="M630.033 433.696C629.879 433.865 630.711 435.006 627.352 434.513C619.109 433.264 604.717 429.89 600.726 421.431C595.009 409.304 612.729 413.726 612.113 407.563C611.497 401.399 591.342 402.432 589.2 393.34C587.058 384.249 600.741 388.579 600.911 384.095C601.08 379.611 585.333 382.416 582.205 372.616C579.077 362.816 590.988 370.027 589.632 365.944C588.276 361.86 574.932 343.416 582.174 341.29C589.416 339.163 601.651 358.085 606.366 360.766C611.081 363.447 615.272 347.992 620.896 354.51C626.52 361.028 617.599 383.864 624.764 388.302C630.111 391.599 628.6 382.508 635.642 384.203C645.227 386.514 642.006 420.306 630.033 433.696Z" fill="#EBEBEB"/>
<path d="M604.547 384.172C606.979 384.341 609.379 384.833 611.681 385.636C610.166 383.333 608.471 381.153 606.612 379.118C606.498 379 606.434 378.843 606.434 378.679C606.434 378.515 606.498 378.358 606.612 378.24C606.727 378.127 606.882 378.064 607.043 378.064C607.204 378.064 607.359 378.127 607.475 378.24C611.467 382.711 614.884 387.665 617.644 392.986C619.07 382.983 617.678 372.78 613.623 363.524C613.576 363.415 613.574 363.292 613.616 363.181C613.658 363.07 613.741 362.979 613.848 362.927C613.955 362.876 614.078 362.867 614.191 362.904C614.304 362.941 614.398 363.019 614.455 363.124C614.455 363.278 621.512 377.87 618.338 394.28C619.185 395.898 620.033 397.609 620.88 399.458C623.834 406.07 626.17 412.94 627.86 419.982C630.903 414.222 632.569 407.835 632.73 401.322C632.73 401.262 632.742 401.203 632.765 401.147C632.788 401.092 632.823 401.042 632.866 401.001C632.909 400.959 632.96 400.926 633.016 400.905C633.072 400.883 633.132 400.873 633.192 400.875C633.252 400.875 633.311 400.887 633.366 400.911C633.422 400.934 633.472 400.968 633.513 401.012C633.555 401.055 633.588 401.106 633.609 401.162C633.631 401.218 633.641 401.278 633.639 401.337C633.498 408.335 631.618 415.187 628.169 421.276C631.288 435.098 632.327 449.307 631.25 463.435C631.235 463.597 631.157 463.747 631.034 463.853C630.91 463.959 630.75 464.014 630.588 464.005H630.511C630.365 463.975 630.236 463.893 630.148 463.773C630.059 463.654 630.019 463.506 630.033 463.358C631.478 445.433 629.324 427.401 623.7 410.321C621.185 407.398 617.741 405.428 613.946 404.743C613.826 404.724 613.718 404.658 613.646 404.56C613.574 404.462 613.543 404.339 613.561 404.219C613.57 404.16 613.591 404.103 613.623 404.052C613.655 404.002 613.696 403.958 613.745 403.923C613.794 403.889 613.849 403.864 613.907 403.852C613.966 403.839 614.026 403.838 614.085 403.849C617.424 404.417 620.521 405.955 622.991 408.271C620.344 400.825 616.843 393.71 612.56 387.069C609.979 385.981 607.234 385.335 604.439 385.158C604.368 385.152 604.299 385.13 604.238 385.094C604.176 385.058 604.124 385.009 604.084 384.95C604.044 384.891 604.018 384.823 604.007 384.753C603.997 384.682 604.002 384.61 604.023 384.542C604.032 384.483 604.053 384.426 604.085 384.376C604.116 384.325 604.158 384.281 604.207 384.246C604.256 384.212 604.311 384.187 604.369 384.175C604.428 384.162 604.488 384.161 604.547 384.172Z" fill="#F5F5F5"/>
<path d="M640.62 438.38C647.477 438.503 659.187 432.139 663.733 425.945C668.279 419.751 655.274 423.557 656.614 418.611C657.955 413.664 674.149 417.316 677.139 410.244C680.128 403.171 668.448 404.804 668.91 401.183C669.373 397.562 681.484 398.302 685.367 390.782C689.25 383.263 678.602 387.47 680.282 384.357C681.962 381.244 695.29 368.116 689.712 365.389C684.134 362.661 671.607 376.314 667.416 377.839C663.225 379.364 662.254 369.934 656.799 374.449C651.344 378.964 655.428 398.687 649.002 401.291C644.226 403.233 646.259 394.188 640.759 396.468C631.19 400.459 637.831 438.318 640.62 438.38Z" fill="#E0E0E0"/>
<g opacity="0.3">
<path d="M640.62 438.38C647.477 438.503 659.187 432.139 663.733 425.945C668.279 419.751 655.274 423.557 656.614 418.611C657.955 413.664 674.149 417.316 677.139 410.244C680.128 403.171 668.448 404.804 668.91 401.183C669.373 397.562 681.484 398.302 685.367 390.782C689.25 383.263 678.602 387.469 680.282 384.357C681.962 381.244 695.29 368.116 689.712 365.389C684.134 362.661 671.607 376.314 667.416 377.839C663.225 379.364 662.254 369.934 656.799 374.449C651.344 378.964 655.428 398.687 649.002 401.291C644.226 403.233 646.259 394.188 640.759 396.468C631.19 400.459 637.831 438.318 640.62 438.38Z" fill="#EBEBEB"/>
</g>
<path d="M642.884 430.136C642.83 430.125 642.78 430.1 642.737 430.066C642.694 430.031 642.66 429.986 642.637 429.936C640.005 424.188 638.942 417.846 639.555 411.554C639.559 411.493 639.575 411.433 639.602 411.379C639.629 411.324 639.667 411.275 639.712 411.235C639.758 411.195 639.811 411.165 639.869 411.145C639.927 411.126 639.988 411.118 640.049 411.122C640.17 411.134 640.282 411.191 640.362 411.283C640.442 411.375 640.484 411.493 640.48 411.615C639.954 417.584 640.906 423.591 643.254 429.104C646.086 421.444 649.581 414.045 653.701 406.993C653.166 397.591 655.394 388.239 660.111 380.089C660.183 380.005 660.284 379.95 660.394 379.934C660.504 379.919 660.615 379.943 660.709 380.003C660.802 380.062 660.871 380.154 660.903 380.26C660.934 380.367 660.927 380.481 660.881 380.582C656.514 388.173 654.318 396.819 654.533 405.575C659.464 397.114 665.347 389.245 672.068 382.123C672.183 382.01 672.338 381.947 672.499 381.947C672.661 381.947 672.816 382.01 672.931 382.123C672.989 382.179 673.035 382.246 673.066 382.32C673.097 382.394 673.113 382.474 673.113 382.554C673.113 382.635 673.097 382.714 673.066 382.789C673.035 382.863 672.989 382.93 672.931 382.986C667.951 388.225 663.453 393.903 659.494 399.951C663.641 398.395 668.04 397.616 672.469 397.655C672.59 397.663 672.704 397.716 672.787 397.805C672.87 397.894 672.916 398.011 672.915 398.133C672.911 398.252 672.861 398.366 672.775 398.449C672.688 398.533 672.573 398.579 672.453 398.579C667.696 398.53 662.978 399.447 658.585 401.276C655.878 405.425 653.383 409.709 651.112 414.111C652.957 412.834 655.057 411.971 657.268 411.582C659.478 411.194 661.747 411.289 663.917 411.862C663.975 411.876 664.03 411.902 664.078 411.938C664.126 411.974 664.166 412.019 664.196 412.07C664.226 412.122 664.246 412.18 664.253 412.239C664.261 412.298 664.256 412.359 664.24 412.416C664.228 412.476 664.203 412.532 664.168 412.581C664.133 412.63 664.087 412.671 664.035 412.702C663.983 412.733 663.925 412.752 663.864 412.758C663.804 412.765 663.743 412.759 663.686 412.74C661.335 412.129 658.869 412.109 656.509 412.682C654.149 413.255 651.966 414.402 650.157 416.022C642.214 431.656 637.681 448.799 636.859 466.316C636.851 466.474 636.783 466.623 636.668 466.732C636.553 466.841 636.401 466.902 636.243 466.902C636.162 466.9 636.083 466.882 636.01 466.849C635.937 466.816 635.871 466.768 635.816 466.709C635.762 466.651 635.72 466.581 635.692 466.506C635.665 466.43 635.653 466.35 635.657 466.27C636.206 453.927 638.643 441.741 642.884 430.136Z" fill="#F5F5F5"/>
<path d="M621.312 505.393C614.763 493.066 610.525 475.284 610.525 467.487C610.556 464.296 611.288 461.151 612.67 458.275C614.052 455.399 616.05 452.863 618.523 450.846H652.067C654.538 452.863 656.534 455.401 657.913 458.277C659.293 461.153 660.022 464.297 660.049 467.487C660.049 475.284 655.75 493.081 649.263 505.393H621.312Z" fill="#F0F0F0"/>
<path d="M563.96 266.11C563.96 265.71 563.96 265.309 563.96 264.924L566.287 263.629C566.103 262.531 565.814 261.452 565.424 260.409H562.758C562.426 259.686 562.029 258.995 561.571 258.344L562.943 256.079C562.239 255.206 561.443 254.41 560.57 253.706L558.305 255.077C557.654 254.62 556.963 254.223 556.24 253.891V251.225C555.197 250.835 554.118 250.546 553.02 250.362L551.725 252.689C551.34 252.689 550.939 252.689 550.539 252.689C550.138 252.689 549.737 252.689 549.352 252.689L548.058 250.362C546.959 250.546 545.881 250.835 544.838 251.225V253.891C544.114 254.223 543.423 254.62 542.773 255.077L540.492 253.706C539.627 254.414 538.837 255.21 538.135 256.079L539.506 258.344C539.043 258.991 538.645 259.683 538.32 260.409H535.654C535.257 261.45 534.968 262.529 534.791 263.629L537.118 264.924C537.118 265.309 537.118 265.71 537.118 266.11C537.118 266.511 537.118 266.911 537.118 267.297L534.791 268.591C534.968 269.691 535.257 270.77 535.654 271.811H538.32C538.645 272.537 539.043 273.229 539.506 273.876L538.135 276.157C538.842 277.018 539.631 277.807 540.492 278.514L542.773 277.143C543.42 277.606 544.111 278.004 544.838 278.329V280.995C545.879 281.392 546.958 281.681 548.058 281.858L549.352 279.531C549.737 279.531 550.138 279.531 550.539 279.531C550.939 279.531 551.34 279.531 551.725 279.531L553.02 281.858C554.12 281.681 555.199 281.392 556.24 280.995V278.329C556.966 278.004 557.658 277.606 558.305 277.143L560.57 278.514C561.439 277.812 562.234 277.022 562.943 276.157L561.571 273.876C562.029 273.226 562.426 272.534 562.758 271.811H565.424C565.814 270.768 566.103 269.69 566.287 268.591L563.96 267.297C563.96 266.911 563.96 266.511 563.96 266.11ZM550.539 275.232C548.735 275.232 546.971 274.697 545.471 273.695C543.971 272.692 542.802 271.268 542.111 269.601C541.421 267.934 541.24 266.1 541.592 264.331C541.944 262.561 542.813 260.936 544.089 259.66C545.364 258.384 546.99 257.515 548.759 257.163C550.529 256.811 552.363 256.992 554.03 257.683C555.696 258.373 557.121 259.542 558.123 261.042C559.126 262.542 559.661 264.306 559.661 266.11C559.661 267.313 559.423 268.505 558.961 269.615C558.498 270.726 557.821 271.734 556.967 272.582C556.114 273.43 555.101 274.101 553.987 274.556C552.873 275.01 551.68 275.24 550.477 275.232H550.539Z" fill="#F0F0F0"/>
<path d="M546.426 299.039C546.426 298.438 546.426 297.852 546.349 297.267L549.816 295.325C549.566 293.693 549.142 292.091 548.552 290.548L544.592 290.626C544.084 289.55 543.486 288.519 542.805 287.544L544.854 284.138C543.803 282.838 542.615 281.655 541.31 280.61L537.905 282.644C536.932 281.963 535.901 281.37 534.823 280.872V276.896C533.265 276.298 531.648 275.864 530 275.602L528.074 279.084C526.891 278.961 525.698 278.961 524.515 279.084L522.588 275.602C520.94 275.864 519.324 276.298 517.765 276.896V280.872C516.688 281.37 515.656 281.963 514.684 282.644L511.263 280.61C509.967 281.66 508.784 282.842 507.734 284.138L509.784 287.544C509.102 288.519 508.504 289.55 507.996 290.626L504.021 290.548C503.424 292.107 502.99 293.723 502.727 295.371L506.209 297.313C506.209 297.898 506.132 298.484 506.132 299.085C506.132 299.686 506.132 300.271 506.209 300.857L502.727 302.798C502.99 304.446 503.424 306.063 504.021 307.621L507.996 307.544C508.501 308.622 509.099 309.653 509.784 310.626L507.734 314.031C508.784 315.328 509.967 316.51 511.263 317.56L514.684 315.526C515.653 316.212 516.685 316.806 517.765 317.298V321.274C519.324 321.872 520.94 322.306 522.588 322.568L524.515 319.085C525.698 319.209 526.891 319.209 528.074 319.085L530 322.568C531.648 322.306 533.265 321.872 534.823 321.274V317.298C535.904 316.806 536.935 316.212 537.905 315.526L541.31 317.56C542.615 316.515 543.803 315.332 544.854 314.031L542.774 310.58C543.459 309.607 544.057 308.576 544.561 307.498L548.521 307.575C549.125 306.019 549.559 304.402 549.816 302.752L546.349 300.811C546.395 300.225 546.426 299.64 546.426 299.039ZM526.394 306.959C524.828 306.959 523.297 306.494 521.994 305.624C520.692 304.754 519.677 303.517 519.077 302.07C518.478 300.622 518.321 299.03 518.626 297.494C518.932 295.957 519.686 294.546 520.794 293.438C521.902 292.331 523.313 291.576 524.849 291.271C526.386 290.965 527.978 291.122 529.425 291.721C530.873 292.321 532.109 293.336 532.98 294.639C533.85 295.941 534.315 297.472 534.315 299.039C534.315 300.084 534.108 301.119 533.706 302.084C533.304 303.049 532.715 303.925 531.973 304.661C531.231 305.397 530.351 305.979 529.383 306.374C528.415 306.768 527.378 306.967 526.333 306.959H526.394Z" fill="#F0F0F0"/>
<path d="M234.46 237.958H216.309C214.758 237.958 213.222 238.264 211.789 238.858C210.356 239.452 209.054 240.323 207.957 241.421C206.861 242.519 205.992 243.821 205.4 245.255C204.808 246.689 204.504 248.226 204.506 249.777V267.913C204.506 271.045 205.749 274.049 207.962 276.264C210.175 278.48 213.177 279.727 216.309 279.731H234.46C237.592 279.727 240.594 278.48 242.807 276.264C245.021 274.049 246.264 271.045 246.264 267.913V249.777C246.266 248.226 245.962 246.689 245.37 245.255C244.777 243.821 243.908 242.519 242.812 241.421C241.716 240.323 240.414 239.452 238.981 238.858C237.548 238.264 236.012 237.958 234.46 237.958ZM225.385 271.858C225.385 271.858 215.569 261.164 215.569 255.74C215.569 253.137 216.603 250.64 218.444 248.8C220.285 246.959 222.782 245.925 225.385 245.925C227.988 245.925 230.485 246.959 232.325 248.8C234.166 250.64 235.2 253.137 235.2 255.74C235.2 261.118 225.385 271.811 225.385 271.811V271.858Z" fill="#F0F0F0"/>
<path d="M225.384 251.225C224.497 251.225 223.629 251.489 222.892 251.982C222.154 252.476 221.579 253.177 221.24 253.997C220.901 254.817 220.813 255.72 220.988 256.59C221.162 257.46 221.591 258.259 222.219 258.885C222.848 259.512 223.648 259.938 224.519 260.109C225.39 260.28 226.292 260.189 227.111 259.848C227.93 259.506 228.629 258.929 229.12 258.189C229.611 257.45 229.871 256.581 229.868 255.694C229.868 255.106 229.752 254.524 229.527 253.98C229.301 253.437 228.971 252.944 228.554 252.529C228.137 252.114 227.643 251.785 227.099 251.561C226.555 251.337 225.972 251.223 225.384 251.225Z" fill="#F0F0F0"/>
<path d="M600.941 102.562H581.788C580.356 102.56 578.938 102.84 577.615 103.386C576.291 103.933 575.088 104.735 574.075 105.747C573.062 106.759 572.258 107.96 571.71 109.283C571.161 110.606 570.879 112.024 570.879 113.456V132.624C570.879 134.056 571.161 135.474 571.71 136.797C572.258 138.119 573.062 139.321 574.075 140.333C575.088 141.345 576.291 142.147 577.615 142.693C578.938 143.24 580.356 143.52 581.788 143.518H600.941C602.373 143.52 603.79 143.24 605.113 142.693C606.435 142.146 607.637 141.344 608.649 140.332C609.661 139.32 610.464 138.118 611.01 136.795C611.557 135.473 611.837 134.055 611.835 132.624V113.348C611.811 110.476 610.652 107.73 608.611 105.71C606.57 103.689 603.813 102.557 600.941 102.562ZM603.499 116.568C602.997 117.204 602.411 117.769 601.758 118.248C601.731 118.258 601.708 118.278 601.694 118.303C601.68 118.328 601.675 118.358 601.681 118.386C601.702 119.103 601.661 119.819 601.558 120.528C601.399 122.014 601.003 123.466 600.387 124.827C599.752 126.213 598.899 127.487 597.86 128.602C596.078 130.48 593.767 131.77 591.234 132.301C590.342 132.498 589.435 132.611 588.522 132.64C585.805 132.701 583.129 131.973 580.818 130.544H580.694C583.243 130.805 585.797 130.107 587.859 128.587C586.848 128.563 585.869 128.227 585.055 127.626C584.242 127.025 583.634 126.187 583.314 125.228C583.999 125.374 584.708 125.374 585.394 125.228C584.741 125.09 584.123 124.821 583.577 124.437C583.031 124.053 582.569 123.562 582.22 122.994C581.737 122.228 581.481 121.341 581.48 120.436C582.132 120.785 582.853 120.985 583.591 121.021C582.588 120.319 581.88 119.271 581.603 118.078C581.304 116.894 581.475 115.641 582.081 114.58C583.317 116.069 584.848 117.287 586.577 118.156C588.305 119.026 590.195 119.529 592.128 119.635C592.121 119.451 592.09 119.27 592.035 119.095C591.876 117.992 592.111 116.868 592.698 115.921C593.055 115.35 593.532 114.864 594.096 114.497C594.66 114.129 595.298 113.89 595.964 113.795C596.722 113.662 597.5 113.714 598.232 113.948C598.965 114.181 599.63 114.589 600.171 115.135C600.205 115.174 600.249 115.202 600.298 115.215C600.347 115.229 600.4 115.228 600.448 115.212C601.427 115.003 602.368 114.644 603.237 114.149C602.889 115.175 602.212 116.058 601.311 116.661C602.237 116.552 603.142 116.303 603.992 115.921L603.499 116.568Z" fill="#F0F0F0"/>
<path d="M199.375 89.9883H178.866C172.424 89.9883 167.201 95.2106 167.201 101.653V122.162C167.201 128.604 172.424 133.826 178.866 133.826H199.375C205.817 133.826 211.039 128.604 211.039 122.162V101.653C211.039 95.2106 205.817 89.9883 199.375 89.9883Z" fill="#F0F0F0"/>
<path d="M194.027 104.935V111.098C194.027 111.705 193.907 112.306 193.675 112.867C193.443 113.428 193.102 113.938 192.673 114.367C192.244 114.796 191.734 115.137 191.173 115.369C190.612 115.601 190.011 115.721 189.404 115.721H183.503L176.769 122.454V115.721C175.543 115.721 174.367 115.234 173.5 114.367C172.634 113.5 172.146 112.324 172.146 111.098V104.935C172.146 103.709 172.634 102.533 173.5 101.666C174.367 100.799 175.543 100.312 176.769 100.312H189.404C190.63 100.312 191.806 100.799 192.673 101.666C193.54 102.533 194.027 103.709 194.027 104.935Z" fill="white"/>
<path d="M206.092 114.257V119.003C206.092 119.947 205.717 120.852 205.049 121.52C204.382 122.187 203.477 122.562 202.533 122.562V127.74L197.355 122.593H192.825C191.881 122.593 190.976 122.218 190.308 121.551C189.641 120.883 189.266 119.978 189.266 119.034V114.288C189.264 113.819 189.354 113.355 189.532 112.921C189.71 112.487 189.972 112.093 190.303 111.761C190.633 111.429 191.027 111.165 191.459 110.986C191.892 110.806 192.356 110.713 192.825 110.713H202.533C203.474 110.713 204.377 111.086 205.044 111.75C205.711 112.414 206.088 113.316 206.092 114.257Z" fill="white"/>
<path d="M189.143 105.32H177.709C177.571 105.32 177.437 105.265 177.339 105.166C177.241 105.068 177.186 104.935 177.186 104.796C177.186 104.657 177.241 104.524 177.339 104.426C177.437 104.327 177.571 104.272 177.709 104.272H189.143C189.282 104.272 189.415 104.327 189.513 104.426C189.611 104.524 189.667 104.657 189.667 104.796C189.667 104.935 189.611 105.068 189.513 105.166C189.415 105.265 189.282 105.32 189.143 105.32Z" fill="#EBEBEB"/>
<path d="M189.143 107.986H177.709C177.571 107.986 177.437 107.931 177.339 107.832C177.241 107.734 177.186 107.601 177.186 107.462C177.186 107.323 177.241 107.19 177.339 107.091C177.437 106.993 177.571 106.938 177.709 106.938H189.143C189.282 106.938 189.415 106.993 189.513 107.091C189.611 107.19 189.667 107.323 189.667 107.462C189.667 107.601 189.611 107.734 189.513 107.832C189.415 107.931 189.282 107.986 189.143 107.986Z" fill="#EBEBEB"/>
<path d="M185.953 110.651H177.709C177.571 110.651 177.437 110.596 177.339 110.498C177.241 110.4 177.186 110.266 177.186 110.127C177.186 109.988 177.241 109.855 177.339 109.757C177.437 109.659 177.571 109.603 177.709 109.603H185.953C186.092 109.603 186.225 109.659 186.324 109.757C186.422 109.855 186.477 109.988 186.477 110.127C186.477 110.266 186.422 110.4 186.324 110.498C186.225 110.596 186.092 110.651 185.953 110.651Z" fill="#EBEBEB"/>
<path d="M385.219 569C550.22 569 683.98 561.191 683.98 551.557C683.98 541.924 550.22 534.115 385.219 534.115C220.219 534.115 86.459 541.924 86.459 551.557C86.459 561.191 220.219 569 385.219 569Z" fill="#E7E5E5"/>
<path d="M455.944 186.678H454.404V170.145C454.4 166.961 453.134 163.909 450.884 161.656C448.635 159.403 445.584 158.134 442.4 158.126H411.968C408.373 158.122 404.926 156.692 402.384 154.15C399.842 151.608 398.412 148.161 398.408 144.566V131.839H399.949V144.597C399.953 147.783 401.221 150.838 403.474 153.091C405.727 155.344 408.782 156.612 411.968 156.616H442.4C445.994 156.62 449.439 158.05 451.978 160.593C454.518 163.135 455.944 166.582 455.944 170.175V186.678Z" fill="black"/>
<path d="M466.885 187.002H446.854C444.912 187.002 443.048 187.772 441.673 189.145C440.298 190.517 439.524 192.378 439.52 194.321V214.352C439.524 216.295 440.298 218.157 441.673 219.529C443.048 220.901 444.912 221.672 446.854 221.672H466.885C468.828 221.672 470.691 220.901 472.066 219.529C473.441 218.157 474.216 216.295 474.22 214.352V194.321C474.216 192.378 473.441 190.517 472.066 189.145C470.691 187.772 468.828 187.002 466.885 187.002Z" fill="#2A8BE9"/>
<g opacity="0.4">
<path d="M466.885 187.002H446.854C444.912 187.002 443.048 187.773 441.673 189.145C440.298 190.517 439.524 192.379 439.52 194.321V214.352C439.524 216.295 440.298 218.157 441.673 219.529C443.048 220.901 444.912 221.672 446.854 221.672H466.885C468.828 221.672 470.691 220.901 472.066 219.529C473.441 218.157 474.216 216.295 474.22 214.352V194.321C474.216 192.379 473.441 190.517 472.066 189.145C470.691 187.773 468.828 187.002 466.885 187.002Z" fill="white"/>
</g>
<path d="M456.715 190.269C453.989 190.265 451.323 191.071 449.056 192.584C446.788 194.096 445.02 196.247 443.975 198.765C442.931 201.283 442.657 204.054 443.188 206.728C443.719 209.401 445.031 211.857 446.959 213.785C448.886 215.712 451.342 217.024 454.016 217.555C456.689 218.086 459.46 217.812 461.978 216.768C464.496 215.723 466.647 213.955 468.16 211.688C469.672 209.42 470.478 206.754 470.475 204.029C470.466 200.382 469.014 196.886 466.435 194.308C463.857 191.729 460.362 190.277 456.715 190.269ZM454.527 191.809C453.187 193.143 452.101 194.71 451.322 196.432H446.961C448.832 194.005 451.541 192.363 454.557 191.825L454.527 191.809ZM446.021 197.726H450.736C450.055 199.493 449.645 201.353 449.519 203.243V203.566H444.357C444.427 201.518 444.998 199.518 446.021 197.742V197.726ZM446.298 210.747C445.169 209 444.496 206.997 444.341 204.922H449.55C449.749 206.933 450.27 208.9 451.09 210.747H446.298ZM447.315 212.103H451.738C452.581 213.696 453.709 215.122 455.066 216.309C452.054 215.915 449.294 214.422 447.315 212.118V212.103ZM456.037 215.354C454.959 214.424 454.038 213.326 453.309 212.103H456.098L456.037 215.354ZM456.037 210.731H452.57C451.689 208.899 451.131 206.929 450.921 204.907H456.098L456.037 210.731ZM456.037 203.551H450.875C450.964 201.541 451.413 199.563 452.2 197.711H456.098L456.037 203.551ZM456.037 196.355H452.832C453.624 194.798 454.713 193.411 456.037 192.272V196.355ZM469.119 203.551H463.941V203.227C463.823 201.337 463.412 199.476 462.724 197.711H467.439C468.482 199.496 469.06 201.515 469.119 203.582V203.551ZM466.468 196.355H462.123C461.332 194.635 460.242 193.07 458.903 191.732C461.915 192.289 464.612 193.948 466.468 196.386V196.355ZM457.393 192.287C458.72 193.418 459.809 194.8 460.598 196.355H457.393V192.287ZM457.393 197.711H461.229C462.019 199.563 462.473 201.54 462.57 203.551H457.393V197.711ZM457.393 204.907H462.508C462.305 206.93 461.747 208.902 460.86 210.731H457.393V204.907ZM457.393 215.339V212.118H460.12C459.401 213.348 458.479 214.447 457.393 215.369V215.339ZM458.363 216.294C459.72 215.106 460.848 213.681 461.692 212.087H466.114C464.143 214.409 461.382 215.918 458.363 216.325V216.294ZM467.131 210.731H462.354C463.175 208.884 463.695 206.918 463.895 204.907H469.103C468.954 206.994 468.275 209.009 467.131 210.762V210.731Z" fill="white"/>
<path d="M518.119 161.115H516.578V144.581C516.578 141.398 515.313 138.345 513.062 136.094C510.811 133.843 507.758 132.578 504.575 132.578H431.953V131.037H504.575C508.165 131.041 511.608 132.47 514.147 135.009C516.687 137.548 518.115 140.991 518.119 144.581V161.115Z" fill="black"/>
<path d="M523.094 149.127H503.063C501.121 149.127 499.257 149.898 497.882 151.27C496.507 152.642 495.733 154.504 495.729 156.446V176.478C495.733 178.42 496.507 180.282 497.882 181.654C499.257 183.026 501.121 183.797 503.063 183.797H523.094C525.037 183.797 526.9 183.026 528.275 181.654C529.65 180.282 530.425 178.42 530.429 176.478V156.492C530.433 155.527 530.246 154.57 529.88 153.676C529.513 152.783 528.973 151.97 528.292 151.286C527.61 150.602 526.8 150.059 525.908 149.688C525.017 149.318 524.06 149.127 523.094 149.127Z" fill="#2A8BE9"/>
<g opacity="0.4">
<path d="M523.096 149.127H503.065C501.122 149.127 499.259 149.898 497.884 151.27C496.509 152.642 495.735 154.504 495.73 156.446V176.478C495.735 178.42 496.509 180.282 497.884 181.654C499.259 183.026 501.122 183.797 503.065 183.797H523.096C525.039 183.797 526.902 183.026 528.277 181.654C529.652 180.282 530.427 178.42 530.431 176.478V156.493C530.435 155.527 530.248 154.57 529.882 153.676C529.515 152.783 528.975 151.971 528.294 151.286C527.612 150.602 526.802 150.059 525.91 149.688C525.018 149.318 524.062 149.127 523.096 149.127Z" fill="white"/>
</g>
<path opacity="0.9" d="M515.422 156.893C514.292 155.763 512.864 154.977 511.304 154.629C509.744 154.281 508.117 154.385 506.613 154.928C505.11 155.471 503.793 156.431 502.815 157.696C501.838 158.96 501.241 160.477 501.094 162.069C500.947 163.661 501.257 165.261 501.987 166.683C502.717 168.105 503.837 169.29 505.216 170.098C506.595 170.907 508.176 171.306 509.773 171.248C511.37 171.191 512.918 170.68 514.236 169.775C514.299 170.161 514.482 170.517 514.76 170.792L519.983 176.015C520.158 176.19 520.366 176.329 520.595 176.424C520.824 176.519 521.069 176.567 521.316 176.567C521.564 176.567 521.809 176.519 522.038 176.424C522.266 176.329 522.474 176.19 522.649 176.015C522.824 175.84 522.963 175.633 523.058 175.404C523.152 175.175 523.201 174.93 523.201 174.682C523.201 174.435 523.152 174.19 523.058 173.961C522.963 173.732 522.824 173.525 522.649 173.35L517.426 168.126C517.146 167.845 516.784 167.662 516.393 167.602C517.507 165.984 518.019 164.028 517.842 162.072C517.665 160.116 516.809 158.284 515.422 156.893ZM513.635 167.001C512.81 167.828 511.759 168.391 510.614 168.62C509.468 168.849 508.281 168.733 507.202 168.287C506.123 167.841 505.2 167.084 504.551 166.113C503.902 165.143 503.555 164.001 503.555 162.833C503.555 161.665 503.902 160.524 504.551 159.553C505.2 158.582 506.123 157.826 507.202 157.379C508.281 156.933 509.468 156.817 510.614 157.046C511.759 157.275 512.81 157.838 513.635 158.665C514.183 159.212 514.618 159.862 514.915 160.577C515.212 161.292 515.365 162.059 515.365 162.833C515.365 163.608 515.212 164.374 514.915 165.09C514.618 165.805 514.183 166.454 513.635 167.001Z" fill="white"/>
<path d="M523.174 104.781H430.229V106.321H523.174V104.781Z" fill="black"/>
<path d="M537.875 78.3392H517.921C516.958 78.3392 516.005 78.529 515.116 78.8978C514.227 79.2666 513.42 79.8071 512.74 80.4884C512.06 81.1697 511.521 81.9783 511.154 82.8681C510.787 83.7579 510.6 84.7113 510.602 85.6738V105.644C510.6 106.606 510.787 107.559 511.154 108.449C511.521 109.339 512.06 110.148 512.74 110.829C513.42 111.51 514.227 112.051 515.116 112.419C516.005 112.788 516.958 112.978 517.921 112.978H537.875C539.82 112.978 541.686 112.205 543.061 110.83C544.437 109.454 545.21 107.589 545.21 105.644V85.6121C545.193 83.6776 544.413 81.8278 543.04 80.4656C541.666 79.1034 539.81 78.3391 537.875 78.3392Z" fill="#2A8BE9"/>
<g opacity="0.4">
<path d="M537.875 78.3392H517.921C516.958 78.3392 516.005 78.529 515.116 78.8978C514.227 79.2666 513.42 79.8071 512.74 80.4884C512.06 81.1697 511.521 81.9783 511.154 82.8681C510.787 83.7579 510.6 84.7113 510.602 85.6738V105.644C510.6 106.606 510.787 107.559 511.154 108.449C511.521 109.339 512.06 110.148 512.74 110.829C513.42 111.51 514.227 112.051 515.116 112.419C516.005 112.788 516.958 112.978 517.921 112.978H537.875C539.82 112.978 541.686 112.205 543.061 110.83C544.437 109.454 545.21 107.589 545.21 105.644V85.6121C545.193 83.6776 544.413 81.8278 543.04 80.4656C541.666 79.1034 539.81 78.3391 537.875 78.3392Z" fill="white"/>
</g>
<g opacity="0.5">
<path d="M523.036 105.551C523.036 106.066 522.884 106.569 522.597 106.998C522.311 107.426 521.905 107.76 521.429 107.957C520.953 108.154 520.429 108.205 519.924 108.105C519.419 108.005 518.955 107.757 518.591 107.392C518.227 107.028 517.979 106.564 517.878 106.059C517.778 105.554 517.829 105.03 518.026 104.554C518.223 104.079 518.557 103.672 518.985 103.386C519.414 103.1 519.917 102.947 520.432 102.947C520.775 102.945 521.114 103.011 521.431 103.141C521.748 103.271 522.036 103.463 522.278 103.705C522.52 103.947 522.712 104.235 522.842 104.552C522.972 104.869 523.038 105.208 523.036 105.551Z" fill="white"/>
<path d="M533.144 105.551C533.144 106.066 532.991 106.569 532.705 106.998C532.419 107.426 532.012 107.76 531.536 107.957C531.06 108.154 530.537 108.205 530.032 108.105C529.526 108.005 529.062 107.757 528.698 107.392C528.334 107.028 528.086 106.564 527.986 106.059C527.885 105.554 527.937 105.03 528.134 104.554C528.331 104.079 528.665 103.672 529.093 103.386C529.521 103.1 530.025 102.947 530.54 102.947C530.882 102.945 531.222 103.011 531.539 103.141C531.855 103.271 532.143 103.463 532.386 103.705C532.628 103.947 532.819 104.235 532.95 104.552C533.08 104.869 533.146 105.208 533.144 105.551Z" fill="white"/>
</g>
<path d="M532.711 101.622H517.579C517.431 101.619 517.288 101.57 517.169 101.482C517.05 101.393 516.962 101.27 516.917 101.129L513.743 90.6044C513.71 90.5006 513.702 90.3903 513.721 90.2831C513.74 90.1758 513.784 90.0746 513.85 89.9881C513.915 89.902 513.999 89.8321 514.095 89.7839C514.191 89.7358 514.297 89.7107 514.405 89.7107H535.885C535.995 89.7107 536.103 89.7356 536.202 89.7837C536.301 89.8317 536.387 89.9016 536.455 89.9881C536.518 90.0762 536.56 90.1773 536.579 90.284C536.598 90.3907 536.592 90.5002 536.563 90.6044L533.373 101.129C533.33 101.271 533.243 101.396 533.123 101.485C533.004 101.573 532.859 101.621 532.711 101.622ZM518.103 100.235H532.202L534.96 91.0975H515.33L518.103 100.235Z" fill="white"/>
<path d="M535.886 91.0977H535.701C535.613 91.0729 535.53 91.0308 535.458 90.9738C535.386 90.9169 535.326 90.8462 535.282 90.766C535.238 90.6857 535.21 90.5974 535.2 90.5063C535.189 90.4151 535.198 90.3228 535.223 90.2348L536.441 85.9974C536.601 85.4426 536.937 84.9549 537.398 84.6075C537.859 84.2602 538.421 84.072 538.999 84.0713H541.402C541.586 84.0713 541.763 84.1444 541.893 84.2744C542.023 84.4044 542.096 84.5808 542.096 84.7647C542.096 84.9486 542.023 85.125 541.893 85.255C541.763 85.385 541.586 85.4581 541.402 85.4581H538.999C538.723 85.4606 538.456 85.5519 538.237 85.7185C538.017 85.8851 537.858 86.118 537.781 86.3826L536.564 90.62C536.515 90.7607 536.424 90.8826 536.302 90.9684C536.18 91.0541 536.035 91.0993 535.886 91.0977Z" fill="white"/>
<path d="M457.638 84.1945H427.406V82.6536H457.638C460.822 82.6536 463.875 81.389 466.126 79.1379C468.377 76.8868 469.642 73.8337 469.642 70.6502V54.1166H471.183V70.6502C471.178 74.2411 469.75 77.6838 467.211 80.223C464.672 82.7621 461.229 84.1904 457.638 84.1945Z" fill="black"/>
<path d="M481.076 27.7216H459.874C456.129 27.7216 453.094 30.757 453.094 34.5014V55.7038C453.094 59.4482 456.129 62.4837 459.874 62.4837H481.076C484.82 62.4837 487.856 59.4482 487.856 55.7038V34.5014C487.856 30.757 484.82 27.7216 481.076 27.7216Z" fill="#2A8BE9"/>
<g opacity="0.4">
<path d="M481.076 27.7216H459.874C456.129 27.7216 453.094 30.757 453.094 34.5014V55.7038C453.094 59.4482 456.129 62.4837 459.874 62.4837H481.076C484.82 62.4837 487.856 59.4482 487.856 55.7038V34.5014C487.856 30.757 484.82 27.7216 481.076 27.7216Z" fill="white"/>
</g>
<path d="M483.648 48.7391C483.648 49.1089 483.648 50.4186 483.571 50.7884H471.691V45.118H473.309L469.965 41.7589L466.606 45.118H468.224V50.7884H457.068C457.068 50.6035 457.068 49.4633 457.068 49.2475C457.069 47.7653 457.622 46.3365 458.619 45.2398C459.616 44.143 460.986 43.4569 462.461 43.3152V43.084C462.448 41.4083 463.037 39.7836 464.121 38.5053C465.204 37.2271 466.711 36.3804 468.366 36.1191C470.021 35.8578 471.715 36.1994 473.14 37.0818C474.565 37.9641 475.625 39.3285 476.129 40.9268C476.548 40.9358 476.965 40.977 477.377 41.0501C479.161 41.3875 480.768 42.3439 481.915 43.7506C483.063 45.1573 483.676 46.924 483.648 48.7391Z" fill="white"/>
<path d="M387.762 44.7174H386.221V76.3824H387.762V44.7174Z" fill="black"/>
<path d="M396.974 14.5163H377.02C375.075 14.5163 373.209 15.289 371.834 16.6645C370.458 18.04 369.686 19.9056 369.686 21.8509V41.8052C369.686 43.7504 370.458 45.616 371.834 46.9915C373.209 48.367 375.075 49.1398 377.02 49.1398H396.974C397.937 49.1398 398.89 48.9499 399.779 48.5812C400.668 48.2124 401.475 47.6719 402.155 46.9906C402.835 46.3093 403.374 45.5006 403.741 44.6108C404.108 43.7211 404.296 42.7676 404.294 41.8052V21.8509C404.296 20.8884 404.108 19.935 403.741 19.0452C403.374 18.1554 402.835 17.3468 402.155 16.6655C401.475 15.9842 400.668 15.4437 399.779 15.0749C398.89 14.7061 397.937 14.5163 396.974 14.5163Z" fill="#2A8BE9"/>
<g opacity="0.4">
<path d="M396.974 14.5163H377.02C375.075 14.5163 373.209 15.289 371.834 16.6645C370.458 18.04 369.686 19.9056 369.686 21.8508V41.8052C369.686 43.7504 370.458 45.616 371.834 46.9915C373.209 48.367 375.075 49.1397 377.02 49.1397H396.974C397.937 49.1397 398.89 48.9499 399.779 48.5811C400.668 48.2123 401.475 47.6718 402.155 46.9906C402.835 46.3093 403.374 45.5006 403.741 44.6108C404.108 43.721 404.296 42.7676 404.294 41.8052V21.8508C404.296 20.8884 404.108 19.935 403.741 19.0452C403.374 18.1554 402.835 17.3467 402.155 16.6654C401.475 15.9842 400.668 15.4437 399.779 15.0749C398.89 14.7061 397.937 14.5163 396.974 14.5163Z" fill="white"/>
</g>
<path d="M390.195 34.1008C390.195 33.8696 390.195 33.6385 390.195 33.4228L391.597 32.8681C391.585 32.2291 391.503 31.5935 391.35 30.9728L389.81 30.8033C389.679 30.3725 389.509 29.9547 389.301 29.5552L390.241 28.3687C389.906 27.8193 389.519 27.3033 389.085 26.8278L387.699 27.4288C387.363 27.1214 387.002 26.8431 386.62 26.5967L386.836 25.0558C386.281 24.7412 385.692 24.493 385.079 24.3162L384.185 25.5335L383.677 25.5181H383.014L382.444 24.1005C381.811 24.1208 381.181 24.2034 380.564 24.347L380.395 25.8879C379.958 26.021 379.534 26.1965 379.131 26.4118L377.945 25.4565C377.392 25.7918 376.875 26.1843 376.404 26.6275L377.005 28.0143C376.704 28.3509 376.43 28.7116 376.188 29.0929L374.647 28.8618C374.35 29.4225 374.107 30.0108 373.923 30.6184L375.14 31.5275C375.14 31.7432 375.048 31.959 375.017 32.1901C375.002 32.4158 375.002 32.6423 375.017 32.8681L373.6 33.4228C373.611 34.0617 373.694 34.6974 373.846 35.3181L375.387 35.4876C375.524 35.9159 375.694 36.3332 375.895 36.7357L374.956 37.9222C375.291 38.4716 375.678 38.9876 376.111 39.463L377.513 38.8621C377.84 39.1729 378.196 39.4515 378.577 39.6941L378.361 41.235C378.917 41.5419 379.507 41.7848 380.118 41.9592L381.011 40.7419L381.689 40.8652H382.367L382.922 42.2674C383.556 42.2557 384.186 42.173 384.802 42.0209L384.971 40.48C385.408 40.3469 385.832 40.1714 386.235 39.9561L387.421 40.896C387.978 40.5715 388.495 40.1837 388.962 39.7404L388.361 38.3536C388.664 38.018 388.937 37.6571 389.178 37.275L390.719 37.5061C391.017 36.9455 391.259 36.3572 391.443 35.7495L390.226 34.8404C390.118 34.5476 390.164 34.3165 390.195 34.1008ZM382.136 36.0885C381.525 36.0202 380.949 35.7709 380.481 35.3726C380.013 34.9743 379.675 34.4452 379.51 33.8533C379.345 33.2614 379.361 32.6336 379.555 32.0507C379.75 31.4678 380.114 30.9563 380.601 30.5819C381.088 30.2076 381.677 29.9875 382.29 29.9499C382.903 29.9123 383.514 30.0589 384.043 30.3709C384.573 30.6829 384.997 31.146 385.261 31.7008C385.525 32.2557 385.617 32.8768 385.526 33.4844C385.407 34.2726 384.988 34.9842 384.356 35.4698C383.724 35.9553 382.928 36.1771 382.136 36.0885Z" fill="#2A8BE9"/>
<path d="M390.195 34.1008C390.195 33.8696 390.195 33.6385 390.195 33.4228L391.597 32.8681C391.585 32.2291 391.503 31.5935 391.35 30.9728L389.81 30.8033C389.679 30.3725 389.509 29.9547 389.301 29.5552L390.241 28.3687C389.906 27.8193 389.519 27.3033 389.085 26.8278L387.699 27.4288C387.363 27.1214 387.002 26.8431 386.62 26.5967L386.836 25.0558C386.281 24.7412 385.692 24.493 385.079 24.3162L384.185 25.5335L383.677 25.5181H383.014L382.444 24.1005C381.811 24.1208 381.181 24.2034 380.564 24.347L380.395 25.8879C379.958 26.021 379.534 26.1965 379.131 26.4118L377.945 25.4565C377.392 25.7918 376.875 26.1843 376.404 26.6275L377.005 28.0143C376.704 28.3509 376.43 28.7116 376.188 29.0929L374.647 28.8618C374.35 29.4225 374.107 30.0108 373.923 30.6184L375.14 31.5275C375.14 31.7432 375.048 31.959 375.017 32.1901C375.002 32.4158 375.002 32.6423 375.017 32.8681L373.6 33.4228C373.611 34.0617 373.694 34.6974 373.846 35.3181L375.387 35.4876C375.524 35.9159 375.694 36.3332 375.895 36.7357L374.956 37.9222C375.291 38.4716 375.678 38.9876 376.111 39.463L377.513 38.8621C377.84 39.1729 378.196 39.4515 378.577 39.6941L378.361 41.235C378.917 41.5419 379.507 41.7848 380.118 41.9592L381.011 40.7419L381.689 40.8652H382.367L382.922 42.2674C383.556 42.2557 384.186 42.173 384.802 42.0209L384.971 40.48C385.408 40.3469 385.832 40.1714 386.235 39.9561L387.421 40.896C387.978 40.5715 388.495 40.1837 388.962 39.7404L388.361 38.3536C388.664 38.018 388.937 37.6571 389.178 37.275L390.719 37.5061C391.017 36.9455 391.259 36.3572 391.443 35.7495L390.226 34.8404C390.118 34.5476 390.164 34.3165 390.195 34.1008ZM382.136 36.0885C381.525 36.0202 380.949 35.7709 380.481 35.3726C380.013 34.9743 379.675 34.4452 379.51 33.8533C379.345 33.2614 379.361 32.6336 379.555 32.0507C379.75 31.4678 380.114 30.9563 380.601 30.5819C381.088 30.2076 381.677 29.9875 382.29 29.9499C382.903 29.9123 383.514 30.0589 384.043 30.3709C384.573 30.6829 384.997 31.146 385.261 31.7008C385.525 32.2557 385.617 32.8768 385.526 33.4844C385.407 34.2726 384.988 34.9842 384.356 35.4698C383.724 35.9553 382.928 36.1771 382.136 36.0885Z" fill="white"/>
<g opacity="0.5">
<path d="M396.512 29.4011C395.629 29.404 394.771 29.1093 394.076 28.5646C393.381 28.0199 392.89 27.2569 392.681 26.3988C392.473 25.5406 392.56 24.6373 392.928 23.8346C393.296 23.0318 393.923 22.3764 394.71 21.9741V24.4549C394.715 24.9354 394.908 25.3947 395.249 25.7339C395.584 26.0691 396.038 26.2576 396.512 26.2578C396.99 26.2578 397.449 26.0678 397.787 25.7297C398.125 25.3916 398.315 24.9331 398.315 24.4549V21.9741C399.101 22.3764 399.729 23.0318 400.097 23.8346C400.465 24.6373 400.552 25.5406 400.343 26.3988C400.135 27.2569 399.644 28.0199 398.949 28.5646C398.254 29.1093 397.395 29.404 396.512 29.4011Z" fill="white"/>
<path d="M394.725 39.2166V28.3072C394.723 28.0712 394.767 27.8371 394.856 27.6185C394.945 27.3998 395.077 27.201 395.243 27.0334C395.409 26.8657 395.607 26.7327 395.824 26.6419C396.042 26.5511 396.276 26.5044 396.512 26.5044C396.748 26.5044 396.982 26.5511 397.2 26.6419C397.418 26.7327 397.615 26.8657 397.781 27.0334C397.948 27.201 398.079 27.3998 398.168 27.6185C398.257 27.8371 398.302 28.0712 398.299 28.3072V39.2166C398.299 39.4513 398.253 39.6838 398.163 39.9006C398.074 40.1175 397.942 40.3145 397.776 40.4805C397.61 40.6465 397.413 40.7781 397.196 40.868C396.979 40.9578 396.747 41.004 396.512 41.004C396.277 41.004 396.045 40.9578 395.828 40.868C395.611 40.7781 395.414 40.6465 395.248 40.4805C395.082 40.3145 394.951 40.1175 394.861 39.9006C394.771 39.6838 394.725 39.4513 394.725 39.2166Z" fill="white"/>
</g>
<path d="M320.178 186.678H318.637V170.145C318.641 166.55 320.071 163.103 322.613 160.561C325.155 158.019 328.601 156.589 332.196 156.585H362.613C365.8 156.581 368.854 155.313 371.107 153.06C373.36 150.807 374.628 147.752 374.632 144.566V131.838H376.173V144.597C376.169 148.192 374.739 151.638 372.197 154.181C369.655 156.723 366.208 158.152 362.613 158.157H332.196C329.01 158.161 325.955 159.428 323.702 161.681C321.449 163.934 320.182 166.989 320.178 170.175V186.678Z" fill="black"/>
<path d="M328.622 184.737H308.59C306.645 184.737 304.78 185.509 303.404 186.885C302.029 188.26 301.256 190.126 301.256 192.071V211.964C301.256 212.926 301.446 213.879 301.814 214.768C302.183 215.657 302.724 216.465 303.405 217.145C304.086 217.825 304.895 218.364 305.785 218.73C306.675 219.097 307.628 219.285 308.59 219.283H328.622C330.558 219.275 332.411 218.5 333.777 217.129C335.143 215.757 335.91 213.9 335.91 211.964V192.071C335.91 190.134 335.144 188.275 333.778 186.901C332.413 185.527 330.559 184.749 328.622 184.737Z" fill="#2A8BE9"/>
<g opacity="0.4">
<path d="M328.622 184.737H308.59C306.645 184.737 304.78 185.509 303.404 186.885C302.029 188.26 301.256 190.126 301.256 192.071V211.964C301.256 212.926 301.446 213.879 301.814 214.768C302.183 215.657 302.724 216.465 303.405 217.145C304.086 217.825 304.895 218.363 305.785 218.73C306.675 219.097 307.628 219.285 308.59 219.283H328.622C330.558 219.275 332.411 218.5 333.777 217.128C335.143 215.757 335.91 213.9 335.91 211.964V192.071C335.91 190.134 335.144 188.275 333.778 186.901C332.413 185.527 330.559 184.749 328.622 184.737Z" fill="white"/>
</g>
<path d="M331.056 210.331C331.056 210.773 330.925 211.204 330.68 211.572C330.434 211.939 330.085 212.226 329.677 212.395C329.269 212.564 328.82 212.608 328.386 212.522C327.953 212.436 327.555 212.223 327.242 211.91C326.93 211.598 326.717 211.2 326.631 210.766C326.545 210.333 326.589 209.884 326.758 209.476C326.927 209.067 327.213 208.718 327.581 208.473C327.948 208.227 328.38 208.096 328.822 208.096C329.415 208.096 329.983 208.332 330.402 208.751C330.821 209.17 331.056 209.738 331.056 210.331Z" fill="white"/>
<path d="M321.164 210.331C321.164 210.773 321.033 211.204 320.787 211.572C320.542 211.939 320.193 212.226 319.785 212.395C319.376 212.564 318.927 212.608 318.494 212.522C318.06 212.436 317.662 212.223 317.35 211.91C317.037 211.598 316.824 211.2 316.738 210.766C316.652 210.333 316.696 209.884 316.865 209.476C317.035 209.067 317.321 208.718 317.688 208.473C318.056 208.227 318.488 208.096 318.93 208.096C319.522 208.096 320.09 208.332 320.509 208.751C320.928 209.17 321.164 209.738 321.164 210.331Z" fill="white"/>
<path d="M311.255 210.331C311.258 210.776 311.129 211.213 310.884 211.585C310.638 211.957 310.288 212.247 309.877 212.42C309.466 212.593 309.014 212.639 308.576 212.554C308.139 212.469 307.736 212.256 307.42 211.942C307.104 211.628 306.888 211.227 306.8 210.791C306.712 210.354 306.756 209.901 306.926 209.489C307.095 209.077 307.384 208.725 307.754 208.477C308.124 208.229 308.56 208.096 309.005 208.096C309.3 208.094 309.592 208.151 309.865 208.262C310.138 208.373 310.386 208.538 310.595 208.745C310.804 208.953 310.97 209.2 311.084 209.472C311.197 209.744 311.255 210.036 311.255 210.331Z" fill="white"/>
<path d="M329.331 214.799H308.421C307.269 214.799 306.164 214.341 305.349 213.526C304.534 212.711 304.076 211.606 304.076 210.454V210.207C304.076 209.055 304.534 207.95 305.349 207.135C306.164 206.32 307.269 205.862 308.421 205.862H329.331C330.484 205.862 331.589 206.32 332.404 207.135C333.219 207.95 333.676 209.055 333.676 210.207V210.423C333.68 210.996 333.571 211.565 333.355 212.095C333.138 212.626 332.819 213.109 332.415 213.516C332.011 213.922 331.53 214.245 331.001 214.465C330.472 214.686 329.904 214.799 329.331 214.799ZM308.421 207.249C307.637 207.249 306.884 207.56 306.329 208.115C305.775 208.67 305.463 209.423 305.463 210.207V210.423C305.463 211.208 305.775 211.96 306.329 212.515C306.884 213.07 307.637 213.381 308.421 213.381H329.331C330.116 213.381 330.868 213.07 331.423 212.515C331.978 211.96 332.29 211.208 332.29 210.423V210.176C332.29 209.392 331.978 208.639 331.423 208.085C330.868 207.53 330.116 207.218 329.331 207.218L308.421 207.249Z" fill="white"/>
<path d="M329.13 207.203C328.762 207.203 328.41 207.056 328.15 206.796C327.89 206.536 327.743 206.184 327.743 205.816V201.424L318.96 192.256L313.922 193.905C313.575 194.008 313.203 193.972 312.882 193.805C312.562 193.637 312.32 193.351 312.208 193.007C312.095 192.664 312.121 192.29 312.28 191.966C312.439 191.641 312.719 191.392 313.059 191.27L318.914 189.344C319.162 189.26 319.429 189.249 319.682 189.312C319.936 189.375 320.167 189.509 320.347 189.698L330.193 199.899C330.44 200.156 330.578 200.498 330.579 200.854V205.8C330.581 205.989 330.545 206.176 330.472 206.35C330.4 206.525 330.292 206.682 330.157 206.814C330.021 206.945 329.86 207.047 329.684 207.114C329.507 207.181 329.319 207.211 329.13 207.203Z" fill="white"/>
<path d="M313.043 196.74C312.859 196.74 312.683 196.667 312.553 196.537C312.423 196.407 312.35 196.231 312.35 196.047V192.595C312.35 192.411 312.423 192.235 312.553 192.105C312.683 191.975 312.859 191.902 313.043 191.902C313.227 191.902 313.403 191.975 313.533 192.105C313.663 192.235 313.736 192.411 313.736 192.595V196.047C313.736 196.231 313.663 196.407 313.533 196.537C313.403 196.667 313.227 196.74 313.043 196.74Z" fill="white"/>
<path d="M311.964 199.344C311.873 199.346 311.782 199.329 311.697 199.294C311.613 199.26 311.536 199.209 311.471 199.144C311.062 198.735 310.829 198.182 310.824 197.603C310.871 197.044 311.125 196.524 311.538 196.144C311.95 195.765 312.49 195.554 313.051 195.554C313.611 195.554 314.151 195.765 314.564 196.144C314.976 196.524 315.231 197.044 315.277 197.603C315.281 198.172 315.072 198.721 314.692 199.144C314.63 199.212 314.556 199.267 314.473 199.306C314.39 199.345 314.3 199.367 314.208 199.371C314.023 199.38 313.843 199.315 313.706 199.19C313.569 199.065 313.487 198.891 313.478 198.707C313.47 198.522 313.535 198.341 313.659 198.204C313.734 198.129 313.793 198.04 313.833 197.942C313.873 197.844 313.892 197.739 313.891 197.634C313.887 197.412 313.795 197.2 313.637 197.044C313.478 196.889 313.265 196.802 313.043 196.802C312.822 196.802 312.611 196.889 312.455 197.045C312.299 197.201 312.211 197.413 312.211 197.634C312.213 197.858 312.302 198.073 312.458 198.235C312.585 198.364 312.656 198.539 312.656 198.72C312.656 198.902 312.585 199.076 312.458 199.205C312.318 199.314 312.141 199.364 311.964 199.344Z" fill="white"/>
<path d="M319.808 190.731C319.812 190.841 319.782 190.95 319.723 191.043C319.663 191.136 319.578 191.21 319.477 191.254C319.376 191.298 319.264 191.312 319.155 191.292C319.047 191.272 318.946 191.221 318.867 191.144C318.788 191.067 318.734 190.968 318.711 190.86C318.688 190.752 318.698 190.64 318.74 190.538C318.781 190.435 318.852 190.348 318.944 190.286C319.036 190.224 319.143 190.191 319.254 190.191C319.398 190.191 319.537 190.248 319.641 190.348C319.744 190.449 319.804 190.586 319.808 190.731Z" fill="#2A8BE9"/>
<path d="M329.576 200.931C329.576 201.041 329.544 201.148 329.483 201.239C329.422 201.331 329.335 201.402 329.234 201.444C329.132 201.486 329.021 201.497 328.913 201.475C328.806 201.454 328.707 201.401 328.629 201.324C328.552 201.246 328.499 201.147 328.477 201.04C328.456 200.932 328.467 200.82 328.509 200.719C328.551 200.618 328.622 200.531 328.713 200.47C328.805 200.409 328.912 200.377 329.022 200.377C329.094 200.377 329.167 200.391 329.234 200.419C329.301 200.447 329.362 200.488 329.414 200.539C329.465 200.591 329.506 200.652 329.534 200.719C329.562 200.786 329.576 200.858 329.576 200.931Z" fill="#2A8BE9"/>
<path opacity="0.4" d="M315.154 200.885H310.947V205.092H315.154V200.885Z" fill="white"/>
<path d="M332.828 84.1947H302.55C298.956 84.1947 295.51 82.7682 292.967 80.2286C290.425 77.689 288.994 74.244 288.99 70.6504V54.1168H290.531V70.6504C290.535 73.8354 291.803 76.8884 294.057 79.1391C296.31 81.3897 299.365 82.6539 302.55 82.6538H332.828V84.1947Z" fill="black"/>
<path d="M302.627 26.1345H282.688C278.637 26.1345 275.354 29.4183 275.354 33.4691V53.408C275.354 57.4588 278.637 60.7426 282.688 60.7426H302.627C306.678 60.7426 309.962 57.4588 309.962 53.408V33.4691C309.962 29.4183 306.678 26.1345 302.627 26.1345Z" fill="#2A8BE9"/>
<path opacity="0.4" d="M302.627 26.1345H282.688C278.637 26.1345 275.354 29.4183 275.354 33.4691V53.408C275.354 57.4588 278.637 60.7426 282.688 60.7426H302.627C306.678 60.7426 309.962 57.4588 309.962 53.408V33.4691C309.962 29.4183 306.678 26.1345 302.627 26.1345Z" fill="white"/>
<path d="M292.658 33.2227C295.74 33.2227 297.28 35.6573 297.28 38.6774C297.28 41.6975 295.662 44.1321 292.658 44.1321C289.653 44.1321 288.035 41.6821 288.035 38.6774C288.035 35.6727 289.684 33.2227 292.658 33.2227Z" fill="white"/>
<path d="M304.707 53.6699H280.608C280.417 53.6664 280.235 53.5891 280.1 53.4542L281.64 49.2322C282.127 47.9073 283.008 46.7637 284.166 45.9562C285.323 45.1487 286.701 44.7163 288.112 44.7175H297.203C298.615 44.7141 299.994 45.1456 301.152 45.9534C302.31 46.7612 303.191 47.906 303.675 49.2322L305.216 53.4542C305.081 53.5891 304.898 53.6664 304.707 53.6699Z" fill="white"/>
<path d="M262.842 161.115H261.301V144.581C261.305 140.988 262.735 137.543 265.278 135.003C267.82 132.464 271.267 131.037 274.86 131.037H347.467V132.578H274.86C271.676 132.578 268.621 133.842 266.367 136.093C264.114 138.343 262.846 141.397 262.842 144.581V161.115Z" fill="black"/>
<path d="M272.643 148.896H252.704C248.653 148.896 245.369 152.18 245.369 156.23V176.169C245.369 180.22 248.653 183.504 252.704 183.504H272.643C276.693 183.504 279.977 180.22 279.977 176.169V156.23C279.977 152.18 276.693 148.896 272.643 148.896Z" fill="#2A8BE9"/>
<path opacity="0.4" d="M272.643 148.896H252.704C248.653 148.896 245.369 152.18 245.369 156.23V176.169C245.369 180.22 248.653 183.504 252.704 183.504H272.643C276.693 183.504 279.977 180.22 279.977 176.169V156.23C279.977 152.18 276.693 148.896 272.643 148.896Z" fill="white"/>
<path opacity="0.6" d="M255.555 169.359H251.256V177.633H255.555V169.359Z" fill="white"/>
<path opacity="0.6" d="M267.742 166.57H263.443V177.633H267.742V166.57Z" fill="white"/>
<path d="M261.426 163.781H257.127V177.633H261.426V163.781Z" fill="white"/>
<path d="M273.86 160.992H269.561V177.633H273.86V160.992Z" fill="white"/>
<path d="M353.278 104.781H260.332V106.322H353.278V104.781Z" fill="black"/>
<path d="M263.305 77.9079H243.35C241.405 77.9079 239.539 78.6807 238.164 80.0562C236.788 81.4317 236.016 83.2972 236.016 85.2425V105.197C236.016 107.142 236.788 109.008 238.164 110.383C239.539 111.759 241.405 112.531 243.35 112.531H263.305C264.267 112.531 265.22 112.342 266.109 111.973C266.998 111.604 267.806 111.063 268.485 110.382C269.165 109.701 269.704 108.892 270.071 108.002C270.438 107.113 270.626 106.159 270.624 105.197V85.2887C270.632 84.3224 270.449 83.364 270.084 82.4689C269.72 81.5737 269.182 80.7596 268.502 80.0734C267.821 79.3872 267.012 78.8426 266.12 78.4709C265.228 78.0992 264.271 77.9079 263.305 77.9079Z" fill="#2A8BE9"/>
<g opacity="0.4">
<path d="M263.305 77.9078H243.35C241.405 77.9078 239.539 78.6806 238.164 80.0561C236.788 81.4316 236.016 83.2972 236.016 85.2424V105.197C236.016 107.142 236.788 109.008 238.164 110.383C239.539 111.759 241.405 112.531 243.35 112.531H263.305C264.267 112.531 265.22 112.341 266.109 111.973C266.998 111.604 267.806 111.063 268.485 110.382C269.165 109.701 269.704 108.892 270.071 108.002C270.438 107.113 270.626 106.159 270.624 105.197V85.2886C270.632 84.3223 270.449 83.3639 270.084 82.4688C269.72 81.5737 269.182 80.7595 268.502 80.0733C267.821 79.3871 267.012 78.8425 266.12 78.4708C265.228 78.0991 264.271 77.9078 263.305 77.9078Z" fill="white"/>
</g>
<path d="M254.09 82.5306V85.7356C256.093 85.8994 257.995 86.6861 259.529 87.9853L261.794 85.7202C259.656 83.8241 256.943 82.7009 254.09 82.5306Z" fill="#2A8BE9"/>
<path opacity="0.6" d="M254.09 82.5306V85.7356C256.093 85.8994 257.995 86.6861 259.529 87.9853L261.794 85.7202C259.656 83.8241 256.943 82.7009 254.09 82.5306Z" fill="white"/>
<path d="M252.535 104.827C250.265 104.647 248.134 103.664 246.525 102.054C244.915 100.444 243.932 98.3135 243.752 96.044H240.547C240.737 99.1613 242.061 102.101 244.269 104.31C246.477 106.518 249.418 107.842 252.535 108.032V104.827Z" fill="#2A8BE9"/>
<path opacity="0.8" d="M252.535 104.827C250.265 104.647 248.134 103.664 246.525 102.054C244.915 100.444 243.932 98.3135 243.752 96.044H240.547C240.737 99.1613 242.061 102.101 244.269 104.31C246.477 106.518 249.418 107.842 252.535 108.032V104.827Z" fill="white"/>
<path d="M243.752 94.4878C243.935 92.2194 244.919 90.0901 246.528 88.4809C248.137 86.8718 250.267 85.8877 252.535 85.7048V82.5306C249.418 82.7205 246.477 84.0444 244.269 86.2528C242.061 88.4612 240.737 91.4013 240.547 94.5186L243.752 94.4878Z" fill="#2A8BE9"/>
<path opacity="0.7" d="M243.752 94.4878C243.935 92.2194 244.919 90.0901 246.528 88.4809C248.137 86.8718 250.267 85.8877 252.535 85.7048V82.5306C249.418 82.7205 246.477 84.0444 244.269 86.2528C242.061 88.4612 240.737 91.4013 240.547 94.5186L243.752 94.4878Z" fill="white"/>
<path d="M262.888 86.7834L260.623 89.0485C261.765 90.3942 262.514 92.0287 262.787 93.7724C263.061 95.5161 262.848 97.3014 262.173 98.9321C261.498 100.563 260.386 101.976 258.96 103.016C257.534 104.056 255.849 104.682 254.09 104.827V108.032C256.484 107.887 258.788 107.072 260.741 105.68C262.694 104.288 264.216 102.375 265.133 100.159C266.051 97.9432 266.327 95.5141 265.93 93.149C265.533 90.7839 264.479 88.5781 262.888 86.7834Z" fill="white"/>
<path d="M335.095 76.5674L339.425 76.3825L345.511 143.58H340.888C338.593 143.364 338.053 140.776 337.421 135.876L333.169 88.9561C332.183 77.908 334.078 76.5674 335.095 76.5674Z" fill="#2A8BE9"/>
<path opacity="0.3" d="M335.095 76.5674L339.425 76.3825L345.511 143.58H340.888C338.593 143.364 338.053 140.776 337.421 135.876L333.169 88.9561C332.183 77.908 334.078 76.5674 335.095 76.5674Z" fill="black"/>
<path d="M342.075 143.58H433.156C433.407 143.563 433.652 143.493 433.874 143.374C434.095 143.255 434.289 143.09 434.442 142.89C434.595 142.69 434.704 142.46 434.761 142.215C434.819 141.97 434.823 141.716 434.774 141.469L429.089 78.4781C429.061 77.9443 428.842 77.4383 428.471 77.0533C428.1 76.6683 427.602 76.4301 427.07 76.3825H335.912C335.661 76.3979 335.416 76.4664 335.194 76.5835C334.972 76.7007 334.777 76.8637 334.622 77.0619C334.468 77.2601 334.357 77.4888 334.298 77.733C334.239 77.9772 334.232 78.2312 334.278 78.4781L339.98 141.469C340.002 142.019 340.23 142.541 340.618 142.932C341.005 143.322 341.525 143.554 342.075 143.58Z" fill="#2A8BE9"/>
<path d="M345.494 135.614H428.208L423.617 83.1777H340.902L345.494 135.614Z" fill="#2A8BE9"/>
<path d="M346.697 139.728H428.194C428.731 139.738 429.263 139.633 429.756 139.421C430.249 139.209 430.691 138.894 431.053 138.497C431.415 138.1 431.688 137.631 431.854 137.121C432.02 136.61 432.075 136.07 432.016 135.537L427.47 83.4244C427.359 82.2774 426.823 81.2134 425.968 80.4409C425.112 79.6684 424 79.2432 422.847 79.2486H341.35C340.814 79.2365 340.282 79.3392 339.789 79.5497C339.296 79.7602 338.854 80.0737 338.492 80.4692C338.13 80.8647 337.857 81.3329 337.691 81.8426C337.525 82.3523 337.47 82.8916 337.529 83.4244L342.075 135.537C342.182 136.687 342.717 137.754 343.572 138.53C344.428 139.306 345.542 139.733 346.697 139.728Z" fill="#263238"/>
<path d="M345.494 135.614H428.208L423.617 83.1777H340.902L345.494 135.614Z" fill="#2A8BE9"/>
<path opacity="0.4" d="M345.494 135.614H428.208L423.617 83.1777H340.902L345.494 135.614Z" fill="white"/>
<path d="M352.244 107.308L352.83 106.014C353.543 106.515 354.393 106.784 355.264 106.784C356.281 106.784 356.697 106.445 356.697 105.998C356.697 104.611 352.398 105.567 352.398 102.824C352.398 101.561 353.4 100.513 355.48 100.513C356.377 100.497 357.261 100.726 358.038 101.175L357.514 102.47C356.891 102.108 356.185 101.912 355.465 101.9C354.448 101.9 354.062 102.269 354.062 102.732C354.062 104.103 358.361 103.163 358.361 105.813C358.361 107.046 357.329 108.094 355.28 108.094C354.211 108.147 353.152 107.873 352.244 107.308Z" fill="white"/>
<path d="M359.102 104.334C359.056 103.524 359.254 102.718 359.671 102.022C360.088 101.325 360.704 100.77 361.441 100.428C362.177 100.086 362.999 99.9726 363.8 100.103C364.601 100.234 365.345 100.602 365.934 101.16C366.524 101.718 366.932 102.44 367.106 103.233C367.28 104.026 367.213 104.853 366.912 105.606C366.61 106.36 366.09 107.006 365.417 107.461C364.745 107.915 363.951 108.157 363.139 108.155C362.62 108.185 362.1 108.108 361.611 107.929C361.122 107.75 360.675 107.473 360.297 107.115C359.919 106.758 359.618 106.326 359.412 105.848C359.207 105.37 359.101 104.855 359.102 104.334ZM365.466 104.334C365.457 103.876 365.313 103.431 365.052 103.054C364.791 102.678 364.424 102.387 363.998 102.218C363.572 102.049 363.106 102.009 362.658 102.104C362.21 102.199 361.799 102.424 361.479 102.751C361.158 103.078 360.941 103.493 360.855 103.943C360.768 104.393 360.817 104.859 360.995 105.281C361.172 105.703 361.47 106.064 361.852 106.318C362.233 106.572 362.681 106.707 363.139 106.707C363.451 106.716 363.762 106.66 364.051 106.543C364.34 106.427 364.603 106.251 364.821 106.029C365.039 105.806 365.209 105.54 365.321 105.249C365.432 104.957 365.481 104.646 365.466 104.334Z" fill="white"/>
<path d="M370.197 102.023V103.964H373.617V105.351H370.197V108.032H368.486V100.651H374.064V102.023H370.197Z" fill="white"/>
<path d="M376.822 102.038H374.434V100.651H380.874V102.038H378.517V108.032H376.807L376.822 102.038Z" fill="white"/>
<path d="M392.924 100.651L390.505 108.032H388.671L387.038 103.04L385.374 108.032H383.54L381.105 100.651H382.893L384.557 105.844L386.298 100.651H387.839L389.519 105.89L391.244 100.651H392.924Z" fill="white"/>
<path d="M398.424 106.445H395.003L394.341 107.986H392.6L395.882 100.605H397.546L400.843 107.986H399.087L398.424 106.445ZM397.885 105.151L396.714 102.331L395.543 105.151H397.885Z" fill="white"/>
<path d="M406.36 108.032L404.943 105.983H403.402V108.032H401.691V100.651H404.881C406.869 100.651 408.101 101.668 408.101 103.332C408.119 103.832 407.979 104.325 407.703 104.742C407.427 105.159 407.028 105.48 406.561 105.659L408.225 108.032H406.36ZM404.819 102.038H403.433V104.611H404.819C405.867 104.611 406.36 104.134 406.36 103.332C406.36 102.531 405.806 102.038 404.758 102.038H404.819Z" fill="white"/>
<path d="M415.142 106.661V108.032H409.426V100.651H415.004V102.023H411.121V103.563H414.495V104.889H411.059V106.599L415.142 106.661Z" fill="white"/>
<path d="M347.822 113.348H349.533V120.744H347.822V113.348Z" fill="white"/>
<path d="M358.069 113.348V120.744H356.667L352.984 116.261V120.744H351.32V113.348H352.738L356.405 117.848V113.348H358.069Z" fill="white"/>
<path d="M361.35 114.72H359.023V113.348H365.464V114.75H363.091V120.744H361.381L361.35 114.72Z" fill="white"/>
<path d="M372.076 119.342V120.714H366.359V113.348H371.937V114.735H368.054V116.276H371.49V117.601H368.054V119.311L372.076 119.342Z" fill="white"/>
<path d="M378.408 116.908H379.949V119.897C379.076 120.516 378.03 120.845 376.96 120.837C375.938 120.837 374.958 120.431 374.236 119.708C373.513 118.986 373.107 118.006 373.107 116.985C373.107 115.963 373.513 114.983 374.236 114.261C374.958 113.538 375.938 113.132 376.96 113.132C377.535 113.11 378.109 113.212 378.641 113.433C379.173 113.654 379.651 113.988 380.041 114.411L378.932 115.428C378.695 115.161 378.403 114.947 378.076 114.804C377.749 114.66 377.394 114.589 377.037 114.596C376.71 114.57 376.381 114.611 376.072 114.718C375.762 114.825 375.478 114.995 375.237 115.217C374.996 115.44 374.804 115.709 374.672 116.009C374.541 116.31 374.473 116.634 374.473 116.961C374.473 117.289 374.541 117.613 374.672 117.914C374.804 118.214 374.996 118.483 375.237 118.706C375.478 118.928 375.762 119.098 376.072 119.205C376.381 119.312 376.71 119.353 377.037 119.327C377.499 119.334 377.955 119.222 378.362 119.003L378.408 116.908Z" fill="white"/>
<path d="M386.284 120.714L384.851 118.649H383.31V120.714H381.6V113.348H384.805C386.777 113.348 388.01 114.381 388.01 116.029C388.03 116.532 387.892 117.028 387.616 117.448C387.34 117.869 386.938 118.191 386.469 118.372L388.133 120.744L386.284 120.714ZM384.666 114.72H383.279V117.293H384.666C385.714 117.293 386.207 116.815 386.207 115.999C386.207 115.182 385.714 114.72 384.666 114.72Z" fill="white"/>
<path d="M394.202 119.126H390.766L390.119 120.667H388.301L391.598 113.271H393.278L396.591 120.667H394.788L394.202 119.126ZM393.663 117.832L392.492 114.997L391.321 117.832H393.663Z" fill="white"/>
<path d="M398.594 114.72H396.221V113.348H402.662V114.75H400.289V120.744H398.594V114.72Z" fill="white"/>
<path d="M403.587 113.348H405.251V120.744H403.541L403.587 113.348Z" fill="white"/>
<path d="M406.592 117.015C406.549 116.209 406.748 115.408 407.165 114.717C407.581 114.025 408.196 113.474 408.929 113.135C409.661 112.796 410.479 112.685 411.276 112.816C412.073 112.946 412.812 113.313 413.398 113.868C413.985 114.423 414.391 115.141 414.565 115.929C414.739 116.718 414.673 117.54 414.375 118.291C414.077 119.041 413.56 119.685 412.892 120.138C412.225 120.592 411.436 120.836 410.629 120.837C410.109 120.866 409.589 120.789 409.1 120.61C408.611 120.431 408.164 120.154 407.786 119.797C407.408 119.439 407.107 119.008 406.902 118.529C406.696 118.051 406.591 117.536 406.592 117.015ZM412.94 117.015C412.928 116.561 412.782 116.12 412.521 115.748C412.26 115.377 411.895 115.09 411.471 114.924C411.048 114.759 410.586 114.722 410.141 114.818C409.697 114.914 409.291 115.139 408.974 115.464C408.657 115.79 408.443 116.202 408.358 116.648C408.274 117.095 408.323 117.556 408.5 117.975C408.677 118.394 408.973 118.751 409.351 119.003C409.73 119.254 410.174 119.388 410.629 119.388C410.941 119.399 411.253 119.345 411.543 119.229C411.834 119.114 412.097 118.938 412.316 118.715C412.535 118.492 412.705 118.225 412.815 117.933C412.925 117.64 412.973 117.328 412.956 117.015H412.94Z" fill="white"/>
<path d="M422.74 113.348V120.744H421.338L417.655 116.261V120.744H416.037V113.348H417.455L421.137 117.848V113.348H422.74Z" fill="white"/>
<path opacity="0.1" d="M369.287 79.264L353.139 139.697H358.578L374.557 79.264H369.287Z" fill="white"/>
<path opacity="0.1" d="M377.685 79.264L361.521 139.697H372.308L388.286 79.264H377.685Z" fill="white"/>
<path d="M340.902 83.1777L341.318 87.8774H424.033L423.617 83.1777H340.902Z" fill="#2A8BE9"/>
<path d="M344.709 85.2735C344.722 85.3936 344.709 85.5152 344.672 85.63C344.634 85.7449 344.572 85.8503 344.491 85.9394C344.409 86.0284 344.309 86.0989 344.198 86.1461C344.087 86.1934 343.967 86.2164 343.846 86.2135C343.588 86.211 343.341 86.1139 343.15 85.9405C342.96 85.7671 342.84 85.5297 342.814 85.2735C342.801 85.1527 342.813 85.0305 342.851 84.9149C342.888 84.7992 342.95 84.6929 343.031 84.6027C343.113 84.5125 343.212 84.4405 343.323 84.3915C343.435 84.3425 343.555 84.3175 343.676 84.3182C343.935 84.3244 344.183 84.4248 344.373 84.6007C344.563 84.7766 344.683 85.0159 344.709 85.2735Z" fill="white"/>
<path d="M347.207 85.2735C347.22 85.3936 347.207 85.5152 347.17 85.63C347.132 85.7449 347.071 85.8503 346.989 85.9394C346.907 86.0284 346.807 86.0989 346.696 86.1461C346.585 86.1934 346.465 86.2164 346.344 86.2135C346.086 86.211 345.839 86.1139 345.648 85.9405C345.458 85.7671 345.338 85.5297 345.312 85.2735C345.299 85.1527 345.311 85.0305 345.349 84.9149C345.386 84.7992 345.448 84.6929 345.529 84.6027C345.611 84.5125 345.71 84.4405 345.821 84.3915C345.933 84.3425 346.053 84.3175 346.174 84.3182C346.433 84.3244 346.681 84.4248 346.871 84.6007C347.061 84.7766 347.181 85.0159 347.207 85.2735Z" fill="white"/>
<path d="M349.779 85.2735C349.792 85.3936 349.78 85.5152 349.742 85.63C349.705 85.7449 349.643 85.8503 349.561 85.9394C349.479 86.0284 349.38 86.0989 349.268 86.1461C349.157 86.1934 349.037 86.2164 348.916 86.2135C348.659 86.211 348.411 86.1139 348.221 85.9405C348.03 85.7671 347.91 85.5297 347.884 85.2735C347.871 85.1527 347.883 85.0305 347.921 84.9149C347.958 84.7992 348.02 84.6929 348.101 84.6027C348.183 84.5125 348.283 84.4405 348.394 84.3915C348.505 84.3425 348.625 84.3175 348.747 84.3182C349.006 84.3244 349.253 84.4248 349.444 84.6007C349.634 84.7766 349.753 85.0159 349.779 85.2735Z" fill="white"/>
<path d="M435.945 143.765H343.107C342.018 143.765 341.135 144.648 341.135 145.737V146.924C341.135 148.013 342.018 148.896 343.107 148.896H435.945C437.034 148.896 437.917 148.013 437.917 146.924V145.737C437.917 144.648 437.034 143.765 435.945 143.765Z" fill="#2A8BE9"/>
<path d="M377.963 143.765H473.944V144.936C473.944 145.986 473.527 146.994 472.784 147.736C472.041 148.479 471.034 148.896 469.984 148.896H381.923C380.873 148.896 379.865 148.479 379.123 147.736C378.38 146.994 377.963 145.986 377.963 144.936V143.765Z" fill="#2A8BE9"/>
<path opacity="0.3" d="M377.963 143.765H473.944V144.936C473.944 145.986 473.527 146.994 472.784 147.736C472.041 148.479 471.034 148.896 469.984 148.896H381.923C380.873 148.896 379.865 148.479 379.123 147.736C378.38 146.994 377.963 145.986 377.963 144.936V143.765Z" fill="white"/>
<path opacity="0.3" d="M418.133 143.904C418.137 144.584 418.41 145.234 418.892 145.713C419.374 146.193 420.026 146.462 420.706 146.462H432.448C433.126 146.462 433.777 146.192 434.256 145.712C434.736 145.233 435.005 144.582 435.005 143.904H418.133Z" fill="black"/>
<path d="M297.82 248.051L287.897 245.17C286.933 244.845 285.935 244.633 284.923 244.538L278.266 244.261L272.827 241.98C272.531 241.81 272.198 241.715 271.857 241.705C271.516 241.695 271.177 241.769 270.872 241.922C270.566 242.075 270.304 242.301 270.107 242.58C269.911 242.859 269.786 243.182 269.745 243.521L269.391 247.188C269.359 247.554 269.423 247.921 269.577 248.253C269.731 248.586 269.97 248.872 270.269 249.084L278.282 254.693L289.484 252.813L299.53 257.666L300.717 248.945L297.82 248.051Z" fill="#B55B52"/>
<path d="M472.617 250.763L482.664 248.313C483.639 248.036 484.641 247.865 485.653 247.805H492.31L497.841 245.771C498.146 245.593 498.492 245.496 498.845 245.491C499.198 245.486 499.547 245.572 499.857 245.741C500.167 245.909 500.428 246.156 500.615 246.455C500.801 246.755 500.908 247.098 500.923 247.45L501.124 251.133C501.144 251.497 501.068 251.859 500.903 252.184C500.738 252.509 500.489 252.784 500.184 252.982L491.925 258.252L480.753 255.894L470.506 260.317L469.705 251.564L472.617 250.763Z" fill="#B55B52"/>
<path d="M360.319 530.062L357.946 551.865L346.035 550.602L347.252 526.826L360.319 530.062Z" fill="#B55B52"/>
<path d="M340.425 550.818C339.157 550.872 337.914 550.449 336.943 549.631C336.83 549.44 336.78 549.219 336.799 548.998C336.818 548.777 336.906 548.567 337.051 548.399C337.162 548.24 337.303 548.105 337.467 548.001C337.632 547.898 337.815 547.829 338.006 547.798C340.055 547.397 344.092 550.109 344.262 550.232C344.313 550.264 344.353 550.31 344.375 550.366C344.397 550.421 344.401 550.483 344.385 550.54C344.37 550.597 344.339 550.648 344.295 550.686C344.251 550.724 344.197 550.749 344.139 550.756C342.905 550.892 341.662 550.913 340.425 550.818ZM338.669 548.337C338.49 548.305 338.308 548.305 338.129 548.337C338.009 548.347 337.892 548.384 337.788 548.445C337.684 548.507 337.595 548.591 337.528 548.691C337.297 549.03 337.359 549.2 337.436 549.308C337.929 550.14 340.965 550.386 343.245 550.279C341.857 549.346 340.304 548.687 338.669 548.337Z" fill="#2A8BE9"/>
<path d="M344.094 550.756C344.054 550.772 344.01 550.772 343.97 550.756C342.583 550.017 339.872 547.181 340.241 545.841C340.241 545.517 340.565 545.132 341.351 545.117C341.636 545.109 341.92 545.16 342.185 545.266C342.45 545.372 342.69 545.531 342.892 545.733C344.34 547.104 344.433 550.356 344.433 550.541C344.434 550.59 344.421 550.639 344.397 550.683C344.373 550.726 344.337 550.762 344.294 550.787L344.094 550.756ZM341.505 545.641H341.351C340.827 545.641 340.781 545.856 340.75 545.933C340.611 546.735 342.368 548.923 343.832 549.924C343.797 548.546 343.34 547.212 342.522 546.103C342.26 545.848 341.916 545.696 341.551 545.671L341.505 545.641Z" fill="#2A8BE9"/>
<path d="M345.493 549.154L358.653 550.155C358.895 550.167 359.126 550.262 359.306 550.425C359.486 550.588 359.603 550.809 359.639 551.049L361.18 561.943C361.212 562.177 361.198 562.415 361.138 562.643C361.078 562.871 360.973 563.086 360.83 563.273C360.687 563.461 360.508 563.618 360.303 563.737C360.099 563.855 359.873 563.931 359.639 563.961H359.253C354.523 563.515 350.316 562.944 344.415 562.513C337.435 561.989 339.145 562.96 330.932 562.513C325.986 562.22 325.508 556.534 327.619 556.349C337.296 555.856 338.513 553.037 342.473 549.893C343.352 549.278 344.43 549.015 345.493 549.154Z" fill="#263238"/>
<path opacity="0.2" d="M346.572 540.016L355.463 539.693L359.1 541.203L358.606 545.81L346.295 545.086L346.572 540.016Z" fill="black"/>
<path d="M390.518 310.411L367.667 447.071L362.104 542.898L344.215 542.59C340.464 508.28 339.5 473.724 341.333 439.259C344.122 388.518 355.925 329.178 357.235 312.26L363.845 300.58L377.004 302.229L390.518 310.411Z" fill="#2A8BE9"/>
<path d="M424.988 554.377L435.158 553.222C435.158 553.222 434.865 549.03 434.357 542.266C434.249 540.725 434.126 539.184 434.002 537.381L422.322 539.462H422.199C422.199 539.724 422.307 539.985 422.353 540.232C422.6 541.603 422.862 542.867 423.078 544.084C424.233 550.448 424.988 554.377 424.988 554.377Z" fill="#B55B52"/>
<path d="M437.085 549.601C437.024 549.596 436.966 549.575 436.917 549.54C436.868 549.505 436.83 549.456 436.807 549.4C436.791 549.345 436.791 549.287 436.807 549.232C436.824 549.178 436.856 549.129 436.9 549.092C437.069 548.953 440.844 545.872 442.94 546.103C443.326 546.14 443.683 546.322 443.941 546.611C444.101 546.769 444.208 546.972 444.246 547.193C444.285 547.414 444.254 547.642 444.157 547.844C443.772 548.568 442.277 549.092 440.798 549.385C439.568 549.556 438.326 549.629 437.085 549.601ZM437.932 549.061C440.212 548.969 443.217 548.46 443.649 547.52C443.649 547.413 443.757 547.228 443.495 546.919C443.42 546.823 443.325 546.744 443.215 546.691C443.105 546.637 442.985 546.61 442.863 546.611C442.679 546.588 442.492 546.588 442.308 546.611C440.71 547.149 439.226 547.98 437.932 549.061Z" fill="#2A8BE9"/>
<path d="M436.931 549.601C436.882 549.584 436.84 549.554 436.809 549.512C436.779 549.471 436.762 549.421 436.762 549.369C436.762 549.215 436.53 545.933 437.856 544.439C438.045 544.212 438.28 544.029 438.546 543.902C438.812 543.774 439.102 543.705 439.396 543.699C440.198 543.699 440.506 543.992 440.583 544.315C441.061 545.625 438.611 548.691 437.285 549.554C437.251 549.567 437.212 549.567 437.178 549.554C437.145 549.585 437.105 549.606 437.061 549.614C437.017 549.622 436.972 549.617 436.931 549.601ZM439.242 544.254C438.887 544.317 438.566 544.502 438.333 544.778C437.612 545.956 437.268 547.327 437.347 548.707C438.688 547.582 440.229 545.24 440.028 544.454C440.028 544.454 439.92 544.177 439.412 544.223H439.242V544.254Z" fill="#2A8BE9"/>
<path d="M434.818 548.383L424.433 549.924C424.193 549.965 423.973 550.087 423.811 550.269C423.649 550.451 423.553 550.682 423.539 550.926L422.938 561.927C422.921 562.159 422.951 562.392 423.025 562.613C423.099 562.833 423.216 563.037 423.37 563.212C423.523 563.387 423.71 563.53 423.918 563.632C424.127 563.734 424.355 563.794 424.587 563.807C424.715 563.823 424.844 563.823 424.972 563.807C429.595 562.944 431.136 562.544 436.991 561.588C443.909 560.448 442.291 561.588 450.443 560.34C455.343 559.585 455.327 553.884 453.201 553.946C443.509 554.362 435.835 548.167 434.818 548.383Z" fill="#263238"/>
<path opacity="0.2" d="M423.031 544.1L434.357 542.266C434.249 540.725 434.125 539.184 434.002 537.381L422.322 539.462V540.247C422.553 541.619 422.815 542.882 423.031 544.1Z" fill="black"/>
<path opacity="0.2" d="M385.05 342.153L378.886 378.687C377.052 352.492 379.502 321.32 379.502 321.32L385.05 342.153Z" fill="black"/>
<path d="M410.12 307.005C410.12 307.005 424.635 412.463 430.043 439.598C434.851 463.697 435.729 539.924 435.729 539.924L419.812 541.711C419.812 541.711 410.721 499.769 407.716 470.276C406.668 459.983 406.961 451.355 406.021 446.054C404.773 439.058 364.186 326.112 371.736 308.284L410.12 307.005Z" fill="#2A8BE9"/>
<path d="M356.619 292.86C357.151 288.299 357.28 283.699 357.004 279.115C353.352 235.508 352.043 232.889 352.382 225.185C352.403 224.502 352.631 223.842 353.035 223.292C353.44 222.742 354.002 222.327 354.647 222.103C384.817 211.841 408.285 216.71 415.095 220.562C424.171 225.678 420.55 231.148 420.442 232.704C419.564 245.632 412.445 269.593 412.291 290.564C412.291 293.646 412.599 301.042 412.799 305.141C412.838 305.945 412.587 306.737 412.092 307.373C411.598 308.009 410.892 308.447 410.103 308.608C403.338 310.01 373.661 310.38 368.099 310.148C362.783 309.964 359.285 309.64 357.05 309.347C356.589 309.284 356.147 309.126 355.75 308.882C355.353 308.639 355.012 308.315 354.747 307.933C354.481 307.551 354.299 307.117 354.21 306.66C354.121 306.204 354.128 305.733 354.231 305.279C355.094 301.597 356.357 295.587 356.619 292.86Z" fill="#263238"/>
<path d="M392.923 195.615C391.783 202.364 392.245 212.272 397.068 216.664C397.068 216.664 396.976 223.536 378.115 231.425C370.997 221.749 376.051 217.172 376.051 217.172C383.555 215.2 381.736 212.133 380.303 206.925L392.923 195.615Z" fill="#B55B52"/>
<path opacity="0.2" d="M387.792 200.161L380.365 206.925C380.719 208.129 380.967 209.361 381.105 210.608C383.986 210.13 388.439 207.526 388.979 204.444C388.944 202.94 388.537 201.468 387.792 200.161Z" fill="black"/>
<path d="M401.427 183.843C398.684 194.953 397.745 199.699 391.011 204.414C380.872 211.533 367.898 205.708 367.204 193.997C366.65 183.458 371.272 167.001 383.091 164.613C385.695 164.065 388.397 164.191 390.939 164.98C393.481 165.769 395.779 167.194 397.616 169.12C399.452 171.047 400.767 173.41 401.434 175.987C402.101 178.563 402.098 181.267 401.427 183.843Z" fill="#B55B52"/>
<path d="M382.138 182.41C381.953 183.319 381.337 183.951 380.751 183.951C380.165 183.951 379.796 182.996 379.965 182.087C380.135 181.177 380.766 180.546 381.352 180.623C381.937 180.7 382.276 181.532 382.138 182.41Z" fill="#263238"/>
<path d="M371.905 180.623C371.736 181.547 371.104 182.164 370.519 182.164C369.933 182.164 369.563 181.208 369.733 180.299C369.902 179.39 370.534 178.758 371.12 178.851C371.705 178.943 372.075 179.698 371.905 180.623Z" fill="#263238"/>
<path d="M375.527 183.843C374.325 185.78 372.863 187.543 371.182 189.082C371.588 189.502 372.081 189.829 372.627 190.039C373.172 190.249 373.757 190.338 374.34 190.299L375.527 183.843Z" fill="#A02724"/>
<path d="M378.654 194.799C378.194 194.785 377.735 194.734 377.283 194.645C377.248 194.639 377.215 194.627 377.185 194.608C377.156 194.589 377.13 194.565 377.11 194.536C377.09 194.507 377.076 194.475 377.068 194.441C377.061 194.406 377.061 194.371 377.067 194.336C377.073 194.3 377.085 194.265 377.105 194.234C377.125 194.203 377.151 194.177 377.181 194.157C377.212 194.136 377.246 194.123 377.282 194.116C377.318 194.11 377.355 194.112 377.391 194.121C378.525 194.35 379.696 194.31 380.812 194.005C381.928 193.7 382.957 193.138 383.816 192.364C383.867 192.311 383.937 192.28 384.011 192.279C384.085 192.277 384.156 192.305 384.209 192.356C384.262 192.407 384.293 192.478 384.294 192.551C384.296 192.625 384.268 192.696 384.217 192.749C383.471 193.441 382.595 193.979 381.641 194.33C380.686 194.682 379.671 194.841 378.654 194.799Z" fill="#263238"/>
<path d="M387.021 181.008C386.907 181.029 386.789 181.012 386.686 180.959C386.583 180.906 386.5 180.82 386.451 180.715C385.964 179.969 385.328 179.331 384.583 178.843C383.838 178.355 383 178.027 382.121 177.88C381.976 177.857 381.846 177.778 381.759 177.659C381.673 177.541 381.637 177.393 381.659 177.248C381.681 177.107 381.759 176.981 381.875 176.897C381.99 176.813 382.134 176.779 382.275 176.801C383.33 176.968 384.337 177.362 385.225 177.955C386.113 178.548 386.863 179.327 387.422 180.237C387.481 180.367 387.489 180.514 387.443 180.649C387.397 180.783 387.301 180.895 387.175 180.961C387.128 180.988 387.075 181.004 387.021 181.008Z" fill="#263238"/>
<path d="M370.102 177.063C370.005 177.086 369.904 177.082 369.809 177.052C369.714 177.023 369.629 176.968 369.562 176.894C369.511 176.844 369.47 176.784 369.443 176.717C369.415 176.651 369.4 176.58 369.4 176.509C369.4 176.437 369.415 176.366 369.443 176.3C369.47 176.234 369.511 176.174 369.562 176.123C370.188 175.508 370.954 175.056 371.795 174.806C372.636 174.556 373.525 174.517 374.385 174.69C374.453 174.703 374.517 174.729 374.574 174.768C374.631 174.806 374.68 174.855 374.717 174.913C374.755 174.971 374.78 175.035 374.792 175.103C374.804 175.17 374.802 175.24 374.786 175.307C374.753 175.446 374.666 175.566 374.545 175.641C374.424 175.716 374.278 175.74 374.139 175.707C373.46 175.591 372.764 175.638 372.108 175.844C371.451 176.05 370.853 176.41 370.364 176.894C370.295 176.976 370.204 177.035 370.102 177.063Z" fill="#263238"/>
<path d="M399.086 215.986L397.099 215.647L386.051 221.672L382.63 221.795L376.066 216.217L373.862 216.741C371.817 223.065 371.424 229.807 372.722 236.325L376.435 254.97L380.318 275.386L381.151 273.507L384.232 266.48L388.454 258.468L396.159 238.868L398.347 230.794C399.643 225.97 399.87 220.921 399.009 216.001L399.086 215.986Z" fill="#263238"/>
<path opacity="0.2" d="M387.177 221.81C375.327 221.918 374.018 217.557 374.018 217.557V216.587C374.018 216.587 370.443 223.32 380.721 224.507C390.998 225.693 397.855 220.824 399.319 217.896C398.179 219.376 395.112 221.748 387.177 221.81Z" fill="black"/>
<path d="M400.997 168.573C400.617 166.776 399.76 165.115 398.516 163.765C397.872 163.116 397.002 162.742 396.088 162.722C395.174 162.702 394.287 163.037 393.616 163.658C392.611 162.519 391.357 161.629 389.95 161.057C388.544 160.485 387.025 160.247 385.511 160.36C384.073 160.486 382.688 160.962 381.477 161.746C380.266 162.531 379.265 163.599 378.561 164.859C377.19 167.402 372.86 168.296 369.994 168.588C371.874 170.484 376.527 171.67 378.854 170.391C378.284 171.285 375.68 171.763 374.617 171.932C376.329 172.964 378.231 173.64 380.21 173.92C381.203 174.043 382.209 173.864 383.1 173.408C383.99 172.952 384.722 172.239 385.203 171.362C384.775 172.083 384.593 172.924 384.684 173.758C384.776 174.592 385.136 175.373 385.711 175.985C386.299 176.59 387.067 176.988 387.9 177.122C388.733 177.255 389.586 177.116 390.334 176.724C389.859 176.576 389.448 176.271 389.168 175.86C388.889 175.449 388.756 174.955 388.793 174.459C388.809 173.927 388.989 173.414 389.31 172.989C389.63 172.564 390.074 172.248 390.58 172.086C390.73 173.512 391.433 174.823 392.537 175.738C393.554 176.524 394.448 176.847 395.08 177.972C395.711 179.097 394.956 181.824 392.938 181.64C393.847 182.61 397.56 182.256 397.976 180.992C397.649 182.586 396.982 184.09 396.019 185.401C395.056 186.712 393.821 187.8 392.398 188.589C393.137 188.63 393.865 188.786 394.556 189.051C394.959 189.142 395.341 189.312 395.677 189.553C396.013 189.794 396.297 190.1 396.513 190.453C396.711 190.995 396.801 191.57 396.777 192.147C396.754 192.723 396.617 193.289 396.374 193.812C395.445 196.675 394.333 199.475 393.046 202.195C394.887 201.699 396.592 200.791 398.031 199.539C399.47 198.287 400.605 196.724 401.351 194.968C403.111 194.362 404.622 193.193 405.65 191.641C406.678 190.09 407.165 188.242 407.037 186.385C408.86 184.778 410.096 182.61 410.55 180.222C410.702 179.07 410.425 177.903 409.771 176.942C409.117 175.982 408.133 175.295 407.006 175.014C407.381 174.1 407.502 173.102 407.355 172.125C407.209 171.149 406.8 170.23 406.174 169.467C405.893 169.068 405.536 168.728 405.123 168.468C404.711 168.207 404.251 168.03 403.77 167.947C403.29 167.864 402.797 167.876 402.321 167.984C401.845 168.091 401.395 168.291 400.997 168.573Z" fill="#263238"/>
<path d="M400.965 191.933C399.959 193.697 398.298 194.992 396.342 195.538C393.738 196.232 392.459 193.874 393.261 191.409C393.954 189.205 396.142 186.185 398.762 186.54C399.211 186.616 399.641 186.78 400.027 187.023C400.413 187.266 400.747 187.583 401.01 187.955C401.273 188.327 401.461 188.747 401.561 189.192C401.662 189.636 401.674 190.097 401.597 190.546C401.497 191.051 401.28 191.526 400.965 191.933Z" fill="#B55B52"/>
<path d="M396.005 183.936L388.424 182.641C387.792 180.7 385.049 180.237 383.894 180.037C382.738 179.837 379.795 179.344 378.624 181.208L375.989 180.746C375.496 178.62 372.599 178.111 371.366 177.911C370.134 177.71 366.205 177.032 365.65 180.238C365.573 181.532 365.977 182.809 366.783 183.825C367.589 184.84 368.741 185.523 370.019 185.743C371.297 185.962 372.611 185.702 373.709 185.014C374.808 184.325 375.614 183.255 375.974 182.009C375.989 181.835 375.989 181.66 375.974 181.486L378.239 181.871C378.187 182.038 378.146 182.207 378.115 182.379C378.044 183.672 378.45 184.946 379.258 185.958C380.065 186.97 381.217 187.649 382.493 187.866C383.77 188.084 385.081 187.823 386.178 187.135C387.274 186.447 388.08 185.38 388.439 184.136C388.462 183.885 388.462 183.632 388.439 183.381L395.774 184.644C396.774 184.812 397.685 185.324 398.347 186.093L398.886 185.631C398.145 184.756 397.13 184.159 396.005 183.936ZM370.18 185.045C369.07 184.921 368.053 184.368 367.345 183.504C366.637 182.641 366.294 181.535 366.389 180.422C366.698 178.666 368.146 178.142 371.274 178.666C374.402 179.19 375.604 180.207 375.296 181.948C375.015 183.036 374.319 183.97 373.356 184.55C372.394 185.129 371.242 185.307 370.149 185.045H370.18ZM382.676 187.171C381.568 187.047 380.552 186.494 379.847 185.63C379.141 184.766 378.802 183.66 378.901 182.549C379.194 180.792 380.658 180.268 383.786 180.808C386.914 181.347 388.1 182.348 387.808 184.074C387.527 185.166 386.829 186.103 385.862 186.682C384.896 187.262 383.74 187.438 382.646 187.171H382.676Z" fill="#263238"/>
<path d="M295.849 246.572C307.21 249.509 319.018 250.314 330.673 248.945C336.716 238.378 344.904 229.193 354.71 221.98L359.025 238.159C359.025 238.159 346.174 258.576 335.773 263.275C327.529 267.004 302.798 260.363 292.875 257.435C293.023 253.635 294.04 249.918 295.849 246.572Z" fill="#263238"/>
<path d="M475.25 248.39C463.842 251.044 452.041 251.566 440.442 249.931C434.64 239.228 426.656 229.863 417.005 222.442L412.383 238.513C412.383 238.513 424.787 259.223 435.095 264.138C443.247 268.036 468.116 261.934 478.101 259.238C477.984 255.453 477.01 251.744 475.25 248.39Z" fill="#263238"/>
<path d="M374.062 213.181V217.557C374.062 217.557 374.987 222.303 386.836 222.18C398.686 222.057 400.073 216.463 400.073 216.463V213.289C400.08 212.754 399.968 212.224 399.745 211.738C399.522 211.251 399.193 210.821 398.783 210.477C398.373 210.133 397.892 209.885 397.374 209.75C396.856 209.616 396.314 209.598 395.789 209.699C389.939 210.619 383.981 210.619 378.13 209.699C377.63 209.634 377.121 209.675 376.637 209.819C376.154 209.963 375.706 210.207 375.322 210.536C374.939 210.864 374.628 211.269 374.411 211.725C374.194 212.18 374.076 212.677 374.062 213.181Z" fill="#263238"/>
</svg>
