<?xml version="1.0" encoding="utf-8"?>
<!-- Generator: Adobe Illustrator 16.0.0, SVG Export Plug-In . SVG Version: 6.00 Build 0)  -->
<!DOCTYPE svg PUBLIC "-//W3C//DTD SVG 1.1//EN" "http://www.w3.org/Graphics/SVG/1.1/DTD/svg11.dtd">
<svg version="1.1" id="Layer_1" xmlns="http://www.w3.org/2000/svg" xmlns:xlink="http://www.w3.org/1999/xlink" x="0px" y="0px"
	 width="43px" height="39.242px" viewBox="0 0 43 39.242" enable-background="new 0 0 43 39.242" xml:space="preserve">
<path id="Path_477" fill="#0C4072" d="M21.509-0.005c-0.54-0.003-1.021,0.337-1.2,0.847l-1.208,3.481L15.418,4.4
	c-0.698,0.014-1.252,0.592-1.238,1.29c0.008,0.386,0.192,0.747,0.499,0.98l2.935,2.223l-1.065,3.522
	c-0.198,0.67,0.184,1.374,0.854,1.572c0.367,0.108,0.763,0.045,1.078-0.172l3.024-2.1l3.021,2.1
	c0.574,0.398,1.363,0.256,1.762-0.317c0.219-0.316,0.283-0.714,0.173-1.083l-1.06-3.52l2.936-2.223
	C28.892,6.25,29,5.457,28.577,4.901c-0.233-0.307-0.594-0.491-0.979-0.499l-3.683-0.077l-1.214-3.478
	C22.523,0.34,22.045,0.001,21.508,0L21.509-0.005z M21.509,5.106l0.3,0.872l0,0c0.174,0.5,0.64,0.838,1.169,0.849l0.92,0.02
	l-0.733,0.556c-0.422,0.319-0.601,0.867-0.447,1.373l0.269,0.884l-0.76-0.529c-0.435-0.301-1.01-0.301-1.443,0l-0.761,0.526
	l0.269-0.882c0.153-0.506-0.025-1.054-0.447-1.373L19.11,6.846l0.921-0.02c0.528-0.011,0.994-0.35,1.168-0.849L21.509,5.106z
	 M6.46,10.206c-0.539,0.001-1.017,0.344-1.191,0.853l-1,2.895l-3.041,0.064c-0.538,0.013-1.007,0.365-1.171,0.877
	c-0.165,0.512,0.009,1.071,0.435,1.4l2.421,1.853l-0.872,2.948c-0.155,0.516,0.031,1.074,0.465,1.394
	c0.433,0.317,1.02,0.324,1.459,0.017l2.495-1.751l2.5,1.751c0.44,0.308,1.026,0.301,1.459-0.017c0.434-0.319,0.62-0.878,0.465-1.394
	l-0.883-2.937l2.423-1.853c0.426-0.329,0.6-0.888,0.435-1.4c-0.164-0.512-0.633-0.864-1.171-0.877l-3.041-0.064l-1-2.895
	c-0.174-0.509-0.653-0.852-1.191-0.853L6.46,10.206z M36.535,10.206L36.535,10.206c-0.539,0-1.018,0.343-1.191,0.852l-1,2.9
	l-3.041,0.064c-0.538,0.012-1.01,0.364-1.174,0.877c-0.166,0.514,0.009,1.078,0.438,1.406l2.424,1.85l-0.879,2.935
	c-0.158,0.518,0.027,1.08,0.465,1.4c0.434,0.318,1.021,0.323,1.462,0.014l2.495-1.751l2.5,1.751
	c0.439,0.309,1.026,0.302,1.459-0.016c0.434-0.32,0.619-0.878,0.465-1.395l-0.882-2.935l2.426-1.85
	c0.429-0.329,0.604-0.892,0.438-1.406c-0.164-0.513-0.636-0.865-1.174-0.877l-3.041-0.064l-1-2.9
	c-0.175-0.508-0.651-0.85-1.188-0.852L36.535,10.206z M6.461,15.352l0.1,0.279l0,0c0.171,0.5,0.637,0.841,1.166,0.852l0.292,0.005
	l-0.235,0.18l0,0c-0.419,0.323-0.595,0.872-0.442,1.378l0.084,0.284l-0.24-0.168c-0.432-0.304-1.008-0.304-1.44,0l-0.24,0.168
	l0.084-0.284c0.151-0.507-0.026-1.056-0.447-1.378l-0.235-0.18l0.3-0.005l0,0c0.529-0.011,0.994-0.352,1.166-0.852L6.461,15.352z
	 M36.536,15.357l0.101,0.277l0,0c0.17,0.5,0.635,0.84,1.162,0.852l0.294,0.008l-0.235,0.178l0,0
	c-0.42,0.322-0.597,0.871-0.444,1.378l0.086,0.284l-0.242-0.168c-0.431-0.303-1.007-0.303-1.438,0l-0.241,0.168l0.086-0.284
	c0.151-0.507-0.026-1.056-0.447-1.378l-0.235-0.178l0.301-0.008l0,0c0.527-0.013,0.992-0.353,1.162-0.853L36.536,15.357z
	 M21.429,15.826c-3.314-0.018-6.014,2.655-6.031,5.969c-0.009,1.668,0.678,3.265,1.894,4.406c-3.689,1.623-6.072,5.27-6.077,9.3
	v2.474c-0.003,0.697,0.56,1.266,1.258,1.27c0.001,0,0.002,0,0.004,0h17.9c0.699,0.002,1.268-0.562,1.27-1.26c0-0.004,0-0.007,0-0.01
	v-2.479c-0.004-4.03-2.388-7.677-6.076-9.3c2.416-2.268,2.537-6.064,0.27-8.481c-1.143-1.216-2.738-1.902-4.407-1.894L21.429,15.826
	z M21.338,18.358h0.091c1.913,0.025,3.444,1.596,3.418,3.509s-1.597,3.443-3.51,3.418s-3.443-1.596-3.418-3.509
	C17.944,19.898,19.46,18.383,21.338,18.358z M21.429,27.857c4.206-0.037,7.647,3.342,7.684,7.547
	c0.001,0.031,0.001,0.062,0.001,0.092v1.213H13.745v-1.214c-0.014-4.205,3.384-7.625,7.589-7.638c0.031-0.001,0.062,0,0.092,0
	H21.429z"/>
</svg>
