<?xml version="1.0" encoding="utf-8"?>
<!-- Generator: Adobe Illustrator 16.0.0, SVG Export Plug-In . SVG Version: 6.00 Build 0)  -->
<!DOCTYPE svg PUBLIC "-//W3C//DTD SVG 1.1//EN" "http://www.w3.org/Graphics/SVG/1.1/DTD/svg11.dtd">
<svg version="1.1" id="Layer_1" xmlns="http://www.w3.org/2000/svg" xmlns:xlink="http://www.w3.org/1999/xlink" x="0px" y="0px"
	 width="24px" height="24px" viewBox="0 0 24 24" enable-background="new 0 0 24 24" xml:space="preserve">
<g transform="translate(0.000000,512.000000) scale(0.100000,-0.100000)">
	<path fill="#0C4072" d="M118.828,5119.111c-2.295-1.074-4.639-3.467-5.576-5.762c-1.035-2.393-0.938-7.173,0.137-9.517
		c0.845-1.924,3.516-4.595,5.488-5.483c1.03-0.518,1.123-0.801,1.123-4.453v-3.892h-6.562c-8.999,0-8.438,0.747-8.438-11.25
		c0-12.002-0.562-11.25,8.438-11.25H120v-3.75v-3.75h-15H90l0.049,7.642v7.593l2.202,1.406c3.423,2.202,4.966,4.78,5.156,8.672
		c0.234,3.936-0.425,6.094-2.671,8.579c-2.3,2.578-4.736,3.608-8.486,3.608c-4.873,0-8.765-2.485-10.498-6.655
		c-1.035-2.393-0.938-7.173,0.137-9.517c0.845-1.924,3.516-4.595,5.488-5.483c1.123-0.518,1.123-0.566,1.123-8.11v-7.642
		l-4.546-0.186c-3.843-0.142-5.063-0.425-7.407-1.548c-3.564-1.689-7.173-5.298-8.906-8.906c-1.172-2.344-1.406-3.472-1.548-7.358
		l-0.186-4.595h-7.642c-7.549,0-7.593,0-8.11,1.123c-0.889,1.968-3.56,4.644-5.483,5.483c-2.529,1.172-7.358,1.172-9.844,0
		c-4.077-1.875-6.328-5.625-6.328-10.449c0.049-4.785,2.529-8.721,6.655-10.41c2.393-1.03,7.173-0.938,9.517,0.142
		c1.924,0.845,4.595,3.516,5.483,5.483c0.518,1.128,0.562,1.128,8.203,1.128H60v-11.25v-11.25h-6.562
		c-8.765,0-8.438,0.327-8.438-8.438v-6.563h-3.75H37.5v6.563c0,8.765,0.376,8.438-8.579,8.438c-6.655,0-6.748,0-7.266,1.123
		c-0.889,1.968-3.56,4.644-5.483,5.483c-2.529,1.172-7.358,1.172-9.844,0C2.251,5012.236,0,5008.486,0,5003.662
		c0-3.657,1.079-6.138,3.608-8.394c2.485-2.246,4.644-2.9,8.579-2.666c3.892,0.186,6.47,1.729,8.672,5.156l1.406,2.197h3.892
		l3.843,0.049v-6.563c0-8.999-0.752-8.433,11.25-8.433s11.25-0.566,11.25,8.433v6.563h3.75H60v-14.995v-15h-7.642
		c-7.642,0-7.686,0-8.203,1.123c-0.889,1.973-3.56,4.639-5.483,5.488c-2.529,1.172-7.358,1.172-9.844,0
		c-4.077-1.875-6.328-5.625-6.328-10.459c0-3.652,1.079-6.133,3.608-8.389c2.485-2.246,4.644-2.9,8.579-2.666
		c3.892,0.186,6.47,1.729,8.672,5.156l1.406,2.197h7.549l7.593,0.049l0.186-4.59c0.142-3.896,0.376-5.02,1.548-7.363
		c1.733-3.613,5.342-7.217,8.906-8.906c2.344-1.123,3.564-1.406,7.407-1.543l4.546-0.195v-7.637c0-7.549,0-7.598-1.123-8.105
		c-1.973-0.898-4.644-3.564-5.488-5.488c-1.074-2.344-1.172-7.129-0.137-9.512c1.733-4.18,5.625-6.66,10.498-6.66
		s8.765,2.48,10.498,6.66c1.035,2.383,0.938,7.168-0.137,9.512c-0.845,1.924-3.516,4.59-5.488,5.488
		C90,4924.677,90,4924.726,90,4932.373v7.637h11.25h11.25v-6.563c0-8.77-0.327-8.438,8.437-8.438h6.563v-3.75v-3.75h-6.563
		c-8.765,0-8.437,0.371-8.437-8.574c0-6.66,0-6.758-1.123-7.266c-1.973-0.898-4.644-3.564-5.488-5.488
		c-1.074-2.344-1.172-7.129-0.137-9.512c1.733-4.18,5.625-6.66,10.498-6.66c4.873,0,8.77,2.48,10.498,6.66
		c1.035,2.383,0.938,7.168-0.137,9.512c-0.85,1.924-3.516,4.59-5.488,5.488c-1.03,0.508-1.123,0.791-1.123,4.453v3.887h6.563
		c9.004,0,8.438-0.752,8.438,11.25s0.566,11.25-8.438,11.25H120v3.75v3.75h15h15v-7.637c0-7.646,0-7.695-1.123-8.203
		c-1.973-0.898-4.639-3.564-5.488-5.488c-1.074-2.344-1.172-7.129-0.137-9.512c1.729-4.18,5.625-6.66,10.498-6.66
		s8.77,2.48,10.498,6.66c1.035,2.383,0.938,7.168-0.137,9.512c-0.85,1.924-3.516,4.59-5.488,5.488
		c-1.123,0.508-1.123,0.557-1.123,8.105v7.637l4.59,0.195c3.896,0.137,5.02,0.371,7.363,1.543c3.564,1.738,7.168,5.342,8.906,8.906
		c1.172,2.344,1.406,3.467,1.543,7.363l0.195,4.59l7.588-0.049h7.549l1.406-2.197c2.207-3.428,4.785-4.971,8.672-5.156
		c3.936-0.234,6.094,0.42,8.574,2.666c2.578,2.295,3.613,4.736,3.613,8.486s-1.035,6.191-3.613,8.486
		c-2.48,2.246-4.639,2.9-8.574,2.666c-3.887-0.186-6.465-1.729-8.672-5.156l-1.406-2.197h-7.598l-7.637-0.049v11.25v11.245h6.563
		c8.77,0,8.438-0.332,8.438,8.438v6.563h3.75h3.75v-6.563c0-8.77-0.332-8.438,8.574-8.486h6.66l1.406-2.197
		c2.207-3.423,4.785-4.966,8.672-5.151c3.936-0.234,6.094,0.42,8.574,2.666c2.578,2.29,3.613,4.731,3.613,8.481
		c0,4.873-2.48,8.765-6.66,10.498c-2.383,1.03-7.168,0.938-9.512-0.142c-1.924-0.84-4.59-3.516-5.488-5.483
		c-0.508-1.025-0.791-1.123-4.453-1.123H210v6.563c0,8.999,0.752,8.438-11.25,8.438s-11.25,0.562-11.25-8.438v-6.563h-3.75H180v15
		v15l7.637-0.049h7.598l1.406-2.202c2.207-3.423,4.785-4.971,8.672-5.156c3.936-0.234,6.094,0.42,8.574,2.671
		c2.539,2.251,3.613,4.736,3.613,8.394c0,4.824-2.246,8.574-6.328,10.449c-2.48,1.172-7.314,1.172-9.844,0
		c-1.924-0.84-4.59-3.516-5.488-5.483c-0.508-1.123-0.557-1.123-8.105-1.123h-7.637l-0.195,4.595
		c-0.137,3.887-0.371,5.015-1.543,7.358c-1.738,3.56-5.342,7.173-8.906,8.906c-2.344,1.172-3.467,1.406-7.363,1.548l-4.59,0.186
		l0.049,7.593v7.549l2.197,1.406c3.428,2.202,4.971,4.78,5.156,8.672c0.234,3.936-0.42,6.094-2.666,8.579
		c-2.295,2.578-4.736,3.608-8.486,3.608c-4.873,0-8.77-2.485-10.498-6.655c-1.035-2.393-0.938-7.173,0.137-9.517
		c0.85-1.924,3.516-4.595,5.488-5.483c1.123-0.518,1.123-0.566,1.123-8.203v-7.642h-11.25H127.5v6.563
		c0,5.952-0.098,6.655-0.938,7.5s-1.543,0.938-7.5,0.938H112.5v3.75v3.75h6.563c8.77,0,8.437-0.327,8.486,8.579v6.655l2.197,1.406
		c3.428,2.202,4.971,4.78,5.156,8.672c0.098,1.782-0.039,3.936-0.371,4.922c-0.752,2.344-3.516,5.342-5.859,6.372
		C126.143,5120.283,121.313,5120.283,118.828,5119.111z M126.094,5111.098c0.518-0.518,0.938-1.548,0.938-2.344
		s-0.42-1.831-0.938-2.344c-0.518-0.518-1.548-0.938-2.344-0.938s-1.826,0.42-2.344,0.938c-0.518,0.513-0.938,1.548-0.938,2.344
		s0.42,1.826,0.938,2.344c0.518,0.513,1.548,0.938,2.344,0.938S125.576,5111.611,126.094,5111.098z M88.594,5088.598
		c0.518-0.518,0.938-1.548,0.938-2.344s-0.42-1.831-0.938-2.344c-0.518-0.518-1.548-0.938-2.344-0.938s-1.826,0.42-2.344,0.938
		c-0.518,0.513-0.938,1.548-0.938,2.344s0.42,1.826,0.938,2.344c0.518,0.513,1.548,0.938,2.344,0.938
		S88.076,5089.111,88.594,5088.598z M156.094,5088.598c0.518-0.518,0.938-1.548,0.938-2.344s-0.42-1.831-0.938-2.344
		c-0.518-0.518-1.543-0.938-2.344-0.938s-1.826,0.42-2.344,0.938c-0.518,0.513-0.938,1.548-0.938,2.344s0.42,1.826,0.938,2.344
		c0.518,0.513,1.543,0.938,2.344,0.938S155.576,5089.111,156.094,5088.598z M165.469,5051.284c2.529-1.172,5.293-4.077,6.143-6.563
		c0.557-1.499,0.654-9.609,0.654-44.717c0-47.524,0.186-44.946-3.145-48.56c-3.604-3.936-0.654-3.701-49.121-3.701
		s-45.518-0.234-49.126,3.701c-3.325,3.613-3.14,1.035-3.14,48.56c0,47.202-0.142,44.951,2.954,48.374
		c1.968,2.158,3.843,3.232,6.421,3.701c1.03,0.19,20.859,0.283,44.062,0.234C162.891,5052.27,163.359,5052.27,165.469,5051.284z
		 M36.094,5036.098c0.518-0.518,0.938-1.548,0.938-2.344s-0.42-1.831-0.938-2.344c-2.017-2.017-5.625-0.518-5.625,2.344
		c0,1.782,1.499,3.281,3.281,3.281C34.546,5037.036,35.576,5036.611,36.094,5036.098z M208.594,5036.098
		c0.518-0.518,0.938-1.548,0.938-2.344s-0.42-1.831-0.938-2.344c-0.518-0.518-1.543-0.938-2.344-0.938s-1.826,0.42-2.344,0.938
		c-0.518,0.513-0.938,1.548-0.938,2.344s0.42,1.826,0.938,2.344c0.518,0.513,1.543,0.938,2.344,0.938
		S208.076,5036.611,208.594,5036.098z M13.594,5006.098c2.017-2.017,0.518-5.625-2.344-5.625c-1.782,0-3.281,1.499-3.281,3.281
		s1.499,3.281,3.281,3.281C12.046,5007.036,13.076,5006.611,13.594,5006.098z M231.094,4998.598
		c0.518-0.518,0.938-1.543,0.938-2.344s-0.42-1.826-0.938-2.344s-1.543-0.938-2.344-0.938s-1.826,0.42-2.344,0.938
		s-0.938,1.543-0.938,2.344s0.42,1.826,0.938,2.344c0.518,0.508,1.543,0.938,2.344,0.938S230.576,4999.106,231.094,4998.598z
		 M36.094,4968.603c0.518-0.518,0.938-1.543,0.938-2.344s-0.42-1.826-0.938-2.344c-2.017-2.012-5.625-0.518-5.625,2.344
		c0,1.777,1.499,3.281,3.281,3.281C34.546,4969.541,35.576,4969.121,36.094,4968.603z M208.594,4968.603
		c0.518-0.518,0.938-1.543,0.938-2.344s-0.42-1.826-0.938-2.344s-1.543-0.938-2.344-0.938s-1.826,0.42-2.344,0.938
		s-0.938,1.543-0.938,2.344s0.42,1.826,0.938,2.344s1.543,0.938,2.344,0.938S208.076,4969.121,208.594,4968.603z M88.594,4916.103
		c0.518-0.518,0.938-1.543,0.938-2.344s-0.42-1.826-0.938-2.344c-2.017-2.012-5.625-0.518-5.625,2.344
		c0,1.777,1.499,3.281,3.281,3.281C87.046,4917.041,88.076,4916.621,88.594,4916.103z M156.094,4916.103
		c0.518-0.518,0.938-1.543,0.938-2.344s-0.42-1.826-0.938-2.344c-2.012-2.012-5.625-0.518-5.625,2.344
		c0,1.777,1.504,3.281,3.281,3.281C154.551,4917.041,155.576,4916.621,156.094,4916.103z M118.594,4893.603
		c2.017-2.012,0.518-5.625-2.344-5.625c-1.782,0-3.281,1.504-3.281,3.281s1.499,3.281,3.281,3.281
		C117.046,4894.541,118.076,4894.121,118.594,4893.603z"/>
	<path fill="#0C4072" d="M75.937,5044.067C75,5043.129,75,5042.519,75,5000.004s0-43.12,0.938-44.058s1.548-0.938,44.062-0.938
		c42.52,0,43.125,0,44.063,0.938s0.938,1.543,0.938,44.058s0,43.125-0.938,44.063s-1.543,0.938-44.063,0.938
		C77.485,5045.004,76.875,5045.004,75.937,5044.067z M157.5,5000.004v-37.495H120H82.5v37.495v37.5H120h37.5V5000.004z"/>
	<path fill="#0C4072" d="M117.187,5021.567c-0.518-0.518-0.938-1.362-0.938-1.875c0-0.752-0.327-0.938-1.406-0.938
		c-3.33,0-7.314-2.861-8.955-6.328c-0.562-1.221-0.889-2.954-0.889-4.922c0-3.608,1.03-6.094,3.33-8.301
		c2.529-2.383,4.453-2.949,10.029-2.949c7.266,0,9.424-1.27,8.486-4.971c-0.518-1.958-2.676-2.524-9.893-2.524
		c-5.718,0-6.421-0.098-7.266-0.938c-0.61-0.605-0.938-1.543-0.938-2.813c0-2.813,1.172-3.75,4.688-3.75
		c2.485,0,2.813-0.098,2.813-0.938c0-1.543,1.641-2.813,3.75-2.813c2.109,0,3.75,1.27,3.75,2.813c0,0.752,0.327,0.938,1.543,0.938
		c3.33,0.049,7.5,3.096,8.955,6.66c0.42,0.977,0.752,3.042,0.752,4.585c0,3.379-0.889,5.723-2.949,7.92
		c-2.539,2.671-4.551,3.33-10.317,3.33c-7.358,0-9.517,1.216-8.579,4.966c0.518,1.973,2.676,2.534,9.893,2.534
		c5.723,0,6.426,0.093,7.266,0.938c0.605,0.61,0.938,1.548,0.938,2.813c0,2.813-1.172,3.75-4.688,3.75
		c-2.485,0-2.813,0.093-2.813,0.938c0,1.548-1.641,2.813-3.75,2.813C118.735,5022.504,117.798,5022.177,117.187,5021.567z"/>
</g>
</svg>
