<svg width="550" height="331" viewBox="0 0 550 331" fill="none" xmlns="http://www.w3.org/2000/svg">
<path d="M119.024 223.361H9.36133V307.94H119.024V223.361Z" fill="#EBEBEB"/>
<path d="M91.5546 307.338C91.4293 307.338 91.3291 288.492 91.3291 265.237C91.3291 241.982 91.4293 223.127 91.5546 223.127C91.6798 223.127 91.7717 241.982 91.7717 265.237C91.7717 288.492 91.6715 307.338 91.5546 307.338Z" fill="#E0E0E0"/>
<path d="M109.732 288.682H101.323V298.184H109.732V288.682Z" fill="#FAFAFA"/>
<path d="M55.2797 223.578H42.8213V241.623H55.2797V223.578Z" fill="#E0E0E0"/>
<path d="M55.2797 289.635H42.8213V307.679H55.2797V289.635Z" fill="#E0E0E0"/>
<path d="M136.177 138.973H26.5146V223.551H136.177V138.973Z" fill="#EBEBEB"/>
<path d="M108.695 222.95C108.578 222.95 108.478 204.104 108.478 180.848C108.478 157.593 108.578 138.747 108.695 138.747C108.812 138.747 108.912 157.593 108.912 180.848C108.912 204.104 108.82 222.95 108.695 222.95Z" fill="#E0E0E0"/>
<path d="M126.874 204.296H118.466V213.798H126.874V204.296Z" fill="#FAFAFA"/>
<path d="M72.4223 139.189H59.9639V157.234H72.4223V139.189Z" fill="#E0E0E0"/>
<path d="M72.4223 205.256H59.9639V223.3H72.4223V205.256Z" fill="#E0E0E0"/>
<path d="M128.635 71.1875H40.458V139.191H128.635V71.1875Z" fill="#F5F5F5"/>
<path d="M106.544 138.716C106.452 138.716 106.368 123.552 106.368 104.856C106.368 86.1604 106.452 71.0049 106.544 71.0049C106.635 71.0049 106.719 86.1604 106.719 104.856C106.719 123.552 106.644 138.716 106.544 138.716Z" fill="#E0E0E0"/>
<path d="M121.162 123.708H114.398V131.348H121.162V123.708Z" fill="#FAFAFA"/>
<path d="M77.3751 71.3613H67.3633V85.8739H77.3751V71.3613Z" fill="#E0E0E0"/>
<path d="M77.3751 124.479H67.3633V138.992H77.3751V124.479Z" fill="#E0E0E0"/>
<path d="M522.246 118.399H439.421V182.278H522.246V118.399Z" fill="#F5F5F5"/>
<path d="M501.497 181.834C501.405 181.834 501.33 167.589 501.33 150.029C501.33 132.468 501.405 118.231 501.497 118.231C501.589 118.231 501.656 132.468 501.656 150.029C501.656 167.589 501.589 181.834 501.497 181.834Z" fill="#E0E0E0"/>
<path d="M515.213 167.74H508.867V174.921H515.213V167.74Z" fill="#FAFAFA"/>
<path d="M474.099 118.564H464.688V132.192H474.099V118.564Z" fill="#E0E0E0"/>
<path d="M474.099 168.464H464.688V182.091H474.099V168.464Z" fill="#E0E0E0"/>
<path d="M550.001 255.723H454.542V329.354H550.001V255.723Z" fill="#EBEBEB"/>
<path d="M526.12 328.831C526.02 328.831 525.937 312.423 525.937 292.183C525.937 271.942 526.02 255.525 526.12 255.525C526.22 255.525 526.312 271.933 526.312 292.183C526.312 312.432 526.195 328.831 526.12 328.831Z" fill="#E0E0E0"/>
<path d="M541.909 312.59H534.595V320.865H541.909V312.59Z" fill="#FAFAFA"/>
<path d="M494.513 255.908H483.666V271.615H494.513V255.908Z" fill="#E0E0E0"/>
<path d="M494.513 313.426H483.666V329.132H494.513V313.426Z" fill="#E0E0E0"/>
<path d="M536.817 182.285H441.358V255.917H536.817V182.285Z" fill="#EBEBEB"/>
<path d="M512.9 255.391C512.791 255.391 512.708 238.983 512.708 218.742C512.708 198.501 512.791 182.085 512.9 182.085C513.009 182.085 513.092 198.493 513.092 218.742C513.092 238.991 513.009 255.391 512.9 255.391Z" fill="#E0E0E0"/>
<path d="M528.724 239.147H521.409V247.422H528.724V239.147Z" fill="#FAFAFA"/>
<path d="M481.33 182.47H470.483V198.176H481.33V182.47Z" fill="#E0E0E0"/>
<path d="M481.33 239.983H470.483V255.69H481.33V239.983Z" fill="#E0E0E0"/>
<path d="M360.763 119.424H277.938V183.302H360.763V119.424Z" fill="#F5F5F5"/>
<path d="M340.012 182.862C339.92 182.862 339.854 168.616 339.854 151.056C339.854 133.496 339.92 119.259 340.012 119.259C340.104 119.259 340.179 133.454 340.179 151.056C340.179 168.658 340.104 182.862 340.012 182.862Z" fill="#E0E0E0"/>
<path d="M353.741 168.765H347.395V175.946H353.741V168.765Z" fill="#FAFAFA"/>
<path d="M312.614 119.592H303.203V133.219H312.614V119.592Z" fill="#E0E0E0"/>
<path d="M312.614 169.493H303.203V183.121H312.614V169.493Z" fill="#E0E0E0"/>
<path d="M368.11 55.7119H285.285V119.59H368.11V55.7119Z" fill="#EBEBEB"/>
<path d="M347.359 119.141C347.268 119.141 347.192 104.946 347.192 87.3438C347.192 69.7417 347.268 55.5381 347.359 55.5381C347.451 55.5381 347.526 69.7333 347.526 87.3438C347.526 104.954 347.426 119.141 347.359 119.141Z" fill="#E0E0E0"/>
<path d="M361.088 105.053H354.742V112.234H361.088V105.053Z" fill="#FAFAFA"/>
<path d="M319.961 55.8711H310.551V69.4985H319.961V55.8711Z" fill="#E0E0E0"/>
<path d="M319.961 105.772H310.551V119.4H319.961V105.772Z" fill="#E0E0E0"/>
<path d="M365.006 11.375H305.745V57.0837H365.006V11.375Z" fill="#EBEBEB"/>
<path d="M350.165 56.7659C350.098 56.7659 350.048 46.5787 350.048 34.0117C350.048 21.4448 350.098 11.291 350.165 11.291C350.232 11.291 350.282 21.4782 350.282 34.0451C350.282 46.6121 350.223 56.7659 350.165 56.7659Z" fill="#E0E0E0"/>
<path d="M359.985 46.6865H355.442V51.8219H359.985V46.6865Z" fill="#FAFAFA"/>
<path d="M330.558 11.499H323.828V21.252H330.558V11.499Z" fill="#E0E0E0"/>
<path d="M330.558 47.1953H323.828V56.9483H330.558V47.1953Z" fill="#E0E0E0"/>
<path d="M388.528 256.752H293.069V330.383H388.528V256.752Z" fill="#EBEBEB"/>
<path d="M364.611 329.856C364.502 329.856 364.419 313.448 364.419 293.207C364.419 272.966 364.502 256.55 364.611 256.55C364.72 256.55 364.795 272.958 364.795 293.207C364.795 313.456 364.711 329.856 364.611 329.856Z" fill="#E0E0E0"/>
<path d="M380.426 313.615H373.111V321.89H380.426V313.615Z" fill="#FAFAFA"/>
<path d="M333.031 256.935H322.185V272.641H333.031V256.935Z" fill="#E0E0E0"/>
<path d="M333.031 314.451H322.185V330.158H333.031V314.451Z" fill="#E0E0E0"/>
<path d="M375.333 183.314H279.874V256.946H375.333V183.314Z" fill="#EBEBEB"/>
<path d="M351.426 256.418C351.318 256.418 351.234 240.01 351.234 219.769C351.234 199.529 351.318 183.112 351.426 183.112C351.535 183.112 351.61 199.52 351.61 219.769C351.61 240.019 351.527 256.418 351.426 256.418Z" fill="#E0E0E0"/>
<path d="M367.243 240.177H359.929V248.452H367.243V240.177Z" fill="#FAFAFA"/>
<path d="M319.847 183.497H309V199.204H319.847V183.497Z" fill="#E0E0E0"/>
<path d="M319.847 241.013H309V256.719H319.847V241.013Z" fill="#E0E0E0"/>
<path d="M167.732 315.797V307.939H6.99169C6.42254 307.939 5.8767 308.166 5.47425 308.568C5.0718 308.97 4.8457 309.516 4.8457 310.085V313.651C4.8457 314.22 5.0718 314.766 5.47425 315.168C5.8767 315.571 6.42254 315.797 6.99169 315.797H11.4674V319.413C11.4674 319.69 11.4127 319.965 11.3066 320.221C11.2004 320.477 11.0448 320.71 10.8486 320.906C10.6524 321.103 10.4195 321.258 10.1632 321.364C9.90692 321.47 9.63221 321.525 9.35478 321.525H6.95829C6.40657 321.525 5.87668 321.741 5.4819 322.126C5.08712 322.511 4.85879 323.036 4.8457 323.588V327.22C4.8457 327.78 5.06828 328.318 5.46447 328.714C5.86065 329.11 6.39799 329.333 6.95829 329.333H167.732V321.475H130.265V315.78L167.732 315.797ZM49.9949 315.797H59.631V321.492H49.9949V315.797ZM43.5736 321.492H33.9459V315.797H43.5736V321.492ZM66.0272 315.797H75.6549V321.492H66.0272V315.797ZM82.0761 315.797H91.7122V321.492H82.1012L82.0761 315.797ZM98.1334 315.797H107.778V321.492H98.1585L98.1334 315.797ZM17.8636 315.797H27.5247V321.492H17.8886L17.8636 315.797ZM123.818 321.492H114.207V315.797H123.844L123.818 321.492Z" fill="#E0E0E0"/>
<path d="M162.312 151.995H75.3203V219.097H162.312V151.995Z" fill="#2A8BE9"/>
<path opacity="0.3" d="M162.312 151.995H75.3203V219.097H162.312V151.995Z" fill="black"/>
<path d="M140.519 218.619C140.444 218.619 140.377 203.664 140.377 185.219C140.377 166.773 140.444 151.818 140.519 151.818C140.594 151.818 140.661 166.773 140.661 185.219C140.661 203.664 140.594 218.619 140.519 218.619Z" fill="#263238"/>
<path d="M154.94 203.826H148.269V211.366H154.94V203.826Z" fill="#F5F5F5"/>
<path d="M111.736 152.171H101.857V166.491H111.736V152.171Z" fill="#263238"/>
<path d="M111.736 204.578H101.857V218.899H111.736V204.578Z" fill="#263238"/>
<path d="M161.563 151.995H161.338H160.687H158.182L148.938 152.037H118.452H87.9569L78.7217 151.987L87.9569 151.945H118.452H148.938L158.182 151.987H160.687H161.338L161.563 151.995Z" fill="#263238"/>
<path d="M234.734 151.911H147.742V219.013H234.734V151.911Z" fill="#2A8BE9"/>
<path d="M212.941 218.538C212.866 218.538 212.799 203.583 212.799 185.138C212.799 166.692 212.866 151.737 212.941 151.737C213.016 151.737 213.083 166.684 213.083 185.138C213.083 203.592 212.991 218.538 212.941 218.538Z" fill="#263238"/>
<path d="M227.359 203.742H220.688V211.282H227.359V203.742Z" fill="#F5F5F5"/>
<path opacity="0.5" d="M184.158 152.087H174.279V166.407H184.158V152.087Z" fill="white"/>
<path opacity="0.5" d="M184.158 204.494H174.279V218.815H184.158V204.494Z" fill="white"/>
<path d="M233.759 151.91H233.1H230.595L221.359 151.952H190.873H160.378L151.135 151.91L160.378 151.86L190.873 151.818L221.359 151.86L230.595 151.91H233.1H233.759Z" fill="#263238"/>
<path d="M239.617 84.8086H152.625V151.91H239.617V84.8086Z" fill="#2A8BE9"/>
<path d="M217.827 151.436C217.743 151.436 217.685 136.481 217.685 118.035C217.685 99.5899 217.743 84.6348 217.827 84.6348C217.91 84.6348 217.968 99.5815 217.968 118.035C217.968 136.489 217.902 151.436 217.827 151.436Z" fill="#263238"/>
<path d="M232.245 136.638H225.573V144.178H232.245V136.638Z" fill="#F5F5F5"/>
<path d="M189.043 84.9854H179.165V99.3058H189.043V84.9854Z" fill="#263238"/>
<path d="M189.043 137.39H179.165V151.71H189.043V137.39Z" fill="#263238"/>
<path d="M238.877 84.7776C238.805 84.7901 238.732 84.7901 238.66 84.7776H238H235.495H226.26L195.773 84.8194L165.279 84.7776H156.035H153.53H152.87C152.799 84.7901 152.725 84.7901 152.653 84.7776H152.87H153.53H156.035L165.279 84.7275H195.773H226.26L235.495 84.7776H238H238.66H238.877Z" fill="#263238"/>
<path d="M230.315 293.805V285.947H69.583C69.0131 285.947 68.4664 286.173 68.0627 286.575C67.6589 286.977 67.4309 287.523 67.4287 288.093V291.659C67.4309 292.229 67.6589 292.774 68.0627 293.177C68.4664 293.579 69.0131 293.805 69.583 293.805H74.0587V297.379C74.0587 297.941 73.8353 298.481 73.4375 298.878C73.0398 299.276 72.5003 299.5 71.9378 299.5H69.5497C68.9886 299.5 68.4504 299.722 68.0529 300.118C67.6554 300.514 67.4309 301.051 67.4287 301.612V305.219C67.4309 305.78 67.6554 306.318 68.0529 306.714C68.4504 307.11 68.9886 307.332 69.5497 307.332H230.315V299.474H192.848V293.78L230.315 293.805ZM112.578 293.805H122.206V299.5H112.586L112.578 293.805ZM106.157 299.5H96.5289V293.805H106.165L106.157 299.5ZM128.652 293.805H138.288V299.5H128.652V293.805ZM144.709 293.805H154.337V299.5H144.693L144.709 293.805ZM160.758 293.805H170.403V299.5H160.742L160.758 293.805ZM80.4967 293.805H90.1244V299.5H80.48L80.4967 293.805ZM186.443 299.5H176.79V293.805H186.427L186.443 299.5Z" fill="#455A64"/>
<path d="M359.878 158.435C360.141 158.166 360.348 157.847 360.487 157.497C360.625 157.147 360.693 156.773 360.685 156.397C360.677 156.02 360.594 155.649 360.441 155.305C360.289 154.961 360.069 154.651 359.794 154.394L332.682 128.767C332.14 128.259 331.425 127.976 330.682 127.976C329.939 127.976 329.224 128.259 328.682 128.767C328.397 129.032 328.168 129.351 328.008 129.705C327.848 130.06 327.76 130.443 327.75 130.832C327.74 131.221 327.807 131.608 327.949 131.97C328.09 132.332 328.303 132.663 328.573 132.942L339.387 144.315L333.759 149.734L330.828 147.404L310.378 170.827L299.448 160.314L286.271 199.067L288.885 251.673H319.196L317.075 189.155L337.408 160.197L337.566 153.308L343.411 147.321L356.012 158.577C356.558 159.064 357.271 159.32 358.003 159.294C358.734 159.268 359.427 158.96 359.936 158.435H359.878Z" fill="#263238"/>
<path d="M278.122 261.414C278.005 261.414 277.905 213.417 277.905 154.223C277.905 95.0289 278.005 47.0156 278.122 47.0156C278.239 47.0156 278.339 95.0039 278.339 154.223C278.339 213.442 278.214 261.414 278.122 261.414Z" fill="#263238"/>
<path d="M345.966 247.897L364.403 196.669L357.472 193.863V183.968L407.882 183.191C409.07 183.169 410.21 182.715 411.088 181.915C411.967 181.114 412.525 180.022 412.658 178.841L420.073 113.025C420.239 111.553 420.942 110.194 422.046 109.207C423.15 108.22 424.579 107.674 426.06 107.673C426.872 107.672 427.676 107.836 428.424 108.154C429.171 108.472 429.846 108.938 430.409 109.524C430.971 110.11 431.409 110.803 431.696 111.563C431.984 112.322 432.115 113.132 432.081 113.944L429.258 181.764L455.578 181.906L456.472 194.272L378.632 197.32L358.332 247.162L345.966 247.897Z" fill="#455A64"/>
<path d="M357.565 246.643L292.033 247.16V251.528L319.18 251.177L362.417 250.843L467.244 236.046L455.362 190.822H384.386C383.159 190.804 381.946 191.085 380.852 191.641C379.758 192.196 378.815 193.01 378.106 194.012L357.565 246.643Z" fill="#263238"/>
<path d="M326.16 57.5201L278.564 209.434L278.898 251.694H293.987V209.701L333.016 57.9293L438.762 57.3364L458.986 215.43H470.918L446.31 58.447C445.923 56.3936 444.831 54.5398 443.223 53.2058C441.614 51.8719 439.591 51.1414 437.501 51.1406H334.744C332.818 51.1398 330.942 51.76 329.396 52.9091C327.85 54.0583 326.715 55.6752 326.16 57.5201Z" fill="#455A64"/>
<path d="M269.971 300.502V259.92L278.855 251.695L362.357 250.618L377.387 238.393C380.186 236.12 383.631 234.788 387.232 234.586L403.314 233.676C403.314 233.676 410.529 228.707 417.509 223.781C426.35 217.516 436.918 214.149 447.754 214.145H494.038C495.719 214.145 497.331 214.812 498.52 216.001C499.708 217.189 500.376 218.801 500.376 220.482V300.502H269.971Z" fill="#2A8BE9"/>
<path d="M500.361 287.426H269.154V300.769H500.361V287.426Z" fill="#263238"/>
<path d="M281.118 300.354C281.035 306.008 282.63 311.56 285.702 316.308C288.774 321.056 293.185 324.787 298.378 327.027C303.57 329.268 309.31 329.919 314.872 328.897C320.435 327.875 325.569 325.226 329.625 321.286C333.682 317.346 336.48 312.292 337.663 306.762C338.847 301.232 338.365 295.475 336.277 290.22C334.189 284.964 330.589 280.446 325.933 277.236C321.276 274.027 315.773 272.27 310.118 272.189C302.538 272.079 295.225 274.985 289.787 280.267C284.349 285.548 281.23 292.773 281.118 300.354Z" fill="#263238"/>
<path d="M281.128 300.285C281.128 300.285 281.128 300.327 281.128 300.352C281.085 307.891 284.021 315.141 289.298 320.526C294.574 325.911 301.763 328.993 309.301 329.104C316.839 329.214 324.116 326.342 329.547 321.114C334.978 315.886 338.125 308.724 338.302 301.187C338.302 301.187 338.302 301.137 338.302 301.112L281.128 300.285Z" fill="#263238"/>
<path d="M289.635 300.477C289.585 304.438 290.709 308.325 292.866 311.647C295.023 314.969 298.116 317.577 301.754 319.143C305.393 320.708 309.414 321.16 313.309 320.442C317.204 319.723 320.799 317.867 323.64 315.106C326.481 312.346 328.44 308.806 329.27 304.933C330.1 301.06 329.763 297.028 328.303 293.346C326.843 289.664 324.324 286.497 321.065 284.246C317.806 281.994 313.954 280.759 309.993 280.696C307.356 280.654 304.737 281.133 302.286 282.105C299.835 283.077 297.6 284.523 295.708 286.361C293.817 288.199 292.307 290.392 291.265 292.814C290.223 295.236 289.669 297.841 289.635 300.477Z" fill="#FAFAFA"/>
<path d="M309.995 280.696C307.359 280.654 304.74 281.133 302.288 282.105C299.837 283.077 297.602 284.523 295.711 286.361C293.819 288.199 292.309 290.392 291.267 292.814C290.225 295.236 289.671 297.841 289.638 300.477L329.777 301.054C329.819 298.417 329.34 295.798 328.368 293.347C327.396 290.895 325.949 288.66 324.112 286.769C322.274 284.878 320.081 283.368 317.659 282.326C315.236 281.283 312.632 280.73 309.995 280.696Z" fill="#E0E0E0"/>
<path d="M297.476 300.595C297.447 303.012 298.135 305.384 299.453 307.411C300.772 309.437 302.662 311.027 304.884 311.98C307.106 312.932 309.561 313.205 311.938 312.762C314.315 312.32 316.507 311.182 318.237 309.494C319.968 307.805 321.159 305.642 321.66 303.276C322.16 300.911 321.949 298.45 321.051 296.206C320.153 293.961 318.61 292.032 316.617 290.664C314.623 289.296 312.269 288.55 309.851 288.52C306.61 288.482 303.486 289.733 301.165 291.997C298.845 294.261 297.518 297.353 297.476 300.595Z" fill="#263238"/>
<path d="M421.018 300.354C420.934 306.008 422.529 311.56 425.601 316.308C428.674 321.056 433.085 324.787 438.277 327.027C443.47 329.268 449.21 329.919 454.772 328.897C460.334 327.875 465.468 325.226 469.525 321.286C473.582 317.346 476.379 312.292 477.563 306.762C478.747 301.232 478.264 295.475 476.176 290.22C474.088 284.964 470.488 280.446 465.832 277.236C461.176 274.027 455.672 272.27 450.018 272.189C442.438 272.079 435.124 274.985 429.686 280.267C424.248 285.548 421.13 292.773 421.018 300.354Z" fill="#263238"/>
<path d="M421.026 300.285C421.026 300.285 421.026 300.327 421.026 300.352C420.983 307.891 423.919 315.141 429.195 320.526C434.471 325.911 441.661 328.993 449.199 329.104C456.737 329.214 464.013 326.342 469.444 321.114C474.876 315.886 478.022 308.724 478.199 301.187C478.199 301.187 478.199 301.137 478.199 301.112L421.026 300.285Z" fill="#263238"/>
<path d="M429.535 300.477C429.484 304.438 430.608 308.325 432.765 311.647C434.922 314.969 438.015 317.577 441.654 319.143C445.292 320.708 449.313 321.16 453.208 320.442C457.104 319.723 460.699 317.867 463.539 315.106C466.38 312.346 468.339 308.806 469.169 304.933C469.999 301.06 469.663 297.028 468.202 293.346C466.742 289.664 464.224 286.497 460.965 284.246C457.706 281.994 453.853 280.759 449.892 280.696C447.256 280.654 444.637 281.133 442.185 282.105C439.734 283.077 437.499 284.523 435.608 286.361C433.716 288.199 432.207 290.392 431.164 292.814C430.122 295.236 429.569 297.841 429.535 300.477Z" fill="#FAFAFA"/>
<path d="M449.893 280.696C447.256 280.654 444.637 281.133 442.186 282.105C439.735 283.077 437.499 284.523 435.608 286.361C433.717 288.199 432.207 290.392 431.165 292.814C430.123 295.236 429.569 297.841 429.535 300.477L469.674 301.054C469.716 298.417 469.237 295.798 468.265 293.347C467.293 290.895 465.847 288.66 464.009 286.769C462.171 284.878 459.978 283.368 457.556 282.326C455.134 281.283 452.53 280.73 449.893 280.696Z" fill="#E0E0E0"/>
<path d="M437.383 300.595C437.353 303.012 438.041 305.383 439.358 307.408C440.676 309.434 442.564 311.024 444.785 311.978C447.005 312.931 449.459 313.204 451.835 312.764C454.211 312.323 456.403 311.188 458.135 309.502C459.866 307.817 461.059 305.655 461.563 303.292C462.066 300.928 461.858 298.468 460.964 296.223C460.071 293.978 458.531 292.048 456.541 290.677C454.551 289.306 452.199 288.556 449.783 288.521C448.175 288.498 446.579 288.792 445.085 289.386C443.592 289.981 442.23 290.864 441.078 291.986C439.926 293.107 439.007 294.445 438.373 295.922C437.739 297.4 437.402 298.988 437.383 300.595Z" fill="#263238"/>
<path d="M486.808 280.419C486.756 280.356 486.708 280.289 486.666 280.219L486.299 279.617L485.714 278.632C485.459 278.181 485.18 277.743 484.879 277.321C483.045 274.562 480.88 272.039 478.433 269.806C477.698 269.063 476.804 268.42 475.928 267.677C475.051 266.934 474.049 266.299 473.047 265.589C472.045 264.88 470.943 264.228 469.757 263.652C469.181 263.351 468.596 263.026 467.995 262.734L466.116 261.899C463.451 260.775 460.674 259.935 457.833 259.393C454.783 258.807 451.676 258.572 448.573 258.692C442.558 259.028 436.693 260.699 431.405 263.585L429.618 264.587C429.042 264.938 428.499 265.322 427.948 265.673C426.821 266.357 425.852 267.192 424.858 267.919C423.865 268.645 423.005 269.472 422.186 270.265C421.368 271.059 420.566 271.818 419.898 272.628C417.673 275.085 415.758 277.805 414.195 280.728C413.933 281.175 413.699 281.638 413.494 282.114C413.302 282.515 413.135 282.857 413.001 283.15L412.692 283.784C412.66 283.857 412.62 283.927 412.575 283.993C412.589 283.915 412.615 283.839 412.65 283.768L412.918 283.116L413.368 282.064C413.566 281.581 413.792 281.109 414.045 280.653C415.56 277.681 417.452 274.917 419.673 272.428C420.332 271.593 421.159 270.858 421.952 270.023C422.746 269.188 423.698 268.453 424.633 267.635C425.568 266.817 426.603 266.057 427.731 265.355C428.282 264.996 428.833 264.612 429.401 264.253L431.196 263.226C433.763 261.834 436.47 260.714 439.271 259.886C442.286 259 445.393 258.462 448.531 258.283C454.612 258.046 460.669 259.173 466.258 261.581L468.145 262.416C468.755 262.708 469.339 263.042 469.924 263.351C471.118 263.936 472.162 264.687 473.264 265.322C474.366 265.957 475.26 266.725 476.153 267.451C477.047 268.178 477.923 268.863 478.658 269.614C481.103 271.884 483.247 274.457 485.038 277.271C485.34 277.701 485.619 278.147 485.873 278.607L486.415 279.617C486.557 279.876 486.666 280.077 486.749 280.244C486.833 280.411 486.816 280.411 486.808 280.419Z" fill="#263238"/>
<path d="M347.035 285.68C346.986 285.61 346.947 285.534 346.918 285.454C346.851 285.279 346.759 285.054 346.642 284.77L346.191 283.659C345.991 283.225 345.766 282.724 345.515 282.164C344.06 279.009 342.247 276.03 340.113 273.288C336.999 269.178 333.027 265.795 328.472 263.377C325.745 262.045 322.853 261.082 319.872 260.512C316.678 259.855 313.421 259.558 310.161 259.627C306.901 259.673 303.656 260.09 300.491 260.872C297.546 261.609 294.707 262.718 292.041 264.17C287.487 266.591 283.414 269.826 280.025 273.714C277.771 276.349 275.811 279.222 274.18 282.281C273.595 283.367 273.153 284.219 272.877 284.786C272.744 285.062 272.627 285.279 272.543 285.446C272.511 285.524 272.469 285.597 272.418 285.663C272.433 285.581 272.461 285.502 272.501 285.429L272.802 284.753C273.053 284.152 273.47 283.292 274.03 282.189C275.611 279.078 277.544 276.159 279.791 273.489C283.176 269.539 287.264 266.252 291.849 263.794C294.541 262.325 297.408 261.202 300.383 260.454C303.581 259.664 306.858 259.241 310.152 259.193C313.447 259.136 316.739 259.45 319.964 260.128C322.978 260.711 325.902 261.694 328.656 263.051C333.248 265.512 337.239 268.956 340.346 273.138C342.472 275.913 344.257 278.932 345.665 282.131L346.3 283.642C346.459 284.085 346.601 284.477 346.709 284.77C346.818 285.062 346.893 285.287 346.951 285.471C346.987 285.537 347.015 285.607 347.035 285.68Z" fill="#263238"/>
<path d="M269.915 285.947H143.177V300.769H269.915V285.947Z" fill="#263238"/>
<path d="M266.481 292.236C266.481 292.966 266.265 293.679 265.859 294.286C265.454 294.893 264.877 295.366 264.203 295.645C263.528 295.925 262.786 295.998 262.07 295.856C261.354 295.713 260.697 295.362 260.181 294.845C259.664 294.329 259.313 293.672 259.171 292.956C259.028 292.24 259.101 291.498 259.381 290.823C259.66 290.149 260.133 289.572 260.74 289.167C261.347 288.761 262.06 288.545 262.79 288.545C263.769 288.545 264.708 288.934 265.4 289.626C266.092 290.318 266.481 291.257 266.481 292.236Z" fill="#455A64"/>
<path d="M268.251 49.9717H257.671V260.128H268.251V49.9717Z" fill="#455A64"/>
<path d="M418.703 272.106C418.703 272.223 400.867 272.323 378.873 272.323C356.879 272.323 339.043 272.223 339.043 272.106C339.043 271.989 356.871 271.889 378.873 271.889C400.876 271.889 418.703 271.989 418.703 272.106Z" fill="#263238"/>
<path d="M402.472 268.957C402.347 268.957 402.255 261.2 402.255 251.631C402.255 242.061 402.347 234.312 402.472 234.312C402.597 234.312 402.689 242.061 402.689 251.631C402.689 261.2 402.589 268.957 402.472 268.957Z" fill="#263238"/>
<path d="M278.133 45.1553H256.539V54.7913H278.133V45.1553Z" fill="#263238"/>
<path d="M269.916 258.392H256.013V286.131H269.916V258.392Z" fill="#263238"/>
<path d="M237.629 219.039H150.638V286.141H237.629V219.039Z" fill="#2A8BE9"/>
<path opacity="0.3" d="M237.629 219.039H150.638V286.141H237.629V219.039Z" fill="black"/>
<path d="M215.839 285.666C215.764 285.666 215.697 270.711 215.697 252.266C215.697 233.82 215.764 218.865 215.839 218.865C215.914 218.865 215.981 233.82 215.981 252.266C215.981 270.711 215.914 285.666 215.839 285.666Z" fill="#263238"/>
<path d="M230.258 270.865H223.586V278.405H230.258V270.865Z" fill="#F5F5F5"/>
<path d="M187.056 219.213H177.178V233.533H187.056V219.213Z" fill="#263238"/>
<path d="M187.056 271.617H177.178V285.938H187.056V271.617Z" fill="#263238"/>
<path d="M236.873 219.039H236.656H235.997H233.491L224.248 219.081L193.787 219.214H163.292L154.057 219.173H151.552H150.892H150.675C150.747 219.166 150.82 219.166 150.892 219.173H151.552H154.057L163.292 219.131L193.787 219.089L224.273 219.131L233.517 219.173H236.022H236.681C236.74 219.121 236.805 219.077 236.873 219.039Z" fill="#263238"/>
<path d="M146.381 219.039H59.3896V286.141H146.381V219.039Z" fill="#2A8BE9"/>
<path d="M124.597 285.666C124.514 285.666 124.455 270.711 124.455 252.266C124.455 233.82 124.514 218.865 124.597 218.865C124.681 218.865 124.731 233.82 124.731 252.266C124.731 270.711 124.672 285.666 124.597 285.666Z" fill="#263238"/>
<path d="M139.016 270.865H132.344V278.405H139.016V270.865Z" fill="#F5F5F5"/>
<path opacity="0.5" d="M95.8118 219.213H85.9336V233.533H95.8118V219.213Z" fill="white"/>
<path opacity="0.5" d="M95.8118 271.617H85.9336V285.938H95.8118V271.617Z" fill="white"/>
<path d="M145.628 219.039H145.402H144.751H142.246L133.011 219.08H102.524H72.0297L62.7861 219.039H60.2811H59.6297H59.4043C59.4793 219.032 59.5547 219.032 59.6297 219.039H60.2811H62.7861L72.0297 218.997L102.524 218.955L133.011 218.997L142.246 219.039H144.751H145.402C145.477 219.031 145.553 219.031 145.628 219.039Z" fill="#263238"/>
<path d="M504.011 237.277C508.495 238.363 512.261 242.914 512.186 247.531C512.09 249.844 511.239 252.062 509.763 253.845C508.286 255.628 506.265 256.877 504.011 257.401" fill="#2A8BE9"/>
<g opacity="0.6">
<path d="M504.012 237.277C508.496 238.363 512.262 242.914 512.186 247.531C512.091 249.844 511.24 252.062 509.764 253.845C508.287 255.628 506.266 256.877 504.012 257.401" fill="white"/>
</g>
<path d="M504.193 234.688H500.36V260.081H504.193V234.688Z" fill="#2A8BE9"/>
<path opacity="0.3" d="M504.193 234.688H500.36V260.081H504.193V234.688Z" fill="black"/>
<path d="M321.833 132.927C321.372 132.57 321.055 132.058 320.94 131.486C320.825 130.915 320.92 130.32 321.207 129.813C321.85 128.694 322.601 127.374 322.943 126.823C323.362 126.171 323.744 125.497 324.087 124.802C324.193 124.388 324.414 124.011 324.724 123.715C325.034 123.42 325.421 123.218 325.841 123.132C326.861 123.001 327.895 123.032 328.905 123.224L339.351 125.479L344.22 127.884L339.485 132.059L336.855 131.224C336.062 131.908 332.964 132.268 331.912 132.142C330.567 131.975 327.878 131.098 326.35 131.391L324.872 131.599L325.574 132.184C326.859 132.092 328.144 132.355 329.29 132.944C329.473 133.067 329.613 133.245 329.69 133.451C329.767 133.658 329.778 133.884 329.721 134.097C329.664 134.31 329.542 134.5 329.372 134.641C329.202 134.782 328.992 134.865 328.772 134.881L325.34 135.107C324.411 134.67 323.518 134.162 322.668 133.587C322.402 133.352 322.123 133.132 321.833 132.927Z" fill="#FFBE9D"/>
<path d="M324.882 131.633C324.713 131.749 324.523 131.828 324.322 131.867C323.777 132.026 323.198 132.026 322.652 131.867C322.26 131.739 321.915 131.498 321.659 131.174C321.512 130.978 321.409 130.753 321.354 130.515C321.299 130.276 321.295 130.029 321.341 129.788C321.404 129.512 321.557 129.266 321.776 129.087C321.993 128.928 322.236 128.806 322.494 128.728C322.993 128.562 323.504 128.43 324.022 128.335C325.007 128.145 326.002 128.017 327.003 127.951C327.462 127.951 327.896 127.901 328.314 127.901H328.631H328.882C329.056 127.876 329.229 127.843 329.399 127.801C330.11 127.572 330.832 127.38 331.562 127.225C330.913 127.609 330.209 127.89 329.474 128.06C329.297 128.119 329.116 128.163 328.932 128.193C328.821 128.207 328.709 128.207 328.598 128.193H328.314C327.921 128.193 327.479 128.243 327.036 128.285C326.053 128.372 325.075 128.509 324.105 128.694C323.608 128.786 323.117 128.909 322.636 129.062C322.151 129.204 321.801 129.421 321.734 129.813C321.697 129.999 321.697 130.191 321.734 130.378C321.772 130.564 321.845 130.741 321.951 130.899C322.167 131.177 322.456 131.391 322.786 131.517C323.284 131.691 323.818 131.74 324.339 131.659C324.656 131.65 324.882 131.592 324.882 131.633Z" fill="#EB996E"/>
<path d="M326.177 126.189C326.294 126.189 326.494 126.707 326.286 127.367C326.077 128.026 325.609 128.377 325.534 128.285C325.459 128.193 325.71 127.793 325.877 127.242C326.044 126.69 326.052 126.206 326.177 126.189Z" fill="#EB996E"/>
<path d="M327.812 126.847C327.929 126.847 327.962 127.265 327.67 127.682C327.378 128.1 326.985 128.133 326.944 128.016C326.902 127.899 327.119 127.699 327.328 127.415C327.537 127.131 327.687 126.831 327.812 126.847Z" fill="#EB996E"/>
<path d="M368.936 124.52C370.372 123.919 360.686 133.881 360.686 133.881L342.783 127.201L336.462 131.084L355.709 144.636C357.687 146.031 360.099 146.671 362.508 146.442C364.918 146.212 367.165 145.127 368.844 143.383L380.208 130.248L368.936 124.52Z" fill="#FFBE9D"/>
<path d="M379.431 84.6044C376.926 84.1201 375.373 83.3519 375.306 82.3916C375.172 80.4043 381.477 78.3668 389.392 77.8241C397.308 77.2813 403.822 78.4671 403.963 80.446C404.022 81.4063 402.594 82.3749 400.206 83.1849" fill="#2A8BE9"/>
<g opacity="0.4">
<path d="M380.824 84.4401C378.612 84.0226 377.167 83.3379 377.167 82.4862C377.167 80.1064 382.636 78.9123 389.65 78.4364C396.665 77.9604 402.451 79.0042 402.568 80.7661C402.627 81.6011 401.357 82.4361 399.228 83.1876" fill="black"/>
</g>
<path d="M377.212 81.3236C377.212 81.3236 378.69 72.7648 378.84 72.3389C378.99 71.913 381.136 68.072 386.806 66.6274L391.549 66.3018C391.549 66.3018 398.43 68.0135 399.766 69.575C401.102 71.1365 402.17 79.0524 402.17 79.0524L388.677 77.0651L379.784 79.8791L377.212 81.3236Z" fill="#2A8BE9"/>
<path d="M388.293 65.5676L386.255 65.7012C385.78 66.3313 385.543 67.1093 385.587 67.8973C385.587 69.3753 385.946 79.5123 385.946 79.5123L391.875 78.8443L390.848 66.3525L392.894 66.6698L392.785 65.9601L392.209 65.3672L388.293 65.5676Z" fill="#2A8BE9"/>
<path d="M400.683 112.219L386.154 112.536C385.97 111.008 386.104 101.447 386.104 101.447C386.104 101.447 380.576 100.963 380.133 95.4933C379.691 90.0239 379.791 79.0351 379.791 79.0351L379.849 78.5508C386.003 75.4028 393.327 74.6597 399.055 78.5007L399.89 79.0685L400.683 112.219Z" fill="#FFBE9D"/>
<path d="M386.104 101.473C388.634 101.293 391.059 100.392 393.093 98.876C393.093 98.876 391.581 103.051 386.087 102.892L386.104 101.473Z" fill="#EB996E"/>
<path d="M399.642 84.7721C399.733 84.7721 403.324 83.411 403.458 87.1602C403.591 90.9094 399.8 90.2665 399.792 90.1663C399.784 90.0661 399.642 84.7721 399.642 84.7721Z" fill="#FFBE9D"/>
<path d="M400.868 88.7067C400.868 88.7067 400.935 88.7568 401.044 88.7985C401.121 88.8318 401.205 88.849 401.29 88.849C401.375 88.849 401.458 88.8318 401.536 88.7985C401.773 88.6362 401.962 88.4136 402.084 88.1538C402.206 87.8939 402.256 87.6063 402.229 87.3205C402.229 86.9991 402.154 86.682 402.012 86.3937C401.972 86.2779 401.906 86.1734 401.817 86.0891C401.728 86.0048 401.62 85.9431 401.503 85.9094C401.428 85.8932 401.349 85.9035 401.281 85.9385C401.212 85.9735 401.158 86.0311 401.127 86.1014C401.077 86.21 401.127 86.2851 401.085 86.2935C401.044 86.3018 401.002 86.235 401.027 86.0764C401.048 85.9828 401.097 85.8981 401.169 85.8342C401.27 85.7529 401.399 85.714 401.528 85.7257C401.683 85.7504 401.829 85.8149 401.952 85.913C402.075 86.011 402.171 86.1392 402.229 86.2851C402.407 86.5882 402.513 86.9282 402.538 87.2788C402.575 87.6158 402.509 87.9561 402.348 88.2544C402.186 88.5527 401.938 88.7949 401.636 88.9488C401.537 88.9833 401.431 88.9944 401.327 88.9814C401.223 88.9683 401.123 88.9315 401.035 88.8737C400.868 88.7985 400.868 88.715 400.868 88.7067Z" fill="#EB996E"/>
<path d="M381.605 85.7892C381.628 85.9944 381.726 86.1838 381.88 86.3211C382.034 86.4583 382.234 86.5336 382.44 86.5323C382.642 86.5323 382.835 86.4523 382.978 86.3098C383.12 86.1673 383.2 85.974 383.2 85.7725C383.178 85.5673 383.08 85.3778 382.926 85.2406C382.771 85.1033 382.572 85.0281 382.365 85.0293C382.164 85.0293 381.971 85.1094 381.828 85.2519C381.686 85.3944 381.605 85.5876 381.605 85.7892Z" fill="#263238"/>
<path d="M381.354 85.0226C381.454 85.1144 382.022 84.6385 382.865 84.58C383.708 84.5216 384.351 84.9057 384.435 84.7971C384.518 84.6886 384.36 84.5717 384.084 84.3963C383.701 84.1709 383.259 84.0661 382.815 84.0957C382.377 84.1243 381.959 84.2909 381.621 84.5717C381.379 84.7721 381.303 84.9808 381.354 85.0226Z" fill="#263238"/>
<path d="M389.894 85.4842C389.899 85.5881 389.925 85.6898 389.97 85.7836C390.015 85.8774 390.078 85.9613 390.156 86.0304C390.233 86.0996 390.324 86.1526 390.422 86.1864C390.521 86.2202 390.625 86.2341 390.729 86.2274C390.828 86.2274 390.926 86.2076 391.018 86.1694C391.11 86.1311 391.193 86.075 391.263 86.0043C391.333 85.9336 391.388 85.8498 391.425 85.7576C391.463 85.6655 391.481 85.5669 391.48 85.4675C391.475 85.3636 391.449 85.2618 391.404 85.1681C391.359 85.0743 391.296 84.9904 391.218 84.9212C391.14 84.8521 391.05 84.7991 390.951 84.7653C390.853 84.7315 390.749 84.7175 390.645 84.7243C390.546 84.7243 390.447 84.744 390.356 84.7823C390.264 84.8206 390.181 84.8767 390.111 84.9474C390.041 85.018 389.986 85.1019 389.948 85.194C389.911 85.2862 389.892 85.3848 389.894 85.4842Z" fill="#263238"/>
<path d="M389.636 84.6122C389.736 84.7124 390.295 84.2365 391.139 84.178C391.982 84.1196 392.625 84.5037 392.709 84.3951C392.792 84.2866 392.642 84.1697 392.358 83.986C391.978 83.7595 391.538 83.6574 391.097 83.6937C390.658 83.7182 390.239 83.8853 389.903 84.1697C389.661 84.3868 389.586 84.5705 389.636 84.6122Z" fill="#263238"/>
<path d="M387.007 91.0596C386.552 90.9573 386.087 90.9069 385.621 90.9093C385.404 90.9093 385.195 90.9093 385.153 90.7256C385.119 90.5061 385.154 90.2813 385.253 90.0826L385.779 88.4126C386.268 86.985 386.648 85.5223 386.915 84.0371C386.304 85.4195 385.807 86.8494 385.429 88.3124C385.253 88.8969 385.086 89.4564 384.928 89.9824C384.818 90.2472 384.8 90.5414 384.878 90.8174C384.914 90.8903 384.967 90.9538 385.033 91.003C385.098 91.0522 385.173 91.0859 385.253 91.1013C385.375 91.1172 385.499 91.1172 385.621 91.1013C386.083 91.1491 386.549 91.1351 387.007 91.0596Z" fill="#263238"/>
<path d="M389.518 91.4512C389.376 91.4512 389.443 92.3613 388.683 93.0627C387.923 93.7642 387.013 93.7308 387.013 93.8978C387.013 94.0648 387.238 94.0564 387.656 94.0397C388.188 94.0085 388.693 93.793 389.084 93.4302C389.458 93.076 389.682 92.5919 389.71 92.0774C389.693 91.685 389.576 91.4512 389.518 91.4512Z" fill="#263238"/>
<path d="M389.179 81.3343C389.279 81.5598 390.106 81.3927 391.099 81.4512C392.093 81.5096 392.911 81.7184 393.028 81.5013C393.145 81.2842 392.928 81.1923 392.594 80.9919C392.148 80.7445 391.65 80.6071 391.141 80.5911C390.631 80.5651 390.122 80.6595 389.655 80.8667C389.321 81.042 389.179 81.2341 389.179 81.3343Z" fill="#263238"/>
<path d="M381.494 82.5686C381.661 82.7439 382.221 82.5101 382.922 82.4517C383.624 82.3932 384.216 82.4934 384.342 82.2847C384.467 82.0759 384.283 82.0008 384.016 81.8338C383.655 81.6411 383.245 81.5597 382.838 81.5998C382.431 81.64 382.045 81.7998 381.728 82.0592C381.494 82.268 381.427 82.4767 381.494 82.5686Z" fill="#263238"/>
<path d="M400.032 81.2226C399.99 82.7507 400.14 84.2788 400.098 85.8068C400.049 86.384 399.902 86.9487 399.664 87.4769C399.585 87.7829 399.412 88.0563 399.169 88.2588C398.927 88.4613 398.626 88.5826 398.311 88.6056C397.996 88.6286 397.681 88.5523 397.412 88.3872C397.142 88.2222 396.931 87.9768 396.808 87.6856C396.511 87.0825 396.351 86.4208 396.341 85.7484C396.335 85.0752 396.222 84.4072 396.007 83.7694C395.651 83.1082 395.225 82.4867 394.738 81.9157C394.498 81.6254 394.329 81.2837 394.243 80.9172C394.158 80.5507 394.158 80.1694 394.245 79.8031C396.266 79.7412 398.266 80.2289 400.032 81.2143" fill="#263238"/>
<path d="M379.791 81.8993L379.699 78.8348L388.467 75.5615L399.865 78.0666L400.082 81.3565C393.496 78.949 386.239 79.1431 379.791 81.8993Z" fill="#455A64"/>
<path d="M380.215 78.1505L379.848 78.5513L376.767 80.7975C380.801 79.4455 384.99 78.604 389.233 78.2925C393.894 78.1861 398.552 78.6233 403.111 79.5951L398.702 77.3322C397.987 76.6639 397.144 76.1459 396.225 75.8088C395.306 75.4718 394.328 75.3225 393.35 75.3699L385.3 75.754C384.337 75.7997 383.392 76.0349 382.519 76.4461C381.647 76.8573 380.864 77.4365 380.215 78.1505Z" fill="#2A8BE9"/>
<path d="M385.838 75.4793C385.986 74.0565 386.025 72.6245 385.955 71.1957C385.99 69.7644 385.917 68.3325 385.738 66.9121C385.579 68.3342 385.54 69.7671 385.621 71.1957C385.58 72.6271 385.653 74.0594 385.838 75.4793Z" fill="#263238"/>
<path d="M392.885 66.67C392.39 66.488 391.873 66.3756 391.348 66.3359C391.186 66.3485 391.034 66.4215 390.923 66.5405C390.811 66.6595 390.749 66.8159 390.747 66.9789L390.797 67.8807C390.856 68.5237 390.906 69.2084 390.964 69.9182C391.081 71.3711 391.215 72.682 391.323 73.6256C391.347 74.143 391.431 74.6558 391.574 75.1537C391.634 74.6405 391.634 74.1221 391.574 73.6089C391.524 72.657 391.432 71.346 391.307 69.9014C391.24 69.1833 391.181 68.4986 391.123 67.8557C391.123 67.5551 391.056 67.2628 391.031 66.9789C391.03 66.8798 391.065 66.7837 391.129 66.7084C391.194 66.6332 391.284 66.5839 391.382 66.5697C391.879 66.6436 392.382 66.6771 392.885 66.67Z" fill="#263238"/>
<path d="M376.559 80.773C376.559 80.773 376.926 80.5893 377.602 80.297C377.936 80.1467 378.346 79.9797 378.813 79.7209C379.356 79.4404 379.818 79.0266 380.158 78.5185C380.55 77.9339 380.575 77.1574 380.993 76.5729C381.41 75.9884 382.278 75.8965 383.13 75.813C384.85 75.621 386.746 75.479 388.741 75.3955C390.737 75.312 392.649 75.2953 394.378 75.312C395.171 75.2456 395.964 75.4518 396.624 75.8965C396.891 76.1522 397.134 76.4317 397.35 76.7315L397.693 77.1407L397.868 77.3327C397.94 77.3981 398.022 77.4516 398.11 77.4914C399.346 77.9841 400.356 78.3264 401.05 78.5519C401.4 78.6969 401.76 78.8196 402.127 78.9193C402.046 78.8603 401.959 78.81 401.868 78.769C401.693 78.6855 401.434 78.5686 401.091 78.4266C400.423 78.1344 399.421 77.7837 398.219 77.2743C398.156 77.2455 398.097 77.209 398.043 77.1657L397.885 76.9737L397.559 76.5645C397.332 76.2664 397.08 75.9871 396.808 75.7295C396.106 75.2246 395.249 74.9823 394.386 75.0448C392.649 75.0448 390.737 75.0448 388.733 75.1033C386.729 75.1617 384.817 75.3371 383.088 75.5458C382.661 75.5793 382.236 75.6463 381.819 75.7462C381.419 75.8482 381.067 76.0876 380.826 76.4226C380.341 77.1073 380.341 77.8838 379.99 78.4016C379.684 78.8871 379.258 79.2865 378.755 79.5622C378.312 79.8294 377.92 80.0215 377.577 80.1885C377.235 80.3555 377.001 80.4974 376.834 80.5976C376.734 80.6425 376.642 80.7016 376.559 80.773Z" fill="#263238"/>
<path d="M377.795 81.1629C377.875 81.1286 377.951 81.0837 378.02 81.0293C378.162 80.9291 378.379 80.7955 378.663 80.6369C379.489 80.2264 380.353 79.8991 381.243 79.6599C384.196 78.8844 387.243 78.5302 390.295 78.6078C392.09 78.6078 393.794 78.6078 395.305 78.6746C396.816 78.7414 398.236 78.9835 399.388 79.1756C399.906 79.2634 400.419 79.3777 400.925 79.5179C401.307 79.5875 401.67 79.7415 401.985 79.9688C402.11 80.0686 402.211 80.1958 402.279 80.3406C402.347 80.4854 402.38 80.6439 402.378 80.8039C402.424 80.7231 402.442 80.6288 402.428 80.5366C402.398 80.2709 402.273 80.0249 402.077 79.8436C401.76 79.5796 401.385 79.3937 400.983 79.3008C400.473 79.1424 399.954 79.0114 399.43 78.9084C398.075 78.6434 396.706 78.4511 395.33 78.3322C393.769 78.2153 392.048 78.2487 390.261 78.2404C387.181 78.1575 384.105 78.549 381.143 79.401C380.241 79.6566 379.374 80.0241 378.563 80.4949C378.344 80.6233 378.137 80.7715 377.945 80.9375C377.845 81.0878 377.786 81.1546 377.795 81.1629Z" fill="#263238"/>
<path d="M387.131 65.8998C387.409 65.9211 387.688 65.9211 387.966 65.8998L389.987 65.8246C390.772 65.8246 391.498 65.6994 391.999 65.7495C392.135 65.7547 392.268 65.7895 392.389 65.8515C392.51 65.9135 392.617 66.0012 392.7 66.1085C392.7 66.1085 392.7 66.025 392.584 65.9165C392.424 65.7703 392.222 65.6795 392.007 65.6576C391.332 65.605 390.654 65.605 389.978 65.6576L387.958 65.7745C387.678 65.785 387.401 65.827 387.131 65.8998Z" fill="#FAFAFA"/>
<path d="M386.778 75.8133C386.92 75.8277 387.063 75.8277 387.204 75.8133H388.357C389.333 75.8133 390.678 75.8133 392.164 75.8133L394.26 75.8634C394.82 75.8603 395.378 75.905 395.93 75.997C396.304 76.0746 396.64 76.2779 396.882 76.5731C396.963 76.6843 397.03 76.8049 397.082 76.9322C397.066 76.7893 397.012 76.6536 396.924 76.5398C396.687 76.2195 396.343 75.9944 395.955 75.9051C395.405 75.7986 394.846 75.7427 394.285 75.7381C393.642 75.7381 392.932 75.688 392.189 75.6797C390.695 75.6797 389.35 75.6797 388.373 75.7214L387.221 75.7799C387.073 75.7779 386.925 75.7891 386.778 75.8133Z" fill="#FAFAFA"/>
<path d="M391.181 74.3268C391.192 74.2269 391.192 74.126 391.181 74.0262C391.181 73.7506 391.106 73.4834 391.064 73.1911C390.972 72.4981 390.855 71.5211 390.747 70.4773C390.638 69.4336 390.58 68.4566 390.538 67.7635C390.538 67.4796 390.521 67.2013 390.488 66.9285C390.502 66.8289 390.502 66.7276 390.488 66.6279C390.475 66.7278 390.475 66.8287 390.488 66.9285C390.488 67.1206 390.488 67.4045 390.488 67.7635C390.488 68.465 390.555 69.4336 390.655 70.494C390.755 71.5545 390.897 72.5148 391.014 73.1995C391.072 73.5502 391.131 73.8257 391.172 74.0345C391.161 74.1318 391.164 74.2303 391.181 74.3268Z" fill="#FAFAFA"/>
<path d="M398.129 77.6494C398.213 77.6981 398.303 77.7373 398.396 77.7663L399.131 78.0419L401.569 78.8769C402.019 79.0201 402.459 79.1902 402.888 79.3862C403.232 79.5444 403.507 79.8198 403.665 80.1628C403.768 80.3964 403.794 80.6565 403.74 80.906C403.682 81.073 403.615 81.1565 403.632 81.1648C403.702 81.097 403.756 81.0143 403.79 80.9227C403.885 80.6667 403.885 80.3854 403.79 80.1294C403.623 79.7587 403.326 79.4618 402.955 79.2944C402.525 79.0834 402.078 78.9075 401.619 78.7683L399.164 77.9333L398.421 77.6995C398.326 77.6709 398.228 77.6541 398.129 77.6494Z" fill="#FAFAFA"/>
<path d="M336.413 226.876L337.173 240.437C337.173 240.437 323.646 245.756 323.546 248.269L349.882 247.752L349.565 226.584L336.413 226.876Z" fill="#2A8BE9"/>
<g opacity="0.4">
<path d="M336.412 226.874L337.172 240.435C337.172 240.435 323.645 245.754 323.545 248.267L349.881 247.75L349.564 226.582L336.412 226.874Z" fill="black"/>
</g>
<path d="M345.287 239.133C345.543 239.204 345.763 239.367 345.905 239.59C346.046 239.814 346.1 240.082 346.055 240.344C345.994 240.601 345.835 240.824 345.613 240.967C345.39 241.11 345.121 241.162 344.861 241.112C344.586 241.042 344.346 240.871 344.192 240.633C344.037 240.394 343.978 240.106 344.026 239.826C344.12 239.565 344.309 239.351 344.557 239.226C344.804 239.102 345.089 239.077 345.354 239.158" fill="#E0E0E0"/>
<path d="M349.883 247.75L349.766 245.621L324.557 246.915C324.557 246.915 323.396 247.45 323.547 248.268L349.883 247.75Z" fill="#E0E0E0"/>
<path d="M336.747 240.311C336.747 240.436 337.39 240.478 338.033 240.879C338.676 241.279 339.027 241.814 339.144 241.764C339.261 241.714 339.052 240.971 338.267 240.503C337.482 240.035 336.714 240.194 336.747 240.311Z" fill="#263238"/>
<path d="M333.998 241.505C333.998 241.631 334.532 241.839 334.983 242.34C335.434 242.842 335.568 243.451 335.693 243.443C335.818 243.434 335.894 242.7 335.326 242.048C334.758 241.397 333.998 241.38 333.998 241.505Z" fill="#263238"/>
<path d="M332.496 244.845C332.613 244.845 332.78 244.219 332.437 243.526C332.095 242.833 331.485 242.557 331.435 242.691C331.385 242.824 331.761 243.167 332.036 243.743C332.312 244.319 332.395 244.829 332.496 244.845Z" fill="#263238"/>
<path d="M336.914 237.194C336.973 237.311 337.557 237.127 338.284 237.194C339.01 237.261 339.586 237.445 339.645 237.336C339.703 237.228 339.16 236.777 338.3 236.743C337.44 236.71 336.848 237.094 336.914 237.194Z" fill="#263238"/>
<g opacity="0.3">
<path d="M336.571 229.566L336.697 231.979L349.639 231.603L349.614 229.424L336.571 229.566Z" fill="black"/>
</g>
<path d="M336.812 234.466C337.245 234.58 337.699 234.58 338.132 234.466C338.604 234.367 339.063 234.216 339.501 234.015C339.759 233.89 340.01 233.751 340.253 233.598C340.396 233.509 340.528 233.402 340.645 233.28C340.725 233.186 340.772 233.068 340.779 232.945C340.787 232.822 340.754 232.699 340.687 232.596C340.621 232.507 340.536 232.435 340.437 232.386C340.338 232.337 340.229 232.311 340.119 232.312C339.952 232.308 339.785 232.334 339.626 232.387C339.338 232.457 339.058 232.558 338.791 232.688C338.35 232.902 337.944 233.184 337.589 233.523C336.996 234.099 336.796 234.583 336.838 234.608C336.879 234.633 337.188 234.241 337.798 233.773C338.156 233.496 338.549 233.265 338.967 233.088C339.21 232.985 339.462 232.901 339.718 232.838C339.994 232.754 340.228 232.754 340.303 232.838C340.378 232.921 340.303 232.905 340.303 232.988C340.218 233.078 340.123 233.156 340.019 233.222C339.796 233.372 339.565 233.509 339.326 233.631C338.923 233.842 338.5 234.016 338.065 234.149C337.639 234.22 337.221 234.326 336.812 234.466Z" fill="#263238"/>
<path d="M336.98 234.643C337.03 234.643 337.273 234.2 337.306 233.365C337.315 232.875 337.245 232.387 337.097 231.92C337.01 231.631 336.892 231.351 336.746 231.085C336.674 230.916 336.559 230.767 336.413 230.655C336.267 230.542 336.094 230.469 335.911 230.442C335.795 230.447 335.682 230.485 335.586 230.552C335.49 230.618 335.414 230.711 335.369 230.818C335.307 230.974 335.265 231.136 335.243 231.302C335.201 231.596 335.201 231.894 335.243 232.188C335.328 232.68 335.531 233.144 335.836 233.54C336.362 234.217 336.905 234.375 336.913 234.317C336.922 234.258 336.504 234.008 336.078 233.365C335.843 232.99 335.692 232.568 335.636 232.129C335.598 231.877 335.598 231.621 335.636 231.369C335.636 231.085 335.769 230.86 335.878 230.885C335.987 230.91 336.237 231.085 336.346 231.311C336.485 231.534 336.6 231.772 336.688 232.021C336.845 232.442 336.941 232.883 336.972 233.332C337.039 234.141 336.913 234.626 336.98 234.643Z" fill="#263238"/>
<path d="M407.548 169.286C407.548 169.286 404.667 184.049 399.891 184.257C394.046 184.508 351.585 185.092 351.585 185.092L354.107 232.362L335.587 231.92L328.222 185.334C327.399 181.155 328.098 176.819 330.192 173.11L330.343 172.851C331.925 170.248 334.15 168.095 336.804 166.599C339.458 165.104 342.452 164.315 345.498 164.309L380.761 163.774L407.548 169.286Z" fill="#263238"/>
<path d="M343.619 226.876L344.371 240.437C344.371 240.437 330.843 245.756 330.743 248.269L357.08 247.752L356.762 226.584L343.619 226.876Z" fill="#2A8BE9"/>
<path d="M352.486 239.133C352.742 239.204 352.962 239.367 353.104 239.59C353.246 239.814 353.3 240.082 353.255 240.344C353.195 240.602 353.037 240.827 352.814 240.97C352.591 241.113 352.32 241.164 352.061 241.112C351.785 241.042 351.546 240.871 351.391 240.633C351.236 240.394 351.177 240.106 351.226 239.826C351.319 239.565 351.509 239.351 351.756 239.226C352.003 239.102 352.289 239.077 352.553 239.158" fill="#E0E0E0"/>
<path d="M357.08 247.75L356.963 245.621L331.754 246.915C331.754 246.915 330.594 247.45 330.744 248.268L357.08 247.75Z" fill="#E0E0E0"/>
<path d="M343.944 240.311C343.944 240.436 344.596 240.478 345.23 240.879C345.865 241.279 346.224 241.814 346.341 241.764C346.458 241.714 346.249 240.971 345.464 240.503C344.679 240.035 343.911 240.194 343.944 240.311Z" fill="#263238"/>
<path d="M341.206 241.505C341.206 241.631 341.74 241.839 342.183 242.34C342.626 242.842 342.768 243.451 342.893 243.443C343.018 243.434 343.093 242.7 342.525 242.048C341.958 241.397 341.206 241.38 341.206 241.505Z" fill="#263238"/>
<path d="M339.693 244.845C339.818 244.845 339.977 244.219 339.634 243.526C339.292 242.833 338.683 242.557 338.632 242.691C338.582 242.824 338.958 243.167 339.234 243.743C339.509 244.319 339.568 244.829 339.693 244.845Z" fill="#263238"/>
<path d="M344.085 237.194C344.143 237.311 344.728 237.127 345.454 237.194C346.181 237.261 346.757 237.445 346.815 237.336C346.874 237.228 346.331 236.777 345.471 236.743C344.611 236.71 344.085 237.094 344.085 237.194Z" fill="#263238"/>
<g opacity="0.3">
<path d="M343.769 229.566L343.902 231.979L356.837 231.603L356.811 229.424L343.769 229.566Z" fill="black"/>
</g>
<path d="M344.01 234.466C344.442 234.58 344.897 234.58 345.329 234.466C345.801 234.367 346.26 234.216 346.699 234.015C346.958 233.892 347.209 233.753 347.45 233.598C347.593 233.509 347.725 233.402 347.842 233.28C347.922 233.186 347.969 233.068 347.976 232.945C347.984 232.822 347.952 232.699 347.884 232.596C347.819 232.507 347.733 232.435 347.634 232.386C347.536 232.337 347.427 232.311 347.316 232.312C347.149 232.308 346.982 232.334 346.824 232.387C346.536 232.457 346.256 232.558 345.989 232.688C345.548 232.9 345.145 233.182 344.795 233.523C344.193 234.099 343.96 234.583 344.035 234.608C344.11 234.633 344.386 234.241 344.995 233.773C345.354 233.496 345.747 233.265 346.164 233.088C346.408 232.985 346.659 232.901 346.916 232.838C347.191 232.754 347.425 232.754 347.5 232.838C347.575 232.921 347.5 232.905 347.5 232.988C347.416 233.078 347.32 233.156 347.216 233.222C346.993 233.372 346.762 233.509 346.523 233.631C346.12 233.842 345.698 234.016 345.262 234.149C344.837 234.22 344.418 234.326 344.01 234.466Z" fill="#263238"/>
<path d="M344.178 234.643C344.228 234.643 344.47 234.2 344.503 233.365C344.517 232.875 344.446 232.386 344.294 231.92C344.207 231.631 344.089 231.351 343.944 231.085C343.871 230.916 343.756 230.767 343.61 230.655C343.464 230.542 343.291 230.469 343.109 230.442C342.992 230.447 342.879 230.485 342.783 230.552C342.687 230.618 342.612 230.711 342.566 230.818C342.504 230.974 342.462 231.136 342.441 231.302C342.399 231.596 342.399 231.894 342.441 232.188C342.525 232.68 342.729 233.144 343.034 233.54C343.56 234.217 344.102 234.375 344.111 234.317C344.119 234.258 343.702 234.008 343.276 233.365C343.04 232.99 342.889 232.568 342.833 232.129C342.796 231.877 342.796 231.621 342.833 231.369C342.875 231.085 342.975 230.86 343.075 230.885C343.176 230.91 343.434 231.085 343.543 231.311C343.682 231.534 343.797 231.772 343.885 232.021C344.043 232.442 344.138 232.883 344.169 233.332C344.236 234.141 344.086 234.626 344.178 234.643Z" fill="#263238"/>
<path d="M412.192 169.286C412.192 169.286 409.319 184.049 404.535 184.257C398.689 184.508 356.229 185.092 356.229 185.092L358.809 232.362L340.289 231.92L332.882 185.334C332.059 181.155 332.758 176.819 334.853 173.11L335.003 172.851C336.586 170.247 338.813 168.093 341.468 166.597C344.123 165.101 347.119 164.313 350.167 164.309L385.421 163.774L412.192 169.286Z" fill="#263238"/>
<path d="M376.066 110.014L381.661 147.155L377.878 163.855L412.231 173.967C415.337 169.525 415.454 155.422 415.345 145.443C415.153 127.858 415.93 127.006 415.17 120.835C414.41 114.665 413.116 110.707 409.859 108.761L400.491 103.977C400.491 103.977 395.213 107.317 391.998 107.158C391.998 107.158 388.182 107.317 386.07 105.288C386.07 105.262 378.321 107.601 376.066 110.014Z" fill="#2A8BE9"/>
<path d="M376.065 110.014L364.617 125.795L380.207 134.947L379.013 129.211L376.065 110.014Z" fill="#2A8BE9"/>
<path d="M348.787 164.532C348.721 164.546 348.653 164.546 348.587 164.532L348.011 164.573C347.694 164.595 347.379 164.634 347.067 164.69C346.642 164.742 346.221 164.82 345.806 164.924C343.147 165.577 340.691 166.88 338.659 168.715C337.261 169.974 336.06 171.435 335.093 173.049C333.987 174.898 333.3 176.967 333.081 179.111C332.881 181.493 332.971 183.89 333.348 186.25C333.69 188.755 334.183 191.261 334.442 193.924C335.035 199.185 335.828 204.178 336.571 208.712C337.314 213.246 338.032 217.313 338.609 220.753C339.185 224.193 339.636 226.957 339.911 228.886C340.036 229.821 340.137 230.556 340.212 231.107C340.212 231.341 340.262 231.525 340.279 231.684C340.286 231.75 340.286 231.817 340.279 231.884C340.252 231.823 340.235 231.758 340.229 231.692C340.229 231.533 340.162 231.35 340.112 231.116L339.736 228.911C339.385 226.957 338.901 224.202 338.3 220.803C337.698 217.405 336.972 213.288 336.17 208.779C335.369 204.27 334.592 199.252 333.999 193.966C333.732 191.336 333.256 188.797 332.922 186.309C332.54 183.915 332.459 181.483 332.68 179.069C332.91 176.871 333.626 174.752 334.776 172.865C335.77 171.225 337.009 169.747 338.45 168.481C340.532 166.639 343.05 165.357 345.765 164.757C346.757 164.545 347.774 164.47 348.787 164.532Z" fill="#455A64"/>
<path d="M361.947 153.068C361.947 153.068 375.199 157.344 385.503 161.076C387.253 161.711 389.132 161.903 390.974 161.635C392.815 161.367 394.562 160.647 396.058 159.54C397.972 158.128 399.39 156.146 400.108 153.878L407.163 131.65L395.381 127.525L387.507 147.507L358.198 143.658" fill="#FFBE9D"/>
<path d="M344.419 148.485L344.311 147.433C344.383 146.656 344.705 145.924 345.229 145.346C345.513 145.03 345.853 144.77 346.231 144.577L349.696 142.765C350.211 142.503 350.796 142.41 351.366 142.498L358.472 143.709L366.63 144.778L364.96 154.08L361.186 152.827C361.186 152.827 358.456 154.339 356.769 153.98C356.769 153.98 355.207 155.023 354.565 154.255C354.565 154.255 353.17 155.458 352.644 155.382C352.118 155.307 351.083 154.698 351.124 154.339L351.166 153.854C350.899 154.001 350.596 154.071 350.291 154.058C349.987 154.045 349.691 153.948 349.438 153.779C349.077 153.499 348.802 153.123 348.644 152.694C347.993 152.626 347.379 152.361 346.882 151.934C346.554 151.452 346.335 150.905 346.239 150.331C346.239 150.331 344.678 149.571 344.419 148.485Z" fill="#FFBE9D"/>
<path d="M349.664 145.119C349.714 145.119 349.798 145.503 349.622 146.088C349.364 146.828 348.935 147.497 348.37 148.042C347.744 148.685 347.159 149.211 346.8 149.645C346.441 150.079 346.249 150.38 346.19 150.355C346.132 150.33 346.19 149.962 346.558 149.461C347 148.842 347.501 148.266 348.053 147.741C348.574 147.228 349.009 146.633 349.338 145.979C349.564 145.478 349.589 145.119 349.664 145.119Z" fill="#EB996E"/>
<path d="M351.017 148.837C350.619 150.33 349.757 151.658 348.554 152.628C348.861 151.936 349.254 151.285 349.723 150.69C350.399 149.655 350.9 148.778 351.017 148.837Z" fill="#EB996E"/>
<path d="M352.83 151.289C352.93 151.356 352.637 151.957 352.17 152.642C351.702 153.327 351.251 153.828 351.151 153.752C351.051 153.677 351.352 153.076 351.811 152.4C352.27 151.723 352.729 151.222 352.83 151.289Z" fill="#EB996E"/>
<path d="M352.495 150.313C352.495 150.363 352.311 150.372 352.094 150.238C351.953 150.144 351.833 150.021 351.742 149.877C351.652 149.733 351.592 149.572 351.568 149.403C351.539 149.238 351.546 149.069 351.59 148.908C351.633 148.746 351.711 148.596 351.819 148.468C351.977 148.276 352.136 148.226 352.178 148.268C352.22 148.309 351.902 148.777 351.994 149.336C352.086 149.896 352.545 150.205 352.495 150.313Z" fill="#EB996E"/>
<path d="M354.473 152.81C354.473 152.86 354.323 152.869 354.139 152.81C354.022 152.74 353.92 152.647 353.84 152.537C353.759 152.426 353.702 152.301 353.672 152.167C353.62 152.022 353.614 151.864 353.654 151.715C353.694 151.565 353.779 151.432 353.897 151.332C354.114 151.182 354.281 151.282 354.265 151.332C354.173 151.419 354.108 151.531 354.078 151.654C354.048 151.777 354.055 151.906 354.098 152.025C354.19 152.451 354.524 152.702 354.473 152.81Z" fill="#EB996E"/>
<path d="M351.343 147.659C351.343 147.709 351.16 147.751 350.909 147.659C350.742 147.578 350.599 147.455 350.494 147.303C350.388 147.15 350.324 146.973 350.307 146.788C350.29 146.603 350.322 146.417 350.398 146.248C350.474 146.079 350.593 145.932 350.742 145.822C350.968 145.664 351.151 145.68 351.16 145.73C351.168 145.78 350.692 146.156 350.742 146.749C350.792 147.342 351.377 147.559 351.343 147.659Z" fill="#EB996E"/>
<path d="M407.221 111.776C404.532 110.607 401.217 111.776 399.271 113.814C397.326 115.851 396.432 118.515 395.597 121.103C394.762 123.692 392.775 128.677 391.965 131.173L407.237 137.712C408.54 134.188 409.753 130.633 410.878 127.049C411.83 124.042 412.715 120.803 411.613 117.813" fill="#2A8BE9"/>
<path d="M411.616 117.814C411.684 117.929 411.738 118.053 411.774 118.182C411.907 118.542 412.005 118.914 412.067 119.292C412.306 120.711 412.269 122.163 411.958 123.568C411.491 125.707 410.874 127.811 410.113 129.864C409.278 132.252 408.443 134.915 407.449 137.78L407.374 137.988L407.157 137.896L396.402 133.304L391.876 131.367L391.692 131.283L391.751 131.116C392.987 127.476 394.364 124.144 395.4 121.096C395.853 119.619 396.411 118.176 397.07 116.779C397.66 115.532 398.468 114.4 399.458 113.439C400.97 112.013 402.974 111.223 405.053 111.234C405.621 111.252 406.184 111.353 406.723 111.535C406.904 111.598 407.08 111.677 407.249 111.769C406.545 111.536 405.811 111.406 405.069 111.385C403.055 111.429 401.132 112.231 399.683 113.631C398.74 114.571 397.971 115.671 397.412 116.879C396.779 118.271 396.243 119.705 395.809 121.171C394.799 124.269 393.421 127.617 392.21 131.233L392.085 130.983L396.619 132.92L407.357 137.529L407.065 137.646C408.05 134.782 408.969 132.135 409.795 129.755C410.573 127.72 411.217 125.636 411.724 123.518C412.047 122.15 412.126 120.737 411.958 119.342C411.783 118.332 411.582 117.823 411.616 117.814Z" fill="#263238"/>
<path d="M392.039 155.131C391.989 155.131 391.872 154.296 391.354 152.768C391.036 151.867 390.612 151.006 390.093 150.204C389.431 149.15 388.519 148.275 387.438 147.657H387.48L370.938 145.503L360.918 144.159L356.567 143.557L352.785 142.948L351.115 142.689C350.647 142.606 350.164 142.692 349.754 142.931L347.608 143.967L346.247 144.609C346.092 144.695 345.926 144.76 345.754 144.802C345.897 144.698 346.047 144.606 346.205 144.526L347.532 143.816L349.645 142.714C350.099 142.442 350.633 142.336 351.156 142.413L352.826 142.647L356.609 143.198L360.968 143.766L370.988 145.077L387.505 147.34H387.555C388.686 147.994 389.631 148.925 390.302 150.045C390.815 150.873 391.222 151.763 391.513 152.692C391.697 153.275 391.842 153.869 391.947 154.471C392.002 154.687 392.032 154.908 392.039 155.131Z" fill="#EB996E"/>
<path d="M381.662 146.563C381.547 146.171 381.471 145.768 381.436 145.36C381.294 144.525 381.119 143.406 380.91 142.079C380.434 139.231 379.808 135.44 379.115 131.224C378.422 127.007 377.787 123.241 377.32 120.368C377.111 119.041 376.944 117.93 376.81 117.079C376.724 116.678 376.679 116.269 376.677 115.859C376.814 116.244 376.915 116.641 376.977 117.045L377.62 120.318C378.146 123.082 378.839 126.898 379.549 131.174C380.259 135.449 380.843 139.248 381.219 142.029C381.411 143.423 381.537 144.534 381.612 145.369C381.667 145.764 381.684 146.164 381.662 146.563Z" fill="#263238"/>
<path d="M539.896 329.35C539.896 329.475 419.036 329.567 269.986 329.567C120.936 329.567 0.0595703 329.475 0.0595703 329.35C0.0595703 329.225 120.894 329.133 270.003 329.133C419.111 329.133 539.896 329.233 539.896 329.35Z" fill="#263238"/>
<path d="M16.2395 301.509C14.8951 303.321 12.3984 302.636 11.2712 301.509C10.1439 300.382 9.68465 298.703 9.27549 297.133C8.34863 293.551 7.42176 289.794 8.28182 286.195C8.49028 285.1 8.99913 284.085 9.75145 283.264C10.1307 282.859 10.6095 282.562 11.14 282.4C11.6705 282.239 12.2341 282.22 12.7742 282.345C14.0351 282.713 14.7866 283.974 15.3293 285.168C16.9013 288.69 17.6741 292.517 17.5922 296.374C17.6583 298.182 17.1845 299.97 16.2312 301.509" fill="#2A8BE9"/>
<g opacity="0.2">
<path d="M16.2434 301.509C14.899 303.321 12.4023 302.636 11.2751 301.509C10.1478 300.382 9.68856 298.703 9.2794 297.133C8.35253 293.551 7.42567 289.794 8.28573 286.195C8.49418 285.1 9.00304 284.085 9.75536 283.264C10.1346 282.859 10.6134 282.562 11.1439 282.4C11.6744 282.239 12.238 282.22 12.7781 282.345C14.039 282.713 14.7905 283.974 15.3332 285.168C16.9052 288.69 17.678 292.517 17.5961 296.374C17.6622 298.182 17.1884 299.97 16.2351 301.509" fill="black"/>
</g>
<path d="M11.1476 310.719C9.01138 309.649 6.58885 309.289 4.23365 309.692C2.94921 309.775 1.72816 310.28 0.759992 311.128C-0.125123 312.055 -0.325527 313.717 0.634739 314.56C1.26014 315.001 2.01766 315.213 2.78072 315.162C4.61775 315.162 6.66354 314.919 8.09976 316.063C8.93478 316.723 9.45249 317.784 10.4462 318.118C10.943 318.248 11.4689 318.213 11.9438 318.017C12.4187 317.821 12.8165 317.475 13.0764 317.032C13.5793 316.123 13.7138 315.056 13.4522 314.051C13.3496 313.356 13.0883 312.694 12.6887 312.116C12.289 311.538 11.7617 311.06 11.1476 310.719Z" fill="#2A8BE9"/>
<path d="M19.7141 304.251C19.0719 303.367 18.6561 302.339 18.5032 301.258C18.3504 300.176 18.4651 299.073 18.8374 298.046C19.5897 295.996 20.8927 294.193 22.6033 292.836C24.5699 291.185 26.8387 289.931 29.2834 289.145C30.2295 288.792 31.241 288.65 32.2477 288.728C32.7495 288.77 33.2333 288.934 33.6569 289.206C34.0806 289.478 34.431 289.85 34.6776 290.289C35.3372 291.617 34.6275 293.195 33.8426 294.464C32.5195 296.725 31.0201 298.877 29.3585 300.902C28.0225 302.53 26.5028 304.134 24.5155 304.835C22.5281 305.536 20.4907 305.386 19.5054 304" fill="#2A8BE9"/>
<path d="M15.5827 329.348C15.5203 329.074 15.4895 328.794 15.4909 328.513C15.4408 327.895 15.3907 327.127 15.3239 326.217C15.241 325.097 15.0989 323.982 14.898 322.877C14.6353 321.519 14.2639 320.184 13.7874 318.885C13.3226 317.583 12.673 316.354 11.8585 315.236C11.1959 314.331 10.3403 313.583 9.35351 313.049C8.68468 312.691 7.96303 312.443 7.21587 312.314C6.93288 312.3 6.65255 312.252 6.38086 312.172C6.65846 312.143 6.93827 312.143 7.21587 312.172C7.9917 312.25 8.74701 312.468 9.44536 312.815C10.4859 313.343 11.3914 314.103 12.0924 315.036C12.9389 316.168 13.6116 317.421 14.088 318.752C14.5803 320.049 14.9575 321.388 15.2153 322.751C15.4021 323.879 15.522 325.017 15.5744 326.158C15.5744 327.135 15.6245 327.92 15.6245 328.463C15.6402 328.759 15.6262 329.055 15.5827 329.348Z" fill="#263238"/>
<path d="M15.4744 327.58C15.4563 327.449 15.4563 327.317 15.4744 327.187C15.4744 326.895 15.4744 326.527 15.4744 326.077C15.4744 325.116 15.5412 323.713 15.5329 321.993C15.5329 318.536 15.3742 313.768 14.94 308.516C14.5058 303.264 13.8628 298.496 13.27 295.156C13.128 294.321 12.9861 293.536 12.8441 292.868C12.7022 292.2 12.602 291.616 12.4934 291.14C12.3849 290.664 12.3181 290.305 12.2596 290.054C12.227 289.928 12.2074 289.8 12.2012 289.67C12.2012 289.67 12.2596 289.795 12.3264 290.037C12.3932 290.279 12.5018 290.672 12.6187 291.114C12.7356 291.557 12.8859 292.158 13.0362 292.826C13.1865 293.494 13.3535 294.262 13.5121 295.114C14.3461 299.532 14.9426 303.992 15.2991 308.474C15.7333 313.735 15.8669 318.495 15.8001 321.985C15.8001 323.713 15.6999 325.116 15.6247 326.077C15.6247 326.527 15.5579 326.912 15.5329 327.187C15.5221 327.319 15.5026 327.45 15.4744 327.58Z" fill="#263238"/>
<path d="M15.699 318.37C15.6641 317.981 15.6641 317.59 15.699 317.201C15.7658 316.458 15.8911 315.38 16.1416 314.069C16.804 310.64 17.8807 307.303 19.348 304.133C20.7609 300.929 22.7411 298.007 25.1931 295.507C25.6217 295.081 26.0763 294.683 26.5542 294.313C26.7629 294.146 26.9466 293.979 27.1303 293.845L27.6564 293.503C27.972 293.28 28.3042 293.082 28.6501 292.91C27.5001 293.766 26.4041 294.692 25.3685 295.682C22.9861 298.201 21.0492 301.107 19.6403 304.275C18.8444 306.005 18.1611 307.784 17.5945 309.602C17.1133 311.083 16.7092 312.588 16.3837 314.111C16.1082 315.414 15.9411 316.483 15.8326 317.217C15.814 317.604 15.7694 317.989 15.699 318.37Z" fill="#263238"/>
</svg>
