<?xml version="1.0" encoding="utf-8"?>
<!-- Generator: Adobe Illustrator 16.0.0, SVG Export Plug-In . SVG Version: 6.00 Build 0)  -->
<!DOCTYPE svg PUBLIC "-//W3C//DTD SVG 1.1//EN" "http://www.w3.org/Graphics/SVG/1.1/DTD/svg11.dtd">
<svg version="1.1" id="Layer_1" xmlns="http://www.w3.org/2000/svg" xmlns:xlink="http://www.w3.org/1999/xlink" x="0px" y="0px"
	 width="1000px" height="1000px" viewBox="0 0 1000 1000" enable-background="new 0 0 1000 1000" xml:space="preserve">
<title>happy-customer</title>
<path fill="#0C4072" d="M749.675,268.188c2.744-6.666,7.882-12.065,14.404-15.137c7.339-3.142,15.549-3.603,23.193-1.302
	c8.024,2.281,15.52,6.125,22.054,11.312c24.039,19.262,38.818,47.785,40.69,78.532c0.683,11.58,0.519,23.194-0.488,34.75
	c-0.651,8.138-1.709,16.764-3.174,25.635h84.146c13.195,0.431,26.138,3.735,37.924,9.685c9.429,4.699,17.477,11.766,23.355,20.508
	c5.961,9.289,8.811,20.233,8.139,31.25c-0.526,10.045-3.102,19.877-7.568,28.89c3.001,11.382,3.774,23.236,2.278,34.912
	c-1.158,8.938-5.252,17.239-11.638,23.601c0.592,13.351-1.369,26.69-5.777,39.307c-4.119,10.969-10.496,20.949-18.718,29.297
	c-0.622,7.042-1.875,14.015-3.743,20.833c-2.247,8.055-5.882,15.656-10.742,22.461l0,0c-14.323,20.183-25.717,19.694-43.783,18.962
	c-2.522,0-5.208,0-9.439,0H727.295c-12.703,0.511-25.345-2.028-36.865-7.406c-11.352-6.206-21.211-14.815-28.89-25.228l-2.441-6.999
	V450.887l8.138-2.197c21.159-5.696,37.761-23.763,50.7-45.41c12.295-21.88,21.991-45.123,28.89-69.254v-49.642
	c-0.574-5.568,0.353-11.188,2.686-16.276L749.675,268.188z M218.506,215.292c75.496-20.311,155.973-9.709,223.633,29.459
	l0.977,0.651c50.518,29.362,91.145,73.105,116.699,125.651c-10.962,1.41-21.485,5.187-30.843,11.067
	c-22.806-45.398-58.393-83.135-102.377-108.561l-0.813-0.488c-125.291-72.436-285.58-29.587-358.016,95.704
	C-4.67,494.066,38.178,654.355,163.469,726.791c60.018,34.698,131.339,44.199,198.347,26.424h1.628
	c36.422-9.791,70.273-27.397,99.202-51.596c2.667,6.141,6.113,11.912,10.254,17.172c1.852,2.512,3.892,4.879,6.104,7.08l2.604,2.522
	c-32.35,26.66-70.032,46.084-110.515,56.966h-0.488c-157.308,42.002-318.879-51.473-360.88-208.78
	c-42.001-157.308,51.473-318.88,208.781-360.881V215.292z M146.484,542.439c11.51,14.748,25.236,27.624,40.69,38.168
	c33.237,22.864,72.782,34.785,113.119,34.098c39.331-0.239,77.539-13.137,108.968-36.783c13.082-10.087,24.553-22.105,34.018-35.645
	c0.38-0.383,0.999-0.384,1.381-0.003c0.001,0.001,0.001,0.002,0.002,0.003l11.068,10.742c0.32,0.344,0.32,0.877,0,1.221
	c-15.729,27.5-37.556,51.025-63.803,68.766c-26.935,18.02-58.425,28.036-90.82,28.891c-32.98,0.495-65.445-8.213-93.75-25.146
	c-29.528-18.079-54.57-42.621-73.242-71.777c-0.272-0.392-0.272-0.911,0-1.303l11.393-11.312c0.409-0.393,1.056-0.393,1.465,0
	L146.484,542.439z M365.723,367.96c19.531,0,35.319,22.868,35.319,51.107c0,28.239-15.788,51.025-35.319,51.025
	s-35.237-22.868-35.237-51.025C330.485,390.91,346.272,367.96,365.723,367.96z M223.795,367.96
	c19.531,0,35.319,22.868,35.319,51.107c0,28.239-15.788,51.025-35.319,51.025s-35.237-22.868-35.237-51.025
	C188.558,390.91,204.346,367.96,223.795,367.96z M569.661,430.949h48.178c9.304-0.045,16.882,7.46,16.927,16.764l0,0v223.145
	c-0.045,9.272-7.574,16.765-16.846,16.765h-84.31c-9.24-0.045-16.72-7.524-16.765-16.765
	c14.485-77.474,24.414-148.763,35.808-223.145c-0.001-9.259,7.504-16.765,16.763-16.766
	C569.497,430.947,569.579,430.947,569.661,430.949z M773.112,273.397c-2.288,1.439-3.812,3.829-4.15,6.51v55.501l-0.488,3.174
	c-7.494,26.504-18.122,52.021-31.657,76.009c-13.997,23.355-32.552,43.457-55.745,52.734v170.572
	c5.178,6.63,11.624,12.163,18.961,16.276c8.468,3.736,17.693,5.437,26.938,4.964h164.144c2.93,0,6.755,0,10.254,0
	c10.823,0,17.578,0.732,24.414-9.521l0,0c3.255-4.725,5.651-9.986,7.08-15.543c1.841-6.753,2.959-13.682,3.337-20.671l3.418-7.324
	c7.241-6.576,12.818-14.775,16.275-23.926c3.981-11.547,5.479-23.805,4.395-35.97v-6.674l5.615-3.499
	c3.978-2.962,6.472-7.506,6.836-12.451c1.063-9.965,0.094-20.042-2.848-29.622l0.895-8.139c3.98-7.164,6.368-15.103,6.999-23.274
	c0.34-6.439-1.37-12.821-4.883-18.229c-3.84-5.509-8.984-9.982-14.974-13.021c-8.675-4.373-18.203-6.79-27.914-7.08H819.417
	l2.523-13.103c2.359-12.776,4.068-24.983,5.127-36.54c0.964-10.47,1.127-20.999,0.488-31.494
	c-1.327-24.276-12.855-46.86-31.738-62.174c-4.188-3.393-8.998-5.937-14.16-7.487c-2.633-0.931-5.506-0.931-8.139,0H773.112z"/>
</svg>
