<?xml version="1.0" encoding="utf-8"?>
<!-- Generator: Adobe Illustrator 16.0.0, SVG Export Plug-In . SVG Version: 6.00 Build 0)  -->
<!DOCTYPE svg PUBLIC "-//W3C//DTD SVG 1.1//EN" "http://www.w3.org/Graphics/SVG/1.1/DTD/svg11.dtd">
<svg version="1.1" id="Layer_1" xmlns="http://www.w3.org/2000/svg" xmlns:xlink="http://www.w3.org/1999/xlink" x="0px" y="0px"
	 width="512px" height="512px" viewBox="0 0 512 512" enable-background="new 0 0 512 512" xml:space="preserve">
<g transform="translate(0.000000,512.000000) scale(0.100000,-0.100000)">
	<path fill="#0C4072" d="M1546.001,4980c-33.003-10-83.999-56.001-96.001-86.001c-7.002-16.001-22.998-22.998-90-32.998
		c-323.999-48.999-547.998-231-606.001-491c-11.997-52.002-20-70-32.998-70c-71.001,0-165-67.998-177.002-128.999L537.998,4140
		H332.002c-201.001,0-206.001-1.001-248.003-25c-27.998-16.001-48.999-38.999-62.998-67.998C2.002,4007.998,0,3986.001,0,3807.998
		c0-181.997,1.001-196.997,21.001-221.997c26.001-33.003,76.997-36.001,105-5c16.997,18.999,20,41.997,23.999,212.998L155,3985
		l190,2.998L535,3990l20-42.002c12.002-23.999,35-51.997,52.998-62.998l31.001-20L640,3747.998V3630l-33.999-43.999
		c-47.002-63.003-58.999-105-53.999-195c5.996-93.999,30.996-153.003,95-222.002C692.002,3120,792.998,3060,831.001,3060
		c10,0,21.997-22.998,36.997-67.002C880,2955,907.002,2896.001,927.002,2860c48.999-83.999,190-225,270.996-270
		c100-55.996,96.001-50.996,88.003-104.004c-6.001-38.994-10-45.996-23.999-40c-74.004,31.006-120,11.006-182.002-80.996
		l-48.999-72.998L912.998,2265C587.002,2190.996,570,2184.004,570,2122.998c0-38.994,28.999-72.998,63.999-72.998
		c13.999,0,108.999,20,212.002,45c103.999,24.004,188.999,42.998,190,42.002c1.997-2.002,118.999-242.998,191.001-396.006
		c30-62.998,101.997-86.992,163.999-55.996c26.997,15,30,14.004,35-2.002c3.999-10,15-37.002,26.001-60l18.999-40.996
		l-48.003-96.006L1375,1390H912.002H447.998L455,1507.998c3.999,64.004,13.999,155,22.002,202.002
		c28.999,167.998,28.999,174.004-2.002,197.998c-32.002,26.006-62.002,27.998-92.002,7.002c-35-25-65-180-78.999-407.002
		L297.002,1390h-73.003H150v955.996c0,592.002-3.999,962.002-10,973.003c-5,10-22.002,23.999-38.999,30
		c-23.999,10-33.999,10-58.999-2.998C26.001,3337.998,10,3322.998,6.001,3315C2.998,3306.001,0,2777.002,0,2139.004
		C0,1020.996,1.001,977.998,18.999,942.002c10-20,28.003-45,38.999-55c51.001-47.002,41.001-46.006,1060-47.002H2080V685.996v-155
		l-142.998-2.998c-140-2.998-145-3.994-180-30.996c-60-45-70-76.006-71.001-205C1685,180,1685,177.998,1712.998,154.004
		L1741.001,130H2460h719.004l27.998,24.004C3235,177.998,3235,180,3234.004,292.002c-1.006,128.994-11.006,160-71.006,205
		c-35,27.002-40,27.998-180,30.996L2840,530.996v155V840h962.998c1017.998,0.996,1007.002,0,1059.003,47.002
		c10.996,10,28.994,35.996,38.994,57.998c18.008,37.998,19.004,99.004,19.004,1324.004v1283.994l50,53.003
		c60,62.998,65.996,101.001,24.004,145c-24.004,25-25,28.999-13.008,62.998c12.002,33.999,16.006,36.001,55,36.001
		c34.004,0,47.002,5,63.008,26.001c18.994,25,20.996,40,20.996,198.999c0,202.002-4.004,212.998-82.002,222.002
		c-40,5-47.998,10-58.994,35c-11.006,25.996-9.004,31.997,15,56.997c17.998,18.999,25.996,38.003,25.996,62.002
		c0,31.997-12.998,46.997-127.998,161.997C4807.998,4696.001,4755.996,4740,4742.002,4740c-12.002,0-37.002-13.999-56.006-30
		c-33.994-30-35-30-70-16.001c-32.998,13.999-35.996,18.003-35.996,55c0,28.003-7.002,48.003-20,61.001
		c-19.004,18.999-32.998,20-200,20s-180.996-1.001-200-20c-12.998-12.998-20-32.998-20-60c0-36.001-2.998-41.001-35.996-55
		c-36.006-15-37.002-13.999-71.006,15c-17.998,17.002-42.998,30-55,30c-13.994,0-65.996-43.999-150-127.002
		c-115-115-127.998-130-127.998-161.997c0-23.999,7.998-43.003,25.996-62.002c24.004-25,26.006-31.001,15-56.997
		c-10.996-25-18.994-30-58.994-35C3620,4290,3600,4265,3600,4193.999V4140h-389.004h-387.998l-7.002,31.001
		C2804.004,4232.002,2710,4300,2639.004,4300c-13.008,0-21.006,17.998-33.008,71.001C2569.004,4535,2450,4686.001,2295,4767.002
		c-91.001,46.997-218.999,86.997-312.998,97.998c-52.002,6.001-65,11.001-72.002,28.999c-12.002,32.002-62.998,75-101.001,86.001
		C1767.998,4992.001,1586.001,4992.001,1546.001,4980z M1770,4570v-270h-90h-90v270v270h90h90V4570z M1440,4510v-210h-273.999
		H892.002l10,42.002c31.997,141.997,150,270,305.996,327.998c57.002,22.002,166.001,47.002,210,48.999L1440,4720V4510z
		 M2075,4693.999c196.001-46.997,346.001-185,382.998-351.001l10-42.998h-273.999H1920v202.998
		c0,112.002,2.998,207.002,7.002,211.001C1935,4722.002,1987.998,4715,2075,4693.999z M4434.004,4646.001
		c6.992-37.002,27.998-60,65.996-71.001c14.004-3.999,55.996-21.001,94.004-37.998l67.998-31.001l40.996,21.997l41.006,23.003l50-50
		l48.994-48.999L4820.996,4425c-26.992-35-26.992-55,3.008-112.998c12.998-26.001,29.999-66.001,36.991-90
		c14.004-49.004,40-72.002,81.006-72.002h27.998v-75c0-73.999,0-75-25.996-75c-29.004,0-84.004-48.999-84.004-75
		c0-8.999-12.998-42.998-29.999-77.002c-35.996-70.996-37.002-95.996-9.004-132.998l22.002-27.002l-50.996-50.996l-51.006-51.001
		l-23.994,21.997c-31.006,30-62.998,28.003-139.004-7.998c-33.994-16.001-67.998-30-73.994-30c-24.004,0-64.004-42.002-70-75
		l-6.006-35H4360h-67.998l-6.006,35c-5.996,32.998-45.996,75-70,75c-5.996,0-40,13.999-73.994,30
		c-76.006,36.001-107.998,37.998-139.004,7.998l-23.994-21.997l-51.006,51.001l-50.996,50.996l22.002,27.002
		c25.996,33.999,26.992,67.998,1.992,108.999c-10.996,17.002-26.992,55-35.996,83.999C3845.996,3965,3810.996,4000,3774.004,4000
		c-23.008,0-24.004,2.998-24.004,75v75h27.998c41.006,0,67.002,22.998,81.006,72.002c6.992,23.999,23.994,63.999,36.992,90
		c30,57.998,30,77.998,3.008,112.998l-22.002,27.002l48.994,48.999l50,50l41.006-23.003l40.996-21.997l72.998,31.997
		c140,62.002,143.008,64.004,153.008,105l10,37.002h66.992h67.002L4434.004,4646.001z M2667.998,4072.998l2.998-72.998H1680H690
		v67.998c0,38.003,2.998,72.002,7.002,75c2.998,4.004,447.998,6.001,986.997,5L2665,4145L2667.998,4072.998z M3600,3946.001
		c0-63.003,29.004-96.001,84.004-96.001c38.994,0,42.998-2.002,55-36.001c11.992-33.999,10.996-37.998-13.008-62.998
		C3707.998,3732.998,3700,3712.998,3700,3690c0-30,14.004-47.998,122.998-157.002C3960.996,3395,3980,3386.001,4039.004,3436.001
		c27.998,22.998,33.994,25,65.996,13.999c32.998-11.001,35-13.999,35-55c0-35,5-47.998,25.996-63.999
		c25-18.999,40-21.001,194.004-21.001s169.004,2.002,194.004,21.001C4575,3347.002,4580,3360,4580,3395c0,41.001,2.002,43.999,35,55
		c32.002,11.001,37.998,8.999,65.996-13.999c18.008-15,43.008-26.001,60-26.001H4770V2400V1390.996l-380.996-2.998L4007.998,1385
		l-18.994-24.004c-25-30.996-24.004-68.994,2.998-97.998l20.996-22.998h379.004h378.994l-2.998-122.002L4765,995H2460H155
		l-2.998,122.998L148.999,1240h1790h1790.005l20,25.996c33.994,43.008,25.996,86.006-20,109.004
		c-23.008,12.002-87.002,15-347.002,15h-319.004l-7.002,112.998C3040.996,1740,3002.998,1915,2944.004,2015
		c-35,60-115,132.002-177.002,159.004c-29.004,12.998-140,45-248.003,70.996l-195,49.004l-40,53.994
		c-62.998,87.998-88.999,105-150,100c-51.001-3.994-51.997-3.994-57.998,25c-11.001,57.002-8.003,62.998,61.001,103.003
		c136.997,80,283.999,253.999,343.999,407.998c25,63.999,30,71.001,66.001,81.001c67.002,20,117.002,52.002,165.996,103.999
		c62.002,66.001,89.004,128.003,95,216.001c5,87.998-8.994,142.002-52.998,200l-35,45v117.998l0.996,117.002l31.006,20
		c17.998,11.001,40.996,38.999,52.998,62.998l20,42.002h387.002H3600V3946.001z M971.001,3817.998
		c-11.001-46.997-38.003-95.996-60-107.998c-11.001-5-42.002-10-70-10H790v75v75h93.999h93.999L971.001,3817.998z
		 M2246.001,3782.002c6.997-35,23.999-83.003,37.998-106.001c25-43.003,88.003-106.001,106.001-106.001
		c12.998,0,12.998-181.001,0-310c-17.998-173.999-68.999-298.999-171.001-420c-145-172.002-392.998-262.998-631.001-231.001
		c-245.996,33.003-451.997,168.999-546.997,362.002C985,3086.001,968.999,3170,962.998,3385l-3.999,180l32.002,20
		c65,38.999,110,120,133.999,237.998l5,27.002l552.002-2.002l550.996-2.998L2246.001,3782.002z M2570,3775v-75h-51.001
		c-27.998,0-58.999,5-71.001,11.001c-21.997,11.997-56.997,81.997-57.998,116.997c0,21.001,2.998,22.002,90,22.002h90V3775z
		 M812.002,3387.998c2.998-90,3.999-163.999,1.997-165.996c-1.001-2.002-18.999,11.997-40,30
		C680,3333.999,675,3476.001,762.998,3530c18.003,11.001,35,20,38.003,20C805,3550,810,3477.002,812.002,3387.998z M2590.996,3535
		c94.004-48.999,91.006-198.999-5-282.998c-20.996-18.003-38.994-32.002-40.996-30c-3.999,5,7.002,327.998,12.002,327.998
		C2558.999,3550,2574.004,3542.998,2590.996,3535z M1590,2459.004c76.001-10,115-9.004,200,1.992
		c57.998,8.008,111.001,14.004,118.999,14.004c10,0,20-25,31.001-77.998l17.002-77.998l-134.004-122.002
		C1750,2130,1686.001,2075,1680,2075s-70,55-143.999,122.002L1402.998,2320l14.004,67.002c20.996,97.998,20,95.996,50.996,88.994
		C1482.998,2472.998,1537.998,2465,1590,2459.004z M1407.998,2110.996c78.003-72.998,142.002-135.996,142.002-140
		c0-7.998-200-135-203.999-130c-8.999,10-176.001,371.006-176.001,380c0,6.006,10,24.004,21.001,41.006l21.001,28.994l26.997-22.998
		C1252.998,2255,1328.999,2184.004,1407.998,2110.996z M2168.999,2250.996c12.002-15.996,21.001-31.992,21.001-35
		c0-5.996-170-367.998-176.001-375c-3.999-5-203.999,123.008-203.999,131.006c0,8.994,321.001,307.998,331.001,307.998
		C2145,2280,2157.998,2267.002,2168.999,2250.996z M2516.001,2090.996c198.999-50,203.999-51.992,251.997-95
		c71.006-65,112.002-192.998,132.002-416.992c5-63.008,10-131.006,10-151.006V1390h-462.998H1985l-47.998,95.996l-48.003,96.006
		l18.999,40.996c11.001,22.998,22.002,50,26.001,60c5,16.006,8.003,17.002,35,2.002c40-20,78.999-19.004,116.001,4.004
		c31.001,17.998,47.998,48.994,182.002,331.992c41.997,90,60,118.008,71.997,115
		C2347.998,2132.998,2427.998,2112.998,2516.001,2090.996z M1747.002,1829.004c35-23.008,62.998-42.002,62.998-43.008
		c0-1.992-7.002-22.998-16.001-48.994L1777.998,1690H1680h-97.998l-16.001,47.002c-8.999,25.996-13.003,50-8.999,53.994
		C1570,1802.002,1673.999,1870,1678.999,1870C1682.002,1870,1712.002,1850.996,1747.002,1829.004z M1782.998,1465l37.002-75h-140
		h-140l37.002,75l36.997,75H1680h66.001L1782.998,1465z M2680,685V530h-220h-220v155v155h220h220V685z M3080,330v-50h-620h-620v50
		v50h620h620V330z"/>
	<path fill="#0C4072" d="M1285,3741.001c-40-10-87.998-36.001-105-56.001c-18.999-22.998-17.002-71.001,5-95s55-25,113.999-2.998
		c41.001,15.996,47.002,15.996,91.001,0c26.001-9.004,58.999-17.002,72.998-17.002c30,0,67.002,42.002,67.002,75
		C1530,3712.002,1391.001,3766.001,1285,3741.001z"/>
	<path fill="#0C4072" d="M1928.999,3735C1875,3717.998,1830,3677.002,1830,3645c0-33.999,37.002-75,67.998-75
		c14.004,0,46.001,7.998,71.001,17.002c41.001,15.996,47.002,15.996,91.001,0c62.002-22.002,92.998-21.001,113.999,1.997
		c21.001,23.003,23.999,73.999,6.001,96.001C2137.002,3736.001,2011.001,3761.001,1928.999,3735z"/>
	<path fill="#0C4072" d="M1330,3492.998c-40-15-50-35-50-103.999c0-61.001,2.998-70,26.001-87.998
		c35-27.002,56.997-26.001,91.001,2.998c25,22.002,27.998,31.001,27.998,86.001s-2.998,63.999-27.998,86.001
		C1368.999,3500,1357.998,3502.998,1330,3492.998z"/>
	<path fill="#0C4072" d="M1963.999,3477.002C1937.998,3453.999,1935,3446.001,1935,3390c0-55,2.998-63.999,27.998-86.001
		c34.004-28.999,56.001-30,91.001-2.998c23.003,17.998,26.001,26.997,26.001,87.998c0,73.999-11.001,93.999-61.001,106.001
		C1998.999,3500,1986.001,3495,1963.999,3477.002z"/>
	<path fill="#0C4072" d="M1562.002,3242.998c-7.002-2.998-19.004-17.998-28.003-35c-35-67.998,30-121.997,146.001-121.997
		c117.002,0,181.001,53.999,146.001,122.998c-20,38.003-55,48.003-107.002,31.001c-31.997-11.001-46.997-11.001-72.998-2.002
		C1612.002,3250,1583.999,3252.002,1562.002,3242.998z"/>
	<path fill="#0C4072" d="M1483.999,2951.001c-30-13.003-46.997-61.001-35-93.999c13.003-33.003,85-71.001,168.999-87.002
		c49.004-10,75-10,124.004,0c83.999,16.001,155.996,53.999,168.999,87.002c13.999,36.997-5,77.998-42.002,92.998
		c-25,11.001-36.001,8.999-77.998-7.998C1712.998,2907.998,1672.998,2905,1605,2930
		C1526.001,2957.998,1508.999,2961.001,1483.999,2951.001z"/>
</g>
<path fill="#0C4072" d="M323.132,260.339c-9.781,1.656-18.505,9.097-22.134,18.772c-2.347,6.154-1.522,16.085,1.832,23.067
	c5.966,11.741,32.513,35.159,40.092,35.159c3.849,0,16.202-8.487,26.436-18.265l7.272-6.898l9.174,8.862
	c9.922,9.783,14.007,11.203,18.188,6.661c1.055-1.188,4.309-10.151,7.117-19.927c2.801-9.781,5.227-17.814,5.46-18.051
	c0.234-0.22,1.974,2.814,3.863,6.611c1.83,3.998,4.406,7.811,5.693,8.775c1.646,1.154,6.19,1.612,16.299,1.612
	c16.8,0,19.237-1.058,19.237-8.173c0-6.757-2.798-8.13-15.707-8.13h-10.608l-6.88-14.102c-7.118-14.463-9.558-17.353-14.235-17.353
	c-4.864,0-6.758,3.814-13.131,26.084l-6.204,21.806l-4.998-4.911c-4.559-4.407-4.779-5.138-3.864-8.492
	c3.033-10.245-4.405-24.945-15.388-30.534c-6.98-3.493-16.895-3.952-23.638-1.155c-3.49,1.375-4.866,1.515-6.898,0.457
	C336.303,260.108,328.824,259.285,323.132,260.339z M336.619,278.655c4.001,3.125,8.047,3.034,13.778-0.507
	c2.576-1.593,5.609-2.88,6.762-2.88c4.167,0,9.913,3.711,11.741,7.573c3.49,7.203,3.172,7.575-9.183,7.575
	c-10.288,0-11.422,0.224-13.998,2.897c-5.93,5.83-2.202,12.348,7.575,13.405l6.066,0.591l-7.676,6.286
	c-9.083,7.354-9.083,7.354-19.832-2.203c-12.45-10.96-17.904-19.229-16.533-24.839c0.915-3.627,5.147-8.864,8.17-10.239
	C326.979,274.809,333.046,275.945,336.619,278.655z"/>
<g>
	<path fill="#0C4072" d="M416.464,80.107c-13.483,2.956-20.702,17.641-14.791,30.155c0.641,1.336,1.731,3.172,2.436,4.027
		c1.583,1.996,30.228,28.151,31.239,28.516c0.494,0.199,1.055,0.199,1.539,0c0.879-0.311,28.399-25.307,30.566-27.731
		c5.097-5.738,6.604-15.009,3.604-22.171c-1.693-4.059-5.137-8.078-8.763-10.207c-7.604-4.541-16.631-3.868-23.958,1.731
		l-2.218,1.675l-2.193-1.675C428.652,80.411,422.258,78.828,416.464,80.107z"/>
</g>
<g>
	<path fill="#0C4072" d="M306.623,197.016c-2.451,2.493-2.658,5.808-0.406,9.029c1.415,2.091,2.221,2.262,15.735,2.262
		c13.481,0,14.338-0.171,15.75-2.262c2.256-3.221,2.04-6.537-0.405-9.029c-1.863-1.809-3.395-2.011-15.345-2.011
		C310.014,195.005,308.438,195.207,306.623,197.016z"/>
	<path fill="#0C4072" d="M348.55,197.016c-2.463,2.493-2.682,5.808-0.4,9.029l1.505,2.262h45.322c42.543,0,45.406-0.171,46.946-1.86
		c2.245-2.581,2.126-7.653-0.12-9.749c-1.748-1.491-6.41-1.693-46.525-1.693C351.934,195.005,350.461,195.086,348.55,197.016z"/>
	<path fill="#0C4072" d="M307.157,217.969c-3.192,3.064-3.312,6.704-0.259,9.513c2.176,2.092,3.52,2.262,15.172,2.262
		c12.04,0,12.962-0.081,15.022-2.344c3.054-3.302,2.865-7.253-0.4-9.833c-2.463-1.924-4.123-2.096-14.959-2.096
		C310.212,215.471,309.477,215.559,307.157,217.969z"/>
	<path fill="#0C4072" d="M349.252,217.485c-3.449,2.746-3.667,6.932-0.401,9.997c2.346,2.262,2.681,2.262,46.309,2.262
		c48.89,0,48.489,0.082,48.489-6.531c0-1.861-0.607-4.188-1.42-5.321c-1.443-1.849-3.288-1.931-45.811-2.25
		C352.518,215.313,351.934,215.471,349.252,217.485z"/>
	<path fill="#0C4072" d="M306.623,238.931c-2.451,2.506-2.658,5.891-0.406,9.028c1.415,2.173,2.221,2.253,15.735,2.253
		c13.481,0,14.338-0.08,15.75-2.253c2.256-3.138,2.04-6.522-0.405-9.028c-1.863-1.853-3.395-2.017-15.345-2.017
		C310.014,236.914,308.438,237.078,306.623,238.931z"/>
	<path fill="#0C4072" d="M348.55,238.931c-2.463,2.506-2.682,5.891-0.4,9.028l1.505,2.253h45.322c42.543,0,45.406-0.08,46.946-1.849
		c2.245-2.578,2.126-7.664-0.12-9.757c-1.748-1.528-6.41-1.692-46.525-1.692C351.934,236.914,350.461,236.995,348.55,238.931z"/>
</g>
</svg>
