<?xml version="1.0" encoding="utf-8"?>
<!-- Generator: Adobe Illustrator 16.0.0, SVG Export Plug-In . SVG Version: 6.00 Build 0)  -->
<!DOCTYPE svg PUBLIC "-//W3C//DTD SVG 1.1//EN" "http://www.w3.org/Graphics/SVG/1.1/DTD/svg11.dtd">
<svg version="1.1" id="Layer_1" xmlns="http://www.w3.org/2000/svg" xmlns:xlink="http://www.w3.org/1999/xlink" x="0px" y="0px"
	 width="24px" height="24px" viewBox="0 0 24 24" enable-background="new 0 0 24 24" xml:space="preserve">
<g transform="translate(0.000000,512.000000) scale(0.100000,-0.100000)">
	<path fill="#0C4072" d="M80.41,5093.232c-18.032-3.291-33.813-15.264-41.895-31.938c-4.272-8.833-5.869-16.816-5.542-27.9
		c0.283-8.218,1.548-14.795,4.414-23.247c2.163-6.152,7.705-17.52,11.602-23.623l3.101-4.844h-5.635h-5.591v7.988
		c0,6.953-0.142,8.262-0.894,9.766c-1.875,3.711-4.321,4.746-11.084,4.795c-2.583,0-5.542-0.234-6.572-0.518
		c-2.539-0.703-5.308-3.662-5.684-6.055l-0.332-1.885h-4.507c-5.732,0-7.798-0.605-10.005-2.813L0,4991.171v-23.955v-23.955
		l1.27-1.553c2.114-2.49,4.37-3.232,10.054-3.232h4.976l0.332-1.885c0.376-2.393,3.145-5.352,5.684-6.055
		c1.03-0.283,3.989-0.518,6.572-0.518c6.763,0.049,9.209,1.074,11.084,4.785c0.752,1.504,0.894,2.822,0.894,9.775v7.979h17.754
		h17.705l4.229-4.268c10.708-10.85,28.511-25.693,43.589-36.406c7.041-5.02,8.691-5.82,12.305-5.82
		c4.463,0,5.918,0.84,20.664,11.973c25.176,18.936,46.973,40.303,60.967,59.746c11.787,16.348,19.346,33.394,21.416,48.188
		c0.752,5.308,0.654,15.503-0.186,20.337c-1.27,7.188-5.635,18.32-7.656,19.399c-1.504,0.801-3.76,0.61-4.795-0.425
		c-1.357-1.357-1.172-3.33,0.664-7.183c3.564-7.471,5.02-13.95,5.02-22.358c-0.049-24.844-15.029-51.807-45.693-82.051
		c-11.934-11.787-23.252-21.465-37.48-31.992c-9.355-6.904-11.328-8.125-12.969-8.125c-1.504,0-5.215,2.451-15.923,10.479
		c-10.19,7.656-27.334,22.217-31.89,27.051l-1.411,1.455h15.83h15.83v-7.842c0-9.111,0.562-10.986,3.896-13.193
		c1.738-1.133,2.397-1.27,7.095-1.416c3.145-0.137,6.055,0.049,7.324,0.381c2.861,0.752,5.498,3.477,5.918,6.016l0.332,1.973h4.746
		c2.578,0,5.537,0.234,6.475,0.508c2.393,0.664,4.844,3.242,5.498,5.83c0.703,2.813,0.703,41.797,0,44.619
		c-0.615,2.393-2.861,4.834-5.215,5.684c-0.84,0.322-3.809,0.605-6.523,0.605l-4.98,0.049l-0.332,1.973
		c-0.42,2.539-3.057,5.264-5.918,6.016c-1.318,0.371-4.082,0.518-7.373,0.371c-4.697-0.186-5.4-0.322-7.095-1.406
		c-3.286-2.207-3.848-4.092-3.848-13.203v-7.842h-6.343c-5.728,0-6.436-0.088-7.28-0.938c-1.221-1.221-1.221-3.76,0-5.068
		c0.894-0.986,1.411-1.035,7.28-1.035h6.343v-7.285v-7.275H79.849H40.864v7.275v7.285H67.31h26.489l0.986,1.074
		c1.313,1.367,1.313,3.574,0.093,4.932c-0.986,1.035-1.128,1.035-17.285,1.035H61.294l-3.613,5.547
		c-16.064,24.561-20.996,46.357-14.702,64.863c6.479,19.019,23.813,32.686,43.682,34.282c15.547,1.27,29.59-4.131,40.908-15.732
		c4.883-4.98,6.152-5.825,8.877-5.825s4.082,0.894,8.691,5.591c5.02,5.117,8.828,7.983,14.326,10.757
		c7.373,3.711,14.131,5.308,22.305,5.308c12.49,0.044,22.08-3.384,32.5-11.602c2.871-2.256,4.18-3.008,5.313-3.008
		c1.973,0,3.525,1.646,3.525,3.76c0,1.313-0.43,2.017-2.451,3.848c-1.309,1.27-4.131,3.433-6.191,4.795
		c-10.244,6.763-19.971,9.673-32.461,9.673c-16.25,0-29.873-5.635-41.143-16.953l-4.512-4.512l-3.145,3.428
		c-7.988,8.74-19.961,15.22-31.938,17.334C96.191,5094.077,85.249,5094.125,80.41,5093.232z M33.115,4967.119v-29.355h-4.463h-4.463
		l-0.234,15.127c-0.234,14.375-0.283,15.176-1.172,16.064c-1.504,1.455-3.994,1.455-5.4,0.049
		c-0.894-0.898-0.942-1.553-0.942-11.416c0-7.52-0.142-10.615-0.562-11.035c-0.332-0.332-2.07-0.566-4.463-0.566
		c-3.335,0-3.945,0.137-4.37,0.889c-0.654,1.27-0.654,39.219,0,40.488c0.425,0.752,1.035,0.898,4.37,0.898
		c2.393,0,4.131-0.234,4.463-0.566c0.327-0.332,0.562-1.836,0.562-3.525c0-3.662,0.894-4.834,3.711-4.834
		c1.455,0,2.065,0.283,2.817,1.221c0.894,1.123,0.986,1.875,0.986,8.408c0,3.896,0.142,7.275,0.332,7.461
		c0.186,0.195,2.251,0.244,4.6,0.195l4.229-0.146V4967.119z M135.508,4967.119v-29.355h-4.463h-4.463l-0.137,29.072
		c-0.098,22.969,0,29.17,0.469,29.502c0.332,0.186,2.393,0.332,4.6,0.283l3.994-0.146V4967.119z M152.559,4987.695
		c0.791-0.801,0.791-40.342,0-41.143c-0.752-0.752-7.988-0.752-8.74,0c-0.801,0.801-0.801,40.342,0,41.143
		c0.332,0.332,2.021,0.566,4.365,0.566C150.537,4988.261,152.227,4988.027,152.559,4987.695z"/>
	<path fill="#0C4072" d="M115.122,5053.686c-0.752-0.659-2.441-5.498-6.626-19.399c-3.096-10.19-5.776-18.882-5.918-19.258
		c-0.327-0.752-0.42-0.562-5.21,15.264c-1.738,5.64-3.525,10.664-3.994,11.133c-0.796,0.801-2.256,0.845-19.771,0.845H54.624
		l-0.986-1.079c-1.499-1.597-1.406-4.18,0.19-5.449c1.221-0.938,1.782-0.986,17.754-0.986h16.484l5.4-17.705
		c5.732-18.838,6.152-19.873,8.833-19.873c2.817,0,3.052,0.518,9.063,20.435c3.149,10.332,5.825,18.975,6.011,19.165
		c0.239,0.186,0.85-1.318,1.46-3.428c1.738-6.06,0.186-5.64,21.46-5.64h18.037l1.133,1.177c1.406,1.362,1.494,3.477,0.273,4.976
		l-0.889,1.128l-16.348,0.234l-16.387,0.234l-2.583,8.55c-1.46,4.697-3.008,8.97-3.477,9.487
		C118.926,5054.716,116.484,5054.809,115.122,5053.686z"/>
</g>
</svg>
