<?xml version="1.0" encoding="utf-8"?>
<!-- Generator: Adobe Illustrator 16.0.0, SVG Export Plug-In . SVG Version: 6.00 Build 0)  -->
<!DOCTYPE svg PUBLIC "-//W3C//DTD SVG 1.1//EN" "http://www.w3.org/Graphics/SVG/1.1/DTD/svg11.dtd">
<svg version="1.1" id="Layer_1" xmlns="http://www.w3.org/2000/svg" xmlns:xlink="http://www.w3.org/1999/xlink" x="0px" y="0px"
	 width="225px" height="64px" viewBox="0 0 225 64" enable-background="new 0 0 225 64" xml:space="preserve">
<g>
	<path fill="#2B8BE9" d="M62.231,22.739c-0.395,0.572-0.805,1.126-1.234,1.662c-0.428,0.537-0.84,1.091-1.233,1.663
		c-0.179-0.178-0.528-0.429-1.045-0.751c-0.519-0.322-1.207-0.483-2.064-0.483c-0.787,0-1.359,0.171-1.716,0.51
		c-0.358,0.34-0.501,0.795-0.429,1.366c0.071,0.43,0.339,0.778,0.804,1.047c0.465,0.268,1.01,0.528,1.635,0.777
		c0.625,0.25,1.295,0.537,2.011,0.858c0.714,0.322,1.375,0.724,1.984,1.207c0.607,0.482,1.107,1.09,1.501,1.823
		c0.393,0.732,0.589,1.652,0.589,2.762c0,0.5-0.099,1.107-0.295,1.822c-0.196,0.716-0.545,1.412-1.045,2.091
		c-0.501,0.681-1.198,1.253-2.091,1.716c-0.894,0.465-2.056,0.697-3.485,0.697c-1.323,0-2.592-0.224-3.807-0.67
		c-1.215-0.447-2.181-1.063-2.895-1.85c0.464-0.537,0.911-1.082,1.34-1.637c0.429-0.554,0.875-1.1,1.34-1.635
		c0.786,0.5,1.447,0.867,1.984,1.1c0.536,0.231,1.233,0.348,2.091,0.348c0.036,0,0.169-0.008,0.402-0.025
		c0.232-0.019,0.491-0.09,0.777-0.216c0.286-0.124,0.544-0.312,0.777-0.563c0.232-0.248,0.367-0.625,0.402-1.125
		c0.035-0.644-0.143-1.135-0.536-1.476c-0.394-0.339-0.903-0.625-1.528-0.856c-0.626-0.232-1.314-0.464-2.064-0.697
		c-0.751-0.232-1.457-0.553-2.118-0.964c-0.662-0.411-1.207-0.993-1.635-1.743c-0.429-0.751-0.644-1.751-0.644-3.003
		c0-1.107,0.215-2.037,0.644-2.788c0.429-0.75,0.965-1.368,1.608-1.85s1.34-0.832,2.091-1.046c0.75-0.214,1.429-0.322,2.037-0.322
		c0.357,0,0.796,0.036,1.314,0.107c0.518,0.072,1.045,0.197,1.582,0.375c0.536,0.179,1.063,0.412,1.582,0.697
		C61.381,21.953,61.836,22.309,62.231,22.739z"/>
	<path fill="#2B8BE9" d="M90.433,30.997c0,1.429-0.277,2.788-0.831,4.075c-0.555,1.285-1.313,2.412-2.279,3.377
		c-0.964,0.966-2.109,1.725-3.431,2.279c-1.322,0.554-2.734,0.83-4.236,0.83c-1.072,0-2.029-0.125-2.868-0.375
		c-0.841-0.248-1.546-0.527-2.118-0.832c-0.572-0.302-1.019-0.598-1.341-0.885c-0.322-0.283-0.482-0.48-0.482-0.59
		c0.071,0.18,0.16,0.377,0.268,0.59c0.107,0.215,0.196,0.412,0.269,0.592V54.48h-4.451V20.969h3.7c0,0.429,0.026,0.85,0.081,1.26
		c0.053,0.411,0.098,0.831,0.134,1.26c0-0.107,0.179-0.322,0.536-0.644c0.357-0.322,0.839-0.651,1.447-0.992
		c0.608-0.339,1.322-0.652,2.145-0.939c0.822-0.285,1.715-0.429,2.681-0.429c1.501,0,2.914,0.278,4.236,0.832
		c1.322,0.555,2.467,1.313,3.431,2.278c0.966,0.965,1.725,2.083,2.279,3.351C90.156,28.216,90.433,29.567,90.433,30.997z
		 M85.929,30.997c0-1.788-0.581-3.263-1.742-4.424c-1.163-1.162-2.673-1.743-4.532-1.743c-1.859,0-3.37,0.582-4.531,1.743
		c-1.162,1.162-1.742,2.637-1.742,4.424c0,1.751,0.581,3.226,1.742,4.423s2.672,1.796,4.531,1.796c1.859,0,3.369-0.599,4.532-1.796
		C85.348,34.223,85.929,32.748,85.929,30.997z"/>
	<path fill="#2B8BE9" d="M96.117,31.049c0-1.394,0.276-2.735,0.831-4.021c0.553-1.287,1.313-2.413,2.278-3.378
		c0.966-0.965,2.108-1.733,3.432-2.306c1.322-0.571,2.734-0.858,4.236-0.858c0.965,0,1.858,0.144,2.681,0.429
		c0.821,0.287,1.536,0.6,2.144,0.939c0.607,0.34,1.089,0.67,1.448,0.992c0.356,0.322,0.536,0.537,0.536,0.644
		c0-0.394,0.035-0.804,0.107-1.233c0.07-0.429,0.105-0.858,0.105-1.287h3.7v20.107h-3.914v-1.716v-0.483
		c0,0.108-0.16,0.306-0.481,0.59c-0.323,0.287-0.77,0.583-1.342,0.886c-0.572,0.304-1.278,0.582-2.117,0.832
		c-0.84,0.25-1.796,0.375-2.869,0.375c-1.502,0-2.914-0.277-4.236-0.832c-1.324-0.555-2.466-1.313-3.432-2.278
		c-0.965-0.966-1.725-2.081-2.278-3.351C96.393,33.829,96.117,32.479,96.117,31.049z M100.62,30.997
		c0,1.751,0.581,3.226,1.743,4.423c1.162,1.197,2.671,1.796,4.531,1.796c1.858,0,3.368-0.599,4.531-1.796
		c1.161-1.197,1.742-2.672,1.742-4.423c0-1.788-0.581-3.263-1.742-4.424c-1.163-1.162-2.673-1.743-4.531-1.743
		c-1.86,0-3.369,0.582-4.531,1.743C101.201,27.734,100.62,29.209,100.62,30.997z"/>
	<path fill="#2B8BE9" d="M137.51,35.876c0.465,0.571,0.911,1.134,1.34,1.688c0.43,0.555,0.877,1.115,1.342,1.688
		c-0.93,0.714-1.957,1.278-3.084,1.688c-1.125,0.41-2.33,0.615-3.619,0.615c-1.5,0-2.903-0.277-4.209-0.83
		c-1.305-0.556-2.439-1.313-3.403-2.279c-0.965-0.965-1.726-2.081-2.278-3.352c-0.556-1.269-0.832-2.636-0.832-4.101
		c0-1.43,0.276-2.789,0.832-4.076c0.553-1.287,1.313-2.403,2.278-3.351c0.964-0.947,2.101-1.697,3.403-2.252
		c1.306-0.554,2.709-0.832,4.209-0.832c1.322,0,2.556,0.206,3.701,0.617c1.144,0.412,2.18,0.975,3.108,1.689
		c-0.465,0.573-0.93,1.126-1.394,1.663c-0.467,0.536-0.932,1.091-1.396,1.662c-1.146-0.857-2.483-1.287-4.021-1.287
		c-1.859,0-3.37,0.582-4.531,1.743c-1.162,1.162-1.742,2.637-1.742,4.424c0,1.751,0.58,3.226,1.742,4.423
		c1.161,1.197,2.672,1.796,4.531,1.796C135.061,37.216,136.4,36.77,137.51,35.876z"/>
	<path fill="#2B8BE9" d="M165.016,41.559h-4.449v-3.217l0.16-2.412c-0.715,1.715-1.867,3.084-3.457,4.103
		c-1.594,1.019-3.354,1.526-5.283,1.526c-2.108,0-3.771-0.554-4.985-1.662c-1.216-1.106-1.858-2.556-1.931-4.344V20.969h4.449
		v12.547c0.071,0.965,0.422,1.797,1.047,2.492c0.625,0.697,1.617,1.082,2.977,1.152c0.93,0,1.813-0.16,2.652-0.482
		c0.841-0.32,1.582-0.768,2.227-1.34c0.645-0.57,1.16-1.251,1.555-2.037c0.394-0.785,0.59-1.644,0.59-2.574v-9.758h4.451v20.59
		H165.016z"/>
	<path fill="#2B8BE9" d="M176.598,41.076h-4.449V0.862h4.449V41.076z"/>
	<path fill="#2B8BE9" d="M203.779,41.559h-4.448v-3.217l0.16-2.412c-0.716,1.715-1.868,3.084-3.458,4.103
		c-1.592,1.019-3.352,1.526-5.281,1.526c-2.109,0-3.771-0.554-4.986-1.662c-1.217-1.106-1.859-2.556-1.931-4.344V20.969h4.449
		v12.547c0.071,0.965,0.42,1.797,1.046,2.492c0.625,0.697,1.617,1.082,2.977,1.152c0.928,0,1.813-0.16,2.653-0.482
		c0.84-0.32,1.581-0.768,2.226-1.34c0.645-0.57,1.162-1.251,1.556-2.037c0.393-0.785,0.591-1.644,0.591-2.574v-9.758h4.449v20.59
		H203.779z"/>
	<path fill="#2B8BE9" d="M223.672,22.739c-0.393,0.572-0.804,1.126-1.232,1.662c-0.428,0.537-0.84,1.091-1.232,1.663
		c-0.18-0.178-0.527-0.429-1.046-0.751s-1.206-0.483-2.063-0.483c-0.787,0-1.359,0.171-1.716,0.51
		c-0.358,0.34-0.501,0.795-0.43,1.366c0.071,0.43,0.34,0.778,0.805,1.047c0.466,0.268,1.011,0.528,1.636,0.777
		c0.625,0.25,1.295,0.537,2.01,0.858c0.717,0.322,1.377,0.724,1.984,1.207c0.607,0.482,1.108,1.09,1.502,1.823
		c0.393,0.732,0.59,1.652,0.59,2.762c0,0.5-0.099,1.107-0.295,1.822c-0.197,0.716-0.547,1.412-1.045,2.091
		c-0.502,0.681-1.199,1.253-2.093,1.716c-0.894,0.465-2.056,0.697-3.485,0.697c-1.322,0-2.592-0.224-3.807-0.67
		c-1.216-0.447-2.182-1.063-2.896-1.85c0.465-0.537,0.912-1.082,1.342-1.637c0.429-0.554,0.876-1.1,1.34-1.635
		c0.787,0.5,1.447,0.867,1.984,1.1c0.535,0.231,1.232,0.348,2.092,0.348c0.033,0,0.168-0.008,0.4-0.025
		c0.232-0.019,0.491-0.09,0.777-0.216c0.286-0.124,0.545-0.312,0.777-0.563c0.231-0.248,0.365-0.625,0.402-1.125
		c0.034-0.644-0.144-1.135-0.537-1.476c-0.394-0.339-0.902-0.625-1.526-0.856c-0.626-0.232-1.314-0.464-2.064-0.697
		c-0.751-0.232-1.456-0.553-2.118-0.964c-0.662-0.411-1.207-0.993-1.637-1.743c-0.428-0.751-0.643-1.751-0.643-3.003
		c0-1.107,0.215-2.037,0.643-2.788c0.43-0.75,0.967-1.368,1.61-1.85s1.34-0.832,2.091-1.046c0.75-0.214,1.43-0.322,2.037-0.322
		c0.355,0,0.795,0.036,1.314,0.107c0.517,0.072,1.043,0.197,1.58,0.375c0.536,0.179,1.063,0.412,1.582,0.697
		C222.822,21.953,223.279,22.309,223.672,22.739z"/>
</g>
<g>
	<path fill="#FFFFFF" d="M23.5,54.2c0.327-0.002,0.633-0.043,0.748-0.353c0.071-0.19,0.041-0.525-0.15-0.685
		C23.864,52.973,23.613,53,23.271,53C22.823,53,22,53,22,53v1.202C22,54.201,22.987,54.2,23.5,54.2z"/>
	<path fill="#FFFFFF" d="M27.191,36.59c0.441,0,0.856-0.049,0.844-0.646c-0.011-0.607-0.556-0.598-0.992-0.598
		C25.395,35.35,24,35.348,22,35.348c0,0.002,0,0.18,0,0.18l0,0v1.082C23,36.605,25.448,36.593,27.191,36.59z"/>
	<path fill="#FFFFFF" d="M40.94,44.563c-0.375-1.215-0.952-2.336-1.617-3.412c-0.995-1.447-2.253-2.645-3.699-3.614
		c-0.822-0.552-1.67-1.165-2.742-1.188c-0.274-0.008-0.608-0.104-0.777,0.196c-0.19,0.342,0.069,0.582,0.283,0.813
		c0.131,0,0.248,0.033,0.318,0.156c1.146,0.258,1.956,1.08,2.927,1.668c0.405,0.405,2.106,1.949,2.44,2.424
		c0.418,0.567,1.409,2.461,1.519,2.836c0.433,1.488,0.732,2.984,0.652,4.543c-0.016,0.293,0.017,0.58,0.441,0.592
		c0.381,0.011,0.683-0.065,0.767-0.482c0.041-0.201,0.05-0.412,0.054-0.619C41.536,47.139,41.223,45.852,40.94,44.563z"/>
	<path fill="#FFFFFF" d="M30.748,22.6c-2.407-0.001-4.814-0.011-7.221,0.007c-0.5,0.004-1.254-0.239-1.236,0.635
		c0.018,0.881,0.786,0.575,1.27,0.588c1.281,0.036,2.563,0.013,3.846,0.014c3.532,0.001,7.064,0.002,10.597,0.003
		c0.104,0,0.209-0.009,0.313,0.001c0.473,0.042,0.799-0.156,0.792-0.636c-0.008-0.492-0.38-0.615-0.824-0.614
		C35.771,22.604,33.259,22.601,30.748,22.6z"/>
	<path fill="#FFFFFF" d="M25.688,58.958c0.273-0.019,0.432-0.181,0.46-0.448c0.023-0.232,0.01-0.285-0.259-0.441
		C25.622,57.912,25.371,58,25.083,58C24.031,58,22,58,22,58v0.979c0,0,1.896,0.002,2.861,0
		C25.149,58.979,25.402,58.977,25.688,58.958z"/>
	<path fill="#FFFFFF" d="M23.205,28.582c2.434-0.003,4.868-0.001,7.301,0c2.486,0,4.973-0.016,7.459,0.013
		c0.499,0.006,0.862-0.135,0.879-0.613c0.019-0.505-0.387-0.655-0.859-0.655c-4.92,0.006-9.84,0.003-14.761,0.003
		c-0.467,0-0.961,0.029-0.975,0.636C22.236,28.602,22.744,28.583,23.205,28.582z"/>
	<path fill="#FFFFFF" d="M22.4,43.418c0.181,0.618,0.789,0.158,0.919,0.154c0.329,0,0.406-0.338,0.406-0.524
		c0-0.306-0.132-0.563-0.465-0.563c-0.083,0-0.535,0.021-0.618,0.021c-0.265,0.001-0.779,0.021-0.779,0.021v0.891
		C21.863,43.418,22.219,43.418,22.4,43.418z"/>
	<path fill="#FFFFFF" d="M39.61,53.669c-0.499-0.301-0.651,0.087-0.821,0.377c-0.413,0.703-0.875,1.363-1.396,1.995
		c-1.119,1.354-2.517,2.423-4.068,3.104c-1.641,0.721-3.444,1.059-5.026,1.02c-0.886,0-1.487,0.008-2.09-0.003
		c-0.446-0.009-0.8,0.098-0.791,0.623c0.009,0.495,0.38,0.569,0.773,0.567c1.541-0.013,3.088,0.109,4.618-0.188
		c4.015-0.78,6.991-2.997,9.058-6.483C40.137,54.223,40.06,53.938,39.61,53.669z"/>
	<path fill="#FFFFFF" d="M31.091,57.436c-0.333,0.106-1.271,0.008-0.921,0.834c0.245,0.576,0.885,0.377,1.393,0.275
		c0.077-0.016,0.15-0.045,0.226-0.063c0.509-0.125,0.987-0.271,1.42-0.555c1.23-0.658,2.184-1.406,3.054-2.313
		c1.913-1.992,2.822-4.445,2.899-7.266c-0.075-0.66-0.024-1.397-0.288-2.092c-0.108-0.283-0.306-0.553-0.638-0.419
		c-0.258,0.104-0.58,0.265-0.512,0.673c0.039,0.23,0.041,0.467,0.07,0.699c0.333,2.721-0.37,5.141-2.15,7.229
		C34.421,55.875,32.903,56.857,31.091,57.436z"/>
	<path fill="#FFFFFF" d="M28.187,46.107c0.612,0,1.183,0.082,1.671,0.496c1.024,0.869,1.133,2.125,0.281,3.179
		c-0.277,0.343-0.446,0.688-0.032,1.015c0.352,0.278,0.618,0.137,0.923-0.188c1.021-1.076,1.192-2.338,0.632-3.604
		c-0.558-1.265-1.589-2.075-3.073-2.089c-1.415-0.012-2.793-0.002-4.208-0.002c-0.805,0-2.381-0.002-2.381-0.002v1.193
		C24,46.105,26.112,46.107,28.187,46.107z"/>
	<path fill="#FFFFFF" d="M35.504,30.862c0.464,0,0.987,0.003,0.968-0.59c-0.016-0.507-0.496-0.447-0.987-0.443
		C32.948,29.847,30.4,30,27.863,30c-0.47,0-0.971,0-1.442,0C24.912,30,23,29.677,22,29.676v1.189
		C26,30.863,30.99,30.86,35.504,30.862z"/>
	<path fill="#FFFFFF" d="M25.582,52c0.429,0,0.541-0.383,0.541-0.723c0-0.269-0.129-0.635-0.575-0.635
		c-0.694,0-1.095-0.047-1.773-0.047C23.171,50.6,22,50.553,22,50.555V52C22,52,24.404,52,25.582,52z"/>
	<polygon fill="#FFFFFF" points="3.227,59.234 3.313,59.504 3.531,59.325 3.806,59.385 3.762,59.105 3.951,58.898 3.687,58.798 
		3.601,58.529 3.382,58.709 3.106,58.648 3.152,58.927 2.962,59.136 	"/>
	<polygon fill="#FFFFFF" points="3.655,57.294 3.598,57.109 3.455,57.23 3.272,57.189 3.303,57.381 3.178,57.523 3.352,57.592 
		3.408,57.773 3.552,57.652 3.734,57.693 3.703,57.504 3.829,57.361 	"/>
	<polygon fill="#FFFFFF" points="4.768,58.037 4.864,57.934 4.731,57.883 4.688,57.748 4.578,57.837 4.439,57.807 4.462,57.948 
		4.367,58.052 4.5,58.102 4.543,58.236 4.652,58.146 4.792,58.178 	"/>
</g>
<circle fill="#FFFFFF" cx="38.317" cy="23.193" r="0.826"/>
<circle fill="#FFFFFF" cx="38.09" cy="27.918" r="0.826"/>
<circle fill="#FFFFFF" cx="32.621" cy="36.818" r="0.826"/>
<circle fill="#FFFFFF" cx="38.337" cy="46.619" r="0.826"/>
<circle fill="#FFFFFF" cx="39.385" cy="54.309" r="0.826"/>
<circle fill="#FFFFFF" cx="25.43" cy="58.413" r="0.826"/>
<path fill="#2B8BE9" d="M19.938,29.662c0.608,0.002,1.158,0.004,1.79,0.004V17.938H0.609l0.01,45.571h21.109v-4.544
	c-1.38,0-2.695,0-4.061,0c-2.462,0-4.907,0.004-7.369-0.005c-0.398,0-0.882,0.112-0.878-0.565c0.003-0.646,0.405-0.684,0.877-0.684
	c3.82,0,7.71,0.001,11.43,0.001V54.2c-0.632,0.001-1.35,0.001-2.042,0.001c-3.797,0.002-7.576,0.002-11.372,0.003
	c-0.209,0-0.411,0.008-0.619-0.009c-0.375-0.028-0.664-0.166-0.663-0.606c0.001-0.47,0.276-0.637,0.712-0.636
	c1.204,0.005,2.41,0.001,3.614,0c1.388,0,2.74,0,4.128,0.001c2.093,0,4.207,0,6.242,0.002v-1.177c-3.72,0-7.51,0-11.284-0.002
	c-0.235,0-0.462,0.027-0.685-0.027c-0.273-0.066-0.437-0.289-0.445-0.573c-0.007-0.268,0.151-0.521,0.434-0.579
	c0.379-0.08,0.713-0.037,1.109-0.037c3.635,0.008,7.291,0.008,10.871,0.002V46.1c-0.468-0.002-0.845-0.002-1.286-0.002
	c-0.066,0-0.161,0.002-0.227,0.004c-0.124,0.103-0.219,0.166-0.522,0.166c-0.913,0-0.913-1.604,0-1.604
	c0.304,0,0.453,0.097,0.582,0.24c0.481-0.002,0.986-0.004,1.454-0.004v-1.164c-1.1,0-5.148,0.039-5.873-0.144
	c-1.174-0.149-3.179-0.825-4.221-1.575c-0.548-0.317-1.391-0.99-1.869-1.529c-0.351-0.437-0.711-0.862-1.053-1.305
	c-0.366-0.08-0.646-0.412-0.646-0.8c0-0.446,0.373-0.817,0.818-0.817c0.159,0,0.309,0.047,0.436,0.129
	c0.083,0.05,0.153,0.113,0.209,0.188c0.108,0.14,0.174,0.313,0.174,0.5c0,0.044-0.004,0.087-0.011,0.132
	c0.446,0.625,0.986,1.184,1.532,1.678c0.481,0.32,1.63,1.113,2.041,1.265c0.884,0.446,1.326,0.534,2.002,0.769
	c1.556,0.396,5.385,0.338,6.461,0.31v-5.938c-1.38,0.002-2.97-0.002-4.472-0.029c-2.375-0.043-3.906-2.459-3.143-4.601
	c-0.037-0.092-0.058-0.192-0.058-0.297c0-0.445,0.372-0.818,0.819-0.818c0.446,0,0.818,0.373,0.818,0.818
	c0,0.149-0.041,0.289-0.113,0.41c-0.06,0.126-0.151,0.235-0.275,0.31c-0.366,1.022-0.001,1.753,0.702,2.531
	c0.231,0.255,0.616,0.396,1.019,0.389c0.837-0.017,1.638,0.021,2.476,0.025c0.755,0.004,1.433,0.002,2.228,0.001V30.86
	c-0.468,0-0.978,0.001-1.485,0.001c-0.105,0-0.191,0-0.296-0.001c-0.416-0.003-0.761-0.157-0.759-0.613
	C19.189,29.786,19.515,29.661,19.938,29.662z M2.991,57.001l0.303,0.069l0.239-0.204l0.095,0.307l0.289,0.114l-0.208,0.236
	l0.05,0.318l-0.303-0.068l-0.239,0.205l-0.094-0.308l-0.29-0.114l0.208-0.238L2.991,57.001z M3.912,59.616l-0.46-0.101l-0.364,0.299
	l-0.164-0.448l-0.333-0.117v-0.188L2.8,58.852l-0.067-0.463l0.465,0.098l0.366-0.297l0.145,0.447l0.44,0.166l-0.315,0.35
	L3.912,59.616z M4.293,58.157l-0.221-0.084l0.159-0.175l-0.038-0.233l0.231,0.05l0.184-0.148l0.071,0.226L4.9,57.874l-0.159,0.175
	l0.038,0.233l-0.231-0.05l-0.183,0.149L4.293,58.157z M19.832,60.148c0.127-0.121,0.352-0.197,0.516-0.197
	c1.076,0,1.076,1.604,0,1.604c-0.164,0-0.396-0.078-0.523-0.203c-0.816,0-1.625,0.008-2.441,0.008c-1.542,0.002-3.081,0-4.624,0
	c-2.431-0.002-4.861,0-7.293-0.004c-0.234,0-0.474,0.004-0.701-0.047C4.462,61.242,4.372,61,4.386,60.708
	c0.013-0.293,0.112-0.513,0.444-0.538c0.156-0.011,0.306-0.02,0.463-0.02C10.141,60.148,14.983,60.148,19.832,60.148z
	 M10.894,42.868c0.829,0.528,1.754,1.005,2.495,1.307c0.778,0.317,1.259,0.546,1.303,0.568c0.272,0.143,0.411,0.382,0.222,0.704
	c-0.19,0.326-0.418,0.351-0.744,0.277c-1.219-0.271-2.321-0.91-3.422-1.474c-0.227-0.159-1.79-1.211-3.067-2.563
	c-0.932-0.985-1.689-2.281-1.775-2.471c-0.624-1.369-1.149-2.775-1.422-4.263c-0.208-0.147-0.347-0.394-0.347-0.664
	c0-0.446,0.373-0.817,0.818-0.817c0.446,0,0.818,0.371,0.818,0.817c0,0.137-0.035,0.267-0.097,0.381
	c0.283,1.535,0.733,3.038,1.512,4.372C7.821,40.13,10.004,42.357,10.894,42.868z M17.841,23.265
	c-0.021,0.191-0.092,0.31-0.215,0.376c-0.05,0.051-0.108,0.095-0.175,0.129c-0.119,0.07-0.257,0.11-0.403,0.11
	c-0.165,0-0.32-0.052-0.45-0.139c-2.221,0.164-4.172,1.077-5.764,2.612c-1.661,1.602-2.625,3.657-2.781,6.019
	C8.04,32.582,8.034,32.792,8.045,33c0.025,0.482-0.171,0.87-0.653,0.893c-0.554,0.022-0.645-0.42-0.606-0.888
	c0.011-0.129,0.002-0.26,0.002-0.391c0.11-4.563,3.571-8.747,7.968-9.789c0.569-0.135,1.146-0.309,1.744-0.368
	c0.146-0.132,0.339-0.214,0.547-0.214c0.081,0,0.159,0.012,0.233,0.035c0.236,0.057,0.399,0.211,0.488,0.402
	c0.062,0.115,0.097,0.245,0.097,0.382C17.867,23.131,17.858,23.2,17.841,23.265z M18.029,21.107
	c-0.12,0.218-0.342,0.378-0.668,0.378c-0.182,0-0.332-0.051-0.45-0.134c-0.989,0.041-1.96,0.186-2.914,0.479
	c-1.931,0.594-3.575,1.638-5.028,3.042c-1.224,1.183-1.99,2.622-2.604,4.168c-0.187,0.469-0.51,0.694-0.974,0.509
	c-0.453-0.182-0.34-0.563-0.2-0.932c1.449-3.806,4.099-6.422,7.912-7.789c1.155-0.414,2.363-0.736,3.616-0.689
	c0.151-0.186,0.381-0.306,0.634-0.306c0.446,0,0.819,0.373,0.819,0.818C18.171,20.819,18.119,20.977,18.029,21.107z"/>
<path fill="#FFFFFF" d="M30.748,20.108c-2.407-0.001-4.814-0.011-7.221,0.006c-0.5,0.004-1.254-0.239-1.236,0.636
	c0.018,0.882,0.786,0.575,1.27,0.589c1.281,0.036,2.563,0.012,3.846,0.013c3.532,0.001,7.064,0.002,10.597,0.003
	c0.104,0,0.209-0.008,0.313,0.001c0.473,0.042,0.799-0.156,0.792-0.636c-0.008-0.493-0.38-0.616-0.824-0.615
	C35.771,20.112,33.259,20.109,30.748,20.108z"/>
<circle fill="#FFFFFF" cx="38.442" cy="20.772" r="0.826"/>
<circle fill="#FFFFFF" cx="35.683" cy="30.323" r="0.824"/>
<g>
	<path fill="#FFFFFF" d="M99.284,47.57c-0.055,0.106-0.107,0.217-0.16,0.334c-0.05,0.115-0.104,0.227-0.158,0.33
		c-0.055-0.075-0.122-0.16-0.201-0.252c-0.079-0.09-0.17-0.176-0.272-0.252c-0.103-0.078-0.217-0.144-0.341-0.195
		c-0.124-0.053-0.258-0.079-0.403-0.079c-0.194,0-0.363,0.051-0.509,0.151c-0.145,0.102-0.264,0.232-0.358,0.396
		c-0.093,0.164-0.165,0.354-0.213,0.571c-0.049,0.217-0.073,0.446-0.073,0.687c0,0.26,0.029,0.479,0.086,0.657
		c0.057,0.179,0.135,0.33,0.232,0.456c0.097,0.124,0.21,0.23,0.339,0.316c0.13,0.088,0.269,0.17,0.415,0.246
		c0.193,0.105,0.409,0.233,0.645,0.383c0.236,0.15,0.455,0.343,0.658,0.578c0.202,0.236,0.373,0.527,0.509,0.875
		c0.136,0.347,0.204,0.774,0.204,1.285c0,0.435-0.05,0.824-0.15,1.172c-0.1,0.348-0.236,0.644-0.409,0.889
		c-0.172,0.245-0.373,0.433-0.603,0.563c-0.23,0.131-0.476,0.196-0.735,0.196c-0.237,0-0.458-0.053-0.664-0.151
		c-0.206-0.103-0.396-0.228-0.568-0.377c-0.172-0.148-0.323-0.313-0.454-0.49c-0.131-0.18-0.232-0.351-0.304-0.514l0.363-0.578
		c0.084,0.145,0.18,0.289,0.286,0.434s0.223,0.279,0.354,0.404c0.13,0.125,0.272,0.228,0.427,0.304
		c0.155,0.077,0.323,0.116,0.505,0.116c0.181,0,0.355-0.045,0.521-0.131c0.167-0.086,0.314-0.211,0.44-0.375
		c0.127-0.164,0.231-0.369,0.309-0.615c0.079-0.245,0.118-0.521,0.118-0.83c0-0.405-0.059-0.74-0.181-1.006
		c-0.122-0.264-0.27-0.48-0.445-0.649c-0.176-0.167-0.364-0.304-0.563-0.403c-0.199-0.102-0.381-0.199-0.544-0.297
		c-0.11-0.066-0.241-0.154-0.396-0.261c-0.155-0.106-0.301-0.25-0.44-0.435c-0.139-0.184-0.259-0.414-0.359-0.692
		c-0.1-0.279-0.153-0.626-0.159-1.04c-0.006-0.318,0.02-0.639,0.078-0.961c0.057-0.324,0.154-0.612,0.29-0.868
		c0.137-0.256,0.315-0.465,0.536-0.629c0.221-0.163,0.493-0.244,0.813-0.244c0.236,0,0.478,0.063,0.726,0.193
		C98.724,46.914,98.993,47.177,99.284,47.57z"/>
	<path fill="#FFFFFF" d="M111.99,51.721c0-0.714,0.084-1.386,0.253-2.018c0.17-0.631,0.402-1.182,0.695-1.646
		c0.292-0.469,0.637-0.841,1.031-1.113c0.393-0.275,0.813-0.412,1.262-0.412c0.449,0,0.871,0.137,1.268,0.412
		c0.396,0.272,0.742,0.646,1.036,1.113c0.293,0.467,0.526,1.017,0.698,1.646c0.172,0.632,0.259,1.304,0.259,2.018
		c0,0.711-0.087,1.381-0.259,2.008s-0.405,1.174-0.698,1.642c-0.294,0.468-0.64,0.836-1.036,1.104
		c-0.396,0.271-0.818,0.405-1.268,0.405c-0.448,0-0.869-0.136-1.262-0.405c-0.395-0.27-0.738-0.638-1.031-1.104
		c-0.293-0.468-0.525-1.015-0.695-1.642C112.074,53.102,111.99,52.432,111.99,51.721z M112.552,51.721
		c0,0.596,0.071,1.154,0.209,1.676c0.14,0.521,0.33,0.976,0.573,1.365c0.241,0.391,0.525,0.698,0.854,0.926
		c0.326,0.227,0.676,0.34,1.043,0.34c0.369,0,0.719-0.113,1.045-0.34c0.328-0.228,0.613-0.535,0.857-0.926
		c0.245-0.391,0.439-0.846,0.582-1.365c0.143-0.521,0.215-1.08,0.215-1.676c0-0.589-0.072-1.146-0.215-1.671
		c-0.143-0.524-0.337-0.985-0.582-1.38c-0.244-0.395-0.529-0.706-0.854-0.934c-0.324-0.226-0.672-0.34-1.041-0.34
		c-0.368,0-0.717,0.114-1.043,0.34c-0.327,0.228-0.612,0.539-0.854,0.934c-0.241,0.395-0.435,0.854-0.577,1.38
		S112.552,51.132,112.552,51.721z"/>
	<path fill="#FFFFFF" d="M130.834,56.764V46.646h3.841v0.867h-3.278v3.729h2.926v0.853h-2.926v4.67h-0.563V56.764z"/>
	<path fill="#FFFFFF" d="M151.566,46.646v0.867h-2.225v9.25h-0.563v-9.25h-2.233v-0.867H151.566z"/>
	<path fill="#FFFFFF" d="M171.584,46.646h0.572c-0.473,1.772-0.943,3.537-1.409,5.291c-0.466,1.752-0.935,3.517-1.406,5.289
		l-1.608-6.026c-0.012-0.077-0.026-0.152-0.045-0.224c-0.018-0.074-0.033-0.147-0.045-0.226c-0.103,0.54-0.223,1.083-0.358,1.626
		c-0.136,0.545-0.28,1.089-0.433,1.633c-0.15,0.545-0.304,1.088-0.459,1.626c-0.152,0.54-0.301,1.07-0.439,1.591
		c-0.473-1.772-0.939-3.537-1.407-5.289c-0.466-1.754-0.935-3.519-1.407-5.291h0.572c0.363,1.369,0.723,2.725,1.076,4.067
		c0.354,1.347,0.716,2.701,1.085,4.069c0.012,0.076,0.024,0.152,0.041,0.225c0.015,0.071,0.028,0.146,0.04,0.225
		c0.086-0.463,0.186-0.92,0.301-1.373c0.114-0.453,0.234-0.908,0.357-1.365c0.125-0.458,0.252-0.911,0.382-1.36
		c0.131-0.446,0.254-0.893,0.368-1.335c-0.141-0.529-0.279-1.056-0.418-1.576c-0.141-0.521-0.277-1.045-0.418-1.576h0.563
		c0.363,1.369,0.725,2.726,1.08,4.068c0.357,1.346,0.721,2.701,1.09,4.069c0.012,0.077,0.026,0.151,0.042,0.225
		c0.015,0.071,0.028,0.146,0.041,0.224c0.013-0.076,0.025-0.151,0.04-0.224c0.016-0.071,0.028-0.147,0.041-0.225
		c0.363-1.368,0.723-2.724,1.081-4.069C170.859,49.37,171.221,48.016,171.584,46.646z"/>
	<path fill="#FFFFFF" d="M189.975,56.764h-0.572c-0.188-0.693-0.373-1.39-0.555-2.088c-0.183-0.699-0.367-1.396-0.555-2.09h-2.279
		c-0.182,0.693-0.365,1.391-0.549,2.09c-0.186,0.698-0.371,1.395-0.561,2.088h-0.563c0.473-1.771,0.941-3.537,1.408-5.289
		c0.466-1.754,0.936-3.518,1.406-5.289c0.473,1.771,0.941,3.535,1.408,5.289C189.032,53.227,189.501,54.991,189.975,56.764z
		 M187.24,48.627c-0.014-0.077-0.025-0.152-0.041-0.225c-0.016-0.071-0.029-0.146-0.042-0.226c-0.12,0.608-0.263,1.205-0.427,1.794
		c-0.162,0.588-0.323,1.174-0.481,1.762h1.808c-0.139-0.52-0.273-1.037-0.408-1.553C187.516,49.665,187.379,49.146,187.24,48.627z"
		/>
	<path fill="#FFFFFF" d="M202.188,56.764V46.646h1.428c0.199,0,0.416,0.052,0.652,0.152c0.236,0.102,0.459,0.26,0.668,0.477
		c0.209,0.218,0.383,0.494,0.521,0.832c0.141,0.338,0.209,0.746,0.209,1.229c0,0.712-0.115,1.307-0.346,1.777
		c-0.231,0.471-0.563,0.785-1,0.939c0.23,0.779,0.463,1.563,0.695,2.348c0.232,0.785,0.469,1.574,0.705,2.363h-0.619
		c-0.229-0.781-0.459-1.556-0.689-2.328c-0.23-0.77-0.46-1.545-0.689-2.326c-0.035,0.011-0.074,0.017-0.113,0.017s-0.08,0-0.123,0
		h-0.734v4.64h-0.564V56.764z M202.752,51.258h0.863c0.289,0,0.531-0.063,0.726-0.183c0.193-0.118,0.347-0.274,0.459-0.462
		c0.111-0.188,0.19-0.396,0.235-0.621c0.045-0.227,0.068-0.446,0.068-0.657c0-0.241-0.039-0.474-0.113-0.694
		c-0.075-0.221-0.18-0.416-0.311-0.584c-0.129-0.17-0.285-0.304-0.467-0.406c-0.184-0.102-0.378-0.15-0.591-0.15h-0.871
		L202.752,51.258L202.752,51.258z"/>
	<path fill="#FFFFFF" d="M218.018,56.764V46.646h3.842v0.867h-3.278v3.729h2.924v0.853h-2.924v3.815h3.405v0.854h-3.969V56.764z"/>
</g>
</svg>
