<svg width="500" height="373" viewBox="0 0 500 373" fill="none" xmlns="http://www.w3.org/2000/svg">
<path d="M500 327.4H0V327.65H500V327.4Z" fill="#EBEBEB"/>
<path d="M443.89 336.92H410.77V337.17H443.89V336.92Z" fill="#EBEBEB"/>
<path d="M181.331 340.311H131.471V340.561H181.331V340.311Z" fill="#EBEBEB"/>
<path d="M409.77 346.211H380.24V346.461H409.77V346.211Z" fill="#EBEBEB"/>
<path d="M74.0609 344.529H52.4609V344.779H74.0609V344.529Z" fill="#EBEBEB"/>
<path d="M121.331 344.529H82.9609V344.779H121.331V344.529Z" fill="#EBEBEB"/>
<path d="M331.219 334.209H237.539V334.459H331.219V334.209Z" fill="#EBEBEB"/>
<path d="M237.001 282.8H43.9109C42.3983 282.797 40.9485 282.195 39.8798 281.124C38.8112 280.054 38.2109 278.603 38.2109 277.09V5.66C38.2241 4.15603 38.8301 2.71798 39.8974 1.65822C40.9646 0.598458 42.4069 0.00257639 43.9109 0H237.001C238.515 0 239.968 0.601588 241.039 1.67242C242.109 2.74325 242.711 4.19561 242.711 5.71V277.09C242.711 278.604 242.109 280.057 241.039 281.128C239.968 282.198 238.515 282.8 237.001 282.8ZM43.9109 0.200001C42.4646 0.20265 41.0784 0.779065 40.0566 1.80273C39.0348 2.82639 38.4609 4.21365 38.4609 5.66V277.09C38.4609 278.536 39.0348 279.924 40.0566 280.947C41.0784 281.971 42.4646 282.547 43.9109 282.55H237.001C238.448 282.547 239.835 281.971 240.859 280.948C241.882 279.924 242.458 278.537 242.461 277.09V5.66C242.458 4.21273 241.882 2.82549 240.859 1.80212C239.835 0.77874 238.448 0.202644 237.001 0.200001H43.9109Z" fill="#EBEBEB"/>
<path d="M453.31 282.8H260.21C258.696 282.797 257.246 282.195 256.175 281.125C255.105 280.054 254.503 278.604 254.5 277.09V5.66C254.516 4.15511 255.124 2.71708 256.193 1.65759C257.262 0.598109 258.705 0.00254829 260.21 0H453.31C454.812 0.0052045 456.252 0.602249 457.317 1.66173C458.382 2.72121 458.987 4.15775 459 5.66V277.09C459 278.601 458.401 280.05 457.335 281.121C456.268 282.191 454.821 282.795 453.31 282.8ZM260.21 0.200001C258.763 0.202644 257.375 0.77874 256.352 1.80212C255.329 2.82549 254.753 4.21273 254.75 5.66V277.09C254.753 278.537 255.329 279.924 256.352 280.948C257.375 281.971 258.763 282.547 260.21 282.55H453.31C454.757 282.547 456.145 281.971 457.168 280.948C458.191 279.924 458.767 278.537 458.77 277.09V5.66C458.767 4.21273 458.191 2.82549 457.168 1.80212C456.145 0.77874 454.757 0.202644 453.31 0.200001H260.21Z" fill="#EBEBEB"/>
<path d="M435.6 24.4404H284.49C277.863 24.4404 272.49 29.813 272.49 36.4404V194.22C272.49 200.848 277.863 206.22 284.49 206.22H435.6C442.228 206.22 447.6 200.848 447.6 194.22V36.4404C447.6 29.813 442.228 24.4404 435.6 24.4404Z" fill="#FAFAFA"/>
<path d="M408.211 76.3299C415.849 76.3299 422.041 70.138 422.041 62.4999C422.041 54.8618 415.849 48.6699 408.211 48.6699C400.573 48.6699 394.381 54.8618 394.381 62.4999C394.381 70.138 400.573 76.3299 408.211 76.3299Z" fill="#F0F0F0"/>
<path d="M372 76.3299C379.638 76.3299 385.83 70.138 385.83 62.4999C385.83 54.8618 379.638 48.6699 372 48.6699C364.362 48.6699 358.17 54.8618 358.17 62.4999C358.17 70.138 364.362 76.3299 372 76.3299Z" fill="white"/>
<path d="M373.181 185.24C363.416 185.242 353.87 182.348 345.75 176.925C337.629 171.501 331.3 163.791 327.562 154.77C323.824 145.749 322.844 135.822 324.748 126.245C326.652 116.667 331.353 107.869 338.257 100.964C345.162 94.0582 353.958 89.3551 363.536 87.4494C373.113 85.5436 383.04 86.5207 392.062 90.2571C401.083 93.9935 408.794 100.321 414.22 108.44C419.645 116.56 422.541 126.105 422.541 135.87C422.528 148.958 417.323 161.506 408.07 170.762C398.816 180.017 386.269 185.224 373.181 185.24ZM373.181 87.5C363.614 87.498 354.261 90.3332 346.305 95.647C338.349 100.961 332.148 108.514 328.486 117.353C324.823 126.191 323.864 135.917 325.729 145.3C327.594 154.684 332.2 163.304 338.965 170.069C345.729 176.835 354.347 181.443 363.731 183.31C373.114 185.177 382.84 184.22 391.679 180.559C400.518 176.898 408.073 170.699 413.388 162.744C418.704 154.789 421.541 145.437 421.541 135.87C421.525 123.048 416.425 110.756 407.36 101.688C398.294 92.6209 386.003 87.5185 373.181 87.5Z" fill="white"/>
<path d="M375.31 235.67C367.322 235.671 359.588 238.474 353.454 243.59C347.32 248.706 343.175 255.812 341.74 263.67C340.42 270.99 339.11 278.3 337.34 285.52L327 327.65H423.6L413.28 285.5C411.51 278.28 410.21 270.97 408.88 263.65C407.441 255.796 403.294 248.695 397.16 243.582C391.027 238.47 383.295 235.67 375.31 235.67Z" fill="#E0E0E0"/>
<path d="M380.65 235.67C372.662 235.671 364.928 238.474 358.794 243.59C352.66 248.706 348.514 255.812 347.08 263.67C345.75 270.99 344.44 278.3 342.68 285.52L332.35 327.67H428.94L418.61 285.5C416.85 278.28 415.54 270.97 414.22 263.65C412.781 255.796 408.634 248.695 402.5 243.582C396.366 238.47 388.634 235.67 380.65 235.67Z" fill="#E6E6E6"/>
<path d="M168.81 73.4999C169.889 69.0708 172.677 65.2488 176.565 62.8691C180.453 60.4894 185.125 59.7455 189.56 60.7999L344.56 98.1099C348.987 99.191 352.808 101.98 355.187 105.867C357.566 109.754 358.311 114.425 357.26 118.86C356.183 123.29 353.396 127.114 349.507 129.494C345.618 131.874 340.945 132.617 336.51 131.56L181.51 94.2499C177.079 93.1735 173.256 90.3858 170.875 86.4971C168.495 82.6083 167.753 77.935 168.81 73.4999Z" fill="#E0E0E0"/>
<path d="M171.799 71.6698C172.885 67.2462 175.675 63.4315 179.563 61.0579C183.45 58.6843 188.118 57.9444 192.549 58.9998L347.549 96.3098C351.959 97.3955 355.763 100.178 358.133 104.052C360.504 107.926 361.25 112.579 360.209 117C359.13 121.429 356.342 125.251 352.454 127.631C348.566 130.01 343.894 130.754 339.459 129.7L184.459 92.3898C180.045 91.2996 176.24 88.512 173.87 84.6324C171.499 80.7528 170.755 76.0947 171.799 71.6698Z" fill="#EBEBEB"/>
<path d="M192.59 76.6701C193.145 74.3926 194.579 72.4274 196.578 71.2038C198.578 69.9802 200.98 69.5978 203.26 70.1401L332.891 101.35C335.162 101.907 337.122 103.339 338.345 105.333C339.568 107.327 339.954 109.723 339.421 112C338.866 114.278 337.432 116.243 335.433 117.466C333.433 118.69 331.031 119.072 328.75 118.53L199.12 87.3501C196.842 86.793 194.877 85.3573 193.654 83.3564C192.43 81.3554 192.048 78.9518 192.59 76.6701Z" fill="#E0E0E0"/>
<path d="M172.139 73.1796C168.038 69.0726 163.004 66.0184 157.467 64.2771C151.929 62.5359 146.053 62.1594 140.339 63.1796C129.869 64.9996 125.999 77.9996 133.479 85.5496L159.769 111.84C167.279 119.35 180.319 115.45 182.159 104.99C183.179 99.2724 182.8 93.3934 181.055 87.8543C179.31 82.3152 176.251 77.2805 172.139 73.1796Z" fill="#F5F5F5"/>
<path d="M111.57 188.34V178.34C120.39 178.344 129.013 175.732 136.348 170.835C143.684 165.938 149.402 158.975 152.78 150.828C156.158 142.68 157.044 133.714 155.326 125.063C153.607 116.412 149.362 108.465 143.127 102.227C136.892 95.9893 128.947 91.7406 120.296 90.0184C111.646 88.2963 102.68 89.1782 94.5308 92.5525C86.3818 95.9268 79.4167 101.642 74.5162 108.975C69.6157 116.308 67 124.93 67 133.75H57C57 122.953 60.2016 112.399 66.2001 103.422C72.1985 94.4443 80.7243 87.4474 90.6993 83.3156C100.674 79.1838 111.651 78.1027 122.24 80.2091C132.829 82.3155 142.556 87.5147 150.191 95.1492C157.826 102.784 163.025 112.511 165.131 123.1C167.237 133.69 166.156 144.666 162.025 154.641C157.893 164.616 150.896 173.142 141.919 179.14C132.941 185.139 122.387 188.34 111.59 188.34H111.57Z" fill="#EBEBEB"/>
<path d="M141.211 104.11C144.751 107.65 150.741 107.93 156.991 105.45C162.831 103.13 166.581 95.6504 163.511 92.5704L152.751 81.8204C149.671 78.7404 142.191 82.4904 139.881 88.3304C137.401 94.5904 137.671 100.57 141.211 104.11Z" fill="#F5F5F5"/>
<path d="M172.141 84.1797C178.216 84.1797 183.141 79.2548 183.141 73.1797C183.141 67.1045 178.216 62.1797 172.141 62.1797C166.065 62.1797 161.141 67.1045 161.141 73.1797C161.141 79.2548 166.065 84.1797 172.141 84.1797Z" fill="#FAFAFA"/>
<path d="M322.78 84.7632L316.375 87.1901C304.734 91.6005 298.872 104.613 303.283 116.254L355.973 255.327C360.383 266.968 373.395 272.83 385.036 268.419L391.442 265.992C403.083 261.582 408.945 248.57 404.534 236.929L351.844 97.8554C347.434 86.2144 334.422 80.3528 322.78 84.7632Z" fill="#E0E0E0"/>
<path d="M328.114 84.7651L321.709 87.192C310.068 91.6024 304.206 104.615 308.617 116.256L361.307 255.329C365.717 266.97 378.729 272.832 390.37 268.421L396.776 265.994C408.417 261.584 414.279 248.572 409.868 236.931L357.178 97.8573C352.768 86.2163 339.756 80.3547 328.114 84.7651Z" fill="#F0F0F0"/>
<path d="M382.451 248.84C382.132 248.836 381.821 248.739 381.557 248.562C381.292 248.384 381.085 248.133 380.961 247.84L328.261 108.77C328.127 108.386 328.145 107.965 328.31 107.594C328.475 107.222 328.776 106.928 329.151 106.77L335.561 104.34C335.717 104.281 335.883 104.251 336.051 104.25C336.37 104.253 336.681 104.349 336.946 104.527C337.21 104.704 337.417 104.956 337.541 105.25L390.241 244.32C390.377 244.704 390.36 245.125 390.195 245.498C390.029 245.87 389.727 246.164 389.351 246.32L382.941 248.75C382.785 248.812 382.618 248.843 382.451 248.84Z" fill="#E0E0E0"/>
<path d="M391.81 235.67C383.822 235.671 376.088 238.474 369.954 243.59C363.819 248.706 359.674 255.812 358.24 263.67C356.92 270.99 355.61 278.3 353.84 285.52L343.52 327.67H440.1L429.78 285.5C428.01 278.28 426.71 270.97 425.38 263.65C423.941 255.796 419.794 248.695 413.66 243.582C407.526 238.47 399.794 235.67 391.81 235.67Z" fill="#E0E0E0"/>
<path d="M397.15 235.67C389.162 235.671 381.428 238.474 375.294 243.59C369.16 248.706 365.014 255.812 363.58 263.67C362.25 270.99 360.94 278.3 359.18 285.52L348.85 327.67H445.44L435.11 285.5C433.35 278.28 432.04 270.97 430.72 263.65C429.281 255.796 425.134 248.695 419 243.582C412.866 238.47 405.134 235.67 397.15 235.67Z" fill="#F5F5F5"/>
<path d="M351.198 127.665C360.5 118.362 360.5 103.28 351.198 93.978C341.896 84.6757 326.814 84.6757 317.511 93.978C308.209 103.28 308.209 118.362 317.511 127.665C326.814 136.967 341.896 136.967 351.198 127.665Z" fill="#FAFAFA"/>
<path d="M334.35 130.16C330.522 130.162 326.78 129.029 323.596 126.903C320.413 124.778 317.931 121.756 316.465 118.22C314.999 114.683 314.615 110.792 315.362 107.037C316.108 103.283 317.951 99.8342 320.658 97.1275C323.364 94.4207 326.813 92.5776 330.568 91.8313C334.322 91.085 338.214 91.469 341.75 92.9348C345.286 94.4006 348.308 96.8823 350.433 100.066C352.559 103.25 353.692 106.992 353.69 110.82C353.682 115.947 351.642 120.861 348.017 124.487C344.392 128.112 339.477 130.152 334.35 130.16ZM334.35 92.41C330.709 92.41 327.15 93.4897 324.122 95.5126C321.095 97.5355 318.735 100.411 317.342 103.775C315.948 107.139 315.584 110.84 316.294 114.412C317.004 117.983 318.758 121.263 321.332 123.838C323.907 126.412 327.187 128.166 330.759 128.876C334.33 129.587 338.031 129.222 341.395 127.829C344.759 126.435 347.635 124.076 349.658 121.048C351.681 118.021 352.76 114.461 352.76 110.82C352.755 105.939 350.814 101.259 347.362 97.808C343.911 94.3566 339.231 92.4153 334.35 92.41Z" fill="#E0E0E0"/>
<path d="M142.041 262H72.2109V327.4H142.041V262Z" fill="#F5F5F5"/>
<path d="M51.2109 327.4H72.2109L72.2109 262H51.2109L51.2109 327.4Z" fill="#E6E6E6"/>
<path d="M75.8791 262H135.289V221.78H75.8791V262Z" fill="#F0F0F0"/>
<path d="M153.159 221.78H135.289V262H153.159V221.78Z" fill="#E0E0E0"/>
<path d="M174.021 327.4H225.711V266.66H174.021V327.4Z" fill="#E6E6E6"/>
<path d="M220.66 321.37H179.08V272.68H220.66V321.37ZM180.08 320.37H219.66V273.68H180.08V320.37Z" fill="#F5F5F5"/>
<path d="M241.251 266.649H225.711V327.389H241.251V266.649Z" fill="#F5F5F5"/>
<path d="M44.3295 194.5H96.0195L96.0195 133.75H44.3295L44.3295 194.5Z" fill="#E6E6E6"/>
<path d="M111.56 133.76H96.0195V194.51H111.56V133.76Z" fill="#F5F5F5"/>
<path d="M249.999 372.56C357.082 372.56 443.889 367.492 443.889 361.24C443.889 354.988 357.082 349.92 249.999 349.92C142.917 349.92 56.1094 354.988 56.1094 361.24C56.1094 367.492 142.917 372.56 249.999 372.56Z" fill="#F5F5F5"/>
<path d="M157.87 223.299H251.66V213.909H157.87C156.626 213.909 155.433 214.403 154.553 215.283C153.674 216.162 153.18 217.355 153.18 218.599C153.178 219.216 153.299 219.827 153.534 220.397C153.769 220.967 154.114 221.485 154.55 221.922C154.985 222.359 155.503 222.705 156.073 222.941C156.642 223.178 157.253 223.299 157.87 223.299Z" fill="#263238"/>
<path d="M194.11 359.9H200.09L200.09 223.29H194.11L194.11 359.9Z" fill="#2A8BE9"/>
<path opacity="0.7" d="M194.11 359.9H200.09L200.09 223.29H194.11L194.11 359.9Z" fill="white"/>
<path d="M164.43 359.9H170.41L170.41 223.29H164.43L164.43 359.9Z" fill="#2A8BE9"/>
<path opacity="0.7" d="M164.43 359.9H170.41L170.41 223.29H164.43L164.43 359.9Z" fill="white"/>
<path d="M157.87 221.649C159.555 221.649 160.92 220.283 160.92 218.599C160.92 216.914 159.555 215.549 157.87 215.549C156.186 215.549 154.82 216.914 154.82 218.599C154.82 220.283 156.186 221.649 157.87 221.649Z" fill="#2A8BE9"/>
<path d="M168.221 218.599C168.221 219.19 168.396 219.768 168.723 220.26C169.051 220.753 169.516 221.137 170.061 221.366C170.607 221.594 171.207 221.656 171.788 221.545C172.368 221.433 172.903 221.152 173.324 220.737C173.746 220.323 174.035 219.793 174.157 219.214C174.278 218.636 174.226 218.034 174.006 217.485C173.787 216.936 173.41 216.464 172.924 216.129C172.437 215.793 171.862 215.609 171.271 215.599C170.873 215.592 170.477 215.665 170.107 215.813C169.738 215.961 169.401 216.181 169.117 216.46C168.833 216.739 168.608 217.072 168.454 217.439C168.3 217.807 168.221 218.201 168.221 218.599Z" fill="#2A8BE9"/>
<path d="M184.669 221.649C186.354 221.649 187.719 220.283 187.719 218.599C187.719 216.914 186.354 215.549 184.669 215.549C182.985 215.549 181.619 216.914 181.619 218.599C181.619 220.283 182.985 221.649 184.669 221.649Z" fill="#2A8BE9"/>
<path d="M198.07 221.649C199.754 221.649 201.12 220.283 201.12 218.599C201.12 216.914 199.754 215.549 198.07 215.549C196.385 215.549 195.02 216.914 195.02 218.599C195.02 220.283 196.385 221.649 198.07 221.649Z" fill="#2A8BE9"/>
<path d="M211.46 221.649C213.145 221.649 214.51 220.283 214.51 218.599C214.51 216.914 213.145 215.549 211.46 215.549C209.776 215.549 208.41 216.914 208.41 218.599C208.41 220.283 209.776 221.649 211.46 221.649Z" fill="#2A8BE9"/>
<path d="M224.861 221.649C226.545 221.649 227.911 220.283 227.911 218.599C227.911 216.914 226.545 215.549 224.861 215.549C223.176 215.549 221.811 216.914 221.811 218.599C221.811 220.283 223.176 221.649 224.861 221.649Z" fill="#2A8BE9"/>
<path d="M238.259 221.649C239.943 221.649 241.309 220.283 241.309 218.599C241.309 216.914 239.943 215.549 238.259 215.549C236.575 215.549 235.209 216.914 235.209 218.599C235.209 220.283 236.575 221.649 238.259 221.649Z" fill="#2A8BE9"/>
<path d="M251.66 215.56V221.65C250.853 221.65 250.078 221.329 249.507 220.758C248.936 220.187 248.615 219.412 248.615 218.605C248.615 217.797 248.936 217.022 249.507 216.451C250.078 215.88 250.853 215.56 251.66 215.56Z" fill="#2A8BE9"/>
<path d="M297.649 109.569H291.439V110.569H297.649V109.569Z" fill="#2A8BE9"/>
<path d="M285.67 109.569H265.67V110.569H285.67V109.569Z" fill="#2A8BE9"/>
<path d="M227.23 113.069H323.44C325.617 113.069 327.706 113.934 329.245 115.474C330.785 117.014 331.65 119.102 331.65 121.279V359.899H219V121.279C219 120.2 219.213 119.13 219.627 118.133C220.041 117.136 220.647 116.23 221.412 115.467C222.176 114.704 223.084 114.1 224.082 113.689C225.08 113.277 226.15 113.067 227.23 113.069Z" fill="#2A8BE9"/>
<path opacity="0.2" d="M250.18 185.499H219.02V184.569H249.26V113.069H250.18V185.499Z" fill="white"/>
<path opacity="0.4" d="M305.86 113.069H323.44C325.618 113.069 327.706 113.934 329.246 115.474C330.785 117.014 331.65 119.102 331.65 121.279V359.899H297.65V121.279C297.65 119.102 298.515 117.014 300.055 115.474C301.595 113.934 303.683 113.069 305.86 113.069Z" fill="#263238"/>
<path d="M308.48 153.999H320.83C321.891 153.999 322.909 154.42 323.659 155.171C324.409 155.921 324.83 156.938 324.83 157.999V233.159H304.49V157.999C304.49 156.94 304.91 155.924 305.658 155.174C306.406 154.424 307.421 154.002 308.48 153.999Z" fill="#2A8BE9"/>
<path d="M308.48 153.999H319.18C320.241 153.999 321.259 154.42 322.009 155.171C322.759 155.921 323.18 156.938 323.18 157.999V233.159H304.49V157.999C304.49 156.938 304.912 155.921 305.662 155.171C306.412 154.42 307.429 153.999 308.49 153.999H308.48Z" fill="black"/>
<path opacity="0.2" d="M297.649 346.449H262.789V233.739H297.649V234.659H263.709V345.529H297.649V346.449Z" fill="white"/>
<path opacity="0.2" d="M249.439 346.449C248.287 346.447 247.16 346.103 246.203 345.462C245.245 344.82 244.5 343.909 244.06 342.843C243.62 341.778 243.506 340.606 243.732 339.476C243.958 338.345 244.515 337.307 245.33 336.493C246.146 335.679 247.185 335.125 248.315 334.9C249.446 334.676 250.618 334.792 251.682 335.234C252.747 335.675 253.657 336.423 254.297 337.381C254.937 338.34 255.279 339.466 255.279 340.619C255.279 341.385 255.128 342.144 254.834 342.852C254.541 343.56 254.11 344.204 253.568 344.745C253.026 345.287 252.382 345.716 251.673 346.008C250.965 346.301 250.206 346.45 249.439 346.449ZM249.439 335.709C248.468 335.709 247.519 335.997 246.711 336.537C245.904 337.076 245.275 337.843 244.903 338.74C244.531 339.637 244.434 340.624 244.623 341.577C244.813 342.529 245.281 343.404 245.967 344.091C246.654 344.778 247.529 345.245 248.481 345.435C249.434 345.624 250.421 345.527 251.318 345.155C252.215 344.784 252.982 344.154 253.522 343.347C254.061 342.539 254.349 341.59 254.349 340.619C254.347 339.318 253.828 338.07 252.908 337.15C251.988 336.23 250.741 335.712 249.439 335.709Z" fill="white"/>
<path opacity="0.2" d="M233.85 346.449C232.696 346.449 231.569 346.107 230.611 345.467C229.652 344.826 228.905 343.915 228.463 342.85C228.022 341.785 227.907 340.613 228.132 339.482C228.357 338.351 228.912 337.312 229.727 336.497C230.542 335.681 231.581 335.126 232.712 334.901C233.843 334.676 235.015 334.792 236.081 335.233C237.146 335.674 238.056 336.421 238.697 337.38C239.338 338.339 239.68 339.466 239.68 340.619C239.68 342.165 239.065 343.648 237.972 344.742C236.879 345.835 235.396 346.449 233.85 346.449ZM233.85 335.709C232.878 335.709 231.929 335.997 231.122 336.537C230.314 337.076 229.685 337.843 229.313 338.74C228.942 339.637 228.844 340.625 229.034 341.577C229.223 342.529 229.691 343.404 230.378 344.091C231.064 344.778 231.939 345.245 232.892 345.435C233.844 345.624 234.831 345.527 235.729 345.155C236.626 344.784 237.393 344.154 237.932 343.347C238.472 342.539 238.76 341.59 238.76 340.619C238.757 339.318 238.239 338.07 237.319 337.15C236.398 336.23 235.151 335.712 233.85 335.709Z" fill="white"/>
<path d="M427.909 223.299H334.119V213.909H427.909C429.153 213.909 430.346 214.403 431.225 215.283C432.105 216.162 432.599 217.355 432.599 218.599C432.6 219.216 432.48 219.827 432.245 220.397C432.01 220.967 431.665 221.485 431.229 221.922C430.793 222.359 430.276 222.705 429.706 222.941C429.137 223.178 428.526 223.299 427.909 223.299Z" fill="#2A8BE9"/>
<path d="M398.29 223.299H304.49V213.909H398.29C398.908 213.907 399.52 214.026 400.091 214.26C400.663 214.495 401.182 214.84 401.62 215.276C402.057 215.712 402.404 216.229 402.641 216.8C402.878 217.37 403 217.982 403 218.599C403.002 219.218 402.881 219.83 402.644 220.402C402.408 220.973 402.061 221.492 401.623 221.929C401.185 222.366 400.665 222.712 400.093 222.947C399.522 223.182 398.909 223.302 398.29 223.299Z" fill="#263238"/>
<path d="M391.669 223.3H385.689V359.91H391.669V223.3Z" fill="#2A8BE9"/>
<path opacity="0.7" d="M391.669 223.3H385.689V359.91H391.669V223.3Z" fill="white"/>
<path d="M421.349 223.3H415.369V359.91H421.349V223.3Z" fill="#2A8BE9"/>
<path opacity="0.7" d="M421.349 223.3H415.369V359.91H421.349V223.3Z" fill="white"/>
<path d="M398.29 221.649C399.975 221.649 401.34 220.283 401.34 218.599C401.34 216.914 399.975 215.549 398.29 215.549C396.606 215.549 395.24 216.914 395.24 218.599C395.24 220.283 396.606 221.649 398.29 221.649Z" fill="#2A8BE9"/>
<path d="M384.89 221.649C386.574 221.649 387.94 220.283 387.94 218.599C387.94 216.914 386.574 215.549 384.89 215.549C383.205 215.549 381.84 216.914 381.84 218.599C381.84 220.283 383.205 221.649 384.89 221.649Z" fill="#2A8BE9"/>
<path d="M371.489 221.649C373.174 221.649 374.539 220.283 374.539 218.599C374.539 216.914 373.174 215.549 371.489 215.549C369.805 215.549 368.439 216.914 368.439 218.599C368.439 220.283 369.805 221.649 371.489 221.649Z" fill="#2A8BE9"/>
<path d="M358.089 221.649C359.774 221.649 361.139 220.283 361.139 218.599C361.139 216.914 359.774 215.549 358.089 215.549C356.405 215.549 355.039 216.914 355.039 218.599C355.039 220.283 356.405 221.649 358.089 221.649Z" fill="#2A8BE9"/>
<path d="M344.691 221.649C346.375 221.649 347.741 220.283 347.741 218.599C347.741 216.914 346.375 215.549 344.691 215.549C343.006 215.549 341.641 216.914 341.641 218.599C341.641 220.283 343.006 221.649 344.691 221.649Z" fill="#2A8BE9"/>
<path d="M331.29 221.649C332.975 221.649 334.34 220.283 334.34 218.599C334.34 216.914 332.975 215.549 331.29 215.549C329.606 215.549 328.24 216.914 328.24 218.599C328.24 220.283 329.606 221.649 331.29 221.649Z" fill="#2A8BE9"/>
<path d="M317.89 221.649C319.574 221.649 320.94 220.283 320.94 218.599C320.94 216.914 319.574 215.549 317.89 215.549C316.205 215.549 314.84 216.914 314.84 218.599C314.84 220.283 316.205 221.649 317.89 221.649Z" fill="#2A8BE9"/>
<path d="M304.49 215.56V221.65C305.298 221.65 306.072 221.329 306.643 220.758C307.214 220.187 307.535 219.412 307.535 218.605C307.535 217.797 307.214 217.022 306.643 216.451C306.072 215.88 305.298 215.56 304.49 215.56Z" fill="#2A8BE9"/>
<path d="M284.69 137.72H231.98C230.047 137.72 228.48 139.287 228.48 141.22V245.47C228.48 247.403 230.047 248.97 231.98 248.97H284.69C286.623 248.97 288.19 247.403 288.19 245.47V141.22C288.19 139.287 286.623 137.72 284.69 137.72Z" fill="white"/>
<path opacity="0.3" d="M278.079 149.6H238.589C236.529 149.6 234.859 151.27 234.859 153.33V179.04C234.859 181.1 236.529 182.77 238.589 182.77H278.079C280.139 182.77 281.809 181.1 281.809 179.04V153.33C281.809 151.27 280.139 149.6 278.079 149.6Z" fill="#2A8BE9"/>
<path opacity="0.3" d="M278.269 187.52H238.399C236.444 187.52 234.859 189.104 234.859 191.06V206.82C234.859 208.775 236.444 210.36 238.399 210.36H278.269C280.224 210.36 281.809 208.775 281.809 206.82V191.06C281.809 189.104 280.224 187.52 278.269 187.52Z" fill="#2A8BE9"/>
<path d="M249 198.999L241.16 196.149C241.789 194.424 242.969 192.955 244.518 191.969C246.066 190.983 247.897 190.535 249.726 190.696C251.555 190.857 253.28 191.616 254.633 192.857C255.986 194.098 256.892 195.751 257.21 197.559L249 198.999Z" fill="#2A8BE9"/>
<path d="M249 198.999L257.21 197.559C257.293 198.035 257.336 198.517 257.34 198.999C257.378 200.12 257.191 201.236 256.789 202.282C256.387 203.329 255.779 204.283 255 205.09C254.221 205.896 253.288 206.537 252.257 206.975C251.225 207.413 250.115 207.638 248.995 207.638C247.874 207.638 246.764 207.413 245.733 206.975C244.701 206.537 243.768 205.896 242.989 205.09C242.21 204.283 241.602 203.329 241.2 202.282C240.798 201.236 240.611 200.12 240.65 198.999C240.649 198.027 240.822 197.062 241.16 196.149L249 198.999Z" fill="white"/>
<path d="M271.789 197.859H268.629V207.279H271.789V197.859Z" fill="white"/>
<path d="M266.41 202.869H263.25V207.279H266.41V202.869Z" fill="white"/>
<path d="M266.41 200.18H263.25V202.87H266.41V200.18Z" fill="#2A8BE9"/>
<path d="M271.789 192.119H268.629V197.859H271.789V192.119Z" fill="#2A8BE9"/>
<path d="M277.16 199.569H274V207.269H277.16V199.569Z" fill="white"/>
<path d="M277.16 196.039H274V199.569H277.16V196.039Z" fill="#2A8BE9"/>
<path d="M241.69 173.349H274.87C275.097 173.351 275.32 173.295 275.519 173.187C275.718 173.079 275.886 172.922 276.007 172.731C276.128 172.539 276.199 172.32 276.211 172.094C276.224 171.868 276.179 171.642 276.08 171.439C274.783 168.63 273.998 165.613 273.76 162.529C273.14 155.529 268.4 153.829 266.38 162.529C264.36 171.229 256.29 166.749 253 162.609C249.94 158.769 244.94 163.019 240.5 171.379C240.394 171.584 240.343 171.813 240.35 172.043C240.358 172.274 240.425 172.499 240.544 172.697C240.663 172.894 240.832 173.058 241.032 173.172C241.233 173.286 241.46 173.347 241.69 173.349Z" fill="#2A8BE9"/>
<path d="M240.41 218.1C241.325 218.1 242.22 218.371 242.982 218.88C243.743 219.389 244.337 220.112 244.687 220.958C245.038 221.804 245.129 222.735 244.951 223.633C244.772 224.531 244.331 225.356 243.684 226.004C243.036 226.651 242.211 227.092 241.313 227.271C240.415 227.449 239.484 227.358 238.638 227.007C237.792 226.657 237.069 226.063 236.56 225.302C236.051 224.541 235.78 223.645 235.78 222.73C235.782 221.503 236.271 220.326 237.139 219.459C238.006 218.591 239.182 218.102 240.41 218.1ZM240.41 217.18C239.31 217.18 238.234 217.506 237.32 218.117C236.405 218.729 235.692 219.598 235.272 220.614C234.851 221.631 234.742 222.749 234.957 223.828C235.173 224.907 235.703 225.898 236.482 226.675C237.26 227.452 238.252 227.981 239.331 228.194C240.41 228.408 241.528 228.296 242.544 227.874C243.56 227.451 244.428 226.737 245.037 225.821C245.647 224.906 245.972 223.83 245.97 222.73C245.971 222 245.828 221.277 245.549 220.602C245.27 219.927 244.86 219.315 244.343 218.799C243.827 218.283 243.213 217.874 242.538 217.597C241.863 217.319 241.14 217.177 240.41 217.18Z" fill="#263238"/>
<path d="M255.5 218.1C256.415 218.1 257.311 218.371 258.072 218.88C258.833 219.389 259.427 220.112 259.777 220.958C260.128 221.804 260.219 222.735 260.041 223.633C259.862 224.531 259.421 225.356 258.774 226.004C258.126 226.651 257.301 227.092 256.403 227.271C255.505 227.449 254.574 227.358 253.728 227.007C252.882 226.657 252.159 226.063 251.65 225.302C251.141 224.541 250.87 223.645 250.87 222.73C250.872 221.503 251.361 220.326 252.229 219.459C253.096 218.591 254.273 218.102 255.5 218.1ZM255.5 217.18C254.399 217.178 253.323 217.502 252.407 218.113C251.491 218.723 250.777 219.591 250.355 220.607C249.933 221.624 249.822 222.742 250.036 223.822C250.25 224.901 250.78 225.893 251.558 226.671C252.336 227.449 253.328 227.979 254.407 228.193C255.487 228.408 256.606 228.297 257.622 227.875C258.638 227.452 259.507 226.738 260.117 225.822C260.727 224.907 261.052 223.83 261.05 222.73C261.051 222.001 260.908 221.278 260.63 220.604C260.351 219.93 259.943 219.318 259.427 218.802C258.911 218.287 258.299 217.878 257.625 217.599C256.951 217.321 256.229 217.178 255.5 217.18Z" fill="#2A8BE9"/>
<path d="M281.81 237.49C281.81 237.965 281.669 238.429 281.405 238.824C281.14 239.219 280.765 239.527 280.326 239.708C279.887 239.889 279.404 239.936 278.938 239.843C278.472 239.75 278.044 239.52 277.709 239.183C277.374 238.847 277.146 238.418 277.055 237.952C276.963 237.486 277.012 237.003 277.195 236.564C277.379 236.126 277.688 235.752 278.084 235.489C278.48 235.227 278.945 235.088 279.42 235.09C280.055 235.093 280.662 235.347 281.11 235.796C281.558 236.246 281.81 236.855 281.81 237.49Z" fill="#2A8BE9"/>
<path opacity="0.3" d="M271.269 237.49C271.269 237.965 271.128 238.429 270.864 238.824C270.599 239.219 270.224 239.527 269.785 239.708C269.346 239.889 268.863 239.936 268.397 239.843C267.931 239.75 267.503 239.52 267.168 239.183C266.833 238.847 266.605 238.418 266.514 237.952C266.422 237.486 266.471 237.003 266.654 236.564C266.838 236.126 267.147 235.752 267.543 235.489C267.939 235.227 268.404 235.088 268.879 235.09C269.514 235.093 270.121 235.347 270.569 235.796C271.017 236.246 271.269 236.855 271.269 237.49Z" fill="#2A8BE9"/>
<path d="M260.73 237.49C260.73 237.965 260.589 238.429 260.325 238.823C260.061 239.218 259.687 239.526 259.248 239.707C258.81 239.889 258.327 239.936 257.861 239.844C257.396 239.751 256.968 239.523 256.633 239.187C256.297 238.851 256.068 238.424 255.976 237.958C255.883 237.493 255.931 237.01 256.112 236.571C256.294 236.133 256.602 235.758 256.996 235.494C257.391 235.231 257.855 235.09 258.33 235.09C258.966 235.09 259.577 235.343 260.027 235.793C260.477 236.243 260.73 236.853 260.73 237.49Z" fill="#2A8BE9"/>
<path d="M250.191 237.49C250.191 237.965 250.05 238.429 249.786 238.823C249.522 239.218 249.148 239.526 248.709 239.707C248.271 239.889 247.788 239.936 247.322 239.844C246.857 239.751 246.429 239.523 246.094 239.187C245.758 238.851 245.529 238.424 245.437 237.958C245.344 237.493 245.392 237.01 245.573 236.571C245.755 236.133 246.063 235.758 246.457 235.494C246.852 235.231 247.316 235.09 247.791 235.09C248.427 235.09 249.038 235.343 249.488 235.793C249.938 236.243 250.191 236.853 250.191 237.49Z" fill="#2A8BE9"/>
<path d="M239.65 237.49C239.65 237.965 239.509 238.429 239.245 238.823C238.981 239.218 238.607 239.526 238.168 239.707C237.73 239.889 237.247 239.936 236.781 239.844C236.316 239.751 235.888 239.523 235.553 239.187C235.217 238.851 234.988 238.424 234.896 237.958C234.803 237.493 234.851 237.01 235.032 236.571C235.214 236.133 235.522 235.758 235.916 235.494C236.311 235.231 236.775 235.09 237.25 235.09C237.886 235.09 238.497 235.343 238.947 235.793C239.397 236.243 239.65 236.853 239.65 237.49Z" fill="#2A8BE9"/>
<path d="M398.279 177.529H345.529V213.919H398.279V177.529Z" fill="#2A8BE9"/>
<path opacity="0.7" d="M368.44 177.529H359.01V190.899H368.44V177.529Z" fill="white"/>
<path opacity="0.2" d="M398.29 177.529H381.84V213.919H398.29V177.529Z" fill="black"/>
<path opacity="0.7" d="M392.69 177.529H387.43V190.899H392.69V177.529Z" fill="#2A8BE9"/>
<path d="M355.681 203.77V209.71H349.741V203.77H355.681ZM356.601 202.84H348.811V210.63H356.601V202.84Z" fill="white"/>
<path opacity="0.4" d="M367.669 202.84H359.879V210.63H367.669V202.84Z" fill="#263238"/>
<path d="M202.76 183.539H187.28C186.849 183.539 186.5 183.888 186.5 184.319V213.129C186.5 213.56 186.849 213.909 187.28 213.909H202.76C203.191 213.909 203.54 213.56 203.54 213.129V184.319C203.54 183.888 203.191 183.539 202.76 183.539Z" fill="#263238"/>
<path d="M186.37 183.539H201.84C202.047 183.539 202.245 183.621 202.392 183.768C202.538 183.914 202.62 184.112 202.62 184.319V213.119C202.62 213.326 202.538 213.524 202.392 213.671C202.245 213.817 202.047 213.899 201.84 213.899H186.37C186.161 213.899 185.96 213.816 185.811 213.668C185.663 213.52 185.58 213.319 185.58 213.109V184.309C185.581 184.207 185.603 184.106 185.643 184.011C185.684 183.917 185.742 183.832 185.816 183.761C185.889 183.689 185.976 183.633 186.071 183.595C186.166 183.557 186.268 183.538 186.37 183.539Z" fill="#2A8BE9"/>
<path d="M201.709 212.269V185.189C201.709 184.791 201.387 184.469 200.989 184.469H187.239C186.841 184.469 186.519 184.791 186.519 185.189V212.269C186.519 212.666 186.841 212.989 187.239 212.989H200.989C201.387 212.989 201.709 212.666 201.709 212.269Z" fill="white"/>
<path opacity="0.2" d="M193.811 184.469H190.671L188.311 212.989H191.461L193.811 184.469Z" fill="#2A8BE9"/>
<path opacity="0.2" d="M196.96 184.469H194.92L192.57 212.989H194.6L196.96 184.469Z" fill="#2A8BE9"/>
<path d="M187.751 154.851H162.461C162.336 154.857 162.211 154.834 162.098 154.783C161.984 154.731 161.884 154.653 161.807 154.555C161.729 154.457 161.676 154.342 161.653 154.219C161.629 154.097 161.635 153.97 161.671 153.851L168.231 118.851C168.282 118.577 168.425 118.33 168.636 118.148C168.847 117.966 169.113 117.862 169.391 117.851H194.671C194.796 117.844 194.92 117.868 195.034 117.919C195.148 117.971 195.248 118.048 195.326 118.146C195.404 118.244 195.458 118.358 195.483 118.481C195.508 118.603 195.504 118.73 195.471 118.851L188.911 153.851C188.859 154.124 188.716 154.372 188.505 154.553C188.295 154.735 188.029 154.84 187.751 154.851Z" fill="#2A8BE9"/>
<path d="M186.85 153.38H163.05C162.935 153.385 162.82 153.363 162.715 153.316C162.609 153.269 162.517 153.197 162.444 153.108C162.371 153.019 162.32 152.914 162.295 152.801C162.27 152.688 162.272 152.572 162.3 152.46L168.47 119.46C168.525 119.206 168.663 118.978 168.862 118.812C169.061 118.645 169.31 118.549 169.57 118.54H193.37C193.485 118.535 193.6 118.557 193.705 118.604C193.81 118.651 193.903 118.722 193.976 118.811C194.049 118.901 194.1 119.006 194.125 119.119C194.15 119.231 194.148 119.348 194.12 119.46L187.94 152.46C187.888 152.713 187.752 152.942 187.555 153.109C187.357 153.276 187.108 153.371 186.85 153.38Z" fill="white"/>
<path d="M131.53 120.3L131.31 120.77L131.04 121.38L130.51 122.64C130.17 123.51 129.85 124.4 129.56 125.31C128.97 127.12 128.42 128.97 127.99 130.87C127.09 134.678 126.481 138.549 126.17 142.45L126.06 143.85C126.06 144.04 126.06 144.1 125.97 143.94C125.822 143.67 125.6 143.448 125.33 143.3C125.07 143.16 124.99 143.21 125.1 143.3C125.698 143.41 126.312 143.41 126.91 143.3C127.786 143.169 128.652 142.975 129.5 142.72C133.287 141.52 136.989 140.067 140.58 138.37L143 142.14C139.61 144.922 135.888 147.273 131.92 149.14C130.827 149.635 129.701 150.056 128.55 150.4C127.134 150.839 125.649 151.012 124.17 150.91C123.053 150.83 121.97 150.488 121.01 149.91C119.876 149.196 118.992 148.148 118.48 146.91C118.107 145.953 117.914 144.936 117.91 143.91V142.1C117.922 137.701 118.361 133.314 119.22 129C119.647 126.806 120.211 124.642 120.91 122.52C121.25 121.45 121.65 120.38 122.07 119.31C122.29 118.78 122.5 118.25 122.75 117.71L123.14 116.89C123.29 116.6 123.4 116.38 123.62 115.97L131.53 120.3Z" fill="#B55B52"/>
<path d="M137.49 84.6699C138.49 89.9199 140.83 101.36 137.16 104.85C137.16 104.85 138.59 110.17 148.33 110.17C159.05 110.17 153.45 104.85 153.45 104.85C147.61 103.46 147.76 99.1199 148.78 95.0499L137.49 84.6699Z" fill="#B55B52"/>
<path d="M135 106.68C135 106.68 134.06 103.68 133.71 101.93C133.36 100.18 146.5 100.74 150.85 101.86C155.2 102.98 156.59 108.07 156.59 108.07L135 106.68Z" fill="#263238"/>
<path d="M160.92 83.46C161.214 85.1903 161.742 86.8726 162.49 88.46C162.081 88.6409 161.637 88.7301 161.19 88.7215C160.742 88.7129 160.302 88.6065 159.9 88.41L160.92 83.46Z" fill="#A02724"/>
<path d="M159.371 78.0908C159.31 78.0733 159.254 78.0386 159.211 77.9908C159.172 77.9526 159.14 77.9068 159.119 77.8561C159.097 77.8054 159.086 77.7509 159.086 77.6958C159.086 77.6408 159.097 77.5863 159.119 77.5356C159.14 77.4849 159.172 77.4391 159.211 77.4008C159.672 76.921 160.241 76.5596 160.872 76.3472C161.502 76.1347 162.174 76.0777 162.831 76.1808C162.885 76.1915 162.935 76.2128 162.981 76.2433C163.026 76.2738 163.064 76.3131 163.094 76.3587C163.124 76.4043 163.144 76.4554 163.154 76.509C163.164 76.5626 163.163 76.6176 163.151 76.6708C163.127 76.7795 163.061 76.8743 162.967 76.9343C162.874 76.9943 162.76 77.0146 162.651 76.9908C162.131 76.9195 161.601 76.9729 161.105 77.1468C160.61 77.3207 160.163 77.61 159.801 77.9908C159.747 78.0468 159.677 78.0859 159.601 78.1037C159.525 78.1214 159.445 78.1169 159.371 78.0908Z" fill="#263238"/>
<path d="M160.551 82.1301C160.401 82.8301 160.651 83.4701 161.111 83.5601C161.571 83.6501 162.051 83.1701 162.201 82.4701C162.351 81.7701 162.091 81.1301 161.631 81.0401C161.171 80.9501 160.691 81.4301 160.551 82.1301Z" fill="#263238"/>
<path d="M161.42 81.0001L163.2 80.8701C163.2 80.8701 162.07 82.0001 161.42 81.0001Z" fill="#263238"/>
<path d="M92.5 359.39H101.33L104.15 338.93H95.31L92.5 359.39Z" fill="#B55B52"/>
<path d="M102.84 353.33H92.9104C92.7397 353.328 92.5739 353.388 92.4436 353.498C92.3132 353.608 92.2268 353.761 92.2004 353.93L91.0704 361.78C91.0494 361.979 91.0704 362.181 91.1322 362.371C91.194 362.562 91.2951 362.737 91.4289 362.886C91.5628 363.035 91.7264 363.154 91.9093 363.236C92.0922 363.318 92.2901 363.36 92.4904 363.36C95.9504 363.3 97.6204 363.09 101.99 363.09C104.67 363.09 108.59 363.37 112.3 363.37C116.01 363.37 116.21 359.7 114.67 359.37C107.74 357.88 106.67 355.83 104.31 353.87C103.899 353.524 103.378 353.333 102.84 353.33Z" fill="#263238"/>
<path opacity="0.2" d="M95.3096 338.93H104.15L102.69 349.48H93.8496L95.3096 338.93Z" fill="black"/>
<path d="M126.051 106.94C122.471 108.08 119.781 121.6 119.781 121.6L131.131 131.6C131.131 131.6 138.561 118.45 136.401 114.07C134.141 109.54 130.281 105.6 126.051 106.94Z" fill="#263238"/>
<path d="M169.44 114C169.44 119.67 169.65 130.21 165.95 149C165.28 152.41 166.61 153.92 166.01 157.41C165.62 159.68 164.35 159.35 164.17 160.41H128.28C128.28 159.34 126.71 158.77 126.35 156.47C125.51 151.18 128.57 150.74 128.47 147.41C128.22 139.01 127 129.57 123.32 112.99C123.133 112.18 123.116 111.34 123.271 110.523C123.425 109.707 123.748 108.931 124.218 108.246C124.688 107.561 125.295 106.98 126.002 106.542C126.708 106.104 127.497 105.817 128.32 105.7C130.9 105.33 134.01 104.97 137.15 104.81C142.573 104.424 148.017 104.424 153.44 104.81C156.62 105.1 160 105.6 162.73 106.05C164.612 106.357 166.323 107.327 167.554 108.785C168.784 110.243 169.453 112.092 169.44 114Z" fill="#263238"/>
<path opacity="0.4" d="M168.071 130.351C167.841 132.871 168.001 135.711 167.601 138.921C161.671 135.921 160.851 128.241 162.671 124.351C164.775 126.054 166.598 128.079 168.071 130.351Z" fill="black"/>
<path d="M170.78 116.45C171.78 120.33 172.86 124.33 174 128.22C175.14 132.11 176.36 136 177.79 139.68C178.467 141.475 179.235 143.234 180.09 144.95C179.845 144.695 179.549 144.494 179.22 144.36C178.63 144.15 178.22 144.29 178.29 144.36C178.818 144.28 179.319 144.074 179.75 143.76C181.315 142.751 182.787 141.607 184.15 140.34C185.63 139.03 187.15 137.6 188.55 136.22L192.2 138.82C191.182 140.769 190.032 142.646 188.76 144.44C187.426 146.352 185.872 148.1 184.13 149.65C183.606 150.099 183.047 150.506 182.46 150.87C181.725 151.337 180.927 151.697 180.09 151.94C178.773 152.32 177.366 152.253 176.09 151.75C174.788 151.195 173.703 150.229 173 149C171.851 147.064 170.819 145.061 169.91 143C168.163 139.047 166.644 134.997 165.36 130.87C164.71 128.87 164.1 126.8 163.55 124.74C163 122.68 162.45 120.65 161.98 118.51L170.78 116.45Z" fill="#B55B52"/>
<path d="M168.001 109.061C172.641 114.281 174.591 123.791 174.591 123.791L161.201 132.501C161.201 132.501 154.581 117.501 156.201 112.901C158.331 106.751 163.481 104.001 168.001 109.061Z" fill="#263238"/>
<path d="M192.81 136.63C193.39 134.84 191.62 134.86 192.22 131.2C192.43 129.91 191.31 129.36 191.22 130.04C190.64 133.49 183.85 138.71 187.48 140.37C189.65 141.38 192.81 136.63 192.81 136.63Z" fill="#B55B52"/>
<path d="M195.49 134.92C195.42 132.92 193.87 130.37 192.34 133.54L191.54 134.16C191.54 134.16 189.38 134.48 186.67 138.16L189.57 140.76L190.57 140.61C192.15 140.352 193.64 139.698 194.9 138.71L195.1 138.54C195.326 138.339 195.5 138.088 195.61 137.806C195.719 137.524 195.761 137.221 195.73 136.92L195.49 134.92Z" fill="#B55B52"/>
<path d="M137.57 74.88C136.33 83.56 135.57 87.21 139.03 92.5C144.18 100.5 155.11 100.1 158.93 91.97C162.36 84.65 163.82 71.68 156.14 66.53C154.448 65.3963 152.495 64.7119 150.466 64.5412C148.436 64.3706 146.396 64.7193 144.539 65.5545C142.681 66.3898 141.067 67.6841 139.848 69.3155C138.629 70.947 137.845 72.8619 137.57 74.88Z" fill="#B55B52"/>
<path d="M154.91 81.4399C158.42 79.1699 162.13 75.9199 161.81 71.4999C161.49 67.0799 155.92 62.9199 148.25 62.9199C138 62.9199 138.42 69.5799 138.42 69.5799C136.42 69.8299 116.5 87.4499 141.17 94.2899C165.84 101.13 154.91 81.4399 154.91 81.4399Z" fill="#263238"/>
<path d="M134.44 70.1904C134.44 70.1904 133.44 72.3904 133.77 73.3904C137.11 74.2504 148.77 74.7504 154.64 73.6704C155.327 72.4922 156.186 71.4237 157.19 70.5004L134.44 70.1904Z" fill="white"/>
<path d="M133.501 71.2503C134.031 73.0403 154.291 72.0903 160.811 71.2503C162.372 71.0358 163.909 70.6741 165.401 70.1703V69.4903H162.611C162.611 69.4903 160.811 57.3003 148.431 57.3203C137.801 57.3903 131.571 64.7103 133.501 71.2503Z" fill="#2A8BE9"/>
<path d="M151.23 56.7504C149.233 56.5936 147.227 56.5936 145.23 56.7504C143.29 57.3704 141.54 57.6504 139.15 61.3504L144.5 61.5304C144.5 61.5304 147.98 57.6604 151.45 57.6304C151.435 57.3255 151.36 57.0266 151.23 56.7504Z" fill="#2A8BE9"/>
<path opacity="0.2" d="M142.87 69.7099H142.82C142.771 69.7037 142.724 69.6879 142.681 69.6634C142.639 69.6389 142.602 69.6061 142.572 69.567C142.542 69.5279 142.52 69.4833 142.508 69.4357C142.496 69.3881 142.493 69.3385 142.5 69.2899C143.89 60.3499 150.36 57.2899 150.64 57.2099C150.685 57.19 150.733 57.1791 150.781 57.1778C150.83 57.1766 150.879 57.1851 150.924 57.2028C150.97 57.2204 151.012 57.2469 151.047 57.2808C151.082 57.3146 151.11 57.3551 151.13 57.3999C151.152 57.4436 151.164 57.4914 151.167 57.5401C151.169 57.5889 151.162 57.6377 151.145 57.6835C151.128 57.7293 151.102 57.7713 151.069 57.8068C151.035 57.8422 150.995 57.8705 150.95 57.8899C150.88 57.8899 144.57 60.8899 143.24 69.3999C143.228 69.4882 143.183 69.5688 143.115 69.6261C143.046 69.6833 142.959 69.7132 142.87 69.7099Z" fill="black"/>
<path d="M158.271 80.4798C158.802 82.2716 158.689 84.1927 157.951 85.9098C156.951 88.1598 154.851 87.6598 153.781 85.6598C152.781 83.8698 152.161 80.5398 153.781 78.9398C155.401 77.3398 157.611 78.3198 158.271 80.4798Z" fill="#B55B52"/>
<path d="M154.691 160.45C154.691 160.45 139.131 221.1 127.931 255.28C118.881 282.89 104.391 347.42 104.391 347.42H92.3906C92.3906 347.42 98.8706 284.82 105.751 257.51C123.161 188.41 111.821 182.79 128.331 160.45H154.691Z" fill="#2A8BE9"/>
<path opacity="0.4" d="M138.46 179.45C133.25 198.45 133.65 219.18 135.88 229.34C139.1 218.28 142.32 206.73 145.16 196.34C144.18 190.7 141.19 184.15 138.46 179.45Z" fill="black"/>
<path d="M106.161 347.661H90.8105L91.2206 342.271L107.581 341.721L106.161 347.661Z" fill="#263238"/>
<path d="M151.95 359.37H160.79L160.1 338.91H151.26L151.95 359.37Z" fill="#B55B52"/>
<path d="M161.49 353.33H151.56C151.39 353.326 151.224 353.385 151.095 353.496C150.966 353.607 150.882 353.762 150.86 353.93L149.73 361.78C149.707 361.979 149.727 362.18 149.787 362.371C149.848 362.561 149.948 362.737 150.081 362.886C150.214 363.035 150.377 363.154 150.56 363.236C150.742 363.318 150.94 363.36 151.14 363.36C154.6 363.3 156.27 363.09 160.64 363.09C163.32 363.09 167.25 363.37 170.96 363.37C174.67 363.37 174.86 359.7 173.32 359.37C166.39 357.88 165.32 355.83 162.97 353.87C162.554 353.524 162.031 353.333 161.49 353.33Z" fill="#263238"/>
<path opacity="0.2" d="M151.26 338.91H160.1L160.45 349.46H151.61L151.26 338.91Z" fill="black"/>
<path d="M164.17 160.45C164.17 160.45 164.17 221.1 161.78 255.28C159.83 282.89 161.93 347.42 161.93 347.42H149.88C149.88 347.42 140.27 284.82 140.13 257.51C139.78 188.41 126.99 182.79 137.76 160.45H164.17Z" fill="#2A8BE9"/>
<path d="M163.58 347.661H148.23L147.42 342.271L163.66 341.721L163.58 347.661Z" fill="#263238"/>
<path d="M127.741 158.34L126.121 161.56C126.001 161.81 126.291 162.06 126.711 162.06H164.341C164.671 162.06 164.941 161.9 164.961 161.7L165.281 158.49C165.281 158.26 165.021 158.07 164.671 158.07H128.331C128.218 158.06 128.104 158.08 128.001 158.127C127.897 158.175 127.808 158.248 127.741 158.34Z" fill="white"/>
<path d="M132.62 162.41H131.62C131.43 162.41 131.28 162.31 131.29 162.19L131.75 158.01C131.75 157.89 131.93 157.79 132.12 157.79H133.12C133.31 157.79 133.46 157.89 133.45 158.01L132.99 162.19C133 162.31 132.82 162.41 132.62 162.41Z" fill="#263238"/>
<path d="M156.221 162.41H155.221C155.031 162.41 154.881 162.31 154.891 162.19L155.351 158.01C155.351 157.89 155.531 157.79 155.731 157.79H156.731C156.921 157.79 157.071 157.89 157.061 158.01L156.601 162.19C156.581 162.31 156.411 162.41 156.221 162.41Z" fill="#263238"/>
</svg>
