<?xml version="1.0" encoding="utf-8"?>
<!-- Generator: Adobe Illustrator 16.0.0, SVG Export Plug-In . SVG Version: 6.00 Build 0)  -->
<!DOCTYPE svg PUBLIC "-//W3C//DTD SVG 1.1//EN" "http://www.w3.org/Graphics/SVG/1.1/DTD/svg11.dtd">
<svg version="1.1" id="Layer_1" xmlns="http://www.w3.org/2000/svg" xmlns:xlink="http://www.w3.org/1999/xlink" x="0px" y="0px"
	 width="24px" height="24px" viewBox="0 0 24 24" enable-background="new 0 0 24 24" xml:space="preserve">
<g transform="translate(0.000000,512.000000) scale(0.100000,-0.100000)">
	<path fill="#0C4072" d="M93.872,5119.033c-0.923-0.918-0.967-1.597-0.967-19.355v-18.389H52.5c-39.727,0-40.405,0-43.066-1.016
		c-3.579-1.353-7.061-4.839-8.418-8.418C0,5069.145,0,5068.901,0,5000c0-68.906,0-69.141,1.016-71.855
		c1.357-3.584,4.839-7.061,8.418-8.418c2.661-1.016,3.34-1.016,42.148-1.016c31.401,0,39.434-0.146,39.238-0.586
		c-0.093-0.332-1.255-3.818-2.563-7.734l-2.319-7.168h-7.163c-9.775,0-9.097,0.83-9.097-11.611c0-9.043,0.049-9.727,0.967-10.645
		C71.611,4880,72.241,4880,120,4880c47.754,0,48.389,0,49.355,0.967c0.918,0.918,0.967,1.602,0.967,10.645
		c0,12.441,0.674,11.611-9.092,11.611h-7.168l-2.324,7.168c-1.299,3.916-2.461,7.402-2.559,7.734
		c-0.195,0.439,7.832,0.586,39.238,0.586c38.809,0,39.482,0,42.148,1.016c3.574,1.357,7.061,4.834,8.418,8.418
		C240,4930.859,240,4931.093,240,5000c0,68.901,0,69.146-1.016,71.855c-1.357,3.579-4.844,7.065-8.418,8.418
		c-2.178,0.825-3.828,1.016-8.232,1.016h-5.557v18.389c0,17.759-0.049,18.438-0.967,19.355c-0.977,0.967-1.602,0.967-60.977,0.967
		C95.469,5120,94.839,5120,93.872,5119.033z M209.033,5073.549v-38.711h-16.357H176.27l-12.529-9.39l-12.529-9.434l-0.244,8.711
		c-0.244,7.935-0.342,8.804-1.162,9.434c-0.82,0.581-5.029,0.679-25.063,0.679h-24.097v38.711v38.706h54.189h54.199V5073.549z
		 M92.905,5065.805v-7.69l-31.792-0.146l-31.841-0.146l-2.9-1.401c-3.726-1.841-7.402-5.518-9.243-9.243l-1.401-2.905v-32.661
		v-32.656l1.401-2.91c1.841-3.721,5.518-7.402,9.243-9.238l2.9-1.406H73.55h44.272l2.905,1.406c3.726,1.836,7.397,5.518,9.243,9.238
		l1.396,2.91l0.146,24.092l0.146,24.048h5.762h5.801v-10.645c0-10.015,0.049-10.693,0.967-11.611
		c0.635-0.63,1.602-0.967,2.813-0.967c1.689,0,3.438,1.162,17.324,11.611l15.43,11.611h17.568c16.836,0,17.559,0.049,18.486,0.972
		c0.918,0.918,0.967,1.597,0.967,23.271v22.354l4.785-0.239c6.582-0.337,9.199-1.938,10.215-6.484
		c0.283-1.064,0.479-25.161,0.479-55.693v-53.853H120H7.744l0.093,55.063c0.146,53.999,0.146,55.063,1.113,56.66
		c1.211,2.031,3.003,3.438,5.132,3.921c0.918,0.19,19.014,0.386,40.259,0.435l38.564,0.049V5065.805z M92.905,5039.677
		c0-10.015,0.044-10.693,0.967-11.611c0.918-0.923,1.597-0.972,15.532-0.972h14.517l-0.146-22.354
		c-0.146-21.528-0.195-22.495-1.162-24.575c-1.211-2.617-4.209-5.469-6.772-6.348c-1.548-0.527-9.341-0.674-42.534-0.674
		c-40.308,0-40.645,0-42.822,1.016c-2.759,1.309-4.692,3.242-6.001,6.006c-1.016,2.129-1.016,2.705-1.016,31.445
		c0,28.745,0,29.326,1.016,31.455c1.743,3.726,4.839,6.143,8.662,6.821c1.064,0.146,14.951,0.337,30.869,0.386l28.892,0.049
		V5039.677z M232.158,4941.113c-0.146-7.549-0.234-8.809-1.113-10.254c-1.25-2.129-2.998-3.389-5.371-3.926
		c-2.51-0.625-208.833-0.625-211.353,0c-2.368,0.537-4.111,1.797-5.371,3.926c-0.869,1.445-0.967,2.705-1.113,10.254l-0.19,8.564
		H120h112.354L232.158,4941.113z M142.451,4911.601c1.309-3.975,2.471-7.461,2.568-7.744c0.186-0.488-4.99-0.635-25.02-0.635
		c-20.034,0-25.21,0.146-25.015,0.635c0.093,0.283,1.255,3.77,2.563,7.744l2.324,7.109H120h20.127L142.451,4911.601z
		 M162.578,4891.611v-3.867H120H77.417v3.867v3.877H120h42.578V4891.611z"/>
	<path fill="#0C4072" d="M123.872,5096.772v-3.867h27.095h27.1v3.867v3.872h-27.1h-27.095V5096.772z"/>
	<path fill="#0C4072" d="M185.811,5096.772v-3.867h7.734h7.744v3.867v3.872h-7.744h-7.734V5096.772z"/>
	<path fill="#0C4072" d="M108.389,5081.289v-3.867h46.445h46.455v3.867v3.872h-46.455h-46.445V5081.289z"/>
	<path fill="#0C4072" d="M108.389,5065.805v-3.872h46.445h46.455v3.872v3.872h-46.455h-46.445V5065.805z"/>
	<path fill="#0C4072" d="M108.389,5050.322v-3.872h46.445h46.455v3.872v3.872h-46.455h-46.445V5050.322z"/>
	<path fill="#0C4072" d="M185.811,4969.033v-3.867h3.867h3.867v3.867v3.867h-3.867h-3.867V4969.033z"/>
	<path fill="#0C4072" d="M201.289,4969.033v-3.867h3.867h3.877v3.867v3.867h-3.877h-3.867V4969.033z"/>
	<path fill="#0C4072" d="M216.777,4969.033v-3.867h3.867h3.867v3.867v3.867h-3.867h-3.867V4969.033z"/>
	<path fill="#0C4072" d="M47.417,5037.744c-0.918-0.923-0.967-1.597-0.967-26.133c0-24.531,0.049-25.205,0.967-26.123
		c2.036-2.041,3.052-1.602,28.501,11.074c13.452,6.777,24.243,12.437,24.438,12.871c0.386,1.016,0.386,3.34,0,4.355
		c-0.195,0.435-10.986,6.099-24.438,12.871C50.469,5039.34,49.453,5039.775,47.417,5037.744z M70.889,5019.985
		c8.901-4.502,16.206-8.228,16.206-8.374c0-0.239-32.178-16.455-32.661-16.455c-0.142,0-0.239,7.407-0.239,16.455
		s0.098,16.455,0.239,16.455C54.58,5028.066,61.982,5024.433,70.889,5019.985z"/>
	<path fill="#0C4072" d="M15.483,4938.066v-3.877h27.095h27.1v3.877v3.867h-27.1H15.483V4938.066z"/>
	<path fill="#0C4072" d="M77.417,4938.066v-3.877h7.744h7.744v3.877v3.867h-7.744h-7.744V4938.066z"/>
</g>
</svg>
