<svg width="407" height="335" viewBox="0 0 407 335" fill="none" xmlns="http://www.w3.org/2000/svg">
<path d="M411 293.756H0.931641V293.981H411V293.756Z" fill="#EBEBEB"/>
<path d="M369.911 308.171H326.387V308.395H369.911V308.171Z" fill="#EBEBEB"/>
<path d="M272.578 305.366H224.469V305.591H272.578V305.366Z" fill="#EBEBEB"/>
<path d="M328.486 304.076H312.748V304.301H328.486V304.076Z" fill="#EBEBEB"/>
<path d="M118.754 301.362H83.332V301.587H118.754V301.362Z" fill="#EBEBEB"/>
<path d="M78.7625 301.362H66.0996V301.587H78.7625V301.362Z" fill="#EBEBEB"/>
<path d="M153.207 305.143H108.756V305.367H153.207V305.143Z" fill="#EBEBEB"/>
<path d="M195.305 253.799H36.9443C35.7037 253.797 34.5147 253.257 33.6382 252.298C32.7618 251.339 32.2695 250.039 32.2695 248.684V5.51214C32.2803 4.16475 32.7774 2.87642 33.6526 1.92699C34.5279 0.977559 35.7108 0.443714 36.9443 0.441406H195.305C196.547 0.441406 197.738 0.980363 198.616 1.93971C199.494 2.89906 199.988 4.20021 199.988 5.55694V248.684C199.988 250.04 199.494 251.341 198.616 252.301C197.738 253.26 196.547 253.799 195.305 253.799ZM36.9443 0.620585C35.7581 0.622958 34.6212 1.13936 33.7832 2.05645C32.9452 2.97354 32.4746 4.21637 32.4746 5.51214V248.684C32.4746 249.979 32.9452 251.222 33.7832 252.139C34.6212 253.056 35.7581 253.573 36.9443 253.575H195.305C196.492 253.573 197.629 253.057 198.469 252.14C199.308 251.223 199.78 249.98 199.783 248.684V5.51214C199.78 4.21555 199.308 2.97274 198.469 2.0559C197.629 1.13907 196.492 0.622953 195.305 0.620585H36.9443Z" fill="#EBEBEB"/>
<path d="M372.708 253.799H214.339C213.098 253.797 211.908 253.257 211.03 252.298C210.153 251.339 209.658 250.04 209.656 248.684V5.51214C209.669 4.16393 210.168 2.87561 211.045 1.92643C211.921 0.977246 213.105 0.443689 214.339 0.441406H372.708C373.94 0.446069 375.121 0.980955 375.994 1.93013C376.868 2.87931 377.364 4.16629 377.374 5.51214V248.684C377.374 250.037 376.883 251.336 376.008 252.294C375.134 253.253 373.947 253.794 372.708 253.799ZM214.339 0.620585C213.152 0.622953 212.015 1.13907 211.175 2.0559C210.336 2.97274 209.863 4.21555 209.861 5.51214V248.684C209.863 249.98 210.336 251.223 211.175 252.14C212.015 253.057 213.152 253.573 214.339 253.575H372.708C373.895 253.573 375.032 253.057 375.872 252.14C376.711 251.223 377.184 249.98 377.186 248.684V5.51214C377.184 4.21555 376.711 2.97274 375.872 2.0559C375.032 1.13907 373.895 0.622953 372.708 0.620585H214.339Z" fill="#EBEBEB"/>
<path d="M97.2658 228.696H47.4589C45.1398 228.696 43.2598 230.75 43.2598 233.283V235.263C43.2598 237.796 45.1398 239.85 47.4589 239.85H97.2658C99.5849 239.85 101.465 237.796 101.465 235.263V233.283C101.465 230.75 99.5849 228.696 97.2658 228.696Z" fill="#EBEBEB"/>
<path d="M59.4084 239.85H51.2152L41.8984 293.756H50.0916L59.4084 239.85Z" fill="#E0E0E0"/>
<path d="M75.7621 239.85H67.5689L62.9844 293.756H71.1775L75.7621 239.85Z" fill="#E0E0E0"/>
<path d="M85.3164 239.85H93.5096L102.835 293.756H94.6414L85.3164 239.85Z" fill="#E0E0E0"/>
<path d="M354.256 14.4619H162.631V196.82H354.256V14.4619Z" fill="#E6E6E6"/>
<path d="M360.005 14.4619H165.312V196.82H360.005V14.4619Z" fill="#F0F0F0"/>
<path d="M354.256 196.83H162.631V200.359H354.256V196.83Z" fill="#E6E6E6"/>
<path d="M363.071 196.83H168.379V200.359H363.071V196.83Z" fill="#F0F0F0"/>
<path d="M351.951 191.158V20.1331L173.358 20.1331V191.158H351.951Z" fill="#FAFAFA"/>
<path d="M230.455 191.158L264.122 20.1331H286.421L252.755 191.158H230.455Z" fill="white"/>
<path d="M204.424 191.158L238.09 20.1331H260.39L226.723 191.158H204.424Z" fill="white"/>
<path d="M177.564 20.5989V180.408C177.564 180.668 177.86 180.874 178.221 180.874H179.09C179.451 180.874 179.746 180.668 179.746 180.408V20.5989C179.746 20.3391 179.451 20.1331 179.09 20.1331H178.221C177.86 20.151 177.564 20.3391 177.564 20.5989Z" fill="#F0F0F0"/>
<path d="M287.801 191.158L321.467 20.1331H330.161L296.494 191.158H287.801Z" fill="white"/>
<path d="M351.951 191.158V20.1331H350.926V191.158H351.951Z" fill="#E6E6E6"/>
<path opacity="0.5" d="M361.907 27.2285H170.281L169.535 22.3369H361.168L361.907 27.2285Z" fill="#E0E0E0"/>
<path opacity="0.5" d="M361.907 44.0176H170.281L169.535 39.1171H361.168L361.907 44.0176Z" fill="#E0E0E0"/>
<path opacity="0.5" d="M361.907 60.7976H170.281L169.535 55.906H361.168L361.907 60.7976Z" fill="#E0E0E0"/>
<path opacity="0.5" d="M361.907 77.5864H170.281L169.535 72.6948H361.168L361.907 77.5864Z" fill="#E0E0E0"/>
<path opacity="0.5" d="M361.907 94.3665H170.281L169.535 89.475H361.168L361.907 94.3665Z" fill="#E0E0E0"/>
<path opacity="0.5" d="M361.907 111.155H170.281L169.535 106.264H361.168L361.907 111.155Z" fill="#E0E0E0"/>
<path opacity="0.5" d="M361.907 35.623H170.281L169.535 30.7314H361.168L361.907 35.623Z" fill="#E0E0E0"/>
<path opacity="0.5" d="M361.907 52.403H170.281L169.535 47.5115H361.168L361.907 52.403Z" fill="#E0E0E0"/>
<path opacity="0.5" d="M361.907 69.192H170.281L169.535 64.3004H361.168L361.907 69.192Z" fill="#E0E0E0"/>
<path opacity="0.5" d="M361.907 85.9721H170.281L169.535 81.0806H361.168L361.907 85.9721Z" fill="#E0E0E0"/>
<path opacity="0.5" d="M361.907 102.761H170.281L169.535 97.8694H361.168L361.907 102.761Z" fill="#E0E0E0"/>
<path opacity="0.5" d="M361.907 119.55H170.281L169.535 114.658H361.168L361.907 119.55Z" fill="#E0E0E0"/>
<path d="M354.256 210.653H328.881V293.756H354.256V210.653Z" fill="#E6E6E6"/>
<path d="M338.796 293.756H354.255V284.215H322.59L338.796 293.756Z" fill="#EBEBEB"/>
<path d="M278.195 210.653H252.82V293.756H278.195V210.653Z" fill="#E6E6E6"/>
<path d="M354.255 210.653H264.713V291.776H354.255V210.653Z" fill="#EBEBEB"/>
<path d="M280.172 293.756H264.713V284.215H296.378L280.172 293.756Z" fill="#EBEBEB"/>
<path d="M342.265 220.006H276.703V261.799H342.265V220.006Z" fill="#FAFAFA"/>
<path d="M342.265 266.055H276.703V285.944H342.265V266.055Z" fill="#FAFAFA"/>
<path d="M315.594 222.138H303.374C302.44 222.136 301.545 221.729 300.885 221.007C300.226 220.285 299.855 219.306 299.855 218.286H319.145C319.145 218.794 319.053 219.297 318.874 219.767C318.696 220.236 318.434 220.662 318.103 221.02C317.773 221.378 317.382 221.661 316.951 221.853C316.52 222.045 316.059 222.142 315.594 222.138Z" fill="#EBEBEB"/>
<path d="M315.594 268.178H303.374C302.441 268.178 301.546 267.773 300.886 267.052C300.226 266.332 299.855 265.354 299.855 264.335H319.145C319.145 264.842 319.053 265.345 318.874 265.814C318.695 266.282 318.433 266.708 318.103 267.065C317.773 267.423 317.381 267.705 316.95 267.896C316.52 268.087 316.059 268.183 315.594 268.178Z" fill="#EBEBEB"/>
<path d="M257.848 210.653H232.473V293.756H257.848V210.653Z" fill="#E6E6E6"/>
<path d="M242.397 293.756H257.849V284.215H226.191L242.397 293.756Z" fill="#EBEBEB"/>
<path d="M181.797 210.653H156.422V293.756H181.797V210.653Z" fill="#E6E6E6"/>
<path d="M257.857 210.653H168.314V291.776H257.857V210.653Z" fill="#EBEBEB"/>
<path d="M183.766 293.756H168.314V284.215H199.972L183.766 293.756Z" fill="#EBEBEB"/>
<path d="M245.866 220.006H180.305V261.799H245.866V220.006Z" fill="#FAFAFA"/>
<path d="M245.866 266.055H180.305V285.944H245.866V266.055Z" fill="#FAFAFA"/>
<path d="M219.186 222.138H206.974C206.039 222.136 205.143 221.729 204.483 221.008C203.822 220.286 203.449 219.307 203.447 218.286H222.712C222.712 219.308 222.341 220.288 221.679 221.01C221.018 221.733 220.121 222.138 219.186 222.138Z" fill="#EBEBEB"/>
<path d="M219.186 268.178H206.974C206.04 268.178 205.144 267.773 204.483 267.053C203.822 266.332 203.449 265.355 203.447 264.335H222.712C222.712 264.84 222.621 265.341 222.444 265.808C222.266 266.274 222.006 266.699 221.679 267.056C221.351 267.413 220.962 267.695 220.535 267.888C220.107 268.081 219.648 268.179 219.186 268.178Z" fill="#EBEBEB"/>
<path d="M168.577 210.653L354.256 210.653V207.168L168.577 207.168V210.653Z" fill="#F0F0F0"/>
<path d="M168.576 207.159H156.422V210.644H168.576V207.159Z" fill="#E0E0E0"/>
<path d="M70.1428 215.347C68.9864 182.791 67.7562 150.422 70.2822 134.09L74.3829 130.919C74.3829 130.919 73.4808 133.956 73.0051 183.839C72.5294 233.722 71.9471 207.938 72.4474 215.347H70.1428Z" fill="#E6E6E6"/>
<path d="M76.7703 99.8851C83.1099 81.8418 97.8806 64.4168 113.922 57.2855C120.221 54.4903 111.15 116.029 88.3096 119.998C77.1557 121.933 73.6784 153.146 71.8002 168.107C71.1605 138.632 70.4306 117.928 76.7703 99.8851Z" fill="#E6E6E6"/>
<path d="M75.4162 145.692C79.8778 137.969 87.1688 127.147 97.8224 127.138C109.895 127.138 99.3314 148.854 85.1349 155.806C78.2047 159.193 72.4227 169.944 70.9219 176.681C71.0531 163.018 70.9547 153.414 75.4162 145.692Z" fill="#E6E6E6"/>
<path d="M64.558 122.345C56.7995 107.33 39.511 92.2254 21.0908 85.3539C13.8654 82.6662 13.1518 127.138 52.1084 137.781C64.6975 141.222 69.7413 165.554 72.3493 177.792C72.1443 154.024 72.2837 137.36 64.558 122.345Z" fill="#E6E6E6"/>
<path d="M68.8057 157.948C63.8849 148.38 50.4182 143.703 38.3294 144.599C33.589 144.949 33.0641 164.586 59.4643 172.175C67.4689 174.477 70.7002 189.877 72.3651 197.672C72.2257 182.531 73.7429 167.525 68.8057 157.948Z" fill="#E6E6E6"/>
<path d="M69.3159 107.393C65.4694 94.0082 54.1433 82.0122 43.7522 77.0579C39.6515 75.1139 38.4131 97.3051 60.729 119.03C67.4952 125.624 69.6275 144.823 70.7347 154.552C71.235 137.181 73.1623 120.777 69.3159 107.393Z" fill="#E6E6E6"/>
<path d="M71.3496 228.696C63.2302 228.696 56.5215 228.051 56.0622 216.055L54.709 200.314H87.9984L86.6451 216.055C86.1777 228.051 79.4689 228.696 71.3496 228.696Z" fill="#F0F0F0"/>
<path d="M88.12 206.801H54.5846L53.625 199.428H89.0795L88.12 206.801Z" fill="#F0F0F0"/>
<path d="M205.966 334.214C293.788 334.214 364.982 329.673 364.982 324.072C364.982 318.471 293.788 313.931 205.966 313.931C118.143 313.931 46.9492 318.471 46.9492 324.072C46.9492 329.673 118.143 334.214 205.966 334.214Z" fill="#F5F5F5"/>
<path d="M60.4305 38.6328L59.6113 38.6764L60.4149 56.6893L61.2341 56.6457L60.4305 38.6328Z" fill="#2A8BE9"/>
<path d="M61.4949 62.738L60.6758 62.7816L61.0706 71.6315L61.8898 71.5879L61.4949 62.738Z" fill="#2A8BE9"/>
<path d="M318.113 221.475H72.0141C71.6368 221.473 71.2748 221.312 71.0041 221.024C70.7335 220.737 70.5752 220.346 70.5625 219.934L61.7378 21.9427C61.7289 21.7285 61.7599 21.5146 61.8289 21.3138C61.8979 21.1131 62.0034 20.9297 62.1391 20.7748C62.2748 20.6199 62.4378 20.4966 62.6183 20.4125C62.7989 20.3283 62.9932 20.2851 63.1895 20.2853H309.304C309.678 20.2846 310.037 20.4403 310.309 20.7202C310.58 21.0002 310.743 21.3832 310.764 21.7904L319.589 219.854C319.592 220.067 319.556 220.279 319.483 220.476C319.411 220.674 319.302 220.854 319.164 221.005C319.027 221.156 318.863 221.276 318.682 221.357C318.502 221.437 318.308 221.478 318.113 221.475Z" fill="#2A8BE9"/>
<path opacity="0.8" d="M73.3926 216.709L64.855 25.1501C64.8462 24.9355 64.8771 24.7211 64.946 24.5199C65.0149 24.3187 65.1202 24.1347 65.2558 23.9791C65.3914 23.8235 65.5544 23.6994 65.7349 23.6143C65.9155 23.5291 66.11 23.4848 66.3066 23.4838H306.451C306.825 23.4833 307.185 23.6405 307.455 23.9226C307.725 24.2046 307.886 24.5898 307.903 24.9978L316.44 216.557C316.45 216.772 316.42 216.987 316.352 217.189C316.283 217.39 316.178 217.575 316.042 217.731C315.906 217.887 315.743 218.011 315.562 218.095C315.381 218.18 315.186 218.224 314.989 218.223H74.8443C74.471 218.222 74.1125 218.064 73.8425 217.782C73.5725 217.5 73.4115 217.117 73.3926 216.709Z" fill="white"/>
<path d="M133.712 207.518C133.522 207.516 133.339 207.435 133.2 207.292C133.062 207.149 132.978 206.955 132.966 206.747L125.314 35.0408C125.299 34.9283 125.307 34.8137 125.335 34.7045C125.364 34.5952 125.413 34.4937 125.479 34.4063C125.546 34.319 125.628 34.2478 125.721 34.1973C125.814 34.1468 125.916 34.1181 126.02 34.1131C126.124 34.1081 126.228 34.1268 126.324 34.1682C126.421 34.2095 126.509 34.2725 126.582 34.3531C126.656 34.4337 126.713 34.5301 126.75 34.6362C126.787 34.7423 126.804 34.8557 126.798 34.9691L134.458 206.666C134.463 206.774 134.448 206.881 134.414 206.981C134.381 207.082 134.329 207.175 134.263 207.254C134.197 207.333 134.117 207.397 134.028 207.442C133.939 207.487 133.843 207.513 133.745 207.518H133.712Z" fill="white"/>
<path d="M255.241 207.518C255.051 207.516 254.868 207.435 254.73 207.292C254.591 207.149 254.507 206.955 254.495 206.747L246.843 35.0408C246.829 34.9283 246.836 34.8137 246.864 34.7045C246.893 34.5952 246.942 34.4937 247.008 34.4063C247.075 34.319 247.157 34.2478 247.25 34.1973C247.344 34.1468 247.445 34.1181 247.549 34.1131C247.653 34.1081 247.757 34.1268 247.854 34.1682C247.951 34.2095 248.039 34.2725 248.112 34.3531C248.185 34.4337 248.242 34.5301 248.279 34.6362C248.316 34.7423 248.333 34.8557 248.328 34.9691L255.996 206.666C256 206.774 255.985 206.881 255.952 206.981C255.918 207.082 255.867 207.175 255.801 207.254C255.734 207.333 255.655 207.397 255.566 207.442C255.477 207.487 255.38 207.513 255.282 207.518H255.241Z" fill="white"/>
<path d="M194.484 207.518C194.293 207.516 194.111 207.435 193.972 207.292C193.834 207.149 193.75 206.955 193.738 206.747L186.078 35.0408C186.063 34.9283 186.07 34.8137 186.099 34.7045C186.127 34.5952 186.176 34.4937 186.243 34.4063C186.309 34.319 186.392 34.2478 186.485 34.1973C186.578 34.1468 186.68 34.1181 186.784 34.1131C186.888 34.1081 186.991 34.1268 187.088 34.1682C187.185 34.2095 187.273 34.2725 187.346 34.3531C187.419 34.4337 187.476 34.5301 187.514 34.6362C187.551 34.7423 187.567 34.8557 187.562 34.9691L195.214 206.666C195.219 206.773 195.205 206.88 195.173 206.981C195.14 207.081 195.09 207.174 195.024 207.253C194.959 207.332 194.879 207.396 194.791 207.442C194.702 207.487 194.606 207.513 194.509 207.518H194.484Z" fill="white"/>
<path d="M301.628 52.7347H73.5237C73.4196 52.7466 73.3145 52.7346 73.215 52.6993C73.1155 52.664 73.0239 52.6063 72.9462 52.5298C72.8685 52.4534 72.8063 52.3599 72.7638 52.2555C72.7212 52.1511 72.6992 52.0382 72.6992 51.9239C72.6992 51.8096 72.7212 51.6967 72.7638 51.5923C72.8063 51.4879 72.8685 51.3945 72.9462 51.318C73.0239 51.2416 73.1155 51.1838 73.215 51.1485C73.3145 51.1132 73.4196 51.1012 73.5237 51.1131H301.628C301.732 51.1012 301.838 51.1132 301.937 51.1485C302.037 51.1838 302.128 51.2416 302.206 51.318C302.284 51.3945 302.346 51.4879 302.388 51.5923C302.431 51.6967 302.453 51.8096 302.453 51.9239C302.453 52.0382 302.431 52.1511 302.388 52.2555C302.346 52.3599 302.284 52.4534 302.206 52.5298C302.128 52.6063 302.037 52.664 301.937 52.6993C301.838 52.7346 301.732 52.7466 301.628 52.7347Z" fill="white"/>
<path d="M80.3949 42.7005C80.9256 42.4684 81.4987 42.375 82.0683 42.4279C82.6379 42.4808 83.1883 42.6785 83.6755 43.0052C84.4956 43.5785 84.9959 44.7969 86.0293 45.0657C87.2021 45.3255 87.5629 44.2773 88.3913 43.6771C89.441 42.9156 91.0403 43.256 92.2131 43.3545C95.3242 43.6054 98.4325 43.904 101.538 44.2504C104.605 44.573 107.705 45.1463 110.765 44.4923C111.823 44.2684 111.372 42.5035 110.322 42.7005C107.189 43.3725 103.867 42.6378 100.726 42.3064C97.585 41.9749 94.4193 41.6613 91.2535 41.4105C90.1724 41.2646 89.075 41.3934 88.0468 41.7867C87.5618 42.0217 87.1263 42.3632 86.7674 42.7901C86.6362 42.9335 86.505 43.2291 86.2917 43.1933C86.0785 43.1575 85.8406 42.6289 85.7586 42.5214C85.0452 41.6416 84.1061 41.0165 83.0633 40.7274C82.0205 40.4382 80.9222 40.4983 79.911 40.8998C78.9187 41.3298 79.3451 43.0947 80.3539 42.6916L80.3949 42.7005Z" fill="white"/>
<path d="M135.772 45.3882C137.018 44.3669 138.896 43.0052 139.921 45.0478C140.438 46.0691 140.938 47.2965 142.226 47.0815C143.514 46.8664 144.367 45.1195 145.269 44.2952C146.614 43.0499 147.975 42.6826 149.55 43.686C150.776 44.6543 152.172 45.3345 153.651 45.6839C155.069 45.8767 156.508 45.625 157.8 44.9582C158.543 44.497 159.358 44.193 160.203 44.0623C161.1 44.1378 161.993 44.2664 162.877 44.4475C164.79 44.5283 166.704 44.3294 168.569 43.8562C169.627 43.6412 169.176 41.8763 168.118 42.0645C166.093 42.5903 164 42.7207 161.934 42.4497C161.184 42.2601 160.412 42.1996 159.646 42.2705C158.923 42.4107 158.222 42.661 157.563 43.0141C155.849 43.8294 154.192 44.2236 152.396 43.3546C151.002 42.6826 149.935 41.4373 148.361 41.1865C147.053 41.0418 145.746 41.4632 144.719 42.3601C144.135 42.8568 143.587 43.4019 143.079 43.9906C142.856 44.3084 142.612 44.6078 142.349 44.8865C141.939 45.218 141.906 45.1822 141.66 44.6894C141.061 43.4621 140.487 42.4587 139.142 42.163C137.543 41.8136 136.165 42.7633 134.943 43.7667C134.123 44.4655 134.943 46.0512 135.763 45.3434L135.772 45.3882Z" fill="white"/>
<path d="M198.585 44.8866C199.561 44.3849 200.553 43.928 201.57 43.5338C202.562 43.0566 203.616 42.7543 204.695 42.6379C205.638 42.6379 206.466 43.2292 207.368 43.4442C208.062 43.6132 208.787 43.5315 209.435 43.2113C210.026 42.9156 210.632 42.19 211.272 42.0735C211.912 41.957 212.617 42.8798 213.249 43.1934C213.888 43.4852 214.59 43.5752 215.274 43.4532C215.906 43.3725 216.833 43.0142 217.423 43.4532C218.014 43.8922 218.137 44.6716 218.727 45.0568C218.98 45.224 219.268 45.3183 219.564 45.3308C219.859 45.3433 220.153 45.2737 220.417 45.1285C221.007 44.8149 221.327 44.2326 221.819 43.7667C222.541 43.1038 223.377 43.4711 224.206 43.6861C224.948 43.9197 225.725 43.9987 226.494 43.919C227.355 43.7936 228.356 43.1934 229.225 43.3815C230.668 43.6951 231.415 45.3614 233.022 44.5014C233.99 43.9817 233.145 42.405 232.202 42.9246C231.792 43.1396 230.603 42.0287 230.209 41.8137C229.503 41.5155 228.729 41.4654 227.995 41.6703C227.123 41.9863 226.206 42.123 225.288 42.0735C224.521 41.8565 223.743 41.683 222.959 41.5539C222.265 41.4894 221.572 41.6992 221.007 42.1452C220.687 42.405 219.998 43.5607 219.58 43.4621C219.392 43.4621 219.088 42.7365 218.973 42.5662C218.786 42.2912 218.555 42.0546 218.293 41.8674C217.717 41.5157 217.052 41.3774 216.398 41.4733C215.669 41.6719 214.914 41.7295 214.167 41.6435C213.462 41.4195 212.994 40.6669 212.289 40.3982C210.698 39.7979 209.935 41.2224 208.574 41.6614C207.696 41.9391 206.794 41.2582 205.966 41.0163C205.108 40.77 204.207 40.77 203.35 41.0163C201.424 41.5874 199.553 42.3615 197.765 43.3277C196.797 43.8294 197.641 45.4062 198.585 44.9045V44.8866Z" fill="white"/>
<path d="M254.478 44.3938L258.948 43.0052C259.653 42.7812 260.367 42.5124 261.08 42.3422C261.78 42.2256 262.496 42.3675 263.114 42.7454C264.327 43.151 265.597 43.3089 266.862 43.2112C268.355 43.2112 269.839 43.2112 271.332 43.1485L289.621 42.9066C289.838 42.9066 290.047 42.8123 290.201 42.6442C290.355 42.4762 290.441 42.2484 290.441 42.0108C290.441 41.7731 290.355 41.5453 290.201 41.3773C290.047 41.2093 289.838 41.1149 289.621 41.1149L270.946 41.3657C269.478 41.3657 268.01 41.4195 266.542 41.4284C265.818 41.4582 265.092 41.4072 264.377 41.2761C263.705 41.1149 263.139 40.7028 262.491 40.5057C261.269 40.1383 259.874 40.8551 258.718 41.2224L254.06 42.6737C253.952 42.7055 253.851 42.7601 253.763 42.8345C253.674 42.9088 253.6 43.0015 253.545 43.1072C253.489 43.2128 253.453 43.3294 253.439 43.4502C253.424 43.5711 253.432 43.6938 253.461 43.8115C253.49 43.9291 253.54 44.0394 253.608 44.1359C253.676 44.2325 253.761 44.3134 253.858 44.3741C253.955 44.4349 254.061 44.4742 254.172 44.4899C254.283 44.5055 254.395 44.4973 254.503 44.4655L254.478 44.3938Z" fill="white"/>
<path opacity="0.3" d="M135.066 115.474L95.4615 117.803C93.3178 103.225 92.2619 88.481 92.3039 73.7163L130.998 72.1127C131.613 86.6379 132.971 101.114 135.066 115.474Z" fill="#2A8BE9"/>
<path d="M135.969 113.494L96.3644 115.823C94.0972 101.482 92.7271 86.9886 92.2637 72.444L131.868 70.1057C132.494 84.6406 133.863 99.1258 135.969 113.494Z" fill="#2A8BE9"/>
<path opacity="0.3" d="M184.947 131.376L145.129 128.751V85.6406L184.947 88.2656V131.376Z" fill="#2A8BE9"/>
<path d="M184.423 130.408L144.613 127.783L145.081 84.4222L184.89 87.0382L184.423 130.408Z" fill="white"/>
<path opacity="0.3" d="M222.903 122.928L262.704 121.503C263.688 111.496 259.358 86.3483 256.963 77.4073L218.359 80.095C221.665 95.9523 223.083 110.878 222.903 122.928Z" fill="#2A8BE9"/>
<path d="M223.583 121.503L262.13 119.335C263.114 109.337 260.563 92.9511 257.685 75.9829L218.121 78.7243C221.385 94.5995 223.764 109.453 223.583 121.503Z" fill="#2A8BE9"/>
<path opacity="0.3" d="M113.751 189.573L154.381 185.093C154.274 174.97 149.509 151.462 146.688 142.655L108.371 147.6C112.472 163.296 112.619 177.523 113.751 189.573Z" fill="#2A8BE9"/>
<path d="M114.71 188.955L153.88 184.305C154.364 174.235 151.001 157.975 147.319 141.168L108.051 146.265C111.208 161.997 114.284 176.932 114.71 188.955Z" fill="#2A8BE9"/>
<path opacity="0.3" d="M212.527 141.284L252.074 149.347C255.043 139.922 255.806 114.613 255.232 105.449L216.628 98.8458C216.669 114.954 215.078 129.7 212.527 141.284Z" fill="#2A8BE9"/>
<path d="M213.455 140.075L251.879 147.152C254.856 137.728 255.61 121.306 256.168 104.248L216.58 97.4752C216.629 113.583 216.039 128.491 213.455 140.075Z" fill="white"/>
<path d="M306.547 101.032C307.367 101.928 307.99 102.734 308.671 103.612C309.352 104.49 310.008 105.341 310.648 106.228C311.944 108.02 313.174 109.811 314.347 111.693C315.519 113.574 316.635 115.5 317.627 117.543C318.688 119.593 319.617 121.722 320.407 123.913L320.711 124.746L320.785 124.952L320.883 125.266L321.063 125.875C321.154 126.269 321.236 126.645 321.31 127.022C321.383 127.398 321.424 127.738 321.465 128.088C321.594 129.367 321.635 130.654 321.588 131.94C321.495 134.266 321.256 136.583 320.875 138.874C320.143 143.284 319.087 147.622 317.717 151.847L313.403 150.754C313.723 146.543 314.018 142.243 314.125 138.104C314.191 136.097 314.161 134.087 314.035 132.083C313.978 131.203 313.86 130.328 313.682 129.467L313.559 128.939L313.403 128.553L312.936 127.523C311.25 123.949 309.289 120.538 307.072 117.328C305.957 115.671 304.784 114.049 303.603 112.436C303.012 111.621 302.405 110.824 301.798 110.035L299.994 107.751L306.547 101.032Z" fill="#B65B52"/>
<path d="M313.927 148.989L310.941 152.491L316.781 156.254C316.781 156.254 318.798 153.325 318.011 150.323L313.927 148.989Z" fill="#B55B52"/>
<path d="M307.055 157.67L312.738 159.847L316.773 156.255L310.934 152.492L307.055 157.67Z" fill="#B55B52"/>
<path d="M323.424 172.022L285.887 163.063C287.76 149.206 290.5 135.506 294.088 122.058L331.634 131.017C328.194 144.506 325.453 158.196 323.424 172.022Z" fill="#2A8BE9"/>
<path d="M329.343 132.989L292.518 121.012L281.553 161.24L318.379 173.217L329.343 132.989Z" fill="white"/>
<path d="M285.272 74.1551C285.272 74.6747 284.977 75.051 284.665 75.051C284.353 75.051 284.124 74.612 284.148 74.0924C284.173 73.5728 284.444 73.1965 284.755 73.1965C285.067 73.1965 285.297 73.6355 285.272 74.1551Z" fill="#263238"/>
<path d="M285.017 75.0869C284.382 76.6507 283.554 78.1126 282.557 79.432C282.87 79.7005 283.234 79.8902 283.623 79.9878C284.011 80.0853 284.414 80.0883 284.804 79.9964L285.017 75.0869Z" fill="#A02724"/>
<path d="M287.158 71.351C287.226 71.3356 287.287 71.2943 287.331 71.2345C287.383 71.1774 287.412 71.1001 287.412 71.0195C287.412 70.9389 287.383 70.8616 287.331 70.8045C286.992 70.5016 286.592 70.2908 286.165 70.1896C285.737 70.0883 285.293 70.0995 284.87 70.2222C284.835 70.2344 284.802 70.254 284.774 70.2801C284.746 70.3061 284.723 70.3379 284.706 70.3737C284.69 70.4095 284.679 70.4486 284.677 70.4887C284.674 70.5288 284.678 70.5692 284.69 70.6074C284.701 70.6458 284.719 70.6813 284.743 70.712C284.766 70.7427 284.796 70.7679 284.828 70.7862C284.861 70.8046 284.897 70.8156 284.934 70.8188C284.97 70.8219 285.007 70.817 285.042 70.8045C285.381 70.7068 285.735 70.6998 286.077 70.7841C286.418 70.8683 286.736 71.0413 287.002 71.2883C287.048 71.3242 287.102 71.3459 287.158 71.351Z" fill="#263238"/>
<path d="M299.541 81.6088C298.639 86.3301 298.057 92.8611 301.034 96.0057C301.034 96.0057 299.804 100.79 291.775 100.79C282.958 100.79 287.584 96.597 287.584 96.597C291.266 95.3517 291.291 90.7916 290.495 87.1274L299.541 81.6088Z" fill="#B55B52"/>
<path d="M280.867 317.819C280.113 317.819 279.383 317.703 279.137 317.335C279.073 317.237 279.039 317.12 279.039 317C279.039 316.879 279.073 316.762 279.137 316.664C279.184 316.574 279.248 316.496 279.324 316.434C279.4 316.372 279.487 316.328 279.58 316.305C280.564 316.019 282.614 317.3 282.696 317.353C282.723 317.368 282.744 317.392 282.757 317.421C282.77 317.45 282.775 317.483 282.77 317.515C282.762 317.545 282.748 317.572 282.728 317.594C282.708 317.616 282.683 317.632 282.655 317.64C282.065 317.755 281.467 317.815 280.867 317.819ZM279.949 316.565C279.859 316.555 279.768 316.555 279.678 316.565C279.563 316.594 279.463 316.671 279.399 316.78C279.301 316.968 279.334 317.067 279.399 317.12C279.67 317.533 281.162 317.542 282.261 317.371C281.546 316.94 280.76 316.666 279.949 316.565Z" fill="#2A8BE9"/>
<path d="M282.655 317.64H282.597C281.884 317.291 280.49 315.893 280.604 315.167C280.604 314.997 280.752 314.782 281.129 314.737C281.275 314.712 281.424 314.723 281.566 314.768C281.707 314.813 281.838 314.891 281.949 314.997C282.687 315.669 282.827 317.407 282.835 317.479C282.833 317.533 282.813 317.584 282.778 317.622C282.759 317.634 282.739 317.642 282.718 317.645C282.697 317.648 282.675 317.646 282.655 317.64ZM281.244 315.024H281.154C280.908 315.024 280.891 315.158 280.883 315.194C280.809 315.633 281.761 316.726 282.482 317.201C282.422 316.472 282.159 315.781 281.728 315.221C281.593 315.095 281.422 315.025 281.244 315.024Z" fill="#2A8BE9"/>
<path d="M289.389 317.488H283.484L283.074 302.562H288.979L289.389 317.488Z" fill="#B55B52"/>
<path d="M283.287 316.744H289.733C289.85 316.743 289.963 316.787 290.054 316.867C290.145 316.947 290.209 317.058 290.233 317.183L291.332 322.908C291.359 323.048 291.357 323.193 291.326 323.332C291.295 323.471 291.235 323.601 291.151 323.711C291.068 323.821 290.962 323.909 290.843 323.969C290.724 324.028 290.594 324.058 290.463 324.055C288.142 324.055 284.787 323.866 281.86 323.866C278.448 323.866 276.291 324.073 272.28 324.073C269.861 324.073 269.221 321.385 270.238 321.152C274.864 320.05 277.841 319.934 281.86 317.246C282.283 316.936 282.777 316.762 283.287 316.744Z" fill="#263238"/>
<path d="M303.406 96.7764C309.065 96.848 316.979 112.526 316.979 112.526L308.203 122.282C304.335 120.03 301.209 116.512 299.264 112.222C295.918 104.768 297.624 96.7137 303.406 96.7764Z" fill="#2A8BE9"/>
<path opacity="0.3" d="M303.406 96.7764C309.065 96.848 316.979 112.526 316.979 112.526L308.203 122.282C304.335 120.03 301.209 116.512 299.264 112.222C295.918 104.768 297.624 96.7137 303.406 96.7764Z" fill="black"/>
<path d="M276.562 103.925C275.275 110.886 274.348 125.194 277.522 153.513H309.081C309.327 148.926 307.293 128.903 309.991 107.401C310.161 106.028 310.068 104.632 309.72 103.3C309.371 101.968 308.774 100.729 307.966 99.6614C307.158 98.5937 306.156 97.7201 305.024 97.0955C303.892 96.471 302.654 96.1091 301.388 96.0325H301.035C296.567 95.7546 292.087 95.7546 287.618 96.0325C286.142 96.1848 284.682 96.4178 283.386 96.6686C281.714 96.9919 280.169 97.8566 278.952 99.1505C277.736 100.445 276.903 102.108 276.562 103.925Z" fill="#2A8BE9"/>
<path opacity="0.2" d="M276.562 103.925C275.275 110.886 274.348 125.194 277.522 153.513H309.081C309.327 148.926 307.293 128.903 309.991 107.401C310.161 106.028 310.068 104.632 309.72 103.3C309.371 101.968 308.774 100.729 307.966 99.6614C307.158 98.5937 306.156 97.7201 305.024 97.0955C303.892 96.471 302.654 96.1091 301.388 96.0325H301.035C296.567 95.7546 292.087 95.7546 287.618 96.0325C286.142 96.1848 284.682 96.4178 283.386 96.6686C281.714 96.9919 280.169 97.8566 278.952 99.1505C277.736 100.445 276.903 102.108 276.562 103.925Z" fill="black"/>
<path opacity="0.2" d="M283.821 118.269L279.572 115.115C275.472 116.575 275.258 120.929 275.472 127.218C278.998 126.251 283.058 122.596 283.821 118.269Z" fill="black"/>
<path opacity="0.2" d="M283.074 302.562L283.287 310.258H289.192L288.979 302.562H283.074Z" fill="black"/>
<path d="M301.182 73.7608C300.509 80.1216 300.411 83.8843 297.303 87.0289C292.628 91.7502 285.566 88.5161 284.484 82.0836C283.508 76.2961 284.771 66.8535 290.61 64.5689C291.884 64.0518 293.259 63.903 294.602 64.137C295.944 64.371 297.208 64.9799 298.272 65.9046C299.335 66.8293 300.162 68.0385 300.672 69.4149C301.182 70.7914 301.357 72.2883 301.182 73.7608Z" fill="#B55B52"/>
<path d="M288.748 76.4843C286.936 76.9323 286.116 72.2647 287.928 70.4729C286.288 69.577 283.918 68.278 283.13 66.3249C282.22 64.0852 284.68 61.3975 286.804 61.514C286.116 60.0179 287.625 56.0222 291.955 57.5273C296.285 59.0324 298.319 61.3617 298.319 61.3617C298.319 61.3617 299.746 56.1835 302.756 60.3673C305.422 64.0763 304.396 67.2567 304.396 67.2567C304.396 67.2567 308.366 71.3688 307.341 74.4238C306.768 76.211 305.596 77.6937 304.06 78.5718C304.06 78.5718 304.659 85.7389 299.836 87.5307C295.014 89.3224 291.971 85.7389 292.381 83.6425C289.265 83.7589 286.083 79.2795 288.748 76.4843Z" fill="#263238"/>
<path d="M290.849 76.0097C290.63 77.587 289.952 79.0451 288.913 80.1666C287.527 81.6269 286.248 80.5787 286.141 78.6884C286.043 76.9862 286.65 74.2089 288.273 73.4206C289.897 72.6322 291.07 74.1104 290.849 76.0097Z" fill="#B55B52"/>
<path d="M339.483 309.353L334.234 311.414L329.018 296.658L334.266 294.607L339.483 309.353Z" fill="#B55B52"/>
<path d="M331.905 312.345C331.315 312.856 330.675 313.241 330.265 313.134C330.162 313.095 330.072 313.023 330.007 312.927C329.943 312.831 329.907 312.715 329.904 312.596C329.892 312.493 329.899 312.389 329.924 312.289C329.95 312.189 329.993 312.095 330.052 312.014C330.667 311.118 332.996 310.742 333.095 310.733C333.123 310.728 333.152 310.732 333.178 310.745C333.204 310.757 333.227 310.778 333.242 310.804C333.257 310.832 333.264 310.863 333.264 310.894C333.264 310.925 333.257 310.956 333.242 310.984C332.832 311.478 332.385 311.933 331.905 312.345ZM330.478 311.987C330.401 312.045 330.334 312.118 330.282 312.202C330.211 312.301 330.179 312.427 330.191 312.551C330.191 312.766 330.298 312.82 330.355 312.838C330.798 312.981 331.996 311.987 332.75 311.109C331.948 311.236 331.176 311.535 330.478 311.987Z" fill="#2A8BE9"/>
<path d="M333.208 311.001C333.192 311.007 333.175 311.007 333.159 311.001C332.404 311.207 330.518 311.055 330.198 310.401C330.124 310.249 330.091 310.007 330.37 309.711C330.47 309.605 330.588 309.523 330.718 309.469C330.848 309.415 330.986 309.391 331.125 309.398C332.084 309.398 333.175 310.697 333.224 310.75C333.236 310.772 333.242 310.797 333.242 310.822C333.242 310.847 333.236 310.872 333.224 310.894C333.229 310.912 333.229 310.931 333.227 310.949C333.224 310.968 333.217 310.986 333.208 311.001ZM330.625 309.899C330.599 309.915 330.577 309.937 330.559 309.962C330.379 310.15 330.428 310.249 330.444 310.285C330.633 310.67 331.994 310.894 332.831 310.786C332.376 310.244 331.776 309.874 331.117 309.729C330.939 309.718 330.764 309.778 330.625 309.899Z" fill="#2A8BE9"/>
<path d="M333.232 309.837L338.301 305.483C338.395 305.404 338.51 305.362 338.629 305.362C338.747 305.362 338.863 305.404 338.957 305.483L343.312 309.066C343.415 309.15 343.499 309.258 343.557 309.384C343.615 309.509 343.645 309.647 343.645 309.788C343.645 309.928 343.615 310.066 343.557 310.192C343.499 310.317 343.415 310.425 343.312 310.509C341.458 312.041 337.882 315.194 335.701 317.309C333.15 319.79 335.135 318.133 332.141 321.044C330.329 322.836 328.115 321.367 328.721 320.462C331.461 316.323 332.043 313.859 332.404 311.216C332.504 310.656 332.802 310.161 333.232 309.837Z" fill="#263238"/>
<path d="M247.028 119.926L244.723 114.506L238.449 118.743C238.449 118.743 240.516 123.357 244.797 122.856L247.028 119.926Z" fill="#B55B52"/>
<path d="M238.828 113.037L237.425 114.354C237.211 114.556 237.037 114.804 236.916 115.084C236.795 115.364 236.729 115.668 236.723 115.977C236.717 116.287 236.77 116.594 236.88 116.879C236.99 117.164 237.153 117.421 237.36 117.633L238.451 118.744L244.725 114.506L240.96 112.714C240.613 112.544 240.229 112.484 239.852 112.541C239.474 112.598 239.12 112.77 238.828 113.037Z" fill="#B55B52"/>
<path opacity="0.2" d="M329.018 296.658L331.708 304.264L336.957 302.213L334.266 294.607L329.018 296.658Z" fill="black"/>
<path d="M288.717 153.513C288.717 153.513 298.558 203.029 302.331 221.412C306.432 241.534 328.157 302.732 328.157 302.732L337.687 297.088C337.687 297.088 327.493 249.078 320.046 222.891C317.34 201.246 309.081 153.513 309.081 153.513H288.717Z" fill="#263238"/>
<path d="M325.476 299.668C325.426 299.668 327.427 303.709 327.427 303.709L339.221 298.871L338.286 294.938L325.476 299.668Z" fill="#2A8BE9"/>
<path opacity="0.3" d="M294.539 176.465C301.97 177.549 302.806 206.137 302.667 222.917C302.568 222.389 302.454 221.887 302.363 221.412C300.305 211.369 296.442 192.036 293.342 176.555C293.73 176.428 294.139 176.397 294.539 176.465Z" fill="black"/>
<path d="M277.522 153.513C277.522 153.513 275.012 201.712 275.422 221.368C275.849 241.821 281.106 308.771 281.106 308.771H291.103C291.103 308.771 292.744 243.012 293.416 222.935C294.162 201.04 298.271 153.513 298.271 153.513H277.522Z" fill="#263238"/>
<path d="M279.235 304.417C279.186 304.417 279.744 308.95 279.744 308.95H291.907L292.284 304.91L279.235 304.417Z" fill="#2A8BE9"/>
<path d="M286.026 107.258C284.662 109.911 283.142 112.463 281.475 114.9C279.821 117.305 278.044 119.605 276.152 121.79C274.282 123.967 272.305 126.027 270.28 127.98C268.254 129.933 266.138 131.797 264.235 133.508L263.563 134.117L263.005 134.332C261.647 134.861 260.195 135.036 258.765 134.843C257.591 134.701 256.439 134.394 255.337 133.929C253.49 133.076 251.755 131.958 250.178 130.605C248.721 129.369 247.35 128.015 246.077 126.556C245.454 125.848 244.864 125.105 244.281 124.361C243.699 123.617 243.158 122.865 242.592 122.014L245.831 118.708C247.086 119.729 248.439 120.84 249.793 121.79C251.098 122.764 252.45 123.662 253.844 124.477C255.081 125.223 256.394 125.807 257.756 126.215C258.261 126.365 258.783 126.434 259.306 126.422C259.581 126.425 259.85 126.344 260.085 126.189L258.863 127.013C260.864 124.97 262.677 123.143 264.481 121.216C266.286 119.29 267.983 117.337 269.615 115.321C271.247 113.306 272.806 111.227 274.241 109.05C275.676 106.873 277.005 104.687 278.26 102.448L286.026 107.258Z" fill="#B65B52"/>
<path d="M290.226 105.905C289.66 115.178 279.925 122.927 279.925 122.927L267.295 115.357C267.295 115.357 271.945 104.436 278.211 99.2759C285.961 92.9419 290.652 98.8458 290.226 105.905Z" fill="#2A8BE9"/>
<path opacity="0.2" d="M290.226 105.905C289.66 115.178 279.925 122.927 279.925 122.927L267.295 115.357C267.295 115.357 271.945 104.436 278.211 99.2759C285.961 92.9419 290.652 98.8458 290.226 105.905Z" fill="black"/>
</svg>
