<?xml version="1.0" encoding="utf-8"?>
<!-- Generator: Adobe Illustrator 16.0.0, SVG Export Plug-In . SVG Version: 6.00 Build 0)  -->
<!DOCTYPE svg PUBLIC "-//W3C//DTD SVG 1.1//EN" "http://www.w3.org/Graphics/SVG/1.1/DTD/svg11.dtd">
<svg version="1.1" id="Layer_1" xmlns="http://www.w3.org/2000/svg" xmlns:xlink="http://www.w3.org/1999/xlink" x="0px" y="0px"
	 width="24px" height="24px" viewBox="0 0 24 24" enable-background="new 0 0 24 24" xml:space="preserve">
<g transform="translate(0.000000,512.000000) scale(0.100000,-0.100000)">
	<path fill="#0C4072" d="M15,5004.111v-99.922H7.5H0v-4.111v-4.111h118.066h118.066v4.111v4.111h-5.078h-5.078l0.098,8.037
		l0.146,8.027l2.559,0.967c3.438,1.309,7.891,5.469,9.58,9.004c2.568,5.371,2.08,13.115-1.201,17.949
		c-1.211,1.885-1.357,2.324-0.928,3.877c1.211,4.307-0.967,10.693-4.736,14.033c-2.998,2.656-6.152,3.623-10.791,3.33
		c-4.551-0.283-6.875-1.396-9.873-4.736c-2.949-3.291-3.916-6.24-3.633-11.084c0.244-3.242,0.146-3.818-0.869-5.371
		c-3.672-5.566-3.867-12.725-0.527-19.014c2.08-4.014,6.289-7.305,11.123-8.76c0.732-0.244,0.83-1.064,0.83-8.516v-8.223h-8.232
		h-8.223l-0.098,80.42l-0.146,80.371l-48.145,19.697l-48.149,19.736l-0.142-18.145c-0.098-14.18-0.244-18.096-0.728-17.9
		c-0.293,0.098-19.937,8.125-43.647,17.754s-43.55,17.715-44.131,17.959l-1.113,0.43V5004.111z M161.621,5071.708l31.689-12.92
		l0.146-69.824l0.098-69.775H152.91h-40.649v86.328v86.328l8.857-3.584C125.957,5086.279,144.199,5078.828,161.621,5071.708z
		 M41.274,5084.394c9.629-3.926,17.808-7.217,18.149-7.314c0.435-0.186,0.576-14.951,0.576-71.563v-71.328H41.616H23.228v78.633
		c0,43.262,0.142,78.633,0.288,78.633S31.646,5088.261,41.274,5084.394z M100.889,5060l3.389-1.357l0.146-5.605l0.146-5.615h-6.343
		h-6.289v-4.111v-4.111h6.289h6.294v-9.443v-9.434h-6.294h-6.289v-4.111v-4.111h6.289h6.294v-9.199v-9.189h-6.294h-6.289v-4.111
		v-4.111h6.289h6.294v-11.133v-11.133h-6.294h-6.289v-4.111V4955h6.289h6.294v-10.41v-10.4H86.133H67.744v2.666v2.656h5.806h5.806
		v4.111v4.121H73.55h-5.806v10.156v10.166h5.806h5.806v4.111v4.111H73.55h-5.806v9.922v9.922h5.806h5.806v4.111v4.111H73.55h-5.806
		v9.922v9.922h5.806h5.806v4.111v4.111H73.55h-5.806v10.156v10.166h5.806h5.806v3.867v3.877H73.55h-5.806v6.484v6.533l14.902-6.055
		C90.825,5064.111,99.053,5060.781,100.889,5060z M224.238,4960.615c1.982-0.83,3.574-2.813,3.965-4.99
		c0.244-1.309,0-2.275-1.211-4.639l-1.504-2.91l2.373-2.227c1.357-1.26,2.764-3.047,3.193-4.014
		c1.455-3.535,0.684-7.891-1.836-10.645c-4.746-5.127-13.018-4.063-16.211,2.129c-2.324,4.502-1.211,9.189,3.047,12.822l2.227,1.934
		l-1.543,2.861c-1.309,2.363-1.504,3.145-1.211,4.59c0.381,2.227,1.934,4.209,3.867,5.088
		C221.328,4961.435,222.246,4961.435,224.238,4960.615z M51.777,4915.322v-11.133h-4.116H43.55v10.84v10.889l2.563,0.195
		c1.357,0.098,3.242,0.195,4.116,0.234l1.548,0.098V4915.322z M67.744,4915.322v-11.133h-4.111h-4.116v4.258
		c0,2.324,0.146,7.305,0.342,11.133l0.288,6.865h3.823h3.774V4915.322z M83.711,4915.322v-11.133h-3.867h-3.872v11.133v11.123h3.872
		h3.867V4915.322z M35.322,4914.833v-11.123h-6.045h-6.05v11.123v11.133h6.05h6.045V4914.833z M104.521,4914.833v-11.123h-6.294
		h-6.289v11.123v11.133h6.289h6.294V4914.833z M193.076,4907.333v-3.623h-40.41h-40.405v3.623v3.633h40.405h40.41V4907.333z"/>
	<path fill="#0C4072" d="M125.811,5034.111V5030h7.256h7.266v4.111v4.111h-7.266h-7.256V5034.111z"/>
	<path fill="#0C4072" d="M165.488,5034.111V5030h7.021h7.012v4.111v4.111h-7.012h-7.021V5034.111z"/>
	<path fill="#0C4072" d="M125.811,5016.21v-4.111h7.256h7.266v4.111v4.111h-7.266h-7.256V5016.21z"/>
	<path fill="#0C4072" d="M165.488,5016.21v-4.111h7.021h7.012v4.111v4.111h-7.012h-7.021V5016.21z"/>
	<path fill="#0C4072" d="M125.811,4998.789v-4.111h7.256h7.266v4.111v4.111h-7.266h-7.256V4998.789z"/>
	<path fill="#0C4072" d="M165.488,4998.789v-4.111h7.021h7.012v4.111v4.111h-7.012h-7.021V4998.789z"/>
	<path fill="#0C4072" d="M125.811,4980.888v-4.111h7.256h7.266v4.111V4985h-7.266h-7.256V4980.888z"/>
	<path fill="#0C4072" d="M165.488,4980.888v-4.111h7.021h7.012v4.111V4985h-7.012h-7.021V4980.888z"/>
	<path fill="#0C4072" d="M125.811,4963.466v-4.111h7.256h7.266v4.111v4.111h-7.266h-7.256V4963.466z"/>
	<path fill="#0C4072" d="M165.488,4963.466v-4.111h7.021h7.012v4.111v4.111h-7.012h-7.021V4963.466z"/>
	<path fill="#0C4072" d="M125.811,4945.566v-4.121h7.256h7.266v4.121v4.111h-7.266h-7.256V4945.566z"/>
	<path fill="#0C4072" d="M165.488,4945.566v-4.121h7.021h7.012v4.121v4.111h-7.012h-7.021V4945.566z"/>
	<path fill="#0C4072" d="M30.483,5034.111V5030H37.5h7.017v4.111v4.111H37.5h-7.017V5034.111z"/>
	<path fill="#0C4072" d="M30.483,5016.21v-4.111H37.5h7.017v4.111v4.111H37.5h-7.017V5016.21z"/>
	<path fill="#0C4072" d="M30.483,4998.789v-4.111H37.5h7.017v4.111v4.111H37.5h-7.017V4998.789z"/>
	<path fill="#0C4072" d="M30.483,4980.888v-4.111H37.5h7.017v4.111V4985H37.5h-7.017V4980.888z"/>
	<path fill="#0C4072" d="M30.483,4963.466v-4.111H37.5h7.017v4.111v4.111H37.5h-7.017V4963.466z"/>
	<path fill="#0C4072" d="M30.483,4945.566v-4.121H37.5h7.017v4.121v4.111H37.5h-7.017V4945.566z"/>
</g>
</svg>
