<svg width="644" height="395" viewBox="0 0 644 395" fill="none" xmlns="http://www.w3.org/2000/svg">
<path d="M629.426 255.333L616.721 255.604L610.271 255.711C608.112 255.759 605.943 255.711 603.783 255.769H603.357V255.333L603.299 244.468V243.984H603.783L616.605 244.042C620.885 244.042 625.156 244.148 629.426 244.197H629.698V244.468C629.698 246.308 629.62 248.138 629.572 249.949L629.426 255.333ZM629.426 255.333L629.291 249.862C629.242 248.061 629.184 246.279 629.165 244.497L629.426 244.768C625.156 244.816 620.885 244.923 616.605 244.923L603.783 244.981L604.267 244.497V255.333L603.831 254.907C605.943 254.907 608.054 254.907 610.174 254.956L616.479 255.12L629.426 255.333Z" fill="#EBEBEB"/>
<path d="M615.122 268.997L602.417 269.269L595.957 269.375C593.808 269.375 591.638 269.375 589.479 269.433H589.053V268.997V258.161V257.677H589.537L602.359 257.745C606.629 257.745 610.91 257.851 615.18 257.9H615.452V258.161C615.452 260.001 615.374 261.831 615.326 263.642L615.122 268.997ZM615.122 268.997L614.987 263.526C614.938 261.725 614.88 259.943 614.861 258.161L615.122 258.432C610.852 258.481 606.571 258.587 602.301 258.587L589.479 258.645L589.963 258.161V268.997L589.527 268.571C591.638 268.571 593.749 268.571 595.87 268.62L602.233 268.736L615.122 268.997Z" fill="#EBEBEB"/>
<path d="M643.729 268.997L631.024 269.269L624.574 269.375C622.415 269.375 620.245 269.375 618.086 269.433H617.66V268.997L617.602 258.161V257.677H618.086L630.908 257.745C635.188 257.745 639.459 257.851 643.729 257.9H644V258.161C644 260.001 643.913 261.831 643.874 263.642L643.729 268.997ZM643.729 268.997L643.594 263.526C643.594 261.725 643.487 259.943 643.468 258.161L643.729 258.432C639.459 258.481 635.188 258.587 630.908 258.587L618.086 258.645L618.57 258.161V268.997L618.134 268.571C620.255 268.571 622.356 268.571 624.477 268.62L630.849 268.736L643.729 268.997Z" fill="#EBEBEB"/>
<path d="M263.774 126.39L251.069 126.661L244.619 126.768C242.459 126.768 240.29 126.768 238.131 126.768H237.705V126.332L237.646 115.495V115.011H238.131L250.952 115.069C255.233 115.069 259.503 115.176 263.774 115.224H264.045V115.486C264.045 117.326 263.958 119.146 263.91 120.957L263.774 126.39ZM263.774 126.39L263.639 120.909C263.639 119.108 263.532 117.326 263.513 115.554L263.774 115.815C259.503 115.815 255.233 115.97 250.952 115.97L238.131 116.038L238.615 115.554L238.566 126.39L238.131 125.954C240.242 125.954 242.353 125.954 244.474 126.012L250.846 126.119L263.774 126.39Z" fill="#EBEBEB"/>
<path d="M249.452 140.054L236.746 140.325L230.287 140.432C228.137 140.432 225.968 140.432 223.808 140.48H223.382V140.045L223.305 129.227V128.743H223.789L236.611 128.801C240.881 128.801 245.162 128.908 249.432 128.956H249.703V129.227C249.703 131.067 249.626 132.888 249.578 134.699L249.452 140.054ZM249.452 140.054L249.316 134.573C249.268 132.772 249.21 130.99 249.19 129.218L249.452 129.479C245.181 129.528 240.901 129.634 236.63 129.634L223.808 129.702L224.292 129.218L224.273 140.054L223.837 139.618C225.948 139.618 228.06 139.618 230.18 139.677L236.543 139.783L249.452 140.054Z" fill="#EBEBEB"/>
<path d="M278.079 140.054L265.373 140.325L258.924 140.432C256.764 140.432 254.605 140.432 252.435 140.48H252.009V140.045L251.951 129.227V128.743H252.435L265.257 128.801C269.537 128.801 273.808 128.908 278.079 128.956H278.35V129.227C278.35 131.067 278.263 132.888 278.224 134.699L278.079 140.054ZM278.079 140.054L277.943 134.573C277.943 132.772 277.837 130.99 277.817 129.218L278.079 129.479C273.808 129.528 269.537 129.634 265.257 129.634L252.435 129.702L252.92 129.218L252.871 140.054L252.435 139.618C254.556 139.618 256.658 139.618 258.778 139.677L265.151 139.783L278.079 140.054Z" fill="#EBEBEB"/>
<path d="M54.6851 198.091L41.9796 198.362L35.5203 198.468C33.3704 198.468 31.2012 198.468 29.0417 198.517H28.6543V198.081V187.245V186.76H29.1385L41.9602 186.819C46.2309 186.819 50.5112 186.925 54.7819 186.973H55.0531V187.235C55.0531 189.075 54.9756 190.896 54.9272 192.706L54.6851 198.091ZM54.6851 198.091L54.5495 192.61C54.5495 190.808 54.443 189.026 54.4236 187.254L54.6851 187.516C50.4144 187.564 46.134 187.671 41.8634 187.671L29.0417 187.739L29.5259 187.254L29.4774 198.091L29.0417 197.655C31.1528 197.655 33.2639 197.655 35.3847 197.713L41.7471 197.82L54.6851 198.091Z" fill="#EBEBEB"/>
<path d="M479.798 126.38L467.092 126.651L460.642 126.758C458.483 126.806 456.314 126.758 454.154 126.806H453.728V126.371L453.67 115.534V115.05H454.154L466.976 115.108C471.256 115.108 475.527 115.224 479.798 115.273H480.069V115.534C480.069 117.374 479.991 119.204 479.943 121.006L479.798 126.38ZM479.798 126.38L479.662 120.909C479.613 119.098 479.555 117.316 479.536 115.544L479.798 115.805C475.527 115.854 471.256 115.96 466.976 115.97L454.154 116.028L454.638 115.544L454.59 126.38L454.154 125.945C456.265 125.945 458.376 125.945 460.497 126.003L466.869 126.109L479.798 126.38Z" fill="#EBEBEB"/>
<path d="M627.945 21.1339L615.239 21.405L608.78 21.5115C606.63 21.5115 604.461 21.5115 602.301 21.5697H601.875V21.1339V10.2974V9.81319H602.359L615.181 9.8713C619.452 9.8713 623.732 9.98751 628.003 10.0359H628.274V10.2974C628.274 12.1374 628.196 13.9677 628.148 15.7689L627.945 21.1339ZM627.945 21.1339L627.809 15.6624C627.761 13.8515 627.702 12.0696 627.683 10.2974L627.945 10.5589C623.674 10.5589 619.393 10.7138 615.123 10.7235L602.301 10.7816L602.785 10.2974L602.737 21.1339L602.301 20.6981C604.412 20.6981 606.523 20.6981 608.644 20.7562L615.007 20.8627L627.945 21.1339Z" fill="#EBEBEB"/>
<path d="M642.247 34.7981L629.541 35.0693L623.092 35.1758C620.932 35.2242 618.763 35.1758 616.603 35.2242H616.177V34.7884L616.119 23.952V23.4678H616.603L629.425 23.5259C633.705 23.5259 637.976 23.6421 642.247 23.6905H642.518V23.952C642.518 25.7919 642.431 27.6222 642.382 29.4235L642.247 34.7981ZM642.247 34.7981L642.111 29.3266C642.111 27.5157 642.005 25.7338 641.985 23.9617L642.247 24.2231C637.976 24.2715 633.705 24.3781 629.425 24.3877L616.603 24.4459L617.088 23.9617V34.7981L616.652 34.3623C618.763 34.3623 620.874 34.3623 622.995 34.4204L629.367 34.527L642.247 34.7981Z" fill="#EBEBEB"/>
<path d="M26.0792 21.1436L13.364 21.4147L6.91442 21.5212C4.76456 21.5212 2.59533 21.5212 0.435784 21.5794H0V21.1436V10.3071V9.8229H0.493886L13.3156 9.89068C17.5863 9.89068 21.8569 9.99721 26.1373 10.0456H26.3988V10.3071C26.3988 12.1471 26.3116 13.9774 26.2729 15.7883L26.0792 21.1436ZM26.0792 21.1436L25.9339 15.6721C25.9339 13.8612 25.8274 12.0793 25.808 10.3071L26.0792 10.5686C21.7988 10.6267 17.5282 10.7235 13.2575 10.7332L0.435784 10.7913L0.919987 10.3071L0.861881 21.1436L0.435784 20.7659C2.54691 20.7659 4.64835 20.7659 6.76916 20.7659L13.1413 20.8724L26.0792 21.1436Z" fill="#EBEBEB"/>
<path d="M18.2831 101.773C18.6878 101.524 19.1538 101.392 19.6292 101.392C20.1046 101.392 20.5706 101.524 20.9753 101.773L21.6725 102.17C21.905 102.296 22.1471 102.422 22.3892 102.528C22.8221 102.726 23.1918 103.039 23.4568 103.434C23.7219 103.829 23.8719 104.29 23.8902 104.765L23.9967 108.077L34.8041 107.748L34.7073 104.427C34.6908 103.949 34.8093 103.477 35.0491 103.064C35.2889 102.652 35.6404 102.315 36.0631 102.093C36.5348 101.84 36.9908 101.558 37.4285 101.25C37.8162 100.977 38.2719 100.816 38.7452 100.785C39.2185 100.755 39.6912 100.855 40.111 101.076L43.0162 102.645L48.1294 93.1059L45.2242 91.537C44.8081 91.3113 44.4629 90.9745 44.2269 90.5642C43.9909 90.1538 43.8735 89.686 43.8878 89.2129C43.8976 88.6763 43.8782 88.1397 43.8297 87.6053C43.7861 87.1312 43.8742 86.6543 44.0844 86.2271C44.2946 85.7999 44.6186 85.4391 45.0208 85.1843L47.8486 83.4315L42.1447 74.2413L39.3072 76.0135C38.9044 76.263 38.4399 76.3953 37.966 76.3953C37.4921 76.3953 37.0276 76.263 36.6247 76.0135C36.3923 75.8779 36.1696 75.7423 35.9275 75.6164L35.2205 75.2581C34.7865 75.0615 34.4154 74.7483 34.1487 74.3533C33.882 73.9584 33.7301 73.4972 33.7098 73.0211L33.613 69.6995L22.8443 70.019L22.9508 73.331C22.9606 73.8069 22.8393 74.2764 22.6002 74.688C22.3611 75.0997 22.0134 75.4376 21.5951 75.6649C21.1188 75.919 20.6594 76.2036 20.2199 76.5171C19.8302 76.7906 19.3724 76.9508 18.8971 76.9799C18.4219 77.0089 17.9479 76.9057 17.5278 76.6817L14.6225 75.1225L9.46094 84.6807L12.3662 86.2495C12.7821 86.472 13.1288 86.8048 13.368 87.2114C13.6071 87.618 13.7296 88.0827 13.7219 88.5543C13.7089 89.0939 13.725 89.6338 13.7703 90.1716C13.815 90.6458 13.7274 91.1231 13.5171 91.5505C13.3068 91.9779 12.9822 92.3386 12.5792 92.5926L9.76114 94.3648L15.4651 103.555L18.2831 101.773ZM20.9947 84.6807C21.8223 83.1385 23.0885 81.8763 24.6333 81.0536C26.1781 80.231 27.9322 79.8847 29.6737 80.0587C31.4153 80.2327 33.0662 80.9191 34.4177 82.0312C35.7692 83.1432 36.7607 84.631 37.2668 86.3064C37.773 87.9818 37.7711 89.7697 37.2613 91.4441C36.7516 93.1184 35.7569 94.604 34.4029 95.7132C33.049 96.8223 31.3967 97.5051 29.6547 97.6754C27.9128 97.8456 26.1595 97.4956 24.6165 96.6696C23.5911 96.1207 22.6839 95.375 21.9468 94.4752C21.2097 93.5755 20.6572 92.5392 20.3208 91.4258C19.9844 90.3124 19.8708 89.1436 19.9864 87.9862C20.1021 86.8288 20.4447 85.7056 20.9947 84.6807Z" fill="#EBEBEB"/>
<path d="M535.006 305.371C535.294 305.539 535.528 305.784 535.684 306.078C535.839 306.373 535.91 306.704 535.888 307.037C535.888 307.23 535.888 307.414 535.888 307.598C535.888 307.782 535.888 307.976 535.888 308.16C535.91 308.492 535.839 308.824 535.684 309.118C535.528 309.412 535.294 309.657 535.006 309.826L532.992 310.988L536.779 317.553L538.793 316.391C539.088 316.216 539.428 316.129 539.771 316.141C540.115 316.153 540.447 316.263 540.73 316.459C541.043 316.663 541.366 316.85 541.698 317.021C541.991 317.172 542.236 317.402 542.407 317.683C542.578 317.965 542.668 318.289 542.667 318.619V320.972H550.249V318.648C550.249 318.318 550.339 317.995 550.51 317.713C550.681 317.432 550.926 317.202 551.218 317.05C551.552 316.883 551.875 316.696 552.186 316.488C552.468 316.292 552.801 316.182 553.144 316.17C553.488 316.158 553.827 316.245 554.123 316.42L556.137 317.582L559.924 311.017L557.9 309.845C557.615 309.677 557.383 309.433 557.229 309.141C557.075 308.848 557.005 308.519 557.028 308.189C557.028 308.005 557.028 307.811 557.028 307.627C557.028 307.443 557.028 307.259 557.028 307.066C557.006 306.734 557.076 306.402 557.232 306.108C557.388 305.813 557.622 305.568 557.909 305.4L559.924 304.238L556.137 297.672L554.133 298.834C553.837 299.01 553.498 299.097 553.154 299.085C552.811 299.073 552.478 298.962 552.196 298.766C551.876 298.563 551.547 298.379 551.227 298.205C550.935 298.052 550.69 297.823 550.52 297.541C550.349 297.259 550.259 296.936 550.259 296.607V294.283H542.676V296.607C542.677 296.936 542.588 297.26 542.417 297.542C542.246 297.824 542.001 298.053 541.708 298.205C541.375 298.375 541.052 298.562 540.739 298.766C540.457 298.962 540.124 299.073 539.781 299.085C539.438 299.097 539.098 299.01 538.803 298.834L536.788 297.672L533.002 304.238L535.006 305.371ZM546.443 301.391C547.671 301.391 548.871 301.755 549.892 302.437C550.913 303.119 551.708 304.088 552.178 305.223C552.648 306.357 552.771 307.605 552.532 308.809C552.292 310.013 551.701 311.119 550.833 311.988C549.965 312.856 548.859 313.447 547.654 313.686C546.45 313.926 545.202 313.803 544.068 313.333C542.934 312.863 541.964 312.068 541.282 311.047C540.6 310.026 540.236 308.826 540.236 307.598C540.236 305.952 540.89 304.373 542.054 303.209C543.218 302.045 544.797 301.391 546.443 301.391Z" fill="#EBEBEB"/>
<path d="M568.668 259.478C568.674 265.313 570.409 271.015 573.655 275.864C576.901 280.712 581.511 284.49 586.903 286.719C592.296 288.948 598.228 289.528 603.95 288.386C609.672 287.244 614.927 284.431 619.05 280.304C623.174 276.176 625.982 270.918 627.118 265.195C628.254 259.472 627.668 253.54 625.434 248.15C623.2 242.76 619.418 238.154 614.566 234.913C609.714 231.672 604.01 229.942 598.175 229.942C594.298 229.943 590.459 230.708 586.878 232.193C583.297 233.678 580.043 235.855 577.303 238.597C574.563 241.34 572.39 244.596 570.908 248.179C569.427 251.762 568.665 255.601 568.668 259.478ZM584.395 259.478C584.391 256.749 585.197 254.081 586.71 251.81C588.224 249.54 590.377 247.769 592.897 246.723C595.417 245.677 598.19 245.401 600.867 245.932C603.544 246.463 606.003 247.775 607.933 249.704C609.863 251.633 611.177 254.091 611.71 256.767C612.242 259.443 611.969 262.217 610.924 264.738C609.88 267.259 608.111 269.413 605.841 270.928C603.572 272.443 600.904 273.251 598.175 273.249C594.523 273.246 591.021 271.795 588.437 269.213C585.854 266.632 584.4 263.13 584.395 259.478Z" fill="#EBEBEB"/>
<path d="M592.5 231.191H603.85L603.22 223.153H593.129L592.5 231.191Z" fill="#EBEBEB"/>
<path d="M614.105 235.016L622.124 243.035L627.363 236.914L620.226 229.777L614.105 235.016Z" fill="#EBEBEB"/>
<path d="M626.676 252.99V264.34L634.704 263.71V253.619L626.676 252.99Z" fill="#EBEBEB"/>
<path d="M622.85 274.585L614.822 282.613L620.952 287.852L628.089 280.715L622.85 274.585Z" fill="#EBEBEB"/>
<path d="M604.867 287.155H593.527L594.157 295.193H604.248L604.867 287.155Z" fill="#EBEBEB"/>
<path d="M583.271 283.33L575.243 275.312L570.014 281.432L577.151 288.569L583.271 283.33Z" fill="#EBEBEB"/>
<path d="M570.702 265.356V254.007L562.674 254.636V264.727L570.702 265.356Z" fill="#EBEBEB"/>
<path d="M574.526 243.761L582.554 235.733L576.424 230.494L569.287 237.631L574.526 243.761Z" fill="#EBEBEB"/>
<path d="M578.527 68.2178C576.028 68.7795 574.092 67.2494 574.092 64.9059C574.069 64.1873 574.275 63.4801 574.681 62.8865C575.086 62.2928 575.67 61.8436 576.348 61.6036C584.173 59.1826 585.306 56.6841 585.306 51.2029C585.306 49.5857 585.141 46.9322 585.141 45.2375C585.141 38.9429 588.124 35.9602 593.527 34.188C588.201 32.4933 585.141 29.4235 585.141 23.1385C585.141 21.4438 585.306 18.7807 585.306 17.1731C585.306 11.6919 584.173 9.18376 576.348 6.77243C575.67 6.52938 575.087 6.07802 574.682 5.48306C574.276 4.88809 574.07 4.18007 574.092 3.46048C574.092 1.12662 576.028 -0.413145 578.527 0.158215C591.029 2.89881 594.331 7.90547 594.331 15.7205C594.331 16.931 594.167 20.1558 594.167 21.5309C594.167 27.506 596.268 30.082 601.749 30.3241C604.335 30.4887 605.865 32.0188 605.865 34.1977C605.865 36.3766 604.335 37.9067 601.749 38.0713C596.268 38.236 594.167 40.8991 594.167 46.787C594.167 48.1524 594.331 51.3772 594.331 52.5974C594.331 60.4706 591.029 65.4385 578.527 68.2178Z" fill="#EBEBEB"/>
<path d="M562.887 0.119465C565.385 -0.451895 567.313 1.08787 567.313 3.42173C567.337 4.15253 567.122 4.8713 566.701 5.469C566.28 6.06671 565.675 6.51072 564.979 6.73368C557.231 9.14501 556.108 11.6532 556.108 17.1344C556.108 18.7419 556.273 21.405 556.273 23.0998C556.273 29.3847 553.29 32.3771 547.886 34.1493C553.203 35.844 556.273 38.9042 556.273 45.1988C556.273 46.8935 556.108 49.5469 556.108 51.1642C556.108 56.6454 557.241 59.1438 564.979 61.5649C565.674 61.786 566.279 62.2282 566.7 62.8242C567.121 63.4203 567.336 64.1376 567.313 64.8671C567.313 67.2107 565.376 68.7408 562.887 68.1791C550.385 65.4385 547.073 60.4318 547.073 52.5296C547.073 51.3191 547.238 48.0943 547.238 46.7192C547.238 40.8313 545.059 38.1682 539.577 38.0035C537.079 37.8486 535.549 36.3185 535.549 34.1299C535.549 31.9413 537.079 30.4209 539.577 30.2563C545.059 30.0142 547.238 27.4382 547.238 21.4631C547.238 20.0977 547.073 16.8729 547.073 15.6527C547.073 7.85704 550.385 2.86006 562.887 0.119465Z" fill="#EBEBEB"/>
<path d="M51.21 184.756C51.6746 185.212 51.9933 185.795 52.1255 186.432C52.2577 187.07 52.1975 187.732 51.9526 188.335C51.7077 188.938 51.2891 189.454 50.7499 189.819C50.2107 190.184 49.5754 190.38 48.9246 190.382C48.0296 190.379 47.17 190.032 46.5229 189.414L31.8709 174.588C31.8028 174.563 31.7426 174.52 31.6966 174.463C31.6506 174.407 31.6205 174.34 31.6095 174.268C31.5573 174.228 31.5023 174.193 31.4448 174.161C31.3764 174.03 31.3243 173.89 31.2899 173.745C31.2488 173.727 31.213 173.699 31.1858 173.664C31.1587 173.628 31.1412 173.586 31.1349 173.542C31.1349 173.435 31.1349 173.28 31.0284 173.222C30.9219 173.164 30.9219 173.019 30.9219 172.961V172.602C30.9219 172.496 30.9219 172.447 30.9219 172.292C30.9219 172.138 30.9219 172.079 30.9219 172.031V171.663C30.9219 171.556 31.0284 171.508 31.0284 171.45C31.0284 171.392 31.0865 171.198 31.1349 171.034C31.1833 170.869 31.1349 171.034 31.1349 170.937C31.2134 170.774 31.3007 170.615 31.3964 170.462C31.3964 170.434 31.4076 170.407 31.4276 170.387C31.4476 170.367 31.4747 170.356 31.5029 170.356C31.5751 170.21 31.6855 170.086 31.8225 169.997L46.4745 155.132C47.1042 154.526 47.9441 154.188 48.818 154.188C49.6919 154.188 50.5319 154.526 51.1616 155.132C51.4719 155.439 51.7184 155.803 51.8866 156.206C52.0548 156.608 52.1414 157.04 52.1414 157.476C52.1414 157.912 52.0548 158.344 51.8866 158.746C51.7184 159.148 51.4719 159.513 51.1616 159.819L38.8531 172.292L51.21 184.756Z" fill="#EBEBEB"/>
<path d="M64.4863 186.422L77.2692 156.014C77.5757 155.31 78.1478 154.757 78.8608 154.474C79.5738 154.191 80.3698 154.201 81.0751 154.503C81.7586 154.801 82.2963 155.357 82.5703 156.05C82.8444 156.744 82.8326 157.518 82.5374 158.202L69.7544 188.668C69.5239 189.181 69.1497 189.616 68.677 189.92C68.2043 190.224 67.6534 190.385 67.0913 190.382C66.7353 190.39 66.3818 190.321 66.0551 190.179C65.701 190.041 65.3782 189.833 65.1063 189.567C64.8343 189.302 64.6187 188.984 64.4722 188.634C64.3258 188.283 64.2515 187.906 64.254 187.526C64.2564 187.146 64.3354 186.77 64.4863 186.422Z" fill="#EBEBEB"/>
<path d="M107.774 174.161V174.22C107.661 174.352 107.538 174.475 107.406 174.588L92.7536 189.453C92.1241 190.068 91.2805 190.415 90.4003 190.421C89.5227 190.417 88.6815 190.069 88.0568 189.453C87.7461 189.146 87.4995 188.78 87.3312 188.377C87.1628 187.974 87.0762 187.541 87.0762 187.104C87.0762 186.667 87.1628 186.235 87.3312 185.832C87.4995 185.429 87.7461 185.063 88.0568 184.756L100.414 172.292L88.0568 159.819C87.7464 159.513 87.5 159.148 87.3318 158.746C87.1636 158.344 87.077 157.912 87.077 157.476C87.077 157.04 87.1636 156.608 87.3318 156.206C87.5 155.803 87.7464 155.439 88.0568 155.132C88.6881 154.526 89.5297 154.187 90.4052 154.187C91.2807 154.187 92.1222 154.526 92.7536 155.132L107.406 169.997C107.542 170.102 107.666 170.222 107.774 170.356V170.462C107.871 170.614 107.958 170.773 108.035 170.937C108.035 170.985 108.093 170.985 108.093 171.034C108.126 171.196 108.175 171.355 108.238 171.508C108.238 171.556 108.296 171.556 108.296 171.663V172.031C108.296 172.079 108.355 172.234 108.355 172.292C108.355 172.351 108.296 172.496 108.296 172.544V172.961C108.296 173.019 108.238 173.019 108.238 173.067C108.142 173.28 108.142 173.435 108.093 173.542C108.045 173.648 108.035 173.59 108.035 173.697C108.035 173.803 107.88 173.958 107.774 174.161Z" fill="#EBEBEB"/>
<path d="M8.04688 393.844L86.5556 393.612L165.064 393.525L322.082 393.36L479.099 393.525L557.608 393.612L636.117 393.844L557.608 394.087L479.099 394.174L322.082 394.329L165.064 394.164L86.5556 394.087L8.04688 393.844Z" fill="#263238"/>
<path d="M616.004 372.433H28.1523V393.844H616.004V372.433Z" fill="#C7C7C7"/>
<path d="M555.275 60.4705H88.9004V372.443H555.275V60.4705Z" fill="#DBDBDB"/>
<path d="M551.885 64.2763H92.2891V368.637H551.885V64.2763Z" fill="#37474F"/>
<path d="M531.531 83.8382H112.637V349.065H531.531V83.8382Z" fill="#263238"/>
<path d="M531.531 83.8382H112.637V94.0452H531.531V83.8382Z" fill="#2A8BE9"/>
<path d="M122.243 88.9417C122.243 89.3247 122.129 89.6992 121.916 90.0177C121.704 90.3362 121.401 90.5844 121.047 90.731C120.693 90.8776 120.304 90.916 119.928 90.8413C119.552 90.7665 119.207 90.5821 118.936 90.3112C118.666 90.0403 118.481 89.6952 118.406 89.3195C118.332 88.9438 118.37 88.5544 118.517 88.2005C118.663 87.8466 118.911 87.5441 119.23 87.3313C119.548 87.1184 119.923 87.0048 120.306 87.0048C120.82 87.0048 121.312 87.2089 121.675 87.5721C122.039 87.9353 122.243 88.428 122.243 88.9417Z" fill="#C7C7C7"/>
<path d="M130.135 88.9417C130.135 89.3247 130.022 89.6992 129.809 90.0177C129.596 90.3362 129.294 90.5844 128.94 90.731C128.586 90.8776 128.196 90.916 127.821 90.8413C127.445 90.7665 127.1 90.5821 126.829 90.3112C126.558 90.0403 126.374 89.6952 126.299 89.3195C126.224 88.9438 126.263 88.5544 126.409 88.2005C126.556 87.8466 126.804 87.5441 127.122 87.3313C127.441 87.1184 127.815 87.0048 128.199 87.0048C128.712 87.0048 129.205 87.2089 129.568 87.5721C129.931 87.9353 130.135 88.428 130.135 88.9417Z" fill="white"/>
<path d="M138.018 88.9417C138.018 89.3247 137.905 89.6992 137.692 90.0177C137.479 90.3362 137.176 90.5844 136.823 90.731C136.469 90.8776 136.079 90.916 135.703 90.8413C135.328 90.7665 134.983 90.5821 134.712 90.3112C134.441 90.0403 134.256 89.6952 134.182 89.3195C134.107 88.9438 134.145 88.5544 134.292 88.2005C134.439 87.8466 134.687 87.5441 135.005 87.3313C135.324 87.1184 135.698 87.0048 136.081 87.0048C136.595 87.0048 137.088 87.2089 137.451 87.5721C137.814 87.9353 138.018 88.428 138.018 88.9417Z" fill="#455A64"/>
<path d="M149.028 139.386H139.402V141.274H149.028V139.386Z" fill="#EBEBEB"/>
<path d="M373.729 139.386H160.389V141.274H373.729V139.386Z" fill="#EBEBEB"/>
<path d="M397.928 139.386H379.645V141.274H397.928V139.386Z" fill="#2A8BE9"/>
<path d="M470.607 183.894H408.9V185.773H470.607V183.894Z" fill="#EBEBEB"/>
<path d="M492.483 139.386H401.898V141.274H492.483V139.386Z" fill="#A6A6A6"/>
<path d="M149.028 148.286H139.402V150.174H149.028V148.286Z" fill="#EBEBEB"/>
<path d="M242.218 148.286H169.762V150.174H242.218V148.286Z" fill="#A6A6A6"/>
<path d="M404.552 183.894H377.146V185.773H404.552V183.894Z" fill="#A6A6A6"/>
<path d="M229.591 174.994H160.389V176.883H229.591V174.994Z" fill="#A6A6A6"/>
<path d="M218.308 157.195H169.762V159.083H218.308V157.195Z" fill="#2A8BE9"/>
<path d="M483.837 166.095H391.867V167.973H483.837V166.095Z" fill="#A6A6A6"/>
<path d="M373.727 209.779H281.758V211.658H373.727V209.779Z" fill="#A6A6A6"/>
<path d="M404.175 157.195H223.703V159.083H404.175V157.195Z" fill="#A6A6A6"/>
<path d="M370.891 183.894H160.389V185.773H370.891V183.894Z" fill="#2A8BE9"/>
<path d="M395.885 148.286H246.77V150.174H395.885V148.286Z" fill="#EBEBEB"/>
<path d="M443.104 157.195H411.883V159.083H443.104V157.195Z" fill="#EBEBEB"/>
<path d="M149.028 157.195H139.402V159.083H149.028V157.195Z" fill="#EBEBEB"/>
<path d="M149.028 166.095H139.402V167.973H149.028V166.095Z" fill="#A6A6A6"/>
<path d="M217.273 166.095H160.389V167.973H217.273V166.095Z" fill="#EBEBEB"/>
<path d="M226.646 192.794H169.762V194.682H226.646V192.794Z" fill="#EBEBEB"/>
<path d="M458.183 201.693H378.773V203.582H458.183V201.693Z" fill="#2A8BE9"/>
<path d="M373.797 201.693H221.205V203.582H373.797V201.693Z" fill="#EBEBEB"/>
<path d="M212.517 201.693H169.762V203.582H212.517V201.693Z" fill="#A6A6A6"/>
<path d="M397.918 174.994H233.502V176.883H397.918V174.994Z" fill="#EBEBEB"/>
<path d="M499.998 174.994H401.898V176.883H499.998V174.994Z" fill="#2A8BE9"/>
<path d="M387.393 166.095H223.045V167.973H387.393V166.095Z" fill="#2A8BE9"/>
<path d="M149.028 174.994H139.402V176.883H149.028V174.994Z" fill="#EBEBEB"/>
<path d="M149.028 183.894H139.402V185.773H149.028V183.894Z" fill="#EBEBEB"/>
<path d="M149.028 192.794H139.402V194.682H149.028V192.794Z" fill="#A6A6A6"/>
<path d="M149.028 201.693H139.402V203.582H149.028V201.693Z" fill="#EBEBEB"/>
<path d="M149.028 209.779H139.402V211.658H149.028V209.779Z" fill="#EBEBEB"/>
<path d="M273.237 209.779H160.389V211.658H273.237V209.779Z" fill="#EBEBEB"/>
<path d="M149.028 218.679H139.402V220.567H149.028V218.679Z" fill="#EBEBEB"/>
<path d="M242.218 218.679H169.762V220.567H242.218V218.679Z" fill="#A6A6A6"/>
<path d="M229.591 245.378H160.389V247.257H229.591V245.378Z" fill="#A6A6A6"/>
<path d="M218.308 227.579H169.762V229.467H218.308V227.579Z" fill="#2A8BE9"/>
<path d="M329.492 263.187H280.945V265.075H329.492V263.187Z" fill="#2A8BE9"/>
<path d="M218.308 280.986H169.762V282.875H218.308V280.986Z" fill="#2A8BE9"/>
<path d="M404.175 227.579H223.703V229.467H404.175V227.579Z" fill="#A6A6A6"/>
<path d="M370.891 254.278H160.389V256.166H370.891V254.278Z" fill="#2A8BE9"/>
<path d="M395.885 218.679H246.77V220.567H395.885V218.679Z" fill="#EBEBEB"/>
<path d="M427.464 236.478H396.301V238.367H427.464V236.478Z" fill="#EBEBEB"/>
<path d="M149.028 227.579H139.402V229.467H149.028V227.579Z" fill="#EBEBEB"/>
<path d="M149.028 236.478H139.402V238.367H149.028V236.478Z" fill="#A6A6A6"/>
<path d="M217.273 236.478H160.389V238.367H217.273V236.478Z" fill="#EBEBEB"/>
<path d="M397.918 245.378H233.502V247.257H397.918V245.378Z" fill="#EBEBEB"/>
<path d="M387.393 236.478H223.045V238.367H387.393V236.478Z" fill="#2A8BE9"/>
<path d="M149.028 245.378H139.402V247.257H149.028V245.378Z" fill="#EBEBEB"/>
<path d="M149.028 263.187H139.402V265.075H149.028V263.187Z" fill="#EBEBEB"/>
<path d="M273.237 263.187H160.389V265.075H273.237V263.187Z" fill="#EBEBEB"/>
<path d="M149.028 272.087H139.402V273.975H149.028V272.087Z" fill="#EBEBEB"/>
<path d="M242.218 272.087H169.762V273.975H242.218V272.087Z" fill="#A6A6A6"/>
<path d="M229.591 298.786H160.389V300.674H229.591V298.786Z" fill="#A6A6A6"/>
<path d="M404.175 280.986H223.703V282.875H404.175V280.986Z" fill="#A6A6A6"/>
<path d="M427.464 289.886H396.301V291.774H427.464V289.886Z" fill="#EBEBEB"/>
<path d="M149.028 280.986H139.402V282.875H149.028V280.986Z" fill="#EBEBEB"/>
<path d="M149.028 289.886H139.402V291.774H149.028V289.886Z" fill="#A6A6A6"/>
<path d="M217.273 289.886H160.389V291.774H217.273V289.886Z" fill="#EBEBEB"/>
<path d="M397.918 298.786H233.502V300.674H397.918V298.786Z" fill="#EBEBEB"/>
<path d="M387.393 289.886H223.045V291.774H387.393V289.886Z" fill="#2A8BE9"/>
<path d="M149.028 298.786H139.402V300.674H149.028V298.786Z" fill="#EBEBEB"/>
<path d="M144.071 122.449C144.139 122.509 144.194 122.584 144.231 122.667C144.268 122.751 144.288 122.841 144.288 122.933C144.288 123.024 144.268 123.115 144.231 123.198C144.194 123.281 144.139 123.356 144.071 123.417C143.95 123.537 143.787 123.607 143.616 123.611C143.438 123.61 143.268 123.54 143.141 123.417L140.236 120.463C140.221 120.461 140.208 120.455 140.197 120.444C140.187 120.434 140.18 120.42 140.178 120.405C140.175 120.376 140.175 120.347 140.178 120.318C140.178 120.318 140.178 120.26 140.178 120.25V120.173C140.178 120.173 140.178 120.173 140.178 120.115V119.989C140.178 119.989 140.178 119.931 140.178 119.902C140.178 119.902 140.178 119.834 140.226 119.805C140.241 119.775 140.264 119.751 140.294 119.737L143.199 116.832C143.262 116.766 143.337 116.714 143.42 116.678C143.503 116.642 143.593 116.624 143.683 116.624C143.774 116.624 143.864 116.642 143.947 116.678C144.03 116.714 144.105 116.766 144.168 116.832C144.236 116.893 144.291 116.967 144.328 117.051C144.365 117.134 144.385 117.225 144.385 117.316C144.385 117.407 144.365 117.498 144.328 117.581C144.291 117.665 144.236 117.739 144.168 117.8L141.708 120.279L144.071 122.449Z" fill="#2A8BE9"/>
<path d="M146.713 122.787L149.251 116.745C149.28 116.675 149.323 116.612 149.377 116.559C149.431 116.506 149.495 116.465 149.566 116.437C149.636 116.409 149.711 116.395 149.787 116.396C149.862 116.398 149.937 116.414 150.006 116.444C150.074 116.473 150.136 116.515 150.187 116.567C150.239 116.62 150.279 116.682 150.307 116.751C150.334 116.82 150.347 116.893 150.345 116.967C150.343 117.04 150.327 117.113 150.296 117.18L147.769 123.233C147.724 123.337 147.649 123.425 147.555 123.487C147.46 123.549 147.349 123.582 147.236 123.582C147.17 123.599 147.1 123.599 147.033 123.582C146.955 123.557 146.883 123.516 146.822 123.46C146.762 123.405 146.715 123.336 146.684 123.26C146.654 123.184 146.641 123.103 146.646 123.021C146.651 122.939 146.674 122.859 146.713 122.787Z" fill="#2A8BE9"/>
<path d="M155.324 120.357L155.247 120.425L152.342 123.378C152.28 123.445 152.205 123.498 152.122 123.535C152.038 123.572 151.948 123.59 151.857 123.59C151.766 123.59 151.676 123.572 151.593 123.535C151.51 123.498 151.435 123.445 151.373 123.378C151.305 123.317 151.25 123.243 151.213 123.159C151.176 123.076 151.156 122.985 151.156 122.894C151.156 122.803 151.176 122.712 151.213 122.629C151.25 122.545 151.305 122.471 151.373 122.41L153.833 119.931L151.373 117.452C151.305 117.391 151.25 117.316 151.213 117.233C151.176 117.149 151.156 117.059 151.156 116.967C151.156 116.876 151.176 116.785 151.213 116.702C151.25 116.619 151.305 116.544 151.373 116.483C151.436 116.417 151.511 116.365 151.594 116.33C151.677 116.294 151.767 116.275 151.857 116.275C151.948 116.275 152.038 116.294 152.121 116.33C152.204 116.365 152.279 116.417 152.342 116.483L155.247 119.388L155.324 119.456C155.324 119.456 155.324 119.524 155.324 119.553C155.321 119.585 155.321 119.618 155.324 119.65V119.727C155.324 119.727 155.324 119.727 155.324 119.776V119.863C155.323 119.895 155.323 119.927 155.324 119.96C155.293 120.09 155.293 120.226 155.324 120.357Z" fill="#2A8BE9"/>
<path d="M579.446 74.3285H479.604V138.021H579.446V74.3285Z" fill="white"/>
<path d="M580.076 138.65H478.965V73.699H580.066L580.076 138.65ZM480.233 137.391H578.808V74.9967H480.233V137.391Z" fill="#EBEBEB"/>
<path d="M579.446 74.3285H479.604V86.3754H579.446V74.3285Z" fill="#2A8BE9"/>
<path d="M580.076 87.0049H478.965V73.699H580.066L580.076 87.0049ZM480.233 85.746H578.808V74.9967H480.233V85.746Z" fill="#EBEBEB"/>
<path d="M497.248 114.656C494.56 113.803 492.619 112.747 491.424 111.488C490.229 110.208 489.632 108.651 489.632 106.816C489.632 104.811 490.325 103.232 491.712 102.08C493.12 100.907 495.125 100.32 497.728 100.32C499.691 100.32 501.472 100.544 503.072 100.992C503.584 101.141 503.989 101.451 504.288 101.92C504.608 102.368 504.768 102.869 504.768 103.424V104.352C504.768 104.779 504.587 105.109 504.224 105.344C503.861 105.579 503.477 105.621 503.072 105.472C501.259 104.832 499.584 104.512 498.048 104.512C496.085 104.512 495.104 105.28 495.104 106.816C495.104 108.117 495.957 109.045 497.664 109.6C500.608 110.496 502.645 111.541 503.776 112.736C504.928 113.931 505.504 115.499 505.504 117.44C505.504 122.027 502.613 124.32 496.832 124.32C494.997 124.32 493.333 124.032 491.84 123.456C491.328 123.264 490.923 122.933 490.624 122.464C490.347 121.973 490.208 121.44 490.208 120.864V119.84C490.208 119.456 490.379 119.168 490.72 118.976C491.061 118.763 491.403 118.741 491.744 118.912C493.301 119.68 494.891 120.064 496.512 120.064C497.643 120.064 498.496 119.851 499.072 119.424C499.669 118.976 499.968 118.347 499.968 117.536C499.968 116.832 499.765 116.256 499.36 115.808C498.955 115.36 498.251 114.976 497.248 114.656ZM517.752 105.376L515.416 114.56C515.395 114.624 515.405 114.688 515.448 114.752C515.512 114.795 515.576 114.816 515.64 114.816H519.928C519.992 114.816 520.045 114.795 520.088 114.752C520.152 114.688 520.173 114.624 520.152 114.56L517.816 105.376C517.816 105.355 517.805 105.344 517.784 105.344C517.763 105.344 517.752 105.355 517.752 105.376ZM509.208 124C508.76 124 508.397 123.819 508.12 123.456C507.864 123.093 507.811 122.699 507.96 122.272L514.424 102.368C514.595 101.856 514.893 101.44 515.32 101.12C515.768 100.8 516.259 100.64 516.792 100.64H518.904C519.459 100.64 519.96 100.8 520.408 101.12C520.856 101.44 521.155 101.856 521.304 102.368L527.736 122.272C527.885 122.699 527.821 123.093 527.544 123.456C527.288 123.819 526.936 124 526.488 124H524.344C523.811 124 523.331 123.84 522.904 123.52C522.477 123.179 522.2 122.752 522.072 122.24L521.304 119.2C521.283 119.029 521.176 118.944 520.984 118.944H514.584C514.413 118.944 514.307 119.029 514.264 119.2L513.496 122.24C513.368 122.752 513.091 123.179 512.664 123.52C512.237 123.84 511.757 124 511.224 124H509.208ZM540.127 105.376L537.791 114.56C537.77 114.624 537.78 114.688 537.823 114.752C537.887 114.795 537.951 114.816 538.015 114.816H542.303C542.367 114.816 542.42 114.795 542.463 114.752C542.527 114.688 542.548 114.624 542.527 114.56L540.191 105.376C540.191 105.355 540.18 105.344 540.159 105.344C540.138 105.344 540.127 105.355 540.127 105.376ZM531.583 124C531.135 124 530.772 123.819 530.495 123.456C530.239 123.093 530.186 122.699 530.335 122.272L536.799 102.368C536.97 101.856 537.268 101.44 537.695 101.12C538.143 100.8 538.634 100.64 539.167 100.64H541.279C541.834 100.64 542.335 100.8 542.783 101.12C543.231 101.44 543.53 101.856 543.679 102.368L550.111 122.272C550.26 122.699 550.196 123.093 549.919 123.456C549.663 123.819 549.311 124 548.863 124H546.719C546.186 124 545.706 123.84 545.279 123.52C544.852 123.179 544.575 122.752 544.447 122.24L543.679 119.2C543.658 119.029 543.551 118.944 543.359 118.944H536.959C536.788 118.944 536.682 119.029 536.639 119.2L535.871 122.24C535.743 122.752 535.466 123.179 535.039 123.52C534.612 123.84 534.132 124 533.599 124H531.583ZM559.748 114.656C557.06 113.803 555.119 112.747 553.924 111.488C552.729 110.208 552.132 108.651 552.132 106.816C552.132 104.811 552.825 103.232 554.212 102.08C555.62 100.907 557.625 100.32 560.228 100.32C562.191 100.32 563.972 100.544 565.572 100.992C566.084 101.141 566.489 101.451 566.788 101.92C567.108 102.368 567.268 102.869 567.268 103.424V104.352C567.268 104.779 567.087 105.109 566.724 105.344C566.361 105.579 565.977 105.621 565.572 105.472C563.759 104.832 562.084 104.512 560.548 104.512C558.585 104.512 557.604 105.28 557.604 106.816C557.604 108.117 558.457 109.045 560.164 109.6C563.108 110.496 565.145 111.541 566.276 112.736C567.428 113.931 568.004 115.499 568.004 117.44C568.004 122.027 565.113 124.32 559.332 124.32C557.497 124.32 555.833 124.032 554.34 123.456C553.828 123.264 553.423 122.933 553.124 122.464C552.847 121.973 552.708 121.44 552.708 120.864V119.84C552.708 119.456 552.879 119.168 553.22 118.976C553.561 118.763 553.903 118.741 554.244 118.912C555.801 119.68 557.391 120.064 559.012 120.064C560.143 120.064 560.996 119.851 561.572 119.424C562.169 118.976 562.468 118.347 562.468 117.536C562.468 116.832 562.265 116.256 561.86 115.808C561.455 115.36 560.751 114.976 559.748 114.656Z" fill="#EBEBEB"/>
<path d="M488.706 80.4391C488.706 80.8222 488.592 81.1966 488.379 81.5151C488.166 81.8336 487.864 82.0819 487.51 82.2285C487.156 82.3751 486.767 82.4134 486.391 82.3387C486.015 82.264 485.67 82.0795 485.399 81.8086C485.128 81.5378 484.944 81.1927 484.869 80.8169C484.795 80.4412 484.833 80.0518 484.979 79.6979C485.126 79.344 485.374 79.0415 485.693 78.8287C486.011 78.6159 486.386 78.5023 486.769 78.5023C487.283 78.5023 487.775 78.7063 488.138 79.0696C488.502 79.4328 488.706 79.9254 488.706 80.4391Z" fill="#C7C7C7"/>
<path d="M496.598 80.4391C496.598 80.8222 496.485 81.1966 496.272 81.5151C496.059 81.8336 495.757 82.0819 495.403 82.2285C495.049 82.3751 494.659 82.4134 494.284 82.3387C493.908 82.264 493.563 82.0795 493.292 81.8086C493.021 81.5378 492.837 81.1927 492.762 80.8169C492.687 80.4412 492.725 80.0518 492.872 79.6979C493.019 79.344 493.267 79.0415 493.585 78.8287C493.904 78.6159 494.278 78.5023 494.661 78.5023C495.175 78.5023 495.668 78.7063 496.031 79.0696C496.394 79.4328 496.598 79.9254 496.598 80.4391Z" fill="white"/>
<path d="M504.481 80.4391C504.481 80.8222 504.367 81.1966 504.155 81.5151C503.942 81.8336 503.639 82.0819 503.285 82.2285C502.932 82.3751 502.542 82.4134 502.166 82.3387C501.791 82.264 501.446 82.0795 501.175 81.8086C500.904 81.5378 500.719 81.1927 500.645 80.8169C500.57 80.4412 500.608 80.0518 500.755 79.6979C500.901 79.344 501.15 79.0415 501.468 78.8287C501.787 78.6159 502.161 78.5023 502.544 78.5023C503.058 78.5023 503.551 78.7063 503.914 79.0696C504.277 79.4328 504.481 79.9254 504.481 80.4391Z" fill="#455A64"/>
<path d="M494.74 29.8883H426.729V55.0669H494.74V29.8883Z" fill="#455A64"/>
<path d="M436.549 47.6973V36.5316C436.546 36.3948 436.571 36.2588 436.623 36.1319C436.674 36.005 436.75 35.8897 436.847 35.793C436.943 35.6962 437.059 35.62 437.186 35.5689C437.312 35.5177 437.448 35.4927 437.585 35.4954C437.724 35.4915 437.862 35.5154 437.991 35.5657C438.12 35.6161 438.237 35.6918 438.337 35.7884C438.436 35.885 438.515 36.0006 438.569 36.1282C438.623 36.2558 438.65 36.393 438.65 36.5316V41.1024H443.551V36.5316C443.548 36.3939 443.573 36.2572 443.625 36.1296C443.677 36.0021 443.754 35.8863 443.852 35.7894C443.949 35.6925 444.066 35.6165 444.194 35.566C444.322 35.5154 444.459 35.4914 444.596 35.4954C444.734 35.4928 444.871 35.5177 444.999 35.5686C445.127 35.6195 445.243 35.6954 445.342 35.7919C445.44 35.8884 445.518 36.0035 445.571 36.1305C445.625 36.2575 445.652 36.3938 445.652 36.5316V47.6973C445.652 47.8354 445.625 47.9723 445.571 48.0998C445.518 48.2273 445.44 48.343 445.342 48.4403C445.244 48.5375 445.128 48.6144 445 48.6663C444.872 48.7183 444.735 48.7444 444.596 48.7432C444.458 48.7458 444.321 48.7205 444.193 48.6689C444.065 48.6173 443.949 48.5403 443.851 48.4427C443.753 48.345 443.676 48.2287 443.625 48.1006C443.573 47.9725 443.548 47.8354 443.551 47.6973V43.1555H438.65V47.6973C438.65 47.8363 438.623 47.9739 438.569 48.1021C438.515 48.2302 438.436 48.3464 438.337 48.4438C438.238 48.5411 438.121 48.6178 437.991 48.6692C437.862 48.7206 437.724 48.7457 437.585 48.7432C437.448 48.7445 437.312 48.7183 437.185 48.666C437.058 48.6138 436.943 48.5367 436.846 48.4392C436.75 48.3417 436.673 48.2258 436.622 48.0983C436.571 47.9709 436.546 47.8345 436.549 47.6973Z" fill="white"/>
<path d="M458.066 37.5968H455.064V47.6973C455.078 47.8424 455.061 47.9889 455.015 48.1273C454.97 48.2657 454.895 48.393 454.797 48.5009C454.699 48.6089 454.58 48.6951 454.446 48.7542C454.313 48.8132 454.169 48.8437 454.023 48.8437C453.877 48.8437 453.733 48.8132 453.599 48.7542C453.466 48.6951 453.347 48.6089 453.249 48.5009C453.151 48.393 453.076 48.2657 453.03 48.1273C452.984 47.9889 452.968 47.8424 452.982 47.6973V37.5968H449.989C449.851 37.5955 449.714 37.567 449.586 37.5128C449.459 37.4585 449.343 37.3797 449.246 37.2808C449.149 37.1819 449.072 37.0648 449.02 36.9362C448.968 36.8077 448.942 36.6702 448.944 36.5316C448.941 36.3939 448.966 36.2572 449.018 36.1296C449.07 36.0021 449.147 35.8863 449.245 35.7894C449.342 35.6925 449.459 35.6165 449.587 35.566C449.715 35.5154 449.852 35.4914 449.989 35.4954H458.066C458.203 35.4941 458.339 35.5199 458.465 35.5714C458.592 35.6229 458.708 35.6991 458.805 35.7954C458.902 35.8918 458.979 36.0064 459.032 36.1328C459.085 36.2591 459.112 36.3947 459.112 36.5316C459.109 36.81 458.999 37.0767 458.804 37.2754C458.609 37.474 458.344 37.5893 458.066 37.5968Z" fill="white"/>
<path d="M473.629 36.5315V47.6973C473.624 47.9747 473.511 48.2393 473.314 48.4346C473.116 48.63 472.851 48.7407 472.573 48.7431C472.436 48.7431 472.3 48.7161 472.173 48.6635C472.046 48.611 471.931 48.5339 471.834 48.4368C471.737 48.3397 471.66 48.2244 471.607 48.0975C471.555 47.9706 471.527 47.8346 471.527 47.6973V39.7273L468.806 43.5138C468.71 43.6502 468.583 43.7611 468.434 43.8371C468.286 43.913 468.121 43.9516 467.954 43.9495C467.784 43.9523 467.617 43.9141 467.465 43.8382C467.313 43.7624 467.182 43.6511 467.082 43.5138L464.371 39.7273V47.6973C464.346 47.9585 464.224 48.2011 464.03 48.3776C463.836 48.5541 463.583 48.6518 463.32 48.6518C463.058 48.6518 462.805 48.5541 462.61 48.3776C462.416 48.2011 462.295 47.9585 462.27 47.6973V36.5315C462.272 36.2558 462.383 35.9923 462.579 35.7982C462.775 35.6042 463.04 35.4953 463.315 35.4953H463.374C463.536 35.4961 463.696 35.535 463.841 35.6091C463.985 35.6831 464.111 35.7901 464.206 35.9214L467.973 41.1508L471.741 35.9214C471.838 35.7868 471.966 35.6777 472.114 35.6035C472.263 35.5293 472.427 35.4922 472.593 35.4953C472.864 35.505 473.122 35.6172 473.315 35.8095C473.507 36.0018 473.619 36.2598 473.629 36.5315Z" fill="white"/>
<path d="M478.209 47.6973V36.5315C478.209 36.3946 478.236 36.2591 478.289 36.1327C478.341 36.0064 478.419 35.8917 478.516 35.7954C478.613 35.699 478.729 35.6229 478.855 35.5714C478.982 35.5199 479.118 35.4941 479.255 35.4953C479.392 35.4941 479.528 35.5198 479.656 35.5712C479.783 35.6226 479.899 35.6986 479.997 35.7948C480.095 35.891 480.173 36.0056 480.227 36.132C480.281 36.2584 480.309 36.3942 480.31 36.5315V46.6417H485.443C485.704 46.6668 485.947 46.7884 486.123 46.9826C486.3 47.1769 486.398 47.4299 486.398 47.6924C486.398 47.9549 486.3 48.2079 486.123 48.4022C485.947 48.5965 485.704 48.718 485.443 48.7431H479.255C478.977 48.7431 478.711 48.633 478.515 48.4368C478.319 48.2407 478.209 47.9746 478.209 47.6973Z" fill="white"/>
<path d="M334.149 372.588C331.408 373.644 251.941 375.087 248.832 373.314C248.493 373.111 248.58 369.605 247.418 360.531C247.36 360.096 245.54 358.411 242.712 356.038C232.059 347.129 207.113 328.351 207.113 328.351L246.818 293.895L285.254 331.663L295.248 341.483C295.248 341.483 327.719 359.021 330.934 361.335C334.149 363.65 336.889 371.542 334.149 372.588Z" fill="#DD6A57"/>
<path d="M334.147 372.588C331.407 373.644 251.939 375.087 248.831 373.314C248.492 373.111 248.589 369.605 247.407 360.531C247.359 360.096 245.548 358.42 242.71 356.038C239.011 352.939 237.258 351.525 231.758 347.245L282.183 328.719L285.204 331.683L295.198 341.512C295.198 341.512 327.669 359.04 330.884 361.355C334.099 363.669 336.888 371.542 334.147 372.588Z" fill="#EBEBEB"/>
<path d="M339.619 373.682C336.859 374.651 252.192 375.571 249.141 373.682C248.425 373.237 247.766 368.317 247.204 361.577C247.137 360.735 238.557 353.878 237.385 352.61L289.272 335.178L295.828 341.338C295.828 341.338 334.012 359.108 337.131 361.529C340.249 363.95 342.418 372.724 339.619 373.682Z" fill="#2A8BE9"/>
<path d="M338.448 370.525C325.142 370.351 266.137 370.922 252.976 371.765C252.87 371.765 252.87 371.842 252.976 371.842C266.156 372.307 325.161 371.3 338.448 370.748C338.729 370.729 338.729 370.535 338.448 370.525Z" fill="#263238"/>
<path d="M300.098 341.88C294.849 340.97 288.477 341.88 284.507 345.618C284.352 345.763 284.565 345.976 284.73 345.928C289.71 344.253 294.856 343.117 300.079 342.538C300.166 342.541 300.251 342.509 300.314 342.449C300.378 342.389 300.415 342.306 300.418 342.219C300.42 342.132 300.388 342.047 300.328 341.983C300.268 341.92 300.186 341.882 300.098 341.88Z" fill="#263238"/>
<path d="M303.904 344.117C298.655 343.197 292.283 344.117 288.313 347.855C288.158 348 288.361 348.213 288.536 348.155C293.517 346.484 298.662 345.35 303.885 344.775C303.972 344.778 304.057 344.746 304.121 344.686C304.184 344.626 304.221 344.543 304.224 344.456C304.226 344.369 304.194 344.284 304.134 344.22C304.074 344.157 303.992 344.12 303.904 344.117Z" fill="#263238"/>
<path d="M307.701 346.344C302.462 345.434 296.081 346.344 292.11 350.082C291.965 350.228 292.168 350.441 292.343 350.392C297.323 348.718 302.469 347.581 307.692 347.003C307.779 347.004 307.863 346.971 307.926 346.91C307.989 346.849 308.025 346.766 308.026 346.678C308.027 346.591 307.994 346.507 307.933 346.444C307.872 346.381 307.789 346.346 307.701 346.344Z" fill="#263238"/>
<path d="M311.506 348.581C306.267 347.661 299.885 348.581 295.915 352.319C295.76 352.465 295.973 352.678 296.147 352.62C301.128 350.947 306.274 349.814 311.497 349.24C311.584 349.241 311.668 349.208 311.731 349.147C311.793 349.086 311.829 349.003 311.831 348.915C311.832 348.828 311.798 348.744 311.738 348.681C311.677 348.619 311.594 348.583 311.506 348.581Z" fill="#263238"/>
<path d="M309.618 329.688C307.536 326.879 303.721 328.196 301.552 330.056C297.897 333.32 295.165 337.488 293.63 342.141C293.622 342.162 293.619 342.184 293.622 342.206C293.625 342.227 293.632 342.248 293.645 342.266C293.657 342.284 293.674 342.299 293.693 342.31C293.712 342.32 293.734 342.325 293.756 342.325C293.754 342.428 293.776 342.529 293.82 342.622C293.864 342.715 293.929 342.796 294.01 342.859C294.09 342.922 294.185 342.965 294.286 342.985C294.386 343.005 294.49 343.001 294.589 342.974C298.888 341.318 303.692 340.069 307.362 337.164C309.493 335.44 311.594 332.322 309.618 329.688ZM300.603 339.13C298.501 339.991 296.38 340.747 294.308 341.696C295.867 339.343 297.31 336.931 299.092 334.733C299.936 333.665 300.851 332.655 301.832 331.712C303.372 330.269 309.502 327.189 308.611 332.941C308.176 336.089 303.101 338.084 300.603 339.11V339.13Z" fill="#263238"/>
<path d="M280.314 340.912C284.652 342.693 289.611 342.548 294.201 342.935C294.303 342.934 294.404 342.909 294.494 342.862C294.585 342.815 294.664 342.747 294.724 342.664C294.784 342.582 294.824 342.486 294.841 342.385C294.858 342.284 294.851 342.181 294.821 342.083C294.84 342.075 294.858 342.063 294.873 342.047C294.887 342.032 294.898 342.013 294.905 341.993C294.911 341.972 294.913 341.951 294.91 341.93C294.907 341.908 294.9 341.888 294.889 341.87C292.125 337.826 288.344 334.583 283.926 332.467C281.331 331.276 277.293 331.073 276.072 334.346C274.91 337.435 277.786 339.866 280.314 340.912ZM277.912 337.203C275.491 331.915 282.231 333.174 284.11 334.133C285.318 334.767 286.479 335.486 287.587 336.283C289.851 337.954 292.029 339.738 294.114 341.628C291.867 341.299 289.611 341.163 287.335 340.921C284.672 340.621 279.239 340.117 277.912 337.203Z" fill="#263238"/>
<path d="M285.747 329.562L236.726 354.973C236.726 354.973 185.652 308.741 180.975 308.392C176.297 308.044 107.589 354.673 72.9974 354.866C37.1664 355.021 35.3555 317.486 35.3555 317.486L87.6494 305.478C125.32 286.913 164.56 253.571 190.233 256.68C218.074 260.011 285.747 329.562 285.747 329.562Z" fill="#455A64"/>
<path d="M273.778 323.093C265.498 327.189 267.822 325.901 259.591 330.085C255.562 332.128 235.293 342.354 231.846 344.882C231.778 344.94 231.846 345.076 231.933 345.047C235.981 343.691 256.027 333.029 260.017 330.908C268.171 326.579 265.827 327.741 273.894 323.325C273.909 323.318 273.923 323.307 273.934 323.294C273.945 323.281 273.954 323.266 273.959 323.25C273.965 323.234 273.967 323.217 273.966 323.2C273.964 323.183 273.96 323.166 273.952 323.151C273.945 323.136 273.934 323.122 273.921 323.111C273.908 323.1 273.893 323.091 273.877 323.086C273.861 323.08 273.844 323.078 273.827 323.079C273.81 323.081 273.793 323.085 273.778 323.093Z" fill="#263238"/>
<path d="M228.049 343.245C218.462 334.801 187.057 307.288 185.788 306.262C184.799 305.317 183.7 304.495 182.515 303.812C182.026 303.621 181.5 303.543 180.976 303.585C180.453 303.627 179.946 303.787 179.493 304.054C178.041 304.732 176.588 305.477 175.174 306.175L166.681 310.32C155.7 315.675 144.776 321.175 133.707 326.366C123.055 331.344 115.462 336.05 104.345 339.924C93.3114 343.812 81.8985 346.526 70.2957 348.02C68.8625 348.194 67.4293 348.349 65.996 348.484C65.9789 348.49 65.9641 348.501 65.9536 348.516C65.9431 348.531 65.9375 348.549 65.9375 348.567C65.9375 348.585 65.9431 348.602 65.9536 348.617C65.9641 348.632 65.9789 348.643 65.996 348.649C77.4002 347.968 88.6753 345.87 99.561 342.403C110.572 339.023 118.038 334.656 128.507 329.814C139.343 324.826 150.025 319.49 160.706 314.174C166.352 311.375 171.978 308.538 177.634 305.768C178.922 305.148 180.743 303.783 182.214 304.451C182.825 304.797 183.391 305.216 183.899 305.7L185.836 307.269C188.257 309.283 226.751 342.442 228.01 343.391C228.01 343.468 228.146 343.342 228.049 343.245Z" fill="#263238"/>
<path d="M35.2596 317.437C35.2596 317.437 29.4492 351.332 46.3479 364.647C63.2466 377.963 187.474 376.355 206.29 370.264C225.106 364.173 225.726 333.774 205.128 326.734C185.537 320.004 102.254 316.779 100.143 315.956C99.6296 315.752 107.542 311.007 107.503 310.717L88.5414 304.906L35.2596 317.437Z" fill="#455A64"/>
<path d="M60.9805 316.575C60.9805 316.43 60.7384 316.479 60.7384 316.575C60.7504 320.508 59.3792 324.32 56.8648 327.344C53.9595 330.675 49.7276 332.544 45.8733 334.491C45.5054 334.675 45.7862 335.256 46.1639 335.14C48.5233 334.423 50.7966 333.449 52.9427 332.235C54.9229 331.178 56.6663 329.728 58.0656 327.974C59.3143 326.379 60.2181 324.543 60.7199 322.581C61.2217 320.619 61.3104 318.574 60.9805 316.575Z" fill="#263238"/>
<path d="M98.7861 312.382C97.9243 311.278 96.9849 310.232 96.0843 309.167C93.9635 306.64 91.833 304.102 89.6057 301.672C89.4023 301.439 88.9859 301.768 89.1796 302.02C90.6806 303.957 92.2591 305.894 93.8182 307.782L96.2296 310.688C97.075 311.58 97.8308 312.553 98.4859 313.593C99.067 314.677 98.3019 315.607 97.1689 315.723C96.1775 315.758 95.2105 315.412 94.4671 314.755C92.7847 313.265 91.2447 311.621 89.8671 309.845C88.9762 308.877 88.0756 307.831 87.1749 306.843C86.2743 305.855 85.18 304.78 84.2116 303.725C84.1535 303.657 84.0373 303.725 84.0857 303.831C84.9283 304.984 85.703 306.184 86.5455 307.346C87.388 308.509 88.2499 309.642 89.1118 310.775C89.9736 311.908 90.7871 312.895 91.6684 313.932C92.3987 314.839 93.272 315.62 94.254 316.246C95.8616 317.215 98.6602 317.399 99.5221 315.278C99.6732 314.774 99.6845 314.238 99.5549 313.728C99.4252 313.218 99.1595 312.753 98.7861 312.382Z" fill="#263238"/>
<path d="M203.714 370.361C197.235 370.477 190.747 370.855 184.258 370.99C177.77 371.126 171.388 371.165 164.958 371.106C152.046 370.99 139.134 370.49 126.222 369.605C113.187 368.705 99.1065 367.407 86.1976 365.606C79.9998 364.754 73.7245 364.037 67.6042 362.701C62.0988 361.653 57.0081 359.052 52.9329 355.205C44.5465 347.08 41.312 335.12 39.9562 323.703C39.7722 322.173 39.6269 320.633 39.5011 319.093C39.5011 318.996 39.3364 318.996 39.3461 319.093C40.1015 330.801 41.9221 343.013 49.2916 352.426C52.3988 356.536 56.5385 359.75 61.2902 361.742C67.1006 364.066 73.5212 364.647 79.6899 365.441C92.6859 367.204 106.805 368.569 119.859 369.576C132.914 370.583 146.2 371.232 159.39 371.426C172.579 371.62 185.789 371.426 198.959 370.787C200.566 370.709 202.174 370.613 203.801 370.477C203.809 370.464 203.814 370.448 203.813 370.432C203.813 370.416 203.807 370.401 203.798 370.389C203.788 370.376 203.775 370.366 203.76 370.361C203.745 370.357 203.729 370.356 203.714 370.361Z" fill="#263238"/>
<path d="M162.819 320.556C158.742 319.955 154.665 319.374 150.559 318.938C146.453 318.503 142.259 318.135 138.105 317.786C129.893 317.089 121.642 316.469 113.42 316.082C108.743 315.859 104.065 315.839 99.388 315.898C99.2331 315.898 99.2427 316.111 99.388 316.13C107.619 316.876 115.851 317.389 124.111 317.941C132.372 318.493 140.574 319.21 148.777 319.994C153.435 320.439 158.093 320.778 162.751 321.156C162.83 321.165 162.91 321.142 162.973 321.092C163.036 321.042 163.076 320.969 163.085 320.89C163.094 320.81 163.071 320.73 163.021 320.667C162.971 320.605 162.898 320.565 162.819 320.556Z" fill="#263238"/>
<path d="M108.47 310.319C105.183 311.736 102.022 313.427 99.0188 315.375C95.9726 317.206 93.0601 319.251 90.3031 321.495C90.2256 321.563 90.3031 321.66 90.3999 321.621C93.6054 320.139 96.6946 318.28 99.7451 316.508C102.842 314.768 105.833 312.847 108.703 310.755C108.867 310.591 108.742 310.194 108.47 310.319Z" fill="#263238"/>
<path d="M92.9085 276.425L84.8223 275.108C83.2879 270.128 83.342 264.794 84.9773 259.846C85.3356 258.713 81.3554 264.882 80.7163 274.45C72.1749 273.084 60.5637 271.225 50.4439 269.501C50.9765 265.521 51.2864 261.812 51.2864 261.812C50.4915 264.342 49.4705 266.796 48.2359 269.143L44.1977 268.446C45.6212 262.374 46.5509 251.518 46.5509 251.518C44.7386 257.23 42.0002 262.605 38.4453 267.429C32.0345 266.267 27.7929 265.395 28.1609 265.134C39.9076 255.808 33.9713 248.09 38.5519 238.803C44.033 227.676 54.4918 227.676 55.8186 218.805C56.9129 211.59 58.4236 198.41 68.0011 197.306C70.895 195.36 74.2982 194.309 77.7858 194.285C81.2734 194.261 84.6908 195.264 87.6113 197.171C100.917 205.296 91.1751 226.368 91.3203 231.065C91.5237 237.747 94.1674 240.575 95.0971 248.322C96.0268 256.069 91.7755 260.476 90.4585 265.434C89.1414 270.392 94.5064 276.677 92.9085 276.425Z" fill="#263238"/>
<path d="M28.1602 263.497C29.8456 261.807 31.2834 259.886 32.4308 257.793C33.5736 255.74 33.6704 253.445 33.651 251.014C33.5679 248.577 33.6099 246.136 33.7769 243.703C33.9773 241.171 34.6819 238.705 35.8493 236.45C37.0715 234.205 38.7947 232.273 40.885 230.804C42.9031 229.408 45.0346 228.183 47.2571 227.143C49.4 226.146 51.405 224.877 53.2225 223.366C54.9919 221.764 56.2881 219.708 56.9702 217.42C56.6223 219.89 55.5275 222.195 53.8326 224.025C52.1 225.782 50.1117 227.268 47.935 228.431C45.856 229.571 43.8536 230.846 41.9406 232.247C40.1143 233.621 38.6077 235.376 37.5247 237.389C36.4809 239.436 35.8242 241.659 35.5878 243.945C35.2973 246.269 35.2973 248.651 35.1714 251.092C35.1175 252.334 34.9685 253.571 34.726 254.791C34.4432 256.035 33.9415 257.219 33.2443 258.287C31.869 260.309 30.1479 262.073 28.1602 263.497Z" fill="#263238"/>
<path d="M94.1972 206.894C94.683 209.841 94.8066 212.836 94.5652 215.813C94.3909 218.786 94.0714 221.749 93.7227 224.693L93.2385 229.09C93.0605 230.506 93.0216 231.936 93.1223 233.36C93.4745 236.203 94.3373 238.959 95.6692 241.495C96.307 242.878 96.8537 244.301 97.3058 245.756C97.7376 247.249 98.0071 248.785 98.1096 250.336C98.1539 251.869 98.0859 253.404 97.9062 254.927C97.732 256.459 97.371 257.965 96.8313 259.41C96.289 260.863 95.6111 262.199 95.001 263.516C94.3896 264.83 93.9032 266.198 93.5484 267.603C93.2402 269.02 93.2754 270.489 93.6511 271.889C94.0268 273.289 94.732 274.579 95.708 275.651C94.5578 274.64 93.6763 273.36 93.1422 271.925C92.6081 270.49 92.4383 268.945 92.6478 267.429C92.895 265.929 93.2975 264.459 93.8486 263.042C94.3716 261.618 94.9913 260.292 95.4077 258.926C96.2133 256.179 96.5119 253.307 96.289 250.453C96.1649 249.045 95.8989 247.653 95.4949 246.298C95.0557 244.925 94.5251 243.582 93.9067 242.279C93.2663 240.91 92.7005 239.507 92.212 238.076C91.7197 236.593 91.414 235.055 91.3017 233.496C91.2382 231.958 91.3225 230.418 91.5535 228.896C91.7472 227.414 91.9893 225.942 92.2314 224.48C92.7059 221.575 93.1998 218.67 93.6162 215.716C94.1144 212.803 94.3091 209.847 94.1972 206.894Z" fill="#263238"/>
<path d="M70.7521 252.041C75.5264 265.027 97.1412 298.883 107.155 303.851C114.563 307.511 136.681 312.005 139.528 311.298C143.634 310.329 152.825 282.4 149.067 282.129C130.997 280.822 119.492 278.478 115.231 276.793C111.638 275.37 96.6667 261.541 77.2405 244.652C70.4713 238.774 67.8856 244.274 70.7521 252.041Z" fill="#D3766A"/>
<path d="M81.8485 280.415L94.2538 256.776C94.2538 256.776 84.2114 247.877 77.9555 243.732C69.6756 238.26 65.6954 240.052 68.9202 251.789C71.0701 259.633 81.8485 280.415 81.8485 280.415Z" fill="#2A8BE9"/>
<path d="M82.8864 247.315H82.7799C82.3688 247.315 81.9702 247.173 81.651 246.914C81.3318 246.655 81.1115 246.294 81.0271 245.891C81.6275 246.405 82.2473 246.821 82.8864 247.315ZM82.7799 275.05C82.3048 275.05 81.8491 275.239 81.5131 275.575C81.1771 275.911 80.9884 276.367 80.9884 276.842C80.9884 277.317 81.1771 277.773 81.5131 278.109C81.8491 278.445 82.3048 278.633 82.7799 278.633L84.2422 275.835C84.0795 275.594 83.8602 275.396 83.6037 275.26C83.3471 275.123 83.061 275.051 82.7702 275.05H82.7799ZM72.8634 259.556C72.5411 259.553 72.2249 259.644 71.9531 259.817C72.418 260.873 72.9215 261.957 73.396 263.052C73.7615 262.941 74.0815 262.715 74.3083 262.408C74.5351 262.101 74.6567 261.729 74.655 261.347C74.6576 261.11 74.6128 260.874 74.5233 260.653C74.4338 260.433 74.3014 260.233 74.1337 260.064C73.9661 259.896 73.7666 259.762 73.5468 259.672C73.3271 259.581 73.0915 259.535 72.8537 259.536L72.8634 259.556ZM92.6964 259.556C92.4611 259.556 92.2282 259.602 92.0108 259.692C91.7934 259.782 91.5959 259.914 91.4296 260.08C91.2632 260.247 91.1312 260.444 91.0412 260.662C90.9512 260.879 90.9048 261.112 90.9048 261.347C90.9045 261.749 91.0411 262.138 91.2922 262.451L92.8126 259.546L92.6964 259.556Z" fill="white"/>
<path d="M80.8722 276.842C82.441 273.278 84.0485 269.743 85.8304 266.276C86.7084 264.546 87.6187 262.829 88.5613 261.125C89.5297 259.42 90.6144 257.813 91.5247 256.098C91.5731 256.011 91.7183 256.098 91.6602 256.186C90.6918 257.842 89.888 259.662 88.9777 261.367C88.0674 263.071 87.1668 264.814 86.2759 266.538C84.494 269.985 82.7122 273.443 81.0078 276.929C80.9497 277.026 80.8238 276.939 80.8722 276.842Z" fill="#263238"/>
<path opacity="0.1" d="M92.3072 260.495L81.8485 280.425C81.8485 280.425 71.0798 259.633 68.9105 251.789C67.9421 248.158 67.6129 245.485 67.9421 243.674L92.3072 260.495Z" fill="black"/>
<path d="M139.527 311.288C143.439 313.431 147.486 315.317 151.642 316.934C154.964 318.067 164.609 321.069 166.217 317.534C167.321 315.123 161.859 312.692 158.024 310.881C156.01 309.913 153.579 307.666 154.247 306.368C155.409 304.112 160.6 306.678 163.98 308.857C170.526 313.079 179.164 320.536 183.435 317.311C185.042 316.091 183.348 313.661 180.82 311.23C184.975 314.135 189.439 316.527 191.289 315.249C192.344 314.513 192.441 313.447 191.928 312.208C192.457 312.482 193.056 312.594 193.649 312.528C194.242 312.463 194.802 312.223 195.259 311.84C196.721 310.455 196.14 308.267 194.717 306.029C194.98 306.014 195.235 305.936 195.462 305.803C195.689 305.67 195.882 305.486 196.024 305.264C199.181 300.907 185.023 287.32 179.978 285.896C165.132 281.635 149.095 282.197 149.095 282.197C142.926 286.574 139.518 311.288 139.527 311.288Z" fill="#D3766A"/>
<path d="M162.295 298.331C165.854 299.021 169.214 300.493 172.134 302.64C175.524 305.216 178.158 308.625 181.266 311.501C181.354 311.578 181.266 311.704 181.141 311.627C179.688 310.145 178.071 308.809 176.55 307.395C175.03 305.981 173.645 304.567 172.057 303.289C169.215 300.933 165.873 299.257 162.286 298.389C162.286 298.389 162.208 298.321 162.295 298.331Z" fill="#263238"/>
<path d="M165.345 292.084C169.318 293.213 173.163 294.748 176.821 296.665C180.694 298.892 183.716 302.359 186.65 305.71C188.413 307.724 190.136 309.767 191.812 311.859C191.88 311.946 191.754 312.072 191.686 311.985C188.703 308.525 185.624 305.161 182.447 301.894C179.517 298.84 176.012 296.394 172.134 294.699C169.916 293.731 167.631 292.946 165.355 292.152C165.277 292.142 165.297 292.075 165.345 292.084Z" fill="#263238"/>
<path d="M169.819 286.71C173.615 287.678 176.927 288.501 180.219 290.719C184.587 293.624 188.712 298.466 190.165 300.122C191.763 301.991 193.293 303.918 194.804 305.865C194.862 305.942 194.726 306.049 194.658 305.971C191.203 301.698 187.477 297.652 183.502 293.857C181.635 292.022 179.495 290.487 177.159 289.305C174.788 288.24 172.329 287.385 169.809 286.749C169.809 286.749 169.799 286.71 169.819 286.71Z" fill="#263238"/>
<path d="M30.6602 324.739C32.9553 325.485 98.4486 306.533 98.4486 306.533L90.7014 283.805C90.7014 283.805 94.575 276.493 92.7447 269.462C90.3818 260.069 72.9892 244.623 71.6238 243.713C66.1426 240.081 60.9713 240.139 56.4488 242.55C37.5165 252.612 30.6602 324.739 30.6602 324.739Z" fill="#2A8BE9"/>
<path d="M64.7272 245.533C64.7272 245.887 64.6221 246.234 64.4253 246.528C64.2284 246.823 63.9486 247.053 63.6212 247.188C63.2939 247.324 62.9337 247.359 62.5861 247.29C62.2386 247.221 61.9194 247.05 61.6688 246.8C61.4183 246.549 61.2477 246.23 61.1785 245.883C61.1094 245.535 61.1449 245.175 61.2805 244.848C61.4161 244.52 61.6457 244.24 61.9403 244.043C62.2349 243.847 62.5813 243.742 62.9357 243.742C63.4108 243.742 63.8665 243.93 64.2025 244.266C64.5384 244.602 64.7272 245.058 64.7272 245.533ZM43.1027 275.05C42.7483 275.05 42.402 275.155 42.1074 275.352C41.8127 275.549 41.5831 275.829 41.4475 276.156C41.3119 276.483 41.2764 276.844 41.3456 277.191C41.4147 277.539 41.5853 277.858 41.8359 278.109C42.0864 278.359 42.4056 278.53 42.7532 278.599C43.1007 278.668 43.4609 278.632 43.7883 278.497C44.1157 278.361 44.3955 278.132 44.5923 277.837C44.7892 277.542 44.8942 277.196 44.8942 276.842C44.8942 276.606 44.8479 276.373 44.7579 276.156C44.6678 275.939 44.5359 275.741 44.3695 275.575C44.2031 275.409 44.0056 275.277 43.7883 275.187C43.5709 275.097 43.338 275.05 43.1027 275.05ZM62.9357 275.05C62.5813 275.05 62.2349 275.155 61.9403 275.352C61.6457 275.549 61.4161 275.829 61.2805 276.156C61.1449 276.483 61.1094 276.844 61.1785 277.191C61.2477 277.539 61.4183 277.858 61.6688 278.109C61.9194 278.359 62.2386 278.53 62.5861 278.599C62.9337 278.668 63.2939 278.632 63.6212 278.497C63.9486 278.361 64.2284 278.132 64.4253 277.837C64.6221 277.542 64.7272 277.196 64.7272 276.842C64.7272 276.606 64.6809 276.373 64.5908 276.156C64.5008 275.939 64.3688 275.741 64.2025 275.575C64.0361 275.409 63.8386 275.277 63.6212 275.187C63.4039 275.097 63.1709 275.05 62.9357 275.05ZM82.7686 275.05C82.4143 275.05 82.0679 275.155 81.7733 275.352C81.4787 275.549 81.249 275.829 81.1134 276.156C80.9778 276.483 80.9424 276.844 81.0115 277.191C81.0806 277.539 81.2512 277.858 81.5018 278.109C81.7523 278.359 82.0716 278.53 82.4191 278.599C82.7666 278.668 83.1269 278.632 83.4542 278.497C83.7816 278.361 84.0614 278.132 84.2582 277.837C84.4551 277.542 84.5602 277.196 84.5602 276.842C84.5602 276.606 84.5138 276.373 84.4238 276.156C84.3338 275.939 84.2018 275.741 84.0354 275.575C83.8691 275.409 83.6716 275.277 83.4542 275.187C83.2369 275.097 83.0039 275.05 82.7686 275.05ZM53.0192 259.556C52.6636 259.554 52.3155 259.658 52.0192 259.854C51.7229 260.051 51.4918 260.331 51.3553 260.659C51.2188 260.988 51.1831 261.349 51.2527 261.698C51.3223 262.047 51.4941 262.367 51.7462 262.617C51.9983 262.868 52.3193 263.038 52.6684 263.106C53.0175 263.174 53.3788 263.136 53.7064 262.998C54.0339 262.859 54.3129 262.627 54.5079 262.329C54.7028 262.032 54.8049 261.683 54.801 261.328C54.801 260.854 54.6136 260.4 54.2797 260.064C53.9458 259.729 53.4926 259.539 53.0192 259.536V259.556ZM72.8521 259.556C72.4978 259.556 72.1514 259.661 71.8568 259.858C71.5622 260.054 71.3326 260.334 71.197 260.662C71.0614 260.989 71.0259 261.349 71.095 261.697C71.1641 262.044 71.3348 262.363 71.5853 262.614C71.8359 262.865 72.1551 263.035 72.5026 263.104C72.8501 263.173 73.2104 263.138 73.5377 263.002C73.8651 262.867 74.1449 262.637 74.3418 262.343C74.5386 262.048 74.6437 261.702 74.6437 261.347C74.6462 261.11 74.6018 260.875 74.5129 260.656C74.424 260.436 74.2925 260.236 74.1258 260.068C73.9592 259.899 73.7609 259.766 73.5422 259.674C73.3236 259.583 73.089 259.536 72.8521 259.536V259.556ZM43.1027 306.359C42.7483 306.359 42.402 306.464 42.1074 306.661C41.8127 306.858 41.5831 307.137 41.4475 307.465C41.3119 307.792 41.2764 308.152 41.3456 308.5C41.4147 308.847 41.5853 309.167 41.8359 309.417C42.0864 309.668 42.4056 309.838 42.7532 309.907C43.1007 309.977 43.4609 309.941 43.7883 309.805C44.1157 309.67 44.3955 309.44 44.5923 309.146C44.7892 308.851 44.8942 308.505 44.8942 308.15C44.8942 307.675 44.7055 307.219 44.3695 306.883C44.0335 306.547 43.5778 306.359 43.1027 306.359ZM62.9357 306.359C62.5813 306.359 62.2349 306.464 61.9403 306.661C61.6457 306.858 61.4161 307.137 61.2805 307.465C61.1449 307.792 61.1094 308.152 61.1785 308.5C61.2477 308.847 61.4183 309.167 61.6688 309.417C61.9194 309.668 62.2386 309.838 62.5861 309.907C62.9337 309.977 63.2939 309.941 63.6212 309.805C63.9486 309.67 64.2284 309.44 64.4253 309.146C64.6221 308.851 64.7272 308.505 64.7272 308.15C64.7272 307.675 64.5384 307.219 64.2025 306.883C63.8665 306.547 63.4108 306.359 62.9357 306.359ZM82.7686 306.359C82.4143 306.359 82.0679 306.464 81.7733 306.661C81.4787 306.858 81.249 307.137 81.1134 307.465C80.9778 307.792 80.9424 308.152 81.0115 308.5C81.0806 308.847 81.2512 309.167 81.5018 309.417C81.7523 309.668 82.0716 309.838 82.4191 309.907C82.7666 309.977 83.1269 309.941 83.4542 309.805C83.7816 309.67 84.0614 309.44 84.2582 309.146C84.4551 308.851 84.5602 308.505 84.5602 308.15C84.5602 307.675 84.3714 307.219 84.0354 306.883C83.6994 306.547 83.2438 306.359 82.7686 306.359ZM53.0192 290.864C52.6636 290.862 52.3155 290.966 52.0192 291.163C51.7229 291.359 51.4918 291.64 51.3553 291.968C51.2188 292.296 51.1831 292.658 51.2527 293.007C51.3223 293.355 51.4941 293.675 51.7462 293.926C51.9983 294.177 52.3193 294.347 52.6684 294.415C53.0175 294.482 53.3788 294.445 53.7064 294.306C54.0339 294.168 54.3129 293.935 54.5079 293.638C54.7028 293.341 54.8049 292.992 54.801 292.636C54.801 292.163 54.6136 291.709 54.2797 291.373C53.9458 291.037 53.4926 290.847 53.0192 290.845V290.864ZM72.8521 290.864C72.4978 290.864 72.1514 290.969 71.8568 291.166C71.5622 291.363 71.3326 291.643 71.197 291.97C71.0614 292.298 71.0259 292.658 71.095 293.005C71.1641 293.353 71.3348 293.672 71.5853 293.923C71.8359 294.173 72.1551 294.344 72.5026 294.413C72.8501 294.482 73.2104 294.447 73.5377 294.311C73.8651 294.175 74.1449 293.946 74.3418 293.651C74.5386 293.357 74.6437 293.01 74.6437 292.656C74.6462 292.419 74.6018 292.184 74.5129 291.964C74.424 291.745 74.2925 291.545 74.1258 291.376C73.9592 291.208 73.7609 291.074 73.5422 290.983C73.3236 290.892 73.089 290.845 72.8521 290.845V290.864ZM93.1209 290.922C92.979 290.883 92.8324 290.863 92.6851 290.864C92.2099 290.864 91.7543 291.053 91.4183 291.389C91.0823 291.725 90.8936 292.181 90.8936 292.656C90.8936 293.131 91.0823 293.587 91.4183 293.923C91.7543 294.259 92.2099 294.447 92.6851 294.447C92.9541 294.45 93.2199 294.39 93.4619 294.272C93.7038 294.154 93.9152 293.982 94.0796 293.769L93.1209 290.922ZM33.1862 322.153C32.7111 322.153 32.2554 322.342 31.9194 322.678C31.5834 323.014 31.3947 323.47 31.3947 323.945C31.3915 324.204 31.4513 324.46 31.569 324.691C32.3146 324.584 33.5058 324.342 34.9681 324.003C34.9726 323.984 34.9726 323.964 34.9681 323.945C34.9681 323.472 34.7807 323.017 34.4468 322.682C34.1129 322.346 33.6597 322.156 33.1862 322.153Z" fill="white"/>
<path d="M69.6966 282.168C72.5131 281.638 75.3646 281.314 78.2283 281.2C79.6518 281.2 81.0657 281.2 82.4893 281.267C83.1962 281.267 83.9031 281.267 84.6101 281.316C85.3543 281.338 86.0987 281.273 86.8277 281.122C86.8858 281.122 86.9149 281.2 86.8277 281.219C86.1622 281.441 85.4829 281.619 84.7941 281.752C84.1239 281.853 83.4478 281.912 82.7701 281.926C81.3272 281.974 79.8649 281.926 78.4317 281.984C75.5264 282.042 72.6212 282.11 69.716 282.381C69.5901 282.41 69.561 282.236 69.6966 282.168Z" fill="#263238"/>
<path d="M63.5951 286.497C65.7917 285.628 68.0355 284.885 70.3159 284.269C71.4586 283.959 72.611 283.727 73.7731 283.514L75.4387 283.243C76.0585 283.156 76.688 283.146 77.2981 283.049C77.3109 283.049 77.3232 283.054 77.3323 283.063C77.3414 283.072 77.3465 283.085 77.3465 283.098C77.3465 283.11 77.3414 283.123 77.3323 283.132C77.3232 283.141 77.3109 283.146 77.2981 283.146C76.7267 283.253 76.165 283.466 75.6034 283.611L73.8893 284.037C72.7466 284.327 71.6038 284.628 70.4611 284.909C68.166 285.47 65.8902 286.051 63.6242 286.69C63.5985 286.694 63.5723 286.688 63.5514 286.672C63.5306 286.657 63.5167 286.634 63.5128 286.608C63.509 286.582 63.5155 286.556 63.5309 286.535C63.5463 286.514 63.5694 286.501 63.5951 286.497Z" fill="#263238"/>
<path d="M60.5547 241.379C60.5547 242.589 64.5736 251.256 69.9289 252.089C71.672 252.36 73.5701 242.909 73.5701 242.909L73.8703 242.241L78.0538 232.924L66.6363 221.894C66.6363 221.894 60.545 240.856 60.5547 241.379Z" fill="#D3766A"/>
<path d="M78.0426 232.924L73.8591 242.241C71.4231 240.712 69.3357 238.689 67.7324 236.301C66.1291 233.914 65.0458 231.216 64.5527 228.383C65.5986 225.09 66.4895 222.359 66.5961 221.952C66.601 221.933 66.601 221.913 66.5961 221.894L68.0584 223.211L78.0426 232.924Z" fill="#263238"/>
<path d="M93.8488 219.919C92.2703 237.776 81.3854 238.841 77.5408 238.502C74.0449 238.183 62.1819 236.682 61.9011 218.747C61.6202 200.812 70.4327 195.912 78.4705 196.202C86.5083 196.493 95.4757 202.052 93.8488 219.919Z" fill="#D3766A"/>
<path d="M91.4073 216.771C91.0156 216.643 90.631 216.494 90.2549 216.326C89.8235 216.231 89.4374 215.992 89.1606 215.648C89.092 215.526 89.0662 215.384 89.0872 215.246C89.1083 215.107 89.175 214.979 89.2768 214.883C89.51 214.722 89.782 214.626 90.0647 214.606C90.3474 214.585 90.6304 214.641 90.8843 214.767C91.432 214.941 91.897 215.31 92.1917 215.803C92.2536 215.92 92.2796 216.053 92.2667 216.185C92.2537 216.317 92.2023 216.443 92.1188 216.546C92.0353 216.649 91.9234 216.725 91.7969 216.765C91.6704 216.806 91.5349 216.808 91.4073 216.771Z" fill="#263238"/>
<path d="M79.1677 216.384C79.5938 216.384 79.9908 216.384 80.4072 216.326C80.8463 216.362 81.2851 216.253 81.6565 216.016C81.7598 215.921 81.8284 215.794 81.8512 215.655C81.874 215.517 81.8498 215.374 81.7824 215.251C81.6116 215.027 81.3845 214.853 81.1241 214.745C80.8637 214.638 80.5796 214.602 80.3007 214.641C79.7239 214.634 79.165 214.841 78.7319 215.222C78.6377 215.314 78.5723 215.431 78.5436 215.56C78.515 215.688 78.5243 215.822 78.5705 215.945C78.6167 216.069 78.6978 216.176 78.8038 216.254C78.9099 216.331 79.0363 216.377 79.1677 216.384Z" fill="#263238"/>
<path d="M81.2882 219.958C81.2882 219.909 81.1914 219.958 81.1817 220.045C81.0558 221.265 80.7072 222.63 79.5645 222.892V222.96C80.9493 222.95 81.3657 221.129 81.2882 219.958Z" fill="#263238"/>
<path d="M80.3766 218.544C78.4398 218.137 77.7716 222.011 79.5535 222.417C81.3354 222.824 81.9939 218.892 80.3766 218.544Z" fill="#263238"/>
<path d="M79.5838 218.611C79.2061 218.776 78.809 219.105 78.3926 219.076C77.9762 219.047 77.6276 218.573 77.4242 218.108C77.4242 218.059 77.3564 218.108 77.3467 218.108C77.2015 218.854 77.3467 219.667 78.1408 219.909C78.9349 220.151 79.4869 219.58 79.7968 218.863C79.8162 218.776 79.7387 218.553 79.5838 218.611Z" fill="#263238"/>
<path d="M88.2893 220.258C88.2893 220.258 88.3765 220.335 88.3668 220.384C88.1053 221.575 88.0085 222.989 89.0253 223.589C89.0253 223.589 89.0253 223.667 89.0253 223.647C87.7277 223.163 87.8536 221.313 88.2893 220.258Z" fill="#263238"/>
<path d="M89.5956 219.163C91.5324 219.377 90.9901 223.27 89.1792 223.086C87.3683 222.902 87.9493 218.989 89.5956 219.163Z" fill="#263238"/>
<path d="M90.371 219.541C90.6518 219.793 90.9036 220.209 91.2619 220.287C91.6202 220.364 92.0657 219.996 92.395 219.628C92.395 219.628 92.4531 219.628 92.4531 219.686C92.3659 220.432 92.0076 221.178 91.2716 221.216C90.5356 221.255 90.2064 220.539 90.1386 219.774C90.1192 219.628 90.2548 219.435 90.371 219.541Z" fill="#263238"/>
<path d="M85.2394 226.291C85.2394 226.291 85.1426 228.131 84.9876 228.973C84.9876 229.051 84.7552 229.051 84.4647 228.973C83.7139 228.969 82.979 228.756 82.3415 228.36C81.704 227.963 81.1886 227.398 80.8526 226.727C80.8462 226.717 80.8418 226.706 80.8395 226.695C80.8373 226.684 80.8373 226.672 80.8396 226.661C80.8418 226.65 80.8463 226.639 80.8527 226.63C80.859 226.62 80.8672 226.612 80.8768 226.606C80.8863 226.599 80.897 226.595 80.9082 226.593C80.9195 226.59 80.9311 226.59 80.9423 226.593C80.9535 226.595 80.9642 226.599 80.9738 226.606C80.9833 226.612 80.9915 226.62 80.9978 226.63C81.934 227.575 83.1497 228.193 84.4647 228.392C84.5712 228.17 84.5228 225.235 84.6584 225.255C85.3058 225.436 85.925 225.707 86.4984 226.058C86.8082 222.233 86.4984 218.389 86.876 214.583C86.876 214.552 86.8883 214.522 86.9101 214.501C86.9319 214.479 86.9614 214.467 86.9923 214.467C87.0231 214.467 87.0526 214.479 87.0744 214.501C87.0962 214.522 87.1085 214.552 87.1085 214.583C87.5584 218.691 87.5973 222.834 87.2247 226.949C87.1666 227.463 85.5493 226.494 85.2394 226.291Z" fill="#263238"/>
<path d="M84.4929 228.664C83.9095 229.296 83.1721 229.766 82.3527 230.029C81.905 230.169 81.4252 230.169 80.9775 230.029C80.0091 229.671 80.0769 228.77 80.3287 228.015C80.464 227.612 80.6494 227.228 80.8807 226.872C81.8655 227.835 83.1299 228.463 84.4929 228.664Z" fill="#263238"/>
<path d="M82.3527 230.029C81.905 230.169 81.4252 230.169 80.9775 230.029C80.0091 229.671 80.0769 228.77 80.3287 228.015C80.8415 228.079 81.3184 228.312 81.6847 228.676C82.051 229.041 82.2859 229.516 82.3527 230.029Z" fill="#FF9CBD"/>
<path d="M62.6465 220.393C64.5833 220.393 70.142 215.416 71.0135 205.954C71.0135 205.954 69.6384 214.389 68.9024 215.638C68.1664 216.888 71.9916 212.82 72.776 205.199C75.0498 207.107 77.5874 208.676 80.3102 209.857C83.8352 211.145 86.0432 211.281 86.3241 211.039C86.6049 210.796 81.4239 208.724 80.1069 206.952C80.1069 206.952 89.3649 212.142 93.7711 212.82C94.2747 212.898 95.4852 203.437 88.9291 198.449C82.373 193.462 71.4396 196.445 68.3117 199.04C68.3117 199.04 64.8545 199.263 60.7484 204.047C56.6424 208.831 60.5257 220.355 62.6465 220.393Z" fill="#263238"/>
<path d="M76.9487 226.262C75.8791 226.055 74.8892 225.552 74.0919 224.81C73.2945 224.068 72.7219 223.116 72.4392 222.064C72.1566 221.012 72.1754 219.902 72.4934 218.86C72.8115 217.819 73.416 216.887 74.238 216.172C75.06 215.458 76.0664 214.988 77.1423 214.818C78.2182 214.648 79.3203 214.783 80.3229 215.209C81.3254 215.635 82.188 216.334 82.8123 217.227C83.4366 218.12 83.7973 219.17 83.8534 220.258C83.8965 221.021 83.7886 221.785 83.5358 222.507C83.283 223.228 82.8903 223.893 82.3803 224.462C81.8702 225.032 81.2527 225.495 80.5633 225.825C79.8738 226.156 79.126 226.347 78.3625 226.388C77.8878 226.407 77.4125 226.365 76.9487 226.262ZM79.0404 215.609C78.6295 215.526 78.2096 215.497 77.7912 215.522C76.5093 215.592 75.3024 216.149 74.4163 217.078C73.5303 218.007 73.0317 219.239 73.0221 220.522C73.0126 221.806 73.4928 223.045 74.3649 223.988C75.237 224.93 76.4355 225.504 77.7162 225.593C78.9969 225.683 80.2635 225.28 81.258 224.468C82.2526 223.657 82.9002 222.496 83.069 221.223C83.2378 219.951 82.9151 218.662 82.1666 217.619C81.4181 216.575 80.3001 215.857 79.0404 215.609Z" fill="#2A8BE9"/>
<path d="M90.275 227.221C88.0864 226.794 86.5466 224.17 86.779 221.139C86.8663 219.687 87.4046 218.299 88.3188 217.168C88.6844 216.663 89.174 216.259 89.7404 215.997C90.3069 215.735 90.9313 215.623 91.5536 215.671C92.1759 215.72 92.7753 215.928 93.2942 216.275C93.813 216.622 94.234 217.096 94.5166 217.653C95.2453 218.909 95.5635 220.361 95.4269 221.807C95.1751 225.003 93.035 227.463 90.6527 227.279C90.5255 227.269 90.3993 227.249 90.275 227.221ZM91.7857 216.481H91.4952C90.9973 216.464 90.5027 216.568 90.0529 216.782C89.603 216.996 89.2109 217.314 88.9095 217.711C88.1047 218.718 87.6311 219.949 87.5538 221.236C87.3407 224.005 88.7546 226.388 90.7108 226.543C92.667 226.698 94.4391 224.557 94.6522 221.788C94.7752 220.504 94.4942 219.214 93.8484 218.098C93.639 217.698 93.3467 217.346 92.9911 217.068C92.6354 216.789 92.2246 216.589 91.7857 216.481Z" fill="#2A8BE9"/>
<path d="M83.6407 220.887L83.1855 220.248C84.154 219.58 86.236 218.747 87.5337 220.374L86.9236 220.858C85.7906 219.396 83.7182 220.819 83.6407 220.887Z" fill="#2A8BE9"/>
<path d="M57.6488 220.374L56.9902 219.967C57.1839 219.657 58.927 216.946 60.6605 216.8C62.3939 216.655 72.63 218.447 73.0658 218.524L72.9399 219.289C69.9766 218.776 61.9969 217.469 60.7283 217.575C59.4597 217.682 58.1136 219.628 57.6488 220.374Z" fill="#2A8BE9"/>
<path d="M64.6219 220.374C64.6219 220.374 61.7167 214.176 58.9955 215.115C56.2742 216.055 57.7462 224.548 60.4868 226.155C60.8239 226.387 61.2045 226.548 61.6055 226.628C62.0065 226.708 62.4197 226.706 62.8199 226.622C63.2201 226.537 63.599 226.373 63.9337 226.138C64.2684 225.903 64.552 225.602 64.7672 225.255L64.6219 220.374Z" fill="#D3766A"/>
<path d="M59.4883 217.537V217.614C61.4251 218.815 62.1417 220.916 62.5484 223.027C62.4654 222.801 62.3342 222.594 62.164 222.423C61.9937 222.251 61.7884 222.119 61.5621 222.034C61.3358 221.95 61.0939 221.915 60.853 221.933C60.612 221.95 60.3777 222.02 60.1662 222.136C60.1081 222.136 60.1662 222.262 60.1662 222.262C60.5497 222.201 60.9427 222.262 61.2901 222.436C61.6375 222.609 61.9217 222.887 62.103 223.231C62.393 223.805 62.6202 224.409 62.7809 225.032C62.839 225.235 63.1876 225.197 63.1585 224.974C63.1585 224.974 63.1585 224.974 63.1585 224.916C63.6427 222.33 62.2579 218.321 59.4883 217.537Z" fill="#263238"/>
<path d="M46.6674 254.559C32.9548 281.606 31.3278 304.509 35.3758 308.615C46.2703 319.723 82.0433 314.774 91.7661 314.59C95.6978 314.513 87.7084 282.197 83.5443 282.778C73.7247 284.134 59.6247 287.223 59.1501 287.029C58.1817 286.632 59.2954 279.001 60.7577 256.224C61.9392 237.796 52.2745 243.5 46.6674 254.559Z" fill="#D3766A"/>
<path d="M96.666 278.808C106.428 277.442 109.139 278.595 116.76 273.075C121.767 269.453 126.231 271.089 123.375 276.851C118.717 286.264 106.486 290.661 101.808 290.951L96.666 278.808Z" fill="#D3766A"/>
<path d="M70.752 288.201C70.752 288.201 81.7143 282.11 91.9697 279.631C99.0585 277.917 113.991 276.851 130.057 291.542C134.308 295.416 135.161 303.231 127.568 298.912C122.029 295.755 119.55 292.879 115.947 291.862C115.947 291.862 117.942 302.204 114.088 305.661C110.715 308.684 107.133 311.463 103.368 313.98C102.753 313.392 102.175 312.768 101.634 312.111C101.634 312.111 97.7608 315.016 90.3719 314.3L70.752 288.201Z" fill="#D3766A"/>
<path d="M98.9989 279.079C102.388 280.851 109.506 284.715 114.232 289.906C119.481 295.668 128.041 308.189 123.751 312.024C120.594 314.832 116.914 310.339 116.914 310.339C116.914 310.339 119.355 316.256 115.946 318.173C112.847 319.916 110.203 316.236 110.203 316.236C110.203 316.236 111.075 320.11 107.763 321.185C103.783 322.521 102.621 314.242 97.4204 312.101C96.268 311.666 98.9989 279.079 98.9989 279.079Z" fill="#D3766A"/>
<path d="M107.222 294.438C110.127 296.617 115.483 303.279 116.964 310.184C116.964 310.339 116.896 310.445 116.838 310.31C114.264 304.662 111.012 299.348 107.154 294.486C107.154 294.486 107.183 294.409 107.222 294.438Z" fill="#263238"/>
<path d="M101.556 299.899C103.88 302.049 109.081 309.157 110.34 316.207C110.34 316.362 110.262 316.469 110.204 316.324C107.926 310.554 105.002 305.06 101.488 299.948C101.488 299.948 101.527 299.88 101.556 299.899Z" fill="#263238"/>
<path d="M81.6953 283.04C86.0685 281.13 90.6375 279.704 95.3208 278.788C97.663 278.316 100.029 277.973 102.41 277.762C103.61 277.665 104.811 277.636 105.954 277.481C107.111 277.306 108.251 277.034 109.363 276.667C111.595 275.933 113.701 274.862 115.609 273.491C116.564 272.729 117.628 272.115 118.766 271.67C119.924 271.172 121.194 270.988 122.446 271.138C123.128 271.221 123.751 271.569 124.179 272.106C124.56 272.677 124.734 273.36 124.673 274.043C124.58 275.285 124.234 276.494 123.656 277.597C122.505 279.749 120.919 281.639 118.998 283.146V282.575C121.989 284.518 124.87 286.626 127.627 288.889C129.021 290.024 130.316 291.274 131.5 292.627C132.081 293.327 132.582 294.09 132.992 294.903C133.434 295.727 133.701 296.633 133.776 297.566C133.799 298.06 133.71 298.553 133.515 299.009C133.298 299.476 132.925 299.853 132.459 300.074C131.555 300.418 130.555 300.418 129.651 300.074C127.978 299.408 126.386 298.553 124.906 297.527C123.414 296.558 122 295.522 120.49 294.535C119.763 294.041 119.018 293.566 118.262 293.101C117.528 292.633 116.733 292.268 115.899 292.017L116.083 291.716C118.008 294.099 119.759 296.617 121.323 299.251C122.103 300.567 122.805 301.928 123.424 303.328C124.045 304.726 124.516 306.187 124.828 307.685C124.489 306.196 123.989 304.748 123.337 303.366C122.697 301.982 121.969 300.639 121.158 299.348C119.552 296.757 117.762 294.284 115.803 291.949L115.435 291.513L115.987 291.658C116.856 291.912 117.687 292.284 118.456 292.762C119.231 293.217 119.986 293.731 120.732 294.176C122.213 295.145 123.637 296.161 125.167 297.081C126.618 298.07 128.178 298.889 129.815 299.522C130.586 299.813 131.437 299.813 132.207 299.522C132.543 299.332 132.815 299.046 132.988 298.701C133.16 298.356 133.226 297.968 133.176 297.585C132.926 295.883 132.178 294.292 131.026 293.014C129.861 291.699 128.588 290.485 127.22 289.383C124.479 287.143 121.611 285.064 118.63 283.156L118.233 282.894L118.611 282.584C120.436 281.133 121.946 279.324 123.046 277.268C123.578 276.257 123.907 275.151 124.015 274.014C124.025 273.49 123.865 272.977 123.56 272.552C123.247 272.147 122.788 271.883 122.281 271.816C121.156 271.698 120.02 271.868 118.979 272.31C117.894 272.726 116.879 273.304 115.967 274.024C114.003 275.436 111.83 276.534 109.527 277.278C108.377 277.652 107.198 277.93 106.002 278.11C104.782 278.265 103.601 278.285 102.419 278.372C100.066 278.556 97.7031 278.827 95.3692 279.243C90.6994 280.064 86.1201 281.336 81.6953 283.04Z" fill="#263238"/>
<path d="M34.2617 277.936L60.6121 273.404C60.6121 273.404 61.5805 260.011 61.0382 252.525C60.3215 242.628 56.4866 240.594 49.1268 250.278C44.2073 256.747 34.2617 277.936 34.2617 277.936Z" fill="#2A8BE9"/>
<path d="M44.7407 276.135L41.3223 276.716C41.3481 276.316 41.5083 275.936 41.7768 275.638C42.0453 275.34 42.4064 275.141 42.8018 275.074C43.1972 275.007 43.6037 275.075 43.9556 275.268C44.3075 275.46 44.5841 275.766 44.7407 276.135ZM53.0206 259.536C52.6659 259.534 52.3185 259.638 52.0227 259.833C51.7268 260.029 51.4956 260.308 51.3585 260.635C51.2215 260.963 51.1846 261.323 51.2526 261.671C51.3207 262.02 51.4905 262.34 51.7407 262.591C51.9908 262.843 52.3101 263.014 52.6578 263.084C53.0056 263.154 53.3663 263.119 53.6943 262.984C54.0222 262.849 54.3026 262.619 54.4999 262.324C54.6972 262.029 54.8025 261.683 54.8025 261.328C54.8025 260.854 54.6151 260.4 54.2812 260.064C53.9473 259.729 53.4941 259.539 53.0206 259.536Z" fill="white"/>
<path d="M36.5093 274.982C40.2957 274.062 44.0822 273.191 47.9171 272.484C49.8539 272.135 51.7681 271.812 53.6597 271.515C55.5966 271.225 57.5334 271.128 59.4702 270.809C59.567 270.809 59.5961 270.963 59.4702 270.973C57.5334 271.196 55.5966 271.67 53.7178 272C51.8391 272.329 49.8926 272.649 47.9752 272.968C44.1597 273.656 40.3345 274.334 36.5286 275.108C36.4027 275.166 36.4027 275.011 36.5093 274.982Z" fill="#263238"/>
<path d="M57.3768 273.965C58.4208 273.699 59.4777 273.485 60.5435 273.326C60.6113 271.748 60.6597 270.169 60.7565 268.591C60.7565 267.806 60.8534 267.012 60.9212 266.228C60.989 265.444 61.0471 264.369 61.1149 263.604C61.1103 263.59 61.1089 263.576 61.1109 263.563C61.1128 263.549 61.1181 263.536 61.1261 263.524C61.1342 263.513 61.1448 263.504 61.1572 263.497C61.1696 263.491 61.1833 263.488 61.1972 263.488C61.2111 263.488 61.2248 263.491 61.2371 263.497C61.2495 263.504 61.2601 263.513 61.2682 263.524C61.2763 263.536 61.2815 263.549 61.2835 263.563C61.2854 263.576 61.2841 263.59 61.2795 263.604C61.2795 264.572 61.2795 265.366 61.2795 266.238C61.2795 267.109 61.2795 267.787 61.2311 268.562C61.173 270.208 61.173 271.961 61.018 273.597C59.8223 273.832 58.6124 273.987 57.3962 274.062C57.3962 274.062 57.3284 273.975 57.3768 273.965Z" fill="#263238"/>
<path d="M62.0848 265.027C61.9616 265.978 61.6801 266.901 61.252 267.758C61.3083 267.282 61.4088 266.812 61.5522 266.354C61.6927 265.898 61.8708 265.454 62.0848 265.027Z" fill="#263238"/>
<path d="M162.13 319.578H92.6562V322.696H162.13V319.578Z" fill="#C7C7C7"/>
<path d="M122.562 319.578L120.189 322.686H177.17V319.578H122.562Z" fill="#A6A6A6"/>
<path d="M125.562 322.686H193.264L207.015 276.706H139.304L125.562 322.686Z" fill="#A6A6A6"/>
<path d="M127.906 322.686H195.608L209.349 276.706H141.648L127.906 322.686Z" fill="#C7C7C7"/>
<path d="M165.81 299.667C165.681 300.165 165.671 300.686 165.779 301.188C165.888 301.691 166.113 302.161 166.435 302.561C166.758 302.961 167.17 303.28 167.639 303.492C168.107 303.704 168.618 303.804 169.132 303.783C170.292 303.739 171.405 303.311 172.295 302.566C173.186 301.821 173.803 300.801 174.051 299.667C174.18 299.169 174.191 298.648 174.082 298.145C173.973 297.642 173.749 297.171 173.426 296.771C173.104 296.37 172.692 296.05 172.224 295.837C171.755 295.623 171.244 295.522 170.73 295.542C169.569 295.588 168.456 296.018 167.566 296.764C166.675 297.511 166.058 298.532 165.81 299.667Z" fill="white"/>
<path d="M148.961 218.03V260.03H154.859V270.227L165.046 260.03H220.962V218.03H148.961Z" fill="white"/>
<path d="M148.961 218.03L149.116 239.093C149.187 246.098 149.226 253.077 149.232 260.03L148.961 259.759H155.139V260.04V270.227L154.607 270.014L164.765 259.798L164.872 259.691H165.017L192.975 259.614C202.291 259.614 211.617 259.527 220.933 259.614L220.468 260.079L220.584 218.079L220.933 218.427L185.034 218.311L148.961 218.03ZM148.961 218.03L184.86 217.788L220.962 217.672H221.311V218.03L221.417 260.03V260.495H220.952C211.636 260.543 202.311 260.495 192.994 260.495L165.037 260.427L165.288 260.321L155.072 270.479L154.529 271.022V270.256V260.069L154.82 260.359H148.922H148.738V260.088C148.738 253.058 148.777 246.037 148.854 239.025L148.961 218.03Z" fill="#263238"/>
<path d="M175.293 245.756C175.535 245.996 175.701 246.303 175.769 246.638C175.838 246.973 175.806 247.32 175.678 247.637C175.55 247.953 175.331 248.225 175.048 248.418C174.766 248.61 174.433 248.715 174.092 248.719C173.624 248.723 173.173 248.546 172.833 248.225L165.086 240.41C165.008 240.41 164.979 240.333 164.95 240.246C164.927 240.225 164.901 240.209 164.873 240.197C164.833 240.128 164.803 240.052 164.785 239.974C164.765 239.964 164.747 239.949 164.734 239.93C164.721 239.912 164.712 239.89 164.708 239.868C164.708 239.81 164.708 239.723 164.65 239.703C164.592 239.684 164.592 239.587 164.592 239.568V239.374C164.592 239.316 164.592 239.287 164.592 239.209C164.592 239.132 164.592 239.093 164.592 239.074V238.88C164.592 238.822 164.65 238.793 164.65 238.764C164.65 238.735 164.65 238.628 164.708 238.551C164.766 238.473 164.708 238.551 164.708 238.493C164.708 238.435 164.795 238.299 164.853 238.251C164.911 238.202 164.853 238.192 164.902 238.192C164.942 238.117 164.998 238.05 165.066 237.999L172.814 230.193C173.145 229.877 173.585 229.701 174.043 229.701C174.501 229.701 174.942 229.877 175.273 230.193C175.437 230.354 175.566 230.545 175.655 230.756C175.744 230.968 175.789 231.194 175.789 231.423C175.789 231.652 175.744 231.879 175.655 232.09C175.566 232.301 175.437 232.493 175.273 232.653L168.785 239.209L175.293 245.756Z" fill="#2A8BE9"/>
<path d="M182.274 246.637L188.985 230.658C189.146 230.288 189.448 229.997 189.823 229.848C190.199 229.699 190.618 229.705 190.989 229.864C191.346 230.022 191.626 230.313 191.769 230.676C191.913 231.038 191.907 231.442 191.754 231.801L185.043 247.799C184.924 248.072 184.727 248.303 184.478 248.465C184.228 248.627 183.937 248.712 183.639 248.709C183.453 248.712 183.268 248.675 183.097 248.603C182.912 248.53 182.744 248.42 182.603 248.281C182.461 248.142 182.349 247.976 182.272 247.793C182.195 247.61 182.156 247.413 182.156 247.215C182.157 247.016 182.196 246.82 182.274 246.637Z" fill="#2A8BE9"/>
<path d="M205.022 240.197C204.965 240.269 204.9 240.334 204.829 240.391L197.081 248.206C196.921 248.373 196.728 248.507 196.515 248.598C196.302 248.69 196.072 248.738 195.84 248.741C195.608 248.743 195.378 248.698 195.164 248.61C194.949 248.522 194.754 248.392 194.59 248.228C194.426 248.063 194.297 247.868 194.21 247.653C194.123 247.438 194.079 247.207 194.082 246.975C194.085 246.743 194.134 246.514 194.227 246.302C194.32 246.089 194.454 245.897 194.622 245.736L201.11 239.19L194.622 232.634C194.458 232.473 194.328 232.282 194.24 232.071C194.151 231.86 194.106 231.633 194.106 231.404C194.106 231.175 194.151 230.948 194.24 230.737C194.328 230.526 194.458 230.335 194.622 230.174C194.953 229.858 195.393 229.682 195.852 229.682C196.31 229.682 196.75 229.858 197.081 230.174L204.829 237.98C204.898 238.039 204.963 238.104 205.022 238.173V238.231C205.022 238.231 205.129 238.396 205.158 238.473C205.187 238.551 205.158 238.473 205.158 238.532C205.179 238.615 205.208 238.696 205.245 238.774C205.245 238.774 205.245 238.774 205.245 238.861V239.054C205.245 239.054 205.245 239.161 205.245 239.19C205.245 239.219 205.245 239.297 205.245 239.326V239.548C205.245 239.548 205.245 239.548 205.245 239.597C205.21 239.679 205.181 239.763 205.158 239.849C205.158 239.849 205.158 239.849 205.158 239.926C205.107 240.014 205.062 240.104 205.022 240.197Z" fill="#2A8BE9"/>
<path d="M634.519 299.87C621.678 317.302 608.285 337.454 605.021 359.272C605.021 359.602 605.515 359.708 605.583 359.379C607.064 353.442 608.964 347.617 611.268 341.948C619.712 339.623 628.002 337.716 632.437 329.358C636.96 320.74 636.388 309.506 635.526 300.122C635.458 299.561 634.781 299.531 634.519 299.87Z" fill="#2A8BE9"/>
<path d="M611.394 341.744C617.204 328.797 624.574 315.801 633.987 305.148C634.055 305.08 634.151 305.148 634.093 305.255C627.925 312.837 623.247 321.098 618.667 329.465C622.918 325.146 627.586 321.272 631.614 316.701C631.692 316.604 631.818 316.701 631.74 316.827C627.741 321.669 623.373 326.841 618.182 330.385C616.778 332.961 615.374 335.546 613.941 338.132C614.289 337.938 614.657 337.764 615.016 337.59C615.024 337.595 615.03 337.602 615.035 337.611C615.039 337.619 615.042 337.629 615.042 337.638C615.042 337.648 615.039 337.657 615.035 337.666C615.03 337.674 615.024 337.681 615.016 337.687C614.619 337.89 614.231 338.093 613.815 338.268C613.147 339.498 612.469 340.718 611.781 341.938C611.636 342.277 611.278 342.025 611.394 341.744Z" fill="#263238"/>
<path d="M615.684 337.232C619.141 335.298 622.44 333.096 625.552 330.646C625.63 330.579 625.756 330.695 625.668 330.772C622.655 333.363 619.353 335.598 615.829 337.435C615.675 337.551 615.51 337.319 615.684 337.232Z" fill="#263238"/>
<path d="M603.541 356.028C603.541 356.29 604.016 356.29 604.006 356.028C604.074 348.843 604.006 341.618 604.122 334.404C605.962 330.695 609.932 328.593 612.654 325.688C614.633 323.514 616.355 321.119 617.786 318.551C621.094 312.406 623.114 305.651 623.723 298.699C624.488 291.01 621.573 265.657 618.329 266.538C616.653 266.993 611.211 279.553 609.768 283.708C607.431 290.557 605.72 297.603 604.655 304.761C602.03 321.65 602.253 339.013 603.541 356.028Z" fill="#2A8BE9"/>
<path d="M603.483 325.039C603.87 315.946 605.923 306.765 607.841 297.924C609.903 288.424 612.315 279.476 617.205 271.012C617.292 270.847 617.525 271.012 617.447 271.147C614.186 277.735 611.663 284.662 609.923 291.804C610.252 291.3 610.649 290.835 610.988 290.322C611.123 290.138 611.433 290.322 611.307 290.516C610.865 291.278 610.353 291.998 609.777 292.665C609.767 292.67 609.755 292.672 609.743 292.672C609.732 292.672 609.72 292.67 609.71 292.665C608.034 299.444 606.804 306.397 605.836 313.331L606.068 313.06C606.068 313.002 606.214 313.06 606.175 313.138C606.049 313.37 605.904 313.602 605.758 313.825C605.236 317.34 604.79 320.856 604.277 324.332C610.533 318.977 615.898 312.711 618.89 304.906C618.89 304.906 618.968 304.906 618.948 304.906C616.043 312.973 611.346 320.139 604.17 325.03C604.044 325.998 603.909 326.899 603.773 327.828C603.773 328.022 603.444 327.974 603.444 327.828C603.444 326.995 603.444 326.163 603.521 325.34C603.495 325.326 603.472 325.306 603.455 325.282C603.438 325.257 603.427 325.229 603.423 325.2C603.42 325.17 603.423 325.14 603.433 325.112C603.444 325.084 603.461 325.059 603.483 325.039Z" fill="#263238"/>
<path d="M606.436 311.869C611.22 304.722 615.684 297.788 619.19 289.896C619.19 289.809 619.374 289.896 619.345 289.964C616.391 297.808 612.266 305.749 606.668 312.053C606.562 312.179 606.339 312.005 606.436 311.869Z" fill="#263238"/>
<path d="M612.789 288.133C614.726 284.628 616.866 281.219 618.725 277.646C618.727 277.632 618.733 277.619 618.741 277.608C618.749 277.596 618.76 277.587 618.772 277.581C618.785 277.575 618.798 277.572 618.812 277.572C618.826 277.572 618.84 277.576 618.852 277.582C618.864 277.589 618.875 277.598 618.883 277.609C618.891 277.621 618.896 277.634 618.898 277.648C618.899 277.662 618.898 277.676 618.893 277.689C618.888 277.702 618.881 277.714 618.87 277.723C617.334 281.46 615.385 285.013 613.06 288.317C612.963 288.492 612.673 288.337 612.789 288.133Z" fill="#263238"/>
<path d="M598.67 335.246C598.58 340.009 598.018 344.752 596.995 349.404C597.073 349.918 597.14 350.431 597.218 350.954C598.685 345.815 599.533 340.519 599.745 335.179C599.789 335.103 599.812 335.018 599.812 334.932C599.812 334.845 599.789 334.76 599.745 334.685C599.948 327.525 599.416 320.363 598.157 313.312C595.93 300.103 591.068 287.436 581.859 277.539C581.783 277.483 581.697 277.444 581.605 277.425C581.513 277.405 581.418 277.405 581.326 277.426C581.235 277.446 581.148 277.485 581.073 277.542C580.998 277.598 580.936 277.67 580.89 277.752C577.181 287.194 578.479 298.466 581.636 307.899C583.361 312.999 585.821 317.821 588.938 322.212C592.085 326.647 596.143 330.404 598.67 335.246Z" fill="#2A8BE9"/>
<path d="M582.982 281.945C591.697 296.113 597.779 312.934 598.525 329.63C598.525 329.93 598.04 330.007 597.992 329.707C597.789 328.206 597.556 326.715 597.314 325.233C593.702 321.776 589.993 318.125 587.407 313.806C587.407 313.728 587.475 313.641 587.533 313.709C590.517 317.381 593.715 320.873 597.111 324.168C596.465 320.468 595.719 316.827 594.874 313.244L594.176 312.431C594.031 312.256 594.283 311.995 594.438 312.169L594.651 312.402C593.418 307.474 591.895 302.623 590.09 297.876C587.862 295.232 585.383 292.937 583.766 289.751C583.76 289.735 583.759 289.718 583.764 289.703C583.769 289.687 583.78 289.674 583.794 289.665C583.808 289.657 583.825 289.654 583.842 289.657C583.858 289.661 583.872 289.67 583.882 289.683C585.18 291.503 586.439 293.343 587.921 295.038C588.502 295.706 589.15 296.345 589.76 296.975C587.75 291.84 585.361 286.862 582.614 282.081C582.605 282.057 582.601 282.031 582.602 282.005C582.603 281.98 582.609 281.954 582.62 281.931C582.63 281.907 582.646 281.886 582.665 281.869C582.684 281.852 582.706 281.838 582.73 281.829C582.754 281.82 582.78 281.816 582.805 281.817C582.831 281.818 582.856 281.824 582.88 281.835C582.903 281.846 582.924 281.861 582.942 281.88C582.959 281.899 582.973 281.921 582.982 281.945Z" fill="#263238"/>
<path d="M584.744 299.425C587.562 303.221 590.777 306.843 593.401 310.765C593.479 310.872 593.314 310.988 593.217 310.901C589.847 307.744 587 303.424 584.501 299.532C584.487 299.499 584.487 299.463 584.499 299.43C584.512 299.398 584.537 299.371 584.569 299.357C584.601 299.343 584.638 299.342 584.67 299.355C584.703 299.368 584.729 299.393 584.744 299.425Z" fill="#263238"/>
<path d="M593.798 311.637L593.914 311.762C594.001 311.84 593.865 311.976 593.788 311.888L593.662 311.772C593.648 311.754 593.641 311.73 593.643 311.707C593.644 311.684 593.654 311.662 593.671 311.646C593.687 311.629 593.709 311.619 593.733 311.617C593.756 311.616 593.779 311.623 593.798 311.637Z" fill="#263238"/>
<path d="M569.307 309.177C570.005 316.459 573.84 325.165 578.517 330.782C580.578 333.213 583.12 335.192 585.983 336.592C589.218 338.19 592.607 340.03 595.948 341.347C597.541 345.403 598.725 349.607 599.483 353.898L599.803 352.784C597.653 334.336 585.712 318.57 570.45 308.451C570.33 308.373 570.191 308.332 570.049 308.332C569.906 308.331 569.767 308.372 569.646 308.448C569.526 308.525 569.43 308.634 569.37 308.763C569.31 308.892 569.288 309.036 569.307 309.177Z" fill="#2A8BE9"/>
<path d="M574.586 314.629C574.479 314.532 574.586 314.338 574.741 314.426C583.133 320.664 589.826 328.908 594.206 338.403C594.322 338.655 593.973 338.878 593.828 338.626C593.118 337.386 592.395 336.173 591.659 334.985C588.173 334.326 584.88 331.876 582.285 329.552C582.276 329.537 582.272 329.52 582.274 329.502C582.276 329.485 582.284 329.469 582.296 329.457C582.308 329.445 582.324 329.437 582.342 329.435C582.359 329.433 582.376 329.436 582.391 329.446C583.724 330.659 585.205 331.7 586.798 332.544C588.221 333.261 589.703 333.716 591.223 334.297C589.935 332.244 588.589 330.278 587.185 328.371C583.42 326.938 579.889 324.953 576.707 322.483C576.61 322.415 576.707 322.25 576.804 322.318C579.956 324.224 583.208 325.96 586.546 327.518C584.416 324.714 582.12 322.039 579.67 319.51C578.489 318.88 577.278 318.251 576.135 317.573C576.117 317.56 576.103 317.541 576.096 317.519C576.09 317.497 576.092 317.474 576.101 317.453C576.11 317.432 576.126 317.415 576.147 317.406C576.167 317.396 576.191 317.393 576.213 317.399C577.165 317.734 578.075 318.179 578.924 318.725C577.52 317.34 576.106 315.965 574.586 314.629Z" fill="#263238"/>
<path d="M574.906 320.972C575.114 321.097 575.312 321.24 575.497 321.398C575.555 321.447 575.497 321.514 575.419 321.495C575.207 321.394 575.003 321.277 574.809 321.146C574.702 321.098 574.838 320.972 574.906 320.972Z" fill="#263238"/>
<path d="M623.636 393.845H581.791L585.171 355.748L585.907 347.342H619.51L620.256 355.748L623.636 393.845Z" fill="#455A64"/>
<path d="M620.255 355.748H585.17L585.906 347.342H619.51L620.255 355.748Z" fill="#263238"/>
<path d="M621.513 341.464H583.91V349.782H621.513V341.464Z" fill="#455A64"/>
</svg>
