<?xml version="1.0" encoding="utf-8"?>
<!-- Generator: Adobe Illustrator 16.0.0, SVG Export Plug-In . SVG Version: 6.00 Build 0)  -->
<!DOCTYPE svg PUBLIC "-//W3C//DTD SVG 1.1//EN" "http://www.w3.org/Graphics/SVG/1.1/DTD/svg11.dtd">
<svg version="1.1" id="Layer_1" xmlns="http://www.w3.org/2000/svg" xmlns:xlink="http://www.w3.org/1999/xlink" x="0px" y="0px"
	 width="512px" height="512px" viewBox="0 0 512 512" enable-background="new 0 0 512 512" xml:space="preserve">
<g>
	<g transform="translate(0.000000,512.000000) scale(0.100000,-0.100000)">
		<path fill="#0C4072" d="M1792.344,5070.717c-7.954-7.949-13.906-25.171-13.906-37.759c0-40.078,35.762-63.252,95.376-63.252
			h53.984v-217.929v-217.93h-292.769h-292.451l-36.763-33.125l-37.759-33.125l-3.315-148.047
			c-3.638-169.897,10.269-207.656,82.471-234.15c39.077-13.584,41.396-18.223,41.396-64.253v-49.346H937.847
			c-423.276,0-453.081-1.001-470.303-20.537c-24.175-26.494-25.493-64.253-2.319-82.476c8.95-8.271,40.078-17.222,68.887-20.854
			l51.348-5.635v-198.394v-199.707H403.291c-169.902,0-183.486-1.001-220.249-26.172c-58.618-39.082-67.886-66.572-67.886-216.934
			c0-128.501,1.318-135.454,31.128-169.897c15.903-19.224,42.393-41.079,57.3-47.031l26.489-10.269V1712.354V450.489h-41.396
			c-56.299,0-116.914-30.811-136.455-69.883C39.634,357.432,35,310.713,35,219.658V92.783l39.077-39.072l39.009-39.082H2570
			h2456.845l39.072,39.082l39.082,39.072v126.875c0,94.053-4.639,137.773-18.535,162.939
			c-19.541,40.078-76.523,67.891-136.143,67.891h-40.078v1261.865v1261.543l26.172,10.269c14.902,5.952,41.084,27.808,57.617,47.031
			c29.814,34.443,30.811,41.396,30.811,179.17v142.09l-39.082,43.711l-39.072,42.397l-196.396,3.315l-195.752,3.638v198.389V3842.3
			l51.348,5.635c28.809,3.633,59.619,12.583,68.887,20.854c23.174,19.541,22.178,60.615-3.633,83.472
			c-19.541,17.222-68.252,19.541-470.303,19.541h-449.131v49.346c0,46.03,2.002,50.669,41.074,64.253
			c69.893,25.176,84.795,65.571,84.795,227.202c0,138.77,0,141.089-33.447,177.852l-32.803,37.759l-297.09,5.635l-296.084,5.952
			l-3.633,215.61l-2.002,214.296h54.98c40.078,0,61.621,5.952,74.521,20.854c23.174,25.176,25.176,60.62,5.635,80.156
			C3328.115,5090.258,1811.88,5090.258,1792.344,5070.717z M3095.283,4755.41l-3.633-215.61H2570h-521.968l-3.315,215.61
			l-2.319,214.296H2570h527.92L3095.283,4755.41z M3634.472,2260.811l2.002-1810.322H3401.64h-235.469v417.324v417.949l70.518,4.639
			c64.258,3.994,74.521,8.633,108.965,46.709l38.447,42.715v143.408v143.408l-38.447,43.076l-39.072,42.715H2570h-736.265
			l-39.077-42.715l-39.077-43.076v-143.408v-143.408l39.077-42.715c34.443-38.076,44.712-42.715,108.965-46.709l69.888-4.639
			V867.813V450.489h-235.151h-235.151v1804.052c0,993.584,3.315,1809.004,7.954,1812.637c3.633,4.639,482.886,6.953,1063.467,5.635
			l1056.211-3.315L3634.472,2260.811z M1388.608,3644.907v-200.708h-338.481H711.646v200.708v200.708h338.481h338.481V3644.907z
			 M4428.037,3644.907v-200.708h-338.164h-338.164v200.708v200.708h338.164h338.164V3644.907z M1388.608,1712.354V450.489H872.275
			H356.26v1261.865v1261.543h516.016h516.333V1712.354z M4783.74,1712.354V450.489h-516.016h-516.016v1261.865v1261.543h516.016
			h516.016V1712.354z M2512.7,868.809v-418.32h-212.295H2088.11v418.32v418.955h212.295H2512.7V868.809z M3051.572,868.809v-418.32
			h-212.295h-211.66v418.32v418.955h211.66h212.295V868.809z"/>
		<path fill="#0C4072" d="M2294.77,4787.539c-17.222-32.129-13.906-52.964,8.95-73.521c18.54-17.222,55.303-19.541,268.604-19.541
			c233.145,0,247.422,1.318,266.953,23.174c17.539,18.223,19.541,29.81,10.908,54.98l-10.908,30.811l-265.977,3.633
			C2319.946,4809.395,2306.04,4808.076,2294.77,4787.539z"/>
		<path fill="#0C4072" d="M909.038,3705.84c-17.222-17.222-17.222-69.883,0-87.104c9.268-9.272,57.3-13.906,141.089-13.906
			c83.789,0,131.821,4.634,141.089,13.906c17.222,17.222,17.222,69.883,0,87.104
			C1171.679,3725.381,928.574,3725.381,909.038,3705.84z"/>
		<path fill="#0C4072" d="M3948.467,3705.84c-7.637-7.949-13.271-27.49-13.271-43.711c0-50.347,16.904-57.3,154.678-57.3
			c137.774,0,154.678,6.953,154.678,57.3c0,16.221-5.635,35.762-13.906,43.711
			C4211.738,3725.381,3968.008,3725.381,3948.467,3705.84z"/>
		<path fill="#0C4072" d="M637.124,2695.352c-47.031-47.031-55.981-96.382-49.346-274.229
			c8.267-215.928,25.488-230.83,254.688-236.465c183.486-5.635,232.837,4.629,275.229,56.611
			c29.81,34.443,29.81,37.451,29.81,224.57v189.116l-38.76,39.077l-39.077,39.077H872.275H675.2L637.124,2695.352z"/>
		<path fill="#0C4072" d="M653.345,1961.094c-58.618-39.082-70.205-88.428-65.566-271.914c4.634-169.58,12.583-194.756,70.2-229.199
			c32.129-19.541,58.301-23.174,206.343-23.174c274.233,0,283.183,9.268,283.183,275.547c0,267.275-7.954,274.912-278.545,274.912
			C703.691,1987.266,690.107,1985.264,653.345,1961.094z"/>
		<path fill="#0C4072" d="M692.129,1233.779c-41.099-7.637-90.449-65.254-98.398-114.6c-11.587-68.887-9.272-280.176,3.315-326.894
			c6.953-23.174,28.809-55.977,48.062-72.52l35.728-29.805l199.409,3.633l201.01,3.633l33.125,37.441l33.125,37.08v188.125
			c0,174.209-1.001,189.121-25.176,218.926c-41.074,52.979-83.789,63.252-252.373,62.256
			C786.182,1239.414,706.011,1236.416,692.129,1233.779z"/>
		<path fill="#0C4072" d="M4059.062,2714.888c-57.617-31.123-66.885-66.567-66.885-261.958c0-173.213,1.631-177.217,29.805-211.66
			c42.715-51.982,92.061-62.246,275.547-57.617c124.873,3.643,164.951,9.277,185.488,24.18
			c57.617,39.072,65.889,64.248,70.527,207.656c4.619,184.482-3.643,232.832-50.986,279.863l-37.441,37.759h-187.119
			C4133.584,2731.792,4083.242,2728.477,4059.062,2714.888z"/>
		<path fill="#0C4072" d="M4056.426,1965.723c-56.982-38.076-62.617-60.615-64.248-251.367
			c0-267.275,10.273-277.549,284.815-277.549c159.316,0,173.223,2.637,209.658,26.182c53.984,37.07,66.895,81.787,66.895,249.365
			s-12.91,212.295-66.895,248.74c-36.436,25.176-50.342,26.172-217.93,26.172
			C4111.416,1987.266,4085.234,1985.264,4056.426,1965.723z"/>
		<path fill="#0C4072" d="M4076.972,1226.143c-19.531-9.268-45.713-29.805-59.619-47.344
			c-22.539-29.805-25.176-44.717-25.176-208.662c0-272.91,5.635-278.545,287.813-278.545h185.127l37.441,37.441
			c47.344,47.354,56.621,95.059,49.346,280.185c-4.629,151.045-16.904,183.486-83.789,214.297
			C4418.77,1247.686,4130.947,1248.682,4076.972,1226.143z"/>
	</g>
	<g>
		<path fill="#0C4072" d="M208.913,147.258c-31.29,6.856-48.038,40.911-34.328,69.95c1.484,3.098,4.026,7.346,5.646,9.322
			c3.678,4.649,70.096,65.331,72.497,66.184c1.123,0.437,2.399,0.437,3.527,0c2.051-0.762,65.896-58.71,70.923-64.345
			c11.809-13.298,15.321-34.833,8.345-51.434c-3.9-9.404-11.936-18.728-20.297-23.669c-17.649-10.529-38.624-8.978-55.596,4.021
			l-5.155,3.885l-5.07-3.885C237.183,147.965,222.339,144.288,208.913,147.258z M230.473,159.621
			c5.301,1.769,9.605,4.446,16.798,10.531c6.711,5.643,7.699,5.643,14.417,0c11.358-9.61,17.253-12.153,28.119-12.227
			c6.022-0.074,8.351,0.281,12.215,1.558c22.414,7.771,32.357,33.415,21.273,54.599c-1.418,2.7-4.155,6.514-6.226,8.562
			c-5.207,5.433-61.87,56.733-62.594,56.733c-0.691,0-57.99-51.927-62.937-57.096c-6.287-6.42-10.526-17.023-10.526-26.341
			c0-5.663,2.261-14.284,5.082-19.294c4.874-8.622,15.471-16.463,24.947-18.371C216.266,157.219,225.172,157.781,230.473,159.621z"
			/>
	</g>
	<g>
		<path fill="#0C4072" d="M228.186,177.917c-18.037,3.953-27.689,23.589-19.787,40.328c0.856,1.782,2.319,4.24,3.256,5.379
			c2.12,2.669,40.414,37.646,41.786,38.133c0.655,0.265,1.392,0.265,2.043,0c1.178-0.416,37.98-33.838,40.879-37.084
			c6.814-7.667,8.83-20.069,4.816-29.646c-2.263-5.427-6.868-10.799-11.717-13.647c-10.165-6.072-22.245-5.174-32.037,2.314
			l-2.975,2.239l-2.915-2.239C244.485,178.325,235.926,176.206,228.186,177.917z"/>
	</g>
</g>
</svg>
