<svg width="609" height="455" viewBox="0 0 609 455" fill="none" xmlns="http://www.w3.org/2000/svg">
<path d="M609.001 399.597H0.00390625V399.901H609.001V399.597Z" fill="#EBEBEB"/>
<path d="M547.981 419.194H507.641V419.499H547.981V419.194Z" fill="#EBEBEB"/>
<path d="M403.428 422.507H392.844V422.812H403.428V422.507Z" fill="#EBEBEB"/>
<path d="M506.422 407.891H483.049V408.196H506.422V407.891Z" fill="#EBEBEB"/>
<path d="M116.506 409.937H63.9004V410.242H116.506V409.937Z" fill="#EBEBEB"/>
<path d="M135.067 409.937H127.357V410.242H135.067V409.937Z" fill="#EBEBEB"/>
<path d="M274.236 415.077H160.135V415.382H274.236V415.077Z" fill="#EBEBEB"/>
<path d="M288.668 345.274H53.4855C51.6431 345.271 49.8773 344.537 48.5757 343.233C47.274 341.929 46.543 340.162 46.543 338.319V7.71953C46.559 5.88769 47.2971 4.13616 48.597 2.84538C49.8969 1.5546 51.6536 0.828822 53.4855 0.825684H288.668C290.512 0.825684 292.281 1.55841 293.586 2.86268C294.89 4.16695 295.623 5.93591 295.623 7.78042V338.319C295.623 340.164 294.89 341.933 293.586 343.237C292.281 344.541 290.512 345.274 288.668 345.274ZM53.4855 1.06928C51.7239 1.07251 50.0355 1.77458 48.791 3.02139C47.5464 4.26821 46.8475 5.95788 46.8475 7.71953V338.319C46.8475 340.081 47.5464 341.771 48.791 343.018C50.0355 344.264 51.7239 344.966 53.4855 344.97H288.668C290.431 344.966 292.12 344.265 293.367 343.018C294.613 341.772 295.315 340.082 295.318 338.319V7.71953C295.315 5.95676 294.613 4.26711 293.367 3.02065C292.12 1.77418 290.431 1.0725 288.668 1.06928H53.4855Z" fill="#EBEBEB"/>
<path d="M552.134 345.274H316.939C315.096 345.271 313.329 344.537 312.025 343.234C310.721 341.93 309.988 340.163 309.984 338.319V7.71953C310.004 5.88658 310.744 4.13506 312.046 2.84462C313.348 1.55418 315.106 0.828787 316.939 0.825684H552.134C553.963 0.832023 555.717 1.55922 557.014 2.84966C558.311 4.14009 559.048 5.8898 559.064 7.71953V338.319C559.064 340.16 558.335 341.925 557.036 343.229C555.737 344.532 553.974 345.268 552.134 345.274ZM316.939 1.06928C315.176 1.0725 313.487 1.77418 312.24 3.02065C310.994 4.26711 310.292 5.95676 310.289 7.71953V338.319C310.292 340.082 310.994 341.772 312.24 343.018C313.487 344.265 315.176 344.966 316.939 344.97H552.134C553.896 344.966 555.586 344.265 556.832 343.018C558.079 341.772 558.781 340.082 558.784 338.319V7.71953C558.781 5.95676 558.079 4.26711 556.832 3.02065C555.586 1.77418 553.896 1.0725 552.134 1.06928H316.939Z" fill="#EBEBEB"/>
<path d="M299.167 129.933C297.271 120.834 293.672 112.177 288.558 104.416L297.693 93.3809L278.205 73.893L267.17 83.0158C259.406 77.9108 250.749 74.3158 241.653 72.4193L240.313 58.1931H212.653L211.313 72.4193C202.22 74.3136 193.567 77.9088 185.808 83.0158L174.773 73.9052L155.285 93.3931L164.42 104.428C159.296 112.184 155.68 120.837 153.763 129.933L139.549 131.273V158.897L153.763 160.237C155.678 169.347 159.298 178.013 164.432 185.778L155.297 196.813L174.785 216.301L185.82 207.166C193.578 212.277 202.231 215.876 211.325 217.775L212.665 231.989H240.289L241.629 217.775C250.726 215.874 259.383 212.275 267.146 207.166L278.181 216.301L297.669 196.813L288.534 185.778C293.647 178.022 297.247 169.368 299.142 160.273L313.369 158.933V131.309L299.167 129.933ZM263.845 145.085C263.845 152.48 261.652 159.71 257.543 165.859C253.435 172.008 247.595 176.801 240.762 179.631C233.93 182.461 226.411 183.201 219.158 181.759C211.904 180.316 205.242 176.755 200.012 171.525C194.783 166.296 191.222 159.633 189.779 152.38C188.336 145.126 189.076 137.608 191.907 130.775C194.737 123.943 199.529 118.103 205.679 113.994C211.828 109.885 219.057 107.692 226.453 107.692C231.367 107.691 236.234 108.658 240.774 110.539C245.315 112.419 249.44 115.177 252.914 118.653C256.388 122.129 259.142 126.256 261.02 130.798C262.898 135.339 263.862 140.207 263.857 145.121L263.845 145.085Z" fill="#F0F0F0"/>
<path d="M378.385 262.524L379.347 272.743H399.2L400.163 262.536C406.676 261.16 412.873 258.573 418.432 254.911L426.423 261.476L440.454 247.445L433.889 239.552C437.558 233.975 440.145 227.756 441.513 221.221L451.72 220.259V200.406L441.513 199.444C440.137 192.93 437.551 186.733 433.889 181.174L440.454 173.245L426.423 159.165L418.493 165.73C412.934 162.067 406.737 159.481 400.223 158.105L399.261 147.886H379.408L378.446 158.105C371.911 159.474 365.693 162.06 360.115 165.73L352.125 159.165L338.094 173.196L344.695 181.089C341.033 186.648 338.447 192.845 337.071 199.358L326.852 200.321V220.174L337.071 221.136C338.429 227.7 341.016 233.949 344.695 239.552L338.13 247.481L352.125 261.476L360.054 254.911C365.63 258.581 371.849 261.164 378.385 262.524ZM389.274 237.116C383.956 237.116 378.759 235.539 374.339 232.583C369.918 229.627 366.475 225.427 364.443 220.513C362.412 215.599 361.884 210.193 362.927 204.979C363.969 199.765 366.535 194.977 370.3 191.222C374.065 187.468 378.86 184.914 384.077 183.886C389.294 182.857 394.698 183.4 399.607 185.445C404.515 187.49 408.706 190.945 411.65 195.373C414.594 199.801 416.157 205.003 416.143 210.32C416.123 217.434 413.284 224.249 408.247 229.272C403.21 234.296 396.387 237.116 389.274 237.116Z" fill="#F0F0F0"/>
<path d="M273.005 401.545H296.634L297.779 389.365C305.56 387.737 312.964 384.659 319.606 380.291L329.045 388.099L345.744 371.4L337.937 361.961C342.304 355.319 345.382 347.915 347.011 340.134L359.191 338.989V315.36L347.011 314.215C345.386 306.434 342.307 299.029 337.937 292.389L345.744 282.949L329.045 266.239L319.606 274.058C312.967 269.685 305.562 266.606 297.779 264.984L296.634 252.804H273.005L271.86 264.984C264.078 266.606 256.672 269.685 250.034 274.058L240.595 266.239L223.884 282.949L231.703 292.389C227.333 299.029 224.254 306.434 222.629 314.215L210.449 315.36V338.989L222.629 340.134C224.254 347.912 227.333 355.313 231.703 361.948L223.884 371.4L240.595 388.099L250.034 380.291C256.676 384.659 264.08 387.737 271.86 389.365L273.005 401.545ZM284.82 359.184C278.494 359.184 272.31 357.308 267.05 353.793C261.79 350.279 257.691 345.283 255.27 339.439C252.849 333.595 252.216 327.164 253.45 320.959C254.684 314.755 257.73 309.056 262.203 304.583C266.677 300.11 272.376 297.063 278.58 295.829C284.784 294.595 291.215 295.228 297.06 297.649C302.904 300.07 307.9 304.17 311.414 309.429C314.929 314.689 316.804 320.873 316.804 327.199C316.791 335.673 313.416 343.796 307.419 349.784C301.422 355.772 293.294 359.135 284.82 359.135V359.184Z" fill="#F0F0F0"/>
<path d="M397.13 114.391C398.1 116.06 398.552 117.978 398.429 119.903C398.307 121.829 397.616 123.675 396.443 125.207C395.271 126.739 393.67 127.889 391.843 128.51C390.017 129.132 388.047 129.197 386.184 128.698C384.32 128.198 382.646 127.157 381.375 125.706C380.104 124.255 379.292 122.459 379.043 120.545C378.793 118.632 379.117 116.688 379.974 114.959C380.831 113.231 382.181 111.795 383.854 110.835C386.088 109.553 388.739 109.207 391.226 109.874C393.714 110.54 395.837 112.164 397.13 114.391Z" fill="#F0F0F0"/>
<path d="M386.267 118.399C386.56 118.922 387.169 118.898 387.899 118.715L386.791 116.791C386.109 117.351 385.987 117.924 386.267 118.399Z" fill="#E0E0E0"/>
<path d="M389.678 119.738L390.786 121.663C391.505 121.078 391.627 120.518 391.359 120.055C391.091 119.592 390.433 119.543 389.678 119.738Z" fill="#E0E0E0"/>
<path d="M384.561 112.065C383.137 112.885 381.989 114.109 381.26 115.582C380.532 117.055 380.257 118.711 380.471 120.341C380.684 121.97 381.375 123.5 382.458 124.736C383.541 125.972 384.966 126.86 386.553 127.286C388.14 127.712 389.818 127.658 391.374 127.13C392.93 126.603 394.295 125.625 395.296 124.322C396.297 123.018 396.888 121.447 396.996 119.808C397.104 118.168 396.723 116.533 395.901 115.11C395.357 114.165 394.632 113.336 393.768 112.671C392.903 112.006 391.916 111.519 390.863 111.236C389.809 110.953 388.711 110.881 387.629 111.023C386.548 111.165 385.506 111.519 384.561 112.065ZM391.467 122.832L392.162 124.05L391.273 124.562L390.578 123.344C389.612 123.873 388.507 124.094 387.412 123.977L387.326 122.625C388.23 122.741 389.148 122.593 389.969 122.199L388.751 120.043C387.387 120.445 385.865 120.798 385 119.288C384.367 118.179 384.61 116.754 386.218 115.634L385.512 114.416L386.401 113.904L387.095 115.122C387.893 114.711 388.779 114.502 389.677 114.513L389.86 115.865C389.139 115.855 388.424 116.001 387.765 116.291L388.983 118.484C390.347 118.082 391.882 117.704 392.746 119.202C393.331 120.262 393.063 121.687 391.467 122.832Z" fill="#E0E0E0"/>
<path d="M143.42 373.979C148.97 367.23 147.998 357.259 141.248 351.709C134.499 346.159 124.528 347.132 118.979 353.881C113.429 360.63 114.401 370.601 121.15 376.151C127.9 381.7 137.87 380.728 143.42 373.979Z" fill="#F0F0F0"/>
<path d="M129.562 360.012C129.258 360.937 129.952 361.632 130.975 362.326L132.084 358.879C130.634 358.648 129.83 359.159 129.562 360.012Z" fill="#E0E0E0"/>
<path d="M131.68 365.59L130.584 369.013C132.07 369.256 132.874 368.794 133.142 367.953C133.41 367.113 132.764 366.284 131.68 365.59Z" fill="#E0E0E0"/>
<path d="M135.336 351.035C132.792 350.218 130.063 350.174 127.494 350.908C124.924 351.642 122.63 353.122 120.902 355.16C119.174 357.198 118.089 359.703 117.785 362.357C117.481 365.012 117.971 367.697 119.193 370.074C120.415 372.45 122.315 374.41 124.651 375.707C126.988 377.003 129.656 377.577 132.319 377.357C134.982 377.136 137.52 376.131 139.612 374.468C141.703 372.805 143.254 370.559 144.069 368.014C145.161 364.604 144.854 360.901 143.217 357.717C141.579 354.534 138.745 352.13 135.336 351.035ZM129.904 371.096L129.21 373.264L127.626 372.752L128.308 370.608C126.618 370.012 125.145 368.922 124.082 367.478L125.58 365.797C126.434 367.005 127.612 367.947 128.978 368.513L130.196 364.64C128.211 363.422 126.128 361.985 126.993 359.293C127.626 357.308 129.612 356.053 132.73 356.723L133.436 354.531L135.032 355.042L134.337 357.198C135.709 357.699 136.932 358.537 137.894 359.634L136.469 361.339C135.689 360.468 134.735 359.771 133.667 359.293L132.449 363.203C134.435 364.421 136.554 365.846 135.689 368.538C135.044 370.56 133.046 371.79 129.904 371.096Z" fill="#E0E0E0"/>
<path d="M508.345 293.063C516.65 290.346 521.179 281.41 518.462 273.106C515.744 264.801 506.809 260.272 498.504 262.989C490.199 265.707 485.67 274.642 488.387 282.947C491.105 291.252 500.04 295.781 508.345 293.063Z" fill="#F0F0F0"/>
<path d="M499.381 276.652C499.88 277.493 500.867 277.432 502.06 277.127L500.197 274.009C499.125 274.947 498.966 275.885 499.381 276.652Z" fill="#E0E0E0"/>
<path d="M505.021 278.759L506.861 281.853C508.079 280.891 508.213 279.977 507.762 279.222C507.311 278.467 506.239 278.431 505.021 278.759Z" fill="#E0E0E0"/>
<path d="M496.519 266.348C494.225 267.716 492.389 269.734 491.241 272.146C490.094 274.559 489.687 277.257 490.073 279.9C490.459 282.543 491.62 285.012 493.409 286.996C495.198 288.979 497.535 290.388 500.125 291.043C502.714 291.698 505.44 291.571 507.957 290.678C510.474 289.785 512.67 288.165 514.267 286.024C515.864 283.883 516.79 281.316 516.929 278.649C517.067 275.981 516.411 273.332 515.045 271.037C513.209 267.96 510.226 265.738 506.753 264.859C503.279 263.979 499.598 264.515 496.519 266.348ZM508.005 283.717L509.162 285.678L507.737 286.53L506.58 284.594C505.011 285.467 503.216 285.849 501.428 285.69L501.16 283.461C502.631 283.618 504.118 283.356 505.447 282.706L503.364 279.21C501.148 279.892 498.687 280.501 497.274 278.065C496.215 276.287 496.58 273.961 499.15 272.073L497.932 270.099L499.369 269.247L500.526 271.184C501.809 270.489 503.246 270.128 504.704 270.136L505.045 272.328C503.873 272.337 502.716 272.59 501.647 273.071L503.754 276.604C505.983 275.922 508.456 275.264 509.905 277.7C510.965 279.515 510.575 281.841 508.005 283.753V283.717Z" fill="#E0E0E0"/>
<path d="M350.615 77.7907C348.734 80.2944 346.152 82.184 343.197 83.2204C340.241 84.2568 337.045 84.3935 334.012 83.6132C330.979 82.8329 328.245 81.1707 326.157 78.8367C324.069 76.5027 322.719 73.6018 322.28 70.501C321.84 67.4001 322.33 64.2386 323.687 61.4161C325.045 58.5937 327.209 56.2372 329.905 54.6446C332.602 53.0521 335.711 52.295 338.838 52.4692C341.965 52.6434 344.97 53.741 347.473 55.6232C350.829 58.1465 353.045 61.8992 353.634 66.0563C354.223 70.2133 353.138 74.4341 350.615 77.7907Z" fill="#F0F0F0"/>
<path d="M337.682 64.0638C337.098 64.8433 337.524 65.7325 338.255 66.719L340.435 63.8202C339.144 63.126 338.218 63.3452 337.682 64.0638Z" fill="#E0E0E0"/>
<path d="M337.851 70.032L335.695 72.9064C337.011 73.6251 337.936 73.4424 338.46 72.7481C338.984 72.0539 338.606 71.0307 337.851 70.032Z" fill="#E0E0E0"/>
<path d="M346.085 57.4746C343.949 55.8694 341.386 54.9335 338.719 54.7851C336.051 54.6368 333.4 55.2827 331.1 56.6412C328.799 57.9997 326.954 60.0097 325.796 62.4172C324.638 64.8247 324.22 67.5214 324.594 70.1664C324.969 72.8114 326.12 75.286 327.901 77.2771C329.682 79.2682 332.013 80.6865 334.6 81.3527C337.187 82.0188 339.914 81.9029 342.435 81.0196C344.956 80.1362 347.159 78.5251 348.764 76.39C349.831 74.9721 350.607 73.3581 351.049 71.6401C351.492 69.9221 351.591 68.1338 351.343 66.3773C351.094 64.6207 350.501 62.9305 349.599 61.4029C348.697 59.8754 347.503 58.5405 346.085 57.4746ZM334.355 74.6726L332.991 76.4996L331.651 75.5009L333.016 73.6861C331.609 72.5749 330.573 71.0629 330.044 69.35L332.005 68.2538C332.426 69.6641 333.231 70.9293 334.331 71.9078L336.767 68.6557C335.293 66.8653 333.795 64.8191 335.549 62.5658C336.767 60.9093 339.081 60.3734 341.81 62.0299L343.186 60.1907L344.526 61.2016L343.162 63.0043C344.291 63.929 345.171 65.1226 345.719 66.4755L343.819 67.6204C343.365 66.541 342.693 65.5666 341.846 64.7582L339.41 68.0468C340.884 69.8372 342.419 71.8956 340.726 74.1367C339.398 75.8297 337.108 76.3413 334.355 74.6726Z" fill="#E0E0E0"/>
<path d="M111.207 127.801C113.065 128.783 114.59 130.293 115.589 132.142C116.588 133.99 117.017 136.093 116.82 138.185C116.624 140.276 115.812 142.263 114.486 143.893C113.161 145.523 111.381 146.724 109.374 147.342C107.366 147.961 105.22 147.97 103.206 147.369C101.193 146.768 99.4037 145.583 98.064 143.964C96.7244 142.346 95.8949 140.366 95.6805 138.276C95.466 136.186 95.8763 134.08 96.8594 132.223C98.1766 129.735 100.428 127.871 103.118 127.042C105.809 126.213 108.718 126.486 111.207 127.801Z" fill="#F0F0F0"/>
<path d="M103.534 137.813C104.119 138.13 104.655 137.752 105.239 137.156L103.022 136.023C102.706 136.949 102.949 137.533 103.534 137.813Z" fill="#E0E0E0"/>
<path d="M107.406 137.07L109.55 138.203C109.879 137.253 109.672 136.656 109.148 136.388C108.624 136.12 108.003 136.461 107.406 137.07Z" fill="#E0E0E0"/>
<path d="M98.2216 132.941C97.3789 134.527 97.0255 136.327 97.2062 138.113C97.3869 139.9 98.0936 141.592 99.2367 142.977C100.38 144.362 101.908 145.376 103.628 145.892C105.348 146.407 107.182 146.401 108.899 145.874C110.615 145.347 112.136 144.322 113.27 142.93C114.404 141.538 115.099 139.84 115.268 138.053C115.437 136.265 115.071 134.468 114.218 132.888C113.365 131.308 112.062 130.017 110.475 129.178C108.35 128.055 105.867 127.82 103.57 128.526C101.273 129.232 99.3494 130.819 98.2216 132.941ZM110.84 138.897L112.192 139.616L111.668 140.603L110.328 139.896C109.736 140.947 108.84 141.796 107.758 142.332L106.833 141.114C107.731 140.687 108.49 140.016 109.025 139.177L106.589 137.899C105.554 139.117 104.348 140.274 102.679 139.385C101.461 138.739 100.84 137.277 101.656 135.292L100.292 134.573L100.816 133.587L102.156 134.293C102.652 133.449 103.351 132.741 104.19 132.235L105.152 133.38C104.503 133.804 103.951 134.36 103.532 135.012L105.968 136.303C107.003 135.085 108.197 133.867 109.866 134.781C111.084 135.438 111.668 136.9 110.84 138.897Z" fill="#E0E0E0"/>
<path d="M301.52 223.28C303.285 224.216 304.734 225.655 305.682 227.414C306.63 229.173 307.036 231.174 306.848 233.164C306.659 235.153 305.885 237.042 304.624 238.592C303.362 240.142 301.67 241.284 299.76 241.872C297.85 242.461 295.808 242.47 293.893 241.899C291.978 241.327 290.275 240.201 289 238.663C287.725 237.124 286.934 235.242 286.728 233.254C286.522 231.266 286.909 229.262 287.842 227.494C289.097 225.122 291.243 223.345 293.808 222.555C296.373 221.764 299.147 222.025 301.52 223.28Z" fill="#F0F0F0"/>
<path d="M294.149 232.829C294.709 233.121 295.221 232.756 295.769 232.196L293.723 231.112C293.418 231.989 293.65 232.561 294.149 232.829Z" fill="#E0E0E0"/>
<path d="M297.9 232.11L299.934 233.194C300.251 232.281 300.044 231.721 299.557 231.465C299.07 231.209 298.412 231.526 297.9 232.11Z" fill="#E0E0E0"/>
<path d="M289.155 228.176C288.354 229.685 288.018 231.398 288.19 233.097C288.363 234.797 289.035 236.407 290.123 237.725C291.211 239.042 292.665 240.007 294.301 240.498C295.937 240.989 297.682 240.984 299.316 240.482C300.949 239.981 302.397 239.007 303.476 237.682C304.555 236.358 305.218 234.744 305.379 233.043C305.54 231.342 305.194 229.632 304.383 228.128C303.572 226.624 302.333 225.395 300.824 224.595C298.801 223.528 296.437 223.305 294.25 223.976C292.063 224.647 290.231 226.157 289.155 228.176ZM301.189 233.852L302.48 234.534L301.981 235.484L300.702 234.802C300.138 235.798 299.29 236.604 298.266 237.116L297.377 235.984C298.234 235.579 298.96 234.942 299.472 234.144L297.17 232.926C296.183 234.047 295.05 235.192 293.443 234.339C292.225 233.718 291.701 232.33 292.48 230.442L291.177 229.76L291.677 228.81L292.895 229.492C293.364 228.685 294.031 228.01 294.831 227.531L295.745 228.615C295.108 229.009 294.561 229.532 294.137 230.149L296.463 231.367C297.45 230.259 298.583 229.078 300.178 229.918C301.408 230.551 301.956 231.952 301.189 233.852Z" fill="#E0E0E0"/>
<path d="M451.087 353.861C449.686 358.197 447.032 362.022 443.459 364.85C439.886 367.679 435.555 369.386 431.013 369.755C426.47 370.124 421.921 369.138 417.938 366.923C413.956 364.707 410.719 361.362 408.637 357.308C406.555 353.254 405.721 348.674 406.24 344.147C406.759 339.619 408.608 335.347 411.554 331.87C414.5 328.393 418.41 325.867 422.79 324.611C427.171 323.354 431.826 323.424 436.166 324.812C439.055 325.737 441.733 327.223 444.047 329.184C446.361 331.145 448.266 333.544 449.651 336.242C451.037 338.94 451.877 341.885 452.124 344.908C452.37 347.932 452.018 350.974 451.087 353.861Z" fill="#F0F0F0"/>
<path d="M426.715 341.157C426.289 342.509 427.3 343.52 428.786 344.531L430.394 339.501C428.287 339.172 427.117 339.915 426.715 341.157Z" fill="#E0E0E0"/>
<path d="M429.821 349.281L428.213 354.275C430.369 354.628 431.562 353.946 431.952 352.74C432.342 351.534 431.355 350.304 429.821 349.281Z" fill="#E0E0E0"/>
<path d="M435.132 328.076C431.425 326.889 427.449 326.827 423.707 327.899C419.964 328.972 416.624 331.13 414.108 334.1C411.592 337.071 410.014 340.721 409.572 344.589C409.131 348.456 409.846 352.368 411.628 355.829C413.41 359.29 416.178 362.146 419.582 364.034C422.986 365.922 426.874 366.758 430.754 366.436C434.633 366.115 438.33 364.65 441.377 362.227C444.424 359.805 446.685 356.533 447.872 352.826C448.663 350.364 448.96 347.771 448.747 345.194C448.535 342.618 447.816 340.109 446.633 337.81C445.45 335.511 443.825 333.468 441.851 331.798C439.878 330.128 437.595 328.863 435.132 328.076ZM427.227 357.308L426.217 360.475L423.902 359.732L424.901 356.589C422.432 355.732 420.282 354.143 418.738 352.034L420.918 349.598C422.164 351.359 423.883 352.731 425.875 353.557L427.69 347.905C424.804 346.139 421.771 344.044 423.025 340.122C423.951 337.248 426.838 335.396 431.381 336.383L432.404 333.192L434.718 333.935L433.719 337.077C435.715 337.812 437.495 339.034 438.896 340.634L436.825 343.07C435.69 341.796 434.3 340.775 432.745 340.073L430.906 345.774C433.805 347.552 436.898 349.635 435.644 353.557C434.718 356.48 431.807 358.331 427.227 357.357V357.308Z" fill="#E0E0E0"/>
<path d="M103.712 276.315C115.71 272.048 121.976 258.863 117.709 246.865C113.441 234.868 100.256 228.601 88.2585 232.869C76.261 237.136 69.9946 250.321 74.2619 262.319C78.5293 274.316 91.7146 280.583 103.712 276.315Z" fill="#F0F0F0"/>
<path d="M98.1488 248.821C96.9308 249.516 96.9308 250.941 97.3206 252.695L101.949 250.149C100.646 248.456 99.2938 248.2 98.1488 248.821Z" fill="#E0E0E0"/>
<path d="M94.813 256.848L90.209 259.381C91.5366 261.123 92.8642 261.44 93.9848 260.818C95.1053 260.197 95.2271 258.65 94.813 256.848Z" fill="#E0E0E0"/>
<path d="M113.278 245.106C111.402 241.695 108.557 238.917 105.103 237.123C101.649 235.329 97.74 234.599 93.8709 235.026C90.0019 235.453 86.3464 237.018 83.3665 239.522C80.3867 242.027 78.2163 245.359 77.1299 249.096C76.0434 252.834 76.0897 256.81 77.2628 260.522C78.4359 264.233 80.6831 267.514 83.7204 269.948C86.7577 272.383 90.4487 273.862 94.3266 274.199C98.2045 274.536 102.095 273.715 105.507 271.841C110.081 269.325 113.469 265.095 114.926 260.082C116.383 255.069 115.79 249.683 113.278 245.106ZM87.3954 260.94L84.4844 262.536L83.2664 260.404L86.1531 258.821C84.957 256.496 84.49 253.864 84.8133 251.269L88.0775 250.989C87.7668 253.126 88.0754 255.307 88.9666 257.274L94.1553 254.424C93.2783 251.148 92.511 247.542 96.1284 245.557C98.7715 244.095 102.145 244.753 104.764 248.59L107.699 246.982L108.917 249.114L105.97 250.697C106.914 252.606 107.366 254.72 107.285 256.848L104.082 257.213C104.123 255.507 103.812 253.812 103.168 252.232L97.9189 255.118C98.7958 258.395 99.6241 262.036 96.0066 264.022C93.388 265.483 90.0385 264.789 87.3711 260.94H87.3954Z" fill="#E0E0E0"/>
<path d="M304.502 454.601C434.928 454.601 540.659 448.428 540.659 440.814C540.659 433.199 434.928 427.026 304.502 427.026C174.077 427.026 68.3457 433.199 68.3457 440.814C68.3457 448.428 174.077 454.601 304.502 454.601Z" fill="#F5F5F5"/>
<path d="M467.967 63.9055H463.095C449.697 63.9055 438.82 77.0233 438.82 93.2104C438.82 109.398 449.685 122.515 463.095 122.515H467.967C481.365 122.515 492.254 109.398 492.254 93.2104C492.254 77.0233 481.377 63.9055 467.967 63.9055Z" fill="#2A8BE9"/>
<path opacity="0.2" d="M467.967 63.9055H463.095C449.697 63.9055 438.82 77.0233 438.82 93.2104C438.82 109.398 449.685 122.515 463.095 122.515H467.967C481.365 122.515 492.254 109.398 492.254 93.2104C492.254 77.0233 481.377 63.9055 467.967 63.9055Z" fill="black"/>
<path d="M463.084 122.515C476.497 122.515 487.37 109.395 487.37 93.2104C487.37 77.0258 476.497 63.9055 463.084 63.9055C449.67 63.9055 438.797 77.0258 438.797 93.2104C438.797 109.395 449.67 122.515 463.084 122.515Z" fill="#2A8BE9"/>
<path opacity="0.3" d="M463.084 118.228C474.533 118.228 483.814 107.027 483.814 93.2105C483.814 79.3936 474.533 68.1929 463.084 68.1929C451.635 68.1929 442.354 79.3936 442.354 93.2105C442.354 107.027 451.635 118.228 463.084 118.228Z" fill="white"/>
<path d="M464.568 106.694V110.92H462.01V106.791C459.176 106.661 456.474 105.555 454.361 103.661L455.762 99.8485C457.479 101.455 459.672 102.46 462.01 102.711V95.1836C458.539 94.1605 454.824 92.7476 454.824 87.5712C454.824 83.7223 457.138 80.3728 462.01 79.8004V75.5496H464.568V79.7273C466.862 79.8618 469.067 80.6618 470.914 82.0293L469.635 85.8294C468.133 84.7565 466.395 84.059 464.568 83.7954V91.4078C468.039 92.4309 471.815 93.7464 471.815 98.9838C471.815 102.784 469.477 106.097 464.568 106.694ZM462.01 90.5674V83.8563C461.145 83.9155 460.334 84.3048 459.747 84.944C459.16 85.5832 458.841 86.4233 458.856 87.291C458.856 89.1058 460.196 89.9341 462.01 90.5674ZM467.82 99.2761C467.82 97.4247 466.444 96.56 464.568 95.9266V102.589C466.846 102.175 467.82 100.896 467.82 99.2761Z" fill="#2A8BE9"/>
<path d="M501.453 141.151H434.829C433.33 141.151 431.893 141.746 430.833 142.806C429.773 143.866 429.178 145.303 429.178 146.802V440.521H507.129V146.802C507.131 146.057 506.985 145.32 506.7 144.632C506.415 143.944 505.997 143.319 505.469 142.794C504.941 142.268 504.315 141.853 503.626 141.571C502.936 141.289 502.198 141.146 501.453 141.151Z" fill="#2A8BE9"/>
<path opacity="0.1" d="M501.453 141.151H434.829C433.33 141.151 431.893 141.746 430.833 142.806C429.773 143.866 429.178 145.303 429.178 146.802V440.521H507.129V146.802C507.131 146.057 506.985 145.32 506.7 144.632C506.415 143.944 505.997 143.319 505.469 142.794C504.941 142.268 504.315 141.853 503.626 141.571C502.936 141.289 502.198 141.146 501.453 141.151Z" fill="white"/>
<path opacity="0.3" d="M434.828 141.151H497.847C499.346 141.151 500.784 141.746 501.843 142.806C502.903 143.866 503.499 145.303 503.499 146.802V440.521H429.201V146.802C429.201 145.307 429.793 143.874 430.848 142.815C431.902 141.755 433.334 141.157 434.828 141.151Z" fill="white"/>
<path d="M388.959 238.651H322.286C320.796 238.664 319.371 239.265 318.322 240.323C317.272 241.382 316.684 242.812 316.684 244.302V296.031H351.275C350.397 295.155 349.702 294.115 349.229 292.969C348.757 291.823 348.516 290.595 348.522 289.356C348.497 287.254 349.193 285.207 350.494 283.556C351.795 281.905 353.622 280.749 355.672 280.282C357.72 280.75 359.546 281.906 360.844 283.557C362.143 285.208 362.837 287.255 362.809 289.356C362.816 290.594 362.578 291.822 362.107 292.968C361.637 294.113 360.944 295.154 360.069 296.031H394.635V244.302C394.637 243.558 394.491 242.82 394.206 242.132C393.921 241.444 393.503 240.819 392.975 240.294C392.447 239.768 391.821 239.353 391.131 239.071C390.442 238.789 389.704 238.646 388.959 238.651Z" fill="#2A8BE9"/>
<path d="M363.674 352.156H360.02C360.895 353.032 361.588 354.073 362.059 355.219C362.529 356.364 362.767 357.592 362.76 358.83C362.788 360.931 362.095 362.978 360.796 364.629C359.497 366.28 357.671 367.436 355.623 367.904C353.574 367.437 351.746 366.281 350.445 364.63C349.144 362.979 348.448 360.932 348.473 358.83C348.468 357.591 348.708 356.363 349.181 355.217C349.653 354.071 350.348 353.031 351.226 352.156H316.684V440.521H394.635V352.156H363.674Z" fill="#2A8BE9"/>
<path opacity="0.1" d="M388.959 238.651H322.286C320.796 238.664 319.371 239.265 318.322 240.323C317.272 241.382 316.684 242.812 316.684 244.302V296.031H351.275C350.397 295.155 349.702 294.115 349.229 292.969C348.757 291.823 348.516 290.595 348.522 289.356C348.497 287.254 349.193 285.207 350.494 283.556C351.795 281.905 353.622 280.749 355.672 280.282C357.72 280.75 359.546 281.906 360.844 283.557C362.143 285.208 362.837 287.255 362.809 289.356C362.816 290.594 362.578 291.822 362.107 292.968C361.637 294.113 360.944 295.154 360.069 296.031H394.635V244.302C394.637 243.558 394.491 242.82 394.206 242.132C393.921 241.444 393.503 240.819 392.975 240.294C392.447 239.768 391.821 239.353 391.131 239.071C390.442 238.789 389.704 238.646 388.959 238.651Z" fill="white"/>
<path opacity="0.1" d="M363.674 352.156H360.02C360.895 353.032 361.588 354.073 362.059 355.219C362.529 356.364 362.767 357.592 362.76 358.83C362.788 360.931 362.095 362.978 360.796 364.629C359.497 366.28 357.671 367.436 355.623 367.904C353.574 367.437 351.746 366.281 350.445 364.63C349.144 362.979 348.448 360.932 348.473 358.83C348.468 357.591 348.708 356.363 349.181 355.217C349.653 354.071 350.348 353.031 351.226 352.156H316.684V440.521H394.635V352.156H363.674Z" fill="white"/>
<path opacity="0.3" d="M360.02 352.156C360.895 353.032 361.588 354.073 362.059 355.219C362.529 356.364 362.767 357.592 362.76 358.83C362.805 360.036 362.606 361.239 362.175 362.366C361.744 363.493 361.09 364.522 360.253 365.39C359.416 366.259 358.412 366.95 357.301 367.422C356.191 367.894 354.996 368.138 353.79 368.138C352.583 368.138 351.389 367.894 350.278 367.422C349.168 366.95 348.164 366.259 347.327 365.39C346.489 364.522 345.836 363.493 345.405 362.366C344.974 361.239 344.775 360.036 344.819 358.83C344.814 357.591 345.054 356.363 345.527 355.217C345.999 354.071 346.694 353.031 347.572 352.156H316.684V440.521H390.981V352.156H360.02Z" fill="white"/>
<path opacity="0.3" d="M316.684 244.302V296.031H347.621C346.743 295.155 346.048 294.115 345.575 292.969C345.103 291.823 344.862 290.595 344.868 289.356C344.824 288.15 345.023 286.948 345.453 285.821C345.884 284.693 346.538 283.665 347.375 282.796C348.213 281.927 349.217 281.236 350.327 280.764C351.438 280.292 352.632 280.049 353.838 280.049C355.045 280.049 356.239 280.292 357.35 280.764C358.46 281.236 359.464 281.927 360.302 282.796C361.139 283.665 361.793 284.693 362.224 285.821C362.654 286.948 362.853 288.15 362.809 289.356C362.816 290.594 362.578 291.822 362.107 292.968C361.637 294.113 360.944 295.154 360.069 296.031H390.981V244.302C390.983 243.561 390.838 242.826 390.555 242.141C390.273 241.455 389.858 240.832 389.334 240.307C388.81 239.782 388.188 239.365 387.503 239.081C386.818 238.797 386.083 238.651 385.342 238.651H322.286C320.796 238.664 319.371 239.265 318.322 240.323C317.272 241.382 316.684 242.812 316.684 244.302Z" fill="white"/>
<path d="M221.459 125.305H190.498C189.246 125.303 188.006 125.548 186.849 126.026C185.692 126.504 184.641 127.205 183.755 128.09C182.869 128.975 182.167 130.025 181.687 131.182C181.208 132.338 180.961 133.577 180.961 134.829V166.095C180.961 168.622 181.964 171.046 183.75 172.834C185.536 174.623 187.958 175.629 190.486 175.632H202.739L205.979 184.158L209.206 175.632H221.459C223.986 175.629 226.409 174.623 228.195 172.834C229.981 171.046 230.984 168.622 230.984 166.095V134.805C230.977 132.283 229.971 129.867 228.186 128.086C226.4 126.305 223.981 125.305 221.459 125.305Z" fill="#2A8BE9"/>
<path opacity="0.4" d="M221.459 125.305H190.498C189.246 125.303 188.006 125.548 186.849 126.026C185.692 126.504 184.641 127.205 183.755 128.09C182.869 128.975 182.167 130.025 181.687 131.182C181.208 132.338 180.961 133.577 180.961 134.829V166.095C180.961 168.622 181.964 171.046 183.75 172.834C185.536 174.623 187.958 175.629 190.486 175.632H202.739L205.979 184.158L209.206 175.632H221.459C223.986 175.629 226.409 174.623 228.195 172.834C229.981 171.046 230.984 168.622 230.984 166.095V134.805C230.977 132.283 229.971 129.867 228.186 128.086C226.4 126.305 223.981 125.305 221.459 125.305Z" fill="white"/>
<path d="M206.132 169.974C208.978 169.953 211.274 168.573 211.262 166.891C211.249 165.209 208.933 163.863 206.088 163.884C203.242 163.905 200.946 165.285 200.958 166.966C200.97 168.648 203.287 169.994 206.132 169.974Z" fill="#263238"/>
<path opacity="0.4" d="M206.132 169.974C208.978 169.953 211.274 168.573 211.262 166.891C211.249 165.209 208.933 163.863 206.088 163.884C203.242 163.905 200.946 165.285 200.958 166.966C200.97 168.648 203.287 169.994 206.132 169.974Z" fill="white"/>
<path d="M213.457 161.284C213.731 161.017 213.892 160.655 213.908 160.273C213.908 158.629 210.375 157.313 206.052 157.35C201.728 157.387 198.232 158.738 198.244 160.395C198.265 160.775 198.431 161.132 198.707 161.394C198.631 161.558 198.589 161.736 198.585 161.917C198.594 162.105 198.641 162.29 198.722 162.459C198.804 162.629 198.919 162.78 199.06 162.904C198.975 163.07 198.929 163.253 198.926 163.44C198.938 163.628 198.987 163.813 199.071 163.982C199.154 164.152 199.271 164.303 199.413 164.427C199.317 164.593 199.267 164.782 199.267 164.975C199.28 165.162 199.331 165.346 199.417 165.513C199.503 165.681 199.622 165.829 199.767 165.949C199.668 166.115 199.613 166.304 199.608 166.497C199.608 167.873 202.544 168.933 206.137 168.933C209.73 168.933 212.641 167.715 212.629 166.4C212.625 166.205 212.566 166.015 212.458 165.852C212.604 165.733 212.722 165.585 212.806 165.417C212.89 165.249 212.938 165.065 212.945 164.877C212.948 164.683 212.893 164.492 212.787 164.329C213.014 164.159 213.175 163.916 213.242 163.64C213.309 163.364 213.277 163.074 213.152 162.819C213.429 162.557 213.595 162.2 213.615 161.82C213.605 161.632 213.551 161.448 213.457 161.284Z" fill="#263238"/>
<path d="M219.839 146.595C219.829 144.253 219.227 141.952 218.088 139.906C216.948 137.86 215.309 136.136 213.323 134.895C211.337 133.654 209.068 132.936 206.73 132.809C204.391 132.682 202.059 133.15 199.95 134.168C197.841 135.187 196.025 136.723 194.67 138.633C193.316 140.544 192.468 142.767 192.205 145.094C191.942 147.421 192.273 149.777 193.167 151.941C194.061 154.106 195.489 156.009 197.318 157.472C197.611 157.706 197.843 158.008 197.994 158.352C198.145 158.695 198.209 159.071 198.183 159.445C198.177 159.481 198.177 159.518 198.183 159.555C198.183 161.223 201.764 162.563 206.161 162.527C210.557 162.49 214.102 161.114 214.09 159.433V159.323C214.057 158.949 214.117 158.572 214.263 158.226C214.41 157.88 214.639 157.575 214.93 157.338C216.489 156.019 217.737 154.373 218.586 152.516C219.434 150.658 219.862 148.637 219.839 146.595Z" fill="#2A8BE9"/>
<path opacity="0.9" d="M219.839 146.595C219.829 144.253 219.227 141.952 218.088 139.906C216.948 137.86 215.309 136.136 213.323 134.895C211.337 133.654 209.068 132.936 206.73 132.809C204.391 132.682 202.059 133.15 199.95 134.168C197.841 135.187 196.025 136.723 194.67 138.633C193.316 140.544 192.468 142.767 192.205 145.094C191.942 147.421 192.273 149.777 193.167 151.941C194.061 154.106 195.489 156.009 197.318 157.472C197.611 157.706 197.843 158.008 197.994 158.352C198.145 158.695 198.209 159.071 198.183 159.445C198.177 159.481 198.177 159.518 198.183 159.555C198.183 161.223 201.764 162.563 206.161 162.527C210.557 162.49 214.102 161.114 214.09 159.433V159.323C214.057 158.949 214.117 158.572 214.263 158.226C214.41 157.88 214.639 157.575 214.93 157.338C216.489 156.019 217.737 154.373 218.586 152.516C219.434 150.658 219.862 148.637 219.839 146.595Z" fill="white"/>
<g opacity="0.2">
<path d="M203.227 160.614C203.095 160.614 202.967 160.562 202.874 160.468C202.78 160.374 202.728 160.247 202.728 160.115C202.728 155.34 198.818 151.686 198.781 151.65C198.712 151.581 198.665 151.493 198.645 151.397C198.625 151.301 198.634 151.202 198.67 151.111C198.707 151.02 198.769 150.942 198.849 150.886C198.93 150.83 199.025 150.799 199.122 150.797H201.4L202.094 149.141C202.128 149.054 202.186 148.978 202.262 148.924C202.337 148.87 202.427 148.84 202.521 148.836C202.614 148.828 202.708 148.848 202.791 148.894C202.873 148.939 202.94 149.008 202.983 149.092L204.287 151.443L205.505 149.068C205.552 148.99 205.618 148.924 205.697 148.878C205.775 148.831 205.864 148.804 205.955 148.8C206.046 148.806 206.133 148.835 206.21 148.884C206.286 148.933 206.35 149 206.394 149.08L207.685 151.735L208.903 149.068C208.945 148.983 209.008 148.911 209.088 148.859C209.167 148.808 209.259 148.779 209.353 148.775C209.45 148.779 209.543 148.809 209.623 148.863C209.702 148.917 209.765 148.992 209.804 149.08L210.523 150.736H212.8C212.908 150.738 213.013 150.774 213.099 150.84C213.184 150.906 213.246 150.998 213.275 151.102C213.305 151.206 213.299 151.317 213.26 151.418C213.22 151.52 213.149 151.605 213.056 151.662C209.804 153.586 208.891 160.127 208.878 160.188C208.852 160.311 208.78 160.419 208.677 160.491C208.574 160.563 208.448 160.594 208.323 160.577C208.199 160.56 208.085 160.497 208.005 160.4C207.925 160.303 207.885 160.179 207.892 160.054C207.892 159.798 208.671 154.475 211.375 151.747H210.157C210.06 151.75 209.964 151.724 209.881 151.672C209.798 151.62 209.733 151.544 209.694 151.455L209.28 150.505L208.062 153.123C208.021 153.208 207.957 153.279 207.877 153.328C207.798 153.378 207.706 153.404 207.612 153.404C207.518 153.401 207.428 153.374 207.348 153.325C207.269 153.276 207.204 153.206 207.161 153.123L205.833 150.42L204.615 152.746C204.572 152.824 204.508 152.889 204.431 152.934C204.354 152.979 204.266 153.002 204.177 153.002C203.994 153.002 203.824 152.904 203.739 152.746L202.521 150.493L202.106 151.504C202.067 151.593 202.002 151.67 201.92 151.724C201.838 151.778 201.742 151.807 201.644 151.808H200.182C202.261 154.107 203.48 157.055 203.629 160.151C203.629 160.282 203.578 160.407 203.487 160.5C203.396 160.594 203.272 160.648 203.142 160.651L203.227 160.614Z" fill="black"/>
</g>
<path d="M163.969 415.37H97.3078C96.5641 415.368 95.8275 415.513 95.1403 415.798C94.4531 416.082 93.8289 416.499 93.3037 417.026C92.7784 417.552 92.3624 418.177 92.0797 418.865C91.797 419.553 91.6531 420.29 91.6563 421.033V440.521H169.608V421.033C169.611 420.291 169.468 419.555 169.186 418.868C168.904 418.181 168.489 417.556 167.965 417.03C167.441 416.504 166.818 416.086 166.132 415.801C165.446 415.516 164.711 415.37 163.969 415.37Z" fill="#2A8BE9"/>
<path opacity="0.1" d="M163.969 415.37H97.3078C96.5641 415.368 95.8275 415.513 95.1403 415.798C94.4531 416.082 93.8289 416.499 93.3037 417.026C92.7784 417.552 92.3624 418.177 92.0797 418.865C91.797 419.553 91.6531 420.29 91.6563 421.033V440.521H169.608V421.033C169.611 420.291 169.468 419.555 169.186 418.868C168.904 418.181 168.489 417.556 167.965 417.03C167.441 416.504 166.818 416.086 166.132 415.801C165.446 415.516 164.711 415.37 163.969 415.37Z" fill="white"/>
<path opacity="0.3" d="M97.3068 415.37H160.326C161.825 415.37 163.262 415.965 164.322 417.025C165.382 418.085 165.977 419.522 165.977 421.021V440.521H91.6797V421.033C91.6765 419.537 92.2671 418.1 93.3221 417.038C94.377 415.976 95.8101 415.376 97.3068 415.37Z" fill="white"/>
<path d="M276.487 355.14H209.79C209.048 355.14 208.314 355.286 207.629 355.57C206.944 355.854 206.322 356.271 205.798 356.796C205.274 357.321 204.859 357.944 204.576 358.63C204.293 359.315 204.149 360.05 204.15 360.791V440.521H282.102V360.743C282.089 359.259 281.493 357.839 280.443 356.791C279.392 355.742 277.971 355.149 276.487 355.14Z" fill="#2A8BE9"/>
<path opacity="0.1" d="M276.487 355.14H209.79C209.048 355.14 208.314 355.286 207.629 355.57C206.944 355.854 206.322 356.271 205.798 356.796C205.274 357.321 204.859 357.944 204.576 358.63C204.293 359.315 204.149 360.05 204.15 360.791V440.521H282.102V360.743C282.089 359.259 281.493 357.839 280.443 356.791C279.392 355.742 277.971 355.149 276.487 355.14Z" fill="white"/>
<path opacity="0.3" d="M209.79 355.14H272.834C274.332 355.14 275.77 355.735 276.83 356.795C277.89 357.855 278.485 359.292 278.485 360.791V440.521H204.188V360.743C204.2 359.261 204.795 357.843 205.843 356.795C206.891 355.747 208.308 355.153 209.79 355.14Z" fill="white"/>
<path d="M225.221 244.156C229.825 247.043 238.497 264.399 238.497 264.399L230.861 270.319L220.459 258.577L225.221 244.156Z" fill="#263238"/>
<path opacity="0.4" d="M238.497 264.399L230.861 270.319L225.112 263.912L220.459 258.577L222.164 253.474L225.282 244.156C229.825 247.043 238.497 264.399 238.497 264.399Z" fill="white"/>
<path opacity="0.2" d="M225.112 263.912L220.459 258.577L222.164 253.474C223.628 256.799 224.621 260.312 225.112 263.912Z" fill="black"/>
<path d="M216.525 300.695L184.967 296.116L188.353 261.647L220.386 265.154L216.525 300.695Z" fill="#263238"/>
<path opacity="0.3" d="M216.525 300.695L184.967 296.116L188.353 261.647L220.386 265.154L216.525 300.695Z" fill="white"/>
<path d="M171.593 351.936L196.403 353.654L195.843 344.02L169.035 346.76" fill="#FFC2BC"/>
<path d="M165.37 343.191L164.992 344.543L166.551 345.384C164.767 347.355 163.26 349.56 162.069 351.936C160.849 354.646 160.162 357.566 160.047 360.536C160.047 360.536 161.338 362.838 164.31 357.88C164.452 357.64 164.62 357.416 164.809 357.21C166.977 354.774 172.665 351.949 172.665 351.949L174.444 345.761C174.208 345.494 173.956 345.242 173.688 345.006C172.602 343.968 171.252 343.25 169.784 342.93C168.316 342.61 166.789 342.7 165.37 343.191Z" fill="#263238"/>
<path d="M173.688 345.006C174.357 346.09 169.303 348.66 167.159 350.999C165.259 353.081 163.944 355.651 164.821 357.223C166.989 354.787 174.126 351.912 174.126 351.912L175.551 346.943C175.551 346.943 174.175 345.518 173.688 345.006Z" fill="#FFC2BC"/>
<path d="M210.606 282.852L214.101 298.99C214.101 298.99 246.22 330.122 246.086 342.229C246.086 344.738 248.643 352.363 229.119 354.738C219.265 355.956 179.486 353.008 179.486 353.008V344.3C179.486 344.3 207.098 340.049 221.921 339.769L189.193 310.61L178.158 296.567L186.684 276.945L210.606 282.852Z" fill="#263238"/>
<path opacity="0.2" d="M229.119 354.738C224.048 355.093 218.959 355.142 213.882 354.884C198.828 354.433 179.486 353.008 179.486 353.008V344.3C179.486 344.3 198.73 341.34 213.711 340.195C216.683 339.976 219.473 339.817 221.921 339.769L210.776 329.842L189.193 310.61L184.967 305.227L178.158 296.567L186.684 276.945L210.642 282.876L214.138 299.015C214.138 299.015 246.256 330.147 246.122 342.253C246.037 344.738 248.643 352.363 229.119 354.738Z" fill="white"/>
<path opacity="0.2" d="M189.193 310.586L184.967 305.202L193.042 300.208C193.042 300.208 203.566 309.648 210.776 329.818L189.193 310.586Z" fill="black"/>
<path opacity="0.2" d="M213.881 354.884C198.826 354.434 179.484 353.008 179.484 353.008V344.3C179.484 344.3 198.729 341.34 213.71 340.195C214.447 345.06 214.505 350.004 213.881 354.884Z" fill="black"/>
<path d="M144.724 414.724H146.124L146.563 413.007L151.13 415.236L162.847 415.577C162.847 415.577 164.76 413.762 159.193 412.105C158.921 412.018 158.656 411.908 158.402 411.777C155.466 410.291 151.374 405.455 151.374 405.455L144.943 405.272C143.996 406.65 143.469 408.272 143.423 409.942C143.378 411.613 143.817 413.261 144.687 414.688L144.724 414.724Z" fill="#263238"/>
<path d="M144.432 406.222C145.309 405.297 149.048 409.572 151.837 411.094C154.273 412.422 157.147 413.068 158.439 411.825C155.503 410.339 151.009 404.115 151.009 404.115L145.832 403.957C145.832 403.957 144.748 405.626 144.432 406.222Z" fill="#FFC2BC"/>
<path d="M151.41 405.492L169.205 388.135L161.654 382.13L145.832 403.945" fill="#FFC2BC"/>
<path d="M208.888 346.736C206.744 332.241 202.359 313.643 198.705 299.234L197.061 280.964L179.485 277.931C179.485 277.931 170.959 293.022 174.894 307.273C177.914 318.356 184.638 331.827 193.492 347.673C174.163 363.069 158.256 382.922 149.23 396.478C149.958 397.71 150.879 398.817 151.959 399.755C153.198 400.954 154.67 401.886 156.283 402.495C170.472 388.927 189.899 372.045 203.589 359.244C208.169 355.115 210.033 351.681 208.888 346.736Z" fill="#263238"/>
<path opacity="0.2" d="M208.888 346.736C206.744 332.241 202.359 313.643 198.705 299.234L197.061 280.964L179.485 277.931C179.485 277.931 170.959 293.022 174.894 307.273C177.914 318.356 184.638 331.827 193.492 347.673C174.163 363.069 158.256 382.922 149.23 396.478C149.958 397.71 150.879 398.817 151.959 399.755C153.198 400.954 154.67 401.886 156.283 402.495C170.472 388.927 189.899 372.045 203.589 359.244C208.169 355.115 210.033 351.681 208.888 346.736Z" fill="white"/>
<path d="M225.22 244.156C225.22 244.156 222.54 265.776 210.604 282.852C210.604 282.852 185.148 279.649 179.484 277.98C183.004 267.554 185.111 260.587 186.573 241.026C186.926 236.312 191.201 233.596 195.866 234.437C200.457 234.75 204.988 235.651 209.35 237.116C214.773 239.149 220.073 241.5 225.22 244.156Z" fill="#2A8BE9"/>
<path opacity="0.8" d="M225.22 244.156C224.421 249.561 223.174 254.889 221.493 260.088C219.011 268.173 215.341 275.845 210.605 282.852C210.605 282.852 185.149 279.649 179.473 277.98C180.143 276.019 180.764 274.18 181.324 272.353C183.277 266.163 184.631 259.801 185.368 253.352C185.77 250.307 186.099 246.86 186.44 242.877C186.44 242.281 186.525 241.659 186.574 241.038C186.927 236.312 191.202 233.596 195.867 234.437C196.525 234.559 197.925 234.583 200.13 234.9C200.337 234.9 200.532 234.9 200.727 234.973C203.652 235.446 206.536 236.151 209.35 237.08C210.763 237.53 212.432 238.188 214.222 238.931C219.459 241.197 225.22 244.156 225.22 244.156Z" fill="white"/>
<path d="M199.62 258.638C199.303 261.33 198.938 264.192 198.463 267.237C198.389 267.676 198.341 267.919 198.341 267.919C197.854 271.013 197.257 274.277 196.55 277.663C194.986 285.267 193.014 292.78 190.643 300.172L171.082 294.569C171.082 294.569 180.448 271.427 182.714 263.79C182.973 262.909 183.184 262.015 183.347 261.111C184.175 256.726 184.492 250.953 184.979 246.069C185.393 241.927 185.942 238.407 187.026 236.897C188.999 234.157 195.552 234.461 198.828 234.729H198.95C199.498 234.729 199.948 234.839 200.253 234.887H200.728C200.983 242.821 200.612 250.763 199.62 258.638Z" fill="#263238"/>
<path d="M214.174 238.955C214.174 238.955 220.885 253.474 215.087 301.682L219.277 300.562L221.677 268.248C221.677 268.248 225.233 250.429 225.258 244.156C225.221 244.156 217.06 239.15 214.174 238.955Z" fill="#263238"/>
<path opacity="0.4" d="M199.62 258.638C199.303 261.33 198.938 264.192 198.463 267.237C198.389 267.676 198.341 267.919 198.341 267.919C197.854 271.013 197.257 274.277 196.55 277.663C194.986 285.267 193.014 292.78 190.643 300.172L171.082 294.569C171.082 294.569 180.448 271.427 182.714 263.79C182.973 262.909 183.184 262.015 183.347 261.111C184.175 256.726 184.492 250.953 184.979 246.069C185.393 241.927 185.942 238.407 187.026 236.897C188.999 234.157 195.552 234.461 198.828 234.729H198.95C199.498 234.729 199.948 234.839 200.253 234.887H200.728C200.983 242.821 200.612 250.763 199.62 258.638Z" fill="white"/>
<path opacity="0.4" d="M214.174 238.955C214.174 238.955 220.885 253.474 215.087 301.682L219.277 300.562L221.677 268.248C221.677 268.248 225.233 250.429 225.258 244.156C225.221 244.156 217.06 239.15 214.174 238.955Z" fill="white"/>
<path d="M199.753 259.04C199.242 262.901 198.718 265.983 198.535 267.298C198.462 267.737 198.413 267.98 198.413 267.98L195.393 249.296L194.492 243.547L198.828 244.571L192.445 238.956L198.828 234.766H198.949L200.253 234.924H200.728C201.787 241.026 200.752 251.477 199.753 259.04Z" fill="#263238"/>
<path d="M214.175 238.955L213.311 237.811C213.311 237.811 219.401 241.672 221.751 246.336L218.024 247.932L221.057 249.016L217.488 269.417C217.488 269.417 216.27 246.787 214.236 239.771" fill="#263238"/>
<path opacity="0.2" d="M199.753 259.04C199.242 262.901 198.718 265.983 198.535 267.298C198.462 267.737 198.413 267.98 198.413 267.98L195.393 249.296L194.492 243.547L198.828 244.571L192.445 238.956L198.828 234.766H198.949L200.253 234.924H200.728C201.787 241.026 200.752 251.477 199.753 259.04Z" fill="white"/>
<path opacity="0.2" d="M214.175 238.955L213.311 237.811C213.311 237.811 219.401 241.672 221.751 246.336L218.024 247.932L221.057 249.016L217.488 269.417C217.488 269.417 216.27 246.787 214.236 239.771" fill="white"/>
<path opacity="0.2" d="M199.753 259.04C199.242 262.901 198.718 265.983 198.535 267.298C198.462 267.737 198.413 267.98 198.413 267.98C197.926 271.074 197.329 274.338 196.623 277.724C190.898 275.958 186.404 268.163 183.42 261.172C184.248 256.787 184.565 251.014 185.052 246.13C187.914 244.912 191.142 244.205 193.042 245.789C194.029 246.808 194.851 247.975 195.478 249.248C197.123 252.27 198.536 255.414 199.705 258.651L199.753 259.04Z" fill="black"/>
<path d="M198.537 245.642C198.537 245.642 195.565 228.712 208.963 234.266C217.415 237.762 217.488 250.368 217.488 250.368L213.749 246.531C212.683 250.241 211.347 253.868 209.754 257.384C206.558 253.381 204.23 248.756 202.921 243.803L198.537 245.642Z" fill="#2A8BE9"/>
<path opacity="0.7" d="M198.537 245.642C198.537 245.642 195.565 228.712 208.963 234.266C217.415 237.762 217.488 250.368 217.488 250.368L213.749 246.531C212.683 250.241 211.347 253.868 209.754 257.384C206.558 253.381 204.23 248.756 202.921 243.803L198.537 245.642Z" fill="white"/>
<path d="M212.701 241.586C213.127 246.641 209.692 257.091 209.692 257.091C204.491 252.012 202.859 235.655 202.859 235.655C204.394 235.484 205.1 232.841 205.429 230.296C205.624 228.703 205.718 227.101 205.709 225.497L214.089 228.347C212.826 231.109 212.095 234.084 211.933 237.116C211.887 238.011 211.961 238.908 212.153 239.784C212.302 240.394 212.485 240.996 212.701 241.586Z" fill="#FFC2BC"/>
<path opacity="0.2" d="M214.091 228.347C212.828 231.108 212.096 234.084 211.935 237.116C209.113 235.565 206.832 233.19 205.395 230.308C205.589 228.716 205.683 227.113 205.675 225.509L214.091 228.347Z" fill="black"/>
<path d="M200.168 207.227C200.168 207.227 197.732 202.123 192.507 204.34C187.282 206.557 187.525 217.458 196.051 214.084C204.577 210.71 200.168 207.227 200.168 207.227Z" fill="#263238"/>
<path d="M203.224 206.8C203.224 206.8 200.264 205.522 197.134 209.163C194.004 212.805 196.135 217.044 196.952 216.593C197.768 216.142 203.638 209.102 203.224 206.8Z" fill="#2A8BE9"/>
<path d="M209.777 228.858C209.777 228.858 201.057 233.864 196.185 221.307C191.313 208.749 209.315 198.165 214.954 208.859C220.593 219.553 209.777 228.858 209.777 228.858Z" fill="#263238"/>
<path d="M199.753 218.42C202.189 225.594 203.09 228.676 207.804 231.611C214.904 236.02 223.199 231.94 222.943 224.303C222.712 217.421 218.741 206.849 210.763 205.509C209.069 205.18 207.318 205.307 205.688 205.876C204.059 206.446 202.61 207.438 201.49 208.752C200.37 210.065 199.619 211.652 199.314 213.351C199.008 215.05 199.16 216.799 199.753 218.42Z" fill="#FFC2BC"/>
<path d="M205.271 212.184C201.958 218.018 211.19 222.854 202.835 223.706C194.479 224.559 196.111 212.269 200.691 208.871C205.271 205.473 205.271 212.184 205.271 212.184Z" fill="#263238"/>
<path d="M200.68 208.956C202.446 213.828 203.445 215.046 207.72 213.012C206.908 212.099 206.439 210.932 206.392 209.712C207.005 210.874 208.051 211.749 209.303 212.147C210.425 211.461 211.617 210.897 212.86 210.467C212.519 209.803 212.336 209.069 212.324 208.323C212.795 209.108 213.485 209.739 214.309 210.138C215.687 209.952 217.086 209.993 218.45 210.26C217.659 204.925 207.854 200.577 200.68 208.956Z" fill="#263238"/>
<path d="M211.556 217.97C211.739 218.579 212.202 219.005 212.604 218.907C213.006 218.81 213.176 218.262 212.993 217.689C212.811 217.117 212.348 216.654 211.946 216.739C211.544 216.825 211.386 217.348 211.556 217.97Z" fill="#263238"/>
<path d="M219.034 216.41C219.205 217.019 219.68 217.446 220.069 217.348C220.459 217.251 220.642 216.703 220.459 216.13C220.276 215.558 219.814 215.095 219.424 215.18C219.034 215.266 218.851 215.814 219.034 216.41Z" fill="#263238"/>
<path d="M219.242 215.192L220.57 214.449C220.57 214.449 220.18 215.801 219.242 215.192Z" fill="#263238"/>
<path d="M217.256 217.884C218.203 219.167 219.312 220.322 220.557 221.319C220.306 221.61 219.993 221.84 219.641 221.992C219.288 222.144 218.906 222.213 218.523 222.196L217.256 217.884Z" fill="#D4827D"/>
<path d="M215.71 225.229C216.059 225.212 216.405 225.167 216.746 225.095C216.769 225.089 216.79 225.079 216.809 225.065C216.828 225.05 216.843 225.032 216.855 225.012C216.866 224.991 216.873 224.968 216.875 224.945C216.878 224.922 216.875 224.898 216.867 224.875C216.863 224.85 216.854 224.826 216.84 224.804C216.825 224.782 216.807 224.764 216.785 224.75C216.763 224.736 216.738 224.727 216.713 224.724C216.687 224.72 216.661 224.722 216.636 224.729C215.864 224.9 215.063 224.897 214.292 224.72C213.521 224.543 212.799 224.197 212.178 223.706C212.164 223.682 212.144 223.662 212.12 223.647C212.096 223.632 212.07 223.623 212.042 223.62C212.014 223.617 211.986 223.621 211.959 223.63C211.933 223.64 211.91 223.656 211.89 223.676C211.871 223.696 211.857 223.721 211.848 223.747C211.84 223.774 211.838 223.802 211.842 223.83C211.846 223.857 211.857 223.884 211.873 223.907C211.889 223.93 211.91 223.949 211.935 223.962C212.996 224.832 214.339 225.283 215.71 225.229Z" fill="#263238"/>
<path d="M200.01 225.643C200.407 226.25 200.926 226.767 201.534 227.161C202.142 227.555 202.826 227.818 203.542 227.933C205.332 228.14 205.783 226.069 204.931 224.181C204.163 222.488 202.312 220.345 200.692 221.014C199.072 221.684 198.901 224.035 200.01 225.643Z" fill="#FFC2BC"/>
<path d="M208.974 214.912C209.022 214.907 209.069 214.891 209.111 214.866C209.153 214.84 209.19 214.806 209.217 214.766C209.466 214.396 209.801 214.091 210.194 213.879C210.586 213.667 211.024 213.553 211.47 213.548C211.517 213.551 211.564 213.545 211.609 213.529C211.653 213.514 211.693 213.489 211.728 213.457C211.762 213.425 211.789 213.386 211.808 213.343C211.826 213.3 211.836 213.254 211.836 213.207C211.83 213.107 211.789 213.013 211.72 212.942C211.65 212.87 211.558 212.826 211.458 212.817C210.887 212.818 210.326 212.961 209.824 213.233C209.322 213.505 208.896 213.898 208.584 214.376C208.557 214.419 208.539 214.466 208.531 214.515C208.522 214.564 208.524 214.615 208.535 214.664C208.547 214.712 208.567 214.758 208.597 214.799C208.626 214.84 208.663 214.874 208.706 214.9C208.792 214.932 208.885 214.936 208.974 214.912Z" fill="#263238"/>
<path d="M220.203 212.598C220.295 212.595 220.383 212.556 220.446 212.489C220.506 212.411 220.534 212.312 220.522 212.214C220.511 212.116 220.462 212.027 220.385 211.965C219.942 211.561 219.411 211.266 218.834 211.103C218.256 210.94 217.649 210.914 217.06 211.027C217.014 211.039 216.971 211.061 216.934 211.091C216.897 211.121 216.866 211.158 216.844 211.201C216.822 211.243 216.81 211.29 216.807 211.338C216.805 211.385 216.812 211.433 216.829 211.478C216.86 211.571 216.924 211.649 217.01 211.696C217.096 211.743 217.196 211.757 217.292 211.733C217.76 211.657 218.239 211.686 218.694 211.819C219.149 211.952 219.569 212.185 219.923 212.501C219.96 212.536 220.004 212.562 220.052 212.579C220.101 212.596 220.152 212.602 220.203 212.598Z" fill="#263238"/>
<path d="M211.787 216.776L213.115 216.033C213.115 216.033 212.701 217.336 211.787 216.776Z" fill="#263238"/>
<path d="M272.247 331.352L293.733 279.502L265.621 267.858C267.032 267.252 268.276 266.314 269.247 265.125C270.218 263.935 270.888 262.529 271.2 261.026C271.605 259.281 271.482 257.455 270.846 255.781C270.211 254.106 269.092 252.659 267.631 251.623C266.643 250.953 265.525 250.499 264.35 250.29C263.175 250.08 261.969 250.119 260.81 250.405C258.912 250.342 257.042 250.867 255.453 251.906C253.864 252.946 252.634 254.45 251.931 256.214C251.17 258.045 251 260.068 251.444 262L226.195 251.537L223.759 251.769L202.273 303.607L230.385 315.263C228.973 315.867 227.728 316.802 226.755 317.989C225.782 319.176 225.109 320.581 224.794 322.084C224.39 323.829 224.515 325.656 225.153 327.33C225.79 329.005 226.912 330.452 228.375 331.486C229.363 332.156 230.481 332.61 231.656 332.82C232.831 333.029 234.037 332.99 235.196 332.704C237.094 332.767 238.964 332.242 240.553 331.203C242.142 330.163 243.372 328.659 244.075 326.895C244.835 325.064 245.006 323.041 244.562 321.109L269.811 331.572L272.247 331.352Z" fill="#2A8BE9"/>
<path opacity="0.3" d="M272.247 331.352L293.733 279.502L265.621 267.858C267.032 267.252 268.276 266.314 269.247 265.125C270.218 263.935 270.888 262.529 271.2 261.026C271.605 259.281 271.482 257.455 270.846 255.781C270.211 254.106 269.092 252.659 267.631 251.623C266.643 250.953 265.525 250.499 264.35 250.29C263.175 250.08 261.969 250.119 260.81 250.405C258.912 250.342 257.042 250.867 255.453 251.906C253.864 252.946 252.634 254.45 251.931 256.214C251.17 258.045 251 260.068 251.444 262L226.195 251.537L223.759 251.769L202.273 303.607L230.385 315.263C228.973 315.867 227.728 316.802 226.755 317.989C225.782 319.176 225.109 320.581 224.794 322.084C224.39 323.829 224.515 325.656 225.153 327.33C225.79 329.005 226.912 330.452 228.375 331.486C229.363 332.156 230.481 332.61 231.656 332.82C232.831 333.029 234.037 332.99 235.196 332.704C237.094 332.767 238.964 332.242 240.553 331.203C242.142 330.163 243.372 328.659 244.075 326.895C244.835 325.064 245.006 323.041 244.562 321.109L269.811 331.572L272.247 331.352Z" fill="black"/>
<path d="M293.734 279.503L265.623 267.859C267.033 267.252 268.277 266.314 269.248 265.125C270.219 263.935 270.889 262.529 271.201 261.026C271.789 258.819 271.495 256.471 270.382 254.477C269.269 252.483 267.424 251 265.238 250.342C263.052 249.684 260.695 249.902 258.666 250.95C256.638 251.999 255.097 253.795 254.369 255.959C253.399 258.26 253.377 260.852 254.308 263.169L226.196 251.513L204.711 303.351L232.822 315.068C231.409 315.673 230.163 316.61 229.19 317.8C228.217 318.989 227.545 320.396 227.232 321.901C226.7 324.091 227.029 326.402 228.151 328.357C229.272 330.312 231.1 331.763 233.259 332.411C235.417 333.059 237.742 332.854 239.755 331.839C241.767 330.824 243.314 329.077 244.076 326.956C245.026 324.65 245.026 322.063 244.076 319.757L272.2 331.414L293.734 279.503Z" fill="#2A8BE9"/>
<path d="M268.265 270.55L265.707 267.992C265.595 267.887 265.506 267.759 265.446 267.618C265.385 267.476 265.354 267.324 265.354 267.17C265.354 267.016 265.385 266.864 265.446 266.723C265.506 266.581 265.595 266.454 265.707 266.348L266.925 265.301C267.171 265.076 267.462 264.907 267.778 264.803C268.095 264.699 268.43 264.663 268.761 264.698C269.092 264.732 269.412 264.836 269.7 265.003C269.989 265.17 270.238 265.396 270.433 265.666L273.502 269.893L273.855 271.111L271.98 270.331L269.666 270.879C269.423 270.946 269.168 270.951 268.923 270.894C268.678 270.836 268.452 270.718 268.265 270.55Z" fill="#FFC2BC"/>
<path d="M193.273 246.032C195.197 253.243 196.659 261.038 200.02 267.688C200.02 267.798 200.386 268.139 201.238 268.492C204.783 269.905 209.703 270.002 213.771 270.112C218.4 270.173 223.15 269.905 227.766 269.6C228.353 269.557 228.936 269.734 229.399 270.098C229.862 270.461 230.173 270.985 230.271 271.565C230.368 272.146 230.246 272.742 229.926 273.237C229.607 273.732 229.115 274.09 228.546 274.241C223.819 275.518 219.002 276.438 214.137 276.994C208.778 277.517 203.93 277.907 198.388 276.287C196.081 275.598 194.078 274.141 192.712 272.158L192.067 271.196C189.058 266.153 187.414 260.709 185.77 255.228C185.136 252.792 184.552 250.539 184.028 248.066C183.895 247.457 183.882 246.827 183.992 246.213C184.102 245.599 184.332 245.012 184.668 244.487C185.348 243.426 186.421 242.678 187.652 242.409C188.261 242.275 188.891 242.263 189.505 242.373C190.119 242.482 190.706 242.712 191.231 243.049C192.292 243.728 193.039 244.801 193.309 246.032H193.273Z" fill="#EBC0BB"/>
<path d="M226.305 270.002L231.907 266.287L232.955 274.083C231.642 274.443 230.264 274.502 228.925 274.255C227.585 274.009 226.319 273.462 225.221 272.657L226.305 270.002Z" fill="#FFC2BC"/>
<path d="M238.498 266.835L238.193 272.779L232.956 274.058L231.908 266.263L238.498 266.835Z" fill="#FFC2BC"/>
<path d="M188.633 235.655C181.886 238.091 182.47 247.688 185.954 259.259C189.437 270.83 194.857 277.992 200.143 278.747L204.942 269.296C203.466 268.486 202.085 267.514 200.825 266.397C198.852 263.961 192.446 239.82 192.446 239.82L188.633 235.655Z" fill="#263238"/>
<path opacity="0.4" d="M188.633 235.655C181.886 238.091 182.47 247.688 185.954 259.259C189.437 270.83 194.857 277.992 200.143 278.747L204.942 269.296C203.466 268.486 202.085 267.514 200.825 266.397C198.852 263.961 192.446 239.82 192.446 239.82L188.633 235.655Z" fill="white"/>
<path d="M205.575 268.735L202.859 267.396L194.979 278.699L200.825 279.247L205.575 268.735Z" fill="#263238"/>
<path opacity="0.2" d="M205.575 268.735L202.859 267.396L194.979 278.699L200.825 279.247L205.575 268.735Z" fill="white"/>
</svg>
