<?xml version="1.0" encoding="utf-8"?>
<!-- Generator: Adobe Illustrator 16.0.0, SVG Export Plug-In . SVG Version: 6.00 Build 0)  -->
<!DOCTYPE svg PUBLIC "-//W3C//DTD SVG 1.1//EN" "http://www.w3.org/Graphics/SVG/1.1/DTD/svg11.dtd">
<svg version="1.1" id="Layer_1" xmlns="http://www.w3.org/2000/svg" xmlns:xlink="http://www.w3.org/1999/xlink" x="0px" y="0px"
	 width="100px" height="100px" viewBox="0 0 100 100" enable-background="new 0 0 100 100" xml:space="preserve">
<g>
	<path fill="#164171" d="M90.445,11.148H61.73V6.363c-0.002-1.27-0.506-2.485-1.402-3.382c-0.898-0.897-2.115-1.402-3.383-1.403
		H21.849c-1.269,0.001-2.485,0.506-3.382,1.403c-0.897,0.897-1.401,2.113-1.403,3.382v32.84l-8.17,8.17
		c-0.446,0.443-0.8,0.971-1.04,1.551c-0.241,0.581-0.364,1.204-0.362,1.832V64.34c0.002,0.629-0.121,1.252-0.361,1.834
		c-0.241,0.58-0.594,1.107-1.04,1.551l-4.512,4.512l2.256,2.256l4.512-4.512c0.743-0.738,1.333-1.617,1.733-2.586
		s0.605-2.006,0.603-3.055V50.756c0-0.209,0.041-0.417,0.12-0.609c0.081-0.194,0.198-0.37,0.347-0.518l8.638-8.638
		c0.271-0.271,0.592-0.486,0.946-0.633c0.354-0.146,0.733-0.222,1.116-0.222c0.383,0,0.763,0.076,1.117,0.222
		c0.354,0.147,0.676,0.361,0.947,0.632c0.271,0.271,0.486,0.593,0.632,0.947s0.222,0.734,0.222,1.117
		c0,0.383-0.076,0.763-0.223,1.117c-0.147,0.354-0.362,0.675-0.633,0.946l-5.447,5.447c-0.446,0.444-0.799,0.969-1.04,1.551
		s-0.364,1.203-0.362,1.832v5.721l2.176,2.176c1.337,1.33,2.398,2.912,3.119,4.654c0.722,1.744,1.091,3.611,1.086,5.498v2.965
		c0.001,1.268,0.506,2.484,1.403,3.381c0.897,0.898,2.114,1.402,3.382,1.404h4.125l-3.384,3.383
		c-0.443,0.447-0.97,0.801-1.551,1.041s-1.204,0.363-1.833,0.361h-2.69c-1.048-0.002-2.085,0.203-3.054,0.604
		s-1.847,0.99-2.586,1.732l-9.298,9.299l2.256,2.256l9.298-9.299c0.443-0.445,0.971-0.799,1.552-1.039s1.204-0.363,1.832-0.361h2.69
		c1.048,0.002,2.086-0.203,3.054-0.604c0.968-0.402,1.847-0.99,2.586-1.732l5.64-5.641h13.696v9.572
		c0.003,2.113,0.844,4.143,2.339,5.637c1.496,1.496,3.523,2.336,5.639,2.34h31.904c2.115-0.004,4.143-0.844,5.639-2.34
		c1.494-1.494,2.336-3.523,2.338-5.637V19.125c-0.002-2.115-0.844-4.142-2.338-5.638C94.588,11.992,92.561,11.151,90.445,11.148
		L90.445,11.148z M61.73,23.912H88.85v15.953H66.516v-0.006V39.31c0.01-0.905-0.24-1.795-0.725-2.56
		c-0.482-0.766-1.178-1.376-2-1.756l1.324-1.324c0.445-0.443,0.799-0.971,1.041-1.551c0.24-0.581,0.361-1.204,0.359-1.833v-0.547
		c0.012-0.949-0.266-1.878-0.793-2.667c-0.525-0.789-1.279-1.401-2.16-1.754c-0.58-0.242-1.203-0.369-1.832-0.374V23.912z
		 M60.604,28.611c0.141-0.149,0.311-0.269,0.5-0.349c0.189-0.081,0.393-0.123,0.6-0.123c0.219,0,0.436,0.043,0.639,0.125
		c0.293,0.117,0.545,0.321,0.721,0.583c0.176,0.264,0.268,0.574,0.264,0.89v0.547c0,0.21-0.041,0.417-0.121,0.611
		s-0.197,0.37-0.346,0.517l-3.191,3.19c-0.223,0.223-0.506,0.375-0.816,0.437c-0.309,0.062-0.631,0.03-0.922-0.091
		s-0.541-0.325-0.715-0.587c-0.176-0.263-0.27-0.571-0.27-0.886v-0.548c0-0.21,0.039-0.417,0.121-0.611
		c0.08-0.194,0.197-0.37,0.346-0.518L60.604,28.611z M59.668,63.318c-0.223,0.225-0.506,0.377-0.816,0.438
		c-0.309,0.063-0.631,0.031-0.922-0.09s-0.541-0.326-0.715-0.588c-0.176-0.262-0.27-0.572-0.27-0.887v-0.547
		c0-0.211,0.039-0.418,0.121-0.611c0.08-0.193,0.197-0.369,0.346-0.518l3.191-3.189c0.141-0.15,0.311-0.27,0.5-0.35
		c0.189-0.082,0.393-0.123,0.6-0.123c0.219,0,0.436,0.043,0.639,0.127c0.293,0.117,0.545,0.32,0.721,0.582
		c0.176,0.264,0.268,0.574,0.264,0.891V59c0,0.211-0.041,0.418-0.121,0.611s-0.197,0.369-0.346,0.518L59.668,63.318z M61.73,74.961
		h1.596v3.189h-2.818C61.297,77.275,61.732,76.137,61.73,74.961L61.73,74.961z M62.859,50.557l-3.191,3.191
		c-0.223,0.223-0.506,0.375-0.816,0.436c-0.309,0.063-0.631,0.031-0.922-0.09s-0.541-0.324-0.715-0.588
		c-0.176-0.262-0.27-0.57-0.27-0.887v-0.547c0-0.211,0.039-0.418,0.121-0.611c0.08-0.193,0.197-0.369,0.346-0.517l3.191-3.19
		c0.141-0.149,0.311-0.268,0.5-0.349c0.189-0.081,0.393-0.123,0.6-0.123c0.219,0.001,0.436,0.043,0.639,0.126
		c0.293,0.117,0.545,0.322,0.721,0.584s0.268,0.573,0.264,0.89v0.547c0,0.21-0.041,0.418-0.121,0.61
		C63.125,50.234,63.008,50.41,62.859,50.557z M62.859,40.986l-3.191,3.19c-0.223,0.223-0.506,0.375-0.816,0.437
		c-0.309,0.062-0.631,0.029-0.922-0.09c-0.291-0.121-0.541-0.326-0.715-0.588c-0.176-0.262-0.27-0.57-0.27-0.886v-0.547
		c0-0.21,0.039-0.417,0.121-0.611c0.08-0.194,0.197-0.37,0.346-0.517l3.191-3.191c0.141-0.149,0.311-0.268,0.5-0.349
		c0.189-0.081,0.393-0.123,0.6-0.123c0.219,0.001,0.436,0.043,0.639,0.127c0.293,0.117,0.545,0.32,0.721,0.583
		c0.176,0.263,0.268,0.573,0.264,0.89v0.548c0,0.209-0.041,0.417-0.121,0.611C63.125,40.662,63.008,40.837,62.859,40.986
		L62.859,40.986z M50.115,4.768L49.621,6.75c-0.086,0.345-0.285,0.651-0.565,0.871c-0.28,0.219-0.626,0.337-0.982,0.337H30.721
		c-0.356,0-0.702-0.118-0.982-0.337c-0.28-0.22-0.479-0.526-0.565-0.871l-0.496-1.982H50.115z M20.254,37.163V6.363
		c0-0.423,0.169-0.829,0.468-1.127c0.299-0.299,0.705-0.467,1.127-0.468h3.541l0.689,2.756c0.258,1.037,0.855,1.956,1.697,2.613
		c0.841,0.657,1.879,1.014,2.946,1.012h17.352c1.067,0.002,2.104-0.354,2.946-1.012s1.438-1.577,1.697-2.613l0.688-2.756h3.541
		c0.424,0.001,0.828,0.169,1.127,0.468s0.469,0.705,0.469,1.127v19.812c-0.066,0.059-0.131,0.117-0.193,0.18l-3.191,3.191
		c-0.445,0.442-0.799,0.97-1.041,1.551c-0.24,0.581-0.363,1.204-0.361,1.833V15.935H25.04v21.913
		c-0.709-0.433-1.5-0.717-2.323-0.835C21.894,36.896,21.056,36.946,20.254,37.163L20.254,37.163z M56.48,37.793l-1.324,1.323
		c-0.445,0.444-0.799,0.971-1.041,1.552c-0.24,0.581-0.363,1.204-0.361,1.833v-9.024c-0.008,0.905,0.242,1.794,0.727,2.56
		C54.965,36.802,55.658,37.412,56.48,37.793L56.48,37.793z M50.563,31.888v9.571h-3.19v-3.19h-3.19v3.19H28.23v-3.19h4.786v-3.191
		H28.23V19.125h15.953v3.191h-3.19v3.19h6.381v-6.381h3.19v9.572h-4.785v3.191H50.563z M28.23,76.557
		c-0.423-0.002-0.828-0.17-1.127-0.469c-0.299-0.299-0.467-0.705-0.468-1.127v-2.965c0.006-2.305-0.444-4.588-1.327-6.719
		c-0.883-2.131-2.178-4.064-3.813-5.689l-1.241-1.242v-4.398c0-0.209,0.04-0.416,0.121-0.611c0.08-0.193,0.198-0.369,0.347-0.518
		l5.446-5.445c0.756-0.753,1.3-1.693,1.578-2.724h26.008v-1.602c-0.008,0.906,0.242,1.795,0.727,2.561
		c0.484,0.765,1.178,1.375,2,1.756l-1.324,1.323c-0.445,0.443-0.799,0.97-1.041,1.551c-0.24,0.58-0.363,1.204-0.361,1.833v0.547
		c-0.008,0.906,0.242,1.795,0.727,2.561s1.178,1.377,2,1.756l-1.324,1.324c-0.445,0.443-0.799,0.971-1.041,1.551
		c-0.24,0.582-0.363,1.205-0.361,1.834v0.547c-0.01,0.949,0.268,1.879,0.795,2.668c0.527,0.787,1.279,1.4,2.16,1.754
		c0.58,0.242,1.203,0.369,1.832,0.375v7.973c0,0.422-0.17,0.828-0.469,1.127s-0.703,0.467-1.127,0.469H28.23z M95.23,89.318
		c0,1.268-0.506,2.484-1.402,3.381c-0.896,0.898-2.113,1.402-3.383,1.404H58.541c-1.27-0.002-2.486-0.506-3.383-1.404
		c-0.898-0.896-1.402-2.113-1.404-3.381v-9.572h3.191c0.141,0,0.281-0.008,0.42-0.02c0.277,0.488,0.682,0.896,1.168,1.18
		c0.486,0.285,1.039,0.434,1.602,0.436h3.191c0.846-0.002,1.656-0.338,2.256-0.938c0.598-0.598,0.934-1.408,0.934-2.254v-3.189
		c0-0.848-0.336-1.658-0.934-2.256c-0.6-0.598-1.41-0.936-2.256-0.936H61.73v-6.012c0.066-0.059,0.131-0.119,0.193-0.182
		l3.191-3.191c0.445-0.443,0.799-0.971,1.041-1.551c0.24-0.582,0.361-1.205,0.359-1.834v-0.547c0.01-0.904-0.24-1.795-0.725-2.561
		c-0.482-0.766-1.178-1.375-2-1.756l1.324-1.322c0.445-0.445,0.799-0.973,1.041-1.553c0.24-0.581,0.361-1.204,0.359-1.833v-0.547
		c0.01-0.906-0.24-1.795-0.725-2.562c-0.482-0.765-1.178-1.375-2-1.756l1.324-1.323c0.061-0.061,0.119-0.124,0.176-0.188h26.75
		V20.721H61.73v-6.381h28.715c1.27,0.001,2.486,0.506,3.383,1.404c0.896,0.896,1.402,2.114,1.402,3.382V89.318z"/>
	<path fill="#164171" d="M88.85,59.008H85.66c-0.846,0-1.656,0.336-2.254,0.936c-0.6,0.598-0.936,1.408-0.938,2.254V78.15
		c0.002,0.846,0.338,1.656,0.938,2.254c0.598,0.6,1.408,0.936,2.254,0.938h3.189c0.848-0.002,1.658-0.338,2.256-0.938
		c0.598-0.598,0.936-1.408,0.936-2.254V62.197c0-0.846-0.338-1.656-0.936-2.254C90.508,59.344,89.697,59.008,88.85,59.008
		L88.85,59.008z M88.85,78.15H85.66V62.197h3.189l0.002,15.953H88.85z"/>
	<path fill="#164171" d="M92.041,86.127H56.945v3.191h35.096V86.127z"/>
	<path fill="#164171" d="M88.85,46.246H85.66c-0.846,0-1.656,0.336-2.254,0.935c-0.6,0.598-0.936,1.409-0.938,2.254v3.192
		c0.002,0.846,0.338,1.656,0.938,2.254c0.598,0.6,1.408,0.934,2.254,0.936h3.189c0.848-0.002,1.658-0.336,2.256-0.936
		c0.598-0.598,0.936-1.408,0.936-2.254v-3.192c0-0.845-0.338-1.657-0.936-2.254C90.508,46.582,89.697,46.246,88.85,46.246
		L88.85,46.246z M88.85,52.627H85.66v-3.192h3.189l0.002,3.192H88.85z"/>
	<path fill="#164171" d="M72.898,55.816h3.189c0.846-0.002,1.658-0.336,2.256-0.936c0.598-0.598,0.936-1.408,0.936-2.254v-3.192
		c0-0.845-0.338-1.657-0.936-2.254c-0.598-0.599-1.41-0.935-2.256-0.935h-3.189c-0.846,0-1.656,0.336-2.256,0.935
		c-0.598,0.598-0.934,1.409-0.936,2.254v3.192c0.002,0.846,0.338,1.656,0.936,2.254C71.242,55.48,72.053,55.814,72.898,55.816z
		 M72.898,49.435h3.189l0.002,3.192h-0.002h-3.189V49.435z"/>
	<path fill="#164171" d="M72.898,68.58h3.189c0.846-0.002,1.658-0.338,2.256-0.938c0.598-0.598,0.936-1.408,0.936-2.254v-3.191
		c0-0.846-0.338-1.656-0.936-2.254c-0.598-0.6-1.41-0.936-2.256-0.936h-3.189c-0.846,0-1.656,0.336-2.256,0.936
		c-0.598,0.598-0.934,1.408-0.936,2.254v3.191c0.002,0.846,0.338,1.656,0.936,2.254C71.242,68.242,72.053,68.578,72.898,68.58z
		 M72.898,62.197h3.189l0.002,3.191h-0.002h-3.189V62.197z"/>
	<path fill="#164171" d="M72.898,81.342h3.189c0.846-0.002,1.658-0.338,2.256-0.938c0.598-0.598,0.936-1.408,0.936-2.254v-3.189
		c0-0.848-0.338-1.658-0.936-2.256s-1.41-0.936-2.256-0.936h-3.189c-0.846,0-1.656,0.338-2.256,0.936
		c-0.598,0.598-0.934,1.408-0.936,2.256v3.189c0.002,0.846,0.338,1.656,0.936,2.254C71.242,81.004,72.053,81.34,72.898,81.342z
		 M72.898,74.961h3.189l0.002,3.189h-0.002h-3.189V74.961z"/>
	<path fill="#164171" d="M40.992,28.697h-3.19v3.191h3.19V28.697z"/>
	<path fill="#164171" d="M34.611,22.316h-3.19v3.19h3.19V22.316z"/>
	<path fill="#164171" d="M37.802,25.506h-3.19v3.191h3.19V25.506z"/>
	<path fill="#164171" d="M34.611,28.697h-3.19v3.191h3.19V28.697z"/>
	<path fill="#164171" d="M44.183,31.888h-3.19v3.19h3.19V31.888z"/>
	<path fill="#164171" d="M39.397,35.078h-3.191v3.191h3.191V35.078z"/>
</g>
</svg>
