<?xml version="1.0" encoding="utf-8"?>
<!-- Generator: Adobe Illustrator 16.0.0, SVG Export Plug-In . SVG Version: 6.00 Build 0)  -->
<!DOCTYPE svg PUBLIC "-//W3C//DTD SVG 1.1//EN" "http://www.w3.org/Graphics/SVG/1.1/DTD/svg11.dtd">
<svg version="1.1" id="Layer_1" xmlns="http://www.w3.org/2000/svg" xmlns:xlink="http://www.w3.org/1999/xlink" x="0px" y="0px"
	 width="24px" height="24px" viewBox="0 0 24 24" enable-background="new 0 0 24 24" xml:space="preserve">
<g transform="translate(0.000000,512.000000) scale(0.100000,-0.100000)">
	<path fill="#0C4072" d="M116.157,5097.954c-1.733-0.186-4.36-0.703-5.859-1.123c-2.578-0.752-97.783-41.299-102.378-43.643
		c-2.812-1.406-6.23-5.249-7.168-8.013c-0.425-1.221-0.752-3.706-0.752-5.723c0-2.949,0.234-4.077,1.357-6.372
		c1.973-4.268,4.409-6.094,12.329-9.468l6.704-2.861l0.142-27.188l0.093-27.236l-0.986-0.283c-1.543-0.508-4.59-3.467-5.718-5.576
		c-1.499-2.861-1.406-7.314,0.19-10.4l1.216-2.344l-1.03-1.318c-0.562-0.703-1.265-2.061-1.592-2.998
		c-0.703-2.295-3.472-32.109-3.188-34.824c0.234-2.539,1.641-4.785,3.75-5.957c1.265-0.654,2.856-0.801,10.874-0.801
		c10.498,0,11.533,0.283,13.687,3.516c1.406,2.07,1.406,4.131-0.327,22.646c-1.313,14.58-1.406,15-2.764,17.432l-1.455,2.539
		l1.172,2.48c2.485,5.342,0.938,11.25-3.892,14.434l-2.437,1.602v25.449v25.454l1.499-0.61c0.845-0.376,5.205-2.202,9.658-4.126
		l8.062-3.423v-15.84v-15.801l1.357-4.033c1.504-4.492,3.379-7.588,7.08-11.621c8.623-9.424,24.658-16.924,42.749-20.02
		c30.093-5.107,61.919,0.938,80.532,15.234c5.908,4.551,10.176,10.273,12.236,16.406l1.357,4.033v15.801v15.796l20.205,8.672
		c22.549,9.609,23.389,10.122,25.781,15.234c1.123,2.295,1.357,3.423,1.357,6.372c0,2.017-0.332,4.502-0.752,5.723
		c-0.938,2.764-4.355,6.606-7.168,8.013c-1.172,0.61-24.141,10.547-51.045,22.031c-30.752,13.174-50.254,21.284-52.5,21.846
		C123.984,5098.144,120.186,5098.422,116.157,5097.954z M126.279,5089.799c2.91-0.752,101.582-42.891,103.311-44.111
		c1.504-1.03,2.91-4.077,2.91-6.187c0-1.875-1.738-5.107-3.232-6.045c-0.42-0.283-23.535-10.22-51.279-22.129
		c-56.206-24.092-54.053-23.291-61.689-22.168c-3.281,0.469-8.486,2.529-41.719,16.777c-20.908,8.955-37.925,16.406-37.783,16.504
		c0.142,0.137,15.049,2.813,33.14,5.952l32.861,5.767l2.017-1.548c7.358-5.625,22.5-5.718,30.137-0.19
		c6.045,4.36,5.303,11.675-1.592,15.703c-1.074,0.61-3.75,1.597-5.908,2.109c-3.232,0.845-4.78,0.986-8.857,0.752
		c-8.062-0.42-13.545-2.72-16.265-6.89c-0.61-0.894-1.221-1.831-1.455-2.109c-0.186-0.234-17.813-3.516-39.141-7.222l-38.765-6.699
		l-4.126,1.733c-7.92,3.374-8.716,3.843-10.078,5.952c-0.796,1.265-1.265,2.578-1.265,3.75c0,2.109,1.406,5.156,2.905,6.187
		c1.597,1.128,100.312,43.315,103.125,44.063C116.86,5090.644,122.905,5090.688,126.279,5089.799z M125.107,5042.875
		c3.516-0.845,6.143-2.295,6.143-3.281c0-1.079-4.922-3.091-8.296-3.423c-1.597-0.186-4.312-0.186-5.908,0
		c-3.374,0.332-8.296,2.344-8.296,3.379c0,1.03,2.202,2.295,5.625,3.184C118.218,5043.813,121.221,5043.813,125.107,5042.875z
		 M81.797,4994.453c13.921-5.996,26.67-11.338,28.359-11.904c2.578-0.889,4.077-1.035,9.844-1.035c5.762,0,7.266,0.146,9.844,1.035
		c1.689,0.566,14.434,5.908,28.359,11.904c13.926,5.957,25.684,10.972,26.201,11.113c0.801,0.234,0.85-0.098,0.654-6.045
		c-0.273-7.314-0.977-9.756-4.307-14.346c-2.49-3.379-7.5-7.734-11.533-10.029c-4.453-2.49-6.797-4.316-6.934-5.537
		c-0.381-2.578,2.012-5.107,4.307-4.502c3.564,1.035,10.732,5.625,15.098,9.707l3.047,2.861l-0.986-2.529
		c-5.254-13.223-25.596-23.906-50.859-26.68c-6.045-0.654-19.736-0.654-25.781,0c-25.313,2.773-45.61,13.457-50.859,26.719
		l-1.03,2.578l2.998-2.9c9.048-8.672,24.751-15.186,43.828-18.193c9.609-1.543,32.349-1.357,35.347,0.283
		c2.197,1.123,2.295,4.971,0.186,6.328c-1.035,0.654-2.012,0.654-9.707,0.146c-22.588-1.553-44.951,3.418-59.668,13.311
		c-3.984,2.666-9.141,8.057-10.83,11.338c-1.919,3.662-2.529,6.66-2.529,12.754c0,4.502,0.093,4.922,0.845,4.688
		C56.108,5005.424,67.876,5000.41,81.797,4994.453z M26.392,4958.31c2.856-2.246,1.406-6.514-2.202-6.563
		c-3.75-0.039-4.971,5.674-1.548,7.031C24.233,4959.443,25.078,4959.345,26.392,4958.31z M27.187,4942.47
		c0.889-0.938,1.406-2.012,1.592-3.418c0.332-2.305,2.627-27.705,2.627-28.789c0-0.605-1.172-0.703-7.314-0.703h-7.266l0.234,2.021
		c0.19,1.074,0.845,7.969,1.504,15.283c0.654,7.354,1.406,13.779,1.685,14.297C21.704,4944.013,24.985,4944.628,27.187,4942.47z"/>
	<path fill="#0C4072" d="M149.111,4966.845c-5.205-1.504-6.475-2.627-5.957-5.488c0.283-1.309,0.703-1.826,1.924-2.432
		c1.504-0.703,1.826-0.703,5.723,0.322c2.246,0.615,4.727,1.367,5.43,1.738c2.49,1.221,2.725,4.453,0.469,6.23
		C155.205,4968.388,154.502,4968.388,149.111,4966.845z"/>
</g>
</svg>
