<?xml version="1.0" encoding="utf-8"?>
<!-- Generator: Adobe Illustrator 16.0.0, SVG Export Plug-In . SVG Version: 6.00 Build 0)  -->
<!DOCTYPE svg PUBLIC "-//W3C//DTD SVG 1.1//EN" "http://www.w3.org/Graphics/SVG/1.1/DTD/svg11.dtd">
<svg version="1.1" id="Layer_1" xmlns="http://www.w3.org/2000/svg" xmlns:xlink="http://www.w3.org/1999/xlink" x="0px" y="0px"
	 width="24px" height="24px" viewBox="0 0 24 24" enable-background="new 0 0 24 24" xml:space="preserve">
<g transform="translate(0.000000,512.000000) scale(0.100000,-0.100000)">
	<path fill="#0C4072" d="M63.745,5086.899c-13.838-2.534-26.592-11.162-35.127-23.779c-2.3-3.467-5.532-10.503-6.802-14.956
		c-3.843-13.506-2.153-29.78,4.644-44.741c0.894-1.968,1.641-3.657,1.641-3.799c0-0.093-5.815-0.186-12.896-0.186H2.261
		l-1.123-1.172c-1.504-1.455-1.504-3.096-0.049-4.785l1.128-1.309l15.239-0.146l15.244-0.137l1.733-2.671
		c11.304-17.07,31.138-37.188,55.337-56.182c12.1-9.521,26.265-18.945,30.483-20.352c1.499-0.469,1.875-0.42,4.316,0.986
		c8.76,4.873,27.334,18.193,39.014,27.949c20.537,17.119,37.607,35.781,46.475,50.786l2.48,4.219h12.803h12.803l0.938,1.221
		c1.27,1.636,1.221,2.671-0.137,4.263l-1.123,1.313l-11.074,0.142l-11.016,0.142l0.986,2.437
		c5.811,14.399,6.982,29.312,3.369,42.065c-1.445,5.112-5.576,13.369-8.721,17.539c-8.857,11.772-21.387,19.419-35.029,21.436
		c-5.908,0.84-15.947,0.327-21.992-1.221c-8.301-2.017-20.547-7.222-28.647-12.1c-2.441-1.455-4.551-2.676-4.741-2.676
		c-0.186,0-2.109,1.079-4.268,2.393c-10.879,6.567-23.403,11.489-33.906,13.32C77.72,5087.744,68.574,5087.744,63.745,5086.899z
		 M82.08,5079.394c10.083-1.733,23.071-7.173,34.092-14.253c2.158-1.411,4.268-2.393,4.976-2.393c0.796,0,2.856,1.03,5.156,2.529
		c7.925,5.254,21.616,11.353,30.151,13.506c3.516,0.894,5.342,1.079,12.334,1.035c7.549,0,8.535-0.142,12.383-1.313
		c12.939-3.94,23.252-12.759,29.121-24.902c6.465-13.271,6.23-28.467-0.615-45.254l-1.777-4.458l-11.348-0.142l-11.309-0.093
		l-3.516,5.957c-6.094,10.503-6.611,11.255-7.969,11.582c-2.207,0.562-3.613-0.654-7.744-6.66c-2.197-3.14-4.121-5.581-4.307-5.391
		c-0.146,0.234-3.096,9.473-6.475,20.542c-3.428,11.113-6.563,20.537-6.992,20.962c-0.42,0.469-1.455,0.938-2.246,1.123
		c-3.232,0.659-2.91,1.597-14.492-38.452c-5.806-20.122-10.64-36.67-10.781-36.768c-0.093-0.137-0.376,0.195-0.562,0.664
		c-4.834,12.886-22.886,58.286-23.447,58.892c-0.894,0.986-3.33,1.128-4.502,0.283c-0.469-0.327-4.878-8.628-9.897-18.428
		l-9.097-17.822L54.878,5000l-18.379-0.093l-2.065,4.312c-9.849,21.011-9.429,39.912,1.313,55.947
		c2.813,4.224,9.849,10.884,14.302,13.555c4.082,2.441,11.304,5.112,15.571,5.864C69.697,5080.239,77.812,5080.146,82.08,5079.394z
		 M151.436,5016.181c3.047-9.756,5.859-18.105,6.328-18.618c0.898-0.986,3.047-1.221,4.414-0.518
		c0.469,0.283,2.764,3.33,5.156,6.802c2.344,3.467,4.502,6.47,4.736,6.611s2.207-2.769,4.404-6.519
		c2.207-3.706,4.316-6.846,4.736-7.031c0.43-0.146,5.635-0.283,11.543-0.283h10.781l-1.172-1.973
		c-10.781-18.188-35.732-42.769-63.828-62.788c-6.699-4.785-16.968-11.68-17.388-11.68c-0.518,0-10.225,6.523-16.841,11.26
		c-7.783,5.576-16.646,12.471-24.385,18.994c-7.173,5.996-23.54,22.178-28.184,27.9c-3.892,4.688-10.034,12.847-10.034,13.267
		c0,0.137,7.783,0.332,17.349,0.42c15.522,0.146,17.397,0.234,18.105,0.938c0.469,0.43,4.312,7.646,8.628,16.04l7.783,15.239
		l11.865-30.439c6.567-16.782,12.241-30.894,12.617-31.46c1.733-2.529,5.156-2.012,6.328,0.898
		c0.376,0.977,5.303,17.539,10.923,36.851c5.625,19.277,10.313,34.8,10.459,34.468
		C145.85,5034.189,148.437,5025.932,151.436,5016.181z"/>
</g>
</svg>
