<?xml version="1.0" encoding="utf-8"?>
<!-- Generator: Adobe Illustrator 16.0.0, SVG Export Plug-In . SVG Version: 6.00 Build 0)  -->
<!DOCTYPE svg PUBLIC "-//W3C//DTD SVG 1.1//EN" "http://www.w3.org/Graphics/SVG/1.1/DTD/svg11.dtd">
<svg version="1.1" id="Layer_1" xmlns="http://www.w3.org/2000/svg" xmlns:xlink="http://www.w3.org/1999/xlink" x="0px" y="0px"
	 width="24px" height="24px" viewBox="0 0 24 24" enable-background="new 0 0 24 24" xml:space="preserve">
<g transform="translate(0.000000,512.000000) scale(0.100000,-0.100000)">
	<path fill="#0C4072" d="M66.963,5111.088c-1.045-1.099-1.094-1.646-1.196-12.524l-0.151-11.426l-4.238-1.602
		c-2.344-0.85-5.142-2.046-6.235-2.593l-1.997-1.045l-8.032,7.935c-10.928,10.776-9.287,10.874-21.411-1.401
		c-8.281-8.481-9.18-9.531-9.229-11.079c0-1.543,0.747-2.49,7.983-9.775l8.032-8.086l-1.694-3.691
		c-0.952-2.1-2.095-4.937-2.544-6.338l-0.898-2.598H14.775c-11.382,0-13.276-0.298-14.224-2.29C0.2,5043.725,0,5039.033,0,5030.605
		v-12.729l1.25-1.196l1.196-1.25h11.479h11.426l0.85-2.593c0.444-1.445,1.641-4.395,2.642-6.533l1.743-3.896l-8.032-8.135
		c-7.285-7.28-8.081-8.276-8.081-9.771c0-1.543,0.898-2.598,9.38-11.084c8.486-8.486,9.531-9.375,11.079-9.375
		c1.494,0,2.495,0.801,9.775,8.076l8.135,8.047l3.892-1.758c2.148-0.996,5.093-2.188,6.538-2.637l2.598-0.85v-11.387
		c0-10.42,0.098-11.465,0.942-12.52l0.952-1.201h13.521c13.374,0,13.525,0,14.619,1.152c1.104,1.104,1.152,1.504,1.401,12.676
		l0.249,11.523l2.744,0.908c1.499,0.488,4.292,1.641,6.138,2.539l3.394,1.592l7.583-7.529c4.189-4.141,8.086-7.783,8.73-8.135
		c2.344-1.152,3.652-0.195,12.979,9.18c11.865,11.875,11.768,10.176,1.045,21.011l-7.979,8.13l1.699,3.389
		c0.938,1.899,2.139,4.741,2.637,6.338l0.898,2.842h11.377h11.426l1.201,1.25l1.25,1.196V5031
		c-0.059,14.121-0.059,14.37-2.695,15.366c-0.801,0.303-5.84,0.498-12.031,0.498h-10.625l-1.152,3.394
		c-0.596,1.851-1.738,4.644-2.549,6.289l-1.494,2.944l8.037,8.032c10.781,10.879,10.879,9.131-1.094,21.113
		c-11.982,11.973-10.283,11.87-21.108,1.094l-8.032-8.032l-2.949,1.499c-1.597,0.791-4.438,1.992-6.289,2.642l-3.389,1.196v10.576
		c0,6.089-0.2,11.133-0.498,11.929c-1.001,2.646-1.25,2.646-15.522,2.695C68.115,5112.236,68.013,5112.236,66.963,5111.088z
		 M88.823,5093.374c0-8.833,0.146-11.079,0.747-11.929c0.498-0.698,2.393-1.592,5.889-2.642c2.793-0.85,7.134-2.695,9.678-4.043
		c2.495-1.348,5.088-2.441,5.688-2.441c0.801,0,3.545,2.393,9.033,7.832l7.886,7.832l5.234-5.19l5.244-5.186l-7.432-7.539
		c-4.795-4.79-7.588-7.979-7.842-8.931c-0.244-1.147,0.103-2.344,2.046-6.089c1.343-2.593,3.237-7.08,4.194-10.029
		c1.445-4.287,2.041-5.488,3.037-5.986c0.908-0.449,4.395-0.649,11.875-0.649h10.586v-7.485v-7.485h-11.133
		c-10.918,0-11.172,0-12.178-1.094c-0.586-0.649-1.289-2.148-1.641-3.394c-0.996-3.892-2.5-7.588-4.79-11.831
		c-1.196-2.29-2.192-4.736-2.192-5.483c0-1.05,1.592-2.944,7.734-9.126l7.734-7.788l-5.244-5.186l-5.234-5.195l-7.637,7.588
		c-6.436,6.387-7.886,7.578-9.131,7.578c-0.85,0-3.892-1.191-6.738-2.637c-2.896-1.494-7.036-3.145-9.229-3.74
		c-6.289-1.699-6.187-1.445-6.187-14.375v-10.674h-7.485h-7.485v10.869c0,12.881,0.2,12.432-6.24,14.18
		c-2.144,0.596-6.284,2.246-9.131,3.74c-2.896,1.445-5.84,2.637-6.685,2.637c-1.299,0-2.695-1.143-9.185-7.578l-7.729-7.588
		l-5.19,5.195l-5.244,5.186l7.739,7.788c6.138,6.182,7.729,8.076,7.729,9.126c0,0.747-1.045,3.296-2.339,5.635
		c-1.25,2.397-2.998,6.543-3.892,9.238c-2.349,7.48-1.255,6.929-14.473,6.929H7.988v7.437v7.485l11.172,0.151
		c12.827,0.151,12.773,0.151,13.774,4.541c0.801,3.34,3.643,10.278,5.288,12.925c0.752,1.143,1.45,2.944,1.548,3.989
		c0.298,1.895,0.2,1.943-7.485,9.78l-7.837,7.886l5.244,5.186l5.239,5.239l7.632-7.583c4.492-4.492,8.135-7.686,8.882-7.886
		c1.05-0.244,2.5,0.254,6.138,2.197c2.646,1.396,7.036,3.193,9.785,4.043c3.34,1.05,5.234,1.943,5.732,2.642
		c0.601,0.85,0.752,3.096,0.752,11.929v10.874h7.485h7.485V5093.374z"/>
	<path fill="#0C4072" d="M74.004,5073.115c-5.044-0.947-8.335-2.095-12.529-4.341c-15.713-8.335-24.302-24.404-22.5-42.212
		c1.895-18.467,15.669-33.687,33.828-37.324c5.586-1.143,15.171-0.791,20.405,0.703c14.922,4.331,26.401,16.558,29.844,31.777
		c1.094,4.937,1.094,13.574,0.049,18.462c-3.394,15.62-15.469,28.145-31.035,32.139C86.924,5073.667,78.74,5074.013,74.004,5073.115
		z M89.023,5064.58c1.943-0.396,5.386-1.694,7.729-2.842c5.791-2.842,12.427-9.331,15.171-14.873
		c4.99-10.029,5.142-21.152,0.4-30.684c-4.492-8.984-11.328-14.922-20.757-18.062c-3.496-1.152-4.79-1.348-10.229-1.348
		c-5.342,0.049-6.787,0.195-10.132,1.299c-13.97,4.639-23.35,16.812-24.15,31.333c-0.352,6.187,0.649,10.874,3.545,16.719
		c5.889,11.875,17.363,19.106,30.483,19.155C83.584,5065.278,87.124,5064.985,89.023,5064.58z"/>
	<path fill="#0C4072" d="M77.095,5061.835c-6.738-0.942-12.524-3.838-17.515-8.73c-6.089-6.04-9.18-13.325-9.18-21.807
		c0-5.435,0.649-8.682,2.744-13.223c4.043-8.73,11.226-14.771,20.605-17.163c7.285-1.846,14.272-1.099,21.406,2.344
		c10.732,5.137,17.114,15.42,17.114,27.441c0,6.04-0.645,9.033-3.091,14.121C103.589,5056.547,90.22,5063.637,77.095,5061.835z
		 M87.07,5053.105c11.284-2.944,18.862-14.619,16.772-25.894c-2.046-10.933-11.279-18.77-22.305-18.867
		c-13.975-0.146-24.897,12.427-22.71,26.05C60.977,5047.617,74.248,5056.396,87.07,5053.105z"/>
	<path fill="#0C4072" d="M169.404,5004.106c-0.547-0.151-1.494-0.698-2.09-1.299c-1.152-1.001-1.152-1.05-1.152-17.114v-16.113
		l-10.479-0.146c-10.127-0.146-10.479-0.205-11.582-1.299c-1.143-1.094-1.143-1.24-1.299-17.324l-0.137-16.211l-63.975-0.098
		l-63.97-0.146l-3.34-1.602c-5.645-2.646-9.531-7.529-10.83-13.525c-0.801-3.838-0.698-13.32,0.195-16.758
		c1.997-7.637,8.086-13.086,15.972-14.277c2.393-0.352,35.127-0.498,105.532-0.391c89.419,0.146,102.3,0.244,104.038,0.889
		c7.295,2.744,11.875,7.988,13.232,14.922c0.645,3.594,0.645,12.324-0.059,15.615c-1.641,7.842-8.633,14.277-16.367,15.225
		l-2.539,0.293v16.064c0,19.668,0.449,18.369-6.689,18.623l-4.795,0.195v15.869v15.913l-1.191,1.396l-1.201,1.396l-18.154,0.103
		C178.584,5004.306,169.951,5004.257,169.404,5004.106z M201.094,4982.753v-13.223h-13.477H174.15v13.223v13.218h13.467h13.477
		V4982.753z M177.646,4947.832v-13.232h-13.232h-13.223v13.232v13.213h13.223h13.232V4947.832z M212.568,4947.832v-13.232h-13.223
		h-13.223v13.232v13.213h13.223h13.223V4947.832z M225.049,4925.322c4.482-2.148,6.387-5.391,6.836-11.875
		c0.547-8.486-1.455-13.477-6.445-15.977l-2.588-1.299H120.01H17.168l-2.598,1.299c-4.941,2.451-6.934,7.334-6.436,15.723
		c0.498,7.686,3.193,11.484,9.18,12.881c1.099,0.244,45.059,0.391,103.691,0.391l101.797-0.088L225.049,4925.322z"/>
	<path fill="#0C4072" d="M38.774,4922.421c-2.949-1.094-5.142-3.037-6.538-5.889c-2.197-4.385-1.597-9.18,1.646-12.92
		c2.295-2.695,4.99-3.936,8.779-3.936c6.841,0,11.68,4.785,11.729,11.621c0,4.639-2.197,8.379-6.138,10.42
		C45.659,4923.027,41.265,4923.378,38.774,4922.421z M45.41,4913.291c2.593-3.291-1.846-7.48-4.893-4.639
		c-1.299,1.25-1.445,3.789-0.249,5.088C41.519,4915.136,44.111,4914.931,45.41,4913.291z"/>
	<path fill="#0C4072" d="M77.393,4922.421c-2.144-0.742-5.337-3.438-6.284-5.283c-3.096-6.035-0.996-13.271,4.736-16.328
		c1.948-1.035,2.798-1.191,6.089-1.035c3.296,0.146,4.092,0.342,5.986,1.641c2.695,1.904,4.146,4.043,4.893,7.188
		C94.961,4917.539,85.977,4925.566,77.393,4922.421z M83.828,4913.642c2.046-2.051,0.352-5.986-2.593-5.986
		c-1.299,0-3.394,2.197-3.394,3.643C77.842,4914.14,81.782,4915.683,83.828,4913.642z"/>
	<path fill="#0C4072" d="M116.763,4922.675c-5.288-1.602-8.481-5.938-8.481-11.533c0-6.582,4.941-11.426,11.626-11.465
		c6.782,0,11.772,4.834,11.831,11.465C131.738,4919.033,124.102,4924.873,116.763,4922.675z M122.354,4913.798
		c1.196-1.406,1.445-2.656,0.796-3.799c-1.597-3.096-4.687-3.096-6.289,0c-1.094,2.051,0.703,4.648,3.149,4.648
		C120.903,4914.648,121.904,4914.238,122.354,4913.798z"/>
	<path fill="#0C4072" d="M154.385,4922.324c-2.393-0.85-5.234-3.545-6.533-6.133c-1.24-2.549-1.143-7.686,0.195-10.283
		c2.246-4.238,5.635-6.23,10.732-6.23c6.738,0,11.475,4.678,11.475,11.367C170.312,4919.531,162.373,4925.166,154.385,4922.324z
		 M161.172,4913.544c0.557-0.596,0.996-1.592,0.996-2.246c0-1.445-2.09-3.643-3.389-3.643c-1.65,0-3.594,1.895-3.594,3.545
		C155.186,4914.287,159.072,4915.791,161.172,4913.544z"/>
	<path fill="#0C4072" d="M193.408,4922.373c-4.395-1.543-7.334-5.137-7.676-9.424c-0.303-3.75,0.137-5.742,1.943-8.438
		c2.891-4.395,9.678-6.191,14.717-3.887c4.346,1.992,7.129,7.08,6.533,12.07C208.037,4920.175,200.498,4924.921,193.408,4922.373z
		 M199.492,4913.837c2.344-1.641,0.703-6.182-2.236-6.182c-1.455,0-3.643,2.09-3.643,3.389c0,0.547,0.439,1.553,1.035,2.305
		C195.859,4914.843,197.803,4915.039,199.492,4913.837z"/>
</g>
</svg>
