<svg width="712" height="526" viewBox="0 0 712 526" fill="none" xmlns="http://www.w3.org/2000/svg">
<path d="M639.724 489.18H592.557V489.536H639.724V489.18Z" fill="#EBEBEB"/>
<path d="M470.706 493.054H458.33V493.41H470.706V493.054Z" fill="#EBEBEB"/>
<path d="M591.132 475.964H563.803V476.32H591.132V475.964Z" fill="#EBEBEB"/>
<path d="M135.22 478.357H73.7109V478.713H135.22V478.357Z" fill="#EBEBEB"/>
<path d="M156.923 478.357H147.908V478.713H156.923V478.357Z" fill="#EBEBEB"/>
<path d="M319.647 484.367H186.232V484.723H319.647V484.367Z" fill="#EBEBEB"/>
<path d="M336.522 402.749H61.5479C59.3912 402.749 57.3228 401.892 55.7978 400.367C54.2728 398.842 53.416 396.774 53.416 394.617V8.06067C53.4348 5.91633 54.2998 3.8662 55.8228 2.35654C57.3458 0.846887 59.4035 -8.22102e-05 61.5479 5.98505e-09H336.522C338.679 5.98507e-09 340.747 0.85675 342.272 2.38177C343.797 3.9068 344.654 5.97517 344.654 8.13188V394.617C344.654 396.774 343.797 398.842 342.272 400.367C340.747 401.892 338.679 402.749 336.522 402.749ZM61.5479 0.284831C59.4868 0.288595 57.5111 1.10904 56.0537 2.56648C54.5963 4.02392 53.7758 5.99955 53.7721 8.06067V394.617C53.7758 396.678 54.5963 398.654 56.0537 400.111C57.5111 401.569 59.4868 402.389 61.5479 402.393H336.522C338.583 402.389 340.559 401.569 342.016 400.111C343.474 398.654 344.294 396.678 344.298 394.617V8.06067C344.294 5.99955 343.474 4.02392 342.016 2.56648C340.559 1.10904 338.583 0.288595 336.522 0.284831H61.5479Z" fill="#EBEBEB"/>
<path d="M644.58 402.749H369.577C367.422 402.745 365.355 401.887 363.831 400.363C362.307 398.839 361.449 396.773 361.445 394.617V8.06067C361.468 5.91749 362.334 3.86952 363.856 2.36066C365.378 0.851795 367.434 0.00362914 369.577 0H644.58C646.719 0.00741197 648.77 0.857691 650.287 2.36655C651.804 3.8754 652.665 5.92125 652.683 8.06067V394.617C652.683 396.769 651.831 398.833 650.312 400.357C648.793 401.881 646.732 402.741 644.58 402.749ZM369.577 0.284831C367.516 0.288595 365.54 1.10904 364.083 2.56648C362.626 4.02392 361.805 5.99955 361.801 8.06067V394.617C361.805 396.678 362.626 398.654 364.083 400.111C365.54 401.569 367.516 402.389 369.577 402.393H644.58C646.641 402.389 648.617 401.569 650.074 400.111C651.532 398.654 652.352 396.678 652.356 394.617V8.06067C652.352 5.99955 651.532 4.02392 650.074 2.56648C648.617 1.10904 646.641 0.288595 644.58 0.284831H369.577Z" fill="#EBEBEB"/>
<path d="M711.074 466.266H-1V466.622H711.074V466.266Z" fill="#EBEBEB"/>
<path d="M592.514 56.4959H414.795V245.751H592.514V56.4959Z" fill="#EBEBEB"/>
<path d="M581.832 67.177H425.475V235.07H581.832V67.177Z" fill="#F5F5F5"/>
<path d="M486.842 235.07H533.839L577.959 67.177H530.962L486.842 235.07Z" fill="#FAFAFA"/>
<path d="M509.13 67.177L465.01 235.07H476.403L520.523 67.177H509.13Z" fill="#FAFAFA"/>
<path d="M594.75 65.3968H412.544L408.699 56.4247H598.595L594.75 65.3968Z" fill="#F5F5F5"/>
<path d="M594.75 70.5949H412.544L408.699 61.6228H598.595L594.75 70.5949Z" fill="#F0F0F0"/>
<path d="M594.75 75.7931H412.544L408.699 66.821H598.595L594.75 75.7931Z" fill="#E6E6E6"/>
<path d="M594.75 80.9913H412.544L408.699 72.0192H598.595L594.75 80.9913Z" fill="#E0E0E0"/>
<path d="M605.231 45.1882H402.076V57.151H605.231V45.1882Z" fill="#E0E0E0"/>
<path d="M404.155 165.614C403.607 165.614 403.082 165.397 402.695 165.009C402.307 164.622 402.09 164.097 402.09 163.549V93.7659C402.09 93.2182 402.307 92.693 402.695 92.3057C403.082 91.9184 403.607 91.7009 404.155 91.7009C404.703 91.7009 405.228 91.9184 405.615 92.3057C406.002 92.693 406.22 93.2182 406.22 93.7659V163.549C406.22 164.097 406.002 164.622 405.615 165.009C405.228 165.397 404.703 165.614 404.155 165.614Z" fill="#E0E0E0"/>
<path d="M404.896 54.7585H403.4V96.2012H404.896V54.7585Z" fill="#E0E0E0"/>
<path d="M127.913 52.8359H125.35V252.743H127.913V52.8359Z" fill="#E0E0E0"/>
<path d="M287.489 52.8359H284.926V252.743H287.489V52.8359Z" fill="#E0E0E0"/>
<path d="M297.544 65.3968H115.31L111.465 56.4247H301.375L297.544 65.3968Z" fill="#F5F5F5"/>
<path d="M297.544 77.7157H115.31L111.465 68.7435H301.375L297.544 77.7157Z" fill="#F5F5F5"/>
<path d="M297.544 90.0346H115.31L111.465 81.0625H301.375L297.544 90.0346Z" fill="#F5F5F5"/>
<path d="M297.544 102.353H115.31L111.465 93.3813H301.375L297.544 102.353Z" fill="#F5F5F5"/>
<path d="M297.544 114.672H115.31L111.465 105.7H301.375L297.544 114.672Z" fill="#F5F5F5"/>
<path d="M297.544 126.991H115.31L111.465 118.019H301.375L297.544 126.991Z" fill="#F5F5F5"/>
<path d="M297.544 139.31H115.31L111.465 130.338H301.375L297.544 139.31Z" fill="#F5F5F5"/>
<path d="M297.544 151.629H115.31L111.465 142.657H301.375L297.544 151.629Z" fill="#F5F5F5"/>
<path d="M297.544 163.948H115.31L111.465 154.976H301.375L297.544 163.948Z" fill="#F5F5F5"/>
<path d="M297.544 176.267H115.31L111.465 167.295H301.375L297.544 176.267Z" fill="#F5F5F5"/>
<path d="M297.544 188.586H115.31L111.465 179.613H301.375L297.544 188.586Z" fill="#F5F5F5"/>
<path d="M297.544 200.89H115.31L111.465 191.918H301.375L297.544 200.89Z" fill="#F5F5F5"/>
<path d="M297.544 213.223H115.31L111.465 204.237H301.375L297.544 213.223Z" fill="#F5F5F5"/>
<path d="M297.544 225.528H115.31L111.465 216.556H301.375L297.544 225.528Z" fill="#F5F5F5"/>
<path d="M297.544 237.847H115.31L111.465 228.875H301.375L297.544 237.847Z" fill="#F5F5F5"/>
<path d="M297.544 250.166H115.31L111.465 241.194H301.375L297.544 250.166Z" fill="#F5F5F5"/>
<path d="M301.375 250.166H111.465V255.293H301.375V250.166Z" fill="#E0E0E0"/>
<path d="M307.996 45.1882H104.842V57.151H307.996V45.1882Z" fill="#E0E0E0"/>
<path d="M106.936 165.614C106.388 165.614 105.863 165.397 105.476 165.009C105.089 164.622 104.871 164.097 104.871 163.549V93.7659C104.871 93.2182 105.089 92.693 105.476 92.3057C105.863 91.9184 106.388 91.7009 106.936 91.7009C107.484 91.7009 108.009 91.9184 108.396 92.3057C108.784 92.693 109.001 93.2182 109.001 93.7659V163.549C109.001 164.097 108.784 164.622 108.396 165.009C108.009 165.397 107.484 165.614 106.936 165.614Z" fill="#E0E0E0"/>
<path d="M107.677 54.7585H106.182V96.2012H107.677V54.7585Z" fill="#E0E0E0"/>
<path d="M126.204 380.788C126.033 380.974 126.987 382.312 123.085 381.728C113.472 380.304 96.7383 376.388 92.0813 366.504C85.4306 352.391 106.052 357.546 105.34 350.326C104.628 343.106 81.1296 344.359 78.6658 333.777C76.2021 323.196 92.0956 328.237 92.3092 323.082C92.5228 317.927 74.1798 321.117 70.534 309.695C66.8882 298.273 80.7593 306.69 79.1643 301.933C77.5693 297.177 62.0745 275.715 70.4912 273.223C78.908 270.73 93.1637 292.762 98.6894 295.881C104.215 299 109.057 281.013 115.608 288.618C122.159 296.223 111.763 322.797 120.109 327.938C126.332 331.784 124.58 321.202 132.783 323.182C143.878 325.859 140.132 365.208 126.204 380.788Z" fill="#EBEBEB"/>
<path d="M96.5398 323.139C99.3683 323.348 102.158 323.918 104.843 324.834C103.063 322.161 101.087 319.624 98.9324 317.243C98.8166 317.106 98.7569 316.93 98.765 316.751C98.7732 316.572 98.8487 316.402 98.9764 316.276C99.1042 316.15 99.2747 316.077 99.454 316.072C99.6333 316.066 99.8081 316.128 99.9435 316.246C104.589 321.456 108.565 327.225 111.778 333.421C114.812 315.206 107.178 299.242 107.093 299.128C107.047 299.002 107.05 298.864 107.1 298.74C107.151 298.616 107.245 298.515 107.365 298.457C107.486 298.398 107.623 298.387 107.752 298.424C107.88 298.461 107.991 298.544 108.061 298.658C108.147 298.829 116.278 315.819 112.59 334.931C113.573 336.797 114.57 338.805 115.538 340.955C118.984 348.622 121.706 356.594 123.67 364.767C127.227 358.057 129.177 350.612 129.366 343.02C129.368 342.951 129.384 342.883 129.412 342.819C129.44 342.756 129.48 342.699 129.531 342.652C129.581 342.604 129.64 342.567 129.705 342.542C129.769 342.517 129.838 342.505 129.908 342.507C129.979 342.509 130.049 342.525 130.114 342.554C130.179 342.583 130.237 342.624 130.286 342.676C130.335 342.727 130.373 342.788 130.399 342.855C130.424 342.921 130.436 342.992 130.435 343.063C130.264 351.203 128.076 359.174 124.069 366.262C127.703 382.346 128.917 398.882 127.672 415.324C127.666 415.418 127.642 415.509 127.601 415.593C127.561 415.678 127.503 415.753 127.433 415.815C127.363 415.878 127.281 415.925 127.193 415.956C127.104 415.986 127.01 415.999 126.917 415.993H126.831C126.659 415.962 126.505 415.867 126.399 415.727C126.294 415.587 126.245 415.413 126.262 415.239C128.013 389.604 124.197 369.082 118.899 353.502C115.959 350.096 111.935 347.808 107.506 347.022C107.369 346.994 107.247 346.916 107.165 346.802C107.083 346.689 107.047 346.548 107.064 346.41C107.073 346.34 107.095 346.273 107.13 346.212C107.165 346.152 107.212 346.099 107.268 346.056C107.323 346.014 107.387 345.983 107.455 345.965C107.523 345.948 107.593 345.944 107.662 345.954C111.547 346.624 115.151 348.416 118.03 351.109C114.953 342.441 110.881 334.159 105.896 326.429C102.893 325.174 99.7025 324.423 96.4544 324.207C96.3133 324.196 96.1821 324.13 96.089 324.024C95.9958 323.917 95.948 323.779 95.9559 323.637C95.9594 323.566 95.9775 323.495 96.0092 323.431C96.0409 323.366 96.0854 323.309 96.1401 323.262C96.1948 323.215 96.2585 323.18 96.3272 323.159C96.396 323.138 96.4683 323.131 96.5398 323.139Z" fill="#F5F5F5"/>
<path d="M138.565 386.243C146.555 386.385 160.198 378.966 165.624 371.759C171.05 364.553 155.769 368.911 157.336 363.214C158.902 357.518 177.758 361.719 181.233 353.473C184.708 345.228 171.121 347.136 171.663 342.92C172.204 338.705 186.289 339.574 190.803 330.815C195.318 322.057 182.942 326.97 184.879 323.338C186.816 319.707 202.353 304.44 195.859 301.264C189.365 298.088 174.796 313.982 169.925 315.762C165.055 317.542 163.901 306.548 157.549 311.803C151.198 317.058 155.954 340.015 148.492 343.049C142.923 345.313 145.287 334.789 138.879 337.452C127.543 342.109 135.276 386.172 138.565 386.243Z" fill="#E0E0E0"/>
<g opacity="0.3">
<path d="M138.565 386.243C146.555 386.385 160.198 378.966 165.624 371.759C171.05 364.553 155.769 368.911 157.336 363.214C158.902 357.518 177.758 361.719 181.233 353.473C184.708 345.228 171.121 347.136 171.663 342.92C172.204 338.705 186.289 339.574 190.803 330.815C195.318 322.057 182.942 326.97 184.879 323.338C186.816 319.707 202.353 304.44 195.859 301.264C189.365 298.088 174.796 313.982 169.925 315.762C165.055 317.542 163.901 306.548 157.549 311.803C151.198 317.058 155.954 340.015 148.492 343.049C142.923 345.313 145.287 334.789 138.879 337.452C127.543 342.109 135.276 386.172 138.565 386.243Z" fill="#E0E0E0"/>
</g>
<path d="M141.158 376.658C141.037 376.614 140.936 376.528 140.873 376.416C137.828 369.732 136.59 362.366 137.284 355.054C137.279 354.977 137.291 354.899 137.319 354.827C137.347 354.755 137.39 354.689 137.445 354.635C137.5 354.58 137.567 354.539 137.639 354.512C137.712 354.486 137.79 354.475 137.867 354.481C137.945 354.488 138.02 354.51 138.087 354.548C138.155 354.586 138.214 354.637 138.26 354.7C138.306 354.762 138.338 354.834 138.354 354.91C138.37 354.986 138.369 355.064 138.352 355.14C137.756 362.081 138.865 369.062 141.585 375.476C144.887 366.567 148.957 357.962 153.747 349.756C152.323 332.667 161.124 318.567 161.21 318.425C161.285 318.306 161.405 318.222 161.542 318.191C161.68 318.161 161.824 318.186 161.943 318.261C162.062 318.337 162.146 318.457 162.177 318.594C162.208 318.732 162.182 318.876 162.107 318.995C157.017 327.835 154.459 337.906 154.716 348.104C160.458 338.254 167.31 329.094 175.138 320.803C175.202 320.729 175.281 320.669 175.37 320.627C175.458 320.585 175.555 320.562 175.653 320.559C175.751 320.556 175.849 320.573 175.94 320.609C176.031 320.646 176.113 320.701 176.182 320.771C176.251 320.841 176.305 320.924 176.34 321.015C176.375 321.107 176.391 321.205 176.387 321.303C176.382 321.401 176.357 321.497 176.314 321.585C176.271 321.673 176.21 321.751 176.135 321.815C170.351 327.9 165.132 334.497 160.54 341.525C165.351 339.713 170.453 338.796 175.594 338.819C175.735 338.826 175.867 338.888 175.963 338.992C176.059 339.096 176.11 339.233 176.106 339.374C176.103 339.512 176.045 339.642 175.947 339.738C175.849 339.833 175.717 339.887 175.579 339.887C170.053 339.841 164.574 340.911 159.472 343.034C156.326 347.864 153.427 352.851 150.785 357.974C152.93 356.485 155.373 355.48 157.945 355.027C160.517 354.575 163.157 354.686 165.681 355.353C165.819 355.39 165.936 355.479 166.008 355.602C166.08 355.725 166.101 355.871 166.066 356.008C166.048 356.076 166.017 356.139 165.974 356.195C165.931 356.25 165.877 356.297 165.816 356.331C165.755 356.366 165.688 356.388 165.618 356.396C165.549 356.404 165.478 356.398 165.411 356.379C162.674 355.674 159.805 355.654 157.059 356.32C154.312 356.985 151.771 358.316 149.66 360.195C140.478 378.398 135.241 398.334 134.293 418.699C134.286 418.883 134.208 419.057 134.075 419.185C133.942 419.312 133.765 419.383 133.581 419.383C133.397 419.383 133.22 419.312 133.088 419.185C132.955 419.057 132.877 418.883 132.869 418.699C133.467 404.344 136.262 390.166 141.158 376.658Z" fill="#F5F5F5"/>
<path d="M116.05 464.272C108.431 449.945 103.418 429.238 103.418 420.123C103.455 416.407 104.308 412.745 105.918 409.396C107.527 406.046 109.854 403.091 112.732 400.741H151.768C154.646 403.091 156.972 406.046 158.582 409.396C160.191 412.745 161.045 416.407 161.082 420.123C161.082 429.209 156.069 449.917 148.45 464.272H116.05Z" fill="#F0F0F0"/>
<path d="M348.173 525.097C500.674 525.097 624.301 517.88 624.301 508.976C624.301 500.072 500.674 492.855 348.173 492.855C195.672 492.855 72.0449 500.072 72.0449 508.976C72.0449 517.88 195.672 525.097 348.173 525.097Z" fill="#F5F5F5"/>
<path d="M415.776 92.0569H381.596C380.483 92.0805 379.41 92.4763 378.548 93.1809C377.686 93.8856 377.084 94.8586 376.84 95.9448L376.612 97.0129C376.021 99.6628 374.557 102.037 372.455 103.755C370.352 105.472 367.734 106.433 365.019 106.483H332.549C329.973 106.541 327.48 105.577 325.612 103.803C323.744 102.029 322.654 99.5879 322.58 97.0129V95.9448C322.553 94.8896 322.11 93.8879 321.347 93.1591C320.583 92.4303 319.562 92.0339 318.507 92.0569H284.327C278.713 92.1567 273.331 94.3102 269.198 98.1102C265.064 101.91 262.467 107.093 261.897 112.679L234.468 426.76C234.178 429.386 234.451 432.044 235.269 434.556C236.086 437.068 237.43 439.378 239.21 441.33C240.99 443.282 243.165 444.833 245.592 445.879C248.018 446.925 250.639 447.442 253.281 447.396H384.687C390.302 447.293 395.684 445.136 399.817 441.334C403.95 437.531 406.547 432.347 407.117 426.76L434.603 112.679C434.891 110.052 434.616 107.395 433.796 104.883C432.977 102.372 431.631 100.064 429.85 98.1126C428.069 96.1616 425.892 94.6124 423.465 93.5682C421.039 92.524 418.417 92.0088 415.776 92.0569Z" fill="#2A8BE9"/>
<path opacity="0.7" d="M415.776 92.0569H381.596C380.483 92.0805 379.41 92.4763 378.548 93.1809C377.686 93.8856 377.084 94.8586 376.84 95.9448L376.612 97.0129C376.021 99.6628 374.557 102.037 372.455 103.755C370.352 105.472 367.734 106.433 365.019 106.483H332.549C329.973 106.541 327.48 105.577 325.612 103.803C323.744 102.029 322.654 99.5879 322.58 97.0129V95.9448C322.553 94.8896 322.11 93.8879 321.347 93.1591C320.583 92.4303 319.562 92.0339 318.507 92.0569H284.327C278.713 92.1567 273.331 94.3102 269.198 98.1102C265.064 101.91 262.467 107.093 261.897 112.679L234.468 426.76C234.178 429.386 234.451 432.044 235.269 434.556C236.086 437.068 237.43 439.378 239.21 441.33C240.99 443.282 243.165 444.833 245.592 445.879C248.018 446.925 250.639 447.442 253.281 447.396H384.687C390.302 447.293 395.684 445.136 399.817 441.334C403.95 437.531 406.547 432.347 407.117 426.76L434.603 112.679C434.891 110.052 434.616 107.395 433.796 104.883C432.977 102.372 431.631 100.064 429.85 98.1126C428.069 96.1616 425.892 94.6124 423.465 93.5682C421.039 92.524 418.417 92.0088 415.776 92.0569Z" fill="white"/>
<path d="M402.461 236.522H332.677C332.09 236.532 331.508 236.416 330.969 236.184C330.43 235.951 329.946 235.607 329.551 235.173C329.155 234.739 328.855 234.227 328.673 233.669C328.49 233.111 328.428 232.52 328.49 231.937L333.746 171.852C333.871 170.61 334.448 169.457 335.366 168.612C336.285 167.767 337.482 167.288 338.73 167.266H408.513C409.101 167.254 409.684 167.368 410.225 167.6C410.765 167.832 411.249 168.177 411.646 168.611C412.042 169.045 412.341 169.558 412.523 170.117C412.705 170.676 412.765 171.268 412.7 171.852L407.445 231.937C407.317 233.178 406.739 234.329 405.821 235.173C404.903 236.018 403.708 236.498 402.461 236.522Z" fill="white"/>
<path d="M379.246 424.396H262.466C261.007 424.423 259.559 424.139 258.218 423.562C256.877 422.985 255.675 422.129 254.691 421.051C253.707 419.973 252.965 418.697 252.513 417.309C252.061 415.922 251.91 414.453 252.07 413.003C252.386 409.918 253.821 407.055 256.104 404.956C258.387 402.857 261.359 401.666 264.46 401.61H381.24C382.699 401.583 384.148 401.867 385.488 402.444C386.829 403.021 388.031 403.877 389.015 404.955C389.999 406.033 390.741 407.308 391.193 408.696C391.645 410.084 391.796 411.552 391.636 413.003C391.323 416.089 389.889 418.953 387.605 421.053C385.322 423.153 382.348 424.342 379.246 424.396Z" fill="white"/>
<path d="M388.546 150.746H281.407C280.586 150.771 279.769 150.618 279.012 150.297C278.256 149.976 277.578 149.496 277.024 148.888C276.471 148.281 276.056 147.561 275.807 146.778C275.558 145.995 275.481 145.167 275.582 144.352L276.451 134.383C276.631 132.654 277.438 131.052 278.718 129.876C279.998 128.701 281.663 128.035 283.401 128.002H390.539C391.357 127.988 392.169 128.147 392.92 128.47C393.672 128.793 394.346 129.272 394.898 129.875C395.45 130.479 395.868 131.193 396.123 131.97C396.378 132.747 396.465 133.569 396.378 134.383L395.495 144.352C395.318 146.083 394.514 147.689 393.233 148.867C391.953 150.045 390.285 150.713 388.546 150.746Z" fill="white"/>
<path d="M410.335 134.041C410.286 134.523 410.062 134.971 409.705 135.299C409.348 135.627 408.883 135.813 408.398 135.821C408.171 135.824 407.945 135.779 407.736 135.689C407.527 135.598 407.339 135.465 407.186 135.296C407.032 135.128 406.916 134.929 406.846 134.713C406.775 134.496 406.751 134.267 406.775 134.041C406.824 133.56 407.048 133.114 407.406 132.788C407.763 132.462 408.228 132.279 408.712 132.275C408.939 132.269 409.164 132.313 409.373 132.401C409.582 132.49 409.77 132.623 409.924 132.79C410.077 132.957 410.193 133.155 410.264 133.371C410.335 133.587 410.36 133.815 410.335 134.041Z" fill="white"/>
<path d="M409.866 139.367C409.82 139.848 409.599 140.296 409.244 140.624C408.89 140.953 408.426 141.139 407.943 141.147C407.715 141.151 407.49 141.106 407.281 141.015C407.072 140.925 406.884 140.791 406.731 140.623C406.577 140.454 406.461 140.255 406.39 140.039C406.32 139.823 406.295 139.594 406.32 139.367C406.365 138.886 406.586 138.438 406.941 138.11C407.296 137.781 407.759 137.595 408.242 137.587C408.47 137.584 408.696 137.629 408.905 137.719C409.114 137.81 409.301 137.943 409.455 138.112C409.608 138.28 409.724 138.479 409.795 138.695C409.866 138.912 409.89 139.141 409.866 139.367Z" fill="white"/>
<path d="M409.409 144.679C409.361 145.162 409.136 145.609 408.779 145.937C408.422 146.266 407.957 146.451 407.473 146.459C407.245 146.463 407.019 146.418 406.81 146.327C406.601 146.237 406.414 146.103 406.26 145.935C406.107 145.766 405.991 145.567 405.92 145.351C405.849 145.135 405.825 144.906 405.849 144.679C405.898 144.197 406.122 143.749 406.479 143.421C406.836 143.093 407.301 142.907 407.786 142.899C408.014 142.896 408.239 142.941 408.448 143.031C408.657 143.122 408.845 143.255 408.998 143.424C409.152 143.592 409.268 143.791 409.339 144.007C409.409 144.224 409.434 144.453 409.409 144.679Z" fill="white"/>
<path d="M393.787 335.643H263.435C262.847 335.655 262.264 335.541 261.724 335.309C261.184 335.077 260.699 334.733 260.303 334.299C259.906 333.865 259.607 333.351 259.425 332.792C259.243 332.233 259.183 331.642 259.248 331.057L265.315 262.485C265.44 261.243 266.017 260.09 266.936 259.244C267.854 258.399 269.051 257.92 270.299 257.899H400.609C401.195 257.889 401.777 258.005 402.316 258.237C402.854 258.47 403.337 258.815 403.732 259.249C404.126 259.683 404.424 260.196 404.605 260.754C404.786 261.312 404.846 261.902 404.782 262.485L398.786 331.057C398.66 332.302 398.082 333.457 397.16 334.302C396.238 335.148 395.038 335.625 393.787 335.643Z" fill="white"/>
<path d="M299.295 349.97H258.707C258.565 349.973 258.424 349.945 258.293 349.889C258.162 349.833 258.045 349.75 257.949 349.644C257.853 349.539 257.781 349.415 257.738 349.279C257.694 349.144 257.68 349 257.696 348.859C257.724 348.555 257.863 348.273 258.086 348.065C258.31 347.858 258.602 347.74 258.907 347.734H299.495C299.638 347.731 299.781 347.759 299.913 347.816C300.045 347.873 300.163 347.957 300.259 348.064C300.355 348.171 300.427 348.298 300.469 348.435C300.512 348.572 300.524 348.717 300.506 348.859C300.475 349.16 300.334 349.439 300.111 349.644C299.888 349.849 299.598 349.965 299.295 349.97Z" fill="white"/>
<path d="M350.022 349.97H306.458C306.314 349.975 306.171 349.949 306.039 349.894C305.907 349.839 305.788 349.755 305.69 349.65C305.593 349.544 305.519 349.419 305.475 349.283C305.43 349.146 305.416 349.002 305.432 348.859C305.46 348.555 305.599 348.273 305.823 348.065C306.046 347.858 306.338 347.74 306.643 347.734H350.222C350.365 347.731 350.508 347.759 350.64 347.816C350.772 347.873 350.89 347.957 350.986 348.064C351.082 348.171 351.154 348.298 351.196 348.435C351.239 348.572 351.251 348.717 351.233 348.859C351.202 349.16 351.061 349.439 350.838 349.644C350.615 349.849 350.325 349.965 350.022 349.97Z" fill="white"/>
<path d="M285.253 359.868H257.852C257.708 359.871 257.565 359.843 257.432 359.786C257.3 359.729 257.181 359.645 257.084 359.538C256.987 359.431 256.914 359.305 256.869 359.168C256.825 359.031 256.811 358.886 256.827 358.743C256.858 358.44 256.998 358.159 257.22 357.952C257.443 357.745 257.733 357.626 258.037 357.618H285.495C285.638 357.617 285.78 357.646 285.912 357.704C286.043 357.762 286.161 357.846 286.258 357.952C286.354 358.058 286.428 358.184 286.473 358.32C286.518 358.456 286.534 358.6 286.52 358.743C286.488 359.055 286.34 359.344 286.106 359.552C285.871 359.76 285.567 359.873 285.253 359.868Z" fill="white"/>
<path d="M337.434 359.868H292.46C292.315 359.871 292.172 359.843 292.04 359.786C291.907 359.729 291.789 359.644 291.692 359.538C291.594 359.431 291.521 359.305 291.477 359.168C291.432 359.031 291.418 358.886 291.434 358.743C291.465 358.438 291.607 358.155 291.833 357.948C292.059 357.74 292.353 357.623 292.659 357.618H337.619C337.763 357.615 337.907 357.643 338.039 357.699C338.171 357.756 338.29 357.841 338.387 357.947C338.484 358.054 338.558 358.18 338.602 358.317C338.646 358.454 338.661 358.599 338.645 358.743C338.617 359.046 338.478 359.329 338.254 359.537C338.031 359.744 337.739 359.862 337.434 359.868Z" fill="white"/>
<path d="M330.17 369.751H256.983C256.84 369.756 256.697 369.73 256.564 369.675C256.432 369.62 256.313 369.537 256.216 369.431C256.118 369.326 256.045 369.201 256 369.064C255.956 368.928 255.941 368.783 255.958 368.641C255.989 368.336 256.131 368.053 256.357 367.846C256.582 367.638 256.876 367.521 257.183 367.515H330.369C330.513 367.515 330.655 367.544 330.786 367.602C330.918 367.66 331.036 367.744 331.132 367.85C331.229 367.956 331.302 368.081 331.347 368.217C331.393 368.354 331.409 368.498 331.395 368.641C331.36 368.943 331.217 369.222 330.992 369.427C330.766 369.631 330.474 369.746 330.17 369.751Z" fill="white"/>
<path d="M342.219 369.751H337.391C337.248 369.756 337.105 369.73 336.973 369.675C336.84 369.62 336.721 369.537 336.624 369.431C336.526 369.326 336.453 369.201 336.408 369.064C336.364 368.928 336.349 368.783 336.366 368.641C336.394 368.337 336.533 368.054 336.756 367.847C336.98 367.639 337.272 367.521 337.577 367.515H342.419C342.562 367.512 342.705 367.54 342.837 367.597C342.969 367.654 343.087 367.739 343.183 367.846C343.279 367.953 343.35 368.079 343.393 368.216C343.436 368.353 343.448 368.498 343.43 368.641C343.398 368.942 343.258 369.221 343.035 369.425C342.812 369.63 342.522 369.746 342.219 369.751Z" fill="white"/>
<path d="M290.28 379.649H256.101C255.957 379.65 255.815 379.62 255.684 379.563C255.552 379.505 255.434 379.421 255.338 379.315C255.241 379.209 255.168 379.083 255.123 378.947C255.077 378.811 255.061 378.667 255.075 378.524C255.106 378.219 255.248 377.936 255.474 377.729C255.7 377.522 255.994 377.404 256.3 377.399H290.479C290.624 377.396 290.767 377.424 290.899 377.481C291.032 377.538 291.15 377.622 291.248 377.729C291.345 377.835 291.418 377.962 291.462 378.099C291.507 378.236 291.521 378.381 291.505 378.524C291.474 378.829 291.332 379.112 291.106 379.319C290.88 379.526 290.586 379.644 290.28 379.649Z" fill="white"/>
<path d="M339.998 379.649H297.444C297.301 379.65 297.159 379.62 297.027 379.563C296.896 379.505 296.778 379.421 296.682 379.315C296.585 379.209 296.512 379.083 296.466 378.947C296.421 378.811 296.405 378.667 296.419 378.524C296.45 378.219 296.592 377.936 296.818 377.729C297.043 377.522 297.337 377.404 297.644 377.399H340.183C340.327 377.396 340.47 377.424 340.603 377.481C340.735 377.538 340.854 377.622 340.951 377.729C341.048 377.835 341.121 377.962 341.166 378.099C341.21 378.236 341.225 378.381 341.208 378.524C341.177 378.827 341.038 379.107 340.815 379.314C340.592 379.521 340.302 379.64 339.998 379.649Z" fill="white"/>
<path d="M297.33 389.533H255.246C255.102 389.536 254.96 389.508 254.828 389.451C254.696 389.394 254.578 389.309 254.482 389.203C254.386 389.096 254.314 388.969 254.272 388.832C254.229 388.695 254.216 388.55 254.235 388.408C254.266 388.107 254.407 387.828 254.63 387.623C254.853 387.418 255.143 387.302 255.445 387.297H297.515C297.658 387.292 297.801 387.318 297.933 387.373C298.066 387.428 298.185 387.512 298.282 387.617C298.38 387.723 298.453 387.848 298.498 387.984C298.542 388.121 298.557 388.265 298.54 388.408C298.512 388.711 298.373 388.994 298.15 389.202C297.926 389.409 297.634 389.527 297.33 389.533Z" fill="white"/>
<path d="M338.373 389.533H304.478C304.335 389.536 304.192 389.508 304.06 389.451C303.928 389.394 303.81 389.309 303.714 389.203C303.618 389.096 303.547 388.969 303.504 388.832C303.461 388.695 303.449 388.55 303.467 388.408C303.499 388.107 303.639 387.828 303.862 387.623C304.085 387.418 304.375 387.302 304.678 387.297H338.573C338.716 387.292 338.859 387.318 338.991 387.373C339.124 387.428 339.243 387.512 339.34 387.617C339.438 387.723 339.511 387.848 339.555 387.984C339.6 388.121 339.614 388.265 339.598 388.408C339.567 388.713 339.425 388.995 339.199 389.203C338.973 389.41 338.68 389.527 338.373 389.533Z" fill="white"/>
<path d="M400.809 230.826C400.685 230.968 400.534 231.084 400.365 231.168C400.196 231.251 400.013 231.3 399.824 231.312C399.636 231.324 399.448 231.299 399.27 231.237C399.091 231.176 398.927 231.079 398.787 230.954L340.496 175.327C340.231 175.06 340.082 174.699 340.082 174.323C340.082 173.947 340.231 173.586 340.496 173.319C340.62 173.177 340.771 173.06 340.94 172.977C341.109 172.893 341.292 172.844 341.481 172.832C341.669 172.82 341.857 172.846 342.035 172.907C342.214 172.969 342.378 173.065 342.518 173.191L400.809 228.818C401.074 229.085 401.223 229.446 401.223 229.822C401.223 230.198 401.074 230.559 400.809 230.826Z" fill="#2A8BE9"/>
<path d="M335.34 230.812C335.225 230.66 335.14 230.487 335.092 230.303C335.045 230.118 335.034 229.926 335.062 229.737C335.09 229.549 335.156 229.368 335.255 229.205C335.354 229.042 335.485 228.901 335.64 228.789L365.376 204.479C365.658 204.235 366.026 204.111 366.399 204.135C366.772 204.159 367.121 204.329 367.37 204.607C367.483 204.758 367.566 204.93 367.612 205.113C367.659 205.297 367.668 205.487 367.641 205.674C367.613 205.861 367.548 206.04 367.45 206.202C367.352 206.364 367.223 206.504 367.07 206.615L337.334 230.94C337.052 231.184 336.684 231.308 336.311 231.284C335.938 231.26 335.59 231.09 335.34 230.812Z" fill="#2A8BE9"/>
<path d="M373.763 199.381C373.649 199.23 373.567 199.058 373.52 198.875C373.474 198.691 373.464 198.501 373.492 198.314C373.52 198.127 373.585 197.948 373.683 197.786C373.78 197.624 373.909 197.484 374.062 197.373L403.855 173.02C404.138 172.775 404.506 172.652 404.879 172.675C405.252 172.699 405.6 172.869 405.849 173.148C405.963 173.299 406.045 173.471 406.092 173.654C406.139 173.837 406.148 174.028 406.12 174.215C406.092 174.401 406.028 174.581 405.93 174.743C405.832 174.904 405.703 175.045 405.55 175.156L375.757 199.509C375.474 199.753 375.107 199.877 374.734 199.853C374.361 199.829 374.012 199.659 373.763 199.381Z" fill="#2A8BE9"/>
<g opacity="0.7">
<path d="M400.809 230.826C400.685 230.968 400.534 231.084 400.365 231.168C400.196 231.251 400.013 231.3 399.824 231.312C399.636 231.324 399.448 231.299 399.27 231.237C399.091 231.176 398.927 231.079 398.787 230.954L340.496 175.327C340.231 175.06 340.082 174.699 340.082 174.323C340.082 173.947 340.231 173.586 340.496 173.319C340.62 173.177 340.771 173.06 340.94 172.977C341.109 172.893 341.292 172.844 341.481 172.832C341.669 172.82 341.857 172.846 342.035 172.907C342.214 172.969 342.378 173.065 342.518 173.191L400.809 228.818C401.074 229.085 401.223 229.446 401.223 229.822C401.223 230.198 401.074 230.559 400.809 230.826Z" fill="white"/>
</g>
<g opacity="0.7">
<path d="M335.34 230.812C335.225 230.66 335.14 230.487 335.092 230.303C335.045 230.118 335.034 229.926 335.062 229.737C335.09 229.549 335.156 229.368 335.255 229.205C335.354 229.042 335.485 228.901 335.64 228.789L365.376 204.479C365.658 204.235 366.026 204.111 366.399 204.135C366.772 204.159 367.121 204.329 367.37 204.607C367.483 204.758 367.566 204.93 367.612 205.113C367.659 205.297 367.668 205.487 367.641 205.674C367.613 205.861 367.548 206.04 367.45 206.202C367.352 206.364 367.223 206.504 367.07 206.615L337.334 230.94C337.052 231.184 336.684 231.308 336.311 231.284C335.938 231.26 335.59 231.09 335.34 230.812Z" fill="white"/>
</g>
<g opacity="0.7">
<path d="M373.763 199.381C373.649 199.23 373.567 199.058 373.52 198.875C373.474 198.691 373.464 198.501 373.492 198.314C373.52 198.127 373.585 197.948 373.683 197.786C373.78 197.624 373.909 197.484 374.062 197.373L403.855 173.02C404.138 172.775 404.506 172.652 404.879 172.675C405.252 172.699 405.6 172.869 405.849 173.148C405.963 173.299 406.045 173.471 406.092 173.654C406.139 173.837 406.148 174.028 406.12 174.215C406.092 174.401 406.028 174.581 405.93 174.743C405.832 174.904 405.703 175.045 405.55 175.156L375.757 199.509C375.474 199.753 375.107 199.877 374.734 199.853C374.361 199.829 374.012 199.659 373.763 199.381Z" fill="white"/>
</g>
<path d="M235.038 85.221H216.524C214.731 85.2285 213.014 85.9461 211.749 87.2165C210.484 88.487 209.773 90.207 209.773 91.9999V110.514C209.773 112.312 210.488 114.036 211.759 115.307C213.03 116.579 214.754 117.293 216.552 117.293H235.066C236.864 117.293 238.588 116.579 239.86 115.307C241.131 114.036 241.845 112.312 241.845 110.514V91.9999C241.845 91.1073 241.669 90.2235 241.326 89.3991C240.984 88.5748 240.482 87.8262 239.85 87.1964C239.217 86.5665 238.466 86.0678 237.641 85.7288C236.815 85.3898 235.93 85.2172 235.038 85.221ZM225.824 91.7721C228.601 91.7721 230.096 94.0365 230.096 96.8135C230.096 99.5906 228.601 101.855 225.824 101.855C223.046 101.855 221.551 99.6049 221.551 96.8135C221.551 94.0222 223.032 91.7721 225.824 91.7721ZM236.946 110.671H214.687C214.597 110.671 214.508 110.653 214.425 110.619C214.342 110.585 214.266 110.535 214.203 110.471L215.627 106.583C216.071 105.357 216.882 104.298 217.95 103.548C219.017 102.799 220.29 102.397 221.594 102.396H230.011C231.317 102.396 232.591 102.798 233.661 103.547C234.731 104.296 235.545 105.356 235.992 106.583L237.416 110.471C237.355 110.534 237.282 110.584 237.201 110.618C237.121 110.653 237.034 110.67 236.946 110.671Z" fill="#2A8BE9"/>
<path opacity="0.7" d="M235.038 85.221H216.524C214.731 85.2285 213.014 85.9461 211.749 87.2165C210.484 88.487 209.773 90.207 209.773 91.9999V110.514C209.773 112.312 210.488 114.036 211.759 115.307C213.03 116.579 214.754 117.293 216.552 117.293H235.066C236.864 117.293 238.588 116.579 239.86 115.307C241.131 114.036 241.845 112.312 241.845 110.514V91.9999C241.845 91.1073 241.669 90.2235 241.326 89.3991C240.984 88.5748 240.482 87.8262 239.85 87.1964C239.217 86.5665 238.466 86.0678 237.641 85.7288C236.815 85.3898 235.93 85.2172 235.038 85.221ZM225.824 91.7721C228.601 91.7721 230.096 94.0365 230.096 96.8135C230.096 99.5906 228.601 101.855 225.824 101.855C223.046 101.855 221.551 99.6049 221.551 96.8135C221.551 94.0222 223.032 91.7721 225.824 91.7721ZM236.946 110.671H214.687C214.597 110.671 214.508 110.653 214.425 110.619C214.342 110.585 214.266 110.535 214.203 110.471L215.627 106.583C216.071 105.357 216.882 104.298 217.95 103.548C219.017 102.799 220.29 102.397 221.594 102.396H230.011C231.317 102.396 232.591 102.798 233.661 103.547C234.731 104.296 235.545 105.356 235.992 106.583L237.416 110.471C237.355 110.534 237.282 110.584 237.201 110.618C237.121 110.653 237.034 110.67 236.946 110.671Z" fill="white"/>
<path d="M169.414 161.1H155.4C154.202 161.098 153.015 161.332 151.908 161.789C150.8 162.246 149.794 162.918 148.946 163.764C148.098 164.611 147.426 165.616 146.967 166.723C146.508 167.83 146.271 169.016 146.271 170.214V184.228C146.271 186.649 147.233 188.971 148.945 190.683C150.657 192.395 152.979 193.356 155.4 193.356H169.414C170.612 193.356 171.798 193.12 172.905 192.661C174.012 192.202 175.017 191.53 175.864 190.682C176.71 189.834 177.381 188.828 177.839 187.72C178.296 186.613 178.53 185.426 178.528 184.228V170.214C178.53 169.017 178.296 167.831 177.838 166.724C177.381 165.617 176.71 164.612 175.863 163.765C175.016 162.918 174.011 162.247 172.904 161.79C171.797 161.332 170.611 161.098 169.414 161.1ZM162.407 184.869C162.407 184.869 156.71 178.617 156.71 175.426C156.71 173.899 157.317 172.433 158.398 171.353C159.478 170.273 160.943 169.666 162.471 169.666C163.999 169.666 165.464 170.273 166.545 171.353C167.625 172.433 168.232 173.899 168.232 175.426C168.161 178.617 162.407 184.869 162.407 184.869Z" fill="#2A8BE9"/>
<path d="M162.407 172.806C161.884 172.803 161.373 172.956 160.938 173.244C160.502 173.533 160.162 173.944 159.961 174.426C159.76 174.908 159.707 175.439 159.808 175.951C159.909 176.464 160.16 176.934 160.529 177.304C160.899 177.673 161.37 177.924 161.882 178.025C162.394 178.127 162.925 178.073 163.407 177.872C163.889 177.671 164.301 177.331 164.589 176.896C164.877 176.46 165.03 175.949 165.027 175.426C165.027 174.731 164.751 174.065 164.26 173.574C163.768 173.082 163.102 172.806 162.407 172.806Z" fill="#2A8BE9"/>
<g opacity="0.7">
<path d="M169.414 161.1H155.4C154.202 161.098 153.015 161.332 151.908 161.789C150.8 162.246 149.794 162.918 148.946 163.764C148.098 164.611 147.426 165.616 146.967 166.723C146.508 167.83 146.271 169.016 146.271 170.214V184.228C146.271 186.649 147.233 188.971 148.945 190.683C150.657 192.395 152.979 193.356 155.4 193.356H169.414C170.612 193.356 171.798 193.12 172.905 192.661C174.012 192.202 175.017 191.53 175.864 190.682C176.71 189.834 177.381 188.828 177.839 187.72C178.296 186.613 178.53 185.426 178.528 184.228V170.214C178.53 169.017 178.296 167.831 177.838 166.724C177.381 165.617 176.71 164.612 175.863 163.765C175.016 162.918 174.011 162.247 172.904 161.79C171.797 161.332 170.611 161.098 169.414 161.1ZM162.407 184.869C162.407 184.869 156.71 178.617 156.71 175.426C156.71 173.899 157.317 172.433 158.398 171.353C159.478 170.273 160.943 169.666 162.471 169.666C163.999 169.666 165.464 170.273 166.545 171.353C167.625 172.433 168.232 173.899 168.232 175.426C168.161 178.617 162.407 184.869 162.407 184.869Z" fill="white"/>
<path d="M162.407 172.806C161.884 172.803 161.373 172.956 160.938 173.244C160.502 173.532 160.162 173.944 159.961 174.426C159.76 174.908 159.707 175.439 159.808 175.951C159.909 176.463 160.16 176.934 160.529 177.304C160.899 177.673 161.37 177.924 161.882 178.025C162.394 178.127 162.925 178.073 163.407 177.872C163.889 177.671 164.301 177.331 164.589 176.895C164.877 176.46 165.03 175.949 165.027 175.426C165.027 174.731 164.751 174.065 164.26 173.573C163.768 173.082 163.102 172.806 162.407 172.806Z" fill="white"/>
</g>
<path d="M477.086 121.38L486.471 115.313L477.086 109.232V121.38Z" fill="#2A8BE9"/>
<path d="M489.178 98.7504H471.291C469.27 98.7504 467.332 99.5531 465.903 100.982C464.475 102.411 463.672 104.349 463.672 106.37V124.257C463.676 126.276 464.48 128.212 465.908 129.64C467.336 131.068 469.271 131.872 471.291 131.876H489.178C491.199 131.876 493.137 131.073 494.566 129.644C495.995 128.216 496.798 126.278 496.798 124.257V106.37C496.799 105.368 496.604 104.377 496.221 103.452C495.839 102.526 495.278 101.686 494.57 100.978C493.862 100.27 493.022 99.7088 492.096 99.3265C491.171 98.9443 490.179 98.7485 489.178 98.7504ZM480.235 127.233C477.877 127.233 475.571 126.534 473.611 125.223C471.65 123.913 470.122 122.05 469.221 119.872C468.319 117.693 468.084 115.295 468.545 112.982C469.006 110.67 470.142 108.546 471.811 106.879C473.479 105.213 475.605 104.079 477.918 103.62C480.231 103.162 482.628 103.4 484.806 104.305C486.984 105.209 488.845 106.739 490.153 108.701C491.461 110.663 492.158 112.969 492.155 115.327C492.153 116.891 491.843 118.439 491.243 119.883C490.643 121.326 489.764 122.638 488.658 123.742C487.551 124.846 486.237 125.722 484.792 126.318C483.347 126.915 481.798 127.221 480.235 127.219V127.233Z" fill="#2A8BE9"/>
<g opacity="0.7">
<path d="M477.088 121.38L486.473 115.313L477.088 109.232V121.38Z" fill="white"/>
<path d="M489.178 98.7504H471.291C469.27 98.7504 467.332 99.5531 465.903 100.982C464.475 102.411 463.672 104.349 463.672 106.37V124.257C463.676 126.276 464.48 128.212 465.908 129.64C467.336 131.068 469.271 131.872 471.291 131.876H489.178C491.199 131.876 493.137 131.073 494.566 129.644C495.995 128.216 496.798 126.278 496.798 124.257V106.37C496.799 105.368 496.604 104.377 496.221 103.452C495.839 102.526 495.278 101.686 494.57 100.978C493.862 100.27 493.022 99.7088 492.096 99.3265C491.171 98.9443 490.179 98.7485 489.178 98.7504ZM480.235 127.233C477.877 127.233 475.571 126.534 473.611 125.223C471.65 123.913 470.122 122.05 469.221 119.872C468.319 117.693 468.084 115.295 468.545 112.982C469.006 110.67 470.142 108.546 471.811 106.879C473.479 105.213 475.605 104.079 477.918 103.62C480.231 103.162 482.628 103.4 484.806 104.305C486.984 105.209 488.845 106.739 490.153 108.701C491.461 110.663 492.158 112.969 492.155 115.327C492.153 116.891 491.843 118.439 491.243 119.883C490.643 121.326 489.764 122.638 488.658 123.742C487.551 124.846 486.237 125.722 484.792 126.318C483.347 126.915 481.798 127.221 480.235 127.219V127.233Z" fill="white"/>
</g>
<path d="M506.736 167.351C506.736 166.981 506.736 166.611 506.736 166.255L508.886 165.059C508.73 164.04 508.462 163.042 508.089 162.082H505.639C505.328 161.414 504.956 160.775 504.528 160.174L505.796 158.08C505.146 157.277 504.416 156.542 503.617 155.887L501.509 157.155C500.911 156.735 500.277 156.368 499.615 156.058V153.594C498.652 153.23 497.655 152.963 496.639 152.797L495.442 154.947C495.086 154.947 494.716 154.947 494.346 154.947C493.976 154.947 493.619 154.947 493.249 154.947L492.053 152.797C491.038 152.967 490.041 153.234 489.076 153.594V156.058C488.413 156.365 487.779 156.732 487.182 157.155L485.075 155.887C484.267 156.538 483.532 157.273 482.881 158.08L484.149 160.174C483.731 160.778 483.364 161.417 483.052 162.082H480.603C480.231 163.044 479.959 164.041 479.791 165.059L481.941 166.255C481.941 166.611 481.941 166.981 481.941 167.351C481.941 167.722 481.941 168.092 481.941 168.448L479.791 169.644C479.957 170.662 480.229 171.66 480.603 172.621H483.052C483.364 173.286 483.731 173.925 484.149 174.529L482.881 176.637C483.536 177.436 484.271 178.166 485.075 178.816L487.182 177.548C487.775 177.976 488.41 178.344 489.076 178.645V181.109C490.039 181.476 491.036 181.743 492.053 181.906L493.249 179.756C493.619 179.756 493.976 179.756 494.346 179.756C494.716 179.756 495.086 179.756 495.442 179.756L496.639 181.906C497.656 181.747 498.654 181.479 499.615 181.109V178.645C500.28 178.341 500.914 177.973 501.509 177.548L503.617 178.816C504.413 178.162 505.143 177.433 505.796 176.637L504.528 174.529C504.956 173.928 505.328 173.289 505.639 172.621H508.089C508.464 171.661 508.732 170.663 508.886 169.644L506.736 168.448C506.707 168.049 506.736 167.722 506.736 167.351ZM494.317 175.782C492.65 175.782 491.02 175.288 489.633 174.362C488.247 173.435 487.166 172.118 486.528 170.578C485.89 169.037 485.723 167.342 486.048 165.707C486.374 164.071 487.177 162.569 488.356 161.39C489.535 160.211 491.037 159.408 492.672 159.083C494.308 158.757 496.003 158.924 497.544 159.562C499.084 160.2 500.401 161.281 501.327 162.667C502.254 164.054 502.748 165.684 502.748 167.351C502.748 169.587 501.86 171.732 500.279 173.313C498.698 174.894 496.553 175.782 494.317 175.782Z" fill="#2A8BE9"/>
<path opacity="0.7" d="M506.736 167.351C506.736 166.981 506.736 166.611 506.736 166.255L508.886 165.059C508.73 164.04 508.462 163.042 508.089 162.082H505.639C505.328 161.414 504.956 160.775 504.528 160.174L505.796 158.08C505.146 157.277 504.416 156.542 503.617 155.887L501.509 157.155C500.911 156.735 500.277 156.368 499.615 156.058V153.594C498.652 153.23 497.655 152.963 496.639 152.797L495.442 154.947C495.086 154.947 494.716 154.947 494.346 154.947C493.976 154.947 493.619 154.947 493.249 154.947L492.053 152.797C491.038 152.967 490.041 153.234 489.076 153.594V156.058C488.413 156.365 487.779 156.732 487.182 157.155L485.075 155.887C484.267 156.538 483.532 157.273 482.881 158.08L484.149 160.174C483.731 160.778 483.364 161.417 483.052 162.082H480.603C480.231 163.044 479.959 164.041 479.791 165.059L481.941 166.255C481.941 166.611 481.941 166.981 481.941 167.351C481.941 167.722 481.941 168.092 481.941 168.448L479.791 169.644C479.957 170.662 480.229 171.66 480.603 172.621H483.052C483.364 173.286 483.731 173.925 484.149 174.529L482.881 176.637C483.536 177.436 484.271 178.166 485.075 178.816L487.182 177.548C487.775 177.976 488.41 178.344 489.076 178.645V181.109C490.039 181.476 491.036 181.743 492.053 181.906L493.249 179.756C493.619 179.756 493.976 179.756 494.346 179.756C494.716 179.756 495.086 179.756 495.442 179.756L496.639 181.906C497.656 181.747 498.654 181.479 499.615 181.109V178.645C500.28 178.341 500.914 177.973 501.509 177.548L503.617 178.816C504.413 178.162 505.143 177.433 505.796 176.637L504.528 174.529C504.956 173.928 505.328 173.289 505.639 172.621H508.089C508.464 171.661 508.732 170.663 508.886 169.644L506.736 168.448C506.707 168.049 506.736 167.722 506.736 167.351ZM494.317 175.782C492.65 175.782 491.02 175.288 489.633 174.362C488.247 173.435 487.166 172.118 486.528 170.578C485.89 169.037 485.723 167.342 486.048 165.707C486.374 164.071 487.177 162.569 488.356 161.39C489.535 160.211 491.037 159.408 492.672 159.083C494.308 158.757 496.003 158.924 497.544 159.562C499.084 160.2 500.401 161.281 501.327 162.667C502.254 164.054 502.748 165.684 502.748 167.351C502.748 169.587 501.86 171.732 500.279 173.313C498.698 174.894 496.553 175.782 494.317 175.782Z" fill="white"/>
<path d="M474.28 209.691C474.28 209.136 474.28 208.595 474.209 208.054L477.428 206.273C477.185 204.745 476.784 203.247 476.231 201.802L472.557 201.873C472.093 200.876 471.54 199.922 470.905 199.025L472.799 195.877C471.829 194.679 470.736 193.586 469.538 192.616L466.39 194.496C465.489 193.87 464.536 193.323 463.542 192.858V189.184C462.103 188.629 460.608 188.228 459.085 187.987L457.304 191.206C456.763 191.206 456.222 191.206 455.667 191.206C455.111 191.206 454.57 191.206 454.029 191.206L452.291 187.987C450.768 188.231 449.274 188.632 447.834 189.184V192.858C446.839 193.322 445.887 193.87 444.985 194.496L441.909 192.616C440.707 193.586 439.609 194.679 438.634 195.877L440.528 199.025C439.897 199.923 439.349 200.876 438.89 201.873L435.216 201.802C434.656 203.244 434.255 204.744 434.02 206.273L437.238 208.054C437.124 209.142 437.124 210.24 437.238 211.329L434.02 213.124C434.257 214.648 434.658 216.143 435.216 217.581L438.89 217.51C439.346 218.508 439.894 219.462 440.528 220.358L438.634 223.506C439.609 224.704 440.707 225.797 441.909 226.767L445.057 224.887C445.954 225.518 446.908 226.066 447.905 226.525V230.199C449.343 230.757 450.838 231.158 452.363 231.395L454.157 228.177C455.246 228.291 456.344 228.291 457.433 228.177L459.213 231.395C460.738 231.162 462.233 230.761 463.67 230.199V226.525C464.667 226.066 465.62 225.518 466.519 224.887L469.666 226.767C470.864 225.797 471.957 224.704 472.927 223.506L471.033 220.358C471.671 219.462 472.224 218.509 472.685 217.51L476.359 217.581C476.911 216.141 477.312 214.647 477.556 213.124L474.337 211.329C474.252 210.774 474.28 210.247 474.28 209.691ZM455.766 217.012C454.319 217.012 452.903 216.582 451.699 215.778C450.496 214.973 449.557 213.83 449.003 212.493C448.449 211.155 448.304 209.683 448.587 208.263C448.869 206.843 449.566 205.539 450.59 204.515C451.614 203.492 452.918 202.794 454.338 202.512C455.758 202.229 457.23 202.374 458.568 202.928C459.905 203.483 461.048 204.421 461.853 205.625C462.657 206.828 463.086 208.244 463.086 209.691C463.086 210.656 462.896 211.612 462.525 212.503C462.155 213.393 461.612 214.202 460.927 214.883C460.243 215.563 459.431 216.101 458.538 216.467C457.645 216.832 456.688 217.017 455.724 217.012H455.766Z" fill="#2A8BE9"/>
<path opacity="0.7" d="M474.28 209.691C474.28 209.136 474.28 208.595 474.209 208.054L477.428 206.273C477.185 204.745 476.784 203.247 476.231 201.802L472.557 201.873C472.093 200.876 471.54 199.922 470.905 199.025L472.799 195.877C471.829 194.679 470.736 193.586 469.538 192.616L466.39 194.496C465.489 193.87 464.536 193.323 463.542 192.858V189.184C462.103 188.629 460.608 188.228 459.085 187.987L457.304 191.206C456.763 191.206 456.222 191.206 455.667 191.206C455.111 191.206 454.57 191.206 454.029 191.206L452.291 187.987C450.768 188.231 449.274 188.632 447.834 189.184V192.858C446.839 193.322 445.887 193.87 444.985 194.496L441.909 192.616C440.707 193.586 439.609 194.679 438.634 195.877L440.528 199.025C439.897 199.923 439.349 200.876 438.89 201.873L435.216 201.802C434.656 203.244 434.255 204.744 434.02 206.273L437.238 208.054C437.124 209.142 437.124 210.24 437.238 211.329L434.02 213.124C434.257 214.648 434.658 216.143 435.216 217.581L438.89 217.51C439.346 218.508 439.894 219.462 440.528 220.358L438.634 223.506C439.609 224.704 440.707 225.797 441.909 226.767L445.057 224.887C445.954 225.518 446.908 226.066 447.905 226.525V230.199C449.343 230.757 450.838 231.158 452.363 231.395L454.157 228.177C455.246 228.291 456.344 228.291 457.433 228.177L459.213 231.395C460.738 231.162 462.233 230.761 463.67 230.199V226.525C464.667 226.066 465.62 225.518 466.519 224.887L469.666 226.767C470.864 225.797 471.957 224.704 472.927 223.506L471.033 220.358C471.671 219.462 472.224 218.509 472.685 217.51L476.359 217.581C476.911 216.141 477.312 214.647 477.556 213.124L474.337 211.329C474.252 210.774 474.28 210.247 474.28 209.691ZM455.766 217.012C454.319 217.012 452.903 216.582 451.699 215.778C450.496 214.973 449.557 213.83 449.003 212.493C448.449 211.155 448.304 209.683 448.587 208.263C448.869 206.843 449.566 205.539 450.59 204.515C451.614 203.492 452.918 202.794 454.338 202.512C455.758 202.229 457.23 202.374 458.568 202.928C459.905 203.483 461.048 204.421 461.853 205.625C462.657 206.828 463.086 208.244 463.086 209.691C463.086 210.656 462.896 211.612 462.525 212.503C462.155 213.393 461.612 214.202 460.927 214.883C460.243 215.563 459.431 216.101 458.538 216.467C457.645 216.832 456.688 217.017 455.724 217.012H455.766Z" fill="white"/>
<path d="M421.97 127.119V134.582L414.85 138.327C414.573 138.476 414.341 138.697 414.18 138.966C414.019 139.236 413.934 139.544 413.934 139.858C413.934 140.173 414.019 140.481 414.18 140.75C414.341 141.02 414.573 141.241 414.85 141.389L421.97 145.135V152.597C421.97 153.394 422.287 154.159 422.85 154.722C423.414 155.286 424.178 155.602 424.975 155.602H450.453C451.251 155.602 452.017 155.286 452.583 154.723C453.149 154.16 453.469 153.396 453.472 152.597V127.119C453.472 126.319 453.154 125.551 452.588 124.985C452.022 124.418 451.254 124.1 450.453 124.1H424.932C424.14 124.111 423.385 124.435 422.83 125C422.275 125.566 421.966 126.327 421.97 127.119Z" fill="#2A8BE9"/>
<g opacity="0.9">
<path d="M430.686 134.895H445.17C445.642 134.895 446.095 134.708 446.429 134.374C446.763 134.04 446.95 133.587 446.95 133.115C446.95 132.643 446.763 132.19 446.429 131.856C446.095 131.522 445.642 131.335 445.17 131.335H430.686C430.214 131.335 429.762 131.522 429.428 131.856C429.094 132.19 428.906 132.643 428.906 133.115C428.906 133.587 429.094 134.04 429.428 134.374C429.762 134.708 430.214 134.895 430.686 134.895Z" fill="white"/>
<path d="M445.17 138.142H430.686C430.214 138.142 429.762 138.33 429.428 138.664C429.094 138.998 428.906 139.451 428.906 139.923C428.906 140.395 429.094 140.848 429.428 141.181C429.762 141.515 430.214 141.703 430.686 141.703H445.17C445.642 141.703 446.095 141.515 446.429 141.181C446.763 140.848 446.95 140.395 446.95 139.923C446.95 139.451 446.763 138.998 446.429 138.664C446.095 138.33 445.642 138.142 445.17 138.142Z" fill="white"/>
<path d="M445.17 144.822H430.686C430.214 144.822 429.762 145.009 429.428 145.343C429.094 145.677 428.906 146.13 428.906 146.602C428.906 147.074 429.094 147.527 429.428 147.861C429.762 148.195 430.214 148.382 430.686 148.382H445.17C445.642 148.382 446.095 148.195 446.429 147.861C446.763 147.527 446.95 147.074 446.95 146.602C446.95 146.13 446.763 145.677 446.429 145.343C446.095 145.009 445.642 144.822 445.17 144.822Z" fill="white"/>
</g>
<path d="M277.99 115.356H284.071L287.204 121.295C287.411 121.682 287.718 122.006 288.095 122.231C288.471 122.457 288.902 122.576 289.34 122.576C289.779 122.576 290.21 122.457 290.586 122.231C290.962 122.006 291.27 121.682 291.477 121.295L294.61 115.356H300.691C301.268 115.356 301.84 115.242 302.373 115.021C302.906 114.799 303.39 114.475 303.797 114.066C304.205 113.657 304.528 113.172 304.747 112.638C304.967 112.104 305.079 111.533 305.077 110.955V88.2971C305.077 87.1338 304.615 86.0181 303.792 85.1955C302.97 84.3729 301.854 83.9107 300.691 83.9107H277.99C277.413 83.9089 276.842 84.021 276.309 84.2408C275.776 84.4606 275.292 84.7836 274.884 85.1913C274.476 85.599 274.153 86.0833 273.934 86.6163C273.714 87.1493 273.602 87.7206 273.604 88.2971V111.083C273.633 112.227 274.108 113.314 274.928 114.112C275.747 114.91 276.846 115.356 277.99 115.356Z" fill="#2A8BE9"/>
<path opacity="0.9" d="M289.354 90.704L282.348 94.8055V106.797H287.56V98.7504H291.163V106.797H296.375V94.8055L289.354 90.704Z" fill="white"/>
<path d="M346.207 441.187H340.795L337.306 434.55C337.132 434.229 336.875 433.96 336.562 433.773C336.249 433.586 335.89 433.487 335.525 433.487C335.16 433.487 334.802 433.586 334.489 433.773C334.175 433.96 333.918 434.229 333.745 434.55L330.256 441.187H324.702C323.376 441.187 322.105 441.713 321.167 442.651C320.23 443.588 319.703 444.86 319.703 446.185V467.69C319.703 469.016 320.23 470.287 321.167 471.225C322.105 472.162 323.376 472.689 324.702 472.689H346.207C347.532 472.689 348.804 472.162 349.741 471.225C350.679 470.287 351.205 469.016 351.205 467.69V446.185C351.205 444.86 350.679 443.588 349.741 442.651C348.804 441.713 347.532 441.187 346.207 441.187Z" fill="#2A8BE9"/>
<path opacity="0.9" d="M338.502 449.404C337.458 448.359 336.138 447.633 334.696 447.312C333.254 446.99 331.75 447.086 330.361 447.587C328.971 448.089 327.753 448.977 326.85 450.146C325.947 451.314 325.395 452.717 325.259 454.188C325.124 455.659 325.41 457.138 326.085 458.452C326.76 459.766 327.795 460.861 329.069 461.609C330.344 462.356 331.805 462.725 333.281 462.672C334.757 462.619 336.188 462.146 337.406 461.31C337.465 461.663 337.629 461.99 337.876 462.25L342.718 467.078C343.044 467.404 343.488 467.588 343.95 467.588C344.412 467.588 344.855 467.404 345.181 467.078C345.508 466.751 345.692 466.308 345.692 465.846C345.692 465.384 345.508 464.941 345.181 464.614L340.354 459.786C340.094 459.529 339.76 459.36 339.399 459.302C340.423 457.805 340.894 455.998 340.73 454.192C340.566 452.385 339.779 450.692 338.502 449.404ZM336.85 458.761C336.087 459.523 335.115 460.041 334.057 460.251C332.999 460.461 331.903 460.353 330.907 459.94C329.911 459.527 329.059 458.828 328.46 457.931C327.861 457.034 327.541 455.98 327.541 454.901C327.541 453.823 327.861 452.768 328.46 451.872C329.059 450.975 329.911 450.276 330.907 449.863C331.903 449.449 332.999 449.341 334.057 449.551C335.115 449.761 336.087 450.28 336.85 451.042C337.357 451.548 337.76 452.15 338.034 452.812C338.309 453.474 338.45 454.184 338.45 454.901C338.45 455.618 338.309 456.328 338.034 456.99C337.76 457.652 337.357 458.254 336.85 458.761Z" fill="white"/>
<path d="M576.192 297.974C576.192 297.974 564.585 326.742 553.22 329.847C541.856 332.951 524.737 330.431 524.737 330.431L519.44 331.855L514.242 331.086H514.056L508.203 330.943C507.992 330.961 507.78 330.918 507.593 330.819C507.405 330.72 507.25 330.57 507.145 330.386C507.041 330.202 506.991 329.991 507.001 329.78C507.012 329.568 507.083 329.364 507.206 329.192L509.3 326.343C509.476 326.109 509.719 325.935 509.998 325.845L515.58 324.05C515.801 324.001 516.029 324.001 516.25 324.05L524.794 325.403C524.794 325.403 548.506 321.515 550.928 319.322C553.349 317.129 560.484 294.129 560.484 294.129L576.192 297.974Z" fill="#EEC1BB"/>
<path opacity="0.1" d="M525.323 325.218L524.767 325.304L516.222 323.951C516.002 323.902 515.773 323.902 515.553 323.951L509.97 325.745C509.692 325.836 509.448 326.01 509.272 326.244L507.179 329.092C507.056 329.264 506.985 329.468 506.974 329.68C506.963 329.892 507.013 330.102 507.118 330.286C507.223 330.47 507.378 330.62 507.566 330.719C507.753 330.818 507.965 330.861 508.176 330.844L514.029 330.986H514.214L517.703 331.499C520.679 329.999 523.283 327.853 525.323 325.218Z" fill="black"/>
<path d="M583.198 269.477C574.768 266.714 562.904 273.052 558.361 299.598L575.864 304.767C575.864 304.767 595.247 273.436 583.198 269.477Z" fill="#2A8BE9"/>
<path d="M534.152 234.785C534.152 235.668 534.622 236.366 535.192 236.366C535.762 236.366 536.26 235.611 536.217 234.756C536.175 233.902 535.747 233.19 535.178 233.204C534.608 233.218 534.152 233.916 534.152 234.785Z" fill="#263238"/>
<path d="M537.597 235.654L533.453 242.504C533.453 242.504 534.877 244.127 537.996 242.931L537.597 235.654Z" fill="#D4827D"/>
<path d="M538.382 229.288C538.332 229.345 538.267 229.389 538.195 229.414C538.122 229.438 538.045 229.444 537.969 229.43C537.409 229.334 536.833 229.373 536.291 229.544C535.749 229.715 535.255 230.013 534.851 230.413C534.764 230.494 534.649 230.539 534.53 230.539C534.411 230.539 534.297 230.494 534.21 230.413C534.128 230.323 534.082 230.206 534.082 230.085C534.082 229.964 534.128 229.847 534.21 229.758C534.713 229.243 535.333 228.859 536.018 228.638C536.703 228.417 537.431 228.366 538.14 228.49C538.2 228.497 538.258 228.516 538.311 228.546C538.364 228.575 538.41 228.615 538.447 228.663C538.484 228.711 538.511 228.765 538.527 228.824C538.543 228.882 538.547 228.943 538.539 229.003C538.517 229.112 538.463 229.211 538.382 229.288Z" fill="#263238"/>
<path d="M567.662 228.576C568.303 240.154 568.83 245.053 563.718 251.633C555.557 258.682 541.657 259.807 537.556 248.656C533.867 238.687 533.44 221.412 544.15 215.445C545.966 214.433 547.965 213.788 550.03 213.549C552.096 213.31 554.189 213.48 556.189 214.05C558.189 214.62 560.057 215.579 561.686 216.872C563.315 218.164 564.673 219.765 565.683 221.583C566.868 223.732 567.545 226.124 567.662 228.576Z" fill="#EEC1BB"/>
<path d="M551.525 253.911L554.459 271.072L568.758 267.768L563.759 250.251L551.525 253.911Z" fill="#EEC1BB"/>
<path d="M541.229 229.43C541.956 221.911 539.364 230.598 535.889 220.672C532.414 210.745 548.834 202.685 551.455 204.536C554.075 206.387 552.58 209.221 561.267 210.831C563.637 211.207 565.789 212.434 567.319 214.282C568.85 216.13 569.655 218.472 569.584 220.871C569.584 220.871 574.583 223.178 572.803 233.916C571.496 240.796 568.567 247.266 564.258 252.786C564.258 252.786 560.968 249.397 555.713 252.516C553.662 251.177 551.927 249.408 550.629 247.332C548.293 243.828 547.567 240.496 544.362 240.211C537.669 239.598 540.987 231.908 541.229 229.43Z" fill="#263238"/>
<path d="M568.658 222.167C568.658 222.167 575.779 217.809 572.617 213.238C569.456 208.666 570.98 218.279 568.658 222.167Z" fill="#263238"/>
<path d="M543.266 233.802C541.687 235.568 540.872 237.888 541.002 240.254C541.201 243.387 544.277 243.942 546.698 242.233C549.119 240.524 551.412 237.192 550.017 234.443C549.707 233.843 549.252 233.331 548.692 232.953C548.133 232.575 547.488 232.344 546.816 232.28C546.144 232.216 545.467 232.322 544.847 232.588C544.227 232.854 543.683 233.271 543.266 233.802Z" fill="#FFC3BD"/>
<path opacity="0.1" d="M551.797 255.535L552.965 262.342C552.862 260.656 553.094 258.967 553.646 257.371C554.198 255.775 555.061 254.304 556.183 253.042C555.311 253.098 554.463 253.352 553.703 253.784C552.943 254.215 552.291 254.814 551.797 255.535Z" fill="black"/>
<path d="M451.267 299.797H447.18V323.908H451.267V299.797Z" fill="#2A8BE9"/>
<path opacity="0.7" d="M451.267 299.797H447.18V323.908H451.267V299.797Z" fill="white"/>
<path d="M423.182 251.917H412.999C411.167 251.917 409.41 252.645 408.115 253.94C406.82 255.236 406.092 256.993 406.092 258.824V306.006C406.092 306.914 406.27 307.812 406.618 308.65C406.965 309.488 407.473 310.249 408.115 310.891C408.756 311.532 409.518 312.041 410.356 312.388C411.194 312.735 412.092 312.914 412.999 312.914H423.182V251.917Z" fill="#2A8BE9"/>
<path d="M485.46 251.917H416.559C412.745 251.917 409.652 255.01 409.652 258.824V305.992C409.652 309.807 412.745 312.899 416.559 312.899H485.46C489.274 312.899 492.367 309.807 492.367 305.992V258.824C492.367 255.01 489.274 251.917 485.46 251.917Z" fill="#2A8BE9"/>
<path opacity="0.5" d="M485.46 251.917H416.559C412.745 251.917 409.652 255.01 409.652 258.824V305.992C409.652 309.807 412.745 312.899 416.559 312.899H485.46C489.274 312.899 492.367 309.807 492.367 305.992V258.824C492.367 255.01 489.274 251.917 485.46 251.917Z" fill="white"/>
<path d="M485.461 254.766H416.561C414.319 254.766 412.502 256.583 412.502 258.824V305.992C412.502 308.234 414.319 310.051 416.561 310.051H485.461C487.703 310.051 489.52 308.234 489.52 305.992V258.824C489.52 256.583 487.703 254.766 485.461 254.766Z" fill="#263238"/>
<path d="M434.348 334.019C434.467 330.154 436.087 326.487 438.863 323.795C441.64 321.103 445.356 319.597 449.223 319.597C453.09 319.597 456.806 321.103 459.582 323.795C462.359 326.487 463.978 330.154 464.098 334.019H434.348Z" fill="#2A8BE9"/>
<path d="M469.454 328.949H439.703V333.777H499.204V331.798L469.454 328.949Z" fill="#2A8BE9"/>
<path opacity="0.8" d="M469.454 328.949H439.703V333.777H499.204V331.798L469.454 328.949Z" fill="white"/>
<path d="M469.454 333.777H439.703V328.949L469.454 331.798V333.777Z" fill="#2A8BE9"/>
<path opacity="0.6" d="M469.454 333.777H439.703V328.949L469.454 331.798V333.777Z" fill="white"/>
<path d="M535.048 499.99H473.682C472.457 499.991 471.245 499.752 470.113 499.285C468.981 498.817 467.953 498.132 467.087 497.267C466.22 496.402 465.533 495.374 465.064 494.243C464.595 493.112 464.354 491.9 464.354 490.676V349.571C464.354 348.347 464.595 347.134 465.064 346.004C465.533 344.873 466.22 343.845 467.087 342.98C467.953 342.115 468.981 341.429 470.113 340.962C471.245 340.495 472.457 340.255 473.682 340.257H535.048C535.709 340.257 536.343 340.52 536.81 340.987C537.278 341.455 537.54 342.088 537.54 342.749C537.54 343.41 537.278 344.044 536.81 344.512C536.343 344.979 535.709 345.242 535.048 345.242H473.682C473.115 345.232 472.551 345.336 472.025 345.546C471.498 345.757 471.019 346.07 470.614 346.468C470.21 346.865 469.889 347.34 469.67 347.863C469.451 348.386 469.338 348.947 469.338 349.514V490.619C469.338 491.186 469.451 491.747 469.67 492.27C469.889 492.793 470.21 493.268 470.614 493.665C471.019 494.063 471.498 494.376 472.025 494.587C472.551 494.797 473.115 494.901 473.682 494.891H535.048C535.709 494.891 536.343 495.154 536.81 495.621C537.278 496.088 537.54 496.722 537.54 497.383C537.556 497.72 537.503 498.056 537.384 498.372C537.266 498.688 537.085 498.976 536.852 499.22C536.619 499.463 536.339 499.657 536.029 499.79C535.719 499.922 535.385 499.99 535.048 499.99Z" fill="#263238"/>
<g opacity="0.5">
<path d="M535.048 499.99H473.682C472.457 499.991 471.245 499.752 470.113 499.285C468.981 498.817 467.953 498.132 467.087 497.267C466.22 496.402 465.533 495.374 465.064 494.243C464.595 493.112 464.354 491.9 464.354 490.676V349.571C464.354 348.347 464.595 347.134 465.064 346.004C465.533 344.873 466.22 343.845 467.087 342.98C467.953 342.115 468.981 341.429 470.113 340.962C471.245 340.495 472.457 340.255 473.682 340.257H535.048C535.709 340.257 536.343 340.52 536.81 340.987C537.278 341.455 537.54 342.088 537.54 342.749C537.54 343.41 537.278 344.044 536.81 344.512C536.343 344.979 535.709 345.242 535.048 345.242H473.682C473.115 345.232 472.551 345.336 472.025 345.546C471.498 345.757 471.019 346.07 470.614 346.468C470.21 346.865 469.889 347.34 469.67 347.863C469.451 348.386 469.338 348.947 469.338 349.514V490.619C469.338 491.186 469.451 491.747 469.67 492.27C469.889 492.793 470.21 493.268 470.614 493.665C471.019 494.063 471.498 494.376 472.025 494.587C472.551 494.797 473.115 494.901 473.682 494.891H535.048C535.709 494.891 536.343 495.154 536.81 495.621C537.278 496.088 537.54 496.722 537.54 497.383C537.556 497.72 537.503 498.056 537.384 498.372C537.266 498.688 537.085 498.976 536.852 499.22C536.619 499.463 536.339 499.657 536.029 499.79C535.719 499.922 535.385 499.99 535.048 499.99Z" fill="white"/>
</g>
<path d="M473.44 333.777H386.297V341.083H473.44V333.777Z" fill="#2A8BE9"/>
<path opacity="0.2" d="M473.44 333.777H386.297V341.083H473.44V333.777Z" fill="white"/>
<path d="M543.779 333.777H469.453V341.083H543.779V333.777Z" fill="#2A8BE9"/>
<path opacity="0.5" d="M543.779 333.777H469.453V341.083H543.779V333.777Z" fill="white"/>
<path d="M517.718 448.222L521.834 489.835H511.979L502.109 449.304L517.718 448.222Z" fill="#EEC1BB"/>
<path d="M511.052 487.058L523.628 487.272C523.857 487.277 524.078 487.36 524.254 487.508C524.43 487.655 524.551 487.859 524.596 488.084L526.704 498.352C526.793 498.788 526.707 499.241 526.464 499.614C526.222 499.987 525.842 500.25 525.408 500.346H525.052C520.509 500.189 516.507 499.876 510.81 499.776C504.16 499.662 505.826 500.488 497.993 500.474C493.279 500.474 492.51 495.076 494.504 494.848C503.69 493.851 504.686 491.103 508.275 487.884C509.068 487.278 510.057 486.984 511.052 487.058Z" fill="#263238"/>
<path opacity="0.1" d="M520.766 478.969L517.718 448.222L502.109 449.304L509.33 478.969H520.766Z" fill="black"/>
<path d="M585.192 352.277L544.775 353.701C544.775 353.701 490.33 372.742 488.906 387.368C487.339 402.435 505.625 471.663 505.625 471.663H521.875C521.875 471.663 517.389 420.864 515.68 405.312C513.971 389.761 572.347 394.902 582.486 381.643C591.758 369.481 585.192 352.277 585.192 352.277Z" fill="#263238"/>
<path opacity="0.2" d="M585.192 352.277L544.775 353.701C544.775 353.701 490.33 372.742 488.906 387.368C487.339 402.435 505.625 471.663 505.625 471.663H521.875C521.875 471.663 517.389 420.864 515.68 405.312C513.971 389.761 572.347 394.902 582.486 381.643C591.758 369.481 585.192 352.277 585.192 352.277Z" fill="black"/>
<path d="M524.582 469.385L524.938 475.124H504.858L502.893 469.385H524.582Z" fill="#2A8BE9"/>
<path d="M480.105 450.201L481.187 489.835H471.503L465.764 450.201H480.105Z" fill="#EEC1BB"/>
<path d="M470.166 487.058L482.741 487.272C482.971 487.277 483.192 487.36 483.368 487.508C483.544 487.655 483.664 487.859 483.709 488.084L485.817 498.352C485.906 498.788 485.82 499.241 485.577 499.614C485.335 499.987 484.956 500.25 484.521 500.346H484.165C479.622 500.189 475.62 499.876 469.924 499.776C463.259 499.662 464.939 500.488 457.106 500.474C452.392 500.474 451.623 495.076 453.617 494.848C462.803 493.852 463.8 491.103 467.389 487.884C468.181 487.275 469.17 486.981 470.166 487.058Z" fill="#263238"/>
<path opacity="0.1" d="M480.888 478.941L480.105 450.201H465.764L469.936 478.969C473.055 478.983 477.342 478.955 480.888 478.941Z" fill="black"/>
<path d="M567.619 355.624C567.619 355.624 570.98 386.357 539.72 387.795C508.46 389.234 484.05 392.808 483.338 403.931C482.626 415.053 483.338 471.72 483.338 471.72H466.348C466.348 471.72 459.74 435.889 457.162 413.672C454.655 392.096 450.041 376.445 472.215 369.139C495.756 361.363 537.598 354.185 537.598 354.185L567.733 352.277L567.619 355.624Z" fill="#263238"/>
<path d="M485.844 469.385L484.776 475.124H466.12L464.154 469.385H485.844Z" fill="#2A8BE9"/>
<path d="M574.355 267.455C574.355 267.455 574.355 260.533 560.355 261.331C545.487 262.185 548.293 268.822 548.293 268.822L574.355 267.455Z" fill="#2A8BE9"/>
<path opacity="0.3" d="M574.355 267.455C574.355 267.455 574.355 260.533 560.355 261.331C545.487 262.185 548.293 268.822 548.293 268.822L574.355 267.455Z" fill="black"/>
<path d="M587.401 298.501C586.461 312.187 586.789 353.359 586.789 353.359C586.789 353.359 556.881 355.325 533.412 354.556L530.691 275.359C530.702 273.959 531.134 272.594 531.932 271.443C532.729 270.292 533.856 269.409 535.163 268.907C541.8 266.33 557.38 263.41 581.747 266.615C590.15 267.74 588.512 282.323 587.401 298.501Z" fill="#2A8BE9"/>
<path d="M535.491 297.974C535.491 297.974 523.87 326.742 512.519 329.847C501.169 332.951 484.036 330.431 484.036 330.431L478.738 331.855L473.555 331.086H473.369L467.502 330.943C467.291 330.961 467.079 330.918 466.892 330.819C466.704 330.72 466.549 330.57 466.444 330.386C466.339 330.202 466.289 329.991 466.3 329.78C466.311 329.568 466.382 329.364 466.505 329.192L468.613 326.343C468.789 326.109 469.032 325.935 469.311 325.845L474.879 324.05C475.104 324.001 475.337 324.001 475.563 324.05L484.108 325.403C484.108 325.403 507.82 321.515 510.226 319.322C512.633 317.129 519.797 294.129 519.797 294.129L535.491 297.974Z" fill="#EEC1BB"/>
<path opacity="0.1" d="M535.191 284.587C535.191 284.587 533.383 286.738 531.189 289.842L531.973 312.771C540.703 308.912 544.163 286.439 544.163 286.439L538.467 282.423L535.191 284.587Z" fill="black"/>
<path d="M542.498 269.477C534.067 266.714 522.19 273.052 517.646 299.598L535.164 304.71C535.164 304.71 554.546 273.436 542.498 269.477Z" fill="#2A8BE9"/>
<path d="M553.648 402.706H540.475V441.315H553.648V402.706Z" fill="#263238"/>
<path opacity="0.6" d="M553.648 402.706H540.475V441.315H553.648V402.706Z" fill="white"/>
<path d="M555.686 476.292V427.244H538.425V476.292L499.133 481.746V487.201L547.055 483.113L594.978 487.201V481.746L555.686 476.292Z" fill="#263238"/>
<path d="M498.561 500.573C501.432 500.573 503.76 498.246 503.76 495.375C503.76 492.504 501.432 490.177 498.561 490.177C495.691 490.177 493.363 492.504 493.363 495.375C493.363 498.246 495.691 500.573 498.561 500.573Z" fill="#2A8BE9"/>
<path d="M594.977 500.573C597.848 500.573 600.176 498.246 600.176 495.375C600.176 492.504 597.848 490.177 594.977 490.177C592.107 490.177 589.779 492.504 589.779 495.375C589.779 498.246 592.107 500.573 594.977 500.573Z" fill="#2A8BE9"/>
<path d="M547.054 500.573C549.924 500.573 552.252 498.246 552.252 495.375C552.252 492.504 549.924 490.177 547.054 490.177C544.183 490.177 541.855 492.504 541.855 495.375C541.855 498.246 544.183 500.573 547.054 500.573Z" fill="#2A8BE9"/>
<path opacity="0.3" d="M553.648 402.706H540.475V412.248H553.648V402.706Z" fill="black"/>
<path d="M599.135 315.192H556.211C552.837 315.195 549.585 316.456 547.091 318.729C544.597 321.002 543.04 324.123 542.725 327.483L539.107 366.262C538.706 370.536 536.78 374.523 533.681 377.493C530.582 380.464 526.518 382.22 522.231 382.44L480.803 384.52C478.378 384.644 476.094 385.694 474.422 387.454C472.75 389.214 471.817 391.548 471.816 393.976V394.845C471.816 396.926 472.643 398.922 474.115 400.393C475.586 401.865 477.582 402.692 479.663 402.692H605.829L612.622 330.06C612.805 328.179 612.592 326.28 611.997 324.486C611.403 322.691 610.439 321.041 609.169 319.641C607.899 318.241 606.351 317.122 604.623 316.356C602.895 315.59 601.025 315.193 599.135 315.192Z" fill="#2A8BE9"/>
<path opacity="0.3" d="M599.135 315.192H556.211C552.837 315.195 549.585 316.456 547.091 318.729C544.597 321.002 543.04 324.123 542.725 327.483L539.107 366.262C538.706 370.536 536.78 374.523 533.681 377.493C530.582 380.464 526.518 382.22 522.231 382.44L480.803 384.52C478.378 384.644 476.094 385.694 474.422 387.454C472.75 389.214 471.817 391.548 471.816 393.976V394.845C471.816 396.926 472.643 398.922 474.115 400.393C475.586 401.865 477.582 402.692 479.663 402.692H605.829L612.622 330.06C612.805 328.179 612.592 326.28 611.997 324.486C611.403 322.691 610.439 321.041 609.169 319.641C607.899 318.241 606.351 317.122 604.623 316.356C602.895 315.59 601.025 315.193 599.135 315.192Z" fill="white"/>
<path d="M500.613 358.885H506.523V389.803C506.523 390.559 506.223 391.283 505.689 391.817C505.155 392.352 504.431 392.652 503.675 392.652H503.462C502.706 392.652 501.982 392.352 501.448 391.817C500.913 391.283 500.613 390.559 500.613 389.803V358.885Z" fill="#263238"/>
<path opacity="0.2" d="M500.613 358.885H506.523V389.803C506.523 390.559 506.223 391.283 505.689 391.817C505.155 392.352 504.431 392.652 503.675 392.652H503.462C502.706 392.652 501.982 392.352 501.448 391.817C500.913 391.283 500.613 390.559 500.613 389.803V358.885Z" fill="white"/>
<path d="M529.11 350.013H515.965V360.907H529.138C529.877 360.945 530.616 360.832 531.31 360.575C532.003 360.319 532.638 359.924 533.174 359.414C533.71 358.905 534.137 358.291 534.429 357.612C534.721 356.932 534.871 356.2 534.871 355.46C534.871 354.72 534.721 353.988 534.429 353.308C534.137 352.629 533.71 352.015 533.174 351.506C532.638 350.996 532.003 350.601 531.31 350.344C530.616 350.088 529.877 349.975 529.138 350.013H529.11Z" fill="#2A8BE9"/>
<path opacity="0.5" d="M529.11 350.013H515.965V360.907H529.138C529.877 360.945 530.616 360.832 531.31 360.575C532.003 360.319 532.638 359.924 533.174 359.414C533.71 358.905 534.137 358.291 534.429 357.612C534.721 356.932 534.871 356.2 534.871 355.46C534.871 354.72 534.721 353.988 534.429 353.308C534.137 352.629 533.71 352.015 533.174 351.506C532.638 350.996 532.003 350.601 531.31 350.344C530.616 350.088 529.877 349.975 529.138 350.013H529.11Z" fill="white"/>
<path d="M523.854 350.013H477.812C474.909 350.013 472.557 352.365 472.557 355.268V355.666C472.557 358.569 474.909 360.922 477.812 360.922H523.854C526.757 360.922 529.11 358.569 529.11 355.666V355.268C529.11 352.365 526.757 350.013 523.854 350.013Z" fill="#2A8BE9"/>
<path opacity="0.3" d="M523.854 350.013H477.812C474.909 350.013 472.557 352.365 472.557 355.268V355.666C472.557 358.569 474.909 360.922 477.812 360.922H523.854C526.757 360.922 529.11 358.569 529.11 355.666V355.268C529.11 352.365 526.757 350.013 523.854 350.013Z" fill="white"/>
<path d="M608.791 402.706H545.688L552.723 327.554C553.038 324.194 554.595 321.073 557.089 318.8C559.583 316.528 562.835 315.266 566.209 315.263H609.133C611.018 315.265 612.882 315.66 614.606 316.423C616.33 317.186 617.876 318.299 619.145 319.693C620.414 321.087 621.378 322.73 621.977 324.517C622.575 326.305 622.794 328.198 622.62 330.075L616.482 395.785C616.281 397.685 615.385 399.443 613.965 400.721C612.545 401.999 610.702 402.706 608.791 402.706Z" fill="#2A8BE9"/>
<path opacity="0.5" d="M608.791 402.706H545.688L552.723 327.554C553.038 324.194 554.595 321.073 557.089 318.8C559.583 316.528 562.835 315.266 566.209 315.263H609.133C611.018 315.265 612.882 315.66 614.606 316.423C616.33 317.186 617.876 318.299 619.145 319.693C620.414 321.087 621.378 322.73 621.977 324.517C622.575 326.305 622.794 328.198 622.62 330.075L616.482 395.785C616.281 397.685 615.385 399.443 613.965 400.721C612.545 401.999 610.702 402.706 608.791 402.706Z" fill="white"/>
<path d="M461.378 499.99H400.012C398.787 499.991 397.575 499.752 396.443 499.285C395.311 498.817 394.283 498.132 393.417 497.267C392.55 496.402 391.863 495.374 391.394 494.243C390.925 493.112 390.684 491.9 390.684 490.676V349.571C390.684 348.347 390.925 347.134 391.394 346.004C391.863 344.873 392.55 343.845 393.417 342.98C394.283 342.115 395.311 341.429 396.443 340.962C397.575 340.495 398.787 340.255 400.012 340.257H461.378C462.039 340.257 462.673 340.52 463.141 340.987C463.608 341.455 463.871 342.088 463.871 342.749C463.871 343.41 463.608 344.044 463.141 344.512C462.673 344.979 462.039 345.242 461.378 345.242H400.012C399.445 345.232 398.882 345.336 398.355 345.546C397.828 345.757 397.349 346.07 396.945 346.468C396.54 346.865 396.219 347.34 396 347.863C395.781 348.386 395.668 348.947 395.668 349.514V490.619C395.668 491.186 395.781 491.747 396 492.27C396.219 492.793 396.54 493.268 396.945 493.665C397.349 494.063 397.828 494.376 398.355 494.587C398.882 494.797 399.445 494.901 400.012 494.891H461.378C462.039 494.891 462.673 495.154 463.141 495.621C463.608 496.088 463.871 496.722 463.871 497.383C463.886 497.72 463.833 498.056 463.715 498.372C463.596 498.688 463.415 498.976 463.182 499.22C462.949 499.463 462.669 499.657 462.359 499.79C462.049 499.922 461.715 499.99 461.378 499.99Z" fill="#263238"/>
<g opacity="0.5">
<path d="M461.378 499.99H400.012C398.787 499.991 397.575 499.752 396.443 499.285C395.311 498.817 394.283 498.132 393.417 497.267C392.55 496.402 391.863 495.374 391.394 494.243C390.925 493.112 390.684 491.9 390.684 490.676V349.571C390.684 348.347 390.925 347.134 391.394 346.004C391.863 344.873 392.55 343.845 393.417 342.98C394.283 342.115 395.311 341.429 396.443 340.962C397.575 340.495 398.787 340.255 400.012 340.257H461.378C462.039 340.257 462.673 340.52 463.141 340.987C463.608 341.455 463.871 342.088 463.871 342.749C463.871 343.41 463.608 344.044 463.141 344.512C462.673 344.979 462.039 345.242 461.378 345.242H400.012C399.445 345.232 398.882 345.336 398.355 345.546C397.828 345.757 397.349 346.07 396.945 346.468C396.54 346.865 396.219 347.34 396 347.863C395.781 348.386 395.668 348.947 395.668 349.514V490.619C395.668 491.186 395.781 491.747 396 492.27C396.219 492.793 396.54 493.268 396.945 493.665C397.349 494.063 397.828 494.376 398.355 494.587C398.882 494.797 399.445 494.901 400.012 494.891H461.378C462.039 494.891 462.673 495.154 463.141 495.621C463.608 496.088 463.871 496.722 463.871 497.383C463.886 497.72 463.833 498.056 463.715 498.372C463.596 498.688 463.415 498.976 463.182 499.22C462.949 499.463 462.669 499.657 462.359 499.79C462.049 499.922 461.715 499.99 461.378 499.99Z" fill="white"/>
</g>
<path d="M420.819 266.016L416.546 263.168C416.437 263.099 416.348 263.003 416.286 262.89C416.224 262.776 416.191 262.649 416.191 262.52C416.191 262.391 416.224 262.264 416.286 262.151C416.348 262.037 416.437 261.942 416.546 261.872L420.819 259.024C420.976 258.921 421.167 258.884 421.351 258.921C421.535 258.959 421.697 259.067 421.801 259.223C421.9 259.379 421.934 259.567 421.897 259.748C421.86 259.928 421.754 260.087 421.602 260.192L418.056 262.542L421.602 264.891C421.754 264.996 421.86 265.155 421.897 265.335C421.934 265.516 421.9 265.704 421.801 265.86C421.688 266.006 421.524 266.104 421.341 266.133C421.158 266.162 420.972 266.12 420.819 266.016Z" fill="white"/>
<path d="M430.275 265.817C430.19 265.661 430.167 265.478 430.212 265.306C430.257 265.134 430.366 264.986 430.517 264.891L434.063 262.542L430.517 260.149C430.364 260.045 430.259 259.885 430.224 259.703C430.189 259.521 430.228 259.334 430.332 259.181C430.382 259.104 430.447 259.038 430.523 258.986C430.599 258.934 430.685 258.898 430.775 258.88C430.864 258.861 430.957 258.861 431.047 258.878C431.138 258.895 431.223 258.93 431.3 258.981L435.573 261.829C435.681 261.899 435.771 261.995 435.833 262.108C435.895 262.221 435.927 262.348 435.927 262.477C435.927 262.607 435.895 262.734 435.833 262.847C435.771 262.96 435.681 263.056 435.573 263.125L431.3 265.974C431.224 266.034 431.136 266.077 431.042 266.102C430.948 266.127 430.85 266.132 430.754 266.117C430.658 266.102 430.565 266.068 430.483 266.017C430.401 265.965 430.33 265.897 430.275 265.817Z" fill="white"/>
<path d="M424.422 267.74C424.334 267.712 424.252 267.667 424.181 267.608C424.11 267.549 424.052 267.476 424.009 267.393C423.967 267.311 423.941 267.222 423.934 267.129C423.926 267.037 423.937 266.945 423.966 266.857L426.914 257.543C426.94 257.455 426.983 257.373 427.041 257.303C427.099 257.232 427.171 257.174 427.252 257.131C427.333 257.089 427.422 257.063 427.513 257.055C427.604 257.048 427.696 257.058 427.783 257.087C427.871 257.113 427.952 257.156 428.023 257.214C428.094 257.272 428.152 257.344 428.194 257.425C428.237 257.506 428.263 257.595 428.27 257.686C428.278 257.777 428.267 257.869 428.239 257.956L425.305 267.284C425.277 267.372 425.233 267.454 425.173 267.525C425.114 267.596 425.041 267.654 424.959 267.696C424.877 267.739 424.787 267.764 424.695 267.772C424.602 267.779 424.51 267.768 424.422 267.74Z" fill="white"/>
<path d="M448.602 274.86H416.887C416.79 274.86 416.694 274.841 416.605 274.804C416.516 274.766 416.436 274.712 416.368 274.643C416.3 274.574 416.247 274.492 416.211 274.402C416.176 274.312 416.158 274.216 416.16 274.12C416.158 274.023 416.176 273.927 416.211 273.838C416.247 273.748 416.3 273.666 416.368 273.597C416.436 273.528 416.516 273.473 416.605 273.436C416.694 273.399 416.79 273.379 416.887 273.379H448.602C448.799 273.379 448.987 273.457 449.126 273.596C449.265 273.735 449.343 273.923 449.343 274.12C449.343 274.217 449.324 274.313 449.287 274.403C449.249 274.493 449.195 274.575 449.126 274.644C449.057 274.712 448.976 274.767 448.886 274.804C448.796 274.841 448.7 274.86 448.602 274.86Z" fill="white"/>
<path d="M485.033 274.86H453.303C453.206 274.86 453.109 274.841 453.02 274.804C452.93 274.767 452.848 274.712 452.779 274.643C452.711 274.575 452.656 274.493 452.619 274.403C452.582 274.313 452.563 274.217 452.562 274.12C452.577 273.933 452.661 273.759 452.799 273.633C452.936 273.506 453.116 273.436 453.303 273.436H485.005C485.201 273.436 485.389 273.514 485.528 273.653C485.667 273.792 485.745 273.98 485.745 274.177C485.731 274.358 485.651 274.528 485.52 274.654C485.388 274.781 485.215 274.854 485.033 274.86Z" fill="white"/>
<path d="M435.016 281.383H416.887C416.79 281.383 416.694 281.364 416.605 281.326C416.516 281.289 416.436 281.234 416.368 281.165C416.3 281.096 416.247 281.015 416.211 280.925C416.176 280.835 416.158 280.739 416.16 280.642C416.16 280.45 416.237 280.265 416.373 280.129C416.509 279.993 416.694 279.916 416.887 279.916H435.016C435.21 279.916 435.396 279.992 435.535 280.128C435.673 280.264 435.753 280.449 435.757 280.642C435.757 280.839 435.679 281.027 435.54 281.166C435.401 281.305 435.212 281.383 435.016 281.383Z" fill="white"/>
<path d="M469.424 281.383H439.73C439.634 281.383 439.538 281.364 439.449 281.326C439.36 281.289 439.279 281.234 439.212 281.165C439.144 281.096 439.091 281.015 439.055 280.925C439.02 280.835 439.002 280.739 439.004 280.642C439.004 280.45 439.081 280.265 439.217 280.129C439.353 279.993 439.538 279.916 439.73 279.916H469.424C469.616 279.916 469.801 279.993 469.937 280.129C470.074 280.265 470.15 280.45 470.15 280.642C470.152 280.739 470.135 280.835 470.099 280.925C470.063 281.015 470.01 281.096 469.943 281.165C469.875 281.234 469.794 281.289 469.705 281.326C469.616 281.364 469.52 281.383 469.424 281.383Z" fill="white"/>
<path d="M465.194 287.92H416.887C416.693 287.916 416.508 287.836 416.372 287.698C416.236 287.559 416.16 287.373 416.16 287.179C416.158 287.083 416.176 286.987 416.211 286.897C416.247 286.807 416.3 286.725 416.368 286.656C416.436 286.588 416.516 286.533 416.605 286.495C416.694 286.458 416.79 286.439 416.887 286.439H465.194C465.39 286.439 465.578 286.517 465.717 286.656C465.856 286.795 465.934 286.983 465.934 287.179C465.934 287.376 465.856 287.564 465.717 287.703C465.578 287.842 465.39 287.92 465.194 287.92Z" fill="white"/>
<path d="M480.005 287.92H469.922C469.726 287.92 469.537 287.842 469.399 287.703C469.26 287.564 469.182 287.376 469.182 287.179C469.182 286.983 469.26 286.795 469.399 286.656C469.537 286.517 469.726 286.439 469.922 286.439H480.005C480.202 286.439 480.39 286.517 480.529 286.656C480.668 286.795 480.746 286.983 480.746 287.179C480.746 287.376 480.668 287.564 480.529 287.703C480.39 287.842 480.202 287.92 480.005 287.92Z" fill="white"/>
<path d="M439.445 294.442H416.887C416.79 294.442 416.694 294.423 416.605 294.386C416.516 294.348 416.436 294.294 416.368 294.225C416.3 294.156 416.247 294.074 416.211 293.984C416.176 293.894 416.158 293.798 416.16 293.702C416.158 293.605 416.176 293.509 416.211 293.42C416.247 293.33 416.3 293.248 416.368 293.179C416.436 293.11 416.516 293.055 416.605 293.018C416.694 292.981 416.79 292.961 416.887 292.961H439.445C439.641 292.961 439.83 293.039 439.969 293.178C440.108 293.317 440.186 293.505 440.186 293.702C440.186 293.898 440.108 294.087 439.969 294.226C439.83 294.364 439.641 294.442 439.445 294.442Z" fill="white"/>
<path d="M472.244 294.442H444.174C443.978 294.442 443.789 294.364 443.65 294.226C443.512 294.087 443.434 293.898 443.434 293.702C443.434 293.505 443.512 293.317 443.65 293.178C443.789 293.039 443.978 292.961 444.174 292.961H472.244C472.44 292.961 472.629 293.039 472.768 293.178C472.907 293.317 472.985 293.505 472.985 293.702C472.985 293.898 472.907 294.087 472.768 294.226C472.629 294.364 472.44 294.442 472.244 294.442Z" fill="white"/>
<path d="M448.602 300.965H416.887C416.79 300.965 416.694 300.946 416.605 300.908C416.516 300.871 416.436 300.816 416.368 300.747C416.3 300.678 416.247 300.597 416.211 300.507C416.176 300.417 416.158 300.321 416.16 300.224C416.16 300.032 416.237 299.847 416.373 299.711C416.509 299.575 416.694 299.498 416.887 299.498H448.602C448.699 299.496 448.795 299.514 448.885 299.549C448.974 299.585 449.056 299.638 449.125 299.706C449.194 299.773 449.249 299.854 449.286 299.943C449.324 300.032 449.343 300.128 449.343 300.224C449.343 300.421 449.265 300.609 449.126 300.748C448.987 300.887 448.799 300.965 448.602 300.965Z" fill="white"/>
<path d="M475.705 300.965H453.303C453.107 300.965 452.918 300.887 452.779 300.748C452.64 300.609 452.563 300.421 452.563 300.224C452.562 300.128 452.582 300.032 452.619 299.943C452.656 299.854 452.711 299.773 452.78 299.706C452.849 299.638 452.931 299.585 453.021 299.549C453.11 299.514 453.206 299.496 453.303 299.498H475.676C475.869 299.498 476.054 299.575 476.19 299.711C476.326 299.847 476.403 300.032 476.403 300.224C476.407 300.415 476.336 300.599 476.205 300.737C476.075 300.876 475.895 300.958 475.705 300.965Z" fill="white"/>
<path d="M200.473 173.49C201.057 180.197 199.605 192.345 194.549 196.276C202.795 199.252 211.539 204.379 217.122 211.144C222.662 203.083 216.367 198.483 216.367 198.483C209.246 195.948 210.001 190.551 211.838 185.581L200.473 173.49Z" fill="#B97964"/>
<path d="M227.431 167.707C227.346 168.548 227.745 169.274 228.3 169.331C228.856 169.388 229.354 168.733 229.44 167.907C229.525 167.081 229.126 166.34 228.571 166.283C228.015 166.226 227.531 166.867 227.431 167.707Z" fill="#263238"/>
<path d="M228.357 166.298L230.422 165.899C230.422 165.899 229.24 167.423 228.357 166.298Z" fill="#263238"/>
<path d="M227.718 168.605C228.299 170.608 229.147 172.524 230.238 174.301C229.777 174.568 229.263 174.732 228.731 174.781C228.2 174.83 227.665 174.764 227.162 174.586L227.718 168.605Z" fill="#A24E3F"/>
<path d="M229.826 163.278C229.957 163.257 230.078 163.192 230.167 163.093C230.255 162.998 230.304 162.874 230.304 162.744C230.304 162.615 230.255 162.49 230.167 162.395C229.582 161.861 228.877 161.474 228.111 161.269C227.345 161.063 226.541 161.044 225.767 161.213C225.658 161.289 225.581 161.402 225.552 161.532C225.523 161.661 225.544 161.796 225.61 161.911C225.654 161.984 225.717 162.044 225.792 162.084C225.867 162.125 225.952 162.143 226.037 162.139C226.653 162.021 227.288 162.049 227.891 162.219C228.494 162.39 229.049 162.699 229.512 163.122C229.595 163.209 229.706 163.265 229.826 163.278Z" fill="#263238"/>
<path d="M199.804 162.353C199.476 172.763 199.12 177.192 203.763 183.003C210.755 191.733 223.416 189.825 226.806 179.685C229.853 170.556 229.882 155.004 220.297 149.963C210.713 144.921 200.103 151.914 199.804 162.353Z" fill="#B97964"/>
<path d="M200.26 182.02C190.021 180.268 192.955 173.817 192.955 173.817C182.872 171.781 190.662 166.853 190.662 166.853C182.273 163.236 190.662 159.989 190.662 159.989C182.573 153.281 194.108 150.96 194.108 150.96C191.26 140.492 201.229 144.793 201.229 144.793C206.641 135.792 211.312 144.38 211.312 144.38C220.797 131.563 223.104 142.372 223.104 142.372C232.802 139.823 229.085 150.02 229.085 150.02C237.06 152.156 230.794 156.2 230.794 156.2C233.87 160.088 222.748 160.758 222.748 160.758C222.748 160.758 228.046 169.303 222.748 171.652L209.275 181.977C209.275 181.977 203.052 179.442 200.26 182.02Z" fill="#263238"/>
<path d="M210.328 173.618C210.328 173.618 217.449 156.528 211.88 141.945L216.58 140.335C216.58 140.335 222.718 161.541 210.328 173.618Z" fill="#2A8BE9"/>
<path d="M217.435 171.738C218.603 174.187 219.058 175.255 220.739 176.01C221.258 176.308 221.853 176.446 222.45 176.408C223.047 176.37 223.62 176.157 224.097 175.796C224.574 175.434 224.933 174.94 225.132 174.376C225.33 173.811 225.357 173.201 225.211 172.621C224.769 170.171 222.889 166.568 220.283 166.497C219.674 166.5 219.076 166.667 218.553 166.979C218.03 167.292 217.601 167.74 217.31 168.275C217.019 168.811 216.877 169.415 216.899 170.024C216.921 170.633 217.106 171.225 217.435 171.738Z" fill="#B97964"/>
<path d="M210.072 207.313C210.072 207.313 219.713 214.434 223.63 217.282L251.529 204.123C251.489 202.576 251.917 201.053 252.755 199.753C253.593 198.452 254.804 197.434 256.229 196.831L258.222 196.005L262.424 194.125C263.207 193.776 264.068 193.639 264.921 193.729C265.773 193.819 266.587 194.133 267.28 194.638C268.094 195.231 268.704 196.061 269.028 197.015C269.352 197.968 269.373 198.998 269.089 199.964C268.503 201.967 267.408 203.783 265.91 205.236C264.412 206.689 262.563 207.728 260.544 208.253L256.471 209.321C256.471 209.321 232.559 227.436 224.014 227.863C215.469 228.291 202.951 219.902 202.951 219.902L210.072 207.313Z" fill="#B97964"/>
<path d="M186.886 195.308C194.249 195.308 202.481 199.893 215.369 208.296C213.518 214.353 210.076 219.802 205.4 224.075C205.4 224.075 198.28 222.167 188.823 213.266C177.43 202.485 182.372 195.322 186.886 195.308Z" fill="#263238"/>
<path d="M326.738 216.641H256.955C256.368 216.651 255.785 216.535 255.246 216.303C254.707 216.07 254.224 215.725 253.828 215.292C253.432 214.858 253.133 214.346 252.95 213.788C252.767 213.23 252.705 212.639 252.768 212.055L258.023 151.985C258.148 150.743 258.725 149.59 259.644 148.745C260.562 147.9 261.759 147.421 263.007 147.399H332.791C333.377 147.39 333.959 147.505 334.497 147.738C335.036 147.97 335.519 148.315 335.913 148.749C336.308 149.183 336.606 149.696 336.787 150.254C336.968 150.812 337.028 151.402 336.963 151.985L331.708 212.055C331.583 213.295 331.009 214.446 330.093 215.291C329.177 216.136 327.984 216.616 326.738 216.641Z" fill="#2A8BE9"/>
<path opacity="0.4" d="M326.738 216.641H256.955C256.368 216.651 255.785 216.535 255.246 216.303C254.707 216.07 254.224 215.725 253.828 215.292C253.432 214.858 253.133 214.346 252.95 213.788C252.767 213.23 252.705 212.639 252.768 212.055L258.023 151.985C258.148 150.743 258.725 149.59 259.644 148.745C260.562 147.9 261.759 147.421 263.007 147.399H332.791C333.377 147.39 333.959 147.505 334.497 147.738C335.036 147.97 335.519 148.315 335.913 148.749C336.308 149.183 336.606 149.696 336.787 150.254C336.968 150.812 337.028 151.402 336.963 151.985L331.708 212.055C331.583 213.295 331.009 214.446 330.093 215.291C329.177 216.136 327.984 216.616 326.738 216.641Z" fill="white"/>
<path opacity="0.7" d="M326.994 213.793C327.466 213.785 327.919 213.603 328.266 213.283C328.612 212.962 328.829 212.525 328.874 212.055L334.129 151.985C334.154 151.764 334.131 151.541 334.062 151.329C333.993 151.118 333.88 150.924 333.731 150.76C333.581 150.595 333.399 150.465 333.195 150.376C332.991 150.288 332.771 150.244 332.549 150.247H262.765C262.292 150.255 261.838 150.437 261.489 150.757C261.14 151.077 260.92 151.514 260.871 151.985L255.63 212.055C255.606 212.276 255.629 212.5 255.698 212.711C255.767 212.922 255.879 213.116 256.029 213.281C256.178 213.445 256.361 213.576 256.565 213.664C256.769 213.752 256.989 213.796 257.211 213.793H326.994Z" fill="white"/>
<path d="M278.503 178.474L255.716 211.457V212.055C255.692 212.276 255.715 212.5 255.784 212.711C255.853 212.922 255.965 213.116 256.115 213.281C256.264 213.445 256.447 213.576 256.651 213.664C256.855 213.752 257.075 213.796 257.297 213.793H296.832L278.503 178.474Z" fill="#2A8BE9"/>
<path opacity="0.3" d="M278.503 178.474L255.716 211.457V212.055C255.692 212.276 255.715 212.5 255.784 212.711C255.853 212.922 255.965 213.116 256.115 213.281C256.264 213.445 256.447 213.576 256.651 213.664C256.855 213.752 257.075 213.796 257.297 213.793H296.832L278.503 178.474Z" fill="white"/>
<path d="M329.075 209.763L309.977 173.49L281.693 213.793H326.995C327.467 213.785 327.92 213.603 328.267 213.283C328.613 212.962 328.83 212.525 328.875 212.055L329.075 209.763Z" fill="#2A8BE9"/>
<path d="M302.6 167.081C302.425 168.817 301.62 170.428 300.336 171.61C299.053 172.791 297.38 173.46 295.635 173.49C294.814 173.504 294 173.344 293.245 173.02C292.491 172.695 291.815 172.214 291.261 171.608C290.707 171.001 290.289 170.284 290.034 169.504C289.779 168.723 289.693 167.897 289.782 167.081C289.953 165.342 290.757 163.728 292.041 162.543C293.325 161.359 295 160.688 296.746 160.658C297.569 160.643 298.385 160.803 299.14 161.128C299.896 161.454 300.573 161.936 301.127 162.544C301.681 163.152 302.099 163.871 302.353 164.654C302.607 165.436 302.691 166.263 302.6 167.081Z" fill="#2A8BE9"/>
<path opacity="0.4" d="M302.6 167.081C302.425 168.817 301.62 170.428 300.336 171.61C299.053 172.791 297.38 173.46 295.635 173.49C294.814 173.504 294 173.344 293.245 173.02C292.491 172.695 291.815 172.214 291.261 171.608C290.707 171.001 290.289 170.284 290.034 169.504C289.779 168.723 289.693 167.897 289.782 167.081C289.953 165.342 290.757 163.728 292.041 162.543C293.325 161.359 295 160.688 296.746 160.658C297.569 160.643 298.385 160.803 299.14 161.128C299.896 161.454 300.573 161.936 301.127 162.544C301.681 163.152 302.099 163.871 302.353 164.654C302.607 165.436 302.691 166.263 302.6 167.081Z" fill="white"/>
<path d="M128.454 459.102L121.361 480.123L132.228 484.566L140.73 465.169L128.454 459.102Z" fill="#B97964"/>
<path d="M136.131 484.039C136.075 484.005 136.029 483.957 135.999 483.899C135.969 483.841 135.956 483.776 135.96 483.711C135.968 483.649 135.995 483.59 136.039 483.544C136.083 483.498 136.14 483.467 136.202 483.455C136.43 483.455 141.557 482.259 143.465 483.455C143.826 483.676 144.086 484.028 144.191 484.438C144.271 484.666 144.278 484.913 144.212 485.145C144.146 485.377 144.009 485.583 143.821 485.734C143.095 486.246 141.4 486.033 139.848 485.549C138.568 485.153 137.324 484.648 136.131 484.039ZM137.213 483.939C139.449 484.936 142.61 485.89 143.436 485.264C143.55 485.178 143.693 485.036 143.579 484.594C143.557 484.465 143.504 484.344 143.424 484.239C143.345 484.135 143.242 484.052 143.123 483.996C142.955 483.89 142.773 483.809 142.582 483.754C140.797 483.475 138.975 483.538 137.213 483.939Z" fill="#2A8BE9"/>
<path d="M135.974 483.968C135.946 483.92 135.932 483.866 135.932 483.811C135.932 483.756 135.946 483.702 135.974 483.655C135.974 483.512 137.398 480.237 139.406 479.382C139.692 479.263 140 479.201 140.31 479.201C140.621 479.201 140.928 479.263 141.214 479.382C141.998 479.71 142.126 480.208 142.055 480.55C141.884 482.045 138.039 483.825 136.358 484.025C136.338 484.035 136.316 484.04 136.294 484.04C136.272 484.04 136.25 484.035 136.23 484.025C136.186 484.038 136.139 484.04 136.094 484.03C136.05 484.02 136.008 483.998 135.974 483.968ZM140.801 479.938C140.434 479.802 140.03 479.802 139.662 479.938C138.394 480.725 137.4 481.883 136.814 483.256C138.651 482.814 141.271 481.305 141.457 480.408C141.457 480.322 141.457 480.094 140.972 479.895H140.801V479.938Z" fill="#2A8BE9"/>
<path d="M135.39 481.889L121.746 477.616C121.497 477.539 121.228 477.55 120.985 477.645C120.742 477.741 120.538 477.917 120.408 478.143L114.512 488.482C114.384 488.7 114.301 488.941 114.267 489.191C114.233 489.44 114.249 489.695 114.314 489.938C114.379 490.182 114.492 490.41 114.645 490.61C114.799 490.81 114.991 490.978 115.21 491.103C115.326 491.174 115.45 491.231 115.58 491.274C120.522 492.698 124.979 493.78 131.103 495.689C138.338 497.91 136.23 498.209 144.689 500.958C149.788 502.61 152.522 497.07 150.386 496.116C140.83 491.843 140.73 488.482 137.996 483.74C137.377 482.83 136.452 482.173 135.39 481.889Z" fill="#263238"/>
<path opacity="0.2" d="M125.051 469.185L136.444 474.939L140.731 465.169L128.454 459.102L125.051 469.185Z" fill="#263238"/>
<path d="M176.619 264.678C176.619 264.678 161.31 276.37 164.585 312.999C164.899 316.388 166.009 319.935 166.009 323.808C166.009 326.386 165.297 328.195 164.457 333.991C163.232 342.422 160.982 373.867 158.604 377.954C156.226 382.042 155.257 381.315 148.635 392.595C141.514 404.728 132.257 426.005 125.094 462.064C129.877 465.44 135.34 467.73 141.101 468.772C141.101 468.772 180.222 407.078 188.539 384.107C195.988 363.556 204.86 297.974 204.86 297.974L205.572 269.491L176.619 264.678Z" fill="#2A8BE9"/>
<path opacity="0.1" d="M193.368 312.999H182.288C182.288 312.999 178.642 347.862 190.69 376.943C191.944 372.272 193.211 366.675 194.45 360.623L199.249 329.918C198.566 324.734 198.039 320.775 197.953 320.519C197.711 319.707 193.368 312.999 193.368 312.999Z" fill="black"/>
<path d="M191.543 467.562L191.614 489.907L204.218 489.066L206.155 467.562H191.543Z" fill="#B97964"/>
<path d="M205.672 488.682C205.61 488.674 205.551 488.646 205.505 488.603C205.459 488.559 205.428 488.502 205.416 488.44C205.401 488.377 205.407 488.311 205.433 488.252C205.459 488.193 205.503 488.144 205.558 488.112C205.758 487.998 210.215 485.264 212.423 485.748C212.834 485.84 213.196 486.084 213.434 486.432C213.581 486.624 213.667 486.856 213.68 487.097C213.692 487.339 213.632 487.578 213.505 487.785C212.41 488.606 211.055 489.006 209.689 488.91C208.346 488.955 207.001 488.879 205.672 488.682ZM206.669 488.24C209.105 488.454 212.366 488.312 212.978 487.443C213.064 487.329 213.135 487.144 212.893 486.759C212.827 486.647 212.736 486.552 212.627 486.48C212.519 486.409 212.395 486.363 212.266 486.346C212.073 486.317 211.876 486.317 211.682 486.346C209.904 486.644 208.201 487.288 206.669 488.24Z" fill="#2A8BE9"/>
<path d="M205.5 488.682C205.453 488.651 205.413 488.609 205.386 488.559C205.359 488.509 205.344 488.454 205.344 488.397C205.344 488.24 205.586 484.694 207.195 483.27C207.424 483.06 207.694 482.898 207.988 482.795C208.282 482.692 208.594 482.65 208.904 482.672C209.759 482.672 210.043 483.156 210.086 483.512C210.414 484.936 207.38 487.913 205.814 488.668C205.772 488.682 205.727 488.682 205.686 488.668C205.627 488.694 205.562 488.699 205.5 488.682ZM208.719 483.27C208.327 483.278 207.952 483.43 207.665 483.697C206.726 484.858 206.169 486.281 206.07 487.77C207.651 486.759 209.63 484.466 209.517 483.583C209.517 483.498 209.445 483.27 208.89 483.242H208.719V483.27Z" fill="#2A8BE9"/>
<path d="M204.275 486.902L190.034 487.414C189.774 487.426 189.525 487.525 189.329 487.696C189.132 487.866 188.999 488.098 188.951 488.354L186.787 500.061C186.691 500.557 186.796 501.072 187.079 501.491C187.362 501.91 187.8 502.2 188.296 502.297C188.434 502.311 188.572 502.311 188.709 502.297C193.851 502.012 198.408 501.57 204.816 501.357C212.379 501.086 210.513 502.054 219.385 501.869C224.754 501.741 225.509 495.617 223.231 495.404C212.792 494.464 211.595 491.359 207.451 487.785C206.539 487.107 205.407 486.792 204.275 486.902Z" fill="#263238"/>
<path opacity="0.2" d="M191.586 479.126L205.144 478.841L206.155 467.562H191.543L191.586 479.126Z" fill="#263238"/>
<path d="M185.15 260.619C185.15 260.619 169.869 280.856 181.191 320.433L194.008 378.239C194.008 378.239 181.846 404.529 188.312 473.885C194.578 474.765 200.947 474.621 207.167 473.458C207.167 473.458 221.409 400.214 223.559 375.476C225.937 348.218 224.513 266.059 224.513 266.059L185.15 260.619Z" fill="#2A8BE9"/>
<path d="M194.377 195.023C194.377 195.023 192.013 184.911 207.195 189.326C222.376 193.741 221.094 202.385 221.094 202.385L194.377 195.023Z" fill="#263238"/>
<path opacity="0.4" d="M194.377 195.023C194.377 195.023 192.013 184.911 207.195 189.326C222.376 193.741 221.094 202.385 221.094 202.385L194.377 195.023Z" fill="black"/>
<path d="M232.033 220.315C232.033 223.862 230.609 228.989 229.185 234.728C228.53 237.448 227.932 240.282 227.533 243.159C225.382 258.824 224.685 275.33 224.685 275.33C216.304 277.158 207.636 277.241 199.222 275.572C190.808 273.903 182.828 270.52 175.779 265.632C175.779 265.632 181.746 260.576 180.522 225.556C179.966 209.777 174.27 191.021 200.346 193.969C222.363 196.461 229.769 203.297 231.549 213.992C231.549 214.12 231.549 214.263 231.549 214.405L231.677 215.402C231.892 217.031 232.011 218.672 232.033 220.315Z" fill="#263238"/>
<path opacity="0.4" d="M232.032 220.316C232.032 223.862 230.608 228.989 229.184 234.728C223.231 227.607 217.264 214.149 217.264 214.149L222.177 206.914L230.836 210.945C231.135 211.945 231.373 212.963 231.548 213.992C231.548 214.12 231.548 214.263 231.548 214.405L231.676 215.402C231.891 217.032 232.01 218.672 232.032 220.316Z" fill="black"/>
<path d="M241.104 214.135C241.104 214.135 249.649 222.566 253.024 225.955L282.561 217.097C282.755 215.57 283.401 214.136 284.416 212.978C285.431 211.821 286.769 210.994 288.258 210.603L290.337 210.062L294.78 208.837C295.608 208.613 296.48 208.609 297.31 208.827C298.139 209.044 298.897 209.475 299.509 210.076C300.225 210.781 300.705 211.691 300.883 212.681C301.062 213.67 300.93 214.69 300.506 215.602C299.626 217.494 298.272 219.128 296.576 220.343C294.879 221.558 292.896 222.314 290.821 222.537L286.634 222.979C286.634 222.979 260.273 237.377 251.785 236.579C243.298 235.782 232.146 225.571 232.146 225.571L241.104 214.135Z" fill="#B97964"/>
<path d="M219.885 198.797C227.177 199.865 234.625 205.661 246.189 215.886C243.45 221.606 239.225 226.485 233.956 230.014C233.956 230.014 227.219 227.066 219.187 216.855C209.475 204.493 215.47 198.141 219.885 198.797Z" fill="#263238"/>
</svg>
