<svg width="500" height="378" viewBox="0 0 500 378" fill="none" xmlns="http://www.w3.org/2000/svg">
<path d="M500 332.41H0V332.66H500V332.41Z" fill="#E6E6E6"/>
<path d="M78.2204 343.57H51.6504V343.82H78.2204V343.57Z" fill="#E6E6E6"/>
<path d="M87.8297 338.57H64.9297V338.82H87.8297V338.57Z" fill="#E6E6E6"/>
<path d="M325.411 339.311H263.961V339.561H325.411V339.311Z" fill="#E6E6E6"/>
<path d="M345.91 339.311H331.17V339.561H345.91V339.311Z" fill="#E6E6E6"/>
<path d="M429.721 341.021H381.061V341.271H429.721V341.021Z" fill="#E6E6E6"/>
<path d="M193.169 345.012H106.539V345.262H193.169V345.012Z" fill="#E6E6E6"/>
<path d="M445.59 341.021H438.5V341.271H445.59V341.021Z" fill="#E6E6E6"/>
<path d="M237.001 287.811H43.9109C42.3983 287.808 40.9485 287.205 39.8798 286.135C38.8112 285.064 38.2109 283.613 38.2109 282.101V10.6707C38.2241 9.16677 38.8301 7.72872 39.8974 6.66896C40.9646 5.6092 42.4069 5.01332 43.9109 5.01074H237.001C238.515 5.01074 239.968 5.61233 241.039 6.68316C242.109 7.754 242.711 9.20636 242.711 10.7207V282.101C242.711 283.615 242.109 285.068 241.039 286.138C239.968 287.209 238.515 287.811 237.001 287.811ZM43.9109 5.21074C42.4646 5.21339 41.0784 5.78981 40.0566 6.81347C39.0348 7.83713 38.4609 9.22439 38.4609 10.6707V282.101C38.4609 283.547 39.0348 284.934 40.0566 285.958C41.0784 286.982 42.4646 287.558 43.9109 287.561H237.001C238.448 287.558 239.835 286.982 240.859 285.959C241.882 284.935 242.458 283.548 242.461 282.101V10.6707C242.458 9.22347 241.882 7.83624 240.859 6.81286C239.835 5.78948 238.448 5.21339 237.001 5.21074H43.9109Z" fill="#E6E6E6"/>
<path d="M453.31 287.811H260.21C258.696 287.808 257.246 287.206 256.175 286.135C255.105 285.065 254.503 283.614 254.5 282.101V10.6707C254.516 9.16586 255.124 7.72782 256.193 6.66834C257.262 5.60885 258.705 5.01329 260.21 5.01074H453.31C454.812 5.01595 456.252 5.61299 457.317 6.67247C458.382 7.73195 458.987 9.16849 459 10.6707V282.101C459 283.612 458.401 285.061 457.335 286.131C456.268 287.202 454.821 287.805 453.31 287.811ZM260.21 5.21074C258.763 5.21339 257.375 5.78948 256.352 6.81286C255.329 7.83624 254.753 9.22347 254.75 10.6707V282.101C254.753 283.548 255.329 284.935 256.352 285.959C257.375 286.982 258.763 287.558 260.21 287.561H453.31C454.757 287.558 456.145 286.982 457.168 285.959C458.191 284.935 458.767 283.548 458.77 282.101V10.6707C458.767 9.22347 458.191 7.83624 457.168 6.81286C456.145 5.78948 454.757 5.21339 453.31 5.21074H260.21Z" fill="#E6E6E6"/>
<path d="M153.428 160.434C156.211 148.357 148.678 136.31 136.601 133.527C124.525 130.743 112.478 138.277 109.695 150.353C106.911 162.43 114.444 174.476 126.521 177.26C138.598 180.044 150.644 172.51 153.428 160.434Z" fill="#F0F0F0"/>
<path d="M284.581 150.75C281.791 144.75 284.011 140.4 290.851 140.4C295.131 140.4 300.451 142.1 305.631 144.85C306.221 143.28 307.861 142.34 310.511 142.34C315.181 142.34 321.611 145.25 326.651 149.34C328.206 148.3 330.04 147.753 331.911 147.77C336.381 147.59 341.781 149.26 346.481 151.98C346.757 151.719 347.082 151.515 347.437 151.381C347.793 151.247 348.171 151.186 348.551 151.2C350.041 151.25 351.503 151.612 352.845 152.261C354.187 152.91 355.377 153.833 356.341 154.97C356.451 155.1 356.541 155.24 356.641 155.37H281.111C278.721 153.24 281.361 150.86 284.581 150.75Z" fill="#F5F5F5"/>
<path d="M137.439 197.181L199.319 183.011V332.411H137.439V197.181Z" fill="#FAFAFA"/>
<path d="M231.43 183.011H199.32V332.411H231.43V183.011Z" fill="#EBEBEB"/>
<path d="M220.939 332.41H273.609V147.28H220.939L220.939 332.41Z" fill="#FAFAFA"/>
<path d="M300.939 147.281H273.609V332.411H300.939V147.281Z" fill="#EBEBEB"/>
<path d="M228.029 147.281H273.609V133.521H228.029V147.281Z" fill="#FAFAFA"/>
<path d="M228.029 147.281H273.609V144.191H228.029V147.281Z" fill="#EBEBEB"/>
<path d="M293.859 133.521H273.609V147.281H293.859V133.521Z" fill="#EBEBEB"/>
<path d="M235.11 133.521H273.6V119.76H235.11V133.521Z" fill="#FAFAFA"/>
<path d="M235.11 133.521H273.6V130.43H235.11V133.521Z" fill="#EBEBEB"/>
<path d="M286.769 119.771H273.609V133.531H286.769V119.771Z" fill="#EBEBEB"/>
<path d="M262.22 100.551H259.66V119.771H262.22V100.551Z" fill="#EBEBEB"/>
<path d="M292.21 332.41H330.67V171.34H292.21V332.41Z" fill="#FAFAFA"/>
<path d="M350.64 171.341H330.68V332.411H350.64V171.341Z" fill="#EBEBEB"/>
<path d="M340.66 204.011L369.82 229.011V332.411H340.66V204.011Z" fill="#FAFAFA"/>
<path d="M384.96 229.011H369.82V332.411H384.96V229.011Z" fill="#EBEBEB"/>
<path d="M384.96 229.011H369.82L340.66 204.011H355.79L384.96 229.011Z" fill="#EBEBEB"/>
<path d="M439.9 332.41C440.329 330.008 441.35 327.751 442.871 325.842C444.392 323.934 446.365 322.435 448.61 321.48C446.639 324.768 445.744 328.589 446.05 332.41H439.9Z" fill="#EBEBEB"/>
<path d="M186.3 332.41C185.871 330.008 184.85 327.751 183.329 325.842C181.808 323.934 179.836 322.435 177.59 321.48C179.561 324.768 180.457 328.589 180.15 332.41H186.3Z" fill="#EBEBEB"/>
<path d="M58.8693 332.411C58.8693 332.411 58.3793 319.611 53.0293 315.891C55.2193 321.121 54.7493 332.411 54.7493 332.411H58.8693Z" fill="#EBEBEB"/>
<path d="M56.8594 332.412C56.8594 332.412 57.3594 325.062 62.7094 322.932C60.5094 325.932 60.9894 332.412 60.9894 332.412H56.8594Z" fill="#EBEBEB"/>
<path d="M190.881 332.411C190.881 332.411 190.341 320.291 180.641 315.891C184.981 322.111 184.731 332.411 184.731 332.411H190.881Z" fill="#EBEBEB"/>
<path d="M93.6797 250.82L100.74 300.62L101.44 305.6H105.97L105.26 300.62L98.1997 250.82H93.6797Z" fill="#E0E0E0"/>
<path d="M287.67 250.82L294.73 300.62L295.43 305.6H299.96L299.25 300.62L292.19 250.82H287.67Z" fill="#E0E0E0"/>
<path d="M122.67 300.621L123.38 305.601L127.19 332.451H131.72L127.91 305.601L127.21 300.621H122.67Z" fill="#E6E6E6"/>
<path d="M316.67 300.621L317.38 305.601L321.18 332.451H325.7L321.9 305.601L321.2 300.621H316.67Z" fill="#E6E6E6"/>
<path d="M293.81 300.621L293.1 305.601L289.29 332.451H284.76L288.57 305.601L289.27 300.621H293.81Z" fill="#E6E6E6"/>
<path d="M99.8093 300.621L99.0993 305.601L95.2993 332.451H90.7793L94.5793 305.601L95.2893 300.621H99.8093Z" fill="#E6E6E6"/>
<path d="M87.1703 257.751H294.5L290.65 243.881H83.3203L87.1703 257.751Z" fill="#F5F5F5"/>
<path d="M91.9008 257.751H299.241L295.391 243.881H88.0508L91.9008 257.751Z" fill="#E6E6E6"/>
<path d="M90.0592 275.041H297.389L293.539 261.181H86.1992L90.0592 275.041Z" fill="#F5F5F5"/>
<path d="M94.7895 275.041H302.119L298.269 261.181H90.9395L94.7895 275.041Z" fill="#E6E6E6"/>
<path d="M92.9398 292.361H300.28L296.43 278.501H89.0898L92.9398 292.361Z" fill="#F5F5F5"/>
<path d="M97.6801 292.361H305.01L301.16 278.501H93.8301L97.6801 292.361Z" fill="#E6E6E6"/>
<path d="M323.881 300.621H117.461V305.601H323.881V300.621Z" fill="#E6E6E6"/>
<path d="M117.46 300.621H89.0898V305.601H117.46V300.621Z" fill="#F5F5F5"/>
<path d="M73.4999 97.4809C69.6299 89.1209 72.7099 83.1709 82.1699 83.1709C88.0999 83.1709 95.4499 85.5109 102.62 89.3209C103.43 87.1509 105.71 85.8509 109.37 85.8509C115.83 85.8509 124.72 89.8509 131.7 95.5609C133.848 94.1195 136.383 93.3629 138.97 93.3909C145.15 93.1309 152.63 95.4509 159.13 99.2109C159.903 98.4864 160.931 98.098 161.99 98.1309C165.55 97.9809 170.37 100.321 172.76 103.341C172.91 103.531 173.04 103.711 173.17 103.901H68.6999C65.3999 100.931 69.0499 97.6309 73.4999 97.4809Z" fill="#F5F5F5"/>
<path d="M347.91 114.72C348.173 114.705 348.437 114.705 348.7 114.72C348.46 111.99 349.87 110.24 352.9 110.24C355.593 110.423 358.199 111.264 360.49 112.69C359.71 107.39 362.22 103.94 367.88 103.94C372.45 103.94 378.24 106.18 383.96 109.84C384.46 107.76 386.14 106.51 388.96 106.51C393.96 106.51 400.96 110.37 406.66 115.81C408.158 114.449 410.116 113.706 412.14 113.73C416.87 113.48 422.75 115.73 427.96 119.31C428.211 118.982 428.537 118.72 428.912 118.545C429.286 118.371 429.697 118.291 430.11 118.31C432.7 118.18 436.26 120.17 438.34 122.83H343.75C341.52 118.71 343.29 115.18 347.91 114.72Z" fill="#F5F5F5"/>
<path d="M188.781 54.2412C189.041 54.226 189.301 54.226 189.561 54.2412C189.321 51.5012 190.741 49.7612 193.761 49.7612C196.457 49.9417 199.067 50.7831 201.361 52.2112C200.581 46.9012 203.081 43.4512 208.741 43.4512C213.321 43.4512 219.101 45.7012 224.821 49.3612C225.321 47.2812 227.001 46.0312 229.821 46.0312C234.821 46.0312 241.821 49.8812 247.521 55.3312C249.022 53.9736 250.977 53.2279 253.001 53.2412C257.731 53.0012 263.611 55.2412 268.821 58.8212C269.072 58.4935 269.399 58.2314 269.773 58.0572C270.147 57.8831 270.558 57.8021 270.971 57.8212C273.561 57.6812 277.131 59.6712 279.201 62.3412H184.611C182.391 58.2312 184.161 54.7012 188.781 54.2412Z" fill="#F5F5F5"/>
<path d="M424.77 315.11L407 297.34H393.16L408.52 312.7H404.3V332.41H420.55V315.11H424.77Z" fill="#EBEBEB"/>
<path d="M410.931 315.11L393.161 297.34L375.391 315.11H382.021V332.41H404.301V315.11H410.931Z" fill="#FAFAFA"/>
<path d="M249.999 377.57C357.082 377.57 443.889 372.502 443.889 366.25C443.889 359.998 357.082 354.93 249.999 354.93C142.917 354.93 56.1094 359.998 56.1094 366.25C56.1094 372.502 142.917 377.57 249.999 377.57Z" fill="#F5F5F5"/>
<path d="M401.16 57.7301L374.51 31.0801H353.75L376.79 54.1201H370.45V83.6701H394.82V57.7301H401.16Z" fill="#2A8BE9"/>
<path opacity="0.4" d="M401.16 57.7301L374.51 31.0801H353.75L376.79 54.1201H370.45V83.6701H394.82V57.7301H401.16Z" fill="white"/>
<path d="M380.4 57.7301L353.75 31.0801L327.1 57.7301H337.05V83.6701H370.45V57.7301H380.4Z" fill="#2A8BE9"/>
<path opacity="0.7" d="M380.4 57.7301L353.75 31.0801L327.1 57.7301H337.05V83.6701H370.45V57.7301H380.4Z" fill="white"/>
<path d="M418.32 164.11L391.67 137.45H370.91L393.95 160.49H387.61V190.04H411.98V164.11H418.32Z" fill="#2A8BE9"/>
<path opacity="0.4" d="M418.32 164.11L391.67 137.45H370.91L393.95 160.49H387.61V190.04H411.98V164.11H418.32Z" fill="white"/>
<path d="M397.56 164.11L370.91 137.45L344.26 164.11H354.2V190.04H387.61V164.11H397.56Z" fill="#2A8BE9"/>
<path opacity="0.7" d="M397.56 164.11L370.91 137.45L344.26 164.11H354.2V190.04H387.61V164.11H397.56Z" fill="white"/>
<path d="M298.381 191.82L271.721 165.17H250.971L274.011 188.2H267.671V217.76H292.041V191.82H298.381Z" fill="#2A8BE9"/>
<path opacity="0.4" d="M298.381 191.82L271.721 165.17H250.971L274.011 188.2H267.671V217.76H292.041V191.82H298.381Z" fill="white"/>
<path d="M277.62 191.82L250.97 165.17L224.32 191.82H234.26V217.75H267.67V191.82H277.62Z" fill="#2A8BE9"/>
<path opacity="0.7" d="M277.62 191.82L250.97 165.17L224.32 191.82H234.26V217.75H267.67V191.82H277.62Z" fill="white"/>
<path d="M296.79 102.27H282.45L280.4 100.23L263.75 69.2305L296.79 102.27Z" fill="#2F54C6"/>
<path d="M282.399 132.38H312.609V95.7399H282.399V132.38Z" fill="#2A8BE9"/>
<path opacity="0.3" d="M282.399 132.38H312.609V95.7399H282.399V132.38Z" fill="black"/>
<path d="M294.741 100.23H320.481L287.431 67.1797H261.701L294.741 100.23Z" fill="#2A8BE9"/>
<path opacity="0.3" d="M294.741 100.23H320.481L287.431 67.1797H261.701L294.741 100.23Z" fill="black"/>
<path d="M282.4 90.9606V132.381H240.99V90.9606L261.7 70.8506L261.91 71.0606L263.75 72.8406L282.4 90.9606Z" fill="#2A8BE9"/>
<path opacity="0.3" d="M263.75 69.2305V83.5705L245.04 102.27H240.99V91.9905L261.91 71.0605L263.75 69.2305Z" fill="black"/>
<path d="M294.741 100.23H280.401L261.701 81.5197V67.1797L294.741 100.23Z" fill="#2A8BE9"/>
<path d="M228.65 100.23H242.99L261.7 81.5197V67.1797L228.65 100.23Z" fill="#2A8BE9"/>
<path d="M224 142.389C215.47 149.309 206.67 155.819 197.82 162.219C188.97 168.619 180 174.839 171 181.009C162 187.179 152.85 193.119 143.66 199.009C139.09 202.009 134.45 204.849 129.84 207.769C127.567 209.336 125.054 210.525 122.4 211.289C120.962 211.677 119.488 211.918 118 212.009C116.329 212.147 114.647 212.056 113 211.739C111.711 211.477 110.487 210.963 109.396 210.226C108.306 209.49 107.372 208.546 106.648 207.448C105.923 206.35 105.422 205.119 105.174 203.828C104.926 202.536 104.935 201.207 105.2 199.919C105.2 199.769 105.27 199.579 105.31 199.419C105.759 197.8 106.432 196.252 107.31 194.819C108.049 193.543 108.917 192.347 109.9 191.249C111.753 189.2 113.924 187.465 116.33 186.109C120.98 183.249 125.59 180.339 130.26 177.539C139.57 171.849 148.97 166.319 158.42 160.859C167.87 155.399 177.42 150.109 187.05 144.949C196.68 139.789 206.39 134.759 216.35 130.119C217.957 129.422 219.761 129.326 221.433 129.847C223.106 130.368 224.535 131.472 225.462 132.958C226.388 134.444 226.751 136.214 226.482 137.945C226.214 139.676 225.333 141.253 224 142.389Z" fill="#2A8BE9"/>
<path d="M224 142.389C215.47 149.309 206.67 155.819 197.82 162.219C188.97 168.619 180 174.839 171 181.009C162 187.179 152.85 193.119 143.66 199.009C139.09 202.009 134.45 204.849 129.84 207.769C127.567 209.336 125.054 210.525 122.4 211.289C120.962 211.677 119.488 211.918 118 212.009C116.329 212.147 114.647 212.056 113 211.739C111.711 211.477 110.487 210.963 109.396 210.226C108.306 209.49 107.372 208.546 106.648 207.448C105.923 206.35 105.422 205.119 105.174 203.828C104.926 202.536 104.935 201.207 105.2 199.919C105.2 199.769 105.27 199.579 105.31 199.419C105.759 197.8 106.432 196.252 107.31 194.819C108.049 193.543 108.917 192.347 109.9 191.249C111.753 189.2 113.924 187.465 116.33 186.109C120.98 183.249 125.59 180.339 130.26 177.539C139.57 171.849 148.97 166.319 158.42 160.859C167.87 155.399 177.42 150.109 187.05 144.949C196.68 139.789 206.39 134.759 216.35 130.119C217.957 129.422 219.761 129.326 221.433 129.847C223.106 130.368 224.535 131.472 225.462 132.958C226.388 134.444 226.751 136.214 226.482 137.945C226.214 139.676 225.333 141.253 224 142.389Z" fill="#2A8BE9"/>
<path opacity="0.5" d="M224 142.389C215.47 149.309 206.67 155.819 197.82 162.219C188.97 168.619 180 174.839 171 181.009C162 187.179 152.85 193.119 143.66 199.009C139.09 202.009 134.45 204.849 129.84 207.769C127.567 209.336 125.054 210.525 122.4 211.289C120.962 211.677 119.488 211.918 118 212.009C116.329 212.147 114.647 212.056 113 211.739C111.711 211.477 110.487 210.963 109.396 210.226C108.306 209.49 107.372 208.546 106.648 207.448C105.923 206.35 105.422 205.119 105.174 203.828C104.926 202.536 104.935 201.207 105.2 199.919C105.2 199.769 105.27 199.579 105.31 199.419C105.759 197.8 106.432 196.252 107.31 194.819C108.049 193.543 108.917 192.347 109.9 191.249C111.753 189.2 113.924 187.465 116.33 186.109C120.98 183.249 125.59 180.339 130.26 177.539C139.57 171.849 148.97 166.319 158.42 160.859C167.87 155.399 177.42 150.109 187.05 144.949C196.68 139.789 206.39 134.759 216.35 130.119C217.957 129.422 219.761 129.326 221.433 129.847C223.106 130.368 224.535 131.472 225.462 132.958C226.388 134.444 226.751 136.214 226.482 137.945C226.214 139.676 225.333 141.253 224 142.389Z" fill="white"/>
<path d="M187.101 357.639L195.261 355.749L191.441 336.719L183.281 338.609L187.101 357.639Z" fill="#EBB376"/>
<path d="M132.08 130.24C130.95 134.24 129.86 138.45 128.82 142.57C127.78 146.69 126.82 150.87 126.02 155.03C125.58 157.1 125.2 159.22 124.87 161.17C124.54 163.12 124.35 165.17 124.23 167.22C124.125 169.258 124.125 171.301 124.23 173.34C124.23 174.34 124.36 175.34 124.46 176.4C124.56 177.46 124.74 178.47 124.88 179.34L120.88 180.85C120.355 179.775 119.904 178.666 119.53 177.53C119.138 176.438 118.805 175.326 118.53 174.2C117.982 171.951 117.608 169.665 117.41 167.36C117.224 165.031 117.191 162.693 117.31 160.36C117.47 158 117.75 155.83 118.06 153.63C118.69 149.24 119.5 144.89 120.46 140.63C121.42 136.37 122.46 132.08 123.81 127.77L132.08 130.24Z" fill="#EBB376"/>
<path d="M120.311 131.62L128.721 138.32L133.771 142.32C133.771 142.32 134.301 140.91 134.941 138.89C136.161 134.99 137.751 128.81 136.651 125.97C134.921 121.47 131.651 117.41 127.511 118.31C124.001 119.1 120.311 131.62 120.311 131.62Z" fill="#263238"/>
<path d="M131.93 357.699H140.3L139.65 338.299H131.27L131.93 357.699Z" fill="#EBB376"/>
<path d="M191.44 336.73L193.49 346.92L185.25 348.42L183.27 338.62L191.44 336.73Z" fill="#DA9D62"/>
<path d="M131.27 338.299H139.65L139.98 348.299H131.6L131.27 338.299Z" fill="#DA9D62"/>
<path d="M158.57 169.13C158.57 169.13 153.71 226.62 148.67 259.02C144.6 285.19 141.38 346.37 141.38 346.37H130C130 346.37 124.56 287.29 126.63 261.37C131.86 195.88 122.63 184.28 133.58 169.1L158.57 169.13Z" fill="#2A8BE9"/>
<path opacity="0.6" d="M158.57 169.13C158.57 169.13 153.71 226.62 148.67 259.02C144.6 285.19 141.38 346.37 141.38 346.37H130C130 346.37 124.56 287.29 126.63 261.37C131.86 195.88 122.63 184.28 133.58 169.1L158.57 169.13Z" fill="black"/>
<path d="M121.43 180.199L116.49 183.559L117.19 186.429C117.19 186.429 127.48 181.089 124.73 178.949L121.43 180.199Z" fill="#EBB376"/>
<path d="M143.831 358.189C143.086 358.17 142.345 358.07 141.621 357.889C141.584 357.878 141.551 357.857 141.525 357.829C141.499 357.801 141.48 357.767 141.471 357.729C141.465 357.691 141.47 357.651 141.486 357.616C141.502 357.58 141.528 357.55 141.561 357.529C141.851 357.339 144.381 355.699 145.361 356.139C145.472 356.188 145.568 356.265 145.639 356.364C145.709 356.462 145.751 356.578 145.761 356.699C145.8 356.888 145.79 357.083 145.733 357.267C145.675 357.451 145.571 357.617 145.431 357.749C144.968 358.083 144.4 358.239 143.831 358.189ZM142.181 357.599C143.641 357.899 144.741 357.839 145.181 357.459C145.273 357.368 145.34 357.255 145.377 357.131C145.414 357.007 145.419 356.876 145.391 356.749C145.388 356.696 145.37 356.645 145.34 356.601C145.31 356.557 145.269 356.522 145.221 356.499C144.691 356.269 143.221 357.009 142.181 357.599Z" fill="#2A8BE9"/>
<path d="M141.671 357.889C141.638 357.9 141.603 357.9 141.571 357.889C141.541 357.871 141.517 357.846 141.499 357.817C141.482 357.787 141.472 357.754 141.471 357.719C141.471 357.609 141.471 355.199 142.391 354.389C142.502 354.285 142.635 354.207 142.781 354.162C142.926 354.117 143.08 354.106 143.231 354.129C143.388 354.13 143.541 354.186 143.663 354.286C143.785 354.386 143.869 354.525 143.901 354.679C144.091 355.679 142.561 357.439 141.771 357.889C141.738 357.899 141.703 357.899 141.671 357.889ZM143.091 354.499C142.929 354.503 142.773 354.563 142.651 354.669C142.126 355.448 141.857 356.371 141.881 357.309C142.671 356.669 143.631 355.309 143.511 354.739C143.511 354.649 143.441 354.529 143.181 354.499H143.091Z" fill="#2A8BE9"/>
<path d="M196.001 354.49C195.963 354.487 195.927 354.475 195.896 354.455C195.865 354.434 195.84 354.405 195.824 354.372C195.807 354.338 195.8 354.301 195.803 354.263C195.806 354.226 195.819 354.19 195.841 354.16C196.111 353.84 198.441 351.1 199.631 351.1H199.711C199.819 351.107 199.924 351.144 200.013 351.205C200.103 351.267 200.175 351.351 200.221 351.45C200.301 351.604 200.343 351.775 200.343 351.95C200.343 352.124 200.301 352.295 200.221 352.45C199.701 353.55 197.351 354.17 195.991 354.45L196.001 354.49ZM199.621 351.49C198.971 351.49 197.531 352.85 196.541 353.96C198.371 353.53 199.611 352.96 199.901 352.31C199.959 352.208 199.99 352.092 199.99 351.975C199.99 351.857 199.959 351.741 199.901 351.64C199.883 351.599 199.856 351.564 199.821 351.538C199.786 351.511 199.744 351.495 199.701 351.49H199.621Z" fill="#2A8BE9"/>
<path d="M196.001 354.49C195.967 354.485 195.936 354.47 195.911 354.447C195.886 354.424 195.868 354.394 195.861 354.36C195.861 354.27 195.141 352.11 195.781 350.9C195.869 350.723 195.992 350.566 196.144 350.439C196.295 350.311 196.471 350.217 196.661 350.16C197.191 350 197.451 350.16 197.561 350.39C198.071 351.21 196.941 353.63 196.191 354.39C196.171 354.423 196.143 354.449 196.109 354.466C196.076 354.484 196.038 354.492 196.001 354.49ZM197.001 350.49C196.925 350.478 196.847 350.478 196.771 350.49C196.631 350.53 196.501 350.599 196.389 350.692C196.277 350.785 196.186 350.9 196.121 351.03C195.83 351.941 195.83 352.92 196.121 353.83C196.831 352.83 197.521 351.04 197.221 350.55C197.188 350.51 197.142 350.482 197.091 350.471C197.04 350.461 196.987 350.467 196.941 350.49H197.001Z" fill="#2A8BE9"/>
<path d="M142.401 98.0801C143.401 103.08 145.401 113.08 141.951 116.43C141.951 116.43 143.311 121.43 152.551 121.43C162.701 121.43 157.401 116.43 157.401 116.43C151.861 115.11 152.001 111 152.971 107.13L142.401 98.0801Z" fill="#EBB376"/>
<path d="M162.58 87.4198C162.498 87.4213 162.417 87.3968 162.35 87.3498C162.307 87.3191 162.271 87.2801 162.243 87.2353C162.216 87.1905 162.197 87.1406 162.189 87.0885C162.18 87.0365 162.182 86.9833 162.195 86.9321C162.207 86.8808 162.229 86.8325 162.26 86.7898C162.621 86.276 163.098 85.8543 163.652 85.5589C164.206 85.2636 164.822 85.1029 165.45 85.0898C165.544 85.1048 165.63 85.1529 165.691 85.2253C165.753 85.2976 165.787 85.3897 165.787 85.4848C165.787 85.58 165.753 85.672 165.691 85.7444C165.63 85.8168 165.544 85.8648 165.45 85.8798C164.951 85.8936 164.462 86.0259 164.024 86.2658C163.585 86.5058 163.211 86.8465 162.93 87.2598C162.891 87.3145 162.838 87.358 162.776 87.386C162.715 87.4141 162.647 87.4257 162.58 87.4198Z" fill="#263238"/>
<path d="M164.801 92.1895C165.34 93.756 166.094 95.2401 167.041 96.5995C166.686 96.8301 166.284 96.9808 165.865 97.0412C165.445 97.1017 165.018 97.0704 164.611 96.9495L164.801 92.1895Z" fill="#DE5753"/>
<path d="M164.24 91.0099C164.24 91.6899 164.55 92.2499 164.99 92.2599C165.43 92.2699 165.81 91.7499 165.84 91.0699C165.87 90.3899 165.53 89.8399 165.09 89.8199C164.65 89.7999 164.27 90.3399 164.24 91.0099Z" fill="#263238"/>
<path d="M164.891 89.8492L166.531 89.4492C166.531 89.4492 165.651 90.6792 164.891 89.8492Z" fill="#263238"/>
<path d="M141.001 356.729H131.591C131.429 356.723 131.269 356.778 131.145 356.883C131.021 356.989 130.941 357.137 130.921 357.299L129.851 364.739C129.829 364.927 129.846 365.119 129.904 365.3C129.961 365.481 130.056 365.647 130.183 365.789C130.31 365.93 130.466 366.042 130.639 366.118C130.813 366.194 131.002 366.232 131.191 366.229C134.471 366.179 136.051 365.979 140.191 365.979C142.741 365.979 146.451 366.249 149.971 366.249C153.491 366.249 153.671 362.769 152.211 362.459C145.651 361.039 144.611 359.099 142.401 357.239C142.008 356.912 141.513 356.732 141.001 356.729Z" fill="#263238"/>
<path d="M195.101 353.599L186.411 357.209C186.261 357.267 186.137 357.379 186.063 357.523C185.989 357.666 185.971 357.832 186.011 357.989L187.871 365.279C187.924 365.46 188.015 365.629 188.137 365.773C188.26 365.918 188.412 366.034 188.583 366.115C188.754 366.197 188.94 366.241 189.13 366.245C189.319 366.249 189.507 366.213 189.681 366.139C192.681 364.829 194.081 364.049 197.901 362.459C200.251 361.459 205.221 359.709 208.471 358.359C211.721 357.009 210.551 353.729 209.081 353.999C202.481 355.219 199.341 354.409 196.591 353.539C196.103 353.383 195.575 353.404 195.101 353.599Z" fill="#263238"/>
<path d="M176.18 126.799C177.81 130.639 179.57 134.569 181.35 138.389C182.25 140.309 183.187 142.195 184.16 144.049C185.16 145.909 186.16 147.729 187.16 149.469C187.69 150.329 188.22 151.189 188.77 151.979L189.59 153.119C189.759 153.357 189.95 153.578 190.16 153.779C191.251 154.726 192.612 155.307 194.05 155.439C197.46 155.929 201.74 155.239 205.57 154.209L207.35 158.059C206.339 158.667 205.29 159.211 204.21 159.689C203.148 160.183 202.056 160.611 200.94 160.969C198.589 161.769 196.125 162.191 193.64 162.219C192.255 162.231 190.875 162.049 189.54 161.679C188.059 161.271 186.666 160.593 185.43 159.679C184.798 159.198 184.212 158.659 183.68 158.069C183.23 157.559 182.9 157.129 182.5 156.649C181.75 155.709 181.08 154.759 180.41 153.809C177.919 150.059 175.674 146.151 173.69 142.109C171.69 138.109 169.89 134.109 168.23 129.969L176.18 126.799Z" fill="#EBB376"/>
<path d="M204.71 158.529L213.85 157.089L211.42 151.909C211.42 151.909 204.34 153.139 202.98 156.339L204.71 158.529Z" fill="#EBB376"/>
<path d="M213.84 153.049L212.84 150.839L211.42 151.909L213.84 157.089V153.049Z" fill="#EBB376"/>
<path d="M141.641 87.8C141.821 96.11 141.721 99.63 145.741 104.05C151.741 110.7 161.961 108.66 164.261 100.46C166.331 93.08 165.681 80.73 157.701 77.11C155.944 76.3044 154.01 75.9613 152.083 76.1132C150.156 76.2652 148.3 76.9071 146.691 77.9782C145.082 79.0492 143.774 80.5138 142.89 82.2328C142.006 83.9518 141.576 85.8682 141.641 87.8Z" fill="#EBB376"/>
<path d="M134.941 72.7893C143.481 66.5993 153.021 70.1093 158.241 74.3893C163.701 78.8693 162.831 87.4793 159.491 91.0393C159.838 91.5658 160.067 92.1606 160.163 92.7834C160.26 93.4063 160.222 94.0426 160.051 94.6493C160.473 97.3134 159.887 100.039 158.408 102.295C156.929 104.55 154.662 106.174 152.051 106.849L151.581 106.969C140.911 109.509 128.581 102.289 126.721 91.4893C125.591 84.8993 127.391 78.2493 134.941 72.7893Z" fill="#263238"/>
<path d="M157.58 91.6502C157.717 93.2169 158.388 94.6891 159.48 95.8202C160.96 97.3502 162.48 96.4702 162.75 94.6602C162.98 93.0302 162.49 90.2702 160.69 89.4002C158.89 88.5302 157.45 89.8002 157.58 91.6502Z" fill="#EBB376"/>
<path opacity="0.3" d="M147.001 196.009C146.051 213.189 150.191 226.159 152.081 233.749C153.421 222.529 154.651 210.819 155.681 200.489C152.151 188.789 147.691 183.079 147.001 196.009Z" fill="black"/>
<path d="M142.951 346.589H128.401L127.631 341.489L143.031 340.969L142.951 346.589Z" fill="#2A8BE9"/>
<path opacity="0.3" d="M128.721 138.319L133.771 142.319C133.771 142.319 134.301 140.909 134.941 138.889L131.941 124.039L128.721 138.319Z" fill="black"/>
<path d="M139.701 74.1801C142.311 71.2901 151.181 66.8801 158.791 70.3401C160.962 71.3288 162.801 72.9226 164.089 74.9304C165.377 76.9382 166.058 79.2748 166.051 81.6601L159.191 86.2601L139.701 74.1801Z" fill="#263238"/>
<path d="M132.701 81.7693C136.471 78.6793 140.701 67.4793 132.701 71.3793C124.701 75.2793 122.271 90.3193 132.701 81.7693Z" fill="#2A8BE9"/>
<path d="M133.55 74.5901C135.18 69.8301 124.43 60.3601 117.18 69.3601C109.93 78.3601 128.86 88.2901 133.55 74.5901Z" fill="#263238"/>
<path d="M150.371 81.2296C144.121 78.5696 141.011 68.4896 151.741 68.7796C162.471 69.0696 162.161 86.2596 150.371 81.2296Z" fill="#2A8BE9"/>
<path d="M148.35 76.0096C144.56 71.2796 148.75 59.1196 159.62 63.0096C170.49 66.8996 157.05 86.8196 148.35 76.0096Z" fill="#263238"/>
<path d="M167.56 169.13C167.56 169.13 177 233.63 180.32 259.01C183.77 285.36 193.85 344.44 193.85 344.44L182.65 346.15C182.65 346.15 164.95 289.8 160.02 264.15C154.64 236.2 144.02 169.15 144.02 169.15L167.56 169.13Z" fill="#2A8BE9"/>
<path opacity="0.6" d="M167.56 169.13C167.56 169.13 177 233.63 180.32 259.01C183.77 285.36 193.85 344.44 193.85 344.44L182.65 346.15C182.65 346.15 164.95 289.8 160.02 264.15C154.64 236.2 144.02 169.15 144.02 169.15L167.56 169.13Z" fill="black"/>
<path d="M171.561 118.58C175.721 119.58 180.851 131.02 180.851 131.02L170.941 143.72C170.941 143.72 160.701 129.23 162.071 124.81C163.491 120.2 166.511 117.35 171.561 118.58Z" fill="#263238"/>
<path d="M158 118.059C159.37 118.259 158.1 115.129 157.53 114.799C156.22 114.019 139.53 112.449 139.72 114.209C139.821 115.259 140.272 116.245 141 117.009C141.75 117.509 146 116.129 158 118.059Z" fill="#2A8BE9"/>
<path opacity="0.6" d="M158 118.059C159.37 118.259 158.1 115.129 157.53 114.799C156.22 114.019 139.53 112.449 139.72 114.209C139.821 115.259 140.272 116.245 141 117.009C141.75 117.509 146 116.129 158 118.059Z" fill="white"/>
<path d="M171.561 118.579C171.561 118.579 175.561 119.979 167.561 169.129H133.561C134.131 155.289 134.151 146.749 127.561 118.329C132.321 117.347 137.148 116.712 142.001 116.429C147.144 116.059 152.307 116.059 157.451 116.429C164.001 117.009 171.561 118.579 171.561 118.579Z" fill="#263238"/>
<path d="M133.001 167.14L131.471 170.14C131.351 170.38 131.631 170.62 132.021 170.62H167.701C168.001 170.62 168.261 170.47 168.281 170.27L168.581 167.27C168.581 167.06 168.341 166.88 168.001 166.88H133.581C133.47 166.864 133.357 166.881 133.254 166.927C133.152 166.972 133.064 167.046 133.001 167.14Z" fill="#2A8BE9"/>
<path opacity="0.6" d="M133.001 167.14L131.471 170.14C131.351 170.38 131.631 170.62 132.021 170.62H167.701C168.001 170.62 168.261 170.47 168.281 170.27L168.581 167.27C168.581 167.06 168.341 166.88 168.001 166.88H133.581C133.47 166.864 133.357 166.881 133.254 166.927C133.152 166.972 133.064 167.046 133.001 167.14Z" fill="white"/>
<path d="M137.66 171.01H136.73C136.55 171.01 136.41 170.91 136.42 170.8L136.86 166.8C136.86 166.68 137.03 166.59 137.21 166.59H138.14C138.32 166.59 138.46 166.68 138.45 166.8L138.01 170.8C138 170.89 137.84 171.01 137.66 171.01Z" fill="#2A8BE9"/>
<path d="M160.001 171.01H159.081C158.891 171.01 158.751 170.91 158.771 170.8L159.201 166.8C159.201 166.68 159.371 166.59 159.561 166.59H160.481C160.661 166.59 160.801 166.68 160.791 166.8L160.361 170.8C160.361 170.89 160.201 171.01 160.001 171.01Z" fill="#2A8BE9"/>
<path opacity="0.6" d="M137.66 171.01H136.73C136.55 171.01 136.41 170.91 136.42 170.8L136.86 166.8C136.86 166.68 137.03 166.59 137.21 166.59H138.14C138.32 166.59 138.46 166.68 138.45 166.8L138.01 170.8C138 170.89 137.84 171.01 137.66 171.01Z" fill="black"/>
<path opacity="0.6" d="M160.001 171.01H159.081C158.891 171.01 158.751 170.91 158.771 170.8L159.201 166.8C159.201 166.68 159.371 166.59 159.561 166.59H160.481C160.661 166.59 160.801 166.68 160.791 166.8L160.361 170.8C160.361 170.89 160.201 171.01 160.001 171.01Z" fill="black"/>
<path d="M195.501 344.44L181.161 346.88L179.531 341.47L194.881 338.84L195.501 344.44Z" fill="#2A8BE9"/>
<path d="M338.41 65.2695C330.783 53.0556 319.705 43.3777 306.577 37.4596C293.45 31.5415 278.862 29.649 264.659 32.0213C250.456 34.3935 237.275 40.9241 226.783 50.7873C216.291 60.6504 208.96 73.4032 205.716 87.4329C202.471 101.463 203.46 116.139 208.557 129.607C213.654 143.075 222.63 154.729 234.35 163.096C246.07 171.462 260.007 176.166 274.4 176.612C288.793 177.057 302.995 173.225 315.21 165.599C323.322 160.536 330.357 153.923 335.913 146.141C341.469 138.358 345.438 129.557 347.592 120.24C349.746 110.923 350.044 101.273 348.469 91.8415C346.894 82.4096 343.476 73.3804 338.41 65.2695ZM227.92 134.269C221.904 124.631 218.88 113.425 219.232 102.068C219.584 90.711 223.296 79.7135 229.898 70.4661C236.5 61.2187 245.696 54.1367 256.323 50.1157C266.95 46.0946 278.531 45.3151 289.601 47.8756C300.671 50.4362 310.734 56.2218 318.515 64.5009C326.297 72.7801 331.45 83.1808 333.32 94.3881C335.191 105.595 333.697 117.106 329.026 127.464C324.356 137.822 316.718 146.562 307.08 152.579C300.68 156.575 293.555 159.27 286.113 160.512C278.671 161.753 271.057 161.517 263.706 159.816C256.355 158.114 249.411 154.982 243.271 150.597C237.131 146.212 231.915 140.661 227.92 134.259V134.269Z" fill="#2A8BE9"/>
<path d="M338.41 65.2695C330.783 53.0556 319.705 43.3777 306.577 37.4596C293.45 31.5415 278.862 29.649 264.659 32.0213C250.456 34.3935 237.275 40.9241 226.783 50.7873C216.291 60.6504 208.96 73.4032 205.716 87.4329C202.471 101.463 203.46 116.139 208.557 129.607C213.654 143.075 222.63 154.729 234.35 163.096C246.07 171.462 260.007 176.166 274.4 176.612C288.793 177.057 302.995 173.225 315.21 165.599C323.322 160.536 330.357 153.923 335.913 146.141C341.469 138.358 345.438 129.557 347.592 120.24C349.746 110.923 350.044 101.273 348.469 91.8415C346.894 82.4096 343.476 73.3804 338.41 65.2695ZM227.92 134.269C221.904 124.631 218.88 113.425 219.232 102.068C219.584 90.711 223.296 79.7135 229.898 70.4661C236.5 61.2187 245.696 54.1367 256.323 50.1157C266.95 46.0946 278.531 45.3151 289.601 47.8756C300.671 50.4362 310.734 56.2218 318.515 64.5009C326.297 72.7801 331.45 83.1808 333.32 94.3881C335.191 105.595 333.697 117.106 329.026 127.464C324.356 137.822 316.718 146.562 307.08 152.579C300.68 156.575 293.555 159.27 286.113 160.512C278.671 161.753 271.057 161.517 263.706 159.816C256.355 158.114 249.411 154.982 243.271 150.597C237.131 146.212 231.915 140.661 227.92 134.259V134.269Z" fill="#2A8BE9"/>
<path opacity="0.5" d="M338.41 65.2695C330.783 53.0556 319.705 43.3777 306.577 37.4596C293.45 31.5415 278.862 29.649 264.659 32.0213C250.456 34.3935 237.275 40.9241 226.783 50.7873C216.291 60.6504 208.96 73.4032 205.716 87.4329C202.471 101.463 203.46 116.139 208.557 129.607C213.654 143.075 222.63 154.729 234.35 163.096C246.07 171.462 260.007 176.166 274.4 176.612C288.793 177.057 302.995 173.225 315.21 165.599C323.322 160.536 330.357 153.923 335.913 146.141C341.469 138.358 345.438 129.557 347.592 120.24C349.746 110.923 350.044 101.273 348.469 91.8415C346.894 82.4096 343.476 73.3804 338.41 65.2695ZM227.92 134.269C221.904 124.631 218.88 113.425 219.232 102.068C219.584 90.711 223.296 79.7135 229.898 70.4661C236.5 61.2187 245.696 54.1367 256.323 50.1157C266.95 46.0946 278.531 45.3151 289.601 47.8756C300.671 50.4362 310.734 56.2218 318.515 64.5009C326.297 72.7801 331.45 83.1808 333.32 94.3881C335.191 105.595 333.697 117.106 329.026 127.464C324.356 137.822 316.718 146.562 307.08 152.579C300.68 156.575 293.555 159.27 286.113 160.512C278.671 161.753 271.057 161.517 263.706 159.816C256.355 158.114 249.411 154.982 243.271 150.597C237.131 146.212 231.915 140.661 227.92 134.259V134.269Z" fill="white"/>
<path opacity="0.2" d="M330.2 70.3998C336.81 80.9914 340.131 93.3051 339.743 105.784C339.355 118.263 335.276 130.347 328.022 140.507C320.767 150.668 310.662 158.45 298.985 162.868C287.308 167.286 274.583 168.143 262.419 165.33C250.256 162.517 239.199 156.16 230.647 147.064C222.096 137.967 216.434 126.54 214.377 114.225C212.319 101.911 213.96 89.2633 219.09 77.8812C224.221 66.4991 232.611 56.8939 243.2 50.2798C250.233 45.8869 258.063 42.9226 266.242 41.5562C274.421 40.1899 282.789 40.4483 290.868 42.3167C298.947 44.1851 306.579 47.6269 313.328 52.4455C320.076 57.2641 325.81 63.365 330.2 70.3998Z" fill="#FAFAFA"/>
<path opacity="0.1" d="M339.17 94.8995L241.17 156.08C233.178 150.657 226.538 143.472 221.76 135.08L328.76 68.2695C334.22 76.2337 337.781 85.3438 339.17 94.8995Z" fill="#E6E6E6"/>
</svg>
