<svg xmlns="http://www.w3.org/2000/svg" width="293.517" height="254" viewBox="0 0 293.517 254">
  <g id="Group_160" data-name="Group 160" transform="translate(-1166 -158.07)">
    <path id="Path_257" data-name="Path 257" d="M341.621,20.975c-.33-.22-.663-.428-.994-.641a144.175,144.175,0,0,0-30.45-14.761L307.7,39.782h-15.72V.58c-.99-.2-1.987-.4-2.984-.58V39.782H270.311A38.777,38.777,0,0,1,231.535,1h0c-1,.216-1.995.447-2.988.694V39.782H213.331L210.969,7.162a144.4,144.4,0,0,0-31.068,16.5c-.167.114-.334.231-.5.345q-1.256.882-2.487,1.793v130.5H221.76l-.792-10.977-4.36-60.268h87.81l-4.36,60.268-.792,10.977h44.347V22.295Q342.621,21.624,341.621,20.975ZM228.547,75.112h-12.66L213.547,42.77h15Zm60.446,0H267.73v-.641a2.343,2.343,0,0,0-2.343-2.343h-9.248a2.342,2.342,0,0,0-2.343,2.341v.643H231.535V42.77h57.458Zm2.984,0V42.77h15.5l-2.339,32.343Z" transform="translate(1056.161 158.07)" fill="#ccdff1"/>
    <path id="Path_258" data-name="Path 258" d="M721.7,610.476l.3-6.664a21.519,21.519,0,0,1,10.039-2.541c-4.822,3.942-4.219,11.541-7.488,16.842a12.948,12.948,0,0,1-9.493,5.983l-4.035,2.47a21.7,21.7,0,0,1,4.572-17.579,20.956,20.956,0,0,1,3.851-3.578C720.412,607.956,721.7,610.476,721.7,610.476Z" transform="translate(724.779 -215.222)" fill="#ccdff1"/>
    <path id="Path_259" data-name="Path 259" d="M151.3,575.6l-9.737-2.948a32.826,32.826,0,0,1,.025-15.794c4.01,8.61,15.467,10.582,22.07,17.41a19.744,19.744,0,0,1,5.266,16.283l2.131,6.894A33.086,33.086,0,0,1,146.8,584.068a31.957,31.957,0,0,1-3.838-7.039C147.088,576.56,151.3,575.6,151.3,575.6Z" transform="translate(1078.702 -187.65)" fill="#ccdff1"/>
    <path id="Path_260" data-name="Path 260" d="M326.428,490.152a.774.774,0,0,1-.224.538.755.755,0,0,1-.535.22h-3.049a.756.756,0,0,1-.758-.753V397.962c0-2.032-.682-3.682-1.52-3.685H91.9c-.841,0-1.52,1.653-1.524,3.685v91.625a.76.76,0,0,1-.686.754c-.614.061-1.228.114-1.839.163-.015,0-.03,0-.046,0-.334.03-.668.053-1,.08h0c-.174-.315-.341-.637-.511-.959a.791.791,0,0,1-.084-.353V393.181c0-.561.023-1.126.061-1.684a21.473,21.473,0,0,1,.284-2.283c.641-3.522,2.089-5.907,3.735-5.915H321.954a1.788,1.788,0,0,1,.7.148,2.717,2.717,0,0,1,.86.6,5.334,5.334,0,0,1,.846,1.156,15.232,15.232,0,0,1,1.6,6.04c0,.023,0,.046,0,.068.053.615.08,1.24.076,1.865l.053,8.126.034,4.846.1,15.2.038,5.4Z" transform="translate(1112.479 -79.897)" fill="#ccdff1"/>
    <path id="Path_261" data-name="Path 261" d="M601.009,668.113l-104.554.116a.451.451,0,0,1,0-.9l104.554-.117a.451.451,0,0,1,0,.9Z" transform="translate(858.059 -256.159)" fill="#ccdff1"/>
    <path id="Path_262" data-name="Path 262" d="M398.732,312.262H380.215a.988.988,0,0,0-.987.989V342.5h20.493V313.251a.988.988,0,0,0-.988-.989Zm-9.2,16.621a2.2,2.2,0,0,1-2.187-2.187v-3.374a2.187,2.187,0,0,1,4.374,0V326.7A2.2,2.2,0,0,1,389.535,328.883Z" transform="translate(930.558 -35.794)" fill="#2f2e41"/>
    <path id="Path_263" data-name="Path 263" d="M377.73,191.86H298.574a2.57,2.57,0,0,0-2.565,2.565V247.84a2.569,2.569,0,0,0,2.565,2.566H377.73a2.568,2.568,0,0,0,2.565-2.566V194.425A2.57,2.57,0,0,0,377.73,191.86Z" transform="translate(982.226 38.956)" fill="#3f3d56"/>
    <path id="Path_264" data-name="Path 264" d="M380.1,196.746H302.269a1.375,1.375,0,0,0-1.372,1.375v52.09a1.374,1.374,0,0,0,1.372,1.372H380.1a1.374,1.374,0,0,0,1.372-1.372v-52.09A1.375,1.375,0,0,0,380.1,196.746Z" transform="translate(979.19 35.923)" fill="#fff"/>
    <path id="Path_265" data-name="Path 265" d="M379.06,389.552v2.822a.553.553,0,0,0,.552.552h19.517a.554.554,0,0,0,.552-.552v-2.822Z" transform="translate(930.664 -83.779)" fill="#3f3d56"/>
    <path id="Path_266" data-name="Path 266" d="M392.6,392.663H346.289a.852.852,0,0,1-.834-1.028l.719-3.413a.856.856,0,0,1,.833-.676h44.87a.856.856,0,0,1,.833.676l.719,3.413a.853.853,0,0,1-.833,1.028Z" transform="translate(951.537 -82.534)" fill="#2f2e41"/>
    <rect id="Rectangle_201" data-name="Rectangle 201" width="1.426" height="0.856" rx="0.428" transform="translate(1298.873 305.628)" fill="#3f3d56"/>
    <rect id="Rectangle_202" data-name="Rectangle 202" width="1.426" height="0.856" rx="0.428" transform="translate(1301.728 305.628)" fill="#3f3d56"/>
    <rect id="Rectangle_203" data-name="Rectangle 203" width="1.426" height="0.856" rx="0.428" transform="translate(1304.579 305.628)" fill="#3f3d56"/>
    <rect id="Rectangle_204" data-name="Rectangle 204" width="1.426" height="0.856" rx="0.428" transform="translate(1307.432 305.628)" fill="#3f3d56"/>
    <rect id="Rectangle_205" data-name="Rectangle 205" width="1.426" height="0.856" rx="0.428" transform="translate(1310.283 305.628)" fill="#3f3d56"/>
    <rect id="Rectangle_206" data-name="Rectangle 206" width="1.426" height="0.856" rx="0.428" transform="translate(1313.136 305.628)" fill="#3f3d56"/>
    <rect id="Rectangle_207" data-name="Rectangle 207" width="1.426" height="0.856" rx="0.428" transform="translate(1315.989 305.628)" fill="#3f3d56"/>
    <rect id="Rectangle_208" data-name="Rectangle 208" width="1.426" height="0.856" rx="0.428" transform="translate(1318.841 305.628)" fill="#3f3d56"/>
    <rect id="Rectangle_209" data-name="Rectangle 209" width="1.426" height="0.856" rx="0.428" transform="translate(1321.692 305.628)" fill="#3f3d56"/>
    <path id="Rectangle_210" data-name="Rectangle 210" d="M.428,0H1a.428.428,0,0,1,.428.428v0A.428.428,0,0,1,1,.856H.427A.427.427,0,0,1,0,.429v0A.428.428,0,0,1,.428,0Z" transform="translate(1324.545 305.628)" fill="#3f3d56"/>
    <rect id="Rectangle_211" data-name="Rectangle 211" width="1.426" height="0.856" rx="0.428" transform="translate(1327.396 305.628)" fill="#3f3d56"/>
    <rect id="Rectangle_212" data-name="Rectangle 212" width="1.426" height="0.856" rx="0.428" transform="translate(1330.249 305.628)" fill="#3f3d56"/>
    <rect id="Rectangle_213" data-name="Rectangle 213" width="1.426" height="0.856" rx="0.428" transform="translate(1333.102 305.628)" fill="#3f3d56"/>
    <rect id="Rectangle_214" data-name="Rectangle 214" width="1.426" height="0.856" rx="0.428" transform="translate(1335.953 305.628)" fill="#3f3d56"/>
    <rect id="Rectangle_215" data-name="Rectangle 215" width="1.426" height="0.856" rx="0.428" transform="translate(1338.809 305.628)" fill="#3f3d56"/>
    <rect id="Rectangle_216" data-name="Rectangle 216" width="1.426" height="0.856" rx="0.428" transform="translate(1341.66 305.628)" fill="#3f3d56"/>
    <rect id="Rectangle_217" data-name="Rectangle 217" width="1.426" height="0.856" rx="0.428" transform="translate(1298.838 307.054)" fill="#3f3d56"/>
    <rect id="Rectangle_218" data-name="Rectangle 218" width="1.426" height="0.856" rx="0.428" transform="translate(1301.69 307.054)" fill="#3f3d56"/>
    <rect id="Rectangle_219" data-name="Rectangle 219" width="1.426" height="0.856" rx="0.428" transform="translate(1304.543 307.054)" fill="#3f3d56"/>
    <rect id="Rectangle_220" data-name="Rectangle 220" width="1.426" height="0.856" rx="0.428" transform="translate(1307.396 307.054)" fill="#3f3d56"/>
    <rect id="Rectangle_221" data-name="Rectangle 221" width="1.426" height="0.856" rx="0.428" transform="translate(1310.251 307.054)" fill="#3f3d56"/>
    <path id="Rectangle_222" data-name="Rectangle 222" d="M.428,0H1a.427.427,0,0,1,.427.427v0A.428.428,0,0,1,1,.856H.428A.428.428,0,0,1,0,.428v0A.428.428,0,0,1,.428,0Z" transform="translate(1313.104 307.054)" fill="#3f3d56"/>
    <rect id="Rectangle_223" data-name="Rectangle 223" width="1.426" height="0.856" rx="0.428" transform="translate(1315.955 307.054)" fill="#3f3d56"/>
    <path id="Rectangle_224" data-name="Rectangle 224" d="M.427,0H1a.428.428,0,0,1,.428.428v0A.428.428,0,0,1,1,.856H.428A.428.428,0,0,1,0,.428v0A.427.427,0,0,1,.427,0Z" transform="translate(1318.808 307.054)" fill="#3f3d56"/>
    <rect id="Rectangle_225" data-name="Rectangle 225" width="1.426" height="0.856" rx="0.428" transform="translate(1321.66 307.054)" fill="#3f3d56"/>
    <rect id="Rectangle_226" data-name="Rectangle 226" width="1.426" height="0.856" rx="0.428" transform="translate(1324.511 307.054)" fill="#3f3d56"/>
    <rect id="Rectangle_227" data-name="Rectangle 227" width="1.426" height="0.856" rx="0.428" transform="translate(1327.364 307.054)" fill="#3f3d56"/>
    <rect id="Rectangle_228" data-name="Rectangle 228" width="1.426" height="0.856" rx="0.428" transform="translate(1330.215 307.054)" fill="#3f3d56"/>
    <path id="Rectangle_229" data-name="Rectangle 229" d="M.428,0H1a.427.427,0,0,1,.427.427v0A.428.428,0,0,1,1,.856H.428A.428.428,0,0,1,0,.428v0A.428.428,0,0,1,.428,0Z" transform="translate(1333.068 307.054)" fill="#3f3d56"/>
    <rect id="Rectangle_230" data-name="Rectangle 230" width="1.426" height="0.856" rx="0.428" transform="translate(1335.919 307.054)" fill="#3f3d56"/>
    <path id="Rectangle_231" data-name="Rectangle 231" d="M.428,0H1a.427.427,0,0,1,.427.427v0A.428.428,0,0,1,1,.856H.428A.428.428,0,0,1,0,.428v0A.428.428,0,0,1,.428,0Z" transform="translate(1338.771 307.054)" fill="#3f3d56"/>
    <rect id="Rectangle_232" data-name="Rectangle 232" width="1.426" height="0.856" rx="0.428" transform="translate(1341.624 307.054)" fill="#3f3d56"/>
    <rect id="Rectangle_233" data-name="Rectangle 233" width="11.41" height="0.856" rx="0.428" transform="translate(1312.53 308.765)" fill="#3f3d56"/>
    <path id="Path_267" data-name="Path 267" d="M379.765,214.726H306.937a.29.29,0,0,1,0-.579h72.828a.29.29,0,0,1,0,.579Z" transform="translate(975.617 25.119)" fill="#cacaca"/>
    <path id="Path_268" data-name="Path 268" d="M317.7,201.1a1.736,1.736,0,1,1-1.7,1.735A1.716,1.716,0,0,1,317.7,201.1Z" transform="translate(969.814 33.223)" fill="#3f3d56"/>
    <path id="Path_269" data-name="Path 269" d="M333.161,201.1a1.736,1.736,0,1,1-1.7,1.735A1.717,1.717,0,0,1,333.161,201.1Z" transform="translate(960.214 33.223)" fill="#3f3d56"/>
    <path id="Path_270" data-name="Path 270" d="M348.625,201.1a1.736,1.736,0,1,1-1.7,1.735A1.717,1.717,0,0,1,348.625,201.1Z" transform="translate(950.611 33.223)" fill="#3f3d56"/>
    <path id="Path_271" data-name="Path 271" d="M482.841,202.23h-4.165a.315.315,0,0,0,0,.631h4.165a.315.315,0,0,0,0-.631Z" transform="translate(869.012 32.518)" fill="#3f3d56"/>
    <path id="Path_272" data-name="Path 272" d="M482.841,205.351h-4.165a.316.316,0,0,0,0,.631h4.165a.316.316,0,0,0,0-.631Z" transform="translate(869.012 30.58)" fill="#3f3d56"/>
    <path id="Path_273" data-name="Path 273" d="M482.841,208.47h-4.165a.315.315,0,0,0,0,.631h4.165a.315.315,0,0,0,0-.631Z" transform="translate(869.012 28.644)" fill="#3f3d56"/>
    <path id="Path_274" data-name="Path 274" d="M392.755,260.3h9.1a1.237,1.237,0,0,1,1.238,1.238h0a1.237,1.237,0,0,1-1.238,1.238h-9.1a1.238,1.238,0,0,1-1.238-1.238h0A1.238,1.238,0,0,1,392.755,260.3Z" transform="translate(922.932 -3.534)" fill="#2b8be9"/>
    <path id="Path_275" data-name="Path 275" d="M377.251,273.356h20.858a1.238,1.238,0,0,1,1.238,1.238h0a1.238,1.238,0,0,1-1.238,1.238H377.251a1.238,1.238,0,0,1-1.238-1.238h0A1.238,1.238,0,0,1,377.251,273.356Z" transform="translate(932.555 -11.64)" fill="#e6e6e6"/>
    <path id="Path_276" data-name="Path 276" d="M377.251,286.413h20.858a1.237,1.237,0,0,1,1.238,1.238h0a1.237,1.237,0,0,1-1.238,1.238H377.251a1.238,1.238,0,0,1-1.238-1.238h0A1.238,1.238,0,0,1,377.251,286.413Z" transform="translate(932.555 -19.746)" fill="#e6e6e6"/>
    <path id="Path_277" data-name="Path 277" d="M267.059,410.86h-22.75a3.033,3.033,0,1,0,0,6.067h8.342v23.508h6.067V416.927h8.342a3.033,3.033,0,0,0,0-6.067Z" transform="translate(1016.204 -97.008)" fill="#3f3d56"/>
    <path id="Path_278" data-name="Path 278" d="M166.232,357.433h-60.85a24.572,24.572,0,0,1-24.235-21.095l-2.154-7.923a177.85,177.85,0,0,0-20.164-46.6c-4.075-6.618-6.172-13.024-1.409-19.192l.12-.155c3.821-4.973,22.838-6.05,29.038-6.259.245-.009.491-.013.737-.013h37.848q.371,0,.737.013a18.519,18.519,0,0,1,16.014,10.207,19.084,19.084,0,0,1-1.082,19.539c-13.295,19.971-17.365,32.493-13.2,40.6,4.031,7.844,16.388,11.854,38.886,12.62,6.046.206,8.821,4.914,8.841,9.2.019,4.176-2.649,8.787-8.551,9.042C166.619,357.43,166.426,357.433,166.232,357.433Z" transform="translate(1132.048 -0.987)" fill="#3f3d56"/>
    <path id="Path_279" data-name="Path 279" d="M210.69,571.951h22.75a3.033,3.033,0,1,0,0-6.067H225.1V514.7h-6.067v51.187H210.69a3.033,3.033,0,1,0,0,6.067Z" transform="translate(1037.075 -161.473)" fill="#3f3d56"/>
    <path id="Path_280" data-name="Path 280" d="M171.908,241.627l.477,2.9c.226,1.405,1.043,11.331.437,12.516-.053-2.211-4.171-5.687-6.839-4.894l-4.187.93-2.6.578-2.115.464-6.146,1.343c-.011-.071-.019-.147-.03-.218-.014-.09-.029-.18-.047-.269a5.336,5.336,0,0,0-.618-1.638,4.086,4.086,0,0,1-.585,1.927.3.3,0,0,0-.025.047,4.765,4.765,0,0,1-.361.507.088.088,0,0,0-.016.015s-1.263-20.13-1.13-20.316c.1-.132.195-.26.3-.386s.2-.254.305-.38a.166.166,0,0,0,.034-.042q.445-.526.94-1.005c.1-.093.2-.187.3-.281a14,14,0,0,1,5.376-3.1c.226-.07.46-.133.7-.2s.475-.117.717-.166l.082-.017c.115-.024.235-.044.351-.064.145-.026.292-.048.435-.066a14.118,14.118,0,0,1,5.579.314s0,0,.008,0a14.39,14.39,0,0,1,4.275,1.9c2.269,1.5,3.152,3.941,3.779,6.685C171.521,239.659,171.706,240.639,171.908,241.627Z" transform="translate(1074.043 15.483)" fill="#2f2e41"/>
    <path id="Path_281" data-name="Path 281" d="M269.963,586.125l3.919,2.129,10.375-14.344-5.784-3.142Z" transform="translate(998.395 -196.284)" fill="#ffb6b6"/>
    <path id="Path_282" data-name="Path 282" d="M266.953,597.791l7.115,2.228L272.936,603l4.878,7.081a1.992,1.992,0,0,1-2.347,2.992l-8.282-3.147-.307-3.491-1.677,2.736-3.123-1.186Z" transform="translate(1003.288 -213.061)" fill="#2f2e41"/>
    <path id="Path_283" data-name="Path 283" d="M264.874,407.071a4.4,4.4,0,0,1-5.437-4l-33.427-12.026,6.134-5.339,31.728,12.633a4.428,4.428,0,0,1,1,8.736Z" transform="translate(1025.684 -81.389)" fill="#ffb6b6"/>
    <path id="Path_284" data-name="Path 284" d="M191.317,321.209s-5.63.124-6.131,6.551,11.784,22.326,13.687,24.948,23.044,5.849,23.044,5.849l7.187-5.217c-7.551-4.893-14.443-8.645-19.068-8.476Z" transform="translate(1051.036 -41.349)" fill="#2b8be9"/>
    <path id="Path_285" data-name="Path 285" d="M183.169,389.36l1.372,5.895s.013,5.435.976,6.437,21.974-1.005,21.974-1.005-2.229-8.759-2.2-15.386Z" transform="translate(1052.279 -81.14)" fill="#ffb6b6"/>
    <path id="Path_286" data-name="Path 286" d="M227.6,484.886l-7.583-4.171c-.144-9.868,5.791-23.221,12.831-37.208-15.744,2.708-30.6,3.575-43.444.3a8.3,8.3,0,0,1-5.939-10.032q.075-.312.173-.617c1.538-4.691-1.91-7.632,1.261-12.791,8.34-2.848,16.263-3.652,23.508-1.137l4.54,10.037,22.5-2.912a8.3,8.3,0,0,1,9.223,7.253l.007.062q.046.366.06.736C240.192,455.734,235.091,474.926,227.6,484.886Z" transform="translate(1052.247 -101.267)" fill="#2f2e41"/>
    <path id="Path_287" data-name="Path 287" d="M163.656,239.66a9.405,9.405,0,1,1-7.329,11.1A9.405,9.405,0,0,1,163.656,239.66Z" transform="translate(1069.063 9.399)" fill="#ffb6b6"/>
    <path id="Path_288" data-name="Path 288" d="M166.838,296.741l8.668-.512a1.76,1.76,0,0,1,1.73,1.086l2.449,5.938,10.181,8.414a21.112,21.112,0,0,1,4.04,11.754c.009,6.624,1.43,21.957,1.43,21.957s-5.882-8.28-9.514-6.078c-.618.375-.835,1.141-1.482,1.528-.323.193-1.068.005-1.394.2-5,2.97-10.221,5.872-10.709,5.363-.957-1-2.118-6.1-2.118-6.1l-7.934-29.153a10.8,10.8,0,0,1,1.535-9.086,3.264,3.264,0,0,1,1.675-1.457C166.607,300.334,165.962,297.617,166.838,296.741Z" transform="translate(1065.555 -25.838)" fill="#2b8be9"/>
    <path id="Path_289" data-name="Path 289" d="M353.16,614.069l3.659-2.544-8.289-15.638-5.4,3.755Z" transform="translate(952.97 -211.879)" fill="#ffb6b6"/>
    <path id="Path_290" data-name="Path 290" d="M258.314,497.5l-5.734,5.126c-9.118-10.16-16.011-24.409-21.852-40.59a97.748,97.748,0,0,1-36.924-20.3c-3.418-2.892-5.981-6.608-3.066-10.132q.2-.247.427-.478c3.442-3.538,12.172-2.864,17.284-6.1l11.421,12.208-.719,3.273,21.452,7.267a8.285,8.285,0,0,1,5.079,10.559c-.007.022-.015.043-.022.064q-.121.349-.27.687Z" transform="translate(1048.369 -105.8)" fill="#2f2e41"/>
    <path id="Path_291" data-name="Path 291" d="M363.956,633.568l5.857-4.612,1.82,2.618,8.6-.026a1.992,1.992,0,0,1,1.143,3.627l-7.275,5.057-3.054-1.718,1.31,2.93-2.743,1.907Z" transform="translate(940.04 -232.409)" fill="#2f2e41"/>
    <path id="Path_292" data-name="Path 292" d="M173.519,431.278a4.405,4.405,0,0,1-1.968-6.46l-19.623-29.613,8.108-.616,17.9,29.084a4.428,4.428,0,0,1-4.415,7.6Z" transform="translate(1071.674 -86.906)" fill="#ffb6b6"/>
    <path id="Path_293" data-name="Path 293" d="M158.227,316.733s-4.589-3.263-8.83,1.592-3.887,24.944-3.927,28.183c-.013,1.014,1.452,3.2,3.47,5.731.906,1.135,1.923,2.339,2.969,3.535.6.692.083,2.133.691,2.806s2.337.571,2.912,1.192c2.728,2.948,4.944,5.192,4.944,5.192l8.88.109c.1-6.6-4.42-12.493-10.228-18.188Z" transform="translate(1075.684 -37.904)" fill="#2b8be9"/>
    <path id="Path_294" data-name="Path 294" d="M167.14,238.459c-.348.172-.686.337-1.017.494a31.578,31.578,0,0,1-4.116,1.674,5.186,5.186,0,0,0-1.053-1.724,4.122,4.122,0,0,1-.175,2.06,11.641,11.641,0,0,1-6.46-.249c1.364,2.527,2.373,7.851,2.3,12.6a17.591,17.591,0,0,1-1.114,6.548l-.953-2.9a18.1,18.1,0,0,0-.531-3.069c-.64-2.822-1.236-.935-2.115.464l-6.146,1.343c-.011-.071-.019-.147-.03-.218-.014-.09-.029-.18-.047-.269a5.336,5.336,0,0,0-.618-1.638,4.086,4.086,0,0,1-.585,1.927.3.3,0,0,0-.025.047,4.765,4.765,0,0,1-.361.507.088.088,0,0,0-.016.015c-3.968.531-6.749-19.931-1.129-20.312.163-.011.194-.26.3-.39s.2-.254.305-.38a.158.158,0,0,0,.034-.042c.3-.348.611-.682.94-1.005.1-.093.2-.187.3-.281a14.219,14.219,0,0,1,5.377-3.1c.226-.069.459-.136.7-.2s.475-.117.717-.166l.082-.017c.115-.024.235-.044.351-.064.145-.026.292-.048.435-.066a3.562,3.562,0,0,1,1.339,1.174l3.927-.8q.156-.032.314-.052l.007,0C162.971,229.544,166.122,233.485,167.14,238.459Z" transform="translate(1079.221 15.247)" fill="#2f2e41"/>
    <path id="Path_295" data-name="Path 295" d="M146.785,231.134a6.529,6.529,0,0,1-2.751,1.382,2.238,2.238,0,0,1-2.511-1.343c-.347-1.219.754-2.33,1.743-3.122l3.138-2.513a7.6,7.6,0,0,1,1.924-1.244,2.564,2.564,0,0,1,2.22.074,2.384,2.384,0,0,1,1.048,2.076,4.427,4.427,0,0,1-.777,2.273,7.994,7.994,0,0,1-5.191,3.529" transform="translate(1078.176 18.954)" fill="#2f2e41"/>
    <path id="Path_296" data-name="Path 296" d="M176.059,414.86h-22.75a3.033,3.033,0,0,0,0,6.067h8.342v23.508h6.067V420.927h8.342a3.033,3.033,0,0,0,0-6.067Z" transform="translate(1072.702 -99.491)" fill="#3f3d56"/>
    <path id="Path_297" data-name="Path 297" d="M166.812,667.113.455,667.229a.451.451,0,0,1,0-.9l166.357-.117a.451.451,0,0,1,0,.9Z" transform="translate(1165.994 -255.539)" fill="#ccdff1"/>
    <path id="Path_298" data-name="Path 298" d="M567.621,512.386l3.7,4.036,17.329-12.364-5.466-5.957Z" transform="translate(813.6 -151.17)" fill="#a0616a"/>
    <path id="Path_299" data-name="Path 299" d="M567.336,537.821v0l-.375-4.031-.171-.08-1-.474-4.706-2.226-.1-.106-.945-1.031-5.229,4.8,7.083,7.72,4.857,5.293.163-.152a6.867,6.867,0,0,0,.424-9.7l-.007-.008Z" transform="translate(821.547 -170.893)" fill="#2f2e41"/>
    <path id="Path_300" data-name="Path 300" d="M517.017,608.859l5.241,1.592,8.635-19.458-7.735-2.35Z" transform="translate(845.016 -207.382)" fill="#a0616a"/>
    <path id="Path_301" data-name="Path 301" d="M525.875,642.616a6.809,6.809,0,0,0-4.065-3.337L519.433,636l-.186.015-6.282.576-.14-.042-1.335-.406-2.062,6.791,16.9,5.134.064-.216A6.845,6.845,0,0,0,525.875,642.616Z" transform="translate(849.726 -236.783)" fill="#2f2e41"/>
    <path id="b2eb929e-713e-4b71-a146-193a455bcc79-27" d="M564.849,373.268s33.462,32.307,12.308,42.308h-6.538a43.312,43.312,0,0,0-6.463-12.867c-.618-.808-2.932-.644-3.575-1.432-3.924-4.811-8.178-8.942-11.116-8.778l.7,22.322,1.138,7.962c.6,4.116-16.259,40.056-16.259,40.056l-10.6-4.164s11.039-29.6,11.168-33.869l-8.846-46.923Z" transform="translate(840.401 -73.669)" fill="#2f2e41"/>
    <path id="Path_302" data-name="Path 302" d="M566.339,262.789a2,2,0,0,1-.652.591,4.61,4.61,0,0,1-1.369.508c-7.534,1.71-32.145,5.255-38.534,3.564-.785-.2-1.3-.493-1.463-.872-.535-1.2-.466-6.26-.152-12.372.057-1.145,1.319-2.385,1.395-3.583.053-.9-1.08-1.744-1.019-2.658.417-6.18.955-12.478,1.316-16.459.227-2.559.383-4.159.383-4.159l-3.886-24.505.182-.3.2-.1,12.531-6.2.682-1.744a2.7,2.7,0,0,1,2.5-1.71l8.255-.034a2.689,2.689,0,0,1,2.2,1.115l2.237,3.1,14.787,9.479-.057.174-6.939,21.116-.034,1.646v0l-.257,13.233.716,1.793-.808,2.942a13.368,13.368,0,0,0,2.363,5.995c1.8,2.32,4.1,4.74,5.141,6.7v0C566.631,261.136,566.825,262.076,566.339,262.789Z" transform="translate(841.701 38.404)" fill="#2b8be9"/>
    <path id="e9cec503-1de8-4692-84d1-4d2e854ea0bd-28" d="M622.351,470.767l-1.789,2.26s-16.449,11.508-17.015,12.584l-2.6,2.46-6.29-6.724,3.271-4.1a25.676,25.676,0,0,1,9.851-7.542h0l5.013-4.448Z" transform="translate(796.812 -130.78)" fill="#2f2e41"/>
    <path id="Path_303" data-name="Path 303" d="M633.93,325.1l-3-28.995-.79-11.933,8.384-1.516s-.332,8.533.766,13.347c1.084,4.751.144,28.461.077,29.095a4.082,4.082,0,1,1-5.441,0Z" transform="translate(774.78 -17.416)" fill="#a0616a"/>
    <path id="Path_304" data-name="Path 304" d="M631.962,262l-10.777,2.231-.942-3.757-1.1-1.165-2.2-11.5L613.8,241.08l.818-23.032,8,4.242.009.008c1.224,1.328,2.066,3.228,3.469,5.135,4.417,6.009,4.907,20.611,4.773,28.609,0,.132.13.27.289.416a4.433,4.433,0,0,1,.8,5.545Z" transform="translate(784.927 22.697)" fill="#2b8be9"/>
    <path id="Path_305" data-name="Path 305" d="M500.288,328.1l3-28.995.791-11.933-8.384-1.516s.332,8.533-.766,13.347c-1.084,4.751-.144,28.461-.077,29.095a4.081,4.081,0,1,0,5.441,0Z" transform="translate(859.622 -19.278)" fill="#a0616a"/>
    <path id="Path_306" data-name="Path 306" d="M506.983,242.379l-2.336,5-.816,1.74-2.2,11.5-1.1,1.164-.945,3.757-.444-.091-8-1.657-2.332-.482a4.433,4.433,0,0,1,.8-5.547c.159-.144.292-.284.288-.417-.132-8,.357-22.6,4.774-28.608,1.4-1.907,2.245-3.807,3.469-5.134,0,0,0-.008.008-.008l2.98-4.88.182-.3.2-.1Z" transform="translate(862.909 22.535)" fill="#2b8be9"/>
    <path id="e944ea38-edcc-43c9-bf24-dbaf21228ba4" d="M557.09,128.621A10.983,10.983,0,1,1,546.107,139.6,10.983,10.983,0,0,1,557.09,128.621Z" transform="translate(826.954 78.217)" fill="#a0616a"/>
    <path id="Path_307" data-name="Path 307" d="M562.749,126.244a11.266,11.266,0,0,0-1.562-6.18c-1.107-1.608-3.341-2.882-5.422-2.245a2.255,2.255,0,0,0-1.122-2.078,5.922,5.922,0,0,0-2.575-.648,23.035,23.035,0,0,0-6.439,0,7.848,7.848,0,0,0-5.384,3.394l-.023.053-.208,1.009a.959.959,0,0,1-.474.645.943.943,0,0,1-.8.057.868.868,0,0,0-1.164.94l.057.4-.6-.114a.866.866,0,0,0-.975,1.156l.167.459a.928.928,0,0,0-.664.292.847.847,0,0,0-.114.993,7.887,7.887,0,0,0,2.783,2.8,6.554,6.554,0,0,0,1.657.709c.121.034.246.064.375.091a39.084,39.084,0,0,0,14.162.425,8.006,8.006,0,0,0-.315,2.866,3.01,3.01,0,0,0,1.808,2.54,3.805,3.805,0,0,0,.66.159,4.039,4.039,0,0,1,.633.155,1.844,1.844,0,0,1,.538,3.155s.993.823,1.119.781a2.551,2.551,0,0,0,1.168-1.039C561.926,134.3,562.84,130.677,562.749,126.244Z" transform="translate(833.643 86.759)" fill="#2f2e41"/>
  </g>
</svg>
