<svg width="400" height="376" viewBox="0 0 400 376" fill="none" xmlns="http://www.w3.org/2000/svg">
    <path
        d="M377.123 19.3704C377.601 15.8938 372.699 13.0343 369.014 12.7388C367.276 12.5997 365.425 12.8605 363.799 12.2868C360.192 11.0266 358.749 6.36791 355.229 4.88167C352.622 3.76916 349.571 4.75999 347.016 6.04633C344.461 7.33267 341.914 8.94059 339.107 9.09704C336.63 9.26218 333.935 8.34088 331.762 9.549C330.146 10.4181 329.303 12.3129 327.816 13.4167C326.251 14.3899 324.436 14.8853 322.593 14.8421C320.778 14.7951 318.971 15.0899 317.265 15.7113C315.622 16.4674 314.258 18.2057 314.605 19.9875L377.123 19.3704Z"
        fill="#EAEAEA" />
    <path
        d="M124.696 23.4212C125.443 17.9804 117.743 13.5129 112.006 13.0436C109.251 12.8263 106.4 13.2435 103.793 12.3396C98.152 10.3666 95.8922 3.07445 90.3905 0.753823C86.2707 -0.984476 81.5339 0.56261 77.5445 2.57035C73.5551 4.57808 69.6091 7.1073 65.1417 7.35936C61.2653 7.61141 57.0586 6.16862 53.6602 8.06337C51.131 9.48008 49.8099 12.4091 47.4806 14.1474C45.1513 15.8857 42.2657 16.1812 39.3975 16.3377C36.5293 16.4941 33.635 16.5202 31.0624 17.7022C28.4897 18.8843 26.3516 21.6047 26.8904 24.386L124.696 23.4212Z"
        fill="#F5F5F5" />
    <path
        d="M324.331 54.294C325.061 48.9835 317.569 44.6117 311.937 44.1597C309.251 43.9425 306.47 44.351 303.923 43.4644C298.413 41.5436 296.205 34.4253 290.834 32.1655C286.81 30.4272 282.186 31.983 278.283 33.9038C274.381 35.8246 270.53 38.3364 266.176 38.6146C262.395 38.8579 258.275 37.4586 254.964 39.3012C252.496 40.6832 251.201 43.5253 248.88 45.2114C246.559 46.8976 243.752 47.2018 240.988 47.3495C238.224 47.4973 235.365 47.5234 232.844 48.6793C230.324 49.8353 228.246 52.4949 228.768 55.2066L324.331 54.294Z"
        fill="#F5F5F5" />
    <path
        d="M314.414 373.611C296.066 365.145 288.574 344.668 285.81 325.547C285.341 322.348 284.393 319.072 285.401 315.986C286.41 312.901 289.591 310.397 292.676 311.223C295.232 311.91 296.753 314.474 298.474 316.499C300.769 319.203 303.782 321.204 307.165 322.27C309.373 322.957 311.989 323.139 313.788 321.688C316.248 319.689 315.891 315.856 315.309 312.701C314.214 306.825 313.122 300.95 312.032 295.074C311.441 291.928 310.859 288.703 311.302 285.514C311.745 282.324 313.414 279.178 316.265 277.796C319.116 276.414 323.14 277.483 324.331 280.455C324.679 281.74 324.944 283.047 325.122 284.366C325.443 285.661 326.312 286.974 327.625 287.139C328.937 287.304 330.05 286.166 330.832 285.07C333.518 281.298 334.986 276.805 336.325 272.346C337.663 267.887 338.932 263.359 341.244 259.352C343.556 255.346 347.163 251.86 351.674 250.791C356.185 249.722 361.461 251.66 363.399 255.884C365.337 260.108 363.555 265.106 361.383 269.208C358.149 275.305 354.05 280.903 349.214 285.827C348.242 286.614 347.547 287.692 347.233 288.903C346.929 291.128 349.293 292.858 351.5 293.18C353.986 293.536 356.498 292.841 359.01 292.684C361.522 292.528 364.381 293.136 365.728 295.292C367.606 298.282 365.511 302.149 363.26 304.852C358.74 310.244 353.324 314.816 347.25 318.368C345.077 319.636 342.774 320.819 341.166 322.783C339.558 324.747 338.967 327.789 340.497 329.806C342.027 331.822 345.06 332.022 347.407 331.135C349.753 330.249 351.7 328.528 353.856 327.25C357.897 324.834 363.555 324.121 367.006 327.372C369.274 329.51 370.048 332.908 369.613 336.011C369.086 339.107 367.936 342.064 366.232 344.703C360.748 354.107 353.03 362.268 343.635 367.561C334.239 372.855 325.052 375.471 314.396 373.645"
        fill="#EAEAEA" />
    <path
        d="M317.187 360.816C318.485 349.898 320.406 339.062 322.94 328.362C323.601 325.511 324.25 322.701 324.887 319.932C325.539 317.168 326.174 314.421 326.964 311.779C328.498 306.706 330.308 301.721 332.388 296.847C334.344 292.18 336.36 287.825 338.281 283.766C340.202 279.707 342.088 275.944 343.939 272.624C346.847 267.33 350.172 262.275 353.882 257.509C355.186 255.823 356.246 254.554 356.967 253.694L357.837 252.729C357.924 252.615 358.023 252.51 358.132 252.416C358.058 252.542 357.974 252.661 357.88 252.772L357.098 253.772C356.403 254.641 355.36 255.945 354.099 257.657C350.463 262.46 347.195 267.529 344.321 272.824C342.496 276.17 340.654 279.925 338.741 283.984C336.829 288.042 334.839 292.406 332.901 297.064C330.848 301.925 329.058 306.892 327.538 311.944C326.756 314.552 326.121 317.298 325.478 320.071C324.835 322.843 324.192 325.651 323.54 328.493C321.004 339.171 319.068 349.982 317.743 360.877"
        fill="#E0E0E0" />
    <path
        d="M327.13 311.727C326.903 311.315 326.719 310.881 326.582 310.432C326.261 309.563 325.835 308.363 325.331 306.825C324.314 303.766 323.071 299.489 321.706 294.77C320.342 290.05 319.038 285.8 317.986 282.767C317.465 281.246 317.022 280.02 316.717 279.177C316.527 278.748 316.385 278.299 316.292 277.839C316.548 278.232 316.761 278.651 316.926 279.09C317.3 279.907 317.795 281.116 318.377 282.619C319.533 285.635 320.907 289.877 322.271 294.605C323.636 299.333 324.809 303.479 325.748 306.703L326.826 310.362C326.977 310.805 327.079 311.262 327.13 311.727Z"
        fill="#E0E0E0" />
    <path
        d="M366.337 296.864C365.825 297.07 365.295 297.23 364.755 297.342C363.73 297.629 362.243 298.02 360.409 298.568C356.768 299.637 351.787 301.288 346.373 303.357C340.958 305.425 336.134 307.511 332.692 309.119C330.954 309.91 329.581 310.588 328.625 311.049C328.142 311.319 327.636 311.546 327.112 311.727C327.555 311.396 328.026 311.105 328.52 310.858C329.45 310.327 330.806 309.589 332.51 308.746C335.917 307.007 340.732 304.887 346.155 302.801C350.786 301.017 355.506 299.474 360.296 298.177C362.139 297.673 363.643 297.308 364.686 297.125C365.226 296.984 365.779 296.897 366.337 296.864Z"
        fill="#E0E0E0" />
    <path
        d="M317.551 359.981C317.411 359.85 317.288 359.701 317.186 359.538L316.222 358.191C315.396 357.017 314.249 355.296 312.849 353.149C310.059 348.804 306.392 342.798 302.42 336.062C298.448 329.326 294.867 323.233 292.172 318.888L288.956 313.751C288.609 313.186 288.322 312.725 288.087 312.343C287.971 312.187 287.88 312.014 287.818 311.83C287.958 311.961 288.081 312.11 288.183 312.273L289.139 313.621C290.008 314.785 291.112 316.515 292.511 318.662C295.301 322.955 298.969 329.013 302.941 335.758C306.913 342.502 310.503 348.569 313.206 352.923L316.413 358.06L317.282 359.468C317.396 359.625 317.487 359.798 317.551 359.981Z"
        fill="#E0E0E0" />
    <path
        d="M368.345 332.926C368.194 333.054 368.028 333.162 367.849 333.247L366.372 334.047L360.94 336.959C356.351 339.41 350.049 342.878 343.087 346.719C336.125 350.561 329.789 353.968 325.148 356.323C322.827 357.505 320.933 358.444 319.62 359.061L318.099 359.774C317.927 359.868 317.743 359.939 317.552 359.982C317.7 359.852 317.867 359.743 318.047 359.661L319.516 358.861L324.957 355.95C329.546 353.499 335.847 350.031 342.809 346.189C349.771 342.347 356.099 338.94 360.74 336.628C363.069 335.446 364.955 334.508 366.268 333.891L367.789 333.178C367.963 333.072 368.15 332.988 368.345 332.926Z"
        fill="#E0E0E0" />
    <path
        d="M395.393 155.462L378.714 141.756L378.618 149.17L332.092 148.587L331.936 160.764L378.47 161.338L378.383 168.482L395.393 155.462Z"
        fill="#EAEAEA" />
    <path
        d="M370.595 175.166L359.827 166.327L359.766 171.107L329.728 170.734L329.632 178.591L359.67 178.965L359.609 183.58L370.595 175.166Z"
        fill="#EAEAEA" />
    <path
        d="M16.7477 64.7669C16.7477 64.7669 7.04795 67.7828 16.2088 88.6077C25.3696 109.432 31.9404 119.897 31.9404 119.897C31.9404 119.897 33.4962 124.695 29.5068 125.199C25.5174 125.703 16.8867 123.817 14.8442 128.545C12.7322 133.386 16.1045 138.358 23.2489 142.947C30.3933 147.536 45.699 158.114 47.0723 159.078C48.4455 160.043 49.6797 162.285 47.0723 163.068C44.4648 163.85 24.7091 164.763 25.7086 174.08C26.7081 183.397 48.715 192.88 51.0964 193.957C53.4779 195.035 54.0081 196.113 53.7039 197.434C53.3997 198.755 46.7507 198.442 41.1881 198.929C35.6256 199.416 29.1939 200.971 30.2195 206.299C31.2451 211.627 43.926 223.43 76.0845 228.463L91.1469 229.862L100.09 217.555C117.621 190.133 117.187 172.811 113.866 168.517C110.546 164.224 105.175 167.987 101.09 171.855C97.0049 175.723 92.8504 180.903 91.6683 180.233C90.4863 179.564 90.043 178.495 90.7992 175.957C91.5554 173.419 99.0561 150.682 92.7287 143.799C86.4013 136.915 72.6774 151.03 70.322 152.49C67.9666 153.95 67.1236 151.517 67.3148 149.883C67.506 148.249 69.6962 129.727 71 121.34C72.3037 112.953 70.8435 107.155 65.7851 105.487C60.8918 103.879 56.5895 111.571 53.5648 114.248C50.5402 116.925 47.9414 112.527 47.9414 112.527C47.9414 112.527 44.4648 100.698 34.9476 80.0465C25.4305 59.3956 16.5391 64.8364 16.5391 64.8364"
        fill="#EAEAEA" />
    <path
        d="M91.7203 233.417C84.7671 218.224 72.8945 191.011 62.569 167.7C52.2435 144.39 42.8828 123.313 36.0165 108.086L27.8726 90.0593L25.6649 85.1573C25.4216 84.6011 25.2304 84.1839 25.1 83.871C24.9696 83.5581 24.9175 83.4277 24.9175 83.4277C24.9175 83.4277 25.0044 83.5755 25.1435 83.8536C25.2825 84.1317 25.4824 84.575 25.7432 85.1139C26.282 86.2438 27.0469 87.8778 28.0377 89.9811C30.0281 94.2052 32.8528 100.35 36.3207 107.946C43.2739 123.139 52.6781 144.207 62.9949 167.509C73.3117 190.811 85.1582 218.05 92.0245 233.278"
        fill="#E0E0E0" />
    <path
        d="M26.8037 131.647C27.1594 131.732 27.5059 131.851 27.838 132.004C28.4986 132.256 29.4285 132.647 30.5845 133.151C32.8878 134.151 36.0341 135.611 39.4759 137.28L48.2804 141.625L50.9574 142.92C51.296 143.057 51.6194 143.229 51.9221 143.433C51.5632 143.354 51.2136 143.238 50.8792 143.085C50.2273 142.833 49.2886 142.434 48.1413 141.93C45.8468 140.86 42.7265 139.366 39.2499 137.732L30.4194 133.473L27.7424 132.195C27.4087 132.051 27.0935 131.867 26.8037 131.647Z"
        fill="#E0E0E0" />
    <path
        d="M53.0083 142.486C52.8866 142.434 55.6158 135.811 59.0924 127.71C62.569 119.61 65.4893 113.048 65.611 113.1C65.7327 113.152 63.0035 119.775 59.5269 127.875C56.0503 135.976 53.1561 142.538 53.0083 142.486Z"
        fill="#E0E0E0" />
    <path
        d="M67.2451 178.99C67.4298 178.675 67.6516 178.384 67.9057 178.121L69.8352 175.775C71.4605 173.802 73.6942 171.055 76.0409 167.952C78.3876 164.849 80.4388 161.946 81.899 159.843L83.6373 157.349C83.8325 157.036 84.0597 156.745 84.3152 156.479C84.1721 156.827 83.9944 157.159 83.785 157.47C83.42 158.087 82.9159 158.965 82.1771 160.078C80.7952 162.233 78.7874 165.162 76.4233 168.283C74.0592 171.403 71.7908 174.123 70.0959 176.053C69.2268 177.017 68.5488 177.791 68.0534 178.304C67.8053 178.557 67.5348 178.787 67.2451 178.99Z"
        fill="#E0E0E0" />
    <path
        d="M41.3877 174.392C41.7315 174.372 42.0765 174.398 42.4133 174.471L45.1946 174.853C47.5326 175.192 50.7658 175.722 54.3293 176.287C57.8928 176.852 61.1174 177.426 63.4467 177.852L66.2019 178.382C66.544 178.43 66.8793 178.518 67.2014 178.643C66.8642 178.656 66.5264 178.636 66.1932 178.582L63.4206 178.199C61.0739 177.86 57.8407 177.33 54.2772 176.765C50.7137 176.2 47.4891 175.618 45.1598 175.192L42.4133 174.662C42.062 174.613 41.7178 174.522 41.3877 174.392Z"
        fill="#E0E0E0" />
    <path
        d="M49.8623 208.211C50.3022 208.211 50.7413 208.249 51.1747 208.324L54.7382 208.802C57.7455 209.228 61.8913 209.836 66.4631 210.54C71.0348 211.244 75.1546 211.914 78.1705 212.418L81.7079 213.043C82.1458 213.097 82.5769 213.196 82.9943 213.339C82.5544 213.339 82.1153 213.301 81.6819 213.226L78.1184 212.748C75.1111 212.331 70.9653 211.714 66.3935 211.01C61.8218 210.306 57.702 209.636 54.6861 209.132L51.1486 208.506C50.7108 208.453 50.2797 208.354 49.8623 208.211Z"
        fill="#E0E0E0" />
    <path
        d="M82.2383 213C82.4772 212.592 82.7505 212.206 83.0553 211.844L85.3933 208.785C87.3576 206.178 90.0693 202.623 92.9462 198.59C95.8231 194.557 98.3436 190.846 100.143 188.16L102.272 184.953C102.534 184.55 102.825 184.167 103.141 183.806C102.95 184.241 102.723 184.659 102.463 185.057C102.003 185.839 101.325 186.961 100.456 188.334C98.7174 191.089 96.249 194.844 93.3634 198.885C90.4778 202.927 87.7226 206.473 85.6888 209.011C84.6632 210.271 83.8288 211.288 83.2291 211.975C82.9305 212.346 82.5988 212.689 82.2383 213Z"
        fill="#E0E0E0" />
    <path
        d="M307.367 337.636C308.237 338.019 309.022 338.573 309.673 339.266C310.324 339.959 310.828 340.776 311.156 341.669C311.803 343.465 312.032 345.385 311.825 347.284C311.521 350.943 309.566 354.697 307.419 357.713C304.264 355.106 303.412 350.473 303.125 348.083C302.673 344.302 304.16 337.201 307.367 337.653"
        fill="#2A8BE9" />
    <path
        d="M311.182 363.556C310.933 362.522 310.963 361.441 311.269 360.423C311.574 359.404 312.144 358.485 312.92 357.758C313.711 357.048 314.636 356.502 315.64 356.153C316.644 355.804 317.708 355.658 318.769 355.725C319.257 355.706 319.742 355.794 320.192 355.982C320.643 356.169 321.047 356.452 321.377 356.811C321.624 357.197 321.766 357.641 321.787 358.098C321.809 358.556 321.709 359.012 321.499 359.419C321.055 360.226 320.407 360.903 319.621 361.383C317.014 363.121 314.163 364.355 311.121 363.547"
        fill="#2A8BE9" />
    <path
        d="M307.584 374.862C307.593 374.611 307.622 374.361 307.671 374.114C307.749 373.584 307.853 372.897 307.984 372.072C308.255 369.805 308.892 367.598 309.87 365.536C310.889 363.472 312.44 361.717 314.363 360.451C314.95 360.09 315.578 359.798 316.232 359.582C316.411 359.519 316.594 359.467 316.78 359.426C316.901 359.426 316.971 359.382 316.971 359.426C316.097 359.755 315.258 360.171 314.468 360.668C312.614 361.955 311.118 363.693 310.122 365.718C309.157 367.76 308.501 369.933 308.175 372.167C308.019 373.036 307.888 373.714 307.784 374.192C307.739 374.421 307.672 374.645 307.584 374.862Z"
        fill="#263238" />
    <path
        d="M306.714 343.096C306.727 343.205 306.727 343.316 306.714 343.426C306.714 343.669 306.766 343.982 306.801 344.365C306.871 345.182 306.958 346.364 307.053 347.841C307.236 350.762 307.436 354.794 307.557 359.271C307.679 363.747 307.688 367.78 307.662 370.709C307.662 372.169 307.662 373.359 307.601 374.185C307.601 374.568 307.601 374.881 307.601 375.124C307.612 375.234 307.612 375.344 307.601 375.454C307.601 375.454 307.601 375.341 307.601 375.124C307.601 374.907 307.601 374.568 307.601 374.185C307.601 373.316 307.601 372.151 307.601 370.709C307.601 367.78 307.54 363.755 307.418 359.279C307.297 354.803 307.132 350.77 306.992 347.85C306.923 346.416 306.871 345.243 306.827 344.373C306.827 343.982 306.827 343.669 306.827 343.426C306.78 343.32 306.742 343.209 306.714 343.096Z"
        fill="#263238" />
    <path
        d="M305.932 365.937C305.492 363.737 304.534 361.673 303.138 359.917C301.741 358.16 299.946 356.762 297.901 355.838C296.858 355.377 295.511 355.099 294.686 355.89C293.86 356.681 294.095 358.045 294.546 359.097C295.515 361.27 297.104 363.107 299.115 364.379C301.126 365.65 303.467 366.298 305.845 366.241"
        fill="#2A8BE9" />
    <path
        d="M298.51 359.287C298.737 359.354 298.959 359.441 299.17 359.548C299.426 359.658 299.676 359.783 299.918 359.922C300.246 360.091 300.565 360.276 300.874 360.478C301.213 360.704 301.595 360.947 301.969 361.251C302.343 361.556 302.743 361.886 303.151 362.251C304.002 363.073 304.757 363.988 305.402 364.98C306.034 365.977 306.548 367.045 306.932 368.161C307.099 368.651 307.235 369.15 307.34 369.656C307.444 370.091 307.519 370.532 307.566 370.977C307.614 371.346 307.643 371.718 307.653 372.09C307.677 372.379 307.677 372.67 307.653 372.959C307.659 373.195 307.641 373.43 307.601 373.663C307.54 373.663 307.601 372.646 307.384 371.055C307.314 370.656 307.253 370.186 307.132 369.76C307.01 369.334 306.871 368.804 306.706 368.3C306.314 367.204 305.801 366.154 305.176 365.171C304.54 364.201 303.803 363.301 302.977 362.486C302.616 362.13 302.236 361.793 301.839 361.477C301.474 361.164 301.1 360.921 300.77 360.686C299.422 359.73 298.484 359.365 298.51 359.287Z"
        fill="#263238" />
    <path
        d="M46.5954 353.282C47.395 350.17 45.3525 347.05 43.1188 344.79C40.8851 342.53 38.0951 340.514 36.9131 337.533C34.9836 332.7 37.5736 326.451 34.3056 322.418C32.2979 320.08 28.8213 319.289 27.1265 316.777C26.3341 315.377 25.8095 313.841 25.5794 312.249C23.7543 304.22 19.8037 296.829 14.1414 290.851C13.7606 298.004 15.3128 305.129 18.6349 311.475C19.9647 314.013 21.5987 316.482 22.0419 319.298C22.7546 323.896 20.1906 328.624 21.3205 333.135C22.6069 338.297 28.4041 341.748 28.6822 347.041C28.9082 351.526 24.997 355.472 25.2926 359.957C25.5271 361.862 26.2092 363.685 27.2829 365.276C30.7595 371.047 35.8527 375.019 43.5882 374.889L53.0532 375.219L46.5954 353.282Z"
        fill="#2A8BE9" />
    <g opacity="0.3">
        <path
            d="M46.5959 353.282C47.3955 350.17 45.353 347.05 43.1193 344.79C40.8856 342.53 38.0956 340.514 36.9136 337.533C34.9841 332.7 37.5741 326.451 34.3061 322.418C32.2984 320.08 28.8218 319.289 27.1269 316.777C26.3346 315.377 25.81 313.841 25.5799 312.249C23.7548 304.22 19.8042 296.829 14.1419 290.851C13.7611 298.004 15.3133 305.129 18.6354 311.475C19.9652 314.013 21.5992 316.482 22.0424 319.298C22.7551 323.896 20.1911 328.624 21.321 333.135C22.6074 338.297 28.4046 341.748 28.6827 347.041C28.9087 351.526 24.9975 355.472 25.293 359.957C25.5276 361.862 26.2097 363.685 27.2834 365.276C30.76 371.047 35.8532 375.019 43.5886 374.889L53.0537 375.219L46.5959 353.282Z"
            fill="black" />
    </g>
    <path
        d="M54.965 375.471C55.8307 375.603 56.7127 375.585 57.5724 375.419C58.621 375.259 59.6515 374.997 60.6492 374.637C62.0252 374.162 63.312 373.46 64.4561 372.56C65.1458 372.008 65.6841 371.29 66.0206 370.474C66.3041 369.558 66.4534 368.607 66.4638 367.649C66.4805 366.626 66.5559 365.604 66.6898 364.589C66.8697 363.509 67.2627 362.475 67.8458 361.547C68.9583 359.583 70.8096 357.723 71.4093 355.064C72.009 352.404 71.5918 349.614 71.1485 346.772C70.7053 343.93 70.2794 340.836 71.3745 337.872C72.4696 334.908 74.4687 332.24 75.503 328.902C76.5373 325.565 76.0505 321.906 76.2765 318.333C76.3411 316.518 76.7573 314.732 77.502 313.075C78.2756 311.406 79.3359 309.824 80.1616 308.06C81.8478 304.496 82.1433 300.455 82.6039 296.492C82.8241 294.493 83.0501 292.465 83.2819 290.408C83.4213 288.349 83.7738 286.31 84.3335 284.324C84.9721 282.328 85.7266 280.372 86.5933 278.465C87.0441 277.477 87.4132 276.454 87.6971 275.406C87.8537 274.328 87.9552 273.243 88.0013 272.155C88.1039 269.968 88.0196 267.775 87.7493 265.602C87.4886 263.42 87.0974 261.256 86.8801 259.066C86.8801 258.936 86.8801 258.805 86.8801 258.684L86.828 258.249L86.4456 258.44C84.4367 259.463 82.6908 260.935 81.3437 262.743C80.033 264.509 78.9795 266.452 78.2147 268.514C76.6329 272.581 76.0679 276.84 75.2683 280.908C74.4687 284.975 73.4692 288.973 71.3832 292.354C70.3402 294.041 69.0887 295.579 67.9848 297.23C66.814 298.831 66.0126 300.672 65.6381 302.619C65.0819 306.626 67.2895 310.146 66.8289 313.683C66.6064 315.428 66.0137 317.105 65.0906 318.603C64.2214 320.115 63.2219 321.514 62.2658 322.949C61.2897 324.319 60.4375 325.773 59.7192 327.294C59.0531 328.794 58.6615 330.402 58.5633 332.04C58.3286 335.23 58.7805 338.254 58.5633 341.114C58.2825 343.855 57.4612 346.514 56.147 348.936C55.0084 351.265 53.7308 353.377 52.6704 355.42C52.1402 356.437 51.6448 357.436 51.2363 358.436C50.8402 359.398 50.5488 360.401 50.3672 361.426C50.0807 363.215 50.0573 365.036 50.2976 366.832C50.5439 369.332 51.4796 371.716 53.0007 373.716C53.2303 374.027 53.4862 374.317 53.7655 374.585C53.9545 374.781 54.1643 374.956 54.3913 375.106C54.739 375.367 54.9302 375.489 54.9302 375.489C54.2746 374.943 53.6801 374.328 53.1571 373.655C51.6793 371.656 50.7775 369.29 50.5497 366.814C50.3327 365.042 50.3737 363.247 50.6714 361.487C50.8548 360.485 51.1462 359.505 51.5405 358.566C51.9403 357.593 52.4097 356.602 52.9833 355.594C54.0611 353.569 55.3474 351.474 56.5121 349.127C57.8311 346.672 58.6551 343.982 58.937 341.209C59.1804 338.289 58.7458 335.256 58.9804 332.135C59.0834 330.551 59.4659 328.997 60.1103 327.546C60.8124 326.046 61.6533 324.614 62.6222 323.27C63.5782 321.871 64.5952 320.463 65.4817 318.924C66.4422 317.369 67.0586 315.627 67.2895 313.814C67.7415 310.033 65.5512 306.496 66.1249 302.776C66.4896 300.908 67.2644 299.145 68.3933 297.613C69.4711 295.996 70.74 294.458 71.8004 292.728C73.9559 289.252 74.9989 285.175 75.7811 281.09C76.5633 277.005 77.1544 272.781 78.7101 268.8C79.4537 266.793 80.481 264.902 81.7609 263.186C83.0462 261.449 84.7186 260.035 86.6455 259.057L86.2022 258.814C86.2022 258.936 86.2022 259.066 86.2022 259.196C86.4456 261.413 86.8367 263.586 87.0714 265.741C87.3413 267.882 87.4256 270.043 87.3234 272.199C87.2819 273.255 87.1862 274.308 87.0366 275.354C86.7596 276.362 86.405 277.347 85.9762 278.3C85.0959 280.228 84.3326 282.208 83.6904 284.228C83.1233 286.237 82.765 288.299 82.6213 290.381C82.3953 292.415 82.178 294.44 81.9521 296.466C81.5001 300.446 81.2046 304.418 79.588 307.869C78.7884 309.607 77.728 311.163 76.9805 312.892C76.2129 314.611 75.7821 316.461 75.7116 318.342C75.503 321.992 75.981 325.565 74.9902 328.772C73.9994 331.979 71.9482 334.673 70.9052 337.733C69.8622 340.792 70.2533 344.017 70.7053 346.841C71.1572 349.666 71.6179 352.465 71.0095 354.985C70.4011 357.506 68.6628 359.331 67.5329 361.382C66.9405 362.363 66.5449 363.449 66.3682 364.581C66.2441 365.611 66.1773 366.646 66.1683 367.684C66.1677 368.614 66.03 369.54 65.7598 370.43C65.4394 371.198 64.9349 371.876 64.2909 372.403C63.181 373.301 61.9299 374.009 60.5884 374.498C59.6046 374.865 58.5892 375.141 57.555 375.323C56.9177 375.435 56.2725 375.497 55.6255 375.506C55.191 375.463 54.965 375.471 54.965 375.471Z"
        fill="#263238" />
    <path
        d="M84.873 263.959C84.8353 264.052 84.8062 264.148 84.786 264.246C84.7252 264.472 84.6557 264.75 84.5774 265.115C84.3862 265.862 84.1689 266.984 83.8126 268.392C83.4562 269.8 82.5784 271.382 81.8483 273.337C81.1182 275.293 80.3099 277.526 79.5972 280.047C78.8845 282.567 78.2327 285.375 77.5634 288.382C76.9918 291.589 75.9706 294.699 74.5301 297.621C73.7565 299.16 72.8874 300.715 72.1921 302.419C71.511 304.165 71.0525 305.99 70.8275 307.851C70.3586 311.697 69.6825 315.516 68.8024 319.289L63.4571 341.157C61.771 347.867 60.25 353.907 58.9636 359C57.6773 364.094 56.7125 368.144 55.9911 371.038C55.6608 372.42 55.4088 373.524 55.2176 374.315C55.1394 374.663 55.0785 374.949 55.0264 375.184C55.0166 375.282 55.0166 375.381 55.0264 375.48C55.0703 375.391 55.1052 375.297 55.1307 375.201C55.2002 374.975 55.2784 374.697 55.374 374.332C55.5913 373.541 55.8868 372.455 56.2432 371.082C56.9993 368.196 58.0771 364.128 59.3982 359.087C60.7193 354.046 62.2838 347.971 64.0134 341.279C65.743 334.586 67.49 327.164 69.4195 319.402C70.2867 315.613 70.9511 311.78 71.4098 307.921C71.6205 306.105 72.0616 304.323 72.7222 302.619C73.3915 300.959 74.252 299.412 75.0255 297.856C76.6943 294.77 77.3809 291.459 78.0501 288.469C78.7194 285.479 79.3104 282.663 79.997 280.143C80.6837 277.622 81.4224 275.38 82.1525 273.441C82.8826 271.503 83.6822 269.887 84.0299 268.435C84.3775 266.984 84.534 265.88 84.6904 265.124C84.7513 264.767 84.7947 264.489 84.8382 264.254C84.8614 264.158 84.8731 264.059 84.873 263.959Z"
        fill="#263238" />
    <path
        d="M56.6342 375.497C62.8225 371.829 64.5956 360.669 62.0142 353.959C59.4328 347.249 54.922 341.104 54.1919 333.969C53.653 328.458 55.4608 322.818 54.1919 317.455C52.4536 310.198 45.3787 304.574 45.5004 297.108C45.5525 292.928 47.934 288.982 47.7428 284.801C47.5081 279.673 43.5709 275.605 41.1285 271.086C37.3999 264.133 37.1565 255.989 35.9137 248.236C34.6708 240.483 31.6809 232.165 24.8059 228.358C23.789 234.938 22.0594 239.449 22.5983 248.349C22.7982 251.547 26.5181 257.684 27.0223 264.706C27.3265 268.904 27.535 273.102 27.7958 277.3C28.0565 281.498 28.3086 285.548 29.7775 289.373C30.8987 292.302 32.6978 294.97 33.5322 297.995C35.1053 303.679 33.0368 309.85 34.3057 315.612C35.3835 320.497 38.7645 324.704 39.4511 329.658C40.4245 336.611 35.9136 343.842 38.2256 350.517C39.3642 353.811 42.0759 356.454 42.8495 359.861C43.4405 362.468 42.7886 365.293 43.3362 367.944C44.2053 372.211 52.3493 375.532 56.7037 375.262"
        fill="#2A8BE9" />
    <path
        d="M26.4487 234.859C26.437 234.984 26.437 235.109 26.4487 235.233C26.4487 235.511 26.5356 235.868 26.5877 236.311C26.7355 237.267 26.8919 238.658 27.2135 240.465C27.5351 242.273 28.4912 244.324 29.2386 246.793C29.9861 249.261 30.8118 252.086 31.5071 255.258C32.2024 258.431 32.8021 261.942 33.4279 265.688C34.0537 269.434 34.723 273.58 36.5916 277.517C37.4608 279.49 38.4342 281.472 39.1991 283.601C39.912 285.766 40.35 288.011 40.5028 290.285C40.8481 295.115 41.4544 299.923 42.3193 304.687C44.2054 314.439 46.0132 323.739 47.6559 332.195L52.2885 354.611C53.6183 360.956 54.696 366.101 55.4435 369.708C55.8259 371.446 56.1214 372.828 56.3126 373.802C56.4169 374.245 56.4952 374.593 56.5647 374.862C56.6342 375.131 56.6516 375.227 56.669 375.218C56.6641 375.096 56.6495 374.974 56.6255 374.853C56.5734 374.575 56.5125 374.219 56.4343 373.776C56.2518 372.793 55.991 371.411 55.6608 369.656C54.9481 366.04 53.9225 360.886 52.697 354.524C51.4715 348.162 49.907 340.531 48.2208 332.091C46.5347 323.652 44.779 314.343 42.9103 304.609C42.0459 299.859 41.4367 295.066 41.0851 290.25C40.922 287.932 40.4695 285.642 39.738 283.436C38.9818 281.289 37.9997 279.299 37.1305 277.352C35.2705 273.476 34.61 269.425 33.9494 265.662C33.2889 261.899 32.6891 258.37 31.9504 255.189C31.3062 252.326 30.5172 249.498 29.5863 246.715C28.8041 244.238 27.848 242.212 27.4656 240.439C27.0831 238.666 26.918 237.258 26.7355 236.32C26.6573 235.876 26.5877 235.52 26.5356 235.251C26.5232 235.117 26.494 234.986 26.4487 234.859Z"
        fill="#263238" />
    <path
        d="M218.295 375.209H97.3357C82.7166 375.148 70.3921 362.684 70.3921 348.065L71.6784 43.4197C71.6932 39.9357 72.3955 36.4888 73.7451 33.2768C75.0947 30.0647 77.065 27.1507 79.5431 24.7016C82.0212 22.2526 84.9583 20.3168 88.186 19.0052C91.4138 17.6936 94.8687 17.032 98.3526 17.0584L219.868 17.6233C223.344 17.6381 226.782 18.3374 229.986 19.6812C233.191 21.0251 236.1 22.9871 238.546 25.4553C240.993 27.9234 242.929 30.8494 244.244 34.066C245.56 37.2826 246.228 40.7268 246.212 44.2019L244.926 348.856C244.911 352.336 244.21 355.779 242.863 358.988C241.516 362.196 239.55 365.108 237.076 367.556C234.603 370.003 231.671 371.939 228.448 373.253C225.225 374.566 221.775 375.231 218.295 375.209Z"
        fill="#263238" />
    <path
        d="M219.921 29.2004L196.358 29.0874C194.807 29.1171 193.332 29.7605 192.255 30.8766C191.178 31.9927 190.587 33.4903 190.613 35.0411V39.3173C190.638 40.868 190.048 42.3656 188.971 43.4817C187.894 44.5978 186.418 45.2412 184.868 45.2709L138.942 45.0623C138.174 45.0421 137.417 44.8706 136.715 44.5578C136.013 44.2449 135.38 43.7968 134.851 43.2391C134.322 42.6813 133.909 42.0249 133.634 41.3072C133.359 40.5895 133.228 39.8247 133.249 39.0565V34.7803C133.289 33.228 132.71 31.7234 131.641 30.5972C130.572 29.4711 129.1 28.8154 127.547 28.7745H119.264L98.6394 28.6789C96.2048 28.6686 93.792 29.1379 91.5388 30.0601C89.2857 30.9823 87.2362 32.3392 85.5074 34.0535C83.7786 35.7677 82.4044 37.8057 81.4633 40.051C80.5221 42.2963 80.0324 44.705 80.0222 47.1396L78.7619 344.502C78.7505 346.936 79.2188 349.348 80.14 351.602C81.0612 353.855 82.4173 355.904 84.1309 357.633C85.8444 359.362 87.8818 360.736 90.1267 361.678C92.3715 362.619 94.7798 363.109 97.214 363.119L218.486 363.675C220.922 363.688 223.336 363.22 225.591 362.299C227.846 361.378 229.897 360.021 231.627 358.306C233.356 356.592 234.731 354.553 235.673 352.306C236.614 350.06 237.103 347.65 237.112 345.214L238.373 47.8176C238.393 42.9022 236.461 38.1798 233.001 34.6886C229.541 31.1975 224.836 29.2234 219.921 29.2004Z"
        fill="#F5F5F5" />
    <path d="M168.449 307.441C168.31 311.03 168.18 314.394 168.067 317.201H185.45L183.32 306.502L168.449 307.441Z"
        fill="#F5F5F5" />
    <path d="M97.6484 311.918L97.7962 317.202H166.329C166.442 314.238 166.572 310.944 166.702 307.555L97.6484 311.918Z"
        fill="#F5F5F5" />
    <path d="M184.233 306.441L186.372 317.201H218.495L218.104 304.303L184.233 306.441Z" fill="#F5F5F5" />
    <path d="M170.188 156.088L176.263 120.878L160.358 119.696V156.088H170.188Z" fill="#F5F5F5" />
    <path d="M96.2143 292.37L78.953 299.132L78.9009 311.361L96.7271 310.24L96.2143 292.37Z" fill="#F5F5F5" />
    <path
        d="M96.1363 289.623L95.1889 256.83H95.1802V245.271L79.1705 246.965L78.9619 296.333L96.1276 289.606L96.1363 289.623Z"
        fill="#F5F5F5" />
    <path d="M95.1803 219.448L79.301 217.354L79.188 244.341L95.1803 242.646V219.448Z" fill="#F5F5F5" />
    <path
        d="M213.55 245.757L212.881 255.153L194.125 257.178L195.576 264.609L216.861 263.001L216.549 252.345L218.243 245.279L213.55 245.757Z"
        fill="#F5F5F5" />
    <path d="M179.74 265.8L194.698 264.679L191.438 247.982L178.384 249.304L179.74 265.8Z" fill="#F5F5F5" />
    <path
        d="M179.888 267.539L181.026 281.454L183.06 300.549L183.886 304.721L218.052 302.566L216.913 264.749L179.888 267.539Z"
        fill="#F5F5F5" />
    <path
        d="M121.081 201.822L122.393 204.082L96.0494 219.431V255.936L123.862 253.971L177.445 248.522L175.49 224.646L124.288 217.954L124.627 215.346L175.272 221.961L171.952 181.519L121.82 186.352L121.655 184.613L171.804 179.789L170.066 158.687H121.82L79.5182 166.413L79.3096 214.729L95.3454 216.824L121.081 201.822ZM98.7438 252.459C98.7438 252.459 98.9437 222.395 98.7438 221.274L120.247 209.836L123.036 250.921L98.7438 252.459Z"
        fill="#F5F5F5" />
    <path d="M211.785 245.932L192.308 247.896L193.785 255.466L211.246 253.58L211.785 245.932Z" fill="#F5F5F5" />
    <path
        d="M168.693 301.002C168.632 302.584 168.571 304.157 168.519 305.695L183.016 304.783L182.269 301.037L168.693 301.002Z"
        fill="#F5F5F5" />
    <path
        d="M137.464 156.088L140.02 144.511H159.489V119.636L98.6221 115.125V138.479L79.6138 142.781L79.5269 163.754L121.62 156.088H137.464Z"
        fill="#F5F5F5" />
    <path
        d="M178.08 86.8773L177.558 84.7479L200.8 75.5523L185.685 45.2016C185.398 45.2481 185.107 45.2714 184.816 45.2711L159.193 45.1494L159.889 87.6248L178.08 86.8773Z"
        fill="#F5F5F5" />
    <path
        d="M213.298 70.6062V29.1651L196.358 29.0869C194.807 29.1166 193.331 29.7601 192.255 30.8761C191.178 31.9922 190.587 33.4898 190.613 35.0406V39.3168C190.612 40.2716 190.387 41.2129 189.955 42.0645C189.523 42.9161 188.897 43.6541 188.127 44.2188L203.25 74.5869L213.298 70.6062Z"
        fill="#F5F5F5" />
    <path
        d="M125.93 72.3804L123.966 28.7578H119.264L100.881 28.6709L93.0591 67.687L125.93 72.3804ZM121.741 33.1731L122.367 68.7039L97.935 65.1317L103.28 33.1731H121.741Z"
        fill="#F5F5F5" />
    <path
        d="M126.817 72.5448V72.9185C126.817 76.3169 126.922 82.4792 126.974 88.9978L158.985 87.6941L158.324 45.1492L138.951 45.0623C138.182 45.042 137.426 44.8705 136.724 44.5577C136.022 44.2449 135.388 43.7968 134.86 43.239C134.331 42.6813 133.917 42.0248 133.643 41.3071C133.368 40.5895 133.237 39.8247 133.258 39.0565V34.7802C133.297 33.2279 132.719 31.7233 131.65 30.5972C130.581 29.471 129.108 28.8154 127.556 28.7744H124.853L126.809 72.5448H126.817Z"
        fill="#F5F5F5" />
    <path
        d="M90.4692 67.3301L98.222 28.7051C93.38 28.7869 88.7628 30.7627 85.3605 34.2089C81.9583 37.655 80.0417 42.2971 80.022 47.1397L79.9351 66.4001L80.022 65.8351L90.4692 67.3301Z"
        fill="#F5F5F5" />
    <path d="M96.0142 114.933L79.7351 113.725L79.6221 140.103L96.0142 136.401V114.933Z" fill="#F5F5F5" />
    <path d="M90.2957 68.1464L79.9355 66.6602L79.7529 109.37L81.9866 109.535L90.2957 68.1464Z" fill="#F5F5F5" />
    <path d="M123.176 289.129L123.454 254.832L96.0581 256.77L97.0315 290.363L123.176 289.129Z" fill="#F5F5F5" />
    <path
        d="M128.216 281.211L167.015 299.793C167.485 287.625 167.884 276.326 167.884 275.57H168.754L169.171 274.753C169.718 275.031 169.718 275.031 169.431 283.305C169.266 287.92 169.04 294.065 168.806 300.219H182.138L180.165 281.584L177.558 249.426L126.878 254.536L128.216 281.211Z"
        fill="#F5F5F5" />
    <path d="M223.293 224.299L222.85 219.779L176.359 224.612L178.314 248.435L218.46 244.385L223.293 224.299Z"
        fill="#F5F5F5" />
    <path d="M159.489 147.118H142.114L140.133 156.088H159.489V147.118Z" fill="#F5F5F5" />
    <path
        d="M216.114 150.142L172.613 147.135L170.875 157.408L172.708 179.71L218.582 175.304L216.114 150.142ZM174.212 157.391L176.55 150.907L214.332 153.297L216.557 171.845L175.533 176.712L174.212 157.391Z"
        fill="#F5F5F5" />
    <path d="M220.624 196.755L218.712 177.034L172.812 181.449L174.542 202.439L220.624 196.755Z" fill="#F5F5F5" />
    <path d="M96.7795 311.978L78.9706 313.099L78.9011 311.943L78.875 317.202H96.9272L96.7795 311.978Z" fill="#F5F5F5" />
    <path
        d="M238.051 60.8112L238.312 61.4717L238.373 47.8174C238.394 42.902 236.462 38.1796 233.002 34.6885C229.541 31.1973 224.836 29.2232 219.921 29.2002H214.141V70.2849L238.051 60.8112Z"
        fill="#F5F5F5" />
    <path
        d="M166.963 300.74L127.373 281.775L125.974 254.588L124.323 254.762L124.036 289.954L97.0488 291.231V292.022L97.5703 310.161L166.746 305.816C166.833 304.121 166.902 302.426 166.963 300.74ZM98.7437 293.474L136.517 290.823L161.088 302.226L98.7437 305.598V293.474Z"
        fill="#F5F5F5" />
    <path
        d="M226.796 106.442L228.421 96.8811C214.219 91.814 213.237 77.0037 213.281 72.5449L204.007 76.2127L217.965 104.225L226.796 106.442Z"
        fill="#F5F5F5" />
    <path d="M176.142 222.013L195.445 220.005L191.647 202.952L174.751 205.038L176.142 222.013Z" fill="#F5F5F5" />
    <path
        d="M216.174 121.173L180.122 121.164L177.132 120.938L173.056 144.553L215.853 147.508L214.862 137.244L219.077 122.086L216.174 121.173Z"
        fill="#F5F5F5" />
    <path
        d="M215.297 116.871L215.749 105.572L201.581 77.125L179.609 85.8165L187.162 116.871H215.297ZM200.721 80.619L213.706 105.32L211.829 113.012L189.613 112.143L184.059 88.7803L200.721 80.619Z"
        fill="#F5F5F5" />
    <path
        d="M220.902 252.798L221.572 274.927L237.19 274.049L237.242 274.918L221.598 275.796L222.389 302.287L237.164 301.357L237.268 303.087L222.441 304.026L222.841 317.202H237.234L237.547 243.333L222.823 244.819L220.902 252.798Z"
        fill="#F5F5F5" />
    <path
        d="M125.957 73.266L92.8768 68.5117L84.6025 109.727L126.104 112.804C126.27 106.441 126.165 86.9985 125.957 73.266Z"
        fill="#F5F5F5" />
    <path d="M180.366 116.828H185.372L178.288 87.7373L159.88 88.4935L160.323 115.342L180.366 116.828Z" fill="#F5F5F5" />
    <path
        d="M126.948 112.865L159.445 115.272L159.011 88.5283L127.035 89.832C127.035 98.8799 127.087 108.527 126.948 112.865Z"
        fill="#F5F5F5" />
    <path d="M220.876 199.354L192.507 202.848L196.323 219.918L222.597 217.18L220.876 199.354Z" fill="#F5F5F5" />
    <path
        d="M228.569 96.0119L230.385 85.2257L238.208 85.8341L238.312 62.6191L214.158 72.1798C213.663 88.4676 223.928 94.2127 228.569 96.0119Z"
        fill="#F5F5F5" />
    <path d="M219.269 137.636L220.251 147.814L237.947 149.039L238.033 128.075L223.223 123.391L219.269 137.636Z"
        fill="#F5F5F5" />
    <path
        d="M227.682 224.646L223.041 243.967L237.547 242.498L237.634 222.247C233.184 221.074 229.299 220.117 227.204 219.709L227.682 224.646Z"
        fill="#F5F5F5" />
    <path d="M217.896 117.149L238.051 123.52L238.103 112.056L218.304 106.937L217.896 117.149Z" fill="#F5F5F5" />
    <path
        d="M226.987 217.015C228.612 217.258 231.689 217.884 237.677 219.492L237.868 175.165L223.093 176.59L226.987 217.015Z"
        fill="#F5F5F5" />
    <path d="M222.876 174.887L237.842 173.444L237.929 151.654L220.503 150.446L222.876 174.887Z" fill="#F5F5F5" />
    <path d="M230.237 96.5157C233.071 97.3733 235.71 98.0454 238.155 98.5321V87.5374L231.784 87.042L230.237 96.5157Z"
        fill="#F5F5F5" />
    <path
        d="M228.491 106.877L238.112 109.371L238.156 99.4281C235.661 98.9327 232.941 98.2548 230.09 97.377L228.491 106.877Z"
        fill="#F5F5F5" />
    <path
        d="M237.269 303.087L237.165 301.348L222.389 302.278L221.598 275.787L237.243 274.917L237.191 274.048L221.546 274.917L220.903 252.798L222.824 244.819L237.547 243.333V242.463L223.041 243.932L227.682 224.646L227.204 219.709C229.299 220.118 233.184 221.074 237.634 222.247V219.535C231.646 217.962 228.569 217.302 226.943 217.058L223.032 176.66L237.808 175.235V173.496L222.841 174.939L220.468 150.499L237.851 151.707V149.099L220.155 147.874L219.173 137.696L223.128 123.451L237.903 128.136V123.581L217.748 117.219L218.156 106.998L237.956 112.117V109.431L228.334 106.937L229.933 97.4371C232.819 98.3063 235.505 98.9929 237.999 99.4883V98.6192C235.554 98.1325 232.914 97.4603 230.081 96.6027L231.672 87.129L238.042 87.6244V85.8861L230.22 85.2777L228.569 96.0117C223.927 94.2734 213.663 88.511 214.158 72.1796L238.312 62.619V61.5152L238.051 60.8546L214.167 70.3023V29.2176H213.298V70.6586L203.233 74.6393L188.11 44.2713C187.392 44.7886 186.56 45.1254 185.685 45.2534L200.799 75.6041L177.558 84.7128L178.08 86.8422L159.828 87.5897L159.193 45.1491H158.324L159.019 87.6592L127.009 88.9629C126.956 82.4095 126.887 76.282 126.852 72.8837V72.5447L124.888 28.7917H124.019L125.983 72.4143L93.1031 67.6948L100.925 28.6787H98.683C98.544 28.6787 98.4049 28.6787 98.2658 28.6787L90.4696 67.3298L80.0398 65.8349L79.9528 66.3998V66.704L90.3131 68.1903L82.004 109.579L79.7703 109.414V113.76L96.0495 114.968V136.436L79.6573 140.138V142.815L98.6656 138.513V115.133L159.506 119.644V144.51H140.037L137.464 156.087H121.62L79.527 163.745V166.413L121.82 158.695H170.04L171.778 179.798L121.655 184.665L121.82 186.403L171.952 181.579L175.272 222.021L124.627 215.407L124.288 218.014L175.49 224.707L177.445 248.521L123.845 253.936L96.0321 255.9V219.431L122.376 204.064L121.064 201.805L95.3455 216.824L79.3097 214.703V217.31L95.1803 219.431V242.629L79.188 244.367V246.974L95.1977 245.236V256.804L96.1451 289.597L78.9794 296.325V299.123L96.2407 292.361L96.7535 310.231L78.9272 311.352V311.935L78.9968 313.091L96.8057 311.969L96.9534 317.184H97.8226L97.6748 311.9L166.729 307.554C166.598 310.944 166.468 314.238 166.355 317.202H168.093C168.206 314.403 168.337 311.031 168.476 307.441L183.382 306.502L185.511 317.202H186.38L184.242 306.442L218.139 304.303L218.53 317.202H222.876M168.554 305.694C168.606 304.156 168.667 302.583 168.728 301.001H182.304L183.051 304.747L168.554 305.694ZM183.921 304.721L183.051 300.549L181.026 281.427L179.888 267.521L216.913 264.731L218.052 302.548L183.921 304.721ZM192.343 247.896L211.829 245.931L211.281 253.58L193.82 255.466L192.343 247.896ZM191.473 247.983L194.733 264.679L179.775 265.8L178.419 249.286L191.473 247.983ZM216.896 263.01L195.576 264.627L194.124 257.196L212.881 255.17L213.541 245.775L218.243 245.297L216.557 252.346L216.896 263.01ZM191.691 202.952L195.489 220.005L176.142 222.038L174.751 205.064L191.691 202.952ZM196.367 219.918L192.551 202.848L220.92 199.371L222.658 217.197L196.367 219.918ZM215.897 147.509L173.1 144.554L177.176 120.939L180.166 121.165H216.227L219.078 122.086L214.862 137.244L215.897 147.509ZM213.289 72.4838C213.246 76.96 214.228 91.7703 228.43 96.82L226.796 106.442L217.965 104.164L204.007 76.1517L213.289 72.4838ZM201.59 77.1077L215.749 105.572L215.297 116.871H187.162L179.61 85.8514L201.59 77.1077ZM178.314 87.7374L185.372 116.871H180.366L160.323 115.385L159.88 88.537L178.314 87.7374ZM159.037 88.5284L159.471 115.272L126.974 112.865C127.113 108.519 127.087 98.8799 126.974 89.8321L159.037 88.5284ZM92.9032 68.5379L125.983 73.2922C126.148 87.0247 126.296 106.485 126.131 112.83L84.6289 109.753L92.9032 68.5379ZM176.289 120.904L170.205 156.113H160.358V119.696L176.289 120.904ZM142.114 147.118H159.497V156.087H140.133L142.114 147.118ZM170.84 157.408L172.578 147.135L216.079 150.142L218.513 175.304L172.639 179.711L170.84 157.408ZM218.713 177.034L220.625 196.755L174.56 202.439L172.821 181.449L218.713 177.034ZM176.359 224.646L222.85 219.813L223.293 224.333L218.461 244.419L178.314 248.434L176.359 224.646ZM180.166 281.575L182.139 300.21H168.754C168.989 294.056 169.214 287.911 169.38 283.296C169.666 275.022 169.666 275.022 169.119 274.744L168.702 275.561H167.833C167.833 276.282 167.459 287.642 166.963 299.784L128.182 281.201L126.809 254.492L177.489 249.382L180.166 281.575ZM123.445 254.866L123.176 289.163L97.0316 290.397L96.0582 256.804L123.445 254.866ZM97.0751 292.074V291.284L124.062 290.006L124.349 254.814L126 254.64L127.4 281.827L166.989 300.792C166.929 302.478 166.859 304.173 166.798 305.859L97.6227 310.205L97.0751 292.074Z"
        fill="white" />
    <path d="M136.517 290.823L98.7437 293.474V305.599L161.096 302.218L136.517 290.823Z" fill="#EBEBEB" />
    <path d="M214.332 153.297L176.55 150.907L174.212 157.391L175.49 176.712L216.513 171.845L214.332 153.297Z"
        fill="#EBEBEB" />
    <path
        d="M78.875 305.693L78.7881 338.356V345.014C78.9078 349.829 80.8989 354.408 84.3389 357.78C87.7789 361.152 92.3972 363.051 97.2141 363.075L218.486 363.631C220.922 363.643 223.336 363.176 225.591 362.254C227.846 361.333 229.897 359.977 231.627 358.262C233.357 356.547 234.731 354.509 235.673 352.262C236.614 350.016 237.103 347.606 237.112 345.17L237.234 305.693H78.875Z"
        fill="#EBEBEB" />
    <path d="M122.367 68.7027L121.742 33.1719H103.289L97.9355 65.1305L122.367 68.7027Z" fill="#EBEBEB" />
    <path d="M211.828 112.969L213.706 105.277L200.721 80.5762L184.059 88.7722L189.613 112.135L211.828 112.969Z"
        fill="#EBEBEB" />
    <path
        d="M98.7437 221.239C98.9436 222.36 98.7437 252.424 98.7437 252.424L123.08 250.885L120.29 209.801L98.7437 221.239Z"
        fill="#EBEBEB" />
    <path d="M179.748 245.654L178.462 227.019L220.12 221.665V224.881L215.079 242.012L179.748 245.654Z" fill="#EBEBEB" />
    <path
        d="M218.582 293.109L218.06 280.941L181.443 282.679C180.483 282.725 179.528 282.522 178.671 282.088L126.739 255.935C126.147 255.636 125.645 255.186 125.284 254.63C124.922 254.075 124.713 253.434 124.679 252.771L117.613 115.681C117.598 115.359 117.651 115.037 117.77 114.738C117.888 114.438 118.069 114.167 118.299 113.942C118.529 113.72 118.802 113.549 119.101 113.438C119.4 113.327 119.719 113.28 120.038 113.299L142.288 114.95V90.6143H144.895V115.281C144.897 115.597 144.833 115.91 144.707 116.2C144.582 116.491 144.397 116.752 144.165 116.967C143.933 117.182 143.658 117.347 143.359 117.452C143.06 117.556 142.743 117.598 142.427 117.575L120.186 115.924L127.243 252.667C127.253 252.87 127.317 253.066 127.426 253.237C127.536 253.408 127.689 253.547 127.869 253.641L179.809 279.863C180.259 280.095 180.763 280.204 181.269 280.176L218.191 278.385C218.495 278.368 218.8 278.412 219.086 278.515C219.373 278.618 219.636 278.778 219.86 278.985C220.084 279.189 220.265 279.435 220.393 279.71C220.522 279.984 220.594 280.282 220.607 280.584L221.137 293.039L218.582 293.109Z"
        fill="white" />
    <path
        d="M207.866 75.6735C207.866 76.6774 207.568 77.6588 207.01 78.4935C206.452 79.3282 205.66 79.9788 204.732 80.3629C203.805 80.7471 202.784 80.8477 201.799 80.6518C200.815 80.4559 199.91 79.9725 199.201 79.2626C198.491 78.5528 198.007 77.6484 197.811 76.6637C197.616 75.6791 197.716 74.6585 198.1 73.7311C198.484 72.8036 199.135 72.0108 199.97 71.4531C200.804 70.8954 201.786 70.5977 202.79 70.5977C203.457 70.5965 204.117 70.727 204.733 70.9817C205.35 71.2364 205.91 71.6102 206.381 72.0818C206.853 72.5533 207.227 73.1134 207.481 73.7297C207.736 74.346 207.867 75.0066 207.866 75.6735Z"
        fill="#2A8BE9" />
    <g opacity="0.6">
        <path
            d="M205.407 79.9947C207.794 78.5241 208.537 75.3973 207.066 73.0106C205.596 70.624 202.469 69.8814 200.082 71.352C197.695 72.8225 196.953 75.9494 198.423 78.336C199.894 80.7226 203.021 81.4653 205.407 79.9947Z"
            fill="white" />
    </g>
    <path
        d="M206.127 75.5002C206.129 76.1693 205.932 76.8238 205.562 77.381C205.191 77.9381 204.664 78.3728 204.046 78.6301C203.428 78.8873 202.748 78.9555 202.092 78.826C201.436 78.6965 200.832 78.3752 200.359 77.9027C199.885 77.4302 199.562 76.8278 199.431 76.1717C199.3 75.5156 199.366 74.8354 199.622 74.2171C199.877 73.5988 200.311 73.0702 200.867 72.6983C201.423 72.3264 202.077 72.1279 202.746 72.1279C203.641 72.1279 204.5 72.4829 205.134 73.1151C205.768 73.7473 206.125 74.605 206.127 75.5002Z"
        fill="#2A8BE9" />
    <path
        d="M219.677 294.969L219.051 280.732C219.047 280.63 219.022 280.531 218.979 280.439C218.936 280.346 218.875 280.264 218.8 280.195C218.725 280.126 218.637 280.073 218.542 280.039C218.446 280.004 218.344 279.989 218.243 279.993L180.052 282.01L175.455 224.09L169.623 157.374V157.313L176.15 121.678C176.268 121.028 176.61 120.44 177.116 120.016C177.623 119.592 178.262 119.359 178.922 119.357L213.454 119.244C214.081 119.243 214.684 119.004 215.141 118.574C215.597 118.145 215.874 117.558 215.913 116.932L216.504 107.372C216.58 106.149 216.341 104.928 215.809 103.825L202.32 75.6823L203.111 75.3086L216.6 103.452C217.193 104.691 217.46 106.061 217.374 107.432L216.783 116.993C216.725 117.838 216.35 118.629 215.732 119.208C215.115 119.787 214.3 120.111 213.454 120.113L178.922 120.226C178.464 120.225 178.02 120.386 177.669 120.68C177.318 120.974 177.081 121.383 177.002 121.834L170.492 157.408L176.237 223.985L180.774 281.071L218.147 279.133C218.362 279.118 218.578 279.147 218.782 279.219C218.985 279.29 219.171 279.403 219.329 279.55C219.491 279.694 219.622 279.869 219.715 280.064C219.807 280.26 219.86 280.472 219.868 280.689L220.494 294.934L219.677 294.969Z"
        fill="#2A8BE9" />
    <path
        d="M222.05 293.813C222.052 294.243 221.925 294.664 221.687 295.023C221.449 295.382 221.11 295.662 220.712 295.827C220.315 295.993 219.877 296.036 219.455 295.953C219.033 295.869 218.645 295.662 218.341 295.358C218.036 295.053 217.829 294.665 217.745 294.243C217.662 293.821 217.706 293.383 217.871 292.986C218.037 292.588 218.317 292.249 218.675 292.011C219.034 291.773 219.455 291.647 219.886 291.648C220.17 291.648 220.451 291.704 220.714 291.813C220.976 291.922 221.215 292.081 221.416 292.282C221.617 292.483 221.776 292.722 221.885 292.984C221.994 293.247 222.05 293.528 222.05 293.813Z"
        fill="#2A8BE9" />
    <path
        d="M180.226 253.719C180.253 254.12 180.16 254.52 179.959 254.868C179.759 255.216 179.46 255.497 179.099 255.676C178.739 255.854 178.334 255.922 177.936 255.87C177.537 255.819 177.163 255.65 176.86 255.386C176.557 255.122 176.34 254.774 176.234 254.386C176.129 253.998 176.141 253.588 176.268 253.207C176.396 252.826 176.634 252.491 176.951 252.245C177.269 251.999 177.653 251.853 178.053 251.824C178.321 251.806 178.589 251.84 178.843 251.925C179.097 252.01 179.332 252.144 179.534 252.32C179.735 252.496 179.901 252.711 180.019 252.951C180.138 253.191 180.209 253.452 180.226 253.719Z"
        fill="#2A8BE9" />
    <path
        d="M178.384 255.44C177.411 255.507 176.505 255.958 175.864 256.693C175.224 257.428 174.901 258.387 174.968 259.36L182.304 258.856C182.237 257.883 181.786 256.977 181.051 256.336C180.316 255.696 179.357 255.373 178.384 255.44Z"
        fill="#2A8BE9" />
    <path
        d="M207.344 232.12H189.301C188.57 232.12 187.869 232.41 187.352 232.927C186.836 233.444 186.545 234.145 186.545 234.875V246.174C186.545 246.536 186.617 246.894 186.755 247.227C186.894 247.561 187.097 247.864 187.353 248.119C187.609 248.375 187.913 248.577 188.247 248.714C188.581 248.852 188.939 248.922 189.301 248.921H189.666V251.624L192.795 248.921H207.344C207.706 248.922 208.064 248.852 208.398 248.714C208.732 248.577 209.036 248.375 209.292 248.119C209.548 247.864 209.751 247.561 209.889 247.227C210.028 246.894 210.099 246.536 210.099 246.174V234.875C210.099 234.145 209.809 233.444 209.292 232.927C208.776 232.41 208.075 232.12 207.344 232.12Z"
        fill="#2A8BE9" />
    <g opacity="0.4">
        <path
            d="M207.345 232.121H189.301C188.57 232.121 187.87 232.411 187.353 232.928C186.836 233.445 186.546 234.146 186.546 234.876V246.175C186.546 246.537 186.617 246.895 186.756 247.228C186.894 247.562 187.097 247.865 187.353 248.12C187.609 248.376 187.913 248.578 188.247 248.715C188.582 248.853 188.94 248.923 189.301 248.922H189.666V251.625L192.795 248.922H207.345C207.706 248.923 208.064 248.853 208.398 248.715C208.733 248.578 209.036 248.376 209.292 248.12C209.548 247.865 209.751 247.562 209.89 247.228C210.029 246.895 210.1 246.537 210.1 246.175V234.876C210.1 234.146 209.81 233.445 209.293 232.928C208.776 232.411 208.075 232.121 207.345 232.121Z"
            fill="white" />
    </g>
    <path
        d="M195.028 241.004V242.481H194.42V240.986L192.682 238.196H193.342L194.715 240.456L196.089 238.196H196.697L195.028 241.004Z"
        fill="white" />
    <path
        d="M196.567 240.856C196.56 240.519 196.653 240.188 196.835 239.905C197.017 239.621 197.279 239.399 197.588 239.265C197.897 239.132 198.239 239.093 198.57 239.154C198.901 239.216 199.206 239.374 199.447 239.61C199.688 239.846 199.852 240.148 199.921 240.477C199.989 240.807 199.957 241.149 199.83 241.461C199.703 241.773 199.486 242.04 199.207 242.227C198.927 242.415 198.598 242.516 198.261 242.516C198.039 242.527 197.817 242.491 197.608 242.412C197.4 242.333 197.21 242.212 197.051 242.056C196.892 241.9 196.767 241.713 196.684 241.506C196.6 241.3 196.56 241.078 196.567 240.856ZM199.348 240.856C199.332 240.641 199.254 240.435 199.122 240.265C198.99 240.095 198.811 239.967 198.607 239.898C198.404 239.829 198.184 239.821 197.976 239.876C197.767 239.931 197.58 240.046 197.437 240.207C197.294 240.368 197.202 240.568 197.171 240.781C197.141 240.994 197.174 241.212 197.267 241.406C197.36 241.6 197.507 241.763 197.692 241.874C197.877 241.985 198.09 242.039 198.305 242.029C198.455 242.031 198.604 242.001 198.741 241.942C198.879 241.882 199.002 241.794 199.103 241.683C199.204 241.572 199.281 241.441 199.327 241.298C199.374 241.156 199.39 241.005 199.374 240.856H199.348Z"
        fill="white" />
    <path
        d="M203.806 239.239V242.481H203.25V242.029C203.122 242.2 202.955 242.336 202.763 242.427C202.57 242.518 202.359 242.56 202.146 242.551C201.957 242.57 201.766 242.547 201.588 242.483C201.409 242.419 201.247 242.315 201.113 242.18C200.98 242.045 200.878 241.882 200.816 241.702C200.754 241.523 200.734 241.331 200.755 241.143V239.274H201.338V241.073C201.338 241.708 201.659 242.029 202.207 242.029C202.348 242.038 202.489 242.016 202.62 241.964C202.751 241.912 202.869 241.831 202.965 241.728C203.062 241.625 203.134 241.502 203.177 241.368C203.22 241.234 203.233 241.091 203.215 240.951V239.274L203.806 239.239Z"
        fill="white" />
    <path
        d="M100.36 322.486C100.485 322.486 100.586 321.903 100.586 321.183C100.586 320.463 100.485 319.879 100.36 319.879C100.235 319.879 100.134 320.463 100.134 321.183C100.134 321.903 100.235 322.486 100.36 322.486Z"
        fill="#263238" />
    <path
        d="M100.36 327.701C100.485 327.701 100.586 327.118 100.586 326.397C100.586 325.677 100.485 325.094 100.36 325.094C100.235 325.094 100.134 325.677 100.134 326.397C100.134 327.118 100.235 327.701 100.36 327.701Z"
        fill="#263238" />
    <path
        d="M100.36 332.916C100.485 332.916 100.586 332.332 100.586 331.612C100.586 330.892 100.485 330.309 100.36 330.309C100.235 330.309 100.134 330.892 100.134 331.612C100.134 332.332 100.235 332.916 100.36 332.916Z"
        fill="#263238" />
    <path
        d="M100.36 338.131C100.485 338.131 100.586 337.547 100.586 336.827C100.586 336.107 100.485 335.523 100.36 335.523C100.235 335.523 100.134 336.107 100.134 336.827C100.134 337.547 100.235 338.131 100.36 338.131Z"
        fill="#263238" />
    <path
        d="M100.36 342.616C100.485 342.616 100.586 342.195 100.586 341.677C100.586 341.159 100.485 340.738 100.36 340.738C100.235 340.738 100.134 341.159 100.134 341.677C100.134 342.195 100.235 342.616 100.36 342.616Z"
        fill="#263238" />
    <path
        d="M104.054 347.084C104.056 346.515 103.926 345.954 103.675 345.444C103.424 344.934 103.059 344.489 102.607 344.143C102.156 343.797 101.631 343.56 101.073 343.45C100.516 343.341 99.9401 343.361 99.3915 343.51C98.8429 343.659 98.3362 343.933 97.9107 344.31C97.4852 344.687 97.1525 345.157 96.9384 345.684C96.7243 346.21 96.6347 346.779 96.6765 347.346C96.7183 347.913 96.8903 348.463 97.1793 348.952C97.3184 349.196 97.5009 349.361 97.6747 349.613L99.8215 352.455C99.8839 352.538 99.9646 352.605 100.057 352.651C100.15 352.697 100.252 352.722 100.356 352.722C100.46 352.722 100.562 352.697 100.655 352.651C100.747 352.605 100.828 352.538 100.891 352.455L102.994 349.665C103.198 349.432 103.389 349.188 103.568 348.935C103.89 348.372 104.058 347.733 104.054 347.084ZM100.36 348.692C100.039 348.692 99.7247 348.596 99.4574 348.418C99.1901 348.239 98.9818 347.985 98.8588 347.688C98.7358 347.391 98.7036 347.064 98.7663 346.749C98.829 346.434 98.9838 346.144 99.2111 345.917C99.4384 345.69 99.728 345.535 100.043 345.472C100.359 345.409 100.685 345.442 100.982 345.565C101.279 345.688 101.533 345.896 101.712 346.163C101.89 346.431 101.986 346.745 101.986 347.066C101.986 347.497 101.814 347.911 101.51 348.216C101.205 348.52 100.791 348.692 100.36 348.692Z"
        fill="#455A64" />
    <path
        d="M194.124 348.691C194.124 348.813 175.385 348.917 152.283 348.917C129.181 348.917 110.442 348.813 110.442 348.691C110.442 348.569 129.173 348.465 152.283 348.465C175.394 348.465 194.124 348.569 194.124 348.691Z"
        fill="#263238" />
    <path
        d="M161.088 345.023C161.088 345.145 149.737 345.249 135.743 345.249C121.75 345.249 110.39 345.145 110.39 345.023C110.39 344.901 121.733 344.797 135.743 344.797C149.754 344.797 161.088 344.892 161.088 345.023Z"
        fill="#2A8BE9" />
    <path
        d="M124.114 352.846C121.888 353.07 119.649 353.145 117.413 353.072C115.174 353.145 112.932 353.069 110.703 352.846C112.932 352.617 115.174 352.542 117.413 352.62C119.649 352.541 121.888 352.617 124.114 352.846Z"
        fill="#263238" />
    <path
        d="M104.054 318.271C104.056 317.703 103.926 317.142 103.675 316.632C103.424 316.121 103.059 315.676 102.607 315.33C102.156 314.985 101.631 314.748 101.073 314.638C100.516 314.528 99.9401 314.549 99.3915 314.698C98.8429 314.847 98.3362 315.121 97.9107 315.498C97.4852 315.875 97.1525 316.345 96.9384 316.871C96.7243 317.398 96.6347 317.967 96.6765 318.534C96.7183 319.101 96.8903 319.65 97.1793 320.14C97.3184 320.375 97.5009 320.548 97.6747 320.8L99.8215 323.634C99.8839 323.717 99.9646 323.784 100.057 323.83C100.15 323.876 100.252 323.9 100.356 323.9C100.46 323.9 100.562 323.876 100.655 323.83C100.747 323.784 100.828 323.717 100.891 323.634L102.994 320.844C103.186 320.616 103.365 320.378 103.533 320.131C103.87 319.569 104.05 318.927 104.054 318.271ZM100.36 319.879C100.039 319.879 99.7247 319.784 99.4574 319.605C99.1901 319.427 98.9818 319.173 98.8588 318.876C98.7358 318.579 98.7036 318.252 98.7663 317.937C98.829 317.621 98.9838 317.332 99.2111 317.105C99.4384 316.877 99.728 316.722 100.043 316.66C100.359 316.597 100.685 316.629 100.982 316.752C101.279 316.875 101.533 317.084 101.712 317.351C101.89 317.618 101.986 317.932 101.986 318.254C101.986 318.685 101.814 319.098 101.51 319.403C101.205 319.708 100.791 319.879 100.36 319.879Z"
        fill="#2A8BE9" />
    <path
        d="M211.794 319.878C211.794 320.009 189.1 320.104 161.114 320.104C133.127 320.104 110.442 320.009 110.442 319.878C110.442 319.748 133.127 319.652 161.114 319.652C189.1 319.652 211.794 319.757 211.794 319.878Z"
        fill="#263238" />
    <path
        d="M182.138 316.21C182.138 316.341 166.077 316.436 146.269 316.436C126.461 316.436 110.39 316.341 110.39 316.21C110.39 316.08 126.452 315.984 146.269 315.984C166.085 315.984 182.138 316.089 182.138 316.21Z"
        fill="#2A8BE9" />
    <path
        d="M150.023 324.033C150.023 324.154 141.228 324.259 130.372 324.259C119.516 324.259 110.703 324.154 110.703 324.033C110.703 323.911 119.508 323.807 130.372 323.807C141.236 323.807 150.023 323.911 150.023 324.033Z"
        fill="#263238" />
    <path
        d="M356.882 111.152L352.919 102.331C347.321 101.874 342.095 99.3403 338.27 95.2272C334.445 91.1142 332.296 85.7193 332.246 80.1026C332.197 74.486 334.249 69.0537 338.001 64.8733C341.752 60.693 346.932 58.0668 352.521 57.5109C358.11 56.955 363.705 58.5096 368.207 61.8691C372.708 65.2286 375.79 70.1501 376.848 75.6666C377.905 81.183 376.861 86.8955 373.921 91.6814C370.981 96.4674 366.357 99.9807 360.959 101.531L356.882 111.152Z"
        fill="white" />
    <path
        d="M356.882 111.152C357.178 110.422 358.377 107.519 360.863 101.487L360.967 101.644H360.098L360.967 101.4C364.747 100.302 368.17 98.2279 370.893 95.3858C371.708 94.537 372.447 93.618 373.101 92.6393C373.431 92.1352 373.779 91.6224 374.109 91.0922L374.978 89.406C376.272 86.6648 376.992 83.688 377.094 80.6584C377.196 77.6288 376.678 74.6104 375.571 71.7884C374.464 68.9664 372.792 66.4005 370.657 64.2483C368.522 62.096 365.97 60.4028 363.158 59.2726C359.927 57.967 356.432 57.4515 352.962 57.769C349.43 58.0518 346.015 59.1721 343.002 61.037C340.134 62.8462 337.705 65.272 335.892 68.1379C334.171 70.8422 333.067 73.893 332.659 77.0728C331.929 82.8009 333.425 88.5907 336.84 93.2477C338.312 95.1956 340.07 96.9098 342.055 98.3322C345.267 100.567 349.011 101.919 352.91 102.252H353.015V102.313C355.422 107.858 356.569 110.483 356.874 111.178C356.552 110.492 355.353 107.893 352.815 102.4L352.902 102.461C348.951 102.165 345.151 100.824 341.889 98.5756C339.854 97.1519 338.051 95.4221 336.544 93.4476C333.05 88.726 331.509 82.8399 332.242 77.012C332.651 73.7691 333.77 70.6563 335.519 67.8946C337.386 64.8934 339.932 62.3723 342.951 60.5337C345.97 58.6951 349.378 57.5904 352.902 57.3083C356.429 57.009 359.978 57.5542 363.253 58.8989C366.394 60.1763 369.213 62.1322 371.51 64.6266C373.673 67.0008 375.303 69.8102 376.29 72.8661C378.082 78.3774 377.703 84.3648 375.23 89.6059C374.934 90.1796 374.63 90.7445 374.361 91.3442C374.091 91.9439 373.674 92.3959 373.335 92.9087C372.669 93.9006 371.913 94.8288 371.075 95.6813C368.305 98.5462 364.822 100.622 360.985 101.696V101.479H361.176L361.106 101.644C358.455 107.545 357.195 110.431 356.882 111.152Z"
        fill="#263238" />
    <path
        d="M364.314 79.0634C364.317 77.7606 364.02 76.4746 363.446 75.3054C362.871 74.1362 362.034 73.1154 361 72.3226C359.967 71.5297 358.764 70.9861 357.486 70.7341C356.208 70.4821 354.889 70.5285 353.631 70.8697C352.374 71.2109 351.212 71.8377 350.237 72.7013C349.261 73.5648 348.498 74.6419 348.007 75.8486C347.516 77.0552 347.31 78.359 347.405 79.6583C347.501 80.9576 347.894 82.2174 348.556 83.3396C348.878 83.8872 349.286 84.2783 349.695 84.8519L354.605 91.3618C354.748 91.5508 354.932 91.7042 355.144 91.8097C355.356 91.9153 355.59 91.9703 355.827 91.9703C356.063 91.9703 356.297 91.9153 356.509 91.8097C356.721 91.7042 356.905 91.5508 357.048 91.3618L361.88 84.9562C362.319 84.4381 362.728 83.8954 363.106 83.3309C363.884 82.0428 364.302 80.5686 364.314 79.0634ZM355.857 82.7486C355.119 82.7503 354.397 82.5329 353.782 82.1238C353.168 81.7148 352.688 81.1325 352.405 80.4508C352.122 79.7692 352.047 79.0187 352.191 78.2946C352.334 77.5705 352.69 76.9054 353.212 76.3834C353.734 75.8614 354.399 75.5061 355.123 75.3625C355.847 75.2189 356.598 75.2935 357.279 75.5768C357.961 75.8601 358.543 76.3393 358.952 76.9538C359.361 77.5683 359.579 78.2904 359.577 79.0286C359.576 79.519 359.478 80.0044 359.289 80.4569C359.1 80.9094 358.824 81.3202 358.476 81.6657C358.128 82.0113 357.715 82.2848 357.261 82.4706C356.807 82.6564 356.321 82.7509 355.831 82.7486H355.857Z"
        fill="#2A8BE9" />
    <path
        d="M293.458 69.9371C294.241 67.0429 296.422 65.5914 299.264 64.644C300.694 64.1717 302.216 64.0515 303.702 64.2936C305.188 64.5357 306.594 65.133 307.799 66.0347C309.399 67.2428 310.65 69.0158 312.545 69.6764C315.665 70.7628 319.324 68.4248 322.323 69.8242C323.221 70.2399 323.947 70.9557 324.375 71.8484C324.803 72.7412 324.906 73.7551 324.668 74.716C324.429 75.6768 323.863 76.5244 323.067 77.1132C322.271 77.702 321.295 77.995 320.306 77.942C322.34 78.6895 322.975 81.5924 321.784 83.409C320.593 85.2255 318.151 85.9034 316.013 85.5036C313.898 84.9873 311.966 83.9023 310.424 82.366C308.816 80.9145 307.365 79.2718 305.644 77.9594C303.971 76.5459 301.854 75.7672 299.664 75.7604C296.726 75.9169 294.214 78.1332 292.902 80.7581C291.59 83.3829 291.294 86.3988 291.164 89.3279C291.033 92.2569 290.946 95.2381 290.077 98.0194C289.973 98.3496 289.817 98.7147 289.486 98.819C289.017 98.9667 288.617 98.4626 288.374 98.0194C285.7 93.0534 284.025 87.6113 283.446 82.0009C283.115 78.7503 283.202 75.6735 284.984 72.9357C286.766 70.1979 291.285 68.1902 293.502 69.9111"
        fill="#263238" />
    <path
        d="M287.826 83.5481L286.322 116.445C286.07 122.043 286.835 130.352 295.701 130.352C303.393 129.778 305.661 122.59 305.896 117.367C306.009 114.89 306.104 112.821 306.13 112.569C306.13 112.569 314.544 112.169 315.526 103.878C316.004 99.8882 316.308 91.5791 316.499 84.0696C316.601 80.1672 315.226 76.3702 312.65 73.4375C310.073 70.5049 306.485 68.6526 302.602 68.2511L301.802 68.1642C293.154 67.7557 287.965 74.8827 287.826 83.5481Z"
        fill="#FFBE9D" />
    <path
        d="M306.122 112.412C302.288 112.075 298.641 110.602 295.649 108.18C295.649 108.18 297.561 114.403 305.896 114.542L306.122 112.412Z"
        fill="#EB996E" />
    <path
        d="M314.335 90.2057C314.307 90.5149 314.158 90.8003 313.92 91.0003C313.683 91.2003 313.376 91.2989 313.066 91.2748C312.915 91.2703 312.767 91.2358 312.629 91.1733C312.492 91.1108 312.368 91.0216 312.265 90.9107C312.162 90.7999 312.083 90.6697 312.031 90.5278C311.979 90.3858 311.956 90.235 311.963 90.084C311.994 89.7751 312.143 89.4901 312.38 89.2891C312.616 89.0881 312.922 88.9867 313.232 89.0063C313.383 89.0107 313.533 89.0455 313.671 89.1085C313.809 89.1715 313.933 89.2616 314.036 89.3734C314.139 89.4851 314.219 89.6164 314.27 89.7593C314.321 89.9023 314.344 90.054 314.335 90.2057Z"
        fill="#263238" />
    <path
        d="M314.257 87.9197C314.092 88.0587 313.275 87.3026 311.997 87.1722C310.719 87.0418 309.729 87.572 309.607 87.4069C309.485 87.2417 309.729 87.0679 310.163 86.8158C310.755 86.492 311.431 86.3584 312.101 86.4334C312.75 86.5072 313.358 86.784 313.84 87.2243C314.231 87.5633 314.335 87.8588 314.257 87.9197Z"
        fill="#263238" />
    <path
        d="M301.82 89.3107C301.791 89.6182 301.643 89.9023 301.408 90.1021C301.172 90.3019 300.868 90.4016 300.56 90.3798C300.408 90.3765 300.259 90.3428 300.121 90.2807C299.983 90.2186 299.858 90.1294 299.755 90.0183C299.652 89.9072 299.573 89.7765 299.521 89.6341C299.47 89.4916 299.448 89.3403 299.456 89.189C299.482 88.8799 299.629 88.5937 299.865 88.3921C300.101 88.1905 300.407 88.0896 300.716 88.1113C300.868 88.1157 301.017 88.1505 301.155 88.2135C301.294 88.2765 301.418 88.3666 301.521 88.4784C301.624 88.5901 301.703 88.7214 301.754 88.8643C301.806 89.0073 301.828 89.159 301.82 89.3107Z"
        fill="#263238" />
    <path
        d="M301.733 86.8249C301.576 86.964 300.75 86.2078 299.481 86.0775C298.212 85.9471 297.204 86.486 297.083 86.3121C296.961 86.1383 297.204 85.9732 297.639 85.7211C298.23 85.3973 298.907 85.2637 299.577 85.3387C300.224 85.4164 300.831 85.6927 301.315 86.1296C301.732 86.4512 301.819 86.7641 301.733 86.8249Z"
        fill="#263238" />
    <path
        d="M305.349 96.7504C306.04 96.6052 306.747 96.5526 307.452 96.594C307.782 96.594 308.095 96.594 308.173 96.3506C308.233 96.0164 308.194 95.6719 308.06 95.3598C307.834 94.5428 307.608 93.691 307.365 92.7523C306.4 89.0932 305.748 86.0946 305.896 86.0599C306.044 86.0251 306.939 88.9628 307.895 92.622C308.121 93.4911 308.347 94.3603 308.547 95.2294C308.701 95.6474 308.701 96.1064 308.547 96.5244C308.489 96.634 308.406 96.7287 308.305 96.8011C308.204 96.8734 308.087 96.9215 307.965 96.9416C307.78 96.9669 307.593 96.9669 307.409 96.9416C306.717 96.9594 306.025 96.8952 305.349 96.7504Z"
        fill="#263238" />
    <path
        d="M302.602 81.8794C302.446 82.2097 301.194 81.8794 299.682 81.9402C298.17 82.0011 296.918 82.2357 296.753 81.9402C296.683 81.7838 296.927 81.4796 297.448 81.1927C298.14 80.8494 298.901 80.6709 299.673 80.6713C300.447 80.6619 301.212 80.8346 301.907 81.1754C302.42 81.4187 302.663 81.7229 302.602 81.8794Z"
        fill="#263238" />
    <path
        d="M314.179 84.1915C313.927 84.4609 313.084 84.0611 312.032 83.9394C310.981 83.8177 310.068 83.9394 309.894 83.6004C309.816 83.444 309.99 83.1746 310.407 82.9399C310.962 82.66 311.591 82.5598 312.206 82.6531C312.826 82.7268 313.407 82.9944 313.866 83.4179C314.205 83.7482 314.292 84.0611 314.179 84.1915Z"
        fill="#263238" />
    <path
        d="M287.827 89.745C287.696 89.6668 282.325 87.4591 281.908 93.1347C281.491 98.8102 287.27 98.0627 287.288 97.8976C287.305 97.7325 287.827 89.745 287.827 89.745Z"
        fill="#FFBE9D" />
    <path
        d="M285.697 95.6207C285.697 95.6207 285.592 95.6816 285.418 95.7424C285.301 95.791 285.176 95.8159 285.049 95.8159C284.922 95.8159 284.797 95.791 284.68 95.7424C284.331 95.4831 284.057 95.1353 283.888 94.735C283.718 94.3347 283.658 93.8963 283.715 93.4652C283.732 92.9754 283.863 92.4963 284.097 92.0659C284.163 91.8923 284.27 91.7373 284.41 91.6146C284.549 91.4919 284.716 91.4051 284.897 91.3619C285.012 91.3401 285.13 91.3596 285.232 91.4168C285.334 91.4741 285.412 91.5654 285.453 91.6748C285.523 91.8399 285.453 91.9529 285.505 91.9616C285.557 91.9703 285.636 91.8834 285.61 91.64C285.584 91.4977 285.514 91.367 285.41 91.2663C285.336 91.2018 285.251 91.1524 285.159 91.1211C285.066 91.0898 284.968 91.0771 284.871 91.0838C284.636 91.1141 284.412 91.2033 284.221 91.3431C284.029 91.4828 283.876 91.6687 283.776 91.8834C283.496 92.3593 283.338 92.8965 283.315 93.4479C283.255 93.9501 283.342 94.4591 283.565 94.9129C283.789 95.3666 284.14 95.7454 284.575 96.0032C284.724 96.0579 284.884 96.0785 285.042 96.0634C285.199 96.0484 285.352 95.9981 285.488 95.9162C285.679 95.7598 285.714 95.6294 285.697 95.6207Z"
        fill="#EB996E" />
    <path
        d="M318.403 82.5228C316.524 82.8017 314.606 82.6321 312.805 82.0279C311.005 81.4236 309.373 80.4019 308.042 79.0462C306.209 77.1254 304.922 74.5005 302.48 73.4575C301.644 73.1365 300.752 72.985 299.857 73.0118C298.961 73.0387 298.08 73.2434 297.265 73.614C295.639 74.366 294.184 75.4427 292.989 76.7777C294.145 81.1234 292.572 85.7299 291.016 89.9801C290.893 90.4686 290.612 90.9026 290.216 91.2143C289.495 91.6575 288.539 91.1534 288.017 90.4755C287.271 89.3302 286.875 87.9921 286.879 86.6252C286.608 83.5337 286.956 80.4193 287.904 77.4643C288.868 74.4962 290.681 71.876 293.119 69.9288C296.26 67.5899 300.187 66.5644 304.07 67.0693C307.933 67.5985 311.529 69.3356 314.344 72.0321C315.705 73.2059 316.753 74.6991 317.395 76.3779"
        fill="#263238" />
    <path
        d="M305.74 100.358C305.565 100.868 305.319 101.35 305.01 101.792C304.853 102.012 304.651 102.197 304.417 102.333C304.183 102.47 303.923 102.555 303.654 102.583C303.365 102.582 303.081 102.509 302.828 102.371C302.575 102.233 302.36 102.034 302.202 101.792C301.901 101.299 301.761 100.725 301.802 100.149C301.802 99.6275 302.063 99.0104 302.576 98.9495C302.793 98.9395 303.009 98.9875 303.202 99.0886L305.913 100.184"
        fill="#EB996E" />
    <path
        d="M304.653 102.573C304.165 102.603 303.676 102.541 303.211 102.391C302.739 102.202 302.351 101.85 302.115 101.4C301.997 101.126 301.936 100.83 301.936 100.531C301.936 100.232 301.997 99.9363 302.115 99.6618C302.181 99.5169 302.263 99.3799 302.359 99.2533C302.463 99.1403 302.446 99.149 302.559 99.1664C302.672 99.1838 302.846 99.2794 302.993 99.3315C303.141 99.3837 303.297 99.4619 303.437 99.514C304.019 99.7487 304.54 99.9573 304.984 100.122C305.451 100.345 305.949 100.495 306.461 100.566C306.058 100.244 305.606 99.9891 305.123 99.8095C304.697 99.601 304.184 99.3663 303.61 99.1055L303.176 98.9143C303.015 98.8339 302.85 98.7642 302.68 98.7057C302.55 98.6671 302.411 98.6671 302.281 98.7057C302.159 98.7582 302.054 98.8422 301.976 98.9491C301.852 99.1052 301.749 99.2777 301.672 99.4619C301.525 99.8066 301.457 100.179 301.472 100.554C301.487 100.928 301.585 101.294 301.759 101.626C301.903 101.893 302.098 102.129 302.334 102.32C302.57 102.511 302.841 102.654 303.132 102.739C303.516 102.845 303.922 102.845 304.306 102.739C304.54 102.686 304.671 102.6 304.653 102.573Z"
        fill="#263238" />
    <path
        d="M355.673 336.574L362.009 354.948C362.009 354.948 382.807 354.687 384.311 357.964L349.119 371.531L338.081 343.301L355.673 336.574Z"
        fill="#2A8BE9" />
    <path
        d="M350.536 357.625C350.237 357.859 350.035 358.196 349.97 358.569C349.904 358.943 349.979 359.328 350.179 359.65C350.401 359.957 350.733 360.166 351.104 360.236C351.476 360.305 351.861 360.229 352.178 360.024C352.494 359.775 352.706 359.418 352.775 359.022C352.844 358.626 352.765 358.218 352.552 357.877C352.287 357.581 351.916 357.399 351.519 357.369C351.122 357.34 350.729 357.466 350.423 357.721"
        fill="#E0E0E0" />
    <g opacity="0.6">
        <path
            d="M349.118 371.531L348.118 368.646L382.232 356.756C382.232 356.756 384.066 356.834 384.31 358.007L349.118 371.531Z"
            fill="white" />
    </g>
    <path
        d="M362.504 354.549C362.565 354.723 361.739 355.131 361.105 356.009C360.47 356.887 360.305 357.747 360.114 357.747C359.923 357.747 359.81 356.652 360.592 355.601C361.374 354.549 362.487 354.375 362.504 354.549Z"
        fill="#263238" />
    <path
        d="M366.789 354.654C366.893 354.81 366.259 355.384 365.92 356.34C365.581 357.296 365.746 358.121 365.572 358.182C365.398 358.243 364.912 357.313 365.311 356.131C365.711 354.949 366.719 354.488 366.789 354.654Z"
        fill="#263238" />
    <path
        d="M370.587 358.26C370.439 358.364 369.874 357.591 369.952 356.522C370.03 355.453 370.691 354.723 370.821 354.836C370.952 354.949 370.639 355.644 370.587 356.574C370.535 357.504 370.752 358.182 370.587 358.26Z"
        fill="#263238" />
    <path
        d="M360.6 350.524C360.6 350.707 359.731 350.776 358.766 351.211C357.801 351.646 357.176 352.254 357.028 352.141C356.88 352.028 357.376 351.133 358.497 350.629C359.618 350.125 360.635 350.351 360.6 350.524Z"
        fill="#263238" />
    <path
        d="M226.569 334.158L226.178 334.671L218.555 344.588L209.125 351.054L221.754 375.391H235.66C235.66 375.391 234.661 372.044 227.968 370.315L227.525 356.965L239.537 343.771"
        fill="#2A8BE9" />
    <g opacity="0.6">
        <path
            d="M209.124 351.08L221.753 375.408L235.659 375.425L234.095 373.331L222.787 372.705L211.132 349.707L209.124 351.08Z"
            fill="white" />
    </g>
    <path
        d="M227.855 364.231C227.751 364.379 226.986 363.919 225.874 363.953C224.761 363.988 224.014 364.423 223.901 364.284C223.788 364.145 224.561 363.354 225.865 363.336C227.169 363.319 228.012 364.127 227.855 364.231Z"
        fill="#263238" />
    <path
        d="M227.664 360.919C227.525 361.023 226.899 360.198 225.795 359.981C224.691 359.763 223.796 360.267 223.709 360.128C223.622 359.989 223.822 359.833 224.213 359.615C224.738 359.347 225.338 359.265 225.916 359.382C226.494 359.499 227.015 359.808 227.394 360.259C227.672 360.606 227.725 360.884 227.664 360.919Z"
        fill="#263238" />
    <path
        d="M227.751 356.669C227.603 356.747 227.125 355.939 226.161 355.608C225.196 355.278 224.318 355.608 224.249 355.426C224.179 355.243 224.388 355.165 224.779 355.017C225.291 354.838 225.849 354.838 226.361 355.017C226.874 355.199 227.312 355.548 227.603 356.008C227.856 356.373 227.856 356.634 227.751 356.669Z"
        fill="#263238" />
    <path
        d="M231.479 353.376C231.314 353.428 230.923 352.637 230.063 352.081C229.202 351.524 228.324 351.438 228.324 351.264C228.324 351.09 229.35 350.864 230.401 351.568C231.453 352.272 231.644 353.35 231.479 353.376Z"
        fill="#263238" />
    <g opacity="0.6">
        <path
            d="M220.224 350.673C220.224 350.999 220.127 351.319 219.945 351.59C219.764 351.862 219.506 352.074 219.204 352.199C218.902 352.324 218.57 352.356 218.25 352.293C217.93 352.229 217.636 352.072 217.405 351.841C217.174 351.61 217.016 351.315 216.953 350.995C216.889 350.675 216.922 350.343 217.047 350.041C217.172 349.739 217.383 349.481 217.655 349.3C217.926 349.118 218.246 349.021 218.572 349.021C219.01 349.021 219.43 349.195 219.74 349.505C220.05 349.815 220.224 350.235 220.224 350.673Z"
            fill="white" />
    </g>
    <path
        d="M272.877 234.032L315.874 297.046L339.115 352.15L358.802 341.624L338.898 286.442L309.66 228.479L272.877 234.032Z"
        fill="#263238" />
    <path d="M255.121 228.479L247.95 279.202L218.599 343.206L236.078 353.375L273.408 289.936L294.128 228.479H255.121Z"
        fill="#263238" />
    <path
        d="M236.077 353.375C236.117 353.268 236.169 353.166 236.234 353.071C236.347 352.854 236.512 352.558 236.72 352.202C237.164 351.411 237.807 350.281 238.624 348.847C240.31 345.918 242.726 341.72 245.716 336.549L269.253 296.072L273.642 288.545V288.589L286.549 249.729C288.183 244.862 289.504 240.942 290.425 238.213L291.485 235.11L291.772 234.31C291.801 234.217 291.839 234.127 291.885 234.041C291.867 234.138 291.844 234.233 291.816 234.328L291.564 235.136L290.573 238.265L286.835 249.825C283.611 259.646 279.126 273.292 274.068 288.737L269.678 296.263C260.448 312.038 252.087 326.31 246.029 336.679C242.987 341.816 240.527 345.987 238.815 348.899C237.946 350.316 237.294 351.428 236.833 352.211L236.303 353.08C236.235 353.184 236.16 353.282 236.077 353.375Z"
        fill="#455A64" />
    <path
        d="M312.389 201.013L310.937 179.241L305.427 127.909L307.382 117.21L285.654 108.519L283.046 113.733C270.009 115.698 264.507 141.451 264.507 141.451L264.055 193.817L249.584 229.313L253.339 232.624C259.275 236.188 314.579 233.946 314.579 233.946L312.389 201.013Z"
        fill="#2A8BE9" />
    <g opacity="0.3">
        <path
            d="M255.12 215.694C258.911 220.491 263.325 224.762 268.244 228.393C270.947 230.418 274.146 232.339 277.475 231.808C280.803 231.278 283.089 228.636 285.201 226.142L297.083 212.131C297.829 211.395 298.361 210.47 298.621 209.454C298.681 208.784 298.557 208.111 298.263 207.506C297.969 206.901 297.516 206.388 296.952 206.021C295.817 205.294 294.516 204.867 293.171 204.778C284.828 203.787 276.658 207.933 268.27 208.002C265.402 208.002 260.726 207.455 258.014 208.402L255.12 215.694Z"
            fill="black" />
    </g>
    <path
        d="M299.907 181.527C302.06 183.638 303.4 186.44 303.694 189.44C303.988 192.44 303.217 195.448 301.515 197.937L294.084 208.81L283.298 222.908C282.566 223.86 281.64 224.646 280.582 225.213C279.523 225.781 278.356 226.117 277.158 226.199C275.96 226.281 274.758 226.108 273.631 225.69C272.505 225.273 271.481 224.62 270.626 223.777L221.441 185.882C219.933 184.721 218.934 183.021 218.654 181.14C218.374 179.258 218.834 177.341 219.937 175.791L239.927 147.648C240.487 146.858 241.196 146.186 242.016 145.67C242.835 145.155 243.749 144.807 244.703 144.645C245.658 144.484 246.635 144.512 247.578 144.729C248.521 144.946 249.413 145.347 250.201 145.91L299.907 181.527Z"
        fill="#455A64" />
    <path
        d="M274.432 225.906C274.462 225.812 274.506 225.724 274.563 225.645L274.997 224.906C275.388 224.263 275.979 223.324 276.736 222.125C278.291 219.735 280.595 216.293 283.445 212.06C286.296 207.827 289.729 202.812 293.449 197.18C294.421 195.765 295.292 194.284 296.057 192.748C296.429 191.972 296.62 191.122 296.613 190.262C296.546 189.392 296.219 188.562 295.674 187.88C294.579 186.472 292.937 185.499 291.416 184.404L286.713 181.066L254.225 157.895L244.447 150.768L241.761 148.864L241.074 148.351C240.927 148.23 240.848 148.169 240.857 148.16C240.942 148.206 241.023 148.259 241.1 148.317L241.813 148.786L244.516 150.663L254.416 157.617L286.983 180.675L291.685 184.021C293.197 185.142 294.857 186.107 296.031 187.62C296.624 188.367 296.978 189.275 297.048 190.227C297.058 191.158 296.856 192.08 296.457 192.921C295.671 194.473 294.779 195.968 293.788 197.397C290.051 203.03 286.583 208.018 283.706 212.234C277.935 220.647 274.432 225.906 274.432 225.906Z"
        fill="#263238" />
    <path
        d="M293.103 115.48C293.103 115.48 279.135 108.092 258.041 141.555L261.778 145.9C261.778 145.9 279.396 114.924 291.034 118.67C302.672 122.416 285.584 171.245 285.584 171.245C285.584 171.245 311.19 122.573 293.103 115.48Z"
        fill="#263238" />
    <path
        d="M246.438 153.132C243.538 156.057 241.718 159.879 241.274 163.974C240.831 168.068 241.79 172.191 243.995 175.669C244.16 175.921 244.317 176.156 244.482 176.382L263.49 205.881L279.396 196.077L263.968 168.151C263.968 168.151 271.13 160.763 278.918 152.454C289.408 141.251 300.577 127.51 292.572 119.618C292.572 119.618 287.122 115.272 278.735 121.782C272.668 126.432 255.485 143.858 246.438 153.132Z"
        fill="#2A8BE9" />
    <path
        d="M346.52 132.16L354.803 130.1C354.803 130.1 357.037 132.108 355.881 134.185C354.725 136.262 352.778 141.503 352.778 141.503L346.373 143.572L344.565 148.787L333.544 144.084L336.499 134.307L342.679 126.658L347.337 125.945L350.475 128.605C350.475 128.605 347.868 130.508 346.129 128.457L343.991 129.283L344.182 130.569C344.223 130.831 344.318 131.082 344.46 131.305C344.602 131.529 344.788 131.722 345.007 131.871C345.226 132.02 345.473 132.122 345.734 132.172C345.994 132.222 346.262 132.218 346.52 132.16Z"
        fill="#FFBE9D" />
    <path
        d="M354.751 130.438L360.166 127.831C360.512 127.723 360.88 127.703 361.236 127.771C361.592 127.839 361.926 127.994 362.208 128.222L362.478 128.787L355.994 133.028L354.751 130.438Z"
        fill="#FFBE9D" />
    <path
        d="M343.365 138.879C343.488 138.398 343.675 137.936 343.922 137.505C344.447 136.467 344.73 135.323 344.747 134.159C344.728 133.533 344.565 132.92 344.269 132.369C344.122 132.11 343.997 131.84 343.895 131.56C343.813 131.305 343.778 131.037 343.791 130.769C343.763 130.264 343.825 129.758 343.974 129.274C344.077 129.76 344.123 130.256 344.113 130.752C344.148 131.264 344.329 131.756 344.634 132.169C344.987 132.768 345.181 133.447 345.199 134.142C345.184 135.368 344.842 136.568 344.208 137.618C344.006 138.086 343.72 138.513 343.365 138.879Z"
        fill="#EB996E" />
    <path
        d="M367.875 119.113C367.953 119.27 369.074 120.938 369.074 120.938L344.373 139.121L342.826 137.148L367.875 119.113Z"
        fill="#263238" />
    <path
        d="M352.656 141.138C352.759 140.987 352.829 140.817 352.864 140.637C352.899 140.458 352.897 140.274 352.859 140.095C352.821 139.917 352.747 139.748 352.642 139.598C352.537 139.449 352.403 139.322 352.248 139.226C351.601 138.859 350.861 138.69 350.118 138.739C348.91 138.667 347.696 138.734 346.503 138.939C346.105 138.994 345.728 139.15 345.408 139.391C345.25 139.513 345.132 139.679 345.07 139.868C345.008 140.057 345.005 140.26 345.06 140.452C345.234 140.912 345.781 141.077 346.251 141.173C347.532 141.426 348.839 141.528 350.144 141.477"
        fill="#FFBE9D" />
    <path
        d="M350.144 141.477C349.382 141.646 348.596 141.675 347.824 141.564C347.459 141.564 347.068 141.503 346.65 141.434C346.173 141.402 345.708 141.268 345.286 141.042C345.158 140.961 345.049 140.852 344.967 140.725C344.884 140.598 344.83 140.454 344.808 140.304C344.775 139.992 344.866 139.68 345.06 139.435C345.461 139.001 346.01 138.735 346.598 138.687C347.626 138.515 348.67 138.459 349.71 138.522C350.58 138.46 351.451 138.634 352.23 139.026C352.492 139.188 352.703 139.421 352.837 139.698C352.97 139.975 353.023 140.285 352.987 140.591C352.908 141.025 352.665 141.155 352.656 141.138C352.648 141.121 352.795 140.947 352.813 140.573C352.811 140.313 352.742 140.058 352.61 139.834C352.479 139.61 352.291 139.424 352.065 139.295C351.319 138.981 350.507 138.858 349.701 138.939C348.692 138.906 347.682 138.97 346.685 139.13C346.208 139.167 345.759 139.37 345.416 139.704C345.349 139.772 345.298 139.854 345.266 139.943C345.235 140.033 345.223 140.129 345.233 140.224C345.243 140.319 345.274 140.41 345.324 140.492C345.374 140.573 345.441 140.643 345.521 140.695C345.891 140.893 346.294 141.02 346.711 141.069C347.12 141.147 347.502 141.208 347.85 141.251C349.258 141.425 350.144 141.408 350.144 141.477Z"
        fill="#EB996E" />
    <path
        d="M354.751 136.08C352.778 135.602 351.37 135.402 349.397 134.915C348.77 134.69 348.088 134.671 347.45 134.863C346.833 135.115 346.45 135.975 346.902 136.462C347.073 136.625 347.278 136.746 347.502 136.818L353.395 139.13"
        fill="#FFBE9D" />
    <path
        d="M353.378 139.13C352.589 138.957 351.818 138.713 351.074 138.4L348.667 137.488L347.215 136.923C347.057 136.865 346.914 136.772 346.798 136.65C346.681 136.527 346.595 136.38 346.546 136.219C346.506 136.052 346.501 135.878 346.531 135.709C346.561 135.54 346.625 135.379 346.72 135.236C346.891 134.951 347.155 134.733 347.467 134.619C347.747 134.527 348.042 134.488 348.336 134.506C348.859 134.571 349.377 134.676 349.884 134.819L352.43 135.41C353.226 135.549 354.004 135.773 354.751 136.079C353.946 136.021 353.147 135.902 352.361 135.723C351.631 135.593 350.753 135.445 349.753 135.228C349.269 135.097 348.775 135.004 348.276 134.95C348.041 134.913 347.8 134.943 347.582 135.037C347.364 135.13 347.176 135.284 347.041 135.48C346.923 135.665 346.88 135.889 346.92 136.106C346.954 136.203 347.011 136.291 347.084 136.363C347.158 136.436 347.248 136.49 347.346 136.523L348.762 137.096L351.179 138.096C351.944 138.367 352.68 138.714 353.378 139.13Z"
        fill="#EB996E" />
    <path
        d="M356.002 133.003L350.666 132.038C350.023 131.852 349.338 131.876 348.71 132.108C348.119 132.403 347.798 133.281 348.276 133.742C348.456 133.89 348.667 133.996 348.893 134.055L354.925 135.993"
        fill="#FFBE9D" />
    <path
        d="M354.925 135.992C354.129 135.876 353.346 135.684 352.587 135.419L350.092 134.671L348.615 134.211C348.452 134.165 348.303 134.084 348.176 133.972C348.05 133.861 347.95 133.723 347.885 133.567C347.831 133.405 347.811 133.233 347.826 133.063C347.841 132.893 347.891 132.727 347.971 132.577C348.117 132.276 348.363 132.036 348.667 131.899C348.939 131.773 349.236 131.711 349.536 131.716C350.063 131.732 350.587 131.802 351.1 131.925L353.656 132.438C354.451 132.559 355.234 132.754 355.994 133.02C355.19 133.007 354.39 132.917 353.604 132.75L350.996 132.333C350.507 132.228 350.01 132.17 349.51 132.159C349.276 132.138 349.04 132.185 348.832 132.294C348.624 132.404 348.451 132.571 348.336 132.777C347.754 133.837 349.353 133.915 350.179 134.271L352.647 135.141C353.431 135.354 354.193 135.64 354.925 135.992Z"
        fill="#EB996E" />
    <path
        d="M345.191 148.03L329.111 182.379C328.361 183.985 327.217 185.375 325.786 186.42C324.354 187.466 322.682 188.132 320.924 188.358C318.669 188.646 316.381 188.195 314.403 187.073C312.426 185.951 310.865 184.219 309.955 182.135L297.961 154.67L304.775 125.032L320.854 159.598L334.031 140.929L345.191 148.03Z"
        fill="#2A8BE9" />
    <path
        d="M316.161 171.193C316.701 169.116 317.395 167.082 318.238 165.109C318.932 163.092 319.765 161.126 320.732 159.225C320.19 161.301 319.496 163.334 318.655 165.309C317.961 167.326 317.128 169.292 316.161 171.193Z"
        fill="#263238" />
    <path
        d="M312.597 200.648C312.549 200.407 312.517 200.163 312.501 199.918C312.458 199.397 312.388 198.684 312.31 197.797C312.145 195.903 311.919 193.243 311.641 189.975C311.067 183.335 310.276 174.235 309.407 164.187C308.538 154.14 307.591 145.005 306.861 138.417C306.487 135.158 306.183 132.507 305.991 130.595C305.887 129.726 305.8 128.996 305.739 128.474C305.699 128.227 305.681 127.977 305.687 127.727C305.687 127.727 305.748 127.979 305.835 128.457C305.922 128.935 306.026 129.682 306.165 130.569C306.435 132.403 306.8 135.062 307.2 138.348C308.008 144.927 308.938 154.036 309.877 164.109C310.815 174.183 311.502 183.309 311.98 189.914C312.197 193.191 312.38 195.859 312.501 197.737C312.554 198.606 312.588 199.344 312.614 199.875C312.635 200.132 312.629 200.392 312.597 200.648Z"
        fill="#263238" />
    <path
        d="M276.049 198.05L278.144 202.396C278.144 202.396 282.298 202.891 284.019 203.691C285.74 204.49 291.92 209.87 291.92 209.87C291.714 210.298 291.365 210.64 290.933 210.839C290.502 211.037 290.015 211.079 289.556 210.957C288.19 210.185 286.883 209.313 285.645 208.349C285.302 208.407 284.98 208.55 284.707 208.764C284.434 208.978 284.218 209.257 284.08 209.576C283.942 209.894 283.886 210.242 283.916 210.588C283.946 210.934 284.063 211.267 284.254 211.556C285.488 213.399 286.905 215.546 287.044 215.902C287.183 216.258 289.912 217.397 291.963 218.214C292.228 218.329 292.45 218.525 292.598 218.772C292.746 219.02 292.812 219.308 292.788 219.596C292.764 219.883 292.651 220.156 292.464 220.376C292.277 220.596 292.026 220.752 291.746 220.822C291.627 220.857 291.5 220.857 291.381 220.822C291.381 220.822 292.372 222.907 288.774 222.308C288.774 222.308 286.392 223.933 284.541 222.934C284.541 222.934 281.143 223.698 279.639 223.194C278.135 222.69 271.903 213.903 271.903 213.903L266.48 204.082L276.049 198.05Z"
        fill="#FFBE9D" />
    <path
        d="M281.681 213.808C281.833 214.419 282.073 215.004 282.394 215.546C283.036 216.96 284.004 218.202 285.219 219.17C286.503 220.015 287.986 220.509 289.521 220.604C290.137 220.701 290.765 220.701 291.381 220.604C290.789 220.432 290.18 220.33 289.564 220.3C288.118 220.106 286.732 219.595 285.505 218.805C284.355 217.879 283.4 216.733 282.698 215.433C282.423 214.854 282.082 214.308 281.681 213.808Z"
        fill="#EB996E" />
    <path
        d="M279.909 215.832C279.962 216.417 280.156 216.981 280.474 217.475C280.758 218.036 281.087 218.574 281.456 219.083C281.897 219.734 282.465 220.29 283.125 220.717C283.807 221.065 284.527 221.334 285.271 221.517L287.01 221.977C287.548 222.163 288.11 222.271 288.678 222.299C288.193 222.004 287.665 221.784 287.114 221.647C286.619 221.473 286.027 221.273 285.376 221.073C284.673 220.879 283.991 220.614 283.342 220.282C282.737 219.889 282.212 219.384 281.795 218.796C281.417 218.32 281.069 217.82 280.752 217.301C280.213 216.415 280.004 215.815 279.909 215.832Z"
        fill="#EB996E" />
    <path
        d="M278.04 218.336C277.883 218.449 278.987 220.022 280.439 221.813C280.644 222.06 280.911 222.249 281.212 222.36C281.458 222.472 281.71 222.568 281.968 222.647C282.399 222.784 282.841 222.883 283.289 222.943C284.054 223.038 284.541 222.943 284.532 222.882C284.524 222.821 284.072 222.778 283.35 222.595C282.931 222.494 282.519 222.366 282.116 222.213C281.875 222.132 281.64 222.036 281.412 221.926C281.185 221.836 280.982 221.693 280.821 221.509C280.091 220.587 279.404 219.77 278.9 219.223C278.396 218.675 278.092 218.31 278.04 218.336Z"
        fill="#EB996E" />
    <path
        d="M303.471 115.854C303.369 117.297 303.154 118.73 302.828 120.139C302.647 121.579 302.357 123.003 301.959 124.398C301.898 122.939 302.029 121.478 302.35 120.052C302.539 118.61 302.916 117.199 303.471 115.854Z"
        fill="#263238" />
    <path
        d="M296.787 118.488C296.818 117.648 297 116.82 297.326 116.045C297.514 115.225 297.847 114.446 298.308 113.742C298.267 114.582 298.082 115.408 297.761 116.185C297.578 117.005 297.248 117.785 296.787 118.488Z"
        fill="#263238" />
    <path
        d="M291.868 116.072C292.016 115.301 292.311 114.566 292.737 113.908C293.025 113.179 293.453 112.515 293.998 111.952C293.853 112.724 293.558 113.459 293.128 114.116C292.836 114.842 292.408 115.505 291.868 116.072Z"
        fill="#263238" />
    <path
        d="M285.41 115.324C285.866 114.379 286.451 113.501 287.148 112.717C287.726 111.84 288.426 111.05 289.226 110.37C288.776 111.319 288.19 112.197 287.487 112.978C286.909 113.854 286.21 114.644 285.41 115.324Z"
        fill="#263238" />
    <path
        d="M264.055 168.429C263.556 168.104 263.074 167.753 262.612 167.377C260.274 165.736 257.462 164.909 254.607 165.022C254.031 165.092 253.45 165.124 252.869 165.117C253.418 164.874 254.007 164.732 254.607 164.7C256.069 164.557 257.544 164.696 258.953 165.109C260.361 165.524 261.674 166.209 262.821 167.125C263.309 167.48 263.728 167.922 264.055 168.429Z"
        fill="#263238" />
    <path
        d="M259.388 157.321C259.916 157.653 260.386 158.07 260.778 158.555C262.814 160.812 264.088 163.652 264.42 166.673C264.528 167.289 264.528 167.918 264.42 168.533C264.024 164.345 262.259 160.404 259.396 157.321H259.388Z"
        fill="#263238" />
    <path
        d="M279.457 195.868C279.329 195.704 279.216 195.53 279.118 195.347L278.205 193.791L274.894 187.985C272.104 183.005 268.245 176.121 263.881 168.351L263.803 168.203L263.916 168.082L267.289 164.536L285.132 145.858L290.573 140.225L292.068 138.713C292.239 138.533 292.422 138.364 292.616 138.209C292.469 138.411 292.31 138.602 292.138 138.783L290.703 140.347L285.358 146.075C280.795 150.907 274.537 157.53 267.619 164.84L264.238 168.395V168.134C268.584 175.956 272.364 182.84 275.12 187.837C276.458 190.306 277.544 192.296 278.318 193.713L279.187 195.303C279.296 195.482 279.386 195.672 279.457 195.868Z"
        fill="#263238" />
    <g opacity="0.3">
        <path
            d="M271.13 160.815L277.336 165.265C278.218 164.801 278.986 164.148 279.587 163.353C284.251 156.832 287.658 149.498 289.635 141.729L271.13 160.815Z"
            fill="black" />
    </g>
    <path
        d="M280.091 151.046C279.979 149.889 279.636 148.766 279.083 147.743C278.453 146.661 277.618 145.714 276.623 144.954C275.387 144.032 274.026 143.292 272.581 142.755C271.052 142.137 269.531 141.712 268.175 141.164C266.944 140.723 265.834 139.999 264.933 139.052C264.327 138.402 263.917 137.595 263.751 136.723C263.668 136.409 263.668 136.08 263.751 135.767C263.751 135.767 263.751 136.114 263.916 136.688C264.144 137.496 264.571 138.235 265.159 138.835C266.055 139.712 267.136 140.377 268.323 140.782C269.644 141.294 271.182 141.703 272.738 142.329C274.222 142.886 275.616 143.659 276.875 144.623C277.899 145.43 278.743 146.443 279.352 147.596C279.762 148.372 280.022 149.218 280.117 150.09C280.167 150.408 280.158 150.732 280.091 151.046Z"
        fill="#F5F5F5" />
    <path
        d="M308.512 154.922C308.123 154.92 307.734 154.894 307.348 154.844C306.303 154.766 305.254 154.766 304.21 154.844C302.88 154.94 301.316 155.166 299.569 155.435C297.667 155.761 295.744 155.947 293.815 155.991C291.859 156.041 289.916 155.662 288.122 154.879C286.67 154.194 285.423 153.139 284.506 151.819C283.889 150.929 283.507 149.898 283.394 148.821C283.363 148.532 283.363 148.241 283.394 147.952C283.394 147.752 283.394 147.656 283.446 147.656C283.498 147.656 283.446 148.073 283.568 148.804C283.744 149.829 284.158 150.8 284.776 151.637C285.686 152.878 286.902 153.863 288.305 154.496C290.045 155.234 291.925 155.587 293.815 155.531C295.722 155.493 297.625 155.322 299.508 155.018C301.246 154.775 302.845 154.575 304.193 154.523C305.252 154.469 306.314 154.513 307.365 154.653C307.758 154.689 308.144 154.78 308.512 154.922Z"
        fill="#F5F5F5" />
    <path
        d="M314.344 146.822C313.694 148.005 312.795 149.034 311.711 149.838C310.626 150.642 309.381 151.203 308.06 151.481C308.06 151.351 309.711 150.768 311.441 149.473C313.171 148.178 314.231 146.744 314.344 146.822Z"
        fill="#F5F5F5" />
    <path
        d="M316.821 152.681C315.917 154.137 314.73 155.397 313.332 156.388C311.933 157.379 310.351 158.081 308.677 158.452C310.18 157.723 311.634 156.898 313.032 155.983C314.366 154.967 315.632 153.864 316.821 152.681Z"
        fill="#F5F5F5" />
    <path
        d="M309.642 164.674C308.083 163.811 306.365 163.276 304.592 163.101C302.663 162.945 300.724 162.945 298.795 163.101C296.411 163.3 294.014 163.283 291.633 163.049C287.292 162.571 283.095 161.211 279.3 159.051C278.157 158.398 277.06 157.669 276.015 156.869C275.621 156.588 275.255 156.271 274.919 155.922C275.339 156.161 275.74 156.431 276.119 156.73C277.196 157.467 278.31 158.148 279.456 158.773C283.245 160.825 287.394 162.127 291.677 162.606C294.037 162.83 296.413 162.856 298.778 162.684C300.726 162.54 302.683 162.567 304.627 162.762C305.947 162.913 307.232 163.29 308.425 163.875C308.747 164.031 309.055 164.214 309.346 164.422C309.555 164.561 309.651 164.674 309.642 164.674Z"
        fill="#F5F5F5" />
    <path
        d="M276.527 154.019C276.488 154.226 276.424 154.427 276.336 154.619L276.275 154.784L276.206 154.619C275.613 153.372 274.626 152.355 273.398 151.725C272.453 151.217 271.453 150.82 270.417 150.542C269.296 150.203 268.053 149.917 266.801 149.465C264.134 148.49 261.763 146.843 259.918 144.684C259.364 144.038 258.87 143.342 258.44 142.607C258.259 142.341 258.121 142.047 258.032 141.738C258.101 141.686 258.727 142.877 260.161 144.45C262.032 146.498 264.365 148.068 266.967 149.03C268.183 149.473 269.418 149.769 270.556 150.125C271.617 150.422 272.636 150.851 273.59 151.403C274.862 152.084 275.842 153.206 276.345 154.558H276.214C276.406 154.184 276.527 154.01 276.527 154.019Z"
        fill="#F5F5F5" />
    <path
        d="M400 375.425C400 375.547 310.478 375.651 200.009 375.651C89.5398 375.651 0 375.547 0 375.425C0 375.304 89.5224 375.199 200.009 375.199C310.495 375.199 400 375.304 400 375.425Z"
        fill="#263238" />
</svg>