<?xml version="1.0" encoding="utf-8"?>
<!-- Generator: Adobe Illustrator 16.0.0, SVG Export Plug-In . SVG Version: 6.00 Build 0)  -->
<!DOCTYPE svg PUBLIC "-//W3C//DTD SVG 1.1//EN" "http://www.w3.org/Graphics/SVG/1.1/DTD/svg11.dtd">
<svg version="1.1" id="Layer_1" xmlns="http://www.w3.org/2000/svg" xmlns:xlink="http://www.w3.org/1999/xlink" x="0px" y="0px"
	 width="24px" height="24px" viewBox="0 0 24 24" enable-background="new 0 0 24 24" xml:space="preserve">
<g transform="translate(0.000000,512.000000) scale(0.100000,-0.100000)">
	<path fill="#0C4072" d="M159.736,5119.145c-5.996-2.202-10.879-7.168-12.656-12.988c-0.703-2.344-0.938-4.36-0.938-8.765
		c0-6.753,0.752-8.862,3.711-10.928l1.865-1.313l0.049-9.473v-9.517h-11.719c-10.42,0-11.963-0.093-14.072-0.894
		c-3.657-1.406-6.284-3.794-8.062-7.456l-1.548-3.145l-0.142-17.441l-0.142-17.49h-11.016H94.092v4.458
		c0,3.281-0.234,5.063-0.938,6.987c-3.281,8.765-13.32,12.896-21.802,9.004c-6.382-2.91-9.565-8.584-9.614-17.026v-3.374
		l-15.854-0.142l-15.796-0.137l-2.207-1.27c-1.172-0.752-2.91-2.153-3.843-3.237c-3.096-3.652-3.096-3.516-3.096-30.43v-24.238
		l1.079-0.986c1.597-1.504,4.17-1.406,5.439,0.186c0.889,1.123,0.981,1.875,0.981,7.314c0,5.625,0.049,6.094,0.85,5.762
		c1.265-0.508,5.767-1.162,7.969-1.162c1.919,0,1.968,0,1.968-1.641c0-1.318-0.186-1.65-0.889-1.65c-1.27,0-3.799-2.246-4.551-4.072
		c-0.933-2.158-0.84-7.041,0.19-9.053c0.42-0.898,1.499-2.109,2.393-2.676c1.543-1.035,1.919-1.084,12.422-1.084
		c9.614,0,11.021,0.098,12.427,0.85c2.437,1.318,3.33,3.379,3.33,7.832c0,4.551-0.938,6.475-3.75,7.646
		c-1.641,0.703-1.88,0.977-1.88,2.334v1.514h19.229h19.224v-1.641c0-1.318-0.186-1.65-0.938-1.65c-1.499,0-4.17-2.725-4.736-4.834
		c-0.654-2.529-0.283-7.49,0.708-8.994c0.464-0.664,1.45-1.641,2.295-2.109c1.362-0.85,2.441-0.947,12.192-0.947
		c9.048,0,10.972,0.146,12.383,0.801c2.622,1.23,3.418,3.008,3.418,7.646c0,4.785-0.894,6.709-3.75,7.881
		c-1.641,0.703-1.875,0.977-1.875,2.334c0,1.416,0.093,1.514,1.782,1.514c1.826,0,6.558,0.703,8.12,1.162
		c0.879,0.283,0.879-0.605,0.879-39.57c0-44.6,0.146-42.617-3.242-44.697l-1.68-1.064H77.915c-42.622,0-45.107,0.039-46.328,0.83
		c-0.752,0.479-1.738,1.514-2.202,2.354c-0.894,1.455-0.942,2.578-0.942,28.74c0,26.875,0,27.295-0.981,28.516
		c-0.752,0.938-1.362,1.221-2.813,1.221c-2.676,0-3.706-1.221-3.706-4.463v-2.578h-2.954c-5.63,0-9.658-2.334-12.285-7.07
		l-1.406-2.539v-14.063c0-13.701,0.044-14.111,1.074-16.221c2.349-4.785,6.523-7.461,12.1-7.842l3.472-0.234v-1.494
		c0-4.229,3.374-9.141,7.642-11.26l2.485-1.172l47.314,0.098c46.001,0.137,47.407,0.186,49.233,1.074
		c3.994,1.973,6.846,6.006,7.5,10.645c0.283,1.973,0.479,2.256,1.455,2.256c1.084,0,1.133-0.146,1.133-3.145
		c0-2.07,0.322-3.848,0.889-5.068c2.764-6.143,10.83-7.588,15.752-2.852c2.393,2.295,3.057,4.268,3.057,9.326v3.613h18.477h18.428
		l0.234-4.414c0.186-3.701,0.459-4.785,1.494-6.563c2.764-4.688,8.955-6.24,13.643-3.33c3.242,2.012,4.404,4.502,4.785,9.941
		l0.283,4.268l4.736,0.186c3.789,0.186,5.303,0.469,7.314,1.416c3.281,1.494,5.908,4.121,7.461,7.402l1.211,2.578l0.146,53.037
		l0.088,53.032l-0.986,1.221c-1.357,1.782-4.17,1.782-5.527,0.049c-0.986-1.27-0.986-1.362-0.986-52.993
		c0-35.303-0.146-52.139-0.518-53.027c-0.703-1.982-3.184-4.316-5.107-4.834c-0.986-0.283-15.059-0.469-36.396-0.469h-34.736
		l0.42,2.725c0.234,1.445,0.371,7.725,0.283,13.926c-0.146,10.547-0.234,11.387-1.27,13.691c-0.557,1.309-1.592,2.861-2.207,3.467
		l-1.123,1.035v54.766c0,52.988-0.049,54.766-0.889,55.806c-1.27,1.543-4.453,1.543-5.723,0c-0.84-1.04-0.889-2.769-0.889-54.019
		v-52.949h-2.344h-2.344v32.725c0,35.601,0,35.786-2.627,39.585c-1.504,2.158-4.6,4.312-7.363,5.161l-1.787,0.513l0.146,16.743
		l0.137,16.738l1.27,1.875c2.432,3.657-1.123,3.423,51.016,3.423c51.484,0,47.969,0.234,50.508-3.14l1.309-1.689l0.234-13.267
		c0.234-12.148,0.322-13.32,1.123-14.209c1.357-1.504,4.131-1.362,5.439,0.278c0.986,1.216,0.986,1.592,0.85,14.912l-0.146,13.599
		l-1.309,2.671c-1.416,2.905-3.896,5.391-6.982,7.036c-1.924,1.03-2.539,1.079-14.541,1.221l-12.568,0.142v9.561
		c0,9.004,0.039,9.565,0.889,9.849c0.518,0.142,1.641,1.079,2.539,2.061c1.826,2.021,2.666,5.02,2.666,9.331
		c-0.039,10.317-4.18,17.588-12.1,21.338l-3.145,1.504l-14.297,0.093C163.301,5120.087,162.129,5119.995,159.736,5119.145z
		 M190.264,5111.835c5.303-2.441,7.881-6.616,8.301-13.32c0.234-4.546-0.42-6.563-2.197-6.563c-1.738,0-2.305,1.401-2.49,6.421
		c-0.137,4.453-0.234,4.829-1.543,6.523c-2.764,3.374-3.242,3.467-16.182,3.467c-13.271,0-14.395-0.283-16.738-3.799
		c-1.172-1.738-1.318-2.534-1.553-6.704c-0.283-5.205-0.508-5.908-2.061-5.908c-1.826,0-2.158,0.845-2.158,5.859
		c0,4.409,0.098,5.015,1.455,7.69c0.986,1.919,2.119,3.423,3.428,4.36c3.936,2.861,5.723,3.145,18.799,3.052
		C187.08,5112.773,188.291,5112.675,190.264,5111.835z M186.514,5095.937c0.146-2.954,0.518-5.205,1.035-6.147
		c0.791-1.494,3.799-4.404,4.551-4.404c0.283,0,0.459-3.755,0.459-9.614v-9.609h-16.641h-16.641v9.282v9.287l2.012,1.455
		c3.047,2.109,4.082,4.595,4.082,9.795c0,2.344,0.137,4.409,0.322,4.595c0.195,0.142,4.883,0.239,10.42,0.19l10.117-0.142
		L186.514,5095.937z M81.196,5033.383c2.202-1.03,4.175-3.003,4.878-4.878c0.283-0.747,0.518-3.003,0.518-5.063v-3.706h-8.677
		h-8.677v2.959c0,5.527,1.782,9.048,5.347,10.688C77.026,5034.462,78.804,5034.511,81.196,5033.383z M39.229,4995.546v-16.738
		l-3.33,0.283c-3.701,0.313-5.156,1.064-6.514,3.271c-0.85,1.367-0.942,2.441-0.942,13.359c0,13.14,0.142,13.887,2.959,15.576
		c1.074,0.703,2.344,0.938,4.688,0.938h3.14V4995.546z M51.421,4990.195v-22.041h-2.344h-2.344v22.041v22.041h2.344h2.344V4990.195z
		 M97.373,4995.595v-16.65H78.149H58.921v16.65v16.641h19.229h19.224V4995.595z M109.565,4990.195v-22.041h-2.344h-2.344v22.041
		v22.041h2.344h2.344V4990.195z M124.609,5011.435c0.762-0.464,1.797-1.685,2.314-2.715c0.83-1.787,0.928-2.91,0.928-12.949
		c0-9.746-0.137-11.201-0.879-12.939c-1.133-2.432-3.008-3.467-6.948-3.789l-2.954-0.234v16.738v16.689h3.096
		C122.275,5012.236,123.682,5011.953,124.609,5011.435z M57.051,4959.951v-1.172h-8.208h-8.208v1.172v1.172h8.208h8.208V4959.951z
		 M115.195,4959.951v-1.172h-8.208h-8.208v1.172v1.172h8.208h8.208V4959.951z M20.942,4917.988v-16.416H18.74
		c-2.676,0-4.927,1.221-6.24,3.369c-0.84,1.465-0.938,2.393-0.938,12.949c0,12.705,0.239,13.926,2.905,15.566
		c1.03,0.615,2.344,0.938,4.038,0.938h2.437V4917.988z M142.393,4932.607c2.295-2.246,2.48-3.75,2.246-16.729
		c-0.137-9.521-0.186-9.902-1.27-11.445c-1.309-1.836-3.506-2.861-6.143-2.861h-1.865v16.416v16.406h2.627
		C140.42,4934.394,140.752,4934.257,142.393,4932.607z M149.893,4892.431c0-3.193-0.088-3.574-1.172-4.268
		c-1.074-0.703-1.26-0.703-2.344,0c-1.074,0.693-1.172,1.074-1.172,4.268v3.516h2.344h2.344V4892.431z M207.002,4892.666
		c-0.186-3.809-1.309-5.537-3.135-4.922c-1.367,0.42-1.934,2.012-1.934,5.43v2.773h2.637h2.627L207.002,4892.666z"/>
	<path fill="#0C4072" d="M162.783,5049.042l-1.162-1.123v-63.213c0-69.014-0.195-64.805,2.627-65.508
		c1.68-0.42,3.701,0.43,4.355,1.875c0.742,1.65,0.742,125.298,0,126.938C167.568,5050.312,164.57,5050.874,162.783,5049.042z"/>
	<path fill="#0C4072" d="M184.404,5049.233l-1.221-0.938v-63.726v-63.73l1.221-0.938c1.641-1.318,3.145-1.221,4.736,0.146
		l1.309,1.123v63.398v63.394l-1.309,1.128C187.549,5050.449,186.045,5050.546,184.404,5049.233z"/>
	<path fill="#0C4072" d="M205.645,5048.862l-1.357-1.362v-62.93v-62.93l1.406-1.406c1.221-1.172,1.689-1.367,2.959-1.123
		c0.84,0.137,1.875,0.752,2.344,1.27c0.742,0.928,0.791,4.688,0.791,64.424v63.491l-1.211,0.938
		C208.828,5050.59,207.285,5050.449,205.645,5048.862z"/>
	<path fill="#0C4072" d="M46.074,4942.128c-2.393-0.84-4.878-3.281-5.439-5.391c-0.283-0.889-0.469-7.969-0.469-15.938
		c0-12.852,0.093-14.492,0.894-16.182c0.938-2.07,3.237-4.316,4.873-4.697c0.566-0.127,15.381-0.176,32.964-0.127l31.938,0.127
		l1.636,1.279c3.286,2.48,3.423,3.232,3.564,18.281c0.19,15.801-0.049,17.813-2.622,20.488c-1.03,1.084-2.485,2.021-3.608,2.344
		C106.797,4943.164,48.467,4942.978,46.074,4942.128z M108.159,4934.443c0.283-0.566,0.469-5.771,0.469-13.604
		c0-10.879-0.093-12.754-0.752-13.359c-0.654-0.654-3.984-0.742-29.536-0.742c-18.994,0-29.17,0.176-29.78,0.459
		c-0.84,0.469-0.889,1.133-0.889,13.74c0,9.707,0.142,13.418,0.562,13.838c0.42,0.41,7.739,0.557,30.01,0.557
		C106.846,4935.332,107.695,4935.283,108.159,4934.443z"/>
</g>
</svg>
