<svg width="534" height="603" viewBox="0 0 534 603" fill="none" xmlns="http://www.w3.org/2000/svg">
<g clip-path="url(#clip0_159_964)">
<path d="M89.6842 87.4746C92.0923 87.9662 94.2321 89.3344 95.6888 91.314C97.1455 93.2936 97.8152 95.7435 97.5682 98.1889C97.3212 100.634 96.175 102.901 94.3518 104.549C92.5286 106.197 90.1585 107.11 87.7007 107.11C85.2429 107.11 82.8727 106.197 81.0495 104.549C79.2264 102.901 78.0802 100.634 77.8331 98.1889C77.5861 95.7435 78.2559 93.2936 79.7125 91.314C81.1692 89.3344 83.309 87.9662 85.7171 87.4746L85.7171 -1.95951e-05L89.6842 -1.94217e-05L89.6842 87.4746ZM-5.52632 404.843C-3.11821 405.335 -0.978415 406.703 0.478254 408.682C1.93492 410.662 2.60468 413.112 2.35765 415.557C2.11062 418.003 0.964434 420.269 -0.858722 421.917C-2.68188 423.566 -5.05207 424.478 -7.50985 424.478C-9.96762 424.478 -12.3379 423.566 -14.161 421.917C-15.9842 420.269 -17.1304 418.003 -17.3774 415.557C-17.6244 413.112 -16.9547 410.662 -15.498 408.682C-14.0413 406.703 -11.9015 405.335 -9.49343 404.843L-9.49342 162.651L-5.52631 162.651L-5.52632 404.843ZM85.7171 519.492C83.309 519.001 81.1692 517.633 79.7125 515.653C78.2558 513.673 77.5861 511.224 77.8331 508.778C78.0801 506.333 79.2264 504.066 81.0495 502.418C82.8727 500.77 85.2429 499.857 87.7007 499.857C90.1584 499.857 92.5286 500.77 94.3518 502.418C96.1749 504.066 97.3212 506.333 97.5682 508.778C97.8152 511.224 97.1455 513.673 95.6888 515.653C94.2321 517.633 92.0923 519.001 89.6842 519.492L89.6842 603L85.7171 603L85.7171 519.492ZM53.9803 519.492C51.5721 519.001 49.4323 517.633 47.9757 515.653C46.519 513.673 45.8492 511.224 46.0963 508.778C46.3433 506.333 47.4895 504.066 49.3127 502.418C51.1358 500.77 53.506 499.857 55.9638 499.857C58.4216 499.857 60.7918 500.77 62.615 502.418C64.4381 504.066 65.5843 506.333 65.8314 508.778C66.0784 511.224 65.4086 513.673 63.9519 515.653C62.4953 517.633 60.3555 519.001 57.9474 519.492L57.9474 603L53.9803 603L53.9803 519.492ZM280.105 531.79C282.513 532.282 284.653 533.65 286.11 535.63C287.567 537.609 288.236 540.059 287.989 542.505C287.742 544.95 286.596 547.216 284.773 548.865C282.95 550.513 280.579 551.426 278.122 551.426C275.664 551.426 273.294 550.513 271.471 548.865C269.647 547.216 268.501 544.95 268.254 542.505C268.007 540.059 268.677 537.609 270.134 535.63C271.59 533.65 273.73 532.282 276.138 531.79L276.138 360.808C273.73 360.317 271.59 358.948 270.134 356.969C268.677 354.989 268.007 352.539 268.254 350.094C268.501 347.649 269.647 345.382 271.471 343.734C273.294 342.086 275.664 341.173 278.122 341.173C280.579 341.173 282.95 342.086 284.773 343.734C286.596 345.382 287.742 347.649 287.989 350.094C288.236 352.539 287.567 354.989 286.11 356.969C284.653 358.948 282.513 360.317 280.105 360.808L280.105 531.79ZM307.875 392.545C305.467 392.053 303.327 390.685 301.87 388.706C300.414 386.726 299.744 384.276 299.991 381.831C300.238 379.386 301.384 377.119 303.207 375.471C305.031 373.822 307.401 372.91 309.859 372.91C312.316 372.91 314.687 373.822 316.51 375.471C318.333 377.119 319.479 379.386 319.726 381.831C319.973 384.276 319.303 386.726 317.847 388.706C316.39 390.685 314.25 392.053 311.842 392.545L311.842 563.527C314.25 564.019 316.39 565.387 317.847 567.367C319.303 569.346 319.973 571.796 319.726 574.242C319.479 576.687 318.333 578.953 316.51 580.602C314.687 582.25 312.316 583.162 309.859 583.162C307.401 583.162 305.031 582.25 303.207 580.602C301.384 578.953 300.238 576.687 299.991 574.242C299.744 571.796 300.414 569.346 301.87 567.367C303.327 565.387 305.467 564.019 307.875 563.527L307.875 392.545ZM509.999 511.757C509.507 514.165 508.139 516.304 506.16 517.761C504.18 519.218 501.73 519.888 499.285 519.641C496.839 519.393 494.573 518.247 492.925 516.424C491.276 514.601 490.364 512.231 490.364 509.773C490.364 507.315 491.276 504.945 492.925 503.122C494.573 501.299 496.839 500.152 499.285 499.905C501.73 499.658 504.18 500.328 506.16 501.785C508.139 503.242 509.507 505.381 509.999 507.789L534 507.789L534 511.757L509.999 511.757ZM97.4201 384.809C96.9285 387.217 95.5603 389.357 93.5807 390.814C91.6011 392.27 89.1512 392.94 86.7059 392.693C84.2605 392.446 81.994 391.3 80.3458 389.477C78.6975 387.654 77.7849 385.283 77.7849 382.826C77.7849 380.368 78.6975 377.998 80.3458 376.174C81.994 374.351 84.2605 373.205 86.7059 372.958C89.1512 372.711 91.6011 373.381 93.5807 374.837C95.5603 376.294 96.9285 378.434 97.4201 380.842L204.929 380.842C205.42 378.434 206.788 376.294 208.768 374.837C210.748 373.381 213.198 372.711 215.643 372.958C218.088 373.205 220.355 374.351 222.003 376.174C223.651 377.998 224.564 380.368 224.564 382.826C224.564 385.283 223.651 387.654 222.003 389.477C220.355 391.3 218.088 392.446 215.643 392.693C213.198 392.94 210.748 392.27 208.768 390.814C206.788 389.357 205.42 387.217 204.929 384.809L97.4201 384.809ZM490.56 480.02L375.316 480.02L375.316 603L371.349 603L371.349 476.053L490.56 476.053C491.052 473.644 492.42 471.505 494.4 470.048C496.379 468.591 498.829 467.922 501.274 468.169C503.72 468.416 505.986 469.562 507.634 471.385C509.283 473.208 510.195 475.578 510.195 478.036C510.195 480.494 509.283 482.864 507.634 484.687C505.986 486.51 503.72 487.657 501.274 487.904C498.829 488.151 496.379 487.481 494.4 486.024C492.42 484.568 491.052 482.428 490.56 480.02ZM458.823 511.757L407.053 511.757L407.053 603L403.085 603L403.086 507.789L458.823 507.789C459.315 505.381 460.683 503.242 462.663 501.785C464.642 500.328 467.092 499.658 469.538 499.905C471.983 500.152 474.249 501.299 475.898 503.122C477.546 504.945 478.458 507.315 478.458 509.773C478.458 512.231 477.546 514.601 475.898 516.424C474.249 518.247 471.983 519.393 469.538 519.641C467.092 519.888 464.642 519.218 462.663 517.761C460.683 516.304 459.315 514.165 458.823 511.757ZM268.402 257.862L121.421 257.862L121.421 289.599L97.4201 289.599C96.9285 292.007 95.5603 294.147 93.5807 295.603C91.6011 297.06 89.1512 297.73 86.7059 297.483C84.2605 297.236 81.994 296.089 80.3458 294.266C78.6975 292.443 77.7849 290.073 77.7849 287.615C77.7849 285.157 78.6975 282.787 80.3458 280.964C81.994 279.141 84.2605 277.995 86.7059 277.748C89.1512 277.501 91.6011 278.17 93.5807 279.627C95.5603 281.084 96.9285 283.223 97.4201 285.632L117.454 285.632L117.454 253.895L268.402 253.895C268.894 251.487 270.262 249.347 272.242 247.89C274.221 246.433 276.671 245.764 279.117 246.011C281.562 246.258 283.828 247.404 285.477 249.227C287.125 251.05 288.037 253.42 288.037 255.878C288.037 258.336 287.125 260.706 285.477 262.529C283.828 264.353 281.562 265.499 279.117 265.746C276.671 265.993 274.221 265.323 272.242 263.866C270.262 262.41 268.894 260.27 268.402 257.862ZM311.842 246.159C314.25 246.65 316.39 248.019 317.847 249.998C319.303 251.978 319.973 254.428 319.726 256.873C319.479 259.318 318.333 261.585 316.51 263.233C314.687 264.881 312.316 265.794 309.859 265.794C307.401 265.794 305.031 264.881 303.207 263.233C301.384 261.585 300.238 259.318 299.991 256.873C299.744 254.428 300.414 251.978 301.87 249.998C303.327 248.019 305.467 246.65 307.875 246.159L307.875 226.125L212.664 226.125L212.664 170.387C210.256 169.896 208.117 168.527 206.66 166.548C205.203 164.568 204.533 162.118 204.78 159.673C205.028 157.228 206.174 154.961 207.997 153.313C209.82 151.665 212.19 150.752 214.648 150.752C217.106 150.752 219.476 151.665 221.299 153.313C223.122 154.961 224.269 157.228 224.516 159.673C224.763 162.118 224.093 164.568 222.636 166.548C221.179 168.527 219.04 169.896 216.632 170.387L216.632 222.158L311.842 222.158L311.842 246.159ZM53.9803 233.861C51.5722 233.369 49.4323 232.001 47.9757 230.021C46.519 228.042 45.8492 225.592 46.0963 223.147C46.3433 220.701 47.4895 218.435 49.3127 216.787C51.1358 215.138 53.5061 214.226 55.9638 214.226C58.4216 214.226 60.7918 215.138 62.615 216.787C64.4381 218.435 65.5844 220.701 65.8314 223.147C66.0784 225.592 65.4086 228.042 63.952 230.021C62.4953 232.001 60.3555 233.369 57.9474 233.861L57.9474 349.105L204.929 349.105C205.42 346.697 206.788 344.557 208.768 343.101C210.748 341.644 213.198 340.974 215.643 341.221C218.088 341.468 220.355 342.614 222.003 344.438C223.651 346.261 224.564 348.631 224.564 351.089C224.564 353.547 223.651 355.917 222.003 357.74C220.355 359.563 218.088 360.709 215.643 360.956C213.198 361.203 210.748 360.534 208.768 359.077C206.788 357.62 205.42 355.48 204.929 353.072L53.9803 353.072L53.9803 233.861ZM180.928 202.124C178.52 201.632 176.38 200.264 174.923 198.285C173.466 196.305 172.797 193.855 173.044 191.41C173.291 188.964 174.437 186.698 176.26 185.05C178.083 183.401 180.453 182.489 182.911 182.489C185.369 182.489 187.739 183.401 189.562 185.05C191.385 186.698 192.532 188.964 192.779 191.41C193.026 193.855 192.356 196.305 190.899 198.285C189.443 200.264 187.303 201.632 184.895 202.124L184.895 226.125L89.6842 226.125L89.6842 246.159C92.0923 246.65 94.2321 248.019 95.6888 249.998C97.1455 251.978 97.8152 254.428 97.5682 256.873C97.3212 259.318 96.175 261.585 94.3518 263.233C92.5286 264.881 90.1584 265.794 87.7007 265.794C85.2429 265.794 82.8727 264.881 81.0495 263.233C79.2264 261.585 78.0801 259.318 77.8331 256.873C77.5861 254.428 78.2558 251.978 79.7125 249.998C81.1692 248.019 83.309 246.65 85.7171 246.159L85.7171 222.158L180.928 222.158L180.928 202.124ZM-29.5273 130.914C-30.0188 133.323 -31.3871 135.462 -33.3666 136.919C-35.3462 138.376 -37.7962 139.045 -40.2415 138.798C-42.6869 138.551 -44.9534 137.405 -46.6016 135.582C-48.2499 133.759 -49.1625 131.389 -49.1625 128.931C-49.1625 126.473 -48.2499 124.103 -46.6016 122.28C-44.9534 120.457 -42.6869 119.31 -40.2415 119.063C-37.7962 118.816 -35.3462 119.486 -33.3666 120.943C-31.3871 122.399 -30.0188 124.539 -29.5273 126.947L-9.49341 126.947L-9.49341 99.1776L-69 99.1776L-69 95.2105L-5.52631 95.2105L-5.52631 130.914L-29.5273 130.914ZM184.895 468.317C187.303 468.808 189.443 470.176 190.899 472.156C192.356 474.136 193.026 476.586 192.779 479.031C192.532 481.476 191.385 483.743 189.562 485.391C187.739 487.039 185.369 487.952 182.911 487.952C180.453 487.952 178.083 487.039 176.26 485.391C174.437 483.743 173.291 481.476 173.044 479.031C172.797 476.586 173.466 474.136 174.923 472.156C176.38 470.176 178.52 468.808 180.928 468.317L180.928 448.283L-5.52633 448.283L-5.52633 543.493L-69 543.493L-69 539.526L-9.49343 539.526L-9.49343 444.316L184.895 444.316L184.895 468.317ZM244.401 519.492C241.993 519.001 239.853 517.633 238.397 515.653C236.94 513.673 236.27 511.224 236.517 508.778C236.764 506.333 237.911 504.066 239.734 502.418C241.557 500.77 243.927 499.857 246.385 499.857C248.843 499.857 251.213 500.77 253.036 502.418C254.859 504.066 256.005 506.333 256.252 508.778C256.499 511.224 255.83 513.673 254.373 515.653C252.916 517.633 250.777 519.001 248.368 519.492L248.368 543.493L160.894 543.493C160.402 545.902 159.034 548.041 157.054 549.498C155.075 550.955 152.625 551.624 150.18 551.377C147.734 551.13 145.468 549.984 143.819 548.161C142.171 546.338 141.259 543.968 141.259 541.51C141.259 539.052 142.171 536.682 143.819 534.859C145.468 533.036 147.734 531.889 150.18 531.642C152.625 531.395 155.075 532.065 157.054 533.522C159.034 534.978 160.402 537.118 160.894 539.526L244.401 539.526L244.401 519.492ZM53.9803 392.545C51.5722 392.053 49.4323 390.685 47.9757 388.706C46.519 386.726 45.8492 384.276 46.0963 381.831C46.3433 379.385 47.4895 377.119 49.3127 375.471C51.1358 373.822 53.506 372.91 55.9638 372.91C58.4216 372.91 60.7918 373.822 62.615 375.471C64.4381 377.119 65.5843 379.385 65.8314 381.831C66.0784 384.276 65.4086 386.726 63.9519 388.706C62.4953 390.685 60.3555 392.053 57.9474 392.545L57.9474 412.579L216.632 412.579L216.632 444.316L244.401 444.316L244.401 360.808C241.993 360.317 239.853 358.948 238.397 356.969C236.94 354.989 236.27 352.539 236.517 350.094C236.764 347.649 237.911 345.382 239.734 343.734C241.557 342.086 243.927 341.173 246.385 341.173C248.843 341.173 251.213 342.086 253.036 343.734C254.859 345.382 256.005 347.649 256.252 350.094C256.499 352.539 255.83 354.989 254.373 356.969C252.916 358.948 250.777 360.317 248.368 360.808L248.368 448.283L212.664 448.283L212.664 416.546L53.9803 416.546L53.9803 392.545ZM470.526 563.527C472.934 564.019 475.074 565.387 476.531 567.367C477.988 569.346 478.657 571.796 478.41 574.242C478.163 576.687 477.017 578.953 475.194 580.602C473.371 582.25 471.001 583.162 468.543 583.162C466.085 583.162 463.715 582.25 461.892 580.602C460.068 578.953 458.922 576.687 458.675 574.242C458.428 571.796 459.098 569.346 460.555 567.367C462.011 565.387 464.151 564.019 466.559 563.527L466.559 539.526L534 539.526L534 543.493L470.526 543.493L470.526 563.527ZM331.876 194.388L244.401 194.388L244.401 106.913C241.993 106.422 239.853 105.054 238.397 103.074C236.94 101.095 236.27 98.6446 236.517 96.1993C236.764 93.7539 237.911 91.4874 239.734 89.8392C241.557 88.1909 243.927 87.2783 246.385 87.2783C248.843 87.2783 251.213 88.1909 253.036 89.8392C254.859 91.4874 256.005 93.7539 256.252 96.1993C256.499 98.6446 255.83 101.095 254.373 103.074C252.916 105.054 250.777 106.422 248.368 106.913L248.368 190.421L331.876 190.421C332.368 188.013 333.736 185.873 335.715 184.416C337.695 182.96 340.145 182.29 342.59 182.537C345.036 182.784 347.302 183.93 348.95 185.753C350.599 187.577 351.511 189.947 351.511 192.405C351.511 194.862 350.599 197.233 348.95 199.056C347.302 200.879 345.036 202.025 342.59 202.272C340.145 202.519 337.695 201.849 335.715 200.393C333.736 198.936 332.368 196.796 331.876 194.388ZM466.559 106.913C464.151 106.422 462.011 105.054 460.555 103.074C459.098 101.095 458.428 98.6446 458.675 96.1993C458.922 93.7539 460.068 91.4875 461.892 89.8392C463.715 88.1909 466.085 87.2783 468.543 87.2783C471.001 87.2783 473.371 88.1909 475.194 89.8392C477.017 91.4875 478.163 93.7539 478.41 96.1993C478.657 98.6446 477.988 101.095 476.531 103.074C475.074 105.054 472.934 106.422 470.526 106.913L470.526 158.684L534 158.684L534 162.651L466.559 162.651L466.559 106.913ZM458.823 226.125L403.086 226.125L403.086 162.651L276.138 162.651L276.138 138.65C273.73 138.159 271.59 136.791 270.134 134.811C268.677 132.831 268.007 130.381 268.254 127.936C268.501 125.491 269.647 123.224 271.471 121.576C273.294 119.928 275.664 119.015 278.122 119.015C280.579 119.015 282.95 119.928 284.773 121.576C286.596 123.224 287.742 125.491 287.989 127.936C288.236 130.381 287.567 132.831 286.11 134.811C284.653 136.791 282.513 138.159 280.105 138.65L280.105 158.684L407.053 158.684L407.053 222.158L458.823 222.158C459.315 219.75 460.683 217.61 462.663 216.153C464.642 214.697 467.092 214.027 469.538 214.274C471.983 214.521 474.249 215.667 475.898 217.49C477.546 219.313 478.458 221.684 478.458 224.141C478.458 226.599 477.546 228.969 475.898 230.793C474.249 232.616 471.983 233.762 469.538 234.009C467.092 234.256 464.642 233.586 462.663 232.13C460.683 230.673 459.315 228.533 458.823 226.125ZM371.349 202.124C368.941 201.632 366.801 200.264 365.344 198.285C363.887 196.305 363.218 193.855 363.465 191.41C363.712 188.964 364.858 186.698 366.681 185.05C368.504 183.401 370.874 182.489 373.332 182.489C375.79 182.489 378.16 183.401 379.983 185.05C381.807 186.698 382.953 188.964 383.2 191.41C383.447 193.855 382.777 196.305 381.32 198.285C379.864 200.264 377.724 201.632 375.316 202.124L375.316 253.895L458.823 253.895C459.315 251.487 460.683 249.347 462.663 247.89C464.642 246.433 467.092 245.764 469.538 246.011C471.983 246.258 474.249 247.404 475.898 249.227C477.546 251.05 478.458 253.421 478.458 255.878C478.458 258.336 477.546 260.706 475.898 262.529C474.249 264.353 471.983 265.499 469.538 265.746C467.092 265.993 464.642 265.323 462.663 263.866C460.683 262.41 459.315 260.27 458.823 257.862L371.349 257.862L371.349 202.124ZM498.296 233.861C495.888 233.369 493.748 232.001 492.291 230.021C490.835 228.042 490.165 225.592 490.412 223.147C490.659 220.701 491.805 218.435 493.628 216.787C495.452 215.138 497.822 214.226 500.28 214.226C502.737 214.226 505.108 215.138 506.931 216.787C508.754 218.435 509.9 220.701 510.147 223.147C510.394 225.592 509.724 228.042 508.268 230.021C506.811 232.001 504.671 233.369 502.263 233.861L502.263 289.599L414.788 289.599C414.297 292.007 412.929 294.147 410.949 295.603C408.97 297.06 406.52 297.73 404.074 297.483C401.629 297.236 399.362 296.089 397.714 294.266C396.066 292.443 395.153 290.073 395.153 287.615C395.153 285.157 396.066 282.787 397.714 280.964C399.362 279.141 401.629 277.995 404.074 277.748C406.52 277.501 408.97 278.17 410.949 279.627C412.929 281.084 414.297 283.223 414.788 285.632L498.296 285.632L498.296 233.861ZM-37.2631 436.58C-34.855 437.071 -32.7152 438.44 -31.2586 440.419C-29.8019 442.399 -29.1321 444.849 -29.3792 447.294C-29.6262 449.739 -30.7724 452.006 -32.5955 453.654C-34.4187 455.302 -36.7889 456.215 -39.2467 456.215C-41.7045 456.215 -44.0747 455.302 -45.8978 453.654C-47.721 452.006 -48.8672 449.739 -49.1142 447.294C-49.3612 444.849 -48.6916 442.399 -47.2349 440.419C-45.7782 438.44 -43.6384 437.071 -41.2302 436.58L-41.2302 194.388L-69 194.388L-69 190.421L-37.2631 190.421L-37.2631 436.58ZM236.665 480.02L216.632 480.02L216.632 511.757L149.191 511.757L149.191 480.02L26.2105 480.02L26.2105 575.23L-69 575.23L-69 571.263L22.2434 571.263L22.2434 476.053L153.158 476.053L153.158 507.789L212.664 507.789L212.664 476.053L236.665 476.053C237.157 473.644 238.525 471.505 240.505 470.048C242.484 468.591 244.934 467.922 247.38 468.169C249.825 468.416 252.091 469.562 253.74 471.385C255.388 473.208 256.301 475.578 256.301 478.036C256.301 480.494 255.388 482.864 253.74 484.687C252.091 486.51 249.825 487.657 247.38 487.904C244.934 488.151 242.484 487.481 240.505 486.024C238.525 484.568 237.157 482.428 236.665 480.02ZM498.296 106.913C495.888 106.422 493.748 105.054 492.291 103.074C490.835 101.095 490.165 98.6446 490.412 96.1993C490.659 93.7539 491.805 91.4875 493.628 89.8392C495.452 88.1909 497.822 87.2783 500.28 87.2783C502.737 87.2783 505.108 88.1909 506.931 89.8392C508.754 91.4875 509.9 93.7539 510.147 96.1993C510.394 98.6446 509.724 101.095 508.268 103.074C506.811 105.054 504.671 106.422 502.263 106.913L502.263 126.947L530.033 126.947L530.033 95.2105L534 95.2105L534 130.914L498.296 130.914L498.296 106.913ZM434.822 329.071C432.414 328.58 430.274 327.212 428.818 325.232C427.361 323.252 426.691 320.802 426.938 318.357C427.185 315.912 428.332 313.645 430.155 311.997C431.978 310.349 434.348 309.436 436.806 309.436C439.264 309.436 441.634 310.349 443.457 311.997C445.28 313.645 446.426 315.912 446.673 318.357C446.92 320.802 446.251 323.252 444.794 325.232C443.337 327.212 441.198 328.58 438.789 329.071L438.789 380.842L534 380.842L534 480.02L530.033 480.02L530.033 384.809L434.822 384.809L434.822 329.071ZM339.612 233.861C337.204 233.369 335.064 232.001 333.607 230.021C332.151 228.042 331.481 225.592 331.728 223.147C331.975 220.701 333.121 218.435 334.944 216.787C336.767 215.138 339.138 214.226 341.595 214.226C344.053 214.226 346.423 215.138 348.247 216.787C350.07 218.435 351.216 220.701 351.463 223.147C351.71 225.592 351.04 228.042 349.584 230.021C348.127 232.001 345.987 233.369 343.579 233.861L343.579 271.747L407.053 335.22L407.053 412.579L490.56 412.579C491.052 410.171 492.42 408.031 494.4 406.574C496.379 405.118 498.829 404.448 501.274 404.695C503.72 404.942 505.986 406.088 507.634 407.911C509.283 409.735 510.195 412.105 510.195 414.562C510.195 417.02 509.283 419.39 507.634 421.214C505.986 423.037 503.72 424.183 501.274 424.43C498.829 424.677 496.379 424.007 494.4 422.551C492.42 421.094 491.052 418.954 490.56 416.546L403.086 416.546L403.086 336.867L339.612 273.393L339.612 233.861ZM160.894 289.599C160.402 292.007 159.034 294.147 157.054 295.603C155.075 297.06 152.625 297.73 150.18 297.483C147.734 297.236 145.468 296.089 143.819 294.266C142.171 292.443 141.259 290.073 141.259 287.615C141.259 285.157 142.171 282.787 143.819 280.964C145.468 279.141 147.734 277.995 150.18 277.748C152.625 277.501 155.075 278.17 157.054 279.627C159.034 281.084 160.402 283.223 160.894 285.632L312.655 285.632L375.316 348.292L375.316 444.316L490.56 444.316C491.052 441.908 492.42 439.768 494.4 438.311C496.379 436.855 498.829 436.185 501.274 436.432C503.72 436.679 505.986 437.825 507.634 439.648C509.283 441.471 510.195 443.842 510.195 446.299C510.195 448.757 509.283 451.127 507.634 452.95C505.986 454.774 503.72 455.92 501.274 456.167C498.829 456.414 496.379 455.744 494.4 454.287C492.42 452.831 491.052 450.691 490.56 448.283L371.349 448.283L371.349 349.919L311.029 289.599L160.894 289.599ZM97.4201 321.335C96.9285 323.744 95.5603 325.883 93.5807 327.34C91.6011 328.797 89.1512 329.467 86.7059 329.219C84.2605 328.972 81.994 327.826 80.3458 326.003C78.6975 324.18 77.7849 321.81 77.7849 319.352C77.7849 316.894 78.6975 314.524 80.3458 312.701C81.994 310.878 84.2605 309.731 86.7059 309.484C89.1512 309.237 91.6011 309.907 93.5807 311.364C95.5603 312.82 96.9285 314.96 97.4201 317.368L294.803 317.368L343.579 366.144L343.579 595.264C345.485 595.653 347.235 596.593 348.61 597.969C349.985 599.344 350.926 601.094 351.315 603L347.209 603C346.8 601.838 346.04 600.831 345.035 600.119C344.029 599.407 342.828 599.024 341.595 599.024C340.363 599.024 339.161 599.407 338.156 600.119C337.15 600.831 336.391 601.838 335.982 603L331.876 603C332.265 601.094 333.205 599.344 334.581 597.969C335.956 596.593 337.706 595.653 339.612 595.264L339.612 367.77L293.177 321.335L97.4201 321.335ZM224.367 35.7039C223.876 38.112 222.508 40.2519 220.528 41.7085C218.549 43.1652 216.099 43.8349 213.653 43.5879C211.208 43.3409 208.941 42.1947 207.293 40.3715C205.645 38.5484 204.732 36.1782 204.732 33.7204C204.732 31.2626 205.645 28.8924 207.293 27.0692C208.941 25.2461 211.208 24.0999 213.653 23.8528C216.099 23.6058 218.549 24.2756 220.528 25.7322C222.508 27.1889 223.876 29.3287 224.367 31.7368L231.33 31.7368L326.54 126.947L438.789 126.947L438.789 190.421L534 190.421L534 194.388L434.822 194.388L434.822 130.914L324.914 130.914L229.703 35.7039L224.367 35.7039ZM427.087 99.1776L340.782 99.1776L245.572 3.96709L121.421 3.96709L121.421 55.7378C123.829 56.2294 125.969 57.5976 127.426 59.5772C128.882 61.5567 129.552 64.0067 129.305 66.452C129.058 68.8974 127.912 71.1638 126.089 72.8121C124.265 74.4604 121.895 75.373 119.437 75.373C116.98 75.373 114.61 74.4604 112.786 72.8121C110.963 71.1638 109.817 68.8974 109.57 66.452C109.323 64.0067 109.993 61.5567 111.449 59.5772C112.906 57.5976 115.046 56.2294 117.454 55.7378L117.454 -1.82078e-05L247.198 -1.25365e-05L342.409 95.2105L427.087 95.2105C427.578 92.8024 428.946 90.6626 430.926 89.2059C432.905 87.7492 435.355 87.0795 437.801 87.3265C440.246 87.5736 442.513 88.7198 444.161 90.5429C445.809 92.3661 446.722 94.7363 446.722 97.1941C446.722 99.6518 445.809 102.022 444.161 103.845C442.513 105.668 440.246 106.815 437.801 107.062C435.355 107.309 432.905 106.639 430.926 105.182C428.946 103.726 427.578 101.586 427.087 99.1776ZM395.35 67.4408L356.651 67.4408L289.21 -1.07001e-05L294.803 -1.04556e-05L358.277 63.4737L395.35 63.4737C395.841 61.0656 397.209 58.9257 399.189 57.4691C401.169 56.0124 403.619 55.3427 406.064 55.5897C408.509 55.8367 410.776 56.9829 412.424 58.8061C414.072 60.6292 414.985 62.9995 414.985 65.4572C414.985 67.915 414.072 70.2852 412.424 72.1084C410.776 73.9315 408.509 75.0777 406.064 75.3248C403.619 75.5718 401.169 74.9021 399.189 73.4454C397.209 71.9887 395.841 69.8489 395.35 67.4408ZM434.822 551.229C432.414 550.738 430.274 549.37 428.818 547.39C427.361 545.41 426.691 542.96 426.938 540.515C427.185 538.07 428.332 535.803 430.155 534.155C431.978 532.507 434.348 531.594 436.806 531.594C439.264 531.594 441.634 532.507 443.457 534.155C445.28 535.803 446.426 538.07 446.673 540.515C446.92 542.96 446.251 545.41 444.794 547.39C443.337 549.37 441.198 550.738 438.789 551.229L438.789 588.302L453.488 603L447.894 603L434.822 589.928L434.822 551.229ZM117.454 519.492C115.046 519.001 112.906 517.633 111.449 515.653C109.993 513.673 109.323 511.224 109.57 508.778C109.817 506.333 110.963 504.066 112.786 502.418C114.61 500.77 116.98 499.857 119.437 499.857C121.895 499.857 124.265 500.77 126.089 502.418C127.912 504.066 129.058 506.333 129.305 508.778C129.552 511.224 128.882 513.673 127.426 515.653C125.969 517.633 123.829 519.001 121.421 519.492L121.421 571.263L263.067 571.263L294.803 603L289.21 603L261.44 575.23L117.454 575.23L117.454 519.492ZM53.9803 106.913C51.5722 106.422 49.4323 105.054 47.9757 103.074C46.519 101.095 45.8493 98.6446 46.0963 96.1993C46.3433 93.7539 47.4895 91.4874 49.3127 89.8392C51.1358 88.1909 53.5061 87.2783 55.9638 87.2783C58.4216 87.2783 60.7918 88.1909 62.615 89.8392C64.4381 91.4874 65.5844 93.7539 65.8314 96.1993C66.0784 98.6446 65.4086 101.095 63.952 103.074C62.4953 105.054 60.3555 106.422 57.9474 106.913L57.9474 126.947L102.756 126.947L149.191 80.5124L149.191 43.4398C146.783 42.9482 144.643 41.58 143.186 39.6004C141.73 37.6209 141.06 35.1709 141.307 32.7256C141.554 30.2802 142.7 28.0137 144.523 26.3655C146.346 24.7172 148.717 23.8046 151.174 23.8046C153.632 23.8046 156.002 24.7172 157.825 26.3655C159.649 28.0137 160.795 30.2802 161.042 32.7256C161.289 35.1709 160.619 37.6209 159.163 39.6004C157.706 41.58 155.566 42.9482 153.158 43.4398L153.158 82.1389L104.382 130.914L53.9803 130.914L53.9803 106.913ZM26.2105 404.843C28.6186 405.335 30.7584 406.703 32.2151 408.682C33.6718 410.662 34.3416 413.112 34.0945 415.557C33.8475 418.003 32.7013 420.269 30.8781 421.917C29.055 423.566 26.6847 424.478 24.227 424.478C21.7692 424.478 19.399 423.566 17.5758 421.917C15.7527 420.269 14.6065 418.003 14.3595 415.557C14.1125 413.112 14.7821 410.662 16.2388 408.682C17.6955 406.703 19.8353 405.335 22.2434 404.843L22.2434 190.421L134.513 190.421L212.664 112.269L212.664 75.1766C210.256 74.6851 208.117 73.3169 206.66 71.3373C205.203 69.3577 204.533 66.9077 204.78 64.4624C205.028 62.0171 206.174 59.7506 207.997 58.1023C209.82 56.4541 212.19 55.5415 214.648 55.5415C217.106 55.5415 219.476 56.4541 221.299 58.1023C223.122 59.7506 224.269 62.0171 224.516 64.4624C224.763 66.9077 224.093 69.3577 222.636 71.3373C221.179 73.3169 219.04 74.6851 216.632 75.1766L216.632 113.856L136.099 194.388L26.2105 194.388L26.2105 404.843ZM22.2434 106.913C19.8353 106.422 17.6955 105.054 16.2388 103.074C14.7822 101.095 14.1125 98.6446 14.3595 96.1992C14.6065 93.7539 15.7527 91.4874 17.5759 89.8392C19.399 88.1909 21.7692 87.2783 24.227 87.2783C26.6848 87.2783 29.055 88.1909 30.8781 89.8392C32.7013 91.4874 33.8475 93.7539 34.0945 96.1993C34.3416 98.6446 33.6718 101.095 32.2151 103.074C30.7584 105.054 28.6187 106.422 26.2105 106.913L26.2105 158.684L118.624 158.684L180.928 96.3808L180.928 43.4398C178.52 42.9482 176.38 41.58 174.923 39.6004C173.466 37.6209 172.797 35.1709 173.044 32.7256C173.291 30.2802 174.437 28.0138 176.26 26.3655C178.083 24.7172 180.453 23.8046 182.911 23.8046C185.369 23.8046 187.739 24.7172 189.562 26.3655C191.386 28.0138 192.532 30.2802 192.779 32.7256C193.026 35.1709 192.356 37.6209 190.899 39.6004C189.443 41.58 187.303 42.9482 184.895 43.4398L184.895 98.0073L120.251 162.651L22.2434 162.651L22.2434 106.913ZM-61.2642 3.96708C-61.6529 5.87306 -62.5935 7.62265 -63.9689 8.99813C-65.3444 10.3736 -67.094 11.3142 -69 11.7029L-69 7.59698C-68.2626 7.33682 -67.5837 6.93389 -67.0021 6.4112C-66.4205 5.88851 -65.9476 5.25633 -65.6105 4.55078C-65.2734 3.84523 -65.0787 3.08016 -65.0374 2.29931C-64.9962 1.51845 -65.1092 0.737117 -65.3701 -2.61993e-05L26.2105 -2.21962e-05L26.2105 35.7039L-69 35.7039L-69 31.7368L22.2434 31.7368L22.2434 3.96708L-61.2642 3.96708ZM55.9638 67.4408L-69 67.4408L-69 63.4737L53.9803 63.4737L53.9803 -2.09823e-05L57.9474 -2.08089e-05L57.9474 67.4408L55.9638 67.4408ZM502.263 575.23L502.263 603L498.296 603L498.296 571.263L534 571.263L534 575.23L502.263 575.23ZM-39.2467 511.757L-69 511.757L-69 507.789L-41.2302 507.789L-41.2302 480.02L-69 480.02L-69 476.053L-37.2631 476.053L-37.2631 511.757L-39.2467 511.757ZM-5.52631 158.684L-5.52631 162.651L-69 162.651L-69 158.684L-5.52631 158.684ZM-69 233.861L-69 229.755C-67.8377 229.346 -66.8309 228.586 -66.1187 227.581C-65.4065 226.575 -65.0241 225.374 -65.0241 224.141C-65.0241 222.909 -65.4065 221.707 -66.1187 220.702C-66.8309 219.696 -67.8377 218.937 -69 218.528L-69 214.422C-66.758 214.877 -64.7424 216.094 -63.2946 217.865C-61.8468 219.636 -61.0559 221.854 -61.0559 224.141C-61.0559 226.429 -61.8468 228.647 -63.2946 230.418C-64.7424 232.189 -66.758 233.406 -69 233.861ZM534 595.264L534 599.37C533.263 599.109 532.481 598.996 531.701 599.037C530.92 599.079 530.155 599.273 529.449 599.611C528.744 599.948 528.111 600.42 527.589 601.002C527.066 601.584 526.663 602.263 526.403 603L522.297 603C522.557 601.724 523.066 600.511 523.795 599.431C524.525 598.351 525.459 597.426 526.546 596.708C527.633 595.989 528.85 595.492 530.129 595.244C531.408 594.997 532.724 595.003 534 595.264ZM-61.2642 603L-65.3701 603C-65.6659 602.162 -66.1453 601.402 -66.7735 600.773C-67.4016 600.145 -68.1624 599.666 -69 599.37L-69 595.264C-67.094 595.653 -65.3444 596.593 -63.969 597.969C-62.5935 599.344 -61.6529 601.094 -61.2642 603ZM335.645 192.405C335.645 193.186 335.799 193.96 336.098 194.682C336.397 195.404 336.835 196.06 337.388 196.612C337.94 197.165 338.596 197.603 339.318 197.902C340.04 198.201 340.814 198.355 341.595 198.355C342.377 198.355 343.151 198.201 343.873 197.902C344.595 197.603 345.251 197.165 345.803 196.612C346.356 196.06 346.794 195.404 347.093 194.682C347.392 193.96 347.546 193.186 347.546 192.405C347.546 190.826 346.919 189.313 345.803 188.197C344.687 187.081 343.174 186.454 341.595 186.454C340.017 186.454 338.504 187.081 337.388 188.197C336.272 189.313 335.645 190.826 335.645 192.405ZM367.382 192.405C367.382 193.983 368.009 195.496 369.124 196.612C370.24 197.728 371.754 198.355 373.332 198.355C374.91 198.355 376.424 197.728 377.54 196.612C378.656 195.496 379.283 193.983 379.283 192.405C379.283 190.826 378.656 189.313 377.54 188.197C376.424 187.081 374.91 186.454 373.332 186.454C371.754 186.454 370.24 187.081 369.124 188.197C368.009 189.313 367.382 190.826 367.382 192.405ZM335.645 224.141C335.645 224.923 335.799 225.697 336.098 226.419C336.397 227.141 336.835 227.797 337.388 228.349C337.94 228.902 338.596 229.34 339.318 229.639C340.04 229.938 340.814 230.092 341.595 230.092C342.377 230.092 343.151 229.938 343.873 229.639C344.595 229.34 345.251 228.902 345.803 228.349C346.356 227.797 346.794 227.141 347.093 226.419C347.392 225.697 347.546 224.923 347.546 224.141C347.546 222.563 346.919 221.05 345.803 219.934C344.687 218.818 343.174 218.191 341.595 218.191C340.017 218.191 338.504 218.818 337.388 219.934C336.272 221.05 335.645 222.563 335.645 224.141ZM303.908 255.878C303.908 257.456 304.535 258.97 305.651 260.086C306.767 261.202 308.28 261.829 309.859 261.829C311.437 261.829 312.95 261.202 314.066 260.086C315.182 258.97 315.809 257.456 315.809 255.878C315.809 254.3 315.182 252.786 314.066 251.671C312.95 250.555 311.437 249.928 309.859 249.928C308.28 249.928 306.767 250.555 305.651 251.671C304.535 252.786 303.908 254.3 303.908 255.878ZM272.171 255.878C272.171 257.456 272.798 258.97 273.914 260.086C275.03 261.202 276.543 261.829 278.122 261.829C279.7 261.829 281.213 261.202 282.329 260.086C283.445 258.97 284.072 257.456 284.072 255.878C284.072 254.3 283.445 252.786 282.329 251.671C281.213 250.555 279.7 249.928 278.122 249.928C276.543 249.928 275.03 250.555 273.914 251.671C272.798 252.786 272.171 254.3 272.171 255.878ZM208.697 160.668C208.697 162.246 209.324 163.76 210.44 164.876C211.556 165.991 213.07 166.618 214.648 166.618C216.226 166.618 217.74 165.991 218.856 164.876C219.972 163.76 220.599 162.246 220.599 160.668C220.599 159.09 219.972 157.576 218.856 156.46C217.74 155.344 216.226 154.717 214.648 154.717C213.07 154.717 211.556 155.344 210.44 156.46C209.324 157.576 208.697 159.09 208.697 160.668ZM176.961 192.405C176.961 193.983 177.587 195.496 178.703 196.612C179.819 197.728 181.333 198.355 182.911 198.355C184.489 198.355 186.003 197.728 187.119 196.612C188.235 195.496 188.862 193.983 188.862 192.405C188.862 190.826 188.235 189.313 187.119 188.197C186.003 187.081 184.489 186.454 182.911 186.454C181.333 186.454 179.819 187.081 178.703 188.197C177.587 189.313 176.961 190.826 176.961 192.405ZM81.75 255.878C81.75 257.456 82.3769 258.97 83.4929 260.086C84.6089 261.202 86.1225 261.829 87.7007 261.829C89.2789 261.829 90.7924 261.202 91.9084 260.086C93.0244 258.97 93.6513 257.456 93.6513 255.878C93.6513 254.3 93.0244 252.786 91.9084 251.671C90.7924 250.555 89.2789 249.928 87.7007 249.928C86.1225 249.928 84.6089 250.555 83.4929 251.671C82.3769 252.786 81.75 254.3 81.75 255.878ZM50.0132 224.141C50.0132 225.72 50.6401 227.233 51.7561 228.349C52.872 229.465 54.3856 230.092 55.9638 230.092C57.542 230.092 59.0556 229.465 60.1716 228.349C61.2875 227.233 61.9145 225.72 61.9145 224.141C61.9145 222.563 61.2875 221.05 60.1716 219.934C59.0556 218.818 57.542 218.191 55.9638 218.191C54.3856 218.191 52.872 218.818 51.7561 219.934C50.6401 221.05 50.0132 222.563 50.0132 224.141ZM81.75 287.615C81.75 289.193 82.3769 290.707 83.4929 291.823C84.6089 292.939 86.1225 293.566 87.7007 293.566C89.2789 293.566 90.7924 292.939 91.9084 291.823C93.0244 290.707 93.6513 289.193 93.6513 287.615C93.6513 286.037 93.0244 284.523 91.9084 283.407C90.7924 282.291 89.2789 281.664 87.7007 281.664C86.1225 281.664 84.6089 282.291 83.4929 283.407C82.3769 284.523 81.75 286.037 81.75 287.615ZM145.224 287.615C145.224 289.193 145.851 290.707 146.967 291.823C148.083 292.939 149.596 293.566 151.174 293.566C152.753 293.566 154.266 292.939 155.382 291.823C156.498 290.707 157.125 289.193 157.125 287.615C157.125 286.037 156.498 284.523 155.382 283.407C154.266 282.291 152.753 281.664 151.174 281.664C149.596 281.664 148.083 282.291 146.967 283.407C145.851 284.523 145.224 286.037 145.224 287.615ZM81.75 319.352C81.75 320.93 82.3769 322.444 83.4929 323.56C84.6089 324.676 86.1225 325.303 87.7007 325.303C89.2789 325.303 90.7924 324.676 91.9084 323.56C93.0244 322.444 93.6513 320.93 93.6513 319.352C93.6513 317.774 93.0244 316.26 91.9084 315.144C90.7924 314.028 89.2789 313.401 87.7007 313.401C86.1225 313.401 84.6089 314.028 83.4929 315.144C82.3769 316.26 81.75 317.774 81.75 319.352ZM50.0132 382.826C50.0132 384.404 50.6401 385.917 51.7561 387.033C52.872 388.149 54.3856 388.776 55.9638 388.776C57.542 388.776 59.0556 388.149 60.1716 387.033C61.2875 385.917 61.9145 384.404 61.9145 382.826C61.9145 381.247 61.2875 379.734 60.1716 378.618C59.0556 377.502 57.542 376.875 55.9638 376.875C54.3856 376.875 52.872 377.502 51.7561 378.618C50.6401 379.734 50.0132 381.247 50.0132 382.826ZM81.75 382.826C81.75 384.404 82.3769 385.917 83.4929 387.033C84.6089 388.149 86.1225 388.776 87.7007 388.776C89.2789 388.776 90.7924 388.149 91.9084 387.033C93.0244 385.917 93.6513 384.404 93.6513 382.826C93.6513 381.247 93.0244 379.734 91.9084 378.618C90.7924 377.502 89.2789 376.875 87.7007 376.875C86.1225 376.875 84.6089 377.502 83.4929 378.618C82.3769 379.734 81.75 381.247 81.75 382.826ZM208.697 351.089C208.697 352.667 209.324 354.181 210.44 355.297C211.556 356.413 213.07 357.039 214.648 357.039C216.226 357.039 217.74 356.413 218.856 355.297C219.972 354.181 220.599 352.667 220.599 351.089C220.599 349.511 219.972 347.997 218.856 346.881C217.74 345.765 216.226 345.138 214.648 345.138C213.07 345.138 211.556 345.765 210.44 346.881C209.324 347.997 208.697 349.511 208.697 351.089ZM208.697 382.826C208.697 384.404 209.324 385.917 210.44 387.033C211.556 388.149 213.07 388.776 214.648 388.776C216.226 388.776 217.74 388.149 218.856 387.033C219.972 385.917 220.599 384.404 220.599 382.826C220.599 381.247 219.972 379.734 218.856 378.618C217.74 377.502 216.226 376.875 214.648 376.875C213.07 376.875 211.556 377.502 210.44 378.618C209.324 379.734 208.697 381.247 208.697 382.826ZM18.2763 414.562C18.2763 416.141 18.9033 417.654 20.0193 418.77C21.1352 419.886 22.6488 420.513 24.227 420.513C25.8052 420.513 27.3188 419.886 28.4347 418.77C29.5507 417.654 30.1776 416.141 30.1776 414.562C30.1776 412.984 29.5507 411.471 28.4347 410.355C27.3188 409.239 25.8052 408.612 24.227 408.612C22.6488 408.612 21.1352 409.239 20.0193 410.355C18.9033 411.471 18.2763 412.984 18.2763 414.562ZM-13.4605 414.562C-13.4605 416.141 -12.8336 417.654 -11.7176 418.77C-10.6016 419.886 -9.08806 420.513 -7.50985 420.513C-5.93163 420.513 -4.41811 419.886 -3.30214 418.77C-2.18618 417.654 -1.55922 416.141 -1.55922 414.562C-1.55922 412.984 -2.18618 411.471 -3.30214 410.355C-4.41811 409.239 -5.93163 408.612 -7.50984 408.612C-9.08806 408.612 -10.6016 409.239 -11.7176 410.355C-12.8336 411.471 -13.4605 412.984 -13.4605 414.562ZM-45.1973 446.299C-45.1973 447.878 -44.5704 449.391 -43.4544 450.507C-42.3385 451.623 -40.8249 452.25 -39.2467 452.25C-37.6685 452.25 -36.1549 451.623 -35.039 450.507C-33.923 449.391 -33.296 447.878 -33.296 446.299C-33.296 444.721 -33.923 443.208 -35.039 442.092C-36.1549 440.976 -37.6685 440.349 -39.2467 440.349C-40.8249 440.349 -42.3385 440.976 -43.4544 442.092C-44.5704 443.208 -45.1973 444.721 -45.1973 446.299ZM240.434 478.036C240.434 479.614 241.061 481.128 242.177 482.244C243.293 483.36 244.807 483.987 246.385 483.987C247.963 483.987 249.477 483.36 250.593 482.244C251.709 481.128 252.336 479.614 252.336 478.036C252.336 476.458 251.709 474.944 250.593 473.828C249.477 472.712 247.963 472.085 246.385 472.085C244.807 472.085 243.293 472.712 242.177 473.828C241.061 474.944 240.434 476.458 240.434 478.036ZM176.961 478.036C176.961 479.614 177.587 481.128 178.703 482.244C179.819 483.36 181.333 483.987 182.911 483.987C184.489 483.987 186.003 483.36 187.119 482.244C188.235 481.128 188.862 479.614 188.862 478.036C188.862 476.458 188.235 474.944 187.119 473.828C186.003 472.712 184.489 472.085 182.911 472.085C181.333 472.085 179.819 472.712 178.703 473.828C177.587 474.944 176.961 476.458 176.961 478.036ZM240.434 509.773C240.434 511.351 241.061 512.865 242.177 513.981C243.293 515.097 244.807 515.724 246.385 515.724C247.963 515.724 249.477 515.097 250.593 513.981C251.709 512.865 252.336 511.351 252.336 509.773C252.336 508.195 251.709 506.681 250.593 505.565C249.477 504.449 247.963 503.822 246.385 503.822C244.807 503.822 243.293 504.449 242.177 505.565C241.061 506.681 240.434 508.195 240.434 509.773ZM272.171 541.51C272.171 543.088 272.798 544.602 273.914 545.718C275.03 546.834 276.543 547.46 278.122 547.46C279.7 547.46 281.213 546.834 282.329 545.718C283.445 544.602 284.072 543.088 284.072 541.51C284.072 539.932 283.445 538.418 282.329 537.302C281.213 536.186 279.7 535.559 278.122 535.559C276.543 535.559 275.03 536.186 273.914 537.302C272.798 538.418 272.171 539.932 272.171 541.51ZM272.171 351.089C272.171 352.667 272.798 354.181 273.914 355.297C275.03 356.413 276.543 357.039 278.122 357.039C279.7 357.039 281.213 356.413 282.329 355.297C283.445 354.181 284.072 352.667 284.072 351.089C284.072 349.511 283.445 347.997 282.329 346.881C281.213 345.765 279.7 345.138 278.122 345.138C276.543 345.138 275.03 345.765 273.914 346.881C272.798 347.997 272.171 349.511 272.171 351.089ZM240.434 351.089C240.434 352.667 241.061 354.181 242.177 355.297C243.293 356.413 244.807 357.039 246.385 357.039C247.963 357.039 249.477 356.413 250.593 355.297C251.709 354.181 252.336 352.667 252.336 351.089C252.336 349.511 251.709 347.997 250.593 346.881C249.477 345.765 247.963 345.138 246.385 345.138C244.807 345.138 243.293 345.765 242.177 346.881C241.061 347.997 240.434 349.511 240.434 351.089ZM303.908 382.826C303.908 384.404 304.535 385.917 305.651 387.033C306.767 388.149 308.28 388.776 309.859 388.776C311.437 388.776 312.95 388.149 314.066 387.033C315.182 385.917 315.809 384.404 315.809 382.826C315.809 381.247 315.182 379.734 314.066 378.618C312.95 377.502 311.437 376.875 309.859 376.875C308.28 376.875 306.767 377.502 305.651 378.618C304.535 379.734 303.908 381.247 303.908 382.826ZM303.908 573.247C303.908 574.825 304.535 576.338 305.651 577.454C306.767 578.57 308.28 579.197 309.859 579.197C311.437 579.197 312.95 578.57 314.066 577.454C315.182 576.338 315.809 574.825 315.809 573.247C315.809 571.668 315.182 570.155 314.066 569.039C312.95 567.923 311.437 567.296 309.859 567.296C308.28 567.296 306.767 567.923 305.651 569.039C304.535 570.155 303.908 571.668 303.908 573.247ZM430.855 541.51C430.855 543.088 431.482 544.602 432.598 545.718C433.714 546.834 435.228 547.461 436.806 547.461C438.384 547.461 439.898 546.834 441.014 545.718C442.13 544.602 442.757 543.088 442.757 541.51C442.757 539.932 442.13 538.418 441.014 537.302C439.898 536.186 438.384 535.559 436.806 535.559C435.228 535.559 433.714 536.186 432.598 537.302C431.482 538.418 430.855 539.932 430.855 541.51ZM462.592 573.247C462.592 574.825 463.219 576.338 464.335 577.454C465.451 578.57 466.965 579.197 468.543 579.197C470.121 579.197 471.635 578.57 472.75 577.454C473.866 576.338 474.493 574.825 474.493 573.247C474.493 571.668 473.866 570.155 472.75 569.039C471.635 567.923 470.121 567.296 468.543 567.296C466.965 567.296 465.451 567.923 464.335 569.039C463.219 570.155 462.592 571.668 462.592 573.247ZM462.592 509.773C462.592 511.351 463.219 512.865 464.335 513.981C465.451 515.097 466.965 515.724 468.543 515.724C470.121 515.724 471.635 515.097 472.75 513.981C473.866 512.865 474.493 511.351 474.493 509.773C474.493 508.195 473.866 506.681 472.75 505.565C471.635 504.449 470.121 503.822 468.543 503.822C466.965 503.822 465.451 504.449 464.335 505.565C463.219 506.681 462.592 508.195 462.592 509.773ZM494.329 509.773C494.329 511.351 494.956 512.865 496.072 513.981C497.188 515.097 498.701 515.724 500.28 515.724C501.858 515.724 503.371 515.097 504.487 513.981C505.603 512.865 506.23 511.351 506.23 509.773C506.23 508.195 505.603 506.681 504.487 505.565C503.371 504.449 501.858 503.822 500.28 503.822C498.701 503.822 497.188 504.449 496.072 505.565C494.956 506.681 494.329 508.195 494.329 509.773ZM494.329 478.036C494.329 479.614 494.956 481.128 496.072 482.244C497.188 483.36 498.701 483.987 500.28 483.987C501.858 483.987 503.371 483.36 504.487 482.244C505.603 481.128 506.23 479.614 506.23 478.036C506.23 476.458 505.603 474.944 504.487 473.828C503.371 472.712 501.858 472.086 500.28 472.086C498.701 472.086 497.188 472.712 496.072 473.828C494.956 474.944 494.329 476.458 494.329 478.036ZM494.329 446.299C494.329 447.878 494.956 449.391 496.072 450.507C497.188 451.623 498.701 452.25 500.28 452.25C501.858 452.25 503.371 451.623 504.487 450.507C505.603 449.391 506.23 447.878 506.23 446.299C506.23 444.721 505.603 443.208 504.487 442.092C503.371 440.976 501.858 440.349 500.28 440.349C498.701 440.349 497.188 440.976 496.072 442.092C494.956 443.208 494.329 444.721 494.329 446.299ZM494.329 414.562C494.329 416.141 494.956 417.654 496.072 418.77C497.188 419.886 498.701 420.513 500.28 420.513C501.858 420.513 503.371 419.886 504.487 418.77C505.603 417.654 506.23 416.141 506.23 414.562C506.23 412.984 505.603 411.471 504.487 410.355C503.371 409.239 501.858 408.612 500.28 408.612C498.701 408.612 497.188 409.239 496.072 410.355C494.956 411.471 494.329 412.984 494.329 414.562ZM462.592 97.1941C462.592 98.7723 463.219 100.286 464.335 101.402C465.451 102.518 466.965 103.145 468.543 103.145C470.121 103.145 471.635 102.518 472.751 101.402C473.866 100.286 474.493 98.7723 474.493 97.1941C474.493 95.6159 473.866 94.1023 472.751 92.9863C471.635 91.8704 470.121 91.2434 468.543 91.2434C466.965 91.2434 465.451 91.8704 464.335 92.9863C463.219 94.1023 462.592 95.6159 462.592 97.1941ZM430.855 97.1941C430.855 98.7723 431.482 100.286 432.598 101.402C433.714 102.518 435.228 103.145 436.806 103.145C438.384 103.145 439.898 102.518 441.014 101.402C442.13 100.286 442.757 98.7723 442.757 97.1941C442.757 95.6159 442.13 94.1023 441.014 92.9863C439.898 91.8704 438.384 91.2434 436.806 91.2434C435.228 91.2434 433.714 91.8704 432.598 92.9863C431.482 94.1023 430.855 95.6159 430.855 97.1941ZM399.118 65.4572C399.118 67.0354 399.745 68.549 400.861 69.665C401.977 70.7809 403.491 71.4079 405.069 71.4079C406.647 71.4079 408.161 70.7809 409.277 69.665C410.393 68.549 411.02 67.0354 411.02 65.4572C411.02 63.879 410.393 62.3654 409.277 61.2495C408.161 60.1335 406.647 59.5066 405.069 59.5066C403.491 59.5066 401.977 60.1335 400.861 61.2495C399.745 62.3654 399.118 63.879 399.118 65.4572ZM494.329 97.1941C494.329 98.7723 494.956 100.286 496.072 101.402C497.188 102.518 498.701 103.145 500.28 103.145C501.858 103.145 503.371 102.518 504.487 101.402C505.603 100.286 506.23 98.7723 506.23 97.1941C506.23 95.6159 505.603 94.1023 504.487 92.9863C503.371 91.8704 501.858 91.2434 500.28 91.2434C498.701 91.2434 497.188 91.8704 496.072 92.9863C494.956 94.1023 494.329 95.6159 494.329 97.1941ZM18.2763 97.1941C18.2763 98.7723 18.9033 100.286 20.0193 101.402C21.1352 102.518 22.6488 103.145 24.227 103.145C25.8052 103.145 27.3188 102.518 28.4347 101.402C29.5507 100.286 30.1776 98.7723 30.1776 97.1941C30.1776 95.6158 29.5507 94.1023 28.4347 92.9863C27.3188 91.8703 25.8052 91.2434 24.227 91.2434C22.6488 91.2434 21.1352 91.8703 20.0193 92.9863C18.9033 94.1023 18.2763 95.6158 18.2763 97.1941ZM-45.1973 128.931C-45.1973 130.509 -44.5704 132.023 -43.4544 133.139C-42.3384 134.255 -40.8249 134.882 -39.2467 134.882C-37.6685 134.882 -36.1549 134.255 -35.0389 133.139C-33.923 132.023 -33.296 130.509 -33.296 128.931C-33.296 127.353 -33.923 125.839 -35.0389 124.723C-36.1549 123.607 -37.6685 122.98 -39.2467 122.98C-40.8249 122.98 -42.3384 123.607 -43.4544 124.723C-44.5704 125.839 -45.1973 127.353 -45.1973 128.931ZM81.75 97.1941C81.75 98.7723 82.377 100.286 83.4929 101.402C84.6089 102.518 86.1225 103.145 87.7007 103.145C89.2789 103.145 90.7924 102.518 91.9084 101.402C93.0244 100.286 93.6513 98.7723 93.6513 97.1941C93.6513 95.6158 93.0244 94.1023 91.9084 92.9863C90.7924 91.8703 89.2789 91.2434 87.7007 91.2434C86.1225 91.2434 84.6089 91.8703 83.4929 92.9863C82.377 94.1023 81.75 95.6158 81.75 97.1941ZM50.0132 97.1941C50.0132 98.7723 50.6401 100.286 51.7561 101.402C52.872 102.518 54.3856 103.145 55.9638 103.145C57.542 103.145 59.0556 102.518 60.1716 101.402C61.2875 100.286 61.9145 98.7723 61.9145 97.1941C61.9145 95.6158 61.2875 94.1023 60.1716 92.9863C59.0556 91.8703 57.542 91.2434 55.9638 91.2434C54.3856 91.2434 52.872 91.8703 51.7561 92.9863C50.6401 94.1023 50.0132 95.6158 50.0132 97.1941ZM113.487 65.4572C113.487 67.0354 114.114 68.549 115.23 69.665C116.346 70.7809 117.859 71.4079 119.437 71.4079C121.016 71.4079 122.529 70.7809 123.645 69.665C124.761 68.549 125.388 67.0354 125.388 65.4572C125.388 63.879 124.761 62.3654 123.645 61.2495C122.529 60.1335 121.016 59.5066 119.437 59.5066C117.859 59.5066 116.346 60.1335 115.23 61.2495C114.114 62.3654 113.487 63.879 113.487 65.4572ZM462.592 224.141C462.592 225.72 463.219 227.233 464.335 228.349C465.451 229.465 466.965 230.092 468.543 230.092C470.121 230.092 471.635 229.465 472.751 228.349C473.866 227.233 474.493 225.72 474.493 224.141C474.493 222.563 473.866 221.05 472.751 219.934C471.635 218.818 470.121 218.191 468.543 218.191C466.965 218.191 465.451 218.818 464.335 219.934C463.219 221.05 462.592 222.563 462.592 224.141ZM462.592 255.878C462.592 257.456 463.219 258.97 464.335 260.086C465.451 261.202 466.965 261.829 468.543 261.829C470.121 261.829 471.635 261.202 472.751 260.086C473.866 258.97 474.493 257.456 474.493 255.878C474.493 254.3 473.866 252.786 472.751 251.671C471.635 250.555 470.121 249.928 468.543 249.928C466.965 249.928 465.451 250.555 464.335 251.671C463.219 252.786 462.592 254.3 462.592 255.878ZM494.329 224.141C494.329 225.72 494.956 227.233 496.072 228.349C497.188 229.465 498.701 230.092 500.28 230.092C501.858 230.092 503.371 229.465 504.487 228.349C505.603 227.233 506.23 225.72 506.23 224.141C506.23 222.563 505.603 221.05 504.487 219.934C503.371 218.818 501.858 218.191 500.28 218.191C498.701 218.191 497.188 218.818 496.072 219.934C494.956 221.05 494.329 222.563 494.329 224.141ZM399.118 287.615C399.118 289.193 399.745 290.707 400.861 291.823C401.977 292.939 403.491 293.566 405.069 293.566C406.647 293.566 408.161 292.939 409.277 291.823C410.393 290.707 411.02 289.193 411.02 287.615C411.02 286.037 410.393 284.523 409.277 283.407C408.161 282.291 406.647 281.664 405.069 281.664C403.491 281.664 401.977 282.291 400.861 283.407C399.745 284.523 399.118 286.037 399.118 287.615ZM430.855 319.352C430.855 320.93 431.482 322.444 432.598 323.56C433.714 324.676 435.228 325.303 436.806 325.303C438.384 325.303 439.898 324.676 441.014 323.56C442.13 322.444 442.757 320.93 442.757 319.352C442.757 317.774 442.13 316.26 441.014 315.144C439.898 314.028 438.384 313.401 436.806 313.401C435.228 313.401 433.714 314.028 432.598 315.144C431.482 316.26 430.855 317.774 430.855 319.352ZM145.224 541.51C145.224 543.088 145.851 544.602 146.967 545.718C148.083 546.834 149.596 547.46 151.174 547.46C152.753 547.46 154.266 546.834 155.382 545.718C156.498 544.602 157.125 543.088 157.125 541.51C157.125 539.932 156.498 538.418 155.382 537.302C154.266 536.186 152.753 535.559 151.174 535.559C149.596 535.559 148.083 536.186 146.967 537.302C145.851 538.418 145.224 539.932 145.224 541.51ZM113.487 509.773C113.487 511.351 114.114 512.865 115.23 513.981C116.346 515.097 117.859 515.724 119.437 515.724C121.016 515.724 122.529 515.097 123.645 513.981C124.761 512.865 125.388 511.351 125.388 509.773C125.388 508.195 124.761 506.681 123.645 505.565C122.529 504.449 121.016 503.822 119.437 503.822C117.859 503.822 116.346 504.449 115.23 505.565C114.114 506.681 113.487 508.195 113.487 509.773ZM81.75 509.773C81.75 511.351 82.3769 512.865 83.4929 513.981C84.6089 515.097 86.1224 515.724 87.7007 515.724C89.2789 515.724 90.7924 515.097 91.9084 513.981C93.0244 512.865 93.6513 511.351 93.6513 509.773C93.6513 508.195 93.0244 506.681 91.9084 505.565C90.7924 504.449 89.2789 503.822 87.7007 503.822C86.1224 503.822 84.6089 504.449 83.4929 505.565C82.3769 506.681 81.75 508.195 81.75 509.773ZM50.0132 509.773C50.0132 511.351 50.6401 512.865 51.7561 513.981C52.872 515.097 54.3856 515.724 55.9638 515.724C57.542 515.724 59.0556 515.097 60.1715 513.981C61.2875 512.865 61.9145 511.351 61.9145 509.773C61.9145 508.195 61.2875 506.681 60.1715 505.565C59.0556 504.449 57.542 503.822 55.9638 503.822C54.3856 503.822 52.872 504.449 51.7561 505.565C50.6401 506.681 50.0132 508.195 50.0132 509.773ZM176.961 33.7204C176.961 35.2986 177.587 36.8122 178.703 37.9281C179.819 39.0441 181.333 39.671 182.911 39.671C184.489 39.671 186.003 39.0441 187.119 37.9281C188.235 36.8122 188.862 35.2986 188.862 33.7204C188.862 32.1422 188.235 30.6286 187.119 29.5126C186.003 28.3967 184.489 27.7697 182.911 27.7697C181.333 27.7697 179.819 28.3967 178.703 29.5126C177.587 30.6286 176.961 32.1422 176.961 33.7204ZM145.224 33.7204C145.224 35.2986 145.851 36.8122 146.967 37.9281C148.083 39.0441 149.596 39.671 151.174 39.671C152.753 39.671 154.266 39.0441 155.382 37.9281C156.498 36.8122 157.125 35.2986 157.125 33.7204C157.125 32.1422 156.498 30.6286 155.382 29.5126C154.266 28.3967 152.753 27.7697 151.174 27.7697C149.596 27.7697 148.083 28.3967 146.967 29.5126C145.851 30.6286 145.224 32.1422 145.224 33.7204ZM208.697 33.7204C208.697 35.2986 209.324 36.8122 210.44 37.9281C211.556 39.0441 213.07 39.671 214.648 39.671C216.226 39.671 217.74 39.0441 218.856 37.9281C219.972 36.8122 220.599 35.2986 220.599 33.7204C220.599 32.1422 219.972 30.6286 218.856 29.5126C217.74 28.3967 216.226 27.7697 214.648 27.7697C213.07 27.7697 211.556 28.3967 210.44 29.5126C209.324 30.6286 208.697 32.1422 208.697 33.7204ZM208.697 65.4572C208.697 67.0354 209.324 68.549 210.44 69.665C211.556 70.7809 213.07 71.4079 214.648 71.4079C216.226 71.4079 217.74 70.7809 218.856 69.665C219.972 68.549 220.599 67.0354 220.599 65.4572C220.599 63.879 219.972 62.3654 218.856 61.2495C217.74 60.1335 216.226 59.5066 214.648 59.5066C213.07 59.5066 211.556 60.1335 210.44 61.2495C209.324 62.3654 208.697 63.879 208.697 65.4572ZM240.434 97.1941C240.434 98.7723 241.061 100.286 242.177 101.402C243.293 102.518 244.807 103.145 246.385 103.145C247.963 103.145 249.477 102.518 250.593 101.402C251.709 100.286 252.336 98.7723 252.336 97.1941C252.336 95.6159 251.709 94.1023 250.593 92.9863C249.477 91.8704 247.963 91.2434 246.385 91.2434C244.807 91.2434 243.293 91.8704 242.177 92.9863C241.061 94.1023 240.434 95.6159 240.434 97.1941ZM272.171 128.931C272.171 130.509 272.798 132.023 273.914 133.139C275.03 134.255 276.544 134.882 278.122 134.882C279.7 134.882 281.213 134.255 282.329 133.139C283.445 132.023 284.072 130.509 284.072 128.931C284.072 127.353 283.445 125.839 282.329 124.723C281.213 123.607 279.7 122.98 278.122 122.98C276.544 122.98 275.03 123.607 273.914 124.723C272.798 125.839 272.171 127.353 272.171 128.931Z" fill="#00000008"/>
</g>
<defs>
<clipPath id="clip0_159_964">
<rect width="603" height="603" fill="white" transform="translate(534) rotate(90)"/>
</clipPath>
</defs>
</svg>
