<svg width="440" height="603" viewBox="0 0 440 603" fill="none" xmlns="http://www.w3.org/2000/svg">
<g clip-path="url(#clip0_159_3333)">
<path d="M108.684 27.4746C111.092 27.9662 113.232 29.3344 114.689 31.314C116.145 33.2936 116.815 35.7435 116.568 38.1889C116.321 40.6342 115.175 42.9007 113.352 44.5489C111.529 46.1972 109.158 47.1098 106.701 47.1098C104.243 47.1098 101.873 46.1972 100.05 44.5489C98.2264 42.9007 97.0802 40.6342 96.8331 38.1889C96.5861 35.7435 97.2559 33.2936 98.7125 31.314C100.169 29.3344 102.309 27.9662 104.717 27.4746L104.717 -60L108.684 -60L108.684 27.4746ZM13.4737 344.843C15.8818 345.335 18.0216 346.703 19.4783 348.682C20.9349 350.662 21.6047 353.112 21.3576 355.557C21.1106 358.003 19.9645 360.269 18.1413 361.917C16.3181 363.566 13.9479 364.478 11.4902 364.478C9.03239 364.478 6.66215 363.566 4.83897 361.917C3.01579 360.269 1.86961 358.003 1.6226 355.557C1.37559 353.112 2.04533 350.662 3.502 348.682C4.95866 346.703 7.09843 345.335 9.50657 344.843L9.50658 102.651L13.4737 102.651L13.4737 344.843ZM104.717 459.492C102.309 459.001 100.169 457.633 98.7125 455.653C97.2558 453.673 96.5861 451.224 96.8331 448.778C97.0801 446.333 98.2264 444.066 100.05 442.418C101.873 440.77 104.243 439.857 106.701 439.857C109.158 439.857 111.529 440.77 113.352 442.418C115.175 444.066 116.321 446.333 116.568 448.778C116.815 451.224 116.145 453.673 114.689 455.653C113.232 457.633 111.092 459.001 108.684 459.492L108.684 543L104.717 543L104.717 459.492ZM72.9803 459.492C70.5722 459.001 68.4323 457.633 66.9757 455.653C65.519 453.673 64.8492 451.224 65.0963 448.778C65.3433 446.333 66.4895 444.066 68.3127 442.418C70.1358 440.77 72.5061 439.857 74.9638 439.857C77.4216 439.857 79.7918 440.77 81.615 442.418C83.4381 444.066 84.5843 446.333 84.8314 448.778C85.0784 451.224 84.4086 453.673 82.9519 455.653C81.4953 457.633 79.3555 459.001 76.9474 459.492L76.9474 543L72.9803 543L72.9803 459.492ZM299.105 471.79C301.513 472.282 303.653 473.65 305.11 475.63C306.567 477.609 307.236 480.059 306.989 482.505C306.742 484.95 305.596 487.216 303.773 488.865C301.95 490.513 299.579 491.426 297.122 491.426C294.664 491.426 292.294 490.513 290.471 488.865C288.647 487.216 287.501 484.95 287.254 482.505C287.007 480.059 287.677 477.609 289.134 475.63C290.59 473.65 292.73 472.282 295.138 471.79L295.138 300.808C292.73 300.317 290.59 298.948 289.134 296.969C287.677 294.989 287.007 292.539 287.254 290.094C287.501 287.649 288.647 285.382 290.471 283.734C292.294 282.086 294.664 281.173 297.122 281.173C299.579 281.173 301.95 282.086 303.773 283.734C305.596 285.382 306.742 287.649 306.989 290.094C307.236 292.539 306.567 294.989 305.11 296.969C303.653 298.948 301.513 300.317 299.105 300.808L299.105 471.79ZM326.875 332.545C324.467 332.053 322.327 330.685 320.87 328.706C319.414 326.726 318.744 324.276 318.991 321.831C319.238 319.385 320.384 317.119 322.207 315.471C324.031 313.822 326.401 312.91 328.859 312.91C331.316 312.91 333.687 313.823 335.51 315.471C337.333 317.119 338.479 319.385 338.726 321.831C338.973 324.276 338.303 326.726 336.847 328.706C335.39 330.685 333.25 332.053 330.842 332.545L330.842 503.527C333.25 504.019 335.39 505.387 336.847 507.367C338.303 509.346 338.973 511.796 338.726 514.242C338.479 516.687 337.333 518.953 335.51 520.602C333.687 522.25 331.316 523.162 328.859 523.162C326.401 523.162 324.031 522.25 322.207 520.602C320.384 518.953 319.238 516.687 318.991 514.242C318.744 511.796 319.414 509.346 320.87 507.367C322.327 505.387 324.467 504.019 326.875 503.527L326.875 332.545ZM528.999 451.757C528.507 454.165 527.139 456.305 525.16 457.761C523.18 459.218 520.73 459.888 518.285 459.641C515.839 459.393 513.573 458.247 511.925 456.424C510.276 454.601 509.364 452.231 509.364 449.773C509.364 447.315 510.276 444.945 511.925 443.122C513.573 441.299 515.839 440.152 518.285 439.905C520.73 439.658 523.18 440.328 525.16 441.785C527.139 443.242 528.507 445.381 528.999 447.789L553 447.789L553 451.757L528.999 451.757ZM116.42 324.809C115.929 327.217 114.56 329.357 112.581 330.814C110.601 332.27 108.151 332.94 105.706 332.693C103.261 332.446 100.994 331.3 99.3458 329.477C97.6975 327.654 96.7849 325.283 96.7849 322.826C96.7849 320.368 97.6975 317.998 99.3458 316.174C100.994 314.351 103.261 313.205 105.706 312.958C108.151 312.711 110.601 313.381 112.581 314.837C114.56 316.294 115.929 318.434 116.42 320.842L223.929 320.842C224.42 318.434 225.788 316.294 227.768 314.837C229.748 313.381 232.197 312.711 234.643 312.958C237.088 313.205 239.355 314.351 241.003 316.174C242.651 317.998 243.564 320.368 243.564 322.826C243.564 325.283 242.651 327.654 241.003 329.477C239.355 331.3 237.088 332.446 234.643 332.693C232.197 332.94 229.748 332.27 227.768 330.814C225.788 329.357 224.42 327.217 223.929 324.809L116.42 324.809ZM509.56 420.02L394.316 420.02L394.316 543L390.349 543L390.349 416.053L509.56 416.053C510.052 413.644 511.42 411.505 513.4 410.048C515.379 408.591 517.829 407.922 520.274 408.169C522.72 408.416 524.986 409.562 526.634 411.385C528.283 413.208 529.195 415.578 529.195 418.036C529.195 420.494 528.283 422.864 526.634 424.687C524.986 426.51 522.72 427.657 520.274 427.904C517.829 428.151 515.379 427.481 513.4 426.024C511.42 424.568 510.052 422.428 509.56 420.02ZM477.823 451.757L426.053 451.757L426.053 543L422.085 543L422.086 447.789L477.823 447.789C478.315 445.381 479.683 443.242 481.663 441.785C483.642 440.328 486.092 439.658 488.538 439.905C490.983 440.152 493.249 441.299 494.898 443.122C496.546 444.945 497.458 447.315 497.458 449.773C497.458 452.231 496.546 454.601 494.898 456.424C493.249 458.247 490.983 459.393 488.538 459.641C486.092 459.888 483.642 459.218 481.663 457.761C479.683 456.305 478.315 454.165 477.823 451.757ZM287.402 197.862L140.421 197.862L140.421 229.599L116.42 229.599C115.929 232.007 114.56 234.147 112.581 235.603C110.601 237.06 108.151 237.73 105.706 237.483C103.261 237.236 100.994 236.089 99.3458 234.266C97.6975 232.443 96.7849 230.073 96.7849 227.615C96.7849 225.157 97.6975 222.787 99.3458 220.964C100.994 219.141 103.261 217.995 105.706 217.748C108.151 217.5 110.601 218.17 112.581 219.627C114.56 221.084 115.929 223.223 116.42 225.632L136.454 225.632L136.454 193.895L287.402 193.895C287.894 191.487 289.262 189.347 291.242 187.89C293.221 186.433 295.671 185.764 298.117 186.011C300.562 186.258 302.828 187.404 304.477 189.227C306.125 191.05 307.037 193.42 307.037 195.878C307.037 198.336 306.125 200.706 304.477 202.529C302.828 204.353 300.562 205.499 298.117 205.746C295.671 205.993 293.221 205.323 291.242 203.866C289.262 202.41 287.894 200.27 287.402 197.862ZM330.842 186.159C333.25 186.65 335.39 188.019 336.847 189.998C338.303 191.978 338.973 194.428 338.726 196.873C338.479 199.318 337.333 201.585 335.51 203.233C333.687 204.881 331.316 205.794 328.859 205.794C326.401 205.794 324.031 204.881 322.207 203.233C320.384 201.585 319.238 199.318 318.991 196.873C318.744 194.428 319.414 191.978 320.87 189.998C322.327 188.019 324.467 186.65 326.875 186.159L326.875 166.125L231.664 166.125L231.664 110.387C229.256 109.896 227.117 108.527 225.66 106.548C224.203 104.568 223.533 102.118 223.78 99.6729C224.028 97.2276 225.174 94.9611 226.997 93.3129C228.82 91.6646 231.19 90.752 233.648 90.752C236.106 90.752 238.476 91.6646 240.299 93.3129C242.122 94.9611 243.269 97.2276 243.516 99.6729C243.763 102.118 243.093 104.568 241.636 106.548C240.179 108.527 238.04 109.896 235.632 110.387L235.632 162.158L330.842 162.158L330.842 186.159ZM72.9803 173.861C70.5722 173.369 68.4323 172.001 66.9757 170.021C65.519 168.042 64.8492 165.592 65.0963 163.147C65.3433 160.701 66.4895 158.435 68.3127 156.787C70.1358 155.138 72.5061 154.226 74.9638 154.226C77.4216 154.226 79.7918 155.138 81.615 156.787C83.4381 158.435 84.5843 160.701 84.8314 163.147C85.0784 165.592 84.4086 168.042 82.952 170.021C81.4953 172.001 79.3555 173.369 76.9474 173.861L76.9474 289.105L223.929 289.105C224.42 286.697 225.788 284.557 227.768 283.101C229.748 281.644 232.197 280.974 234.643 281.221C237.088 281.468 239.355 282.614 241.003 284.438C242.651 286.261 243.564 288.631 243.564 291.089C243.564 293.547 242.651 295.917 241.003 297.74C239.355 299.563 237.088 300.709 234.643 300.956C232.197 301.203 229.748 300.534 227.768 299.077C225.788 297.62 224.42 295.48 223.929 293.072L72.9803 293.072L72.9803 173.861ZM199.928 142.124C197.52 141.632 195.38 140.264 193.923 138.285C192.466 136.305 191.797 133.855 192.044 131.41C192.291 128.964 193.437 126.698 195.26 125.05C197.083 123.401 199.453 122.489 201.911 122.489C204.369 122.489 206.739 123.401 208.562 125.05C210.385 126.698 211.532 128.964 211.779 131.41C212.026 133.855 211.356 136.305 209.899 138.285C208.443 140.264 206.303 141.632 203.895 142.124L203.895 166.125L108.684 166.125L108.684 186.159C111.092 186.65 113.232 188.019 114.689 189.998C116.145 191.978 116.815 194.428 116.568 196.873C116.321 199.318 115.175 201.585 113.352 203.233C111.529 204.881 109.158 205.794 106.701 205.794C104.243 205.794 101.873 204.881 100.05 203.233C98.2264 201.585 97.0802 199.318 96.8331 196.873C96.5861 194.428 97.2558 191.978 98.7125 189.998C100.169 188.019 102.309 186.65 104.717 186.159L104.717 162.158L199.928 162.158L199.928 142.124ZM-10.5273 70.9144C-11.0189 73.3226 -12.387 75.4624 -14.3666 76.9191C-16.3463 78.3757 -18.7962 79.0454 -21.2415 78.7984C-23.6868 78.5514 -25.9534 77.4052 -27.6016 75.5821C-29.2499 73.7589 -30.1625 71.3887 -30.1625 68.9309C-30.1625 66.4731 -29.2499 64.1029 -27.6016 62.2797C-25.9534 60.4566 -23.6868 59.3104 -21.2415 59.0634C-18.7962 58.8163 -16.3463 59.4861 -14.3666 60.9427C-12.387 62.3994 -11.0189 64.5392 -10.5273 66.9473L9.50659 66.9473L9.50659 39.1776L-50 39.1776L-50 35.2105L13.4737 35.2105L13.4737 70.9145L-10.5273 70.9144ZM203.895 408.317C206.303 408.808 208.443 410.176 209.899 412.156C211.356 414.136 212.026 416.586 211.779 419.031C211.532 421.476 210.385 423.743 208.562 425.391C206.739 427.039 204.369 427.952 201.911 427.952C199.453 427.952 197.083 427.039 195.26 425.391C193.437 423.743 192.291 421.476 192.044 419.031C191.797 416.586 192.466 414.136 193.923 412.156C195.38 410.176 197.52 408.808 199.928 408.317L199.928 388.283L13.4737 388.283L13.4737 483.493L-50 483.493L-50 479.526L9.50657 479.526L9.50657 384.316L203.895 384.316L203.895 408.317ZM263.401 459.492C260.993 459.001 258.853 457.633 257.397 455.653C255.94 453.673 255.27 451.224 255.517 448.778C255.764 446.333 256.911 444.066 258.734 442.418C260.557 440.77 262.927 439.857 265.385 439.857C267.843 439.857 270.213 440.77 272.036 442.418C273.859 444.066 275.005 446.333 275.252 448.778C275.499 451.224 274.83 453.673 273.373 455.653C271.916 457.633 269.777 459.001 267.368 459.492L267.368 483.493L179.894 483.493C179.402 485.902 178.034 488.041 176.054 489.498C174.075 490.955 171.625 491.624 169.18 491.377C166.734 491.13 164.468 489.984 162.819 488.161C161.171 486.338 160.259 483.968 160.259 481.51C160.259 479.052 161.171 476.682 162.819 474.859C164.468 473.036 166.734 471.889 169.18 471.642C171.625 471.395 174.075 472.065 176.054 473.522C178.034 474.978 179.402 477.118 179.894 479.526L263.401 479.526L263.401 459.492ZM72.9803 332.545C70.5722 332.053 68.4323 330.685 66.9757 328.706C65.519 326.726 64.8492 324.276 65.0963 321.831C65.3433 319.385 66.4895 317.119 68.3127 315.471C70.1358 313.822 72.5061 312.91 74.9638 312.91C77.4216 312.91 79.7918 313.822 81.615 315.471C83.4381 317.119 84.5843 319.385 84.8314 321.831C85.0784 324.276 84.4086 326.726 82.9519 328.706C81.4953 330.685 79.3555 332.053 76.9474 332.545L76.9474 352.579L235.632 352.579L235.632 384.316L263.401 384.316L263.401 300.808C260.993 300.317 258.853 298.948 257.397 296.969C255.94 294.989 255.27 292.539 255.517 290.094C255.764 287.649 256.911 285.382 258.734 283.734C260.557 282.086 262.927 281.173 265.385 281.173C267.843 281.173 270.213 282.086 272.036 283.734C273.859 285.382 275.005 287.649 275.252 290.094C275.499 292.539 274.83 294.989 273.373 296.969C271.916 298.948 269.777 300.317 267.368 300.808L267.368 388.283L231.664 388.283L231.664 356.546L72.9803 356.546L72.9803 332.545ZM489.526 503.527C491.934 504.019 494.074 505.387 495.531 507.367C496.988 509.346 497.657 511.796 497.41 514.242C497.163 516.687 496.017 518.953 494.194 520.602C492.371 522.25 490.001 523.162 487.543 523.162C485.085 523.162 482.715 522.25 480.892 520.602C479.068 518.953 477.922 516.687 477.675 514.242C477.428 511.796 478.098 509.346 479.555 507.367C481.011 505.387 483.151 504.019 485.559 503.527L485.559 479.526L553 479.526L553 483.493L489.526 483.493L489.526 503.527ZM350.876 134.388L263.401 134.388L263.401 46.9135C260.993 46.4219 258.853 45.0537 257.397 43.0741C255.94 41.0945 255.27 38.6446 255.517 36.1993C255.764 33.7539 256.911 31.4874 258.734 29.8392C260.557 28.1909 262.927 27.2783 265.385 27.2783C267.843 27.2783 270.213 28.1909 272.036 29.8392C273.859 31.4874 275.005 33.7539 275.252 36.1993C275.499 38.6446 274.83 41.0945 273.373 43.0741C271.916 45.0537 269.777 46.4219 267.368 46.9135L267.368 130.421L350.876 130.421C351.368 128.013 352.736 125.873 354.715 124.416C356.695 122.96 359.145 122.29 361.59 122.537C364.036 122.784 366.302 123.93 367.95 125.753C369.599 127.577 370.511 129.947 370.511 132.405C370.511 134.862 369.599 137.233 367.95 139.056C366.302 140.879 364.036 142.025 361.59 142.272C359.145 142.519 356.695 141.849 354.715 140.393C352.736 138.936 351.368 136.796 350.876 134.388ZM485.559 46.9135C483.151 46.4219 481.011 45.0537 479.555 43.0741C478.098 41.0945 477.428 38.6446 477.675 36.1993C477.922 33.7539 479.068 31.4875 480.892 29.8392C482.715 28.1909 485.085 27.2783 487.543 27.2783C490.001 27.2783 492.371 28.1909 494.194 29.8392C496.017 31.4875 497.163 33.7539 497.41 36.1993C497.657 38.6446 496.988 41.0945 495.531 43.0741C494.074 45.0537 491.934 46.4219 489.526 46.9135L489.526 98.6842L553 98.6842L553 102.651L485.559 102.651L485.559 46.9135ZM477.823 166.125L422.086 166.125L422.086 102.651L295.138 102.651L295.138 78.6503C292.73 78.1588 290.59 76.7905 289.134 74.811C287.677 72.8314 287.007 70.3814 287.254 67.9361C287.501 65.4908 288.647 63.2243 290.471 61.576C292.294 59.9278 294.664 59.0152 297.122 59.0152C299.579 59.0152 301.95 59.9278 303.773 61.576C305.596 63.2243 306.742 65.4908 306.989 67.9361C307.236 70.3814 306.567 72.8314 305.11 74.811C303.653 76.7905 301.513 78.1588 299.105 78.6503L299.105 98.6842L426.053 98.6842L426.053 162.158L477.823 162.158C478.315 159.75 479.683 157.61 481.663 156.153C483.642 154.697 486.092 154.027 488.538 154.274C490.983 154.521 493.249 155.667 494.898 157.49C496.546 159.313 497.458 161.684 497.458 164.141C497.458 166.599 496.546 168.969 494.898 170.793C493.249 172.616 490.983 173.762 488.538 174.009C486.092 174.256 483.642 173.586 481.663 172.13C479.683 170.673 478.315 168.533 477.823 166.125ZM390.349 142.124C387.941 141.632 385.801 140.264 384.344 138.285C382.887 136.305 382.218 133.855 382.465 131.41C382.712 128.964 383.858 126.698 385.681 125.05C387.504 123.401 389.874 122.489 392.332 122.489C394.79 122.489 397.16 123.401 398.983 125.05C400.807 126.698 401.953 128.964 402.2 131.41C402.447 133.855 401.777 136.305 400.32 138.285C398.864 140.264 396.724 141.632 394.316 142.124L394.316 193.895L477.823 193.895C478.315 191.487 479.683 189.347 481.663 187.89C483.642 186.433 486.092 185.764 488.538 186.011C490.983 186.258 493.249 187.404 494.898 189.227C496.546 191.05 497.458 193.42 497.458 195.878C497.458 198.336 496.546 200.706 494.898 202.529C493.249 204.353 490.983 205.499 488.538 205.746C486.092 205.993 483.642 205.323 481.663 203.866C479.683 202.41 478.315 200.27 477.823 197.862L390.349 197.862L390.349 142.124ZM517.296 173.861C514.888 173.369 512.748 172.001 511.291 170.021C509.835 168.042 509.165 165.592 509.412 163.147C509.659 160.701 510.805 158.435 512.628 156.787C514.452 155.138 516.822 154.226 519.28 154.226C521.737 154.226 524.108 155.138 525.931 156.787C527.754 158.435 528.9 160.701 529.147 163.147C529.394 165.592 528.724 168.042 527.268 170.021C525.811 172.001 523.671 173.369 521.263 173.861L521.263 229.599L433.788 229.599C433.297 232.007 431.929 234.147 429.949 235.603C427.97 237.06 425.52 237.73 423.074 237.483C420.629 237.236 418.362 236.089 416.714 234.266C415.066 232.443 414.153 230.073 414.153 227.615C414.153 225.157 415.066 222.787 416.714 220.964C418.362 219.141 420.629 217.995 423.074 217.748C425.52 217.501 427.97 218.17 429.949 219.627C431.929 221.084 433.297 223.223 433.788 225.632L517.296 225.632L517.296 173.861ZM-18.2631 376.58C-15.855 377.071 -13.7152 378.44 -12.2586 380.419C-10.8019 382.399 -10.1322 384.849 -10.3792 387.294C-10.6262 389.739 -11.7724 392.006 -13.5955 393.654C-15.4187 395.302 -17.789 396.215 -20.2467 396.215C-22.7045 396.215 -25.0747 395.302 -26.8978 393.654C-28.721 392.006 -29.8672 389.739 -30.1142 387.294C-30.3612 384.849 -29.6915 382.399 -28.2349 380.419C-26.7782 378.44 -24.6384 377.071 -22.2302 376.58L-22.2302 134.388L-50 134.388L-50 130.421L-18.2631 130.421L-18.2631 376.58ZM255.665 420.02L235.632 420.02L235.632 451.757L168.191 451.757L168.191 420.02L45.2105 420.02L45.2105 515.23L-50 515.23L-50 511.263L41.2434 511.263L41.2434 416.053L172.158 416.053L172.158 447.789L231.664 447.789L231.664 416.053L255.665 416.053C256.157 413.644 257.525 411.505 259.505 410.048C261.484 408.591 263.934 407.922 266.38 408.169C268.825 408.416 271.091 409.562 272.74 411.385C274.388 413.208 275.301 415.578 275.301 418.036C275.301 420.494 274.388 422.864 272.74 424.687C271.091 426.51 268.825 427.657 266.38 427.904C263.934 428.151 261.484 427.481 259.505 426.024C257.525 424.568 256.157 422.428 255.665 420.02ZM517.296 46.9135C514.888 46.4219 512.748 45.0537 511.291 43.0741C509.835 41.0945 509.165 38.6446 509.412 36.1993C509.659 33.7539 510.805 31.4875 512.628 29.8392C514.452 28.1909 516.822 27.2783 519.28 27.2783C521.737 27.2783 524.108 28.1909 525.931 29.8392C527.754 31.4875 528.9 33.7539 529.147 36.1993C529.394 38.6446 528.724 41.0945 527.268 43.0741C525.811 45.0537 523.671 46.4219 521.263 46.9135L521.263 66.9474L549.033 66.9474L549.033 35.2105L553 35.2105L553 70.9145L517.296 70.9145L517.296 46.9135ZM453.822 269.071C451.414 268.58 449.274 267.212 447.818 265.232C446.361 263.252 445.691 260.802 445.938 258.357C446.185 255.912 447.332 253.645 449.155 251.997C450.978 250.349 453.348 249.436 455.806 249.436C458.264 249.436 460.634 250.349 462.457 251.997C464.28 253.645 465.426 255.912 465.673 258.357C465.92 260.802 465.251 263.252 463.794 265.232C462.337 267.212 460.198 268.58 457.789 269.071L457.789 320.842L553 320.842L553 420.02L549.033 420.02L549.033 324.809L453.822 324.809L453.822 269.071ZM358.612 173.861C356.204 173.369 354.064 172.001 352.607 170.021C351.151 168.042 350.481 165.592 350.728 163.147C350.975 160.701 352.121 158.435 353.944 156.787C355.767 155.138 358.138 154.226 360.595 154.226C363.053 154.226 365.423 155.138 367.247 156.787C369.07 158.435 370.216 160.701 370.463 163.147C370.71 165.592 370.04 168.042 368.584 170.021C367.127 172.001 364.987 173.369 362.579 173.861L362.579 211.747L426.053 275.22L426.053 352.579L509.56 352.579C510.052 350.171 511.42 348.031 513.4 346.574C515.379 345.118 517.829 344.448 520.274 344.695C522.72 344.942 524.986 346.088 526.634 347.911C528.283 349.734 529.195 352.105 529.195 354.562C529.195 357.02 528.283 359.39 526.634 361.214C524.986 363.037 522.72 364.183 520.274 364.43C517.829 364.677 515.379 364.007 513.4 362.551C511.42 361.094 510.052 358.954 509.56 356.546L422.086 356.546L422.086 276.867L358.612 213.393L358.612 173.861ZM179.894 229.599C179.402 232.007 178.034 234.147 176.054 235.603C174.075 237.06 171.625 237.73 169.18 237.483C166.734 237.236 164.468 236.089 162.819 234.266C161.171 232.443 160.259 230.073 160.259 227.615C160.259 225.157 161.171 222.787 162.819 220.964C164.468 219.141 166.734 217.995 169.18 217.748C171.625 217.501 174.075 218.17 176.054 219.627C178.034 221.084 179.402 223.223 179.894 225.632L331.655 225.632L394.316 288.292L394.316 384.316L509.56 384.316C510.052 381.908 511.42 379.768 513.4 378.311C515.379 376.855 517.829 376.185 520.274 376.432C522.72 376.679 524.986 377.825 526.634 379.648C528.283 381.471 529.195 383.842 529.195 386.299C529.195 388.757 528.283 391.127 526.634 392.95C524.986 394.774 522.72 395.92 520.274 396.167C517.829 396.414 515.379 395.744 513.4 394.287C511.42 392.831 510.052 390.691 509.56 388.283L390.349 388.283L390.349 289.919L330.029 229.599L179.894 229.599ZM116.42 261.335C115.929 263.744 114.56 265.883 112.581 267.34C110.601 268.797 108.151 269.467 105.706 269.219C103.261 268.972 100.994 267.826 99.3458 266.003C97.6975 264.18 96.7849 261.81 96.7849 259.352C96.7849 256.894 97.6975 254.524 99.3458 252.701C100.994 250.878 103.261 249.731 105.706 249.484C108.151 249.237 110.601 249.907 112.581 251.364C114.56 252.82 115.929 254.96 116.42 257.368L313.803 257.368L362.579 306.144L362.579 535.264C364.485 535.653 366.235 536.593 367.61 537.969C368.985 539.344 369.926 541.094 370.315 543L366.209 543C365.8 541.838 365.04 540.831 364.035 540.119C363.029 539.407 361.828 539.024 360.595 539.024C359.363 539.024 358.161 539.407 357.156 540.119C356.15 540.831 355.391 541.838 354.982 543L350.876 543C351.265 541.094 352.205 539.344 353.581 537.969C354.956 536.593 356.706 535.653 358.612 535.264L358.612 307.77L312.177 261.335L116.42 261.335ZM243.367 -24.2961C242.876 -21.888 241.508 -19.7481 239.528 -18.2915C237.549 -16.8348 235.099 -16.1651 232.653 -16.4121C230.208 -16.6591 227.941 -17.8053 226.293 -19.6285C224.645 -21.4516 223.732 -23.8218 223.732 -26.2796C223.732 -28.7374 224.645 -31.1076 226.293 -32.9308C227.941 -34.7539 230.208 -35.9001 232.653 -36.1472C235.099 -36.3942 237.549 -35.7244 239.528 -34.2678C241.508 -32.8111 242.876 -30.6713 243.367 -28.2632L250.33 -28.2632L345.54 66.9474L457.789 66.9474L457.789 130.421L553 130.421L553 134.388L453.822 134.388L453.822 70.9145L343.914 70.9145L248.703 -24.2961L243.367 -24.2961ZM446.087 39.1776L359.782 39.1776L264.572 -56.0329L140.421 -56.0329L140.421 -4.26219C142.829 -3.77064 144.969 -2.40243 146.426 -0.422846C147.882 1.55674 148.552 4.0067 148.305 6.45202C148.058 8.89735 146.912 11.1638 145.089 12.8121C143.265 14.4604 140.895 15.373 138.437 15.373C135.98 15.373 133.61 14.4604 131.786 12.8121C129.963 11.1638 128.817 8.89735 128.57 6.45202C128.323 4.0067 128.993 1.55674 130.449 -0.422847C131.906 -2.40243 134.046 -3.77064 136.454 -4.26219L136.454 -60L266.198 -60L361.409 35.2105L446.087 35.2105C446.578 32.8024 447.946 30.6626 449.926 29.2059C451.905 27.7492 454.355 27.0795 456.801 27.3265C459.246 27.5736 461.513 28.7198 463.161 30.5429C464.809 32.3661 465.722 34.7363 465.722 37.1941C465.722 39.6518 464.809 42.0221 463.161 43.8452C461.513 45.6684 459.246 46.8146 456.801 47.0616C454.355 47.3087 451.905 46.6389 449.926 45.1822C447.946 43.7256 446.578 41.5857 446.087 39.1776ZM414.35 7.44078L375.651 7.44078L308.21 -60L313.803 -60L377.277 3.47367L414.35 3.47368C414.841 1.06556 416.209 -1.07426 418.189 -2.53093C420.169 -3.9876 422.619 -4.65734 425.064 -4.41031C427.509 -4.16328 429.776 -3.01708 431.424 -1.19393C433.072 0.629229 433.985 2.99946 433.985 5.45723C433.985 7.915 433.072 10.2852 431.424 12.1084C429.776 13.9315 427.509 15.0777 425.064 15.3248C422.619 15.5718 420.169 14.9021 418.189 13.4454C416.209 11.9887 414.841 9.8489 414.35 7.44078ZM453.822 491.229C451.414 490.738 449.274 489.37 447.818 487.39C446.361 485.41 445.691 482.96 445.938 480.515C446.185 478.07 447.332 475.803 449.155 474.155C450.978 472.507 453.348 471.594 455.806 471.594C458.264 471.594 460.634 472.507 462.457 474.155C464.28 475.803 465.426 478.07 465.673 480.515C465.92 482.96 465.251 485.41 463.794 487.39C462.337 489.37 460.198 490.738 457.789 491.229L457.789 528.302L472.488 543L466.894 543L453.822 529.928L453.822 491.229ZM136.454 459.492C134.046 459.001 131.906 457.633 130.449 455.653C128.993 453.673 128.323 451.224 128.57 448.778C128.817 446.333 129.963 444.066 131.786 442.418C133.61 440.77 135.98 439.857 138.437 439.857C140.895 439.857 143.265 440.77 145.089 442.418C146.912 444.066 148.058 446.333 148.305 448.778C148.552 451.224 147.882 453.673 146.426 455.653C144.969 457.633 142.829 459.001 140.421 459.492L140.421 511.263L282.067 511.263L313.803 543L308.21 543L280.44 515.23L136.454 515.23L136.454 459.492ZM72.9803 46.9135C70.5722 46.4219 68.4323 45.0537 66.9757 43.0741C65.519 41.0945 64.8492 38.6446 65.0963 36.1993C65.3433 33.7539 66.4895 31.4874 68.3127 29.8392C70.1358 28.1909 72.5061 27.2783 74.9638 27.2783C77.4216 27.2783 79.7918 28.1909 81.615 29.8392C83.4381 31.4874 84.5843 33.7539 84.8314 36.1993C85.0784 38.6446 84.4086 41.0945 82.952 43.0741C81.4953 45.0537 79.3555 46.4219 76.9474 46.9135L76.9474 66.9473L121.756 66.9473L168.191 20.5124L168.191 -16.5602C165.783 -17.0518 163.643 -18.42 162.186 -20.3996C160.73 -22.3791 160.06 -24.8291 160.307 -27.2744C160.554 -29.7198 161.7 -31.9863 163.523 -33.6345C165.346 -35.2828 167.717 -36.1954 170.174 -36.1954C172.632 -36.1954 175.002 -35.2828 176.825 -33.6345C178.649 -31.9863 179.795 -29.7198 180.042 -27.2744C180.289 -24.8291 179.619 -22.3791 178.163 -20.3996C176.706 -18.42 174.566 -17.0518 172.158 -16.5602L172.158 22.1389L123.382 70.9145L72.9803 70.9145L72.9803 46.9135ZM45.2105 344.843C47.6186 345.335 49.7584 346.703 51.2151 348.682C52.6718 350.662 53.3416 353.112 53.0945 355.557C52.8475 358.003 51.7013 360.269 49.8781 361.917C48.055 363.566 45.6847 364.478 43.227 364.478C40.7692 364.478 38.399 363.566 36.5758 361.917C34.7527 360.269 33.6065 358.003 33.3595 355.557C33.1125 353.112 33.7821 350.662 35.2388 348.682C36.6955 346.703 38.8353 345.335 41.2434 344.843L41.2434 130.421L153.513 130.421L231.664 52.2691L231.664 15.1766C229.256 14.6851 227.117 13.3169 225.66 11.3373C224.203 9.35769 223.533 6.90775 223.78 4.46242C224.028 2.01709 225.174 -0.249408 226.997 -1.89767C228.82 -3.54592 231.19 -4.45852 233.648 -4.45852C236.106 -4.45852 238.476 -3.54592 240.299 -1.89767C242.122 -0.249407 243.269 2.01709 243.516 4.46242C243.763 6.90775 243.093 9.35769 241.636 11.3373C240.18 13.3169 238.04 14.6851 235.632 15.1766L235.632 53.8559L155.099 134.388L45.2105 134.388L45.2105 344.843ZM41.2434 46.9135C38.8353 46.4219 36.6955 45.0537 35.2388 43.0741C33.7822 41.0945 33.1125 38.6446 33.3595 36.1992C33.6065 33.7539 34.7527 31.4874 36.5759 29.8392C38.399 28.1909 40.7692 27.2783 43.227 27.2783C45.6847 27.2783 48.055 28.1909 49.8781 29.8392C51.7013 31.4874 52.8475 33.7539 53.0945 36.1993C53.3416 38.6446 52.6718 41.0945 51.2151 43.0741C49.7584 45.0537 47.6186 46.4219 45.2105 46.9135L45.2105 98.6842L137.624 98.6842L199.928 36.3808L199.928 -16.5602C197.52 -17.0518 195.38 -18.42 193.923 -20.3996C192.466 -22.3791 191.797 -24.8291 192.044 -27.2744C192.291 -29.7197 193.437 -31.9863 195.26 -33.6345C197.083 -35.2828 199.453 -36.1954 201.911 -36.1954C204.369 -36.1954 206.739 -35.2828 208.562 -33.6345C210.385 -31.9862 211.532 -29.7197 211.779 -27.2744C212.026 -24.8291 211.356 -22.3791 209.899 -20.3996C208.443 -18.42 206.303 -17.0518 203.895 -16.5602L203.895 38.0073L139.251 102.651L41.2434 102.651L41.2434 46.9135ZM-42.2642 -56.0329C-42.6529 -54.1269 -43.5934 -52.3773 -44.9689 -51.0019C-46.3444 -49.6264 -48.094 -48.6858 -50 -48.2971L-50 -52.403C-49.2626 -52.6632 -48.5837 -53.0661 -48.0021 -53.5888C-47.4205 -54.1115 -46.9476 -54.7437 -46.6105 -55.4492C-46.2734 -56.1548 -46.0787 -56.9198 -46.0374 -57.7007C-45.9962 -58.4815 -46.1093 -59.2629 -46.3701 -60L45.2105 -60L45.2105 -24.2961L-50 -24.2961L-50 -28.2632L41.2434 -28.2632L41.2434 -56.0329L-42.2642 -56.0329ZM74.9638 7.44077L-50 7.44076L-50 3.47366L72.9803 3.47366L72.9803 -60L76.9474 -60L76.9474 7.44077L74.9638 7.44077ZM521.263 515.23L521.263 543L517.296 543L517.296 511.263L553 511.263L553 515.23L521.263 515.23ZM-20.2467 451.757L-50 451.757L-50 447.789L-22.2302 447.789L-22.2302 420.02L-50 420.02L-50 416.053L-18.2631 416.053L-18.2631 451.757L-20.2467 451.757ZM13.4737 98.6842L13.4737 102.651L-50 102.651L-50 98.6842L13.4737 98.6842ZM-50 173.861L-50 169.755C-48.8377 169.346 -47.8309 168.586 -47.1187 167.581C-46.4066 166.575 -46.0241 165.374 -46.0241 164.141C-46.0241 162.909 -46.4066 161.707 -47.1187 160.702C-47.8309 159.696 -48.8377 158.937 -50 158.528L-50 154.422C-47.758 154.877 -45.7424 156.094 -44.2946 157.865C-42.8468 159.636 -42.0559 161.854 -42.0559 164.141C-42.0559 166.429 -42.8468 168.647 -44.2946 170.418C-45.7424 172.189 -47.758 173.406 -50 173.861ZM553 535.264L553 539.37C552.263 539.109 551.481 538.996 550.701 539.037C549.92 539.079 549.155 539.273 548.449 539.611C547.744 539.948 547.111 540.42 546.589 541.002C546.066 541.584 545.663 542.263 545.403 543L541.297 543C541.557 541.724 542.066 540.511 542.795 539.431C543.525 538.352 544.459 537.426 545.546 536.708C546.633 535.989 547.85 535.492 549.129 535.244C550.408 534.997 551.724 535.003 553 535.264ZM-42.2642 543L-46.3701 543C-46.6659 542.162 -47.1454 541.402 -47.7735 540.773C-48.4016 540.145 -49.1624 539.666 -50 539.37L-50 535.264C-48.094 535.653 -46.3444 536.593 -44.969 537.969C-43.5935 539.344 -42.6529 541.094 -42.2642 543ZM354.645 132.405C354.645 133.186 354.799 133.96 355.098 134.682C355.397 135.404 355.835 136.06 356.388 136.612C356.94 137.165 357.596 137.603 358.318 137.902C359.04 138.201 359.814 138.355 360.595 138.355C361.377 138.355 362.151 138.201 362.873 137.902C363.595 137.603 364.251 137.165 364.803 136.612C365.356 136.06 365.794 135.404 366.093 134.682C366.392 133.96 366.546 133.186 366.546 132.405C366.546 130.826 365.919 129.313 364.803 128.197C363.687 127.081 362.174 126.454 360.595 126.454C359.017 126.454 357.504 127.081 356.388 128.197C355.272 129.313 354.645 130.826 354.645 132.405ZM386.382 132.405C386.382 133.983 387.009 135.496 388.124 136.612C389.24 137.728 390.754 138.355 392.332 138.355C393.91 138.355 395.424 137.728 396.54 136.612C397.656 135.496 398.283 133.983 398.283 132.405C398.283 130.826 397.656 129.313 396.54 128.197C395.424 127.081 393.91 126.454 392.332 126.454C390.754 126.454 389.24 127.081 388.124 128.197C387.009 129.313 386.382 130.826 386.382 132.405ZM354.645 164.141C354.645 164.923 354.799 165.697 355.098 166.419C355.397 167.141 355.835 167.797 356.388 168.349C356.94 168.902 357.596 169.34 358.318 169.639C359.04 169.938 359.814 170.092 360.595 170.092C361.377 170.092 362.151 169.938 362.873 169.639C363.595 169.34 364.251 168.902 364.803 168.349C365.356 167.797 365.794 167.141 366.093 166.419C366.392 165.697 366.546 164.923 366.546 164.141C366.546 162.563 365.919 161.05 364.803 159.934C363.687 158.818 362.174 158.191 360.595 158.191C359.017 158.191 357.504 158.818 356.388 159.934C355.272 161.05 354.645 162.563 354.645 164.141ZM322.908 195.878C322.908 197.456 323.535 198.97 324.651 200.086C325.767 201.202 327.28 201.829 328.859 201.829C330.437 201.829 331.95 201.202 333.066 200.086C334.182 198.97 334.809 197.456 334.809 195.878C334.809 194.3 334.182 192.786 333.066 191.671C331.95 190.555 330.437 189.928 328.859 189.928C327.28 189.928 325.767 190.555 324.651 191.671C323.535 192.786 322.908 194.3 322.908 195.878ZM291.171 195.878C291.171 197.456 291.798 198.97 292.914 200.086C294.03 201.202 295.544 201.829 297.122 201.829C298.7 201.829 300.213 201.202 301.329 200.086C302.445 198.97 303.072 197.456 303.072 195.878C303.072 194.3 302.445 192.786 301.329 191.671C300.213 190.555 298.7 189.928 297.122 189.928C295.544 189.928 294.03 190.555 292.914 191.671C291.798 192.786 291.171 194.3 291.171 195.878ZM227.697 100.668C227.697 102.246 228.324 103.76 229.44 104.876C230.556 105.991 232.07 106.618 233.648 106.618C235.226 106.618 236.74 105.991 237.856 104.876C238.972 103.76 239.599 102.246 239.599 100.668C239.599 99.0895 238.972 97.576 237.856 96.46C236.74 95.344 235.226 94.7171 233.648 94.7171C232.07 94.7171 230.556 95.344 229.44 96.46C228.324 97.576 227.697 99.0895 227.697 100.668ZM195.961 132.405C195.961 133.983 196.587 135.496 197.703 136.612C198.819 137.728 200.333 138.355 201.911 138.355C203.489 138.355 205.003 137.728 206.119 136.612C207.235 135.496 207.862 133.983 207.862 132.405C207.862 130.826 207.235 129.313 206.119 128.197C205.003 127.081 203.489 126.454 201.911 126.454C200.333 126.454 198.819 127.081 197.703 128.197C196.587 129.313 195.961 130.826 195.961 132.405ZM100.75 195.878C100.75 197.456 101.377 198.97 102.493 200.086C103.609 201.202 105.122 201.829 106.701 201.829C108.279 201.829 109.792 201.202 110.908 200.086C112.024 198.97 112.651 197.456 112.651 195.878C112.651 194.3 112.024 192.786 110.908 191.671C109.792 190.555 108.279 189.928 106.701 189.928C105.122 189.928 103.609 190.555 102.493 191.671C101.377 192.786 100.75 194.3 100.75 195.878ZM69.0132 164.141C69.0132 165.72 69.6401 167.233 70.7561 168.349C71.872 169.465 73.3856 170.092 74.9638 170.092C76.542 170.092 78.0556 169.465 79.1716 168.349C80.2875 167.233 80.9145 165.72 80.9145 164.141C80.9145 162.563 80.2875 161.05 79.1716 159.934C78.0556 158.818 76.542 158.191 74.9638 158.191C73.3856 158.191 71.872 158.818 70.7561 159.934C69.6401 161.05 69.0132 162.563 69.0132 164.141ZM100.75 227.615C100.75 229.193 101.377 230.707 102.493 231.823C103.609 232.939 105.122 233.566 106.701 233.566C108.279 233.566 109.792 232.939 110.908 231.823C112.024 230.707 112.651 229.193 112.651 227.615C112.651 226.037 112.024 224.523 110.908 223.407C109.792 222.291 108.279 221.664 106.701 221.664C105.122 221.664 103.609 222.291 102.493 223.407C101.377 224.523 100.75 226.037 100.75 227.615ZM164.224 227.615C164.224 229.193 164.851 230.707 165.967 231.823C167.083 232.939 168.596 233.566 170.174 233.566C171.753 233.566 173.266 232.939 174.382 231.823C175.498 230.707 176.125 229.193 176.125 227.615C176.125 226.037 175.498 224.523 174.382 223.407C173.266 222.291 171.753 221.664 170.174 221.664C168.596 221.664 167.083 222.291 165.967 223.407C164.851 224.523 164.224 226.037 164.224 227.615ZM100.75 259.352C100.75 260.93 101.377 262.444 102.493 263.56C103.609 264.676 105.122 265.303 106.701 265.303C108.279 265.303 109.792 264.676 110.908 263.56C112.024 262.444 112.651 260.93 112.651 259.352C112.651 257.774 112.024 256.26 110.908 255.144C109.792 254.028 108.279 253.401 106.701 253.401C105.122 253.401 103.609 254.028 102.493 255.144C101.377 256.26 100.75 257.774 100.75 259.352ZM69.0132 322.826C69.0132 324.404 69.6401 325.917 70.7561 327.033C71.872 328.149 73.3856 328.776 74.9638 328.776C76.542 328.776 78.0556 328.149 79.1716 327.033C80.2875 325.917 80.9145 324.404 80.9145 322.826C80.9145 321.247 80.2875 319.734 79.1716 318.618C78.0556 317.502 76.542 316.875 74.9638 316.875C73.3856 316.875 71.872 317.502 70.7561 318.618C69.6401 319.734 69.0132 321.247 69.0132 322.826ZM100.75 322.826C100.75 324.404 101.377 325.917 102.493 327.033C103.609 328.149 105.122 328.776 106.701 328.776C108.279 328.776 109.792 328.149 110.908 327.033C112.024 325.917 112.651 324.404 112.651 322.826C112.651 321.247 112.024 319.734 110.908 318.618C109.792 317.502 108.279 316.875 106.701 316.875C105.122 316.875 103.609 317.502 102.493 318.618C101.377 319.734 100.75 321.247 100.75 322.826ZM227.697 291.089C227.697 292.667 228.324 294.181 229.44 295.297C230.556 296.413 232.07 297.039 233.648 297.039C235.226 297.039 236.74 296.413 237.856 295.297C238.972 294.181 239.599 292.667 239.599 291.089C239.599 289.511 238.972 287.997 237.856 286.881C236.74 285.765 235.226 285.138 233.648 285.138C232.07 285.138 230.556 285.765 229.44 286.881C228.324 287.997 227.697 289.511 227.697 291.089ZM227.697 322.826C227.697 324.404 228.324 325.917 229.44 327.033C230.556 328.149 232.07 328.776 233.648 328.776C235.226 328.776 236.74 328.149 237.856 327.033C238.972 325.917 239.599 324.404 239.599 322.826C239.599 321.247 238.972 319.734 237.856 318.618C236.74 317.502 235.226 316.875 233.648 316.875C232.07 316.875 230.556 317.502 229.44 318.618C228.324 319.734 227.697 321.247 227.697 322.826ZM37.2763 354.562C37.2763 356.141 37.9033 357.654 39.0193 358.77C40.1352 359.886 41.6488 360.513 43.227 360.513C44.8052 360.513 46.3188 359.886 47.4347 358.77C48.5507 357.654 49.1776 356.141 49.1776 354.562C49.1776 352.984 48.5507 351.471 47.4347 350.355C46.3188 349.239 44.8052 348.612 43.227 348.612C41.6488 348.612 40.1352 349.239 39.0193 350.355C37.9033 351.471 37.2763 352.984 37.2763 354.562ZM5.53947 354.562C5.53947 356.141 6.16642 357.654 7.28239 358.77C8.39836 359.886 9.91197 360.513 11.4902 360.513C13.0683 360.513 14.5819 359.886 15.6979 358.77C16.8138 357.654 17.4408 356.141 17.4408 354.562C17.4408 352.984 16.8138 351.471 15.6979 350.355C14.5819 349.239 13.0683 348.612 11.4902 348.612C9.91197 348.612 8.39836 349.239 7.28239 350.355C6.16642 351.471 5.53947 352.984 5.53947 354.562ZM-26.1973 386.299C-26.1973 387.878 -25.5704 389.391 -24.4544 390.507C-23.3385 391.623 -21.8249 392.25 -20.2467 392.25C-18.6685 392.25 -17.1549 391.623 -16.039 390.507C-14.923 389.391 -14.296 387.878 -14.296 386.299C-14.296 384.721 -14.923 383.208 -16.039 382.092C-17.1549 380.976 -18.6685 380.349 -20.2467 380.349C-21.8249 380.349 -23.3385 380.976 -24.4544 382.092C-25.5704 383.208 -26.1973 384.721 -26.1973 386.299ZM259.434 418.036C259.434 419.614 260.061 421.128 261.177 422.244C262.293 423.36 263.807 423.987 265.385 423.987C266.963 423.987 268.477 423.36 269.593 422.244C270.709 421.128 271.336 419.614 271.336 418.036C271.336 416.458 270.709 414.944 269.593 413.828C268.477 412.712 266.963 412.085 265.385 412.085C263.807 412.085 262.293 412.712 261.177 413.828C260.061 414.944 259.434 416.458 259.434 418.036ZM195.961 418.036C195.961 419.614 196.587 421.128 197.703 422.244C198.819 423.36 200.333 423.987 201.911 423.987C203.489 423.987 205.003 423.36 206.119 422.244C207.235 421.128 207.862 419.614 207.862 418.036C207.862 416.458 207.235 414.944 206.119 413.828C205.003 412.712 203.489 412.085 201.911 412.085C200.333 412.085 198.819 412.712 197.703 413.828C196.587 414.944 195.961 416.458 195.961 418.036ZM259.434 449.773C259.434 451.351 260.061 452.865 261.177 453.981C262.293 455.097 263.807 455.724 265.385 455.724C266.963 455.724 268.477 455.097 269.593 453.981C270.709 452.865 271.336 451.351 271.336 449.773C271.336 448.195 270.709 446.681 269.593 445.565C268.477 444.449 266.963 443.822 265.385 443.822C263.807 443.822 262.293 444.449 261.177 445.565C260.061 446.681 259.434 448.195 259.434 449.773ZM291.171 481.51C291.171 483.088 291.798 484.602 292.914 485.718C294.03 486.834 295.543 487.46 297.122 487.46C298.7 487.46 300.213 486.834 301.329 485.718C302.445 484.602 303.072 483.088 303.072 481.51C303.072 479.932 302.445 478.418 301.329 477.302C300.213 476.186 298.7 475.559 297.122 475.559C295.543 475.559 294.03 476.186 292.914 477.302C291.798 478.418 291.171 479.932 291.171 481.51ZM291.171 291.089C291.171 292.667 291.798 294.181 292.914 295.297C294.03 296.413 295.544 297.039 297.122 297.039C298.7 297.039 300.213 296.413 301.329 295.297C302.445 294.181 303.072 292.667 303.072 291.089C303.072 289.511 302.445 287.997 301.329 286.881C300.213 285.765 298.7 285.138 297.122 285.138C295.544 285.138 294.03 285.765 292.914 286.881C291.798 287.997 291.171 289.511 291.171 291.089ZM259.434 291.089C259.434 292.667 260.061 294.181 261.177 295.297C262.293 296.413 263.807 297.039 265.385 297.039C266.963 297.039 268.477 296.413 269.593 295.297C270.709 294.181 271.336 292.667 271.336 291.089C271.336 289.511 270.709 287.997 269.593 286.881C268.477 285.765 266.963 285.138 265.385 285.138C263.807 285.138 262.293 285.765 261.177 286.881C260.061 287.997 259.434 289.511 259.434 291.089ZM322.908 322.826C322.908 324.404 323.535 325.917 324.651 327.033C325.767 328.149 327.28 328.776 328.859 328.776C330.437 328.776 331.95 328.149 333.066 327.033C334.182 325.917 334.809 324.404 334.809 322.826C334.809 321.247 334.182 319.734 333.066 318.618C331.95 317.502 330.437 316.875 328.859 316.875C327.28 316.875 325.767 317.502 324.651 318.618C323.535 319.734 322.908 321.247 322.908 322.826ZM322.908 513.247C322.908 514.825 323.535 516.338 324.651 517.454C325.767 518.57 327.28 519.197 328.859 519.197C330.437 519.197 331.95 518.57 333.066 517.454C334.182 516.338 334.809 514.825 334.809 513.247C334.809 511.669 334.182 510.155 333.066 509.039C331.95 507.923 330.437 507.296 328.859 507.296C327.28 507.296 325.767 507.923 324.651 509.039C323.535 510.155 322.908 511.669 322.908 513.247ZM449.855 481.51C449.855 483.088 450.482 484.602 451.598 485.718C452.714 486.834 454.228 487.461 455.806 487.461C457.384 487.461 458.898 486.834 460.014 485.718C461.13 484.602 461.757 483.088 461.757 481.51C461.757 479.932 461.13 478.418 460.014 477.302C458.898 476.186 457.384 475.559 455.806 475.559C454.228 475.559 452.714 476.186 451.598 477.302C450.482 478.418 449.855 479.932 449.855 481.51ZM481.592 513.247C481.592 514.825 482.219 516.338 483.335 517.454C484.451 518.57 485.965 519.197 487.543 519.197C489.121 519.197 490.635 518.57 491.75 517.454C492.866 516.338 493.493 514.825 493.493 513.247C493.493 511.669 492.866 510.155 491.75 509.039C490.635 507.923 489.121 507.296 487.543 507.296C485.965 507.296 484.451 507.923 483.335 509.039C482.219 510.155 481.592 511.669 481.592 513.247ZM481.592 449.773C481.592 451.351 482.219 452.865 483.335 453.981C484.451 455.097 485.965 455.724 487.543 455.724C489.121 455.724 490.635 455.097 491.75 453.981C492.866 452.865 493.493 451.351 493.493 449.773C493.493 448.195 492.866 446.681 491.75 445.565C490.635 444.449 489.121 443.822 487.543 443.822C485.965 443.822 484.451 444.449 483.335 445.565C482.219 446.681 481.592 448.195 481.592 449.773ZM513.329 449.773C513.329 451.351 513.956 452.865 515.072 453.981C516.188 455.097 517.701 455.724 519.28 455.724C520.858 455.724 522.371 455.097 523.487 453.981C524.603 452.865 525.23 451.351 525.23 449.773C525.23 448.195 524.603 446.681 523.487 445.565C522.371 444.449 520.858 443.822 519.28 443.822C517.701 443.822 516.188 444.449 515.072 445.565C513.956 446.681 513.329 448.195 513.329 449.773ZM513.329 418.036C513.329 419.614 513.956 421.128 515.072 422.244C516.188 423.36 517.701 423.987 519.28 423.987C520.858 423.987 522.371 423.36 523.487 422.244C524.603 421.128 525.23 419.614 525.23 418.036C525.23 416.458 524.603 414.944 523.487 413.828C522.371 412.712 520.858 412.086 519.28 412.086C517.701 412.086 516.188 412.712 515.072 413.828C513.956 414.944 513.329 416.458 513.329 418.036ZM513.329 386.299C513.329 387.878 513.956 389.391 515.072 390.507C516.188 391.623 517.701 392.25 519.28 392.25C520.858 392.25 522.371 391.623 523.487 390.507C524.603 389.391 525.23 387.878 525.23 386.299C525.23 384.721 524.603 383.208 523.487 382.092C522.371 380.976 520.858 380.349 519.28 380.349C517.701 380.349 516.188 380.976 515.072 382.092C513.956 383.208 513.329 384.721 513.329 386.299ZM513.329 354.562C513.329 356.141 513.956 357.654 515.072 358.77C516.188 359.886 517.701 360.513 519.28 360.513C520.858 360.513 522.371 359.886 523.487 358.77C524.603 357.654 525.23 356.141 525.23 354.562C525.23 352.984 524.603 351.471 523.487 350.355C522.371 349.239 520.858 348.612 519.28 348.612C517.701 348.612 516.188 349.239 515.072 350.355C513.956 351.471 513.329 352.984 513.329 354.562ZM481.592 37.1941C481.592 38.7723 482.219 40.2859 483.335 41.4018C484.451 42.5178 485.965 43.1447 487.543 43.1447C489.121 43.1447 490.635 42.5178 491.751 41.4018C492.866 40.2859 493.493 38.7723 493.493 37.1941C493.493 35.6159 492.866 34.1023 491.751 32.9863C490.635 31.8704 489.121 31.2434 487.543 31.2434C485.965 31.2434 484.451 31.8704 483.335 32.9863C482.219 34.1023 481.592 35.6159 481.592 37.1941ZM449.855 37.1941C449.855 38.7723 450.482 40.2859 451.598 41.4018C452.714 42.5178 454.228 43.1447 455.806 43.1447C457.384 43.1447 458.898 42.5178 460.014 41.4018C461.13 40.2859 461.757 38.7723 461.757 37.1941C461.757 35.6159 461.13 34.1023 460.014 32.9863C458.898 31.8704 457.384 31.2434 455.806 31.2434C454.228 31.2434 452.714 31.8704 451.598 32.9863C450.482 34.1023 449.855 35.6159 449.855 37.1941ZM418.118 5.45723C418.118 7.03544 418.745 8.54901 419.861 9.66498C420.977 10.7809 422.491 11.4079 424.069 11.4079C425.647 11.4079 427.161 10.7809 428.277 9.66498C429.393 8.54901 430.02 7.03544 430.02 5.45723C430.02 3.87902 429.393 2.36544 428.277 1.24948C427.161 0.133517 425.647 -0.493429 424.069 -0.493429C422.491 -0.493429 420.977 0.133516 419.861 1.24948C418.745 2.36544 418.118 3.87902 418.118 5.45723ZM513.329 37.1941C513.329 38.7723 513.956 40.2859 515.072 41.4018C516.188 42.5178 517.701 43.1447 519.28 43.1447C520.858 43.1447 522.371 42.5178 523.487 41.4018C524.603 40.2859 525.23 38.7723 525.23 37.1941C525.23 35.6159 524.603 34.1023 523.487 32.9863C522.371 31.8704 520.858 31.2434 519.28 31.2434C517.701 31.2434 516.188 31.8704 515.072 32.9863C513.956 34.1023 513.329 35.6159 513.329 37.1941ZM37.2763 37.1941C37.2763 38.7723 37.9033 40.2858 39.0193 41.4018C40.1352 42.5178 41.6488 43.1447 43.227 43.1447C44.8052 43.1447 46.3188 42.5178 47.4347 41.4018C48.5507 40.2858 49.1776 38.7723 49.1776 37.1941C49.1776 35.6158 48.5507 34.1023 47.4347 32.9863C46.3188 31.8703 44.8052 31.2434 43.227 31.2434C41.6488 31.2434 40.1352 31.8703 39.0193 32.9863C37.9033 34.1023 37.2763 35.6158 37.2763 37.1941ZM-26.1973 68.9309C-26.1973 70.5091 -25.5704 72.0227 -24.4544 73.1386C-23.3384 74.2546 -21.8249 74.8816 -20.2467 74.8816C-18.6685 74.8816 -17.1549 74.2546 -16.0389 73.1386C-14.923 72.0227 -14.296 70.5091 -14.296 68.9309C-14.296 67.3527 -14.923 65.8391 -16.0389 64.7231C-17.1549 63.6072 -18.6685 62.9802 -20.2467 62.9802C-21.8249 62.9802 -23.3384 63.6072 -24.4544 64.7231C-25.5704 65.8391 -26.1973 67.3527 -26.1973 68.9309ZM100.75 37.1941C100.75 38.7723 101.377 40.2858 102.493 41.4018C103.609 42.5178 105.122 43.1447 106.701 43.1447C108.279 43.1447 109.792 42.5178 110.908 41.4018C112.024 40.2858 112.651 38.7723 112.651 37.1941C112.651 35.6158 112.024 34.1023 110.908 32.9863C109.792 31.8703 108.279 31.2434 106.701 31.2434C105.122 31.2434 103.609 31.8703 102.493 32.9863C101.377 34.1023 100.75 35.6158 100.75 37.1941ZM69.0132 37.1941C69.0132 38.7723 69.6401 40.2858 70.7561 41.4018C71.872 42.5178 73.3856 43.1447 74.9638 43.1447C76.542 43.1447 78.0556 42.5178 79.1716 41.4018C80.2875 40.2858 80.9145 38.7723 80.9145 37.1941C80.9145 35.6158 80.2875 34.1023 79.1716 32.9863C78.0556 31.8703 76.542 31.2434 74.9638 31.2434C73.3856 31.2434 71.872 31.8703 70.7561 32.9863C69.6401 34.1023 69.0132 35.6158 69.0132 37.1941ZM132.487 5.45722C132.487 7.03543 133.114 8.549 134.23 9.66497C135.346 10.7809 136.859 11.4079 138.437 11.4079C140.016 11.4079 141.529 10.7809 142.645 9.66497C143.761 8.549 144.388 7.03543 144.388 5.45722C144.388 3.87901 143.761 2.36543 142.645 1.24947C141.529 0.133504 140.016 -0.493442 138.437 -0.493442C136.859 -0.493442 135.346 0.133504 134.23 1.24947C133.114 2.36543 132.487 3.87901 132.487 5.45722ZM481.592 164.141C481.592 165.72 482.219 167.233 483.335 168.349C484.451 169.465 485.965 170.092 487.543 170.092C489.121 170.092 490.635 169.465 491.751 168.349C492.866 167.233 493.493 165.72 493.493 164.141C493.493 162.563 492.866 161.05 491.751 159.934C490.635 158.818 489.121 158.191 487.543 158.191C485.965 158.191 484.451 158.818 483.335 159.934C482.219 161.05 481.592 162.563 481.592 164.141ZM481.592 195.878C481.592 197.456 482.219 198.97 483.335 200.086C484.451 201.202 485.965 201.829 487.543 201.829C489.121 201.829 490.635 201.202 491.751 200.086C492.866 198.97 493.493 197.456 493.493 195.878C493.493 194.3 492.866 192.786 491.751 191.671C490.635 190.555 489.121 189.928 487.543 189.928C485.965 189.928 484.451 190.555 483.335 191.671C482.219 192.786 481.592 194.3 481.592 195.878ZM513.329 164.141C513.329 165.72 513.956 167.233 515.072 168.349C516.188 169.465 517.701 170.092 519.28 170.092C520.858 170.092 522.371 169.465 523.487 168.349C524.603 167.233 525.23 165.72 525.23 164.141C525.23 162.563 524.603 161.05 523.487 159.934C522.371 158.818 520.858 158.191 519.28 158.191C517.701 158.191 516.188 158.818 515.072 159.934C513.956 161.05 513.329 162.563 513.329 164.141ZM418.118 227.615C418.118 229.193 418.745 230.707 419.861 231.823C420.977 232.939 422.491 233.566 424.069 233.566C425.647 233.566 427.161 232.939 428.277 231.823C429.393 230.707 430.02 229.193 430.02 227.615C430.02 226.037 429.393 224.523 428.277 223.407C427.161 222.291 425.647 221.664 424.069 221.664C422.491 221.664 420.977 222.291 419.861 223.407C418.745 224.523 418.118 226.037 418.118 227.615ZM449.855 259.352C449.855 260.93 450.482 262.444 451.598 263.56C452.714 264.676 454.228 265.303 455.806 265.303C457.384 265.303 458.898 264.676 460.014 263.56C461.13 262.444 461.757 260.93 461.757 259.352C461.757 257.774 461.13 256.26 460.014 255.144C458.898 254.028 457.384 253.401 455.806 253.401C454.228 253.401 452.714 254.028 451.598 255.144C450.482 256.26 449.855 257.774 449.855 259.352ZM164.224 481.51C164.224 483.088 164.851 484.602 165.967 485.718C167.083 486.834 168.596 487.46 170.174 487.46C171.753 487.46 173.266 486.834 174.382 485.718C175.498 484.602 176.125 483.088 176.125 481.51C176.125 479.932 175.498 478.418 174.382 477.302C173.266 476.186 171.753 475.559 170.174 475.559C168.596 475.559 167.083 476.186 165.967 477.302C164.851 478.418 164.224 479.932 164.224 481.51ZM132.487 449.773C132.487 451.351 133.114 452.865 134.23 453.981C135.346 455.097 136.859 455.724 138.437 455.724C140.016 455.724 141.529 455.097 142.645 453.981C143.761 452.865 144.388 451.351 144.388 449.773C144.388 448.195 143.761 446.681 142.645 445.565C141.529 444.449 140.016 443.822 138.437 443.822C136.859 443.822 135.346 444.449 134.23 445.565C133.114 446.681 132.487 448.195 132.487 449.773ZM100.75 449.773C100.75 451.351 101.377 452.865 102.493 453.981C103.609 455.097 105.122 455.724 106.701 455.724C108.279 455.724 109.792 455.097 110.908 453.981C112.024 452.865 112.651 451.351 112.651 449.773C112.651 448.195 112.024 446.681 110.908 445.565C109.792 444.449 108.279 443.822 106.701 443.822C105.122 443.822 103.609 444.449 102.493 445.565C101.377 446.681 100.75 448.195 100.75 449.773ZM69.0132 449.773C69.0132 451.351 69.6401 452.865 70.7561 453.981C71.872 455.097 73.3856 455.724 74.9638 455.724C76.542 455.724 78.0556 455.097 79.1715 453.981C80.2875 452.865 80.9145 451.351 80.9145 449.773C80.9145 448.195 80.2875 446.681 79.1715 445.565C78.0556 444.449 76.542 443.822 74.9638 443.822C73.3856 443.822 71.872 444.449 70.7561 445.565C69.6401 446.681 69.0132 448.195 69.0132 449.773ZM195.961 -26.2796C195.961 -24.7014 196.587 -23.1878 197.703 -22.0719C198.819 -20.9559 200.333 -20.329 201.911 -20.329C203.489 -20.329 205.003 -20.9559 206.119 -22.0719C207.235 -23.1878 207.862 -24.7014 207.862 -26.2796C207.862 -27.8578 207.235 -29.3714 206.119 -30.4874C205.003 -31.6033 203.489 -32.2303 201.911 -32.2303C200.333 -32.2303 198.819 -31.6033 197.703 -30.4874C196.587 -29.3714 195.961 -27.8578 195.961 -26.2796ZM164.224 -26.2796C164.224 -24.7014 164.851 -23.1878 165.967 -22.0719C167.083 -20.9559 168.596 -20.329 170.174 -20.329C171.753 -20.329 173.266 -20.9559 174.382 -22.0719C175.498 -23.1878 176.125 -24.7014 176.125 -26.2796C176.125 -27.8578 175.498 -29.3714 174.382 -30.4874C173.266 -31.6033 171.753 -32.2303 170.174 -32.2303C168.596 -32.2303 167.083 -31.6033 165.967 -30.4874C164.851 -29.3714 164.224 -27.8578 164.224 -26.2796ZM227.697 -26.2796C227.697 -24.7014 228.324 -23.1878 229.44 -22.0719C230.556 -20.9559 232.07 -20.329 233.648 -20.329C235.226 -20.329 236.74 -20.9559 237.856 -22.0719C238.972 -23.1878 239.599 -24.7014 239.599 -26.2796C239.599 -27.8578 238.972 -29.3714 237.856 -30.4874C236.74 -31.6033 235.226 -32.2303 233.648 -32.2303C232.07 -32.2303 230.556 -31.6033 229.44 -30.4874C228.324 -29.3714 227.697 -27.8578 227.697 -26.2796ZM227.697 5.45722C227.697 7.03543 228.324 8.549 229.44 9.66497C230.556 10.7809 232.07 11.4079 233.648 11.4079C235.226 11.4079 236.74 10.7809 237.856 9.66497C238.972 8.54901 239.599 7.03543 239.599 5.45722C239.599 3.87901 238.972 2.36543 237.856 1.24947C236.74 0.133508 235.226 -0.493437 233.648 -0.493437C232.07 -0.493437 230.556 0.133508 229.44 1.24947C228.324 2.36543 227.697 3.87901 227.697 5.45722ZM259.434 37.1941C259.434 38.7723 260.061 40.2858 261.177 41.4018C262.293 42.5178 263.807 43.1447 265.385 43.1447C266.963 43.1447 268.477 42.5178 269.593 41.4018C270.709 40.2858 271.336 38.7723 271.336 37.1941C271.336 35.6159 270.709 34.1023 269.593 32.9863C268.477 31.8703 266.963 31.2434 265.385 31.2434C263.807 31.2434 262.293 31.8703 261.177 32.9863C260.061 34.1023 259.434 35.6159 259.434 37.1941ZM291.171 68.9309C291.171 70.5091 291.798 72.0227 292.914 73.1387C294.03 74.2546 295.544 74.8816 297.122 74.8816C298.7 74.8816 300.213 74.2546 301.329 73.1387C302.445 72.0227 303.072 70.5091 303.072 68.9309C303.072 67.3527 302.445 65.8391 301.329 64.7232C300.213 63.6072 298.7 62.9803 297.122 62.9803C295.544 62.9803 294.03 63.6072 292.914 64.7232C291.798 65.8391 291.171 67.3527 291.171 68.9309Z" fill="#00000008"/>
</g>
<defs>
<clipPath id="clip0_159_3333">
<rect width="603" height="603" fill="white" transform="translate(603) rotate(90)"/>
</clipPath>
</defs>
</svg>
